<?xml version="1.0" encoding="utf-8" standalone="no"?>
<!DOCTYPE svg PUBLIC "-//W3C//DTD SVG 1.1//EN"
  "http://www.w3.org/Graphics/SVG/1.1/DTD/svg11.dtd">
<svg xmlns:xlink="http://www.w3.org/1999/xlink" width="579.05625pt" height="505.846161pt" viewBox="0 0 579.05625 505.846161" xmlns="http://www.w3.org/2000/svg" version="1.1">
<style>/* === RDF autogenerated palette === */
:root {
    --axis-color: #000;
    --grid-stroke: rgba(0,0,0,0.2);
    --plot3d-stroke: rgba(0,0,0,0.3);
    --plot3d-grid: rgba(0,0,0,0.2);
}
@media (prefers-color-scheme: dark) {
    :root {
        --axis-color: #fff;
        --grid-stroke: rgba(255,255,255,0.2);
        --plot3d-stroke: rgba(255,255,255,0.3);
        --plot3d-grid: rgba(255,255,255,0.2);
    }
}

/* Light‑mode palette */
.black { fill:#000000; stroke:#000000; }:root { --black: #000000; }.c1 { fill:#FF0001; stroke:#FF0001; }:root { --c1: #FF0001; }.c2 { fill:#00FF02; stroke:#00FF02; }:root { --c2: #00FF02; }.c3 { fill:#0000FF; stroke:#0000FF; }:root { --c3: #0000FF; }.c4 { fill:#FF00FF; stroke:#FF00FF; }:root { --c4: #FF00FF; }.c5 { fill:#00FFFF; stroke:#00FFFF; }:root { --c5: #00FFFF; }.c6 { fill:#FFFF00; stroke:#FFFF00; }:root { --c6: #FFFF00; }.c7 { fill:#FF8000; stroke:#FF8000; }:root { --c7: #FF8000; }.c8 { fill:#8000FF; stroke:#8000FF; }:root { --c8: #8000FF; }.gray { fill:#7f7f7f; stroke:#7f7f7f; }:root { --gray: #7f7f7f; }.grey { fill:#7f7f7f; stroke:#7f7f7f; }:root { --grey: #7f7f7f; }.octonary { fill:#bcbd22; stroke:#bcbd22; }:root { --octonary: #bcbd22; }.primary { fill:#d62728; stroke:#d62728; }:root { --primary: #d62728; }.quaternary { fill:#9467bd; stroke:#9467bd; }:root { --quaternary: #9467bd; }.quinary { fill:#8c564b; stroke:#8c564b; }:root { --quinary: #8c564b; }.secondary { fill:#2ca02c; stroke:#2ca02c; }:root { --secondary: #2ca02c; }.senary { fill:#e377c2; stroke:#e377c2; }:root { --senary: #e377c2; }.septenary { fill:#7f7f7f; stroke:#7f7f7f; }:root { --septenary: #7f7f7f; }.tertiary { fill:#1f77b4; stroke:#1f77b4; }:root { --tertiary: #1f77b4; }.white { fill:#ffffff; stroke:#ffffff; }:root { --white: #ffffff; }

/* Dark overrides */
@media (prefers-color-scheme: dark) {
    .black { fill:#FFFFFF; stroke:#FFFFFF; }:root { --black: #FFFFFF; }.c1 { fill:#FF0001; stroke:#FF0001; }:root { --c1: #FF0001; }.c2 { fill:#00FF02; stroke:#00FF02; }:root { --c2: #00FF02; }.c3 { fill:#0000FF; stroke:#0000FF; }:root { --c3: #0000FF; }.c4 { fill:#FF00FF; stroke:#FF00FF; }:root { --c4: #FF00FF; }.c5 { fill:#00FFFF; stroke:#00FFFF; }:root { --c5: #00FFFF; }.c6 { fill:#FFFF00; stroke:#FFFF00; }:root { --c6: #FFFF00; }.c7 { fill:#FF8000; stroke:#FF8000; }:root { --c7: #FF8000; }.c8 { fill:#8000FF; stroke:#8000FF; }:root { --c8: #8000FF; }.gray { fill:#CCCCCC; stroke:#CCCCCC; }:root { --gray: #CCCCCC; }.grey { fill:#CCCCCC; stroke:#CCCCCC; }:root { --grey: #CCCCCC; }.octonary { fill:#E6DB74; stroke:#E6DB74; }:root { --octonary: #E6DB74; }.primary { fill:#FF4A98; stroke:#FF4A98; }:root { --primary: #FF4A98; }.quaternary { fill:#B4A0FF; stroke:#B4A0FF; }:root { --quaternary: #B4A0FF; }.quinary { fill:#FFB86B; stroke:#FFB86B; }:root { --quinary: #FFB86B; }.secondary { fill:#0AFAFA; stroke:#0AFAFA; }:root { --secondary: #0AFAFA; }.senary { fill:#FF79C6; stroke:#FF79C6; }:root { --senary: #FF79C6; }.septenary { fill:#CCCCCC; stroke:#CCCCCC; }:root { --septenary: #CCCCCC; }.tertiary { fill:#7F83FF; stroke:#7F83FF; }:root { --tertiary: #7F83FF; }.white { fill:#000000; stroke:#000000; }:root { --white: #000000; }
}/* Axis, ticks, legend */
text, .text { fill: var(--axis-color) !important; stroke: none !important; }
.axis line, .axis path,
.tick line, .tick path,
path.domain,
line.grid { stroke: var(--axis-color) !important; }
.legend text { fill: var(--axis-color) !important; }

/* Patch paths that relied on currentColor */
.patch path[style*="stroke: currentColor"] { stroke: var(--axis-color) !important; }

/* Legend background (first child of legend group) */
g.legend > g:first-child > path:first-child {
    fill: rgba(255,255,255,0.8) !important;
    stroke: rgba(0,0,0,0.1) !important;
}
@media (prefers-color-scheme: dark) {
    g.legend > g:first-child > path:first-child {
        fill: rgba(26,26,26,0.8) !important;
        stroke: rgba(255,255,255,0.1) !important;
    }
}

/* 3‑D specific rules */
.plot3d path, .plot3d polygon {
    stroke: var(--plot3d-stroke) !important;
}
.plot3d-grid line { stroke: var(--plot3d-grid) !important; }
.plot3d-surface path[style*="fill:"] {
    fill-opacity: 0.9 !important;
}
@media (prefers-color-scheme: dark) {
    .plot3d-surface path[style*="fill:"] {
        fill-opacity: 0.95 !important;
        filter: saturate(1.2) !important;
    }
}</style>

 <metadata>
  <rdf:RDF xmlns:dc="http://purl.org/dc/elements/1.1/" xmlns:cc="http://creativecommons.org/ns#" xmlns:rdf="http://www.w3.org/1999/02/22-rdf-syntax-ns#">
   <cc:Work>
    <dc:type rdf:resource="http://purl.org/dc/dcmitype/StillImage"/>
    <dc:date>2025-10-07T20:19:22.383610</dc:date>
    <dc:format>image/svg+xml</dc:format>
    <dc:creator>
     <cc:Agent>
      <dc:title>Matplotlib v3.10.1, https://matplotlib.org/</dc:title>
     </cc:Agent>
    </dc:creator>
   </cc:Work>
  </rdf:RDF>
 </metadata>
 <defs>
  <style type="text/css">*{stroke-linejoin: round; stroke-linecap: butt}</style>
 </defs>
 <g id="figure_1">
  <g class="patch">
   <path d="M 0 505.846161 
L 579.05625 505.846161 
L 579.05625 0 
L 0 0 
L 0 505.846161 
z
" style="fill: none"/>
  </g>
  <g id="axes_1">
   <g class="patch">
    <path d="M 36.17625 466.354286 
L 571.85625 466.354286 
L 571.85625 7.2 
L 36.17625 7.2 
L 36.17625 466.354286 
z
" style="fill: none"/>
   </g>
   <g id="FillBetweenPolyCollection_1">
    <defs>
     <path id="m960892997d" d="M 75.110385 -307.331875 
L 75.110385 -77.754732 
L 76.452942 -77.754732 
L 77.795498 -77.754732 
L 79.138055 -77.754732 
L 80.480611 -77.754732 
L 81.823167 -77.754732 
L 83.165724 -77.754732 
L 84.50828 -77.754732 
L 85.850836 -77.754732 
L 87.193393 -77.754732 
L 88.535949 -77.754732 
L 89.878506 -77.754732 
L 91.221062 -77.754732 
L 92.563618 -77.754732 
L 93.906175 -77.754732 
L 95.248731 -77.754732 
L 96.591288 -77.754732 
L 97.933844 -77.754732 
L 99.2764 -77.754732 
L 100.618957 -77.754732 
L 101.961513 -77.754732 
L 103.30407 -77.754732 
L 104.646626 -77.754732 
L 105.989182 -77.754732 
L 107.331739 -77.754732 
L 108.674295 -77.754732 
L 110.016852 -77.754732 
L 111.359408 -77.754732 
L 112.701964 -77.754732 
L 114.044521 -77.754732 
L 115.387077 -77.754732 
L 116.729633 -77.754732 
L 118.07219 -77.754732 
L 119.414746 -77.754732 
L 120.757303 -77.754732 
L 122.099859 -77.754732 
L 123.442415 -77.754732 
L 124.784972 -77.754732 
L 126.127528 -77.754732 
L 127.470085 -77.754732 
L 128.812641 -77.754732 
L 130.155197 -77.754732 
L 131.497754 -77.754732 
L 132.84031 -77.754732 
L 134.182867 -77.754732 
L 135.525423 -77.754732 
L 136.867979 -77.754732 
L 138.210536 -77.754732 
L 139.553092 -77.754732 
L 140.895648 -77.754732 
L 142.238205 -77.754732 
L 143.580761 -77.754732 
L 144.923318 -77.754732 
L 146.265874 -77.754732 
L 147.60843 -77.754732 
L 148.950987 -77.754732 
L 150.293543 -77.754732 
L 151.6361 -77.754732 
L 152.978656 -77.754732 
L 154.321212 -77.754732 
L 155.663769 -77.754732 
L 157.006325 -77.754732 
L 158.348882 -77.754732 
L 159.691438 -77.754732 
L 161.033994 -77.754732 
L 162.376551 -77.754732 
L 163.719107 -77.754732 
L 165.061664 -77.754732 
L 166.40422 -77.754732 
L 167.746776 -77.754732 
L 169.089333 -77.754732 
L 170.431889 -77.754732 
L 171.774445 -77.754732 
L 173.117002 -77.754732 
L 174.459558 -77.754732 
L 175.802115 -77.754732 
L 177.144671 -77.754732 
L 178.487227 -77.754732 
L 179.829784 -77.754732 
L 181.17234 -77.754732 
L 182.514897 -77.754732 
L 183.857453 -77.754732 
L 185.200009 -77.754732 
L 186.542566 -77.754732 
L 187.885122 -77.754732 
L 189.227679 -77.754732 
L 190.570235 -77.754732 
L 191.912791 -77.754732 
L 193.255348 -77.754732 
L 194.597904 -77.754732 
L 195.940461 -77.754732 
L 197.283017 -77.754732 
L 198.625573 -77.754732 
L 199.96813 -77.754732 
L 201.310686 -77.754732 
L 202.653242 -77.754732 
L 203.995799 -77.754732 
L 205.338355 -77.754732 
L 206.680912 -77.754732 
L 208.023468 -77.754732 
L 209.366024 -77.754732 
L 210.708581 -77.754732 
L 212.051137 -77.754732 
L 213.393694 -77.754732 
L 214.73625 -77.754732 
L 216.078806 -77.754732 
L 217.421363 -77.754732 
L 218.763919 -77.754732 
L 220.106476 -77.754732 
L 221.449032 -77.754732 
L 222.791588 -77.754732 
L 224.134145 -77.754732 
L 225.476701 -77.754732 
L 226.819258 -77.754732 
L 228.161814 -78.090371 
L 229.50437 -78.761649 
L 230.846927 -79.432928 
L 232.189483 -80.104206 
L 233.532039 -80.775484 
L 234.874596 -81.446762 
L 236.217152 -82.11804 
L 237.559709 -82.789319 
L 238.902265 -83.460597 
L 240.244821 -84.131875 
L 241.587378 -84.803153 
L 242.929934 -85.474431 
L 244.272491 -86.14571 
L 245.615047 -86.816988 
L 246.957603 -87.488266 
L 248.30016 -88.159544 
L 249.642716 -88.830822 
L 250.985273 -89.502101 
L 252.327829 -90.173379 
L 253.670385 -90.844657 
L 255.012942 -91.515935 
L 256.355498 -92.187213 
L 257.698055 -92.858492 
L 259.040611 -93.52977 
L 260.383167 -94.201048 
L 261.725724 -94.872326 
L 263.06828 -95.543604 
L 264.410836 -96.214883 
L 265.753393 -96.886161 
L 267.095949 -97.557439 
L 268.438506 -98.228717 
L 269.781062 -98.899995 
L 271.123618 -99.571273 
L 272.466175 -100.242552 
L 273.808731 -100.91383 
L 275.151288 -101.585108 
L 276.493844 -102.256386 
L 277.8364 -102.927664 
L 279.178957 -103.598943 
L 280.521513 -104.270221 
L 281.86407 -104.941499 
L 283.206626 -105.612777 
L 284.549182 -106.284055 
L 285.891739 -106.955334 
L 287.234295 -107.626612 
L 288.576852 -108.29789 
L 289.919408 -108.969168 
L 291.261964 -109.640446 
L 292.604521 -110.311725 
L 293.947077 -110.983003 
L 295.289633 -111.654281 
L 296.63219 -112.325559 
L 297.974746 -112.996837 
L 299.317303 -113.668116 
L 300.659859 -114.339394 
L 302.002415 -115.010672 
L 303.344972 -115.68195 
L 304.687528 -116.353228 
L 306.030085 -117.024507 
L 307.372641 -117.695785 
L 308.715197 -118.367063 
L 310.057754 -119.038341 
L 311.40031 -119.709619 
L 312.742867 -120.380898 
L 314.085423 -121.052176 
L 315.427979 -121.723454 
L 316.770536 -122.394732 
L 318.113092 -123.06601 
L 319.455648 -123.737289 
L 320.798205 -124.408567 
L 322.140761 -125.079845 
L 323.483318 -125.751123 
L 324.825874 -126.422401 
L 326.16843 -127.09368 
L 327.510987 -127.764958 
L 328.853543 -128.436236 
L 330.1961 -129.107514 
L 331.538656 -129.778792 
L 332.881212 -130.45007 
L 334.223769 -131.121349 
L 335.566325 -131.792627 
L 336.908882 -132.463905 
L 338.251438 -133.135183 
L 339.593994 -133.806461 
L 340.936551 -134.47774 
L 342.279107 -135.149018 
L 343.621664 -135.820296 
L 344.96422 -136.491574 
L 346.306776 -137.162852 
L 347.649333 -137.834131 
L 348.991889 -138.505409 
L 350.334445 -139.176687 
L 351.677002 -139.847965 
L 353.019558 -140.519243 
L 354.362115 -141.190522 
L 355.704671 -141.8618 
L 357.047227 -142.533078 
L 358.389784 -143.204356 
L 359.73234 -143.875634 
L 361.074897 -144.546913 
L 362.417453 -145.218191 
L 363.760009 -145.889469 
L 365.102566 -146.560747 
L 366.445122 -147.232025 
L 367.787679 -147.903304 
L 369.130235 -148.574582 
L 370.472791 -149.24586 
L 371.815348 -149.917138 
L 373.157904 -150.588416 
L 374.500461 -151.259695 
L 375.843017 -151.930973 
L 377.185573 -152.602251 
L 378.52813 -153.273529 
L 379.870686 -153.944807 
L 381.213242 -154.951725 
L 382.555799 -156.294281 
L 383.898355 -157.636837 
L 385.240912 -158.979394 
L 386.583468 -160.32195 
L 387.926024 -161.664507 
L 389.268581 -163.007063 
L 390.611137 -164.349619 
L 391.953694 -165.692176 
L 393.29625 -167.034732 
L 394.638806 -168.377289 
L 395.981363 -169.719845 
L 397.323919 -171.062401 
L 398.666476 -172.404958 
L 400.009032 -173.747514 
L 401.351588 -175.09007 
L 402.694145 -176.432627 
L 404.036701 -177.775183 
L 405.379258 -179.11774 
L 406.721814 -180.460296 
L 408.06437 -181.802852 
L 409.406927 -183.145409 
L 410.749483 -184.487965 
L 412.092039 -185.830522 
L 413.434596 -187.173078 
L 414.777152 -188.515634 
L 416.119709 -189.858191 
L 417.462265 -191.200747 
L 418.804821 -192.543304 
L 420.147378 -193.88586 
L 421.489934 -195.228416 
L 422.832491 -196.570973 
L 424.175047 -197.913529 
L 425.517603 -199.256086 
L 426.86016 -200.598642 
L 428.202716 -201.941198 
L 429.545273 -203.283755 
L 430.887829 -204.626311 
L 432.230385 -205.968867 
L 433.572942 -207.311424 
L 434.915498 -208.65398 
L 436.258055 -209.996537 
L 437.600611 -211.339093 
L 438.943167 -212.681649 
L 440.285724 -214.024206 
L 441.62828 -215.366762 
L 442.970836 -216.709319 
L 444.313393 -218.051875 
L 445.655949 -219.394431 
L 446.998506 -220.736988 
L 448.341062 -222.079544 
L 449.683618 -223.422101 
L 451.026175 -224.764657 
L 452.368731 -226.107213 
L 453.711288 -227.44977 
L 455.053844 -228.792326 
L 456.3964 -230.134883 
L 457.738957 -231.477439 
L 459.081513 -232.819995 
L 460.42407 -234.162552 
L 461.766626 -235.505108 
L 463.109182 -236.847664 
L 464.451739 -238.190221 
L 465.794295 -239.532777 
L 467.136852 -240.875334 
L 468.479408 -242.21789 
L 469.821964 -243.560446 
L 471.164521 -244.903003 
L 472.507077 -246.245559 
L 473.849633 -247.588116 
L 475.19219 -248.930672 
L 476.534746 -250.273228 
L 477.877303 -251.615785 
L 479.219859 -252.958341 
L 480.562415 -254.300898 
L 481.904972 -255.643454 
L 483.247528 -256.98601 
L 484.590085 -258.328567 
L 485.932641 -259.671123 
L 487.275197 -261.01368 
L 488.617754 -262.356236 
L 489.96031 -263.698792 
L 491.302867 -265.041349 
L 492.645423 -266.383905 
L 493.987979 -267.726461 
L 495.330536 -269.069018 
L 496.673092 -270.411574 
L 498.015648 -271.754131 
L 499.358205 -273.096687 
L 500.700761 -274.439243 
L 502.043318 -275.7818 
L 503.385874 -277.124356 
L 504.72843 -278.466913 
L 506.070987 -279.809469 
L 507.413543 -281.152025 
L 508.7561 -282.494582 
L 510.098656 -283.837138 
L 511.441212 -285.179695 
L 512.783769 -286.522251 
L 514.126325 -287.864807 
L 515.468882 -289.207364 
L 516.811438 -290.54992 
L 518.153994 -291.892477 
L 519.496551 -293.235033 
L 520.839107 -294.577589 
L 522.181664 -295.920146 
L 523.52422 -297.262702 
L 524.866776 -298.605258 
L 526.209333 -299.947815 
L 527.551889 -301.290371 
L 528.894445 -302.632928 
L 530.237002 -303.975484 
L 531.579558 -305.31804 
L 532.922115 -306.660597 
L 534.264671 -308.003153 
L 535.607227 -309.34571 
L 536.949784 -310.688266 
L 538.29234 -312.030822 
L 539.634897 -313.373379 
L 540.977453 -314.715935 
L 542.320009 -316.058492 
L 543.662566 -317.401048 
L 545.005122 -318.743604 
L 546.347679 -320.086161 
L 547.690235 -321.428717 
L 549.032791 -322.771273 
L 550.375348 -324.11383 
L 551.717904 -325.456386 
L 553.060461 -326.798943 
L 554.403017 -328.141499 
L 555.745573 -329.484055 
L 557.08813 -330.826612 
L 558.430686 -332.169168 
L 559.773242 -333.511725 
L 561.115799 -334.854281 
L 562.458355 -336.196837 
L 563.800912 -337.539394 
L 565.143468 -338.88195 
L 566.486024 -340.224507 
L 567.828581 -341.567063 
L 569.171137 -342.909619 
L 570.513694 -344.252176 
L 571.85625 -345.594732 
L 571.85625 -307.331875 
L 571.85625 -307.331875 
L 570.513694 -307.331875 
L 569.171137 -307.331875 
L 567.828581 -307.331875 
L 566.486024 -307.331875 
L 565.143468 -307.331875 
L 563.800912 -307.331875 
L 562.458355 -307.331875 
L 561.115799 -307.331875 
L 559.773242 -307.331875 
L 558.430686 -307.331875 
L 557.08813 -307.331875 
L 555.745573 -307.331875 
L 554.403017 -307.331875 
L 553.060461 -307.331875 
L 551.717904 -307.331875 
L 550.375348 -307.331875 
L 549.032791 -307.331875 
L 547.690235 -307.331875 
L 546.347679 -307.331875 
L 545.005122 -307.331875 
L 543.662566 -307.331875 
L 542.320009 -307.331875 
L 540.977453 -307.331875 
L 539.634897 -307.331875 
L 538.29234 -307.331875 
L 536.949784 -307.331875 
L 535.607227 -307.331875 
L 534.264671 -307.331875 
L 532.922115 -307.331875 
L 531.579558 -307.331875 
L 530.237002 -307.331875 
L 528.894445 -307.331875 
L 527.551889 -307.331875 
L 526.209333 -307.331875 
L 524.866776 -307.331875 
L 523.52422 -307.331875 
L 522.181664 -307.331875 
L 520.839107 -307.331875 
L 519.496551 -307.331875 
L 518.153994 -307.331875 
L 516.811438 -307.331875 
L 515.468882 -307.331875 
L 514.126325 -307.331875 
L 512.783769 -307.331875 
L 511.441212 -307.331875 
L 510.098656 -307.331875 
L 508.7561 -307.331875 
L 507.413543 -307.331875 
L 506.070987 -307.331875 
L 504.72843 -307.331875 
L 503.385874 -307.331875 
L 502.043318 -307.331875 
L 500.700761 -307.331875 
L 499.358205 -307.331875 
L 498.015648 -307.331875 
L 496.673092 -307.331875 
L 495.330536 -307.331875 
L 493.987979 -307.331875 
L 492.645423 -307.331875 
L 491.302867 -307.331875 
L 489.96031 -307.331875 
L 488.617754 -307.331875 
L 487.275197 -307.331875 
L 485.932641 -307.331875 
L 484.590085 -307.331875 
L 483.247528 -307.331875 
L 481.904972 -307.331875 
L 480.562415 -307.331875 
L 479.219859 -307.331875 
L 477.877303 -307.331875 
L 476.534746 -307.331875 
L 475.19219 -307.331875 
L 473.849633 -307.331875 
L 472.507077 -307.331875 
L 471.164521 -307.331875 
L 469.821964 -307.331875 
L 468.479408 -307.331875 
L 467.136852 -307.331875 
L 465.794295 -307.331875 
L 464.451739 -307.331875 
L 463.109182 -307.331875 
L 461.766626 -307.331875 
L 460.42407 -307.331875 
L 459.081513 -307.331875 
L 457.738957 -307.331875 
L 456.3964 -307.331875 
L 455.053844 -307.331875 
L 453.711288 -307.331875 
L 452.368731 -307.331875 
L 451.026175 -307.331875 
L 449.683618 -307.331875 
L 448.341062 -307.331875 
L 446.998506 -307.331875 
L 445.655949 -307.331875 
L 444.313393 -307.331875 
L 442.970836 -307.331875 
L 441.62828 -307.331875 
L 440.285724 -307.331875 
L 438.943167 -307.331875 
L 437.600611 -307.331875 
L 436.258055 -307.331875 
L 434.915498 -307.331875 
L 433.572942 -307.331875 
L 432.230385 -307.331875 
L 430.887829 -307.331875 
L 429.545273 -307.331875 
L 428.202716 -307.331875 
L 426.86016 -307.331875 
L 425.517603 -307.331875 
L 424.175047 -307.331875 
L 422.832491 -307.331875 
L 421.489934 -307.331875 
L 420.147378 -307.331875 
L 418.804821 -307.331875 
L 417.462265 -307.331875 
L 416.119709 -307.331875 
L 414.777152 -307.331875 
L 413.434596 -307.331875 
L 412.092039 -307.331875 
L 410.749483 -307.331875 
L 409.406927 -307.331875 
L 408.06437 -307.331875 
L 406.721814 -307.331875 
L 405.379258 -307.331875 
L 404.036701 -307.331875 
L 402.694145 -307.331875 
L 401.351588 -307.331875 
L 400.009032 -307.331875 
L 398.666476 -307.331875 
L 397.323919 -307.331875 
L 395.981363 -307.331875 
L 394.638806 -307.331875 
L 393.29625 -307.331875 
L 391.953694 -307.331875 
L 390.611137 -307.331875 
L 389.268581 -307.331875 
L 387.926024 -307.331875 
L 386.583468 -307.331875 
L 385.240912 -307.331875 
L 383.898355 -307.331875 
L 382.555799 -307.331875 
L 381.213242 -307.331875 
L 379.870686 -307.331875 
L 378.52813 -307.331875 
L 377.185573 -307.331875 
L 375.843017 -307.331875 
L 374.500461 -307.331875 
L 373.157904 -307.331875 
L 371.815348 -307.331875 
L 370.472791 -307.331875 
L 369.130235 -307.331875 
L 367.787679 -307.331875 
L 366.445122 -307.331875 
L 365.102566 -307.331875 
L 363.760009 -307.331875 
L 362.417453 -307.331875 
L 361.074897 -307.331875 
L 359.73234 -307.331875 
L 358.389784 -307.331875 
L 357.047227 -307.331875 
L 355.704671 -307.331875 
L 354.362115 -307.331875 
L 353.019558 -307.331875 
L 351.677002 -307.331875 
L 350.334445 -307.331875 
L 348.991889 -307.331875 
L 347.649333 -307.331875 
L 346.306776 -307.331875 
L 344.96422 -307.331875 
L 343.621664 -307.331875 
L 342.279107 -307.331875 
L 340.936551 -307.331875 
L 339.593994 -307.331875 
L 338.251438 -307.331875 
L 336.908882 -307.331875 
L 335.566325 -307.331875 
L 334.223769 -307.331875 
L 332.881212 -307.331875 
L 331.538656 -307.331875 
L 330.1961 -307.331875 
L 328.853543 -307.331875 
L 327.510987 -307.331875 
L 326.16843 -307.331875 
L 324.825874 -307.331875 
L 323.483318 -307.331875 
L 322.140761 -307.331875 
L 320.798205 -307.331875 
L 319.455648 -307.331875 
L 318.113092 -307.331875 
L 316.770536 -307.331875 
L 315.427979 -307.331875 
L 314.085423 -307.331875 
L 312.742867 -307.331875 
L 311.40031 -307.331875 
L 310.057754 -307.331875 
L 308.715197 -307.331875 
L 307.372641 -307.331875 
L 306.030085 -307.331875 
L 304.687528 -307.331875 
L 303.344972 -307.331875 
L 302.002415 -307.331875 
L 300.659859 -307.331875 
L 299.317303 -307.331875 
L 297.974746 -307.331875 
L 296.63219 -307.331875 
L 295.289633 -307.331875 
L 293.947077 -307.331875 
L 292.604521 -307.331875 
L 291.261964 -307.331875 
L 289.919408 -307.331875 
L 288.576852 -307.331875 
L 287.234295 -307.331875 
L 285.891739 -307.331875 
L 284.549182 -307.331875 
L 283.206626 -307.331875 
L 281.86407 -307.331875 
L 280.521513 -307.331875 
L 279.178957 -307.331875 
L 277.8364 -307.331875 
L 276.493844 -307.331875 
L 275.151288 -307.331875 
L 273.808731 -307.331875 
L 272.466175 -307.331875 
L 271.123618 -307.331875 
L 269.781062 -307.331875 
L 268.438506 -307.331875 
L 267.095949 -307.331875 
L 265.753393 -307.331875 
L 264.410836 -307.331875 
L 263.06828 -307.331875 
L 261.725724 -307.331875 
L 260.383167 -307.331875 
L 259.040611 -307.331875 
L 257.698055 -307.331875 
L 256.355498 -307.331875 
L 255.012942 -307.331875 
L 253.670385 -307.331875 
L 252.327829 -307.331875 
L 250.985273 -307.331875 
L 249.642716 -307.331875 
L 248.30016 -307.331875 
L 246.957603 -307.331875 
L 245.615047 -307.331875 
L 244.272491 -307.331875 
L 242.929934 -307.331875 
L 241.587378 -307.331875 
L 240.244821 -307.331875 
L 238.902265 -307.331875 
L 237.559709 -307.331875 
L 236.217152 -307.331875 
L 234.874596 -307.331875 
L 233.532039 -307.331875 
L 232.189483 -307.331875 
L 230.846927 -307.331875 
L 229.50437 -307.331875 
L 228.161814 -307.331875 
L 226.819258 -307.331875 
L 225.476701 -307.331875 
L 224.134145 -307.331875 
L 222.791588 -307.331875 
L 221.449032 -307.331875 
L 220.106476 -307.331875 
L 218.763919 -307.331875 
L 217.421363 -307.331875 
L 216.078806 -307.331875 
L 214.73625 -307.331875 
L 213.393694 -307.331875 
L 212.051137 -307.331875 
L 210.708581 -307.331875 
L 209.366024 -307.331875 
L 208.023468 -307.331875 
L 206.680912 -307.331875 
L 205.338355 -307.331875 
L 203.995799 -307.331875 
L 202.653242 -307.331875 
L 201.310686 -307.331875 
L 199.96813 -307.331875 
L 198.625573 -307.331875 
L 197.283017 -307.331875 
L 195.940461 -307.331875 
L 194.597904 -307.331875 
L 193.255348 -307.331875 
L 191.912791 -307.331875 
L 190.570235 -307.331875 
L 189.227679 -307.331875 
L 187.885122 -307.331875 
L 186.542566 -307.331875 
L 185.200009 -307.331875 
L 183.857453 -307.331875 
L 182.514897 -307.331875 
L 181.17234 -307.331875 
L 179.829784 -307.331875 
L 178.487227 -307.331875 
L 177.144671 -307.331875 
L 175.802115 -307.331875 
L 174.459558 -307.331875 
L 173.117002 -307.331875 
L 171.774445 -307.331875 
L 170.431889 -307.331875 
L 169.089333 -307.331875 
L 167.746776 -307.331875 
L 166.40422 -307.331875 
L 165.061664 -307.331875 
L 163.719107 -307.331875 
L 162.376551 -307.331875 
L 161.033994 -307.331875 
L 159.691438 -307.331875 
L 158.348882 -307.331875 
L 157.006325 -307.331875 
L 155.663769 -307.331875 
L 154.321212 -307.331875 
L 152.978656 -307.331875 
L 151.6361 -307.331875 
L 150.293543 -307.331875 
L 148.950987 -307.331875 
L 147.60843 -307.331875 
L 146.265874 -307.331875 
L 144.923318 -307.331875 
L 143.580761 -307.331875 
L 142.238205 -307.331875 
L 140.895648 -307.331875 
L 139.553092 -307.331875 
L 138.210536 -307.331875 
L 136.867979 -307.331875 
L 135.525423 -307.331875 
L 134.182867 -307.331875 
L 132.84031 -307.331875 
L 131.497754 -307.331875 
L 130.155197 -307.331875 
L 128.812641 -307.331875 
L 127.470085 -307.331875 
L 126.127528 -307.331875 
L 124.784972 -307.331875 
L 123.442415 -307.331875 
L 122.099859 -307.331875 
L 120.757303 -307.331875 
L 119.414746 -307.331875 
L 118.07219 -307.331875 
L 116.729633 -307.331875 
L 115.387077 -307.331875 
L 114.044521 -307.331875 
L 112.701964 -307.331875 
L 111.359408 -307.331875 
L 110.016852 -307.331875 
L 108.674295 -307.331875 
L 107.331739 -307.331875 
L 105.989182 -307.331875 
L 104.646626 -307.331875 
L 103.30407 -307.331875 
L 101.961513 -307.331875 
L 100.618957 -307.331875 
L 99.2764 -307.331875 
L 97.933844 -307.331875 
L 96.591288 -307.331875 
L 95.248731 -307.331875 
L 93.906175 -307.331875 
L 92.563618 -307.331875 
L 91.221062 -307.331875 
L 89.878506 -307.331875 
L 88.535949 -307.331875 
L 87.193393 -307.331875 
L 85.850836 -307.331875 
L 84.50828 -307.331875 
L 83.165724 -307.331875 
L 81.823167 -307.331875 
L 80.480611 -307.331875 
L 79.138055 -307.331875 
L 77.795498 -307.331875 
L 76.452942 -307.331875 
L 75.110385 -307.331875 
z
" style="stroke: #8000ff; stroke-opacity: 0.5"/>
    </defs>
    <g clip-path="url(#p0965058268)">
     <use xlink:href="#m960892997d" x="0" y="505.846161" style="fill: #8000ff; fill-opacity: 0.5; stroke: #8000ff; stroke-opacity: 0.5"/>
    </g>
   </g>
   <g class="axis">
    <g class="tick xtick">
     <g id="line2d_1">
      <path d="M 74.439107 466.354286 
L 74.439107 7.2 
" clip-path="url(#p0965058268)" style="fill: none; stroke: #b0b0b0; stroke-opacity: 0.3; stroke-width: 0.8; stroke-linecap: square"/>
     </g>
     <g id="line2d_2">
      <defs>
       <path id="m6996f88252" d="M 0 0 
L 0 3.5 
" style="stroke: var(--black); stroke-width: 0.8"/>
      </defs>
      <g>
       <use xlink:href="#m6996f88252" x="74.439107" y="466.354286" style="stroke: var(--black); stroke-width: 0.8"/>
      </g>
     </g>
     <g id="text_1" class="text">
      <!-- 0 -->
      <g transform="translate(71.257857 480.952723) scale(0.1 -0.1)">
       <defs>
        <path id="DejaVuSans-30" d="M 2034 4250 
Q 1547 4250 1301 3770 
Q 1056 3291 1056 2328 
Q 1056 1369 1301 889 
Q 1547 409 2034 409 
Q 2525 409 2770 889 
Q 3016 1369 3016 2328 
Q 3016 3291 2770 3770 
Q 2525 4250 2034 4250 
z
M 2034 4750 
Q 2819 4750 3233 4129 
Q 3647 3509 3647 2328 
Q 3647 1150 3233 529 
Q 2819 -91 2034 -91 
Q 1250 -91 836 529 
Q 422 1150 422 2328 
Q 422 3509 836 4129 
Q 1250 4750 2034 4750 
z
" transform="scale(0.015625)"/>
       </defs>
       <use xlink:href="#DejaVuSans-30"/>
      </g>
     </g>
    </g>
    <g class="tick xtick">
     <g id="line2d_3">
      <path d="M 150.964821 466.354286 
L 150.964821 7.2 
" clip-path="url(#p0965058268)" style="fill: none; stroke: #b0b0b0; stroke-opacity: 0.3; stroke-width: 0.8; stroke-linecap: square"/>
     </g>
     <g id="line2d_4">
      <g>
       <use xlink:href="#m6996f88252" x="150.964821" y="466.354286" style="stroke: var(--black); stroke-width: 0.8"/>
      </g>
     </g>
     <g id="text_2" class="text">
      <!-- 1 -->
      <g transform="translate(147.783571 480.952723) scale(0.1 -0.1)">
       <defs>
        <path id="DejaVuSans-31" d="M 794 531 
L 1825 531 
L 1825 4091 
L 703 3866 
L 703 4441 
L 1819 4666 
L 2450 4666 
L 2450 531 
L 3481 531 
L 3481 0 
L 794 0 
L 794 531 
z
" transform="scale(0.015625)"/>
       </defs>
       <use xlink:href="#DejaVuSans-31"/>
      </g>
     </g>
    </g>
    <g class="tick xtick">
     <g id="line2d_5">
      <path d="M 227.490536 466.354286 
L 227.490536 7.2 
" clip-path="url(#p0965058268)" style="fill: none; stroke: #b0b0b0; stroke-opacity: 0.3; stroke-width: 0.8; stroke-linecap: square"/>
     </g>
     <g id="line2d_6">
      <g>
       <use xlink:href="#m6996f88252" x="227.490536" y="466.354286" style="stroke: var(--black); stroke-width: 0.8"/>
      </g>
     </g>
     <g id="text_3" class="text">
      <!-- 2 -->
      <g transform="translate(224.309286 480.952723) scale(0.1 -0.1)">
       <defs>
        <path id="DejaVuSans-32" d="M 1228 531 
L 3431 531 
L 3431 0 
L 469 0 
L 469 531 
Q 828 903 1448 1529 
Q 2069 2156 2228 2338 
Q 2531 2678 2651 2914 
Q 2772 3150 2772 3378 
Q 2772 3750 2511 3984 
Q 2250 4219 1831 4219 
Q 1534 4219 1204 4116 
Q 875 4013 500 3803 
L 500 4441 
Q 881 4594 1212 4672 
Q 1544 4750 1819 4750 
Q 2544 4750 2975 4387 
Q 3406 4025 3406 3419 
Q 3406 3131 3298 2873 
Q 3191 2616 2906 2266 
Q 2828 2175 2409 1742 
Q 1991 1309 1228 531 
z
" transform="scale(0.015625)"/>
       </defs>
       <use xlink:href="#DejaVuSans-32"/>
      </g>
     </g>
    </g>
    <g class="tick xtick">
     <g id="line2d_7">
      <path d="M 304.01625 466.354286 
L 304.01625 7.2 
" clip-path="url(#p0965058268)" style="fill: none; stroke: #b0b0b0; stroke-opacity: 0.3; stroke-width: 0.8; stroke-linecap: square"/>
     </g>
     <g id="line2d_8">
      <g>
       <use xlink:href="#m6996f88252" x="304.01625" y="466.354286" style="stroke: var(--black); stroke-width: 0.8"/>
      </g>
     </g>
     <g id="text_4" class="text">
      <!-- 3 -->
      <g transform="translate(300.835 480.952723) scale(0.1 -0.1)">
       <defs>
        <path id="DejaVuSans-33" d="M 2597 2516 
Q 3050 2419 3304 2112 
Q 3559 1806 3559 1356 
Q 3559 666 3084 287 
Q 2609 -91 1734 -91 
Q 1441 -91 1130 -33 
Q 819 25 488 141 
L 488 750 
Q 750 597 1062 519 
Q 1375 441 1716 441 
Q 2309 441 2620 675 
Q 2931 909 2931 1356 
Q 2931 1769 2642 2001 
Q 2353 2234 1838 2234 
L 1294 2234 
L 1294 2753 
L 1863 2753 
Q 2328 2753 2575 2939 
Q 2822 3125 2822 3475 
Q 2822 3834 2567 4026 
Q 2313 4219 1838 4219 
Q 1578 4219 1281 4162 
Q 984 4106 628 3988 
L 628 4550 
Q 988 4650 1302 4700 
Q 1616 4750 1894 4750 
Q 2613 4750 3031 4423 
Q 3450 4097 3450 3541 
Q 3450 3153 3228 2886 
Q 3006 2619 2597 2516 
z
" transform="scale(0.015625)"/>
       </defs>
       <use xlink:href="#DejaVuSans-33"/>
      </g>
     </g>
    </g>
    <g class="tick xtick">
     <g id="line2d_9">
      <path d="M 380.541964 466.354286 
L 380.541964 7.2 
" clip-path="url(#p0965058268)" style="fill: none; stroke: #b0b0b0; stroke-opacity: 0.3; stroke-width: 0.8; stroke-linecap: square"/>
     </g>
     <g id="line2d_10">
      <g>
       <use xlink:href="#m6996f88252" x="380.541964" y="466.354286" style="stroke: var(--black); stroke-width: 0.8"/>
      </g>
     </g>
     <g id="text_5" class="text">
      <!-- 4 -->
      <g transform="translate(377.360714 480.952723) scale(0.1 -0.1)">
       <defs>
        <path id="DejaVuSans-34" d="M 2419 4116 
L 825 1625 
L 2419 1625 
L 2419 4116 
z
M 2253 4666 
L 3047 4666 
L 3047 1625 
L 3713 1625 
L 3713 1100 
L 3047 1100 
L 3047 0 
L 2419 0 
L 2419 1100 
L 313 1100 
L 313 1709 
L 2253 4666 
z
" transform="scale(0.015625)"/>
       </defs>
       <use xlink:href="#DejaVuSans-34"/>
      </g>
     </g>
    </g>
    <g class="tick xtick">
     <g id="line2d_11">
      <path d="M 457.067679 466.354286 
L 457.067679 7.2 
" clip-path="url(#p0965058268)" style="fill: none; stroke: #b0b0b0; stroke-opacity: 0.3; stroke-width: 0.8; stroke-linecap: square"/>
     </g>
     <g id="line2d_12">
      <g>
       <use xlink:href="#m6996f88252" x="457.067679" y="466.354286" style="stroke: var(--black); stroke-width: 0.8"/>
      </g>
     </g>
     <g id="text_6" class="text">
      <!-- 5 -->
      <g transform="translate(453.886429 480.952723) scale(0.1 -0.1)">
       <defs>
        <path id="DejaVuSans-35" d="M 691 4666 
L 3169 4666 
L 3169 4134 
L 1269 4134 
L 1269 2991 
Q 1406 3038 1543 3061 
Q 1681 3084 1819 3084 
Q 2600 3084 3056 2656 
Q 3513 2228 3513 1497 
Q 3513 744 3044 326 
Q 2575 -91 1722 -91 
Q 1428 -91 1123 -41 
Q 819 9 494 109 
L 494 744 
Q 775 591 1075 516 
Q 1375 441 1709 441 
Q 2250 441 2565 725 
Q 2881 1009 2881 1497 
Q 2881 1984 2565 2268 
Q 2250 2553 1709 2553 
Q 1456 2553 1204 2497 
Q 953 2441 691 2322 
L 691 4666 
z
" transform="scale(0.015625)"/>
       </defs>
       <use xlink:href="#DejaVuSans-35"/>
      </g>
     </g>
    </g>
    <g class="tick xtick">
     <g id="line2d_13">
      <path d="M 533.593393 466.354286 
L 533.593393 7.2 
" clip-path="url(#p0965058268)" style="fill: none; stroke: #b0b0b0; stroke-opacity: 0.3; stroke-width: 0.8; stroke-linecap: square"/>
     </g>
     <g id="line2d_14">
      <g>
       <use xlink:href="#m6996f88252" x="533.593393" y="466.354286" style="stroke: var(--black); stroke-width: 0.8"/>
      </g>
     </g>
     <g id="text_7" class="text">
      <!-- 6 -->
      <g transform="translate(530.412143 480.952723) scale(0.1 -0.1)">
       <defs>
        <path id="DejaVuSans-36" d="M 2113 2584 
Q 1688 2584 1439 2293 
Q 1191 2003 1191 1497 
Q 1191 994 1439 701 
Q 1688 409 2113 409 
Q 2538 409 2786 701 
Q 3034 994 3034 1497 
Q 3034 2003 2786 2293 
Q 2538 2584 2113 2584 
z
M 3366 4563 
L 3366 3988 
Q 3128 4100 2886 4159 
Q 2644 4219 2406 4219 
Q 1781 4219 1451 3797 
Q 1122 3375 1075 2522 
Q 1259 2794 1537 2939 
Q 1816 3084 2150 3084 
Q 2853 3084 3261 2657 
Q 3669 2231 3669 1497 
Q 3669 778 3244 343 
Q 2819 -91 2113 -91 
Q 1303 -91 875 529 
Q 447 1150 447 2328 
Q 447 3434 972 4092 
Q 1497 4750 2381 4750 
Q 2619 4750 2861 4703 
Q 3103 4656 3366 4563 
z
" transform="scale(0.015625)"/>
       </defs>
       <use xlink:href="#DejaVuSans-36"/>
      </g>
     </g>
    </g>
    <g id="text_8" class="text">
     <!-- $x_1$ -->
     <g transform="translate(297.59625 496.150536) scale(0.12 -0.12)">
      <defs>
       <path id="DejaVuSans-Oblique-78" d="M 3841 3500 
L 2234 1784 
L 3219 0 
L 2559 0 
L 1819 1388 
L 531 0 
L -166 0 
L 1556 1844 
L 641 3500 
L 1300 3500 
L 1972 2234 
L 3144 3500 
L 3841 3500 
z
" transform="scale(0.015625)"/>
      </defs>
      <use xlink:href="#DejaVuSans-Oblique-78" transform="translate(0 0.3125)"/>
      <use xlink:href="#DejaVuSans-31" transform="translate(59.179688 -16.09375) scale(0.7)"/>
     </g>
    </g>
   </g>
   <g class="axis">
    <g class="tick ytick">
     <g id="line2d_15">
      <path d="M 36.17625 428.091429 
L 571.85625 428.091429 
" clip-path="url(#p0965058268)" style="fill: none; stroke: #b0b0b0; stroke-opacity: 0.3; stroke-width: 0.8; stroke-linecap: square"/>
     </g>
     <g id="line2d_16">
      <defs>
       <path id="m5048297836" d="M 0 0 
L -3.5 0 
" style="stroke: var(--black); stroke-width: 0.8"/>
      </defs>
      <g>
       <use xlink:href="#m5048297836" x="36.17625" y="428.091429" style="stroke: var(--black); stroke-width: 0.8"/>
      </g>
     </g>
     <g id="text_9" class="text">
      <!-- 0 -->
      <g transform="translate(22.81375 431.890647) scale(0.1 -0.1)">
       <use xlink:href="#DejaVuSans-30"/>
      </g>
     </g>
    </g>
    <g class="tick ytick">
     <g id="line2d_17">
      <path d="M 36.17625 351.565714 
L 571.85625 351.565714 
" clip-path="url(#p0965058268)" style="fill: none; stroke: #b0b0b0; stroke-opacity: 0.3; stroke-width: 0.8; stroke-linecap: square"/>
     </g>
     <g id="line2d_18">
      <g>
       <use xlink:href="#m5048297836" x="36.17625" y="351.565714" style="stroke: var(--black); stroke-width: 0.8"/>
      </g>
     </g>
     <g id="text_10" class="text">
      <!-- 1 -->
      <g transform="translate(22.81375 355.364933) scale(0.1 -0.1)">
       <use xlink:href="#DejaVuSans-31"/>
      </g>
     </g>
    </g>
    <g class="tick ytick">
     <g id="line2d_19">
      <path d="M 36.17625 275.04 
L 571.85625 275.04 
" clip-path="url(#p0965058268)" style="fill: none; stroke: #b0b0b0; stroke-opacity: 0.3; stroke-width: 0.8; stroke-linecap: square"/>
     </g>
     <g id="line2d_20">
      <g>
       <use xlink:href="#m5048297836" x="36.17625" y="275.04" style="stroke: var(--black); stroke-width: 0.8"/>
      </g>
     </g>
     <g id="text_11" class="text">
      <!-- 2 -->
      <g transform="translate(22.81375 278.839219) scale(0.1 -0.1)">
       <use xlink:href="#DejaVuSans-32"/>
      </g>
     </g>
    </g>
    <g class="tick ytick">
     <g id="line2d_21">
      <path d="M 36.17625 198.514286 
L 571.85625 198.514286 
" clip-path="url(#p0965058268)" style="fill: none; stroke: #b0b0b0; stroke-opacity: 0.3; stroke-width: 0.8; stroke-linecap: square"/>
     </g>
     <g id="line2d_22">
      <g>
       <use xlink:href="#m5048297836" x="36.17625" y="198.514286" style="stroke: var(--black); stroke-width: 0.8"/>
      </g>
     </g>
     <g id="text_12" class="text">
      <!-- 3 -->
      <g transform="translate(22.81375 202.313504) scale(0.1 -0.1)">
       <use xlink:href="#DejaVuSans-33"/>
      </g>
     </g>
    </g>
    <g class="tick ytick">
     <g id="line2d_23">
      <path d="M 36.17625 121.988571 
L 571.85625 121.988571 
" clip-path="url(#p0965058268)" style="fill: none; stroke: #b0b0b0; stroke-opacity: 0.3; stroke-width: 0.8; stroke-linecap: square"/>
     </g>
     <g id="line2d_24">
      <g>
       <use xlink:href="#m5048297836" x="36.17625" y="121.988571" style="stroke: var(--black); stroke-width: 0.8"/>
      </g>
     </g>
     <g id="text_13" class="text">
      <!-- 4 -->
      <g transform="translate(22.81375 125.78779) scale(0.1 -0.1)">
       <use xlink:href="#DejaVuSans-34"/>
      </g>
     </g>
    </g>
    <g class="tick ytick">
     <g id="line2d_25">
      <path d="M 36.17625 45.462857 
L 571.85625 45.462857 
" clip-path="url(#p0965058268)" style="fill: none; stroke: #b0b0b0; stroke-opacity: 0.3; stroke-width: 0.8; stroke-linecap: square"/>
     </g>
     <g id="line2d_26">
      <g>
       <use xlink:href="#m5048297836" x="36.17625" y="45.462857" style="stroke: var(--black); stroke-width: 0.8"/>
      </g>
     </g>
     <g id="text_14" class="text">
      <!-- 5 -->
      <g transform="translate(22.81375 49.262076) scale(0.1 -0.1)">
       <use xlink:href="#DejaVuSans-35"/>
      </g>
     </g>
    </g>
    <g id="text_15" class="text">
     <!-- $x_2$ -->
     <g transform="translate(16.318125 243.197143) rotate(-90) scale(0.12 -0.12)">
      <use xlink:href="#DejaVuSans-Oblique-78" transform="translate(0 0.3125)"/>
      <use xlink:href="#DejaVuSans-32" transform="translate(59.179688 -16.09375) scale(0.7)"/>
     </g>
    </g>
   </g>
   <g id="line2d_27">
    <path d="M 36.17625 7.2 
L 571.85625 7.2 
L 571.85625 7.2 
" clip-path="url(#p0965058268)" style="fill: none; stroke-dasharray: 3.7,1.6; stroke-dashoffset: 0; stroke: var(--black)"/>
   </g>
   <g id="line2d_28">
    <path d="M 571.85625 466.354286 
L 571.85625 -1 
L 571.85625 -1 
" clip-path="url(#p0965058268)" style="fill: none; stroke-dasharray: 3.7,1.6; stroke-dashoffset: 0; stroke: var(--black)"/>
   </g>
   <g id="line2d_29">
    <path d="M 36.17625 428.091429 
L 571.85625 428.091429 
" clip-path="url(#p0965058268)" style="fill: none; stroke: var(--black); stroke-opacity: 0.5; stroke-width: 0.8; stroke-linecap: square"/>
   </g>
   <g id="line2d_30">
    <path d="M 74.439107 466.354286 
L 74.439107 7.2 
" clip-path="url(#p0965058268)" style="fill: none; stroke: var(--black); stroke-opacity: 0.5; stroke-width: 0.8; stroke-linecap: square"/>
   </g>
   <g class="patch">
    <path d="M 36.17625 466.354286 
L 36.17625 7.2 
" style="fill: none; stroke: var(--black); stroke-width: 0.8; stroke-linejoin: miter; stroke-linecap: square"/>
   </g>
   <g class="patch">
    <path d="M 36.17625 466.354286 
L 571.85625 466.354286 
" style="fill: none; stroke: var(--black); stroke-width: 0.8; stroke-linejoin: miter; stroke-linecap: square"/>
   </g>
   <g id="line2d_31">
    <path d="M 69.981071 506.846161 
L 571.85625 255.908571 
L 571.85625 255.908571 
" clip-path="url(#p0965058268)" style="fill: none; stroke: var(--black); stroke-width: 2; stroke-linecap: square"/>
   </g>
   <g id="line2d_32">
    <path d="M 225.261518 506.846161 
L 571.85625 160.251429 
L 571.85625 160.251429 
" clip-path="url(#p0965058268)" style="fill: none; stroke: var(--black); stroke-width: 2; stroke-linecap: square"/>
   </g>
   <g id="line2d_33">
    <path d="M 36.17625 198.514286 
L 571.85625 198.514286 
L 571.85625 198.514286 
" clip-path="url(#p0965058268)" style="fill: none; stroke: var(--black); stroke-width: 2; stroke-linecap: square"/>
   </g>
   <g id="line2d_34">
    <path d="M 36.17625 428.091429 
L 571.85625 428.091429 
L 571.85625 428.091429 
" clip-path="url(#p0965058268)" style="fill: none; stroke: var(--black); stroke-width: 2; stroke-linecap: square"/>
   </g>
   <g id="line2d_35">
    <path d="M 74.439107 466.354286 
L 74.439107 -1 
L 74.439107 -1 
" clip-path="url(#p0965058268)" style="fill: none; stroke: var(--black); stroke-width: 2; stroke-linecap: square"/>
   </g>
   <g class="legend">
    <g class="patch">
     <path d="M 438.40625 117.946875 
L 564.85625 117.946875 
Q 566.85625 117.946875 566.85625 115.946875 
L 566.85625 14.2 
Q 566.85625 12.2 564.85625 12.2 
L 438.40625 12.2 
Q 436.40625 12.2 436.40625 14.2 
L 436.40625 115.946875 
Q 436.40625 117.946875 438.40625 117.946875 
z
" style="fill: var(--white); opacity: 0.9; stroke: #cccccc; stroke-linejoin: miter"/>
    </g>
    <g id="line2d_36">
     <path d="M 440.40625 20.298437 
L 450.40625 20.298437 
L 460.40625 20.298437 
" style="fill: none; stroke: var(--black); stroke-width: 2; stroke-linecap: square"/>
    </g>
    <g id="text_16" class="text">
     <!-- $x_1 - 2x_2 \leq 2$ -->
     <g transform="translate(468.40625 23.798437) scale(0.1 -0.1)">
      <defs>
       <path id="DejaVuSans-2212" d="M 678 2272 
L 4684 2272 
L 4684 1741 
L 678 1741 
L 678 2272 
z
" transform="scale(0.015625)"/>
       <path id="DejaVuSans-2264" d="M 4684 3175 
L 1684 2309 
L 4684 1453 
L 4684 897 
L 678 2047 
L 678 2578 
L 4684 3725 
L 4684 3175 
z
M 678 531 
L 4684 531 
L 4684 0 
L 678 0 
L 678 531 
z
" transform="scale(0.015625)"/>
      </defs>
      <use xlink:href="#DejaVuSans-Oblique-78" transform="translate(0 0.78125)"/>
      <use xlink:href="#DejaVuSans-31" transform="translate(59.179688 -15.625) scale(0.7)"/>
      <use xlink:href="#DejaVuSans-2212" transform="translate(125.932617 0.78125)"/>
      <use xlink:href="#DejaVuSans-32" transform="translate(229.204102 0.78125)"/>
      <use xlink:href="#DejaVuSans-Oblique-78" transform="translate(292.827148 0.78125)"/>
      <use xlink:href="#DejaVuSans-32" transform="translate(352.006836 -15.625) scale(0.7)"/>
      <use xlink:href="#DejaVuSans-2264" transform="translate(418.759766 0.78125)"/>
      <use xlink:href="#DejaVuSans-32" transform="translate(522.03125 0.78125)"/>
     </g>
    </g>
    <g id="line2d_37">
     <path d="M 440.40625 34.976562 
L 450.40625 34.976562 
L 460.40625 34.976562 
" style="fill: none; stroke: var(--black); stroke-width: 2; stroke-linecap: square"/>
    </g>
    <g id="text_17" class="text">
     <!-- $x_1 - x_2 \leq 3$ -->
     <g transform="translate(468.40625 38.476562) scale(0.1 -0.1)">
      <use xlink:href="#DejaVuSans-Oblique-78" transform="translate(0 0.78125)"/>
      <use xlink:href="#DejaVuSans-31" transform="translate(59.179688 -15.625) scale(0.7)"/>
      <use xlink:href="#DejaVuSans-2212" transform="translate(125.932617 0.78125)"/>
      <use xlink:href="#DejaVuSans-Oblique-78" transform="translate(229.204102 0.78125)"/>
      <use xlink:href="#DejaVuSans-32" transform="translate(288.383789 -15.625) scale(0.7)"/>
      <use xlink:href="#DejaVuSans-2264" transform="translate(355.136719 0.78125)"/>
      <use xlink:href="#DejaVuSans-33" transform="translate(458.408203 0.78125)"/>
     </g>
    </g>
    <g id="line2d_38">
     <path d="M 440.40625 49.654687 
L 450.40625 49.654687 
L 460.40625 49.654687 
" style="fill: none; stroke: var(--black); stroke-width: 2; stroke-linecap: square"/>
    </g>
    <g id="text_18" class="text">
     <!-- $x_2 \leq 3$ -->
     <g transform="translate(468.40625 53.154687) scale(0.1 -0.1)">
      <use xlink:href="#DejaVuSans-Oblique-78" transform="translate(0 0.78125)"/>
      <use xlink:href="#DejaVuSans-32" transform="translate(59.179688 -15.625) scale(0.7)"/>
      <use xlink:href="#DejaVuSans-2264" transform="translate(125.932617 0.78125)"/>
      <use xlink:href="#DejaVuSans-33" transform="translate(229.204102 0.78125)"/>
     </g>
    </g>
    <g id="line2d_39">
     <path d="M 440.40625 64.332812 
L 450.40625 64.332812 
L 460.40625 64.332812 
" style="fill: none; stroke: var(--black); stroke-width: 2; stroke-linecap: square"/>
    </g>
    <g id="text_19" class="text">
     <!-- $x_2 \geq 0$ -->
     <g transform="translate(468.40625 67.832812) scale(0.1 -0.1)">
      <defs>
       <path id="DejaVuSans-2265" d="M 678 3175 
L 678 3725 
L 4684 2578 
L 4684 2047 
L 678 897 
L 678 1453 
L 3681 2309 
L 678 3175 
z
M 4684 531 
L 4684 0 
L 678 0 
L 678 531 
L 4684 531 
z
" transform="scale(0.015625)"/>
      </defs>
      <use xlink:href="#DejaVuSans-Oblique-78" transform="translate(0 0.78125)"/>
      <use xlink:href="#DejaVuSans-32" transform="translate(59.179688 -15.625) scale(0.7)"/>
      <use xlink:href="#DejaVuSans-2265" transform="translate(125.932617 0.78125)"/>
      <use xlink:href="#DejaVuSans-30" transform="translate(229.204102 0.78125)"/>
     </g>
    </g>
    <g id="line2d_40">
     <path d="M 440.40625 79.010937 
L 450.40625 79.010937 
L 460.40625 79.010937 
" style="fill: none; stroke: var(--black); stroke-width: 2; stroke-linecap: square"/>
    </g>
    <g id="text_20" class="text">
     <!-- $x_1 \geq 0$ -->
     <g transform="translate(468.40625 82.510937) scale(0.1 -0.1)">
      <use xlink:href="#DejaVuSans-Oblique-78" transform="translate(0 0.78125)"/>
      <use xlink:href="#DejaVuSans-31" transform="translate(59.179688 -15.625) scale(0.7)"/>
      <use xlink:href="#DejaVuSans-2265" transform="translate(125.932617 0.78125)"/>
      <use xlink:href="#DejaVuSans-30" transform="translate(229.204102 0.78125)"/>
     </g>
    </g>
    <g class="patch">
     <path d="M 440.40625 97.189062 
L 460.40625 97.189062 
L 460.40625 90.189062 
L 440.40625 90.189062 
z
" style="fill: #8000ff; fill-opacity: 0.5; stroke: #8000ff; stroke-opacity: 0.5; stroke-linejoin: miter"/>
    </g>
    <g id="text_21" class="text">
     <!-- Feasible Region -->
     <g transform="translate(468.40625 97.189062) scale(0.1 -0.1)">
      <defs>
       <path id="DejaVuSans-46" d="M 628 4666 
L 3309 4666 
L 3309 4134 
L 1259 4134 
L 1259 2759 
L 3109 2759 
L 3109 2228 
L 1259 2228 
L 1259 0 
L 628 0 
L 628 4666 
z
" transform="scale(0.015625)"/>
       <path id="DejaVuSans-65" d="M 3597 1894 
L 3597 1613 
L 953 1613 
Q 991 1019 1311 708 
Q 1631 397 2203 397 
Q 2534 397 2845 478 
Q 3156 559 3463 722 
L 3463 178 
Q 3153 47 2828 -22 
Q 2503 -91 2169 -91 
Q 1331 -91 842 396 
Q 353 884 353 1716 
Q 353 2575 817 3079 
Q 1281 3584 2069 3584 
Q 2775 3584 3186 3129 
Q 3597 2675 3597 1894 
z
M 3022 2063 
Q 3016 2534 2758 2815 
Q 2500 3097 2075 3097 
Q 1594 3097 1305 2825 
Q 1016 2553 972 2059 
L 3022 2063 
z
" transform="scale(0.015625)"/>
       <path id="DejaVuSans-61" d="M 2194 1759 
Q 1497 1759 1228 1600 
Q 959 1441 959 1056 
Q 959 750 1161 570 
Q 1363 391 1709 391 
Q 2188 391 2477 730 
Q 2766 1069 2766 1631 
L 2766 1759 
L 2194 1759 
z
M 3341 1997 
L 3341 0 
L 2766 0 
L 2766 531 
Q 2569 213 2275 61 
Q 1981 -91 1556 -91 
Q 1019 -91 701 211 
Q 384 513 384 1019 
Q 384 1609 779 1909 
Q 1175 2209 1959 2209 
L 2766 2209 
L 2766 2266 
Q 2766 2663 2505 2880 
Q 2244 3097 1772 3097 
Q 1472 3097 1187 3025 
Q 903 2953 641 2809 
L 641 3341 
Q 956 3463 1253 3523 
Q 1550 3584 1831 3584 
Q 2591 3584 2966 3190 
Q 3341 2797 3341 1997 
z
" transform="scale(0.015625)"/>
       <path id="DejaVuSans-73" d="M 2834 3397 
L 2834 2853 
Q 2591 2978 2328 3040 
Q 2066 3103 1784 3103 
Q 1356 3103 1142 2972 
Q 928 2841 928 2578 
Q 928 2378 1081 2264 
Q 1234 2150 1697 2047 
L 1894 2003 
Q 2506 1872 2764 1633 
Q 3022 1394 3022 966 
Q 3022 478 2636 193 
Q 2250 -91 1575 -91 
Q 1294 -91 989 -36 
Q 684 19 347 128 
L 347 722 
Q 666 556 975 473 
Q 1284 391 1588 391 
Q 1994 391 2212 530 
Q 2431 669 2431 922 
Q 2431 1156 2273 1281 
Q 2116 1406 1581 1522 
L 1381 1569 
Q 847 1681 609 1914 
Q 372 2147 372 2553 
Q 372 3047 722 3315 
Q 1072 3584 1716 3584 
Q 2034 3584 2315 3537 
Q 2597 3491 2834 3397 
z
" transform="scale(0.015625)"/>
       <path id="DejaVuSans-69" d="M 603 3500 
L 1178 3500 
L 1178 0 
L 603 0 
L 603 3500 
z
M 603 4863 
L 1178 4863 
L 1178 4134 
L 603 4134 
L 603 4863 
z
" transform="scale(0.015625)"/>
       <path id="DejaVuSans-62" d="M 3116 1747 
Q 3116 2381 2855 2742 
Q 2594 3103 2138 3103 
Q 1681 3103 1420 2742 
Q 1159 2381 1159 1747 
Q 1159 1113 1420 752 
Q 1681 391 2138 391 
Q 2594 391 2855 752 
Q 3116 1113 3116 1747 
z
M 1159 2969 
Q 1341 3281 1617 3432 
Q 1894 3584 2278 3584 
Q 2916 3584 3314 3078 
Q 3713 2572 3713 1747 
Q 3713 922 3314 415 
Q 2916 -91 2278 -91 
Q 1894 -91 1617 61 
Q 1341 213 1159 525 
L 1159 0 
L 581 0 
L 581 4863 
L 1159 4863 
L 1159 2969 
z
" transform="scale(0.015625)"/>
       <path id="DejaVuSans-6c" d="M 603 4863 
L 1178 4863 
L 1178 0 
L 603 0 
L 603 4863 
z
" transform="scale(0.015625)"/>
       <path id="DejaVuSans-20" transform="scale(0.015625)"/>
       <path id="DejaVuSans-52" d="M 2841 2188 
Q 3044 2119 3236 1894 
Q 3428 1669 3622 1275 
L 4263 0 
L 3584 0 
L 2988 1197 
Q 2756 1666 2539 1819 
Q 2322 1972 1947 1972 
L 1259 1972 
L 1259 0 
L 628 0 
L 628 4666 
L 2053 4666 
Q 2853 4666 3247 4331 
Q 3641 3997 3641 3322 
Q 3641 2881 3436 2590 
Q 3231 2300 2841 2188 
z
M 1259 4147 
L 1259 2491 
L 2053 2491 
Q 2509 2491 2742 2702 
Q 2975 2913 2975 3322 
Q 2975 3731 2742 3939 
Q 2509 4147 2053 4147 
L 1259 4147 
z
" transform="scale(0.015625)"/>
       <path id="DejaVuSans-67" d="M 2906 1791 
Q 2906 2416 2648 2759 
Q 2391 3103 1925 3103 
Q 1463 3103 1205 2759 
Q 947 2416 947 1791 
Q 947 1169 1205 825 
Q 1463 481 1925 481 
Q 2391 481 2648 825 
Q 2906 1169 2906 1791 
z
M 3481 434 
Q 3481 -459 3084 -895 
Q 2688 -1331 1869 -1331 
Q 1566 -1331 1297 -1286 
Q 1028 -1241 775 -1147 
L 775 -588 
Q 1028 -725 1275 -790 
Q 1522 -856 1778 -856 
Q 2344 -856 2625 -561 
Q 2906 -266 2906 331 
L 2906 616 
Q 2728 306 2450 153 
Q 2172 0 1784 0 
Q 1141 0 747 490 
Q 353 981 353 1791 
Q 353 2603 747 3093 
Q 1141 3584 1784 3584 
Q 2172 3584 2450 3431 
Q 2728 3278 2906 2969 
L 2906 3500 
L 3481 3500 
L 3481 434 
z
" transform="scale(0.015625)"/>
       <path id="DejaVuSans-6f" d="M 1959 3097 
Q 1497 3097 1228 2736 
Q 959 2375 959 1747 
Q 959 1119 1226 758 
Q 1494 397 1959 397 
Q 2419 397 2687 759 
Q 2956 1122 2956 1747 
Q 2956 2369 2687 2733 
Q 2419 3097 1959 3097 
z
M 1959 3584 
Q 2709 3584 3137 3096 
Q 3566 2609 3566 1747 
Q 3566 888 3137 398 
Q 2709 -91 1959 -91 
Q 1206 -91 779 398 
Q 353 888 353 1747 
Q 353 2609 779 3096 
Q 1206 3584 1959 3584 
z
" transform="scale(0.015625)"/>
       <path id="DejaVuSans-6e" d="M 3513 2113 
L 3513 0 
L 2938 0 
L 2938 2094 
Q 2938 2591 2744 2837 
Q 2550 3084 2163 3084 
Q 1697 3084 1428 2787 
Q 1159 2491 1159 1978 
L 1159 0 
L 581 0 
L 581 3500 
L 1159 3500 
L 1159 2956 
Q 1366 3272 1645 3428 
Q 1925 3584 2291 3584 
Q 2894 3584 3203 3211 
Q 3513 2838 3513 2113 
z
" transform="scale(0.015625)"/>
      </defs>
      <use xlink:href="#DejaVuSans-46"/>
      <use xlink:href="#DejaVuSans-65" transform="translate(52.019531 0)"/>
      <use xlink:href="#DejaVuSans-61" transform="translate(113.542969 0)"/>
      <use xlink:href="#DejaVuSans-73" transform="translate(174.822266 0)"/>
      <use xlink:href="#DejaVuSans-69" transform="translate(226.921875 0)"/>
      <use xlink:href="#DejaVuSans-62" transform="translate(254.705078 0)"/>
      <use xlink:href="#DejaVuSans-6c" transform="translate(318.181641 0)"/>
      <use xlink:href="#DejaVuSans-65" transform="translate(345.964844 0)"/>
      <use xlink:href="#DejaVuSans-20" transform="translate(407.488281 0)"/>
      <use xlink:href="#DejaVuSans-52" transform="translate(439.275391 0)"/>
      <use xlink:href="#DejaVuSans-65" transform="translate(504.257812 0)"/>
      <use xlink:href="#DejaVuSans-67" transform="translate(565.78125 0)"/>
      <use xlink:href="#DejaVuSans-69" transform="translate(629.257812 0)"/>
      <use xlink:href="#DejaVuSans-6f" transform="translate(657.041016 0)"/>
      <use xlink:href="#DejaVuSans-6e" transform="translate(718.222656 0)"/>
     </g>
    </g>
    <g id="PathCollection_1">
     <defs>
      <path id="m6c997ffba4" d="M 0 5.477226 
C 1.452577 5.477226 2.845856 4.900111 3.872983 3.872983 
C 4.900111 2.845856 5.477226 1.452577 5.477226 0 
C 5.477226 -1.452577 4.900111 -2.845856 3.872983 -3.872983 
C 2.845856 -4.900111 1.452577 -5.477226 0 -5.477226 
C -1.452577 -5.477226 -2.845856 -4.900111 -3.872983 -3.872983 
C -4.900111 -2.845856 -5.477226 -1.452577 -5.477226 0 
C -5.477226 1.452577 -4.900111 2.845856 -3.872983 3.872983 
C -2.845856 4.900111 -1.452577 5.477226 0 5.477226 
z
" style="stroke: var(--white); stroke-width: 2"/>
     </defs>
     <g>
      <use xlink:href="#m6c997ffba4" x="450.40625" y="109.242187" style="fill: #ff0000; stroke: var(--white); stroke-width: 2"/>
     </g>
    </g>
    <g id="text_22" class="text">
     <!-- Optimal Point (4,1) -->
     <g transform="translate(468.40625 111.867187) scale(0.1 -0.1)">
      <defs>
       <path id="DejaVuSans-4f" d="M 2522 4238 
Q 1834 4238 1429 3725 
Q 1025 3213 1025 2328 
Q 1025 1447 1429 934 
Q 1834 422 2522 422 
Q 3209 422 3611 934 
Q 4013 1447 4013 2328 
Q 4013 3213 3611 3725 
Q 3209 4238 2522 4238 
z
M 2522 4750 
Q 3503 4750 4090 4092 
Q 4678 3434 4678 2328 
Q 4678 1225 4090 567 
Q 3503 -91 2522 -91 
Q 1538 -91 948 565 
Q 359 1222 359 2328 
Q 359 3434 948 4092 
Q 1538 4750 2522 4750 
z
" transform="scale(0.015625)"/>
       <path id="DejaVuSans-70" d="M 1159 525 
L 1159 -1331 
L 581 -1331 
L 581 3500 
L 1159 3500 
L 1159 2969 
Q 1341 3281 1617 3432 
Q 1894 3584 2278 3584 
Q 2916 3584 3314 3078 
Q 3713 2572 3713 1747 
Q 3713 922 3314 415 
Q 2916 -91 2278 -91 
Q 1894 -91 1617 61 
Q 1341 213 1159 525 
z
M 3116 1747 
Q 3116 2381 2855 2742 
Q 2594 3103 2138 3103 
Q 1681 3103 1420 2742 
Q 1159 2381 1159 1747 
Q 1159 1113 1420 752 
Q 1681 391 2138 391 
Q 2594 391 2855 752 
Q 3116 1113 3116 1747 
z
" transform="scale(0.015625)"/>
       <path id="DejaVuSans-74" d="M 1172 4494 
L 1172 3500 
L 2356 3500 
L 2356 3053 
L 1172 3053 
L 1172 1153 
Q 1172 725 1289 603 
Q 1406 481 1766 481 
L 2356 481 
L 2356 0 
L 1766 0 
Q 1100 0 847 248 
Q 594 497 594 1153 
L 594 3053 
L 172 3053 
L 172 3500 
L 594 3500 
L 594 4494 
L 1172 4494 
z
" transform="scale(0.015625)"/>
       <path id="DejaVuSans-6d" d="M 3328 2828 
Q 3544 3216 3844 3400 
Q 4144 3584 4550 3584 
Q 5097 3584 5394 3201 
Q 5691 2819 5691 2113 
L 5691 0 
L 5113 0 
L 5113 2094 
Q 5113 2597 4934 2840 
Q 4756 3084 4391 3084 
Q 3944 3084 3684 2787 
Q 3425 2491 3425 1978 
L 3425 0 
L 2847 0 
L 2847 2094 
Q 2847 2600 2669 2842 
Q 2491 3084 2119 3084 
Q 1678 3084 1418 2786 
Q 1159 2488 1159 1978 
L 1159 0 
L 581 0 
L 581 3500 
L 1159 3500 
L 1159 2956 
Q 1356 3278 1631 3431 
Q 1906 3584 2284 3584 
Q 2666 3584 2933 3390 
Q 3200 3197 3328 2828 
z
" transform="scale(0.015625)"/>
       <path id="DejaVuSans-50" d="M 1259 4147 
L 1259 2394 
L 2053 2394 
Q 2494 2394 2734 2622 
Q 2975 2850 2975 3272 
Q 2975 3691 2734 3919 
Q 2494 4147 2053 4147 
L 1259 4147 
z
M 628 4666 
L 2053 4666 
Q 2838 4666 3239 4311 
Q 3641 3956 3641 3272 
Q 3641 2581 3239 2228 
Q 2838 1875 2053 1875 
L 1259 1875 
L 1259 0 
L 628 0 
L 628 4666 
z
" transform="scale(0.015625)"/>
       <path id="DejaVuSans-28" d="M 1984 4856 
Q 1566 4138 1362 3434 
Q 1159 2731 1159 2009 
Q 1159 1288 1364 580 
Q 1569 -128 1984 -844 
L 1484 -844 
Q 1016 -109 783 600 
Q 550 1309 550 2009 
Q 550 2706 781 3412 
Q 1013 4119 1484 4856 
L 1984 4856 
z
" transform="scale(0.015625)"/>
       <path id="DejaVuSans-2c" d="M 750 794 
L 1409 794 
L 1409 256 
L 897 -744 
L 494 -744 
L 750 256 
L 750 794 
z
" transform="scale(0.015625)"/>
       <path id="DejaVuSans-29" d="M 513 4856 
L 1013 4856 
Q 1481 4119 1714 3412 
Q 1947 2706 1947 2009 
Q 1947 1309 1714 600 
Q 1481 -109 1013 -844 
L 513 -844 
Q 928 -128 1133 580 
Q 1338 1288 1338 2009 
Q 1338 2731 1133 3434 
Q 928 4138 513 4856 
z
" transform="scale(0.015625)"/>
      </defs>
      <use xlink:href="#DejaVuSans-4f"/>
      <use xlink:href="#DejaVuSans-70" transform="translate(78.710938 0)"/>
      <use xlink:href="#DejaVuSans-74" transform="translate(142.1875 0)"/>
      <use xlink:href="#DejaVuSans-69" transform="translate(181.396484 0)"/>
      <use xlink:href="#DejaVuSans-6d" transform="translate(209.179688 0)"/>
      <use xlink:href="#DejaVuSans-61" transform="translate(306.591797 0)"/>
      <use xlink:href="#DejaVuSans-6c" transform="translate(367.871094 0)"/>
      <use xlink:href="#DejaVuSans-20" transform="translate(395.654297 0)"/>
      <use xlink:href="#DejaVuSans-50" transform="translate(427.441406 0)"/>
      <use xlink:href="#DejaVuSans-6f" transform="translate(484.119141 0)"/>
      <use xlink:href="#DejaVuSans-69" transform="translate(545.300781 0)"/>
      <use xlink:href="#DejaVuSans-6e" transform="translate(573.083984 0)"/>
      <use xlink:href="#DejaVuSans-74" transform="translate(636.462891 0)"/>
      <use xlink:href="#DejaVuSans-20" transform="translate(675.671875 0)"/>
      <use xlink:href="#DejaVuSans-28" transform="translate(707.458984 0)"/>
      <use xlink:href="#DejaVuSans-34" transform="translate(746.472656 0)"/>
      <use xlink:href="#DejaVuSans-2c" transform="translate(810.095703 0)"/>
      <use xlink:href="#DejaVuSans-31" transform="translate(841.882812 0)"/>
      <use xlink:href="#DejaVuSans-29" transform="translate(905.505859 0)"/>
     </g>
    </g>
   </g>
   <g id="PathCollection_2">
    <g clip-path="url(#p0965058268)">
     <use xlink:href="#m6c997ffba4" x="380.541964" y="351.565714" style="fill: #ff0000; stroke: var(--white); stroke-width: 2"/>
    </g>
   </g>
  </g>
 </g>
 <defs>
  <clipPath id="p0965058268">
   <rect x="36.17625" y="7.2" width="535.68" height="459.154286"/>
  </clipPath>
 </defs>
</svg>
