<?xml version="1.0" encoding="utf-8" standalone="no"?>
<!DOCTYPE svg PUBLIC "-//W3C//DTD SVG 1.1//EN"
  "http://www.w3.org/Graphics/SVG/1.1/DTD/svg11.dtd">
<svg xmlns:xlink="http://www.w3.org/1999/xlink" width="364.32pt" height="131.2pt" viewBox="0 0 364.32 131.2" xmlns="http://www.w3.org/2000/svg" version="1.1">
<style>:root { --axis-color:#000; --grid-stroke:rgba(0,0,0,0.2); --plot3d-stroke:rgba(0,0,0,0.3); --plot3d-grid:rgba(0,0,0,0.2); }
@media (prefers-color-scheme:dark) { :root { --axis-color:#fff; --grid-stroke:rgba(255,255,255,0.2); --plot3d-stroke:rgba(255,255,255,0.3); --plot3d-grid:rgba(255,255,255,0.2); } }
.black{fill:#000000;stroke:#000000;}:root{--black:#000000;}.c1{fill:#FF0001;stroke:#FF0001;}:root{--c1:#FF0001;}.c2{fill:#00FF02;stroke:#00FF02;}:root{--c2:#00FF02;}.c3{fill:#0000FF;stroke:#0000FF;}:root{--c3:#0000FF;}.c4{fill:#FF00FF;stroke:#FF00FF;}:root{--c4:#FF00FF;}.c5{fill:#00FFFF;stroke:#00FFFF;}:root{--c5:#00FFFF;}.c6{fill:#FFFF00;stroke:#FFFF00;}:root{--c6:#FFFF00;}.c7{fill:#FF8000;stroke:#FF8000;}:root{--c7:#FF8000;}.c8{fill:#8000FF;stroke:#8000FF;}:root{--c8:#8000FF;}.gray{fill:#7f7f7f;stroke:#7f7f7f;}:root{--gray:#7f7f7f;}.grey{fill:#7f7f7f;stroke:#7f7f7f;}:root{--grey:#7f7f7f;}.octonary{fill:#bcbd22;stroke:#bcbd22;}:root{--octonary:#bcbd22;}.primary{fill:#d62728;stroke:#d62728;}:root{--primary:#d62728;}.quaternary{fill:#9467bd;stroke:#9467bd;}:root{--quaternary:#9467bd;}.quinary{fill:#8c564b;stroke:#8c564b;}:root{--quinary:#8c564b;}.secondary{fill:#2ca02c;stroke:#2ca02c;}:root{--secondary:#2ca02c;}.senary{fill:#e377c2;stroke:#e377c2;}:root{--senary:#e377c2;}.septenary{fill:#7f7f7f;stroke:#7f7f7f;}:root{--septenary:#7f7f7f;}.tertiary{fill:#1f77b4;stroke:#1f77b4;}:root{--tertiary:#1f77b4;}.white{fill:#ffffff;stroke:#ffffff;}:root{--white:#ffffff;}
@media (prefers-color-scheme:dark) { .black{fill:#FFFFFF;stroke:#FFFFFF;}:root{--black:#FFFFFF;}.c1{fill:#FF0001;stroke:#FF0001;}:root{--c1:#FF0001;}.c2{fill:#00FF02;stroke:#00FF02;}:root{--c2:#00FF02;}.c3{fill:#0000FF;stroke:#0000FF;}:root{--c3:#0000FF;}.c4{fill:#FF00FF;stroke:#FF00FF;}:root{--c4:#FF00FF;}.c5{fill:#00FFFF;stroke:#00FFFF;}:root{--c5:#00FFFF;}.c6{fill:#FFFF00;stroke:#FFFF00;}:root{--c6:#FFFF00;}.c7{fill:#FF8000;stroke:#FF8000;}:root{--c7:#FF8000;}.c8{fill:#8000FF;stroke:#8000FF;}:root{--c8:#8000FF;}.gray{fill:#CCCCCC;stroke:#CCCCCC;}:root{--gray:#CCCCCC;}.grey{fill:#CCCCCC;stroke:#CCCCCC;}:root{--grey:#CCCCCC;}.octonary{fill:#E6DB74;stroke:#E6DB74;}:root{--octonary:#E6DB74;}.primary{fill:#FF4A98;stroke:#FF4A98;}:root{--primary:#FF4A98;}.quaternary{fill:#B4A0FF;stroke:#B4A0FF;}:root{--quaternary:#B4A0FF;}.quinary{fill:#FFB86B;stroke:#FFB86B;}:root{--quinary:#FFB86B;}.secondary{fill:#0AFAFA;stroke:#0AFAFA;}:root{--secondary:#0AFAFA;}.senary{fill:#FF79C6;stroke:#FF79C6;}:root{--senary:#FF79C6;}.septenary{fill:#CCCCCC;stroke:#CCCCCC;}:root{--septenary:#CCCCCC;}.tertiary{fill:#7F83FF;stroke:#7F83FF;}:root{--tertiary:#7F83FF;}.white{fill:#000000;stroke:#000000;}:root{--white:#000000;} }
text,.text { fill:var(--axis-color)!important; stroke:none!important; }
.axis line,.axis path,.tick line,.tick path,path.domain,line.grid { stroke:var(--axis-color)!important; }
.legend text { fill:var(--axis-color)!important; }
.patch path[style*="stroke: currentColor"] { stroke:var(--axis-color)!important; }
g.legend>g:first-child>path:first-child { fill:rgba(255,255,255,0.8)!important; stroke:rgba(0,0,0,0.1)!important; }
@media (prefers-color-scheme:dark) { g.legend>g:first-child>path:first-child { fill:rgba(26,26,26,0.8)!important; stroke:rgba(255,255,255,0.1)!important; } }
.plot3d path,.plot3d polygon { stroke:var(--plot3d-stroke)!important; }
.plot3d-grid line { stroke:var(--plot3d-grid)!important; }
.plot3d-surface path[style*="fill:"] { fill-opacity:0.9!important; }
@media (prefers-color-scheme:dark) { .plot3d-surface path[style*="fill:"] { fill-opacity:0.95!important; filter:saturate(1.2)!important; } }</style>

 <metadata>
  <rdf:RDF xmlns:dc="http://purl.org/dc/elements/1.1/" xmlns:cc="http://creativecommons.org/ns#" xmlns:rdf="http://www.w3.org/1999/02/22-rdf-syntax-ns#">
   <cc:Work>
    <dc:type rdf:resource="http://purl.org/dc/dcmitype/StillImage"/>
    <dc:date>2026-01-03T22:32:04.923210</dc:date>
    <dc:format>image/svg+xml</dc:format>
    <dc:creator>
     <cc:Agent>
      <dc:title>Matplotlib v3.10.0, https://matplotlib.org/</dc:title>
     </cc:Agent>
    </dc:creator>
   </cc:Work>
  </rdf:RDF>
 </metadata>
 <defs>
  <style type="text/css">*{stroke-linejoin: round; stroke-linecap: butt}</style>
 </defs>
 <g id="figure_1">
  <g class="patch">
   <path d="M 0 131.2 
L 364.32 131.2 
L 364.32 0 
L 0 0 
L 0 131.2 
z
" style="fill: none"/>
  </g>
  <g id="axes_1">
   <g class="patch">
    <path d="M 3.6 127.6 
L 152.4 127.6 
L 152.4 3.6 
L 3.6 3.6 
L 3.6 127.6 
z
" style="fill: none"/>
   </g>
   <g class="axis"/>
   <g class="axis"/>
   <g class="patch">
    <path d="M 78 53.2 
L 130.608745 105.808745 
L 131.436811 104.967434 
L 132.251425 104.113091 
L 133.052382 103.245932 
L 133.839479 102.366173 
L 134.612519 101.474037 
L 135.371307 100.569749 
L 136.115652 99.653535 
L 136.845367 98.725627 
L 137.560268 97.786258 
L 138.260175 96.835665 
L 138.944912 95.874087 
L 139.614306 94.901766 
L 140.26819 93.918946 
L 140.906397 92.925876 
L 141.528768 91.922805 
L 142.135146 90.909986 
L 142.725379 89.887673 
L 143.299317 88.856125 
L 143.856816 87.8156 
L 144.397737 86.766361 
L 144.921942 85.708672 
L 145.429299 84.642799 
L 145.919682 83.56901 
L 146.392967 82.487576 
L 146.849033 81.398769 
L 147.287768 80.302864 
L 147.70906 79.200135 
L 148.112802 78.090861 
L 148.498895 76.975321 
L 148.867239 75.853795 
L 149.217743 74.726566 
L 149.550319 73.593919 
L 149.864881 72.456137 
L 150.161353 71.313508 
L 150.439658 70.166318 
L 150.699727 69.014858 
L 150.941494 67.859416 
L 151.164898 66.700283 
L 151.369884 65.537752 
L 151.556399 64.372115 
L 151.724397 63.203666 
L 151.873835 62.032698 
L 152.004675 60.859507 
L 152.116886 59.684387 
L 152.210437 58.507635 
L 152.285307 57.329547 
L 152.341476 56.150419 
L 152.37893 54.970549 
L 152.397659 53.790232 
L 152.397659 52.609768 
L 152.37893 51.429451 
L 152.341476 50.249581 
L 152.285307 49.070453 
L 152.210437 47.892365 
L 152.116886 46.715613 
L 152.004675 45.540493 
L 151.873835 44.367302 
L 151.724397 43.196334 
L 151.556399 42.027885 
L 151.369884 40.862248 
L 151.164898 39.699717 
L 150.941494 38.540584 
L 150.699727 37.385142 
L 150.439658 36.233682 
L 150.161353 35.086492 
L 149.864881 33.943863 
L 149.550319 32.806081 
L 149.217743 31.673434 
L 148.867239 30.546205 
L 148.498895 29.424679 
L 148.112802 28.309139 
L 147.70906 27.199865 
L 147.287768 26.097136 
L 146.849033 25.001231 
L 146.392967 23.912424 
L 145.919682 22.83099 
L 145.429299 21.757201 
L 144.921942 20.691328 
L 144.397737 19.633639 
L 143.856816 18.5844 
L 143.299317 17.543875 
L 142.725379 16.512327 
L 142.135146 15.490014 
L 141.528768 14.477195 
L 140.906397 13.474124 
L 140.26819 12.481054 
L 139.614306 11.498234 
L 138.944912 10.525913 
L 138.260175 9.564335 
L 137.560268 8.613742 
L 136.845367 7.674373 
L 136.115652 6.746465 
L 135.371307 5.830251 
L 134.612519 4.925963 
L 133.839479 4.033827 
L 133.052382 3.154068 
L 132.251425 2.286909 
L 131.436811 1.432566 
L 130.608745 0.591255 
z
" clip-path="url(#pfbc1ca1c50)" style="fill: #8000ff; opacity: 0.3; stroke: #8000ff; stroke-width: 2; stroke-linejoin: miter"/>
   </g>
   <g id="line2d_1">
    <path d="M 78 53.2 
L 130.608745 105.808745 
" clip-path="url(#pfbc1ca1c50)" style="fill: none; stroke:var(--black); stroke-width: 2; stroke-linecap: square"/>
   </g>
   <g id="line2d_2">
    <path d="M 78 53.2 
L 130.608745 0.591255 
" clip-path="url(#pfbc1ca1c50)" style="fill: none; stroke:var(--black); stroke-width: 2; stroke-linecap: square"/>
   </g>
   <g id="line2d_3">
    <path d="M 78 53.2 
L 100.32 41.296 
" clip-path="url(#pfbc1ca1c50)" style="fill: none; stroke-dasharray: 3.7,1.6; stroke-dashoffset: 0; stroke: #ff0000; stroke-opacity: 0.7"/>
   </g>
   <g id="line2d_4">
    <path d="M 78 53.2 
L 130.08 25.424 
" clip-path="url(#pfbc1ca1c50)" style="fill: none; stroke-dasharray: 3.7,1.6; stroke-dashoffset: 0; stroke: #ff0000; stroke-opacity: 0.7"/>
   </g>
   <g id="text_1" class="text">
    <!-- $x$ -->
    <g transform="translate(117.68 30.88) scale(0.11 -0.11)">
     <defs>
      <path id="Cmmi10-78" d="M 500 184 
Q 613 97 819 97 
Q 1019 97 1172 289 
Q 1325 481 1381 709 
L 1672 1844 
Q 1741 2153 1741 2266 
Q 1741 2425 1652 2544 
Q 1563 2663 1403 2663 
Q 1200 2663 1022 2536 
Q 844 2409 722 2214 
Q 600 2019 550 1819 
Q 538 1778 500 1778 
L 422 1778 
Q 372 1778 372 1838 
L 372 1856 
Q 434 2094 584 2320 
Q 734 2547 951 2687 
Q 1169 2828 1416 2828 
Q 1650 2828 1839 2703 
Q 2028 2578 2106 2363 
Q 2216 2559 2386 2693 
Q 2556 2828 2759 2828 
Q 2897 2828 3040 2779 
Q 3184 2731 3275 2631 
Q 3366 2531 3366 2381 
Q 3366 2219 3261 2101 
Q 3156 1984 2994 1984 
Q 2891 1984 2822 2050 
Q 2753 2116 2753 2216 
Q 2753 2350 2845 2451 
Q 2938 2553 3066 2572 
Q 2950 2663 2747 2663 
Q 2541 2663 2389 2472 
Q 2238 2281 2175 2047 
L 1894 916 
Q 1825 659 1825 494 
Q 1825 331 1917 214 
Q 2009 97 2163 97 
Q 2463 97 2698 361 
Q 2934 625 3009 941 
Q 3022 978 3059 978 
L 3138 978 
Q 3163 978 3178 961 
Q 3194 944 3194 922 
Q 3194 916 3188 903 
Q 3097 522 2806 225 
Q 2516 -72 2150 -72 
Q 1916 -72 1727 54 
Q 1538 181 1459 397 
Q 1359 209 1182 68 
Q 1006 -72 806 -72 
Q 669 -72 523 -23 
Q 378 25 287 125 
Q 197 225 197 378 
Q 197 528 301 651 
Q 406 775 563 775 
Q 669 775 741 711 
Q 813 647 813 544 
Q 813 409 723 309 
Q 634 209 500 184 
z
" transform="scale(0.015625)"/>
     </defs>
     <use xlink:href="#Cmmi10-78" transform="translate(0 0.8125)"/>
    </g>
   </g>
   <g id="text_2" class="text">
    <!-- $0.6x$ -->
    <g style="fill: #ff0000" transform="translate(76.86 41.296) scale(0.1 -0.1)">
     <defs>
      <path id="Cmr10-30" d="M 1600 -141 
Q 816 -141 533 504 
Q 250 1150 250 2041 
Q 250 2597 351 3087 
Q 453 3578 754 3920 
Q 1056 4263 1600 4263 
Q 2022 4263 2290 4056 
Q 2559 3850 2700 3523 
Q 2841 3197 2892 2823 
Q 2944 2450 2944 2041 
Q 2944 1491 2842 1011 
Q 2741 531 2444 195 
Q 2147 -141 1600 -141 
z
M 1600 25 
Q 1956 25 2131 390 
Q 2306 756 2347 1200 
Q 2388 1644 2388 2144 
Q 2388 2625 2347 3031 
Q 2306 3438 2132 3767 
Q 1959 4097 1600 4097 
Q 1238 4097 1063 3765 
Q 888 3434 847 3029 
Q 806 2625 806 2144 
Q 806 1788 823 1472 
Q 841 1156 916 820 
Q 991 484 1158 254 
Q 1325 25 1600 25 
z
" transform="scale(0.015625)"/>
      <path id="Cmmi10-3a" d="M 538 353 
Q 538 497 644 600 
Q 750 703 891 703 
Q 978 703 1062 656 
Q 1147 609 1194 525 
Q 1241 441 1241 353 
Q 1241 213 1137 106 
Q 1034 0 891 0 
Q 750 0 644 106 
Q 538 213 538 353 
z
" transform="scale(0.015625)"/>
      <path id="Cmr10-36" d="M 1600 -141 
Q 1203 -141 937 70 
Q 672 281 526 617 
Q 381 953 325 1322 
Q 269 1691 269 2069 
Q 269 2575 466 3084 
Q 663 3594 1045 3928 
Q 1428 4263 1953 4263 
Q 2172 4263 2361 4180 
Q 2550 4097 2658 3936 
Q 2766 3775 2766 3547 
Q 2766 3416 2677 3327 
Q 2588 3238 2456 3238 
Q 2331 3238 2240 3328 
Q 2150 3419 2150 3547 
Q 2150 3672 2240 3762 
Q 2331 3853 2456 3853 
L 2491 3853 
Q 2409 3969 2261 4023 
Q 2113 4078 1953 4078 
Q 1759 4078 1595 3993 
Q 1431 3909 1300 3765 
Q 1169 3622 1081 3448 
Q 994 3275 945 3053 
Q 897 2831 884 2637 
Q 872 2444 872 2150 
Q 984 2413 1190 2580 
Q 1397 2747 1656 2747 
Q 1941 2747 2175 2631 
Q 2409 2516 2578 2311 
Q 2747 2106 2836 1843 
Q 2925 1581 2925 1313 
Q 2925 938 2758 598 
Q 2591 259 2287 59 
Q 1984 -141 1600 -141 
z
M 1600 63 
Q 1847 63 1997 175 
Q 2147 288 2217 473 
Q 2288 659 2305 848 
Q 2322 1038 2322 1313 
Q 2322 1675 2287 1931 
Q 2253 2188 2100 2383 
Q 1947 2578 1631 2578 
Q 1372 2578 1205 2403 
Q 1038 2228 961 1961 
Q 884 1694 884 1447 
Q 884 1363 891 1319 
Q 891 1309 889 1303 
Q 888 1297 884 1288 
Q 884 1013 940 731 
Q 997 450 1156 256 
Q 1316 63 1600 63 
z
" transform="scale(0.015625)"/>
     </defs>
     <use xlink:href="#Cmr10-30" transform="translate(0 0.390625)"/>
     <use xlink:href="#Cmmi10-3a" transform="translate(50 0.390625)"/>
     <use xlink:href="#Cmr10-36" transform="translate(77.685547 0.390625)"/>
     <use xlink:href="#Cmmi10-78" transform="translate(127.685547 0.390625)"/>
    </g>
   </g>
   <g id="text_3" class="text">
    <!-- $1.4x$ -->
    <g style="fill: #ff0000" transform="translate(132.56 25.424) scale(0.1 -0.1)">
     <defs>
      <path id="Cmr10-31" d="M 594 0 
L 594 225 
Q 1394 225 1394 428 
L 1394 3788 
Q 1063 3628 556 3628 
L 556 3853 
Q 1341 3853 1741 4263 
L 1831 4263 
Q 1853 4263 1873 4245 
Q 1894 4228 1894 4206 
L 1894 428 
Q 1894 225 2694 225 
L 2694 0 
L 594 0 
z
" transform="scale(0.015625)"/>
      <path id="Cmr10-34" d="M 178 1056 
L 178 1281 
L 2156 4231 
Q 2178 4263 2222 4263 
L 2316 4263 
Q 2388 4263 2388 4191 
L 2388 1281 
L 3016 1281 
L 3016 1056 
L 2388 1056 
L 2388 428 
Q 2388 297 2575 261 
Q 2763 225 3009 225 
L 3009 0 
L 1247 0 
L 1247 225 
Q 1494 225 1681 261 
Q 1869 297 1869 428 
L 1869 1056 
L 178 1056 
z
M 391 1281 
L 1906 1281 
L 1906 3547 
L 391 1281 
z
" transform="scale(0.015625)"/>
     </defs>
     <use xlink:href="#Cmr10-31" transform="translate(0 0.390625)"/>
     <use xlink:href="#Cmmi10-3a" transform="translate(50 0.390625)"/>
     <use xlink:href="#Cmr10-34" transform="translate(77.685547 0.390625)"/>
     <use xlink:href="#Cmmi10-78" transform="translate(127.685547 0.390625)"/>
    </g>
   </g>
   <g id="PathCollection_1">
    <defs>
     <path id="m4edfad345c" d="M 0 2.236068 
C 0.593012 2.236068 1.161816 2.000462 1.581139 1.581139 
C 2.000462 1.161816 2.236068 0.593012 2.236068 0 
C 2.236068 -0.593012 2.000462 -1.161816 1.581139 -1.581139 
C 1.161816 -2.000462 0.593012 -2.236068 0 -2.236068 
C -0.593012 -2.236068 -1.161816 -2.000462 -1.581139 -1.581139 
C -2.000462 -1.161816 -2.236068 -0.593012 -2.236068 0 
C -2.236068 0.593012 -2.000462 1.161816 -1.581139 1.581139 
C -1.161816 2.000462 -0.593012 2.236068 0 2.236068 
z
" style="stroke:var(--black)"/>
    </defs>
    <g clip-path="url(#pfbc1ca1c50)">
     <use xlink:href="#m4edfad345c" x="115.2" y="33.36" style="stroke:var(--black)"/>
    </g>
   </g>
   <g id="PathCollection_2">
    <defs>
     <path id="m8eb939bcc7" d="M 0 2.236068 
C 0.593012 2.236068 1.161816 2.000462 1.581139 1.581139 
C 2.000462 1.161816 2.236068 0.593012 2.236068 0 
C 2.236068 -0.593012 2.000462 -1.161816 1.581139 -1.581139 
C 1.161816 -2.000462 0.593012 -2.236068 0 -2.236068 
C -0.593012 -2.236068 -1.161816 -2.000462 -1.581139 -1.581139 
C -2.000462 -1.161816 -2.236068 -0.593012 -2.236068 0 
C -2.236068 0.593012 -2.000462 1.161816 -1.581139 1.581139 
C -1.161816 2.000462 -0.593012 2.236068 0 2.236068 
z
" style="stroke: #ff0000; stroke-opacity: 0.7"/>
    </defs>
    <g clip-path="url(#pfbc1ca1c50)">
     <use xlink:href="#m8eb939bcc7" x="100.32" y="41.296" style="fill: #ff0000; fill-opacity: 0.7; stroke: #ff0000; stroke-opacity: 0.7"/>
    </g>
   </g>
   <g id="PathCollection_3">
    <g clip-path="url(#pfbc1ca1c50)">
     <use xlink:href="#m8eb939bcc7" x="130.08" y="25.424" style="fill: #ff0000; fill-opacity: 0.7; stroke: #ff0000; stroke-opacity: 0.7"/>
    </g>
   </g>
   <g id="PathCollection_4">
    <g clip-path="url(#pfbc1ca1c50)">
     <use xlink:href="#m4edfad345c" x="78" y="53.2" style="stroke:var(--black)"/>
    </g>
   </g>
  </g>
  <g id="axes_2">
   <g class="patch">
    <path d="M 211.92 127.6 
L 360.72 127.6 
L 360.72 3.6 
L 211.92 3.6 
L 211.92 127.6 
z
" style="fill: none"/>
   </g>
   <g class="axis"/>
   <g class="axis"/>
   <g class="patch">
    <path d="M 286.32 53.2 
L 340.013575 22.2 
L 339.84887 21.916456 
L 339.682667 21.633787 
L 339.514972 21.352002 
L 339.345788 21.071107 
L 339.175122 20.791111 
L 339.002977 20.512021 
L 338.829358 20.233846 
L 338.65427 19.956593 
L 338.477719 19.680269 
L 338.299709 19.404884 
L 338.120244 19.130443 
L 337.939331 18.856956 
L 337.756974 18.584429 
L 337.573178 18.312871 
L 337.387948 18.042288 
L 337.20129 17.772689 
L 337.013208 17.504081 
L 336.823709 17.236472 
L 336.632797 16.969868 
L 336.440477 16.704278 
L 336.246756 16.439708 
L 336.051638 16.176167 
L 335.855129 15.913662 
L 335.657234 15.652199 
L 335.457959 15.391787 
L 335.25731 15.132433 
L 335.055292 14.874143 
L 334.85191 14.616925 
L 334.647172 14.360787 
L 334.441081 14.105735 
L 334.233644 13.851776 
L 334.024867 13.598918 
L 333.814755 13.347168 
L 333.603315 13.096533 
L 333.390553 12.847019 
L 333.176474 12.598634 
L 332.961084 12.351385 
L 332.744389 12.105279 
L 332.526396 11.860322 
L 332.30711 11.616521 
L 332.086538 11.373884 
L 331.864686 11.132416 
L 331.64156 10.892126 
L 331.417166 10.653018 
L 331.19151 10.415101 
L 330.9646 10.178381 
L 330.73644 9.942864 
L 330.507039 9.708557 
L 330.276401 9.475467 
L 330.044533 9.243599 
L 329.811443 9.012961 
L 329.577136 8.78356 
L 329.341619 8.5554 
L 329.104899 8.32849 
L 328.866982 8.102834 
L 328.627874 7.87844 
L 328.387584 7.655314 
L 328.146116 7.433462 
L 327.903479 7.21289 
L 327.659678 6.993604 
L 327.414721 6.775611 
L 327.168615 6.558916 
L 326.921366 6.343526 
L 326.672981 6.129447 
L 326.423467 5.916685 
L 326.172832 5.705245 
L 325.921082 5.495133 
L 325.668224 5.286356 
L 325.414265 5.078919 
L 325.159213 4.872828 
L 324.903075 4.66809 
L 324.645857 4.464708 
L 324.387567 4.26269 
L 324.128213 4.062041 
L 323.867801 3.862766 
L 323.606338 3.664871 
L 323.343833 3.468362 
L 323.080292 3.273244 
L 322.815722 3.079523 
L 322.550132 2.887203 
L 322.283528 2.696291 
L 322.015919 2.506792 
L 321.747311 2.31871 
L 321.477712 2.132052 
L 321.207129 1.946822 
L 320.935571 1.763026 
L 320.663044 1.580669 
L 320.389557 1.399756 
L 320.115116 1.220291 
L 319.839731 1.042281 
L 319.563407 0.86573 
L 319.286154 0.690642 
L 319.007979 0.517023 
L 318.728889 0.344878 
L 318.448893 0.174212 
L 318.167998 0.005028 
L 317.886213 -0.162667 
L 317.603544 -0.32887 
L 317.32 -0.493575 
z
" clip-path="url(#pf608413fdf)" style="fill: #8000ff; opacity: 0.4; stroke: #8000ff; stroke-width: 2; stroke-linejoin: miter"/>
   </g>
   <g class="patch">
    <path d="M 286.32 53.2 
L 317.32 106.893575 
L 317.603544 106.72887 
L 317.886213 106.562667 
L 318.167998 106.394972 
L 318.448893 106.225788 
L 318.728889 106.055122 
L 319.007979 105.882977 
L 319.286154 105.709358 
L 319.563407 105.53427 
L 319.839731 105.357719 
L 320.115116 105.179709 
L 320.389557 105.000244 
L 320.663044 104.819331 
L 320.935571 104.636974 
L 321.207129 104.453178 
L 321.477712 104.267948 
L 321.747311 104.08129 
L 322.015919 103.893208 
L 322.283528 103.703709 
L 322.550132 103.512797 
L 322.815722 103.320477 
L 323.080292 103.126756 
L 323.343833 102.931638 
L 323.606338 102.735129 
L 323.867801 102.537234 
L 324.128213 102.337959 
L 324.387567 102.13731 
L 324.645857 101.935292 
L 324.903075 101.73191 
L 325.159213 101.527172 
L 325.414265 101.321081 
L 325.668224 101.113644 
L 325.921082 100.904867 
L 326.172832 100.694755 
L 326.423467 100.483315 
L 326.672981 100.270553 
L 326.921366 100.056474 
L 327.168615 99.841084 
L 327.414721 99.624389 
L 327.659678 99.406396 
L 327.903479 99.18711 
L 328.146116 98.966538 
L 328.387584 98.744686 
L 328.627874 98.52156 
L 328.866982 98.297166 
L 329.104899 98.07151 
L 329.341619 97.8446 
L 329.577136 97.61644 
L 329.811443 97.387039 
L 330.044533 97.156401 
L 330.276401 96.924533 
L 330.507039 96.691443 
L 330.73644 96.457136 
L 330.9646 96.221619 
L 331.19151 95.984899 
L 331.417166 95.746982 
L 331.64156 95.507874 
L 331.864686 95.267584 
L 332.086538 95.026116 
L 332.30711 94.783479 
L 332.526396 94.539678 
L 332.744389 94.294721 
L 332.961084 94.048615 
L 333.176474 93.801366 
L 333.390553 93.552981 
L 333.603315 93.303467 
L 333.814755 93.052832 
L 334.024867 92.801082 
L 334.233644 92.548224 
L 334.441081 92.294265 
L 334.647172 92.039213 
L 334.85191 91.783075 
L 335.055292 91.525857 
L 335.25731 91.267567 
L 335.457959 91.008213 
L 335.657234 90.747801 
L 335.855129 90.486338 
L 336.051638 90.223833 
L 336.246756 89.960292 
L 336.440477 89.695722 
L 336.632797 89.430132 
L 336.823709 89.163528 
L 337.013208 88.895919 
L 337.20129 88.627311 
L 337.387948 88.357712 
L 337.573178 88.087129 
L 337.756974 87.815571 
L 337.939331 87.543044 
L 338.120244 87.269557 
L 338.299709 86.995116 
L 338.477719 86.719731 
L 338.65427 86.443407 
L 338.829358 86.166154 
L 339.002977 85.887979 
L 339.175122 85.608889 
L 339.345788 85.328893 
L 339.514972 85.047998 
L 339.682667 84.766213 
L 339.84887 84.483544 
L 340.013575 84.2 
z
" clip-path="url(#pf608413fdf)" style="fill: #8000ff; opacity: 0.4; stroke: #8000ff; stroke-width: 2; stroke-linejoin: miter"/>
   </g>
   <g id="line2d_5">
    <path d="M 286.32 53.2 
L 340.013575 22.2 
" clip-path="url(#pf608413fdf)" style="fill: none; stroke:var(--black); stroke-width: 2; stroke-linecap: square"/>
   </g>
   <g id="line2d_6">
    <path d="M 286.32 53.2 
L 317.32 -0.493575 
" clip-path="url(#pf608413fdf)" style="fill: none; stroke:var(--black); stroke-width: 2; stroke-linecap: square"/>
   </g>
   <g id="line2d_7">
    <path d="M 286.32 53.2 
L 317.32 106.893575 
" clip-path="url(#pf608413fdf)" style="fill: none; stroke:var(--black); stroke-width: 2; stroke-linecap: square"/>
   </g>
   <g id="line2d_8">
    <path d="M 286.32 53.2 
L 340.013575 84.2 
" clip-path="url(#pf608413fdf)" style="fill: none; stroke:var(--black); stroke-width: 2; stroke-linecap: square"/>
   </g>
   <g id="line2d_9">
    <path d="M 312.624372 26.895628 
L 312.624372 79.504372 
" clip-path="url(#pf608413fdf)" style="fill: none; stroke-dasharray: 7.4,3.2; stroke-dashoffset: 0; stroke:var(--black); stroke-opacity: 0.8; stroke-width: 2"/>
   </g>
   <g id="text_4" class="text">
    <!-- $x_1$ -->
    <g transform="translate(315.104372 26.895628) scale(0.11 -0.11)">
     <use xlink:href="#Cmmi10-78" transform="translate(0 0.8125)"/>
     <use xlink:href="#Cmr10-31" transform="translate(57.080078 -16.19375) scale(0.7)"/>
    </g>
   </g>
   <g id="text_5" class="text">
    <!-- $x_2$ -->
    <g transform="translate(315.104372 79.504372) scale(0.11 -0.11)">
     <defs>
      <path id="Cmr10-32" d="M 319 0 
L 319 172 
Q 319 188 331 206 
L 1325 1306 
Q 1550 1550 1690 1715 
Q 1831 1881 1968 2097 
Q 2106 2313 2186 2536 
Q 2266 2759 2266 3009 
Q 2266 3272 2169 3511 
Q 2072 3750 1880 3894 
Q 1688 4038 1416 4038 
Q 1138 4038 916 3870 
Q 694 3703 603 3438 
Q 628 3444 672 3444 
Q 816 3444 917 3347 
Q 1019 3250 1019 3097 
Q 1019 2950 917 2848 
Q 816 2747 672 2747 
Q 522 2747 420 2851 
Q 319 2956 319 3097 
Q 319 3338 409 3548 
Q 500 3759 670 3923 
Q 841 4088 1055 4175 
Q 1269 4263 1509 4263 
Q 1875 4263 2190 4108 
Q 2506 3953 2690 3670 
Q 2875 3388 2875 3009 
Q 2875 2731 2753 2481 
Q 2631 2231 2440 2026 
Q 2250 1822 1953 1562 
Q 1656 1303 1563 1216 
L 838 519 
L 1453 519 
Q 1906 519 2211 526 
Q 2516 534 2534 550 
Q 2609 631 2688 1141 
L 2875 1141 
L 2694 0 
L 319 0 
z
" transform="scale(0.015625)"/>
     </defs>
     <use xlink:href="#Cmmi10-78" transform="translate(0 0.8125)"/>
     <use xlink:href="#Cmr10-32" transform="translate(57.080078 -16.19375) scale(0.7)"/>
    </g>
   </g>
   <g id="PathCollection_5">
    <defs>
     <path id="mf259b3c6e8" d="M 0 3.162278 
C 0.838646 3.162278 1.643056 2.82908 2.236068 2.236068 
C 2.82908 1.643056 3.162278 0.838646 3.162278 0 
C 3.162278 -0.838646 2.82908 -1.643056 2.236068 -2.236068 
C 1.643056 -2.82908 0.838646 -3.162278 0 -3.162278 
C -0.838646 -3.162278 -1.643056 -2.82908 -2.236068 -2.236068 
C -2.82908 -1.643056 -3.162278 -0.838646 -3.162278 0 
C -3.162278 0.838646 -2.82908 1.643056 -2.236068 2.236068 
C -1.643056 2.82908 -0.838646 3.162278 0 3.162278 
z
" style="stroke:var(--black)"/>
    </defs>
    <g clip-path="url(#pf608413fdf)">
     <use xlink:href="#mf259b3c6e8" x="312.624372" y="26.895628" style="stroke:var(--black)"/>
    </g>
   </g>
   <g id="PathCollection_6">
    <g clip-path="url(#pf608413fdf)">
     <use xlink:href="#mf259b3c6e8" x="312.624372" y="79.504372" style="stroke:var(--black)"/>
    </g>
   </g>
   <g id="PathCollection_7">
    <g clip-path="url(#pf608413fdf)">
     <use xlink:href="#m4edfad345c" x="286.32" y="53.2" style="stroke:var(--black)"/>
    </g>
   </g>
  </g>
 </g>
 <defs>
  <clipPath id="pfbc1ca1c50">
   <rect x="3.6" y="3.6" width="148.8" height="124"/>
  </clipPath>
  <clipPath id="pf608413fdf">
   <rect x="211.92" y="3.6" width="148.8" height="124"/>
  </clipPath>
 </defs>
</svg>
