<?xml version="1.0" encoding="utf-8" standalone="no"?>
<!DOCTYPE svg PUBLIC "-//W3C//DTD SVG 1.1//EN"
  "http://www.w3.org/Graphics/SVG/1.1/DTD/svg11.dtd">
<svg xmlns:xlink="http://www.w3.org/1999/xlink" width="421.595428pt" height="101.234671pt" viewBox="0 0 421.595428 101.234671" xmlns="http://www.w3.org/2000/svg" version="1.1">
<style>:root { --axis-color:#000; --grid-stroke:rgba(0,0,0,0.2); --plot3d-stroke:rgba(0,0,0,0.3); --plot3d-grid:rgba(0,0,0,0.2); }
@media (prefers-color-scheme:dark) { :root { --axis-color:#fff; --grid-stroke:rgba(255,255,255,0.2); --plot3d-stroke:rgba(255,255,255,0.3); --plot3d-grid:rgba(255,255,255,0.2); } }
.black{fill:#000000;stroke:#000000;}:root{--black:#000000;}.c1{fill:#FF0001;stroke:#FF0001;}:root{--c1:#FF0001;}.c2{fill:#00FF02;stroke:#00FF02;}:root{--c2:#00FF02;}.c3{fill:#0000FF;stroke:#0000FF;}:root{--c3:#0000FF;}.c4{fill:#FF00FF;stroke:#FF00FF;}:root{--c4:#FF00FF;}.c5{fill:#00FFFF;stroke:#00FFFF;}:root{--c5:#00FFFF;}.c6{fill:#FFFF00;stroke:#FFFF00;}:root{--c6:#FFFF00;}.c7{fill:#FF8000;stroke:#FF8000;}:root{--c7:#FF8000;}.c8{fill:#8000FF;stroke:#8000FF;}:root{--c8:#8000FF;}.gray{fill:#7f7f7f;stroke:#7f7f7f;}:root{--gray:#7f7f7f;}.grey{fill:#7f7f7f;stroke:#7f7f7f;}:root{--grey:#7f7f7f;}.octonary{fill:#bcbd22;stroke:#bcbd22;}:root{--octonary:#bcbd22;}.primary{fill:#d62728;stroke:#d62728;}:root{--primary:#d62728;}.quaternary{fill:#9467bd;stroke:#9467bd;}:root{--quaternary:#9467bd;}.quinary{fill:#8c564b;stroke:#8c564b;}:root{--quinary:#8c564b;}.secondary{fill:#2ca02c;stroke:#2ca02c;}:root{--secondary:#2ca02c;}.senary{fill:#e377c2;stroke:#e377c2;}:root{--senary:#e377c2;}.septenary{fill:#7f7f7f;stroke:#7f7f7f;}:root{--septenary:#7f7f7f;}.tertiary{fill:#1f77b4;stroke:#1f77b4;}:root{--tertiary:#1f77b4;}.white{fill:#ffffff;stroke:#ffffff;}:root{--white:#ffffff;}
@media (prefers-color-scheme:dark) { .black{fill:#FFFFFF;stroke:#FFFFFF;}:root{--black:#FFFFFF;}.c1{fill:#FF0001;stroke:#FF0001;}:root{--c1:#FF0001;}.c2{fill:#00FF02;stroke:#00FF02;}:root{--c2:#00FF02;}.c3{fill:#0000FF;stroke:#0000FF;}:root{--c3:#0000FF;}.c4{fill:#FF00FF;stroke:#FF00FF;}:root{--c4:#FF00FF;}.c5{fill:#00FFFF;stroke:#00FFFF;}:root{--c5:#00FFFF;}.c6{fill:#FFFF00;stroke:#FFFF00;}:root{--c6:#FFFF00;}.c7{fill:#FF8000;stroke:#FF8000;}:root{--c7:#FF8000;}.c8{fill:#8000FF;stroke:#8000FF;}:root{--c8:#8000FF;}.gray{fill:#CCCCCC;stroke:#CCCCCC;}:root{--gray:#CCCCCC;}.grey{fill:#CCCCCC;stroke:#CCCCCC;}:root{--grey:#CCCCCC;}.octonary{fill:#E6DB74;stroke:#E6DB74;}:root{--octonary:#E6DB74;}.primary{fill:#FF4A98;stroke:#FF4A98;}:root{--primary:#FF4A98;}.quaternary{fill:#B4A0FF;stroke:#B4A0FF;}:root{--quaternary:#B4A0FF;}.quinary{fill:#FFB86B;stroke:#FFB86B;}:root{--quinary:#FFB86B;}.secondary{fill:#0AFAFA;stroke:#0AFAFA;}:root{--secondary:#0AFAFA;}.senary{fill:#FF79C6;stroke:#FF79C6;}:root{--senary:#FF79C6;}.septenary{fill:#CCCCCC;stroke:#CCCCCC;}:root{--septenary:#CCCCCC;}.tertiary{fill:#7F83FF;stroke:#7F83FF;}:root{--tertiary:#7F83FF;}.white{fill:#000000;stroke:#000000;}:root{--white:#000000;} }
text,.text { fill:var(--axis-color)!important; stroke:none!important; }
.axis line,.axis path,.tick line,.tick path,path.domain,line.grid { stroke:var(--axis-color)!important; }
.legend text { fill:var(--axis-color)!important; }
.patch path[style*="stroke: currentColor"] { stroke:var(--axis-color)!important; }
g.legend>g:first-child>path:first-child { fill:rgba(255,255,255,0.8)!important; stroke:rgba(0,0,0,0.1)!important; }
@media (prefers-color-scheme:dark) { g.legend>g:first-child>path:first-child { fill:rgba(26,26,26,0.8)!important; stroke:rgba(255,255,255,0.1)!important; } }
.plot3d path,.plot3d polygon { stroke:var(--plot3d-stroke)!important; }
.plot3d-grid line { stroke:var(--plot3d-grid)!important; }
.plot3d-surface path[style*="fill:"] { fill-opacity:0.9!important; }
@media (prefers-color-scheme:dark) { .plot3d-surface path[style*="fill:"] { fill-opacity:0.95!important; filter:saturate(1.2)!important; } }</style>

 <metadata>
  <rdf:RDF xmlns:dc="http://purl.org/dc/elements/1.1/" xmlns:cc="http://creativecommons.org/ns#" xmlns:rdf="http://www.w3.org/1999/02/22-rdf-syntax-ns#">
   <cc:Work>
    <dc:type rdf:resource="http://purl.org/dc/dcmitype/StillImage"/>
    <dc:date>2026-01-03T22:32:04.388114</dc:date>
    <dc:format>image/svg+xml</dc:format>
    <dc:creator>
     <cc:Agent>
      <dc:title>Matplotlib v3.10.0, https://matplotlib.org/</dc:title>
     </cc:Agent>
    </dc:creator>
   </cc:Work>
  </rdf:RDF>
 </metadata>
 <defs>
  <style type="text/css">*{stroke-linejoin: round; stroke-linecap: butt}</style>
 </defs>
 <g id="figure_1">
  <g class="patch">
   <path d="M 0 101.234671 
L 421.595428 101.234671 
L 421.595428 -0 
L 0 -0 
L 0 101.234671 
z
" style="fill: none"/>
  </g>
  <g id="axes_1">
   <g class="patch">
    <path d="M 23.808651 94.968421 
L 117.787599 94.968421 
L 117.787599 3.6 
L 23.808651 3.6 
L 23.808651 94.968421 
z
" style="fill: none"/>
   </g>
   <g class="axis"/>
   <g class="axis"/>
   <g class="patch">
    <path d="M 55.435148 63.863906 
L 56.633888 64.686396 
L 57.876554 65.440879 
L 59.159294 66.125016 
L 60.478129 66.736686 
L 61.828968 67.273991 
L 63.207624 67.735266 
L 64.60982 68.119078 
L 66.031207 68.42424 
L 67.467377 68.649802 
L 68.913878 68.795068 
L 70.366222 68.859585 
L 71.819905 68.843154 
L 73.270419 68.745825 
L 74.713266 68.567901 
L 76.143972 68.309934 
L 77.558098 67.972722 
L 78.95126 67.557313 
L 80.319137 67.064994 
L 81.657487 66.497293 
L 82.962159 65.855969 
L 84.229107 65.143012 
L 85.454402 64.360633 
L 86.634244 63.511258 
L 87.764974 62.597522 
L 88.843085 61.622257 
L 89.865234 60.588489 
L 90.828251 59.499424 
L 91.72915 58.358439 
L 92.565135 57.169072 
L 93.333615 55.935013 
L 94.032207 54.660087 
L 94.658744 53.34825 
L 95.211283 52.00357 
L 95.688109 50.630216 
L 96.087746 49.232448 
L 96.408953 47.8146 
L 96.650733 46.381071 
L 96.812338 44.936305 
L 96.893266 43.484783 
L 96.893266 42.031007 
L 96.812338 40.579485 
L 96.650733 39.134719 
L 96.408953 37.701189 
L 96.087746 36.283342 
L 95.688109 34.885574 
L 95.211283 33.51222 
L 94.658744 32.167539 
L 94.032207 30.855702 
L 93.333615 29.580777 
L 92.565135 28.346717 
L 91.72915 27.157351 
L 90.828251 26.016365 
L 89.865234 24.9273 
L 88.843085 23.893532 
L 87.764974 22.918268 
L 86.634244 22.004531 
L 85.454402 21.155156 
L 84.229107 20.372777 
L 82.962159 19.65982 
L 81.657487 19.018497 
L 80.319137 18.450795 
L 78.95126 17.958476 
L 77.558098 17.543067 
L 76.143972 17.205856 
L 74.713266 16.947888 
L 73.270419 16.769964 
L 71.819905 16.672636 
L 70.366222 16.656205 
L 68.913878 16.720722 
L 67.467377 16.865987 
L 66.031207 17.09155 
L 64.60982 17.396711 
L 63.207624 17.780524 
L 61.828968 18.241798 
L 60.478129 18.779103 
L 59.159294 19.390773 
L 57.876554 20.074911 
L 56.633888 20.829394 
L 55.435148 21.651883 
L 63.116637 32.204889 
L 63.116637 32.204889 
L 63.716006 31.793644 
L 64.33734 31.416403 
L 64.978709 31.074334 
L 65.638127 30.768499 
L 66.313547 30.499846 
L 67.002874 30.269209 
L 67.703972 30.077303 
L 68.414666 29.924722 
L 69.132751 29.811941 
L 69.856001 29.739308 
L 70.582173 29.70705 
L 71.309015 29.715265 
L 72.034272 29.76393 
L 72.755696 29.852892 
L 73.471048 29.981875 
L 74.178112 30.150481 
L 74.874693 30.358186 
L 75.558631 30.604345 
L 76.227806 30.888196 
L 76.880142 31.208857 
L 77.513616 31.565336 
L 78.126263 31.956525 
L 78.716184 32.381213 
L 79.281549 32.838081 
L 79.820605 33.325713 
L 80.33168 33.842597 
L 80.813188 34.38713 
L 81.263637 34.957623 
L 81.68163 35.552306 
L 82.06587 36.169336 
L 82.415166 36.806798 
L 82.728434 37.462717 
L 83.004704 38.135057 
L 83.243117 38.821734 
L 83.442935 39.520618 
L 83.603539 40.229542 
L 83.724429 40.946307 
L 83.805232 41.66869 
L 83.845696 42.394451 
L 83.845696 43.121339 
L 83.805232 43.8471 
L 83.724429 44.569483 
L 83.603539 45.286247 
L 83.442935 45.995171 
L 83.243117 46.694055 
L 83.004704 47.380732 
L 82.728434 48.053072 
L 82.415166 48.708991 
L 82.06587 49.346454 
L 81.68163 49.963483 
L 81.263637 50.558167 
L 80.813188 51.128659 
L 80.33168 51.673192 
L 79.820605 52.190076 
L 79.281549 52.677708 
L 78.716184 53.134577 
L 78.126263 53.559264 
L 77.513616 53.950454 
L 76.880142 54.306932 
L 76.227806 54.627594 
L 75.558631 54.911445 
L 74.874693 55.157604 
L 74.178112 55.365309 
L 73.471048 55.533914 
L 72.755696 55.662898 
L 72.034272 55.75186 
L 71.309015 55.800524 
L 70.582173 55.80874 
L 69.856001 55.776481 
L 69.132751 55.703849 
L 68.414666 55.591067 
L 67.703972 55.438487 
L 67.002874 55.24658 
L 66.313547 55.015943 
L 65.638127 54.74729 
L 64.978709 54.441456 
L 64.33734 54.099387 
L 63.716006 53.722145 
L 63.116637 53.3109 
z
" clip-path="url(#p3cb9598af8)" style="fill: #8000ff; opacity: 0.6; stroke: #8000ff; stroke-width: 2; stroke-linejoin: miter"/>
   </g>
   <g id="line2d_1">
    <path d="M 55.435148 63.863906 
L 55.435148 21.651883 
" clip-path="url(#p3cb9598af8)" style="fill: none; stroke:var(--black); stroke-width: 2; stroke-linecap: square"/>
   </g>
   <g id="text_1" class="text">
    <!-- Minimal Convex Set -->
    <g transform="translate(3.6 79.305263) scale(0.12 -0.12)">
     <defs>
      <path id="DejaVuSerif-Bold-4d" d="M 269 0 
L 269 378 
L 863 378 
L 863 4288 
L 269 4288 
L 269 4666 
L 2194 4666 
L 3525 1672 
L 4863 4666 
L 6784 4666 
L 6784 4288 
L 6188 4288 
L 6188 378 
L 6784 378 
L 6784 0 
L 4384 0 
L 4384 378 
L 4978 378 
L 4978 3938 
L 3531 684 
L 2741 684 
L 1300 3938 
L 1300 378 
L 1894 378 
L 1894 0 
L 269 0 
z
" transform="scale(0.015625)"/>
      <path id="DejaVuSerif-Bold-69" d="M 588 4263 
Q 588 4516 763 4689 
Q 938 4863 1191 4863 
Q 1438 4863 1611 4689 
Q 1784 4516 1784 4263 
Q 1784 4016 1611 3842 
Q 1438 3669 1191 3669 
Q 938 3669 763 3841 
Q 588 4013 588 4263 
z
M 1797 378 
L 2272 378 
L 2272 0 
L 219 0 
L 219 378 
L 691 378 
L 691 2944 
L 219 2944 
L 219 3322 
L 1797 3322 
L 1797 378 
z
" transform="scale(0.015625)"/>
      <path id="DejaVuSerif-Bold-6e" d="M 219 0 
L 219 378 
L 691 378 
L 691 2944 
L 219 2944 
L 219 3322 
L 1797 3322 
L 1797 2853 
Q 1997 3150 2253 3281 
Q 2509 3413 2900 3413 
Q 3459 3413 3745 3083 
Q 4031 2753 4031 2113 
L 4031 378 
L 4506 378 
L 4506 0 
L 2522 0 
L 2522 378 
L 2925 378 
L 2925 2144 
Q 2925 2566 2817 2730 
Q 2709 2894 2444 2894 
Q 2109 2894 1953 2648 
Q 1797 2403 1797 1869 
L 1797 378 
L 2203 378 
L 2203 0 
L 219 0 
z
" transform="scale(0.015625)"/>
      <path id="DejaVuSerif-Bold-6d" d="M 3884 2778 
Q 4116 3109 4384 3261 
Q 4653 3413 5013 3413 
Q 5584 3413 5867 3089 
Q 6150 2766 6150 2113 
L 6150 378 
L 6625 378 
L 6625 0 
L 4647 0 
L 4647 378 
L 5044 378 
L 5044 1947 
Q 5044 2569 4948 2731 
Q 4853 2894 4594 2894 
Q 4300 2894 4137 2667 
Q 3975 2441 3975 2022 
L 3975 378 
L 4372 378 
L 4372 0 
L 2472 0 
L 2472 378 
L 2869 378 
L 2869 1947 
Q 2869 2569 2772 2731 
Q 2675 2894 2419 2894 
Q 2122 2894 1959 2667 
Q 1797 2441 1797 2022 
L 1797 378 
L 2194 378 
L 2194 0 
L 219 0 
L 219 378 
L 691 378 
L 691 2944 
L 219 2944 
L 219 3322 
L 1797 3322 
L 1797 2853 
Q 1991 3144 2241 3278 
Q 2491 3413 2834 3413 
Q 3241 3413 3494 3258 
Q 3747 3103 3884 2778 
z
" transform="scale(0.015625)"/>
      <path id="DejaVuSerif-Bold-61" d="M 3525 2041 
L 3525 378 
L 4000 378 
L 4000 0 
L 2419 0 
L 2419 422 
Q 2200 159 1931 34 
Q 1663 -91 1319 -91 
Q 809 -91 536 182 
Q 263 456 263 966 
Q 263 1525 655 1803 
Q 1047 2081 1838 2081 
L 2419 2081 
L 2419 2278 
Q 2419 2681 2228 2873 
Q 2038 3066 1638 3066 
Q 1306 3066 1126 2930 
Q 947 2794 872 2484 
L 519 2484 
L 519 3200 
Q 816 3306 1134 3359 
Q 1453 3413 1806 3413 
Q 2697 3413 3111 3081 
Q 3525 2750 3525 2041 
z
M 2419 1044 
L 2419 1709 
L 2003 1709 
Q 1694 1709 1528 1540 
Q 1363 1372 1363 1056 
Q 1363 741 1483 584 
Q 1603 428 1850 428 
Q 2106 428 2262 597 
Q 2419 766 2419 1044 
z
" transform="scale(0.015625)"/>
      <path id="DejaVuSerif-Bold-6c" d="M 1797 378 
L 2272 378 
L 2272 0 
L 219 0 
L 219 378 
L 691 378 
L 691 4488 
L 219 4488 
L 219 4863 
L 1797 4863 
L 1797 378 
z
" transform="scale(0.015625)"/>
      <path id="DejaVuSerif-Bold-20" transform="scale(0.015625)"/>
      <path id="DejaVuSerif-Bold-43" d="M 4769 1331 
Q 4584 609 4106 259 
Q 3628 -91 2822 -91 
Q 1641 -91 955 561 
Q 269 1213 269 2328 
Q 269 3447 955 4098 
Q 1641 4750 2822 4750 
Q 3238 4750 3688 4650 
Q 4138 4550 4641 4347 
L 4641 3200 
L 4244 3200 
Q 4122 3788 3800 4080 
Q 3478 4372 2950 4372 
Q 2269 4372 1937 3870 
Q 1606 3369 1606 2328 
Q 1606 1288 1937 788 
Q 2269 288 2956 288 
Q 3422 288 3717 547 
Q 4013 806 4147 1331 
L 4769 1331 
z
" transform="scale(0.015625)"/>
      <path id="DejaVuSerif-Bold-6f" d="M 2138 263 
Q 2488 263 2630 563 
Q 2772 863 2772 1663 
Q 2772 2463 2631 2761 
Q 2491 3059 2138 3059 
Q 1784 3059 1640 2757 
Q 1497 2456 1497 1663 
Q 1497 869 1640 566 
Q 1784 263 2138 263 
z
M 2138 -91 
Q 1259 -91 761 376 
Q 263 844 263 1663 
Q 263 2484 761 2948 
Q 1259 3413 2138 3413 
Q 3019 3413 3516 2948 
Q 4013 2484 4013 1663 
Q 4013 844 3514 376 
Q 3016 -91 2138 -91 
z
" transform="scale(0.015625)"/>
      <path id="DejaVuSerif-Bold-76" d="M 1428 0 
L 250 2944 
L -116 2944 
L -116 3322 
L 1791 3322 
L 1791 2944 
L 1388 2944 
L 2228 844 
L 3066 2944 
L 2631 2944 
L 2631 3322 
L 3878 3322 
L 3878 2944 
L 3494 2944 
L 2316 0 
L 1428 0 
z
" transform="scale(0.015625)"/>
      <path id="DejaVuSerif-Bold-65" d="M 2566 1875 
Q 2566 2531 2444 2795 
Q 2322 3059 2028 3059 
Q 1744 3059 1620 2800 
Q 1497 2541 1497 1931 
L 1497 1875 
L 2566 1875 
z
M 3781 1503 
L 1497 1503 
L 1497 1478 
Q 1497 834 1690 548 
Q 1884 263 2316 263 
Q 2675 263 2897 453 
Q 3119 644 3181 1006 
L 3700 1006 
Q 3566 441 3166 175 
Q 2766 -91 2047 -91 
Q 1184 -91 723 364 
Q 263 819 263 1663 
Q 263 2488 734 2950 
Q 1206 3413 2047 3413 
Q 2872 3413 3312 2927 
Q 3753 2441 3781 1503 
z
" transform="scale(0.015625)"/>
      <path id="DejaVuSerif-Bold-78" d="M 2247 2119 
L 2834 2944 
L 2425 2944 
L 2425 3322 
L 3719 3322 
L 3719 2944 
L 3278 2944 
L 2431 1759 
L 3419 378 
L 3859 378 
L 3859 0 
L 1747 0 
L 1747 378 
L 2175 378 
L 1550 1253 
L 922 378 
L 1369 378 
L 1369 0 
L 0 0 
L 0 378 
L 475 378 
L 1356 1619 
L 403 2944 
L 31 2944 
L 31 3322 
L 2059 3322 
L 2059 2944 
L 1656 2944 
L 2247 2119 
z
" transform="scale(0.015625)"/>
      <path id="DejaVuSerif-Bold-53" d="M 494 225 
L 494 1331 
L 891 1331 
Q 981 806 1318 547 
Q 1656 288 2253 288 
Q 2738 288 2991 472 
Q 3244 656 3244 1013 
Q 3244 1294 3072 1450 
Q 2900 1606 2363 1741 
L 1663 1913 
Q 978 2088 700 2398 
Q 422 2709 422 3284 
Q 422 3978 883 4364 
Q 1344 4750 2175 4750 
Q 2584 4750 3026 4681 
Q 3469 4613 3944 4475 
L 3944 3444 
L 3547 3444 
Q 3456 3925 3150 4148 
Q 2844 4372 2278 4372 
Q 1816 4372 1580 4211 
Q 1344 4050 1344 3731 
Q 1344 3441 1506 3289 
Q 1669 3138 2303 2975 
L 3003 2803 
Q 3653 2641 3945 2297 
Q 4238 1953 4238 1350 
Q 4238 644 3750 276 
Q 3263 -91 2316 -91 
Q 1859 -91 1409 -12 
Q 959 66 494 225 
z
" transform="scale(0.015625)"/>
      <path id="DejaVuSerif-Bold-74" d="M 634 2944 
L 153 2944 
L 153 3322 
L 634 3322 
L 634 4353 
L 1741 4353 
L 1741 3322 
L 2663 3322 
L 2663 2944 
L 1741 2944 
L 1741 909 
Q 1741 475 1809 369 
Q 1878 263 2059 263 
Q 2259 263 2356 397 
Q 2453 531 2459 813 
L 2925 813 
Q 2897 313 2651 111 
Q 2406 -91 1806 -91 
Q 1122 -91 878 123 
Q 634 338 634 909 
L 634 2944 
z
" transform="scale(0.015625)"/>
     </defs>
     <use xlink:href="#DejaVuSerif-Bold-4d"/>
     <use xlink:href="#DejaVuSerif-Bold-69" transform="translate(110.693359 0)"/>
     <use xlink:href="#DejaVuSerif-Bold-6e" transform="translate(148.681641 0)"/>
     <use xlink:href="#DejaVuSerif-Bold-69" transform="translate(221.386719 0)"/>
     <use xlink:href="#DejaVuSerif-Bold-6d" transform="translate(259.375 0)"/>
     <use xlink:href="#DejaVuSerif-Bold-61" transform="translate(365.185547 0)"/>
     <use xlink:href="#DejaVuSerif-Bold-6c" transform="translate(429.980469 0)"/>
     <use xlink:href="#DejaVuSerif-Bold-20" transform="translate(467.96875 0)"/>
     <use xlink:href="#DejaVuSerif-Bold-43" transform="translate(502.783203 0)"/>
     <use xlink:href="#DejaVuSerif-Bold-6f" transform="translate(582.373047 0)"/>
     <use xlink:href="#DejaVuSerif-Bold-6e" transform="translate(649.072266 0)"/>
     <use xlink:href="#DejaVuSerif-Bold-76" transform="translate(721.777344 0)"/>
     <use xlink:href="#DejaVuSerif-Bold-65" transform="translate(779.882812 0)"/>
     <use xlink:href="#DejaVuSerif-Bold-78" transform="translate(843.505859 0)"/>
     <use xlink:href="#DejaVuSerif-Bold-20" transform="translate(903.125 0)"/>
     <use xlink:href="#DejaVuSerif-Bold-53" transform="translate(937.939453 0)"/>
     <use xlink:href="#DejaVuSerif-Bold-65" transform="translate(1010.15625 0)"/>
     <use xlink:href="#DejaVuSerif-Bold-74" transform="translate(1073.779297 0)"/>
    </g>
   </g>
   <g id="PathCollection_1">
    <defs>
     <path id="madb3b3ca10" d="M 0 2.738613 
C 0.726289 2.738613 1.422928 2.450055 1.936492 1.936492 
C 2.450055 1.422928 2.738613 0.726289 2.738613 0 
C 2.738613 -0.726289 2.450055 -1.422928 1.936492 -1.936492 
C 1.422928 -2.450055 0.726289 -2.738613 0 -2.738613 
C -0.726289 -2.738613 -1.422928 -2.450055 -1.936492 -1.936492 
C -2.450055 -1.422928 -2.738613 -0.726289 -2.738613 0 
C -2.738613 0.726289 -2.450055 1.422928 -1.936492 1.936492 
C -1.422928 2.450055 -0.726289 2.738613 0 2.738613 
z
" style="stroke:var(--black)"/>
    </defs>
    <g clip-path="url(#p3cb9598af8)">
     <use xlink:href="#madb3b3ca10" x="55.435148" y="63.863906" style="stroke:var(--black)"/>
     <use xlink:href="#madb3b3ca10" x="55.435148" y="21.651883" style="stroke:var(--black)"/>
    </g>
   </g>
  </g>
  <g id="axes_2">
   <g class="patch">
    <path d="M 155.379178 94.968421 
L 249.358125 94.968421 
L 249.358125 3.6 
L 155.379178 3.6 
L 155.379178 94.968421 
z
" style="fill: none"/>
   </g>
   <g class="axis"/>
   <g class="axis"/>
   <g class="patch">
    <path d="M 187.005675 63.863906 
L 188.204414 64.686396 
L 189.447081 65.440879 
L 190.72982 66.125016 
L 192.048655 66.736686 
L 193.399495 67.273991 
L 194.77815 67.735266 
L 196.180346 68.119078 
L 197.601733 68.42424 
L 199.037904 68.649802 
L 200.484404 68.795068 
L 201.936748 68.859585 
L 203.390431 68.843154 
L 204.840945 68.745825 
L 206.283793 68.567901 
L 207.714498 68.309934 
L 209.128624 67.972722 
L 210.521786 67.557313 
L 211.889663 67.064994 
L 213.228013 66.497293 
L 214.532685 65.855969 
L 215.799633 65.143012 
L 217.024928 64.360633 
L 218.20477 63.511258 
L 219.3355 62.597522 
L 220.413611 61.622257 
L 221.435761 60.588489 
L 222.398778 59.499424 
L 223.299676 58.358439 
L 224.135661 57.169072 
L 224.904142 55.935013 
L 225.602733 54.660087 
L 226.22927 53.34825 
L 226.781809 52.00357 
L 227.258636 50.630216 
L 227.658272 49.232448 
L 227.979479 47.8146 
L 228.22126 46.381071 
L 228.382865 44.936305 
L 228.463793 43.484783 
L 228.463793 42.031007 
L 228.382865 40.579485 
L 228.22126 39.134719 
L 227.979479 37.701189 
L 227.658272 36.283342 
L 227.258636 34.885574 
L 226.781809 33.51222 
L 226.22927 32.167539 
L 225.602733 30.855702 
L 224.904142 29.580777 
L 224.135661 28.346717 
L 223.299676 27.157351 
L 222.398778 26.016365 
L 221.435761 24.9273 
L 220.413611 23.893532 
L 219.3355 22.918268 
L 218.20477 22.004531 
L 217.024928 21.155156 
L 215.799633 20.372777 
L 214.532685 19.65982 
L 213.228013 19.018497 
L 211.889663 18.450795 
L 210.521786 17.958476 
L 209.128624 17.543067 
L 207.714498 17.205856 
L 206.283793 16.947888 
L 204.840945 16.769964 
L 203.390431 16.672636 
L 201.936748 16.656205 
L 200.484404 16.720722 
L 199.037904 16.865987 
L 197.601733 17.09155 
L 196.180346 17.396711 
L 194.77815 17.780524 
L 193.399495 18.241798 
L 192.048655 18.779103 
L 190.72982 19.390773 
L 189.447081 20.074911 
L 188.204414 20.829394 
L 187.005675 21.651883 
L 194.687163 32.204889 
L 194.687163 32.204889 
L 195.286533 31.793644 
L 195.907866 31.416403 
L 196.549236 31.074334 
L 197.208653 30.768499 
L 197.884073 30.499846 
L 198.573401 30.269209 
L 199.274499 30.077303 
L 199.985192 29.924722 
L 200.703278 29.811941 
L 201.426528 29.739308 
L 202.1527 29.70705 
L 202.879541 29.715265 
L 203.604798 29.76393 
L 204.326222 29.852892 
L 205.041575 29.981875 
L 205.748638 30.150481 
L 206.445219 30.358186 
L 207.129157 30.604345 
L 207.798332 30.888196 
L 208.450668 31.208857 
L 209.084142 31.565336 
L 209.69679 31.956525 
L 210.286711 32.381213 
L 210.852076 32.838081 
L 211.391131 33.325713 
L 211.902206 33.842597 
L 212.383714 34.38713 
L 212.834164 34.957623 
L 213.252156 35.552306 
L 213.636397 36.169336 
L 213.985692 36.806798 
L 214.298961 37.462717 
L 214.57523 38.135057 
L 214.813644 38.821734 
L 215.013462 39.520618 
L 215.174065 40.229542 
L 215.294956 40.946307 
L 215.375758 41.66869 
L 215.416222 42.394451 
L 215.416222 43.121339 
L 215.375758 43.8471 
L 215.294956 44.569483 
L 215.174065 45.286247 
L 215.013462 45.995171 
L 214.813644 46.694055 
L 214.57523 47.380732 
L 214.298961 48.053072 
L 213.985692 48.708991 
L 213.636397 49.346454 
L 213.252156 49.963483 
L 212.834164 50.558167 
L 212.383714 51.128659 
L 211.902206 51.673192 
L 211.391131 52.190076 
L 210.852076 52.677708 
L 210.286711 53.134577 
L 209.69679 53.559264 
L 209.084142 53.950454 
L 208.450668 54.306932 
L 207.798332 54.627594 
L 207.129157 54.911445 
L 206.445219 55.157604 
L 205.748638 55.365309 
L 205.041575 55.533914 
L 204.326222 55.662898 
L 203.604798 55.75186 
L 202.879541 55.800524 
L 202.1527 55.80874 
L 201.426528 55.776481 
L 200.703278 55.703849 
L 199.985192 55.591067 
L 199.274499 55.438487 
L 198.573401 55.24658 
L 197.884073 55.015943 
L 197.208653 54.74729 
L 196.549236 54.441456 
L 195.907866 54.099387 
L 195.286533 53.722145 
L 194.687163 53.3109 
z
" clip-path="url(#pb17a25e7ed)" style="fill: #8000ff; opacity: 0.6; stroke: #8000ff; stroke-width: 2; stroke-linejoin: miter"/>
   </g>
   <g class="patch">
    <path d="M 202.368651 79.305263 
C 213.445766 79.305263 224.070682 75.454402 231.903385 68.600787 
C 239.736088 61.747172 244.137072 52.45037 244.137072 42.757895 
C 244.137072 33.065419 239.736088 23.768618 231.903385 16.915003 
C 224.070682 10.061388 213.445766 6.210526 202.368651 6.210526 
C 191.291537 6.210526 180.666621 10.061388 172.833918 16.915003 
C 165.001215 23.768618 160.60023 33.065419 160.60023 42.757895 
C 160.60023 52.45037 165.001215 61.747172 172.833918 68.600787 
C 180.666621 75.454402 191.291537 79.305263 202.368651 79.305263 
L 202.368651 79.305263 
z
" clip-path="url(#pb17a25e7ed)" style="fill: none; opacity: 0.7; stroke-dasharray: 7.4,3.2; stroke-dashoffset: 0; stroke: #808080; stroke-width: 2; stroke-linejoin: miter"/>
   </g>
   <g class="patch">
    <path d="M 210.476498 73.016792 
C 219.838711 70.508195 227.964438 64.913737 233.064082 57.465534 
C 238.163726 50.01733 239.820925 41.323493 237.670698 33.29874 
C 235.520472 25.273986 229.738378 18.573502 221.597854 14.672991 
C 213.457331 10.772479 203.623016 9.9904 194.260804 12.498997 
C 184.898592 15.007595 176.772865 20.602052 171.673221 28.050256 
C 166.573576 35.498459 164.916378 44.192296 167.066604 52.21705 
C 169.21683 60.241803 174.998925 66.942288 183.139448 70.842799 
C 191.279971 74.74331 201.114286 75.525389 210.476498 73.016792 
L 210.476498 73.016792 
z
" clip-path="url(#pb17a25e7ed)" style="fill: none; opacity: 0.7; stroke-dasharray: 7.4,3.2; stroke-dashoffset: 0; stroke: #808080; stroke-width: 2; stroke-linejoin: miter"/>
   </g>
   <g id="text_2" class="text">
    <!-- Larger Convex Sets -->
    <g transform="translate(137.428026 94.968421) scale(0.12 -0.12)">
     <defs>
      <path id="DejaVuSerif-Bold-4c" d="M 300 0 
L 300 378 
L 897 378 
L 897 4288 
L 300 4288 
L 300 4666 
L 2700 4666 
L 2700 4288 
L 2100 4288 
L 2100 428 
L 3938 428 
L 3938 1166 
L 4359 1166 
L 4359 0 
L 300 0 
z
" transform="scale(0.015625)"/>
      <path id="DejaVuSerif-Bold-72" d="M 3438 3359 
L 3438 2369 
L 3084 2369 
Q 3066 2634 2941 2764 
Q 2816 2894 2578 2894 
Q 2216 2894 2006 2575 
Q 1797 2256 1797 1691 
L 1797 378 
L 2400 378 
L 2400 0 
L 219 0 
L 219 378 
L 691 378 
L 691 2944 
L 184 2944 
L 184 3322 
L 1797 3322 
L 1797 2731 
Q 1959 3078 2226 3245 
Q 2494 3413 2881 3413 
Q 2978 3413 3117 3398 
Q 3256 3384 3438 3359 
z
" transform="scale(0.015625)"/>
      <path id="DejaVuSerif-Bold-67" d="M 3853 2944 
L 3853 44 
Q 3853 -656 3354 -1039 
Q 2856 -1422 1947 -1422 
Q 1616 -1422 1275 -1370 
Q 934 -1319 575 -1216 
L 575 -422 
L 928 -422 
Q 975 -750 1192 -909 
Q 1409 -1069 1813 -1069 
Q 2325 -1069 2536 -823 
Q 2747 -578 2747 44 
L 2747 422 
Q 2606 163 2367 36 
Q 2128 -91 1778 -91 
Q 1072 -91 667 378 
Q 263 847 263 1663 
Q 263 2481 667 2947 
Q 1072 3413 1778 3413 
Q 2128 3413 2367 3286 
Q 2606 3159 2747 2900 
L 2747 3322 
L 4325 3322 
L 4325 2944 
L 3853 2944 
z
M 2747 1825 
Q 2747 2406 2597 2665 
Q 2447 2925 2119 2925 
Q 1775 2925 1636 2651 
Q 1497 2378 1497 1663 
Q 1497 947 1637 672 
Q 1778 397 2119 397 
Q 2447 397 2597 656 
Q 2747 916 2747 1497 
L 2747 1825 
z
" transform="scale(0.015625)"/>
      <path id="DejaVuSerif-Bold-73" d="M 300 97 
L 300 1025 
L 653 1025 
Q 697 653 931 458 
Q 1166 263 1569 263 
Q 1906 263 2086 380 
Q 2266 497 2266 716 
Q 2266 916 2152 1025 
Q 2038 1134 1709 1216 
L 1253 1331 
Q 738 1459 506 1698 
Q 275 1938 275 2344 
Q 275 2884 650 3148 
Q 1025 3413 1806 3413 
Q 2100 3413 2433 3364 
Q 2766 3316 3169 3213 
L 3169 2375 
L 2816 2375 
Q 2788 2716 2573 2887 
Q 2359 3059 1959 3059 
Q 1622 3059 1448 2951 
Q 1275 2844 1275 2638 
Q 1275 2469 1375 2372 
Q 1475 2275 1734 2209 
L 2188 2094 
Q 2841 1928 3091 1684 
Q 3341 1441 3341 1006 
Q 3341 444 2939 176 
Q 2538 -91 1691 -91 
Q 1381 -91 1034 -44 
Q 688 3 300 97 
z
" transform="scale(0.015625)"/>
     </defs>
     <use xlink:href="#DejaVuSerif-Bold-4c"/>
     <use xlink:href="#DejaVuSerif-Bold-61" transform="translate(70.3125 0)"/>
     <use xlink:href="#DejaVuSerif-Bold-72" transform="translate(135.107422 0)"/>
     <use xlink:href="#DejaVuSerif-Bold-67" transform="translate(187.792969 0)"/>
     <use xlink:href="#DejaVuSerif-Bold-65" transform="translate(257.714844 0)"/>
     <use xlink:href="#DejaVuSerif-Bold-72" transform="translate(321.337891 0)"/>
     <use xlink:href="#DejaVuSerif-Bold-20" transform="translate(374.023438 0)"/>
     <use xlink:href="#DejaVuSerif-Bold-43" transform="translate(408.837891 0)"/>
     <use xlink:href="#DejaVuSerif-Bold-6f" transform="translate(488.427734 0)"/>
     <use xlink:href="#DejaVuSerif-Bold-6e" transform="translate(555.126953 0)"/>
     <use xlink:href="#DejaVuSerif-Bold-76" transform="translate(627.832031 0)"/>
     <use xlink:href="#DejaVuSerif-Bold-65" transform="translate(685.9375 0)"/>
     <use xlink:href="#DejaVuSerif-Bold-78" transform="translate(749.560547 0)"/>
     <use xlink:href="#DejaVuSerif-Bold-20" transform="translate(809.179688 0)"/>
     <use xlink:href="#DejaVuSerif-Bold-53" transform="translate(843.994141 0)"/>
     <use xlink:href="#DejaVuSerif-Bold-65" transform="translate(916.210938 0)"/>
     <use xlink:href="#DejaVuSerif-Bold-74" transform="translate(979.833984 0)"/>
     <use xlink:href="#DejaVuSerif-Bold-73" transform="translate(1026.025391 0)"/>
    </g>
   </g>
  </g>
  <g id="axes_3">
   <g class="patch">
    <path d="M 286.949704 94.968421 
L 380.928651 94.968421 
L 380.928651 3.6 
L 286.949704 3.6 
L 286.949704 94.968421 
z
" style="fill: none"/>
   </g>
   <g class="axis"/>
   <g class="axis"/>
   <g class="patch">
    <path d="M 318.576201 63.863906 
L 319.77494 64.686396 
L 321.017607 65.440879 
L 322.300346 66.125016 
L 323.619181 66.736686 
L 324.970021 67.273991 
L 326.348676 67.735266 
L 327.750872 68.119078 
L 329.172259 68.42424 
L 330.60843 68.649802 
L 332.05493 68.795068 
L 333.507274 68.859585 
L 334.960957 68.843154 
L 336.411472 68.745825 
L 337.854319 68.567901 
L 339.285024 68.309934 
L 340.699151 67.972722 
L 342.092313 67.557313 
L 343.46019 67.064994 
L 344.798539 66.497293 
L 346.103211 65.855969 
L 347.370159 65.143012 
L 348.595454 64.360633 
L 349.775296 63.511258 
L 350.906026 62.597522 
L 351.984138 61.622257 
L 353.006287 60.588489 
L 353.969304 59.499424 
L 354.870202 58.358439 
L 355.706188 57.169072 
L 356.474668 55.935013 
L 357.17326 54.660087 
L 357.799797 53.34825 
L 358.352335 52.00357 
L 358.829162 50.630216 
L 359.228799 49.232448 
L 359.550005 47.8146 
L 359.791786 46.381071 
L 359.953391 44.936305 
L 360.034319 43.484783 
L 360.034319 42.031007 
L 359.953391 40.579485 
L 359.791786 39.134719 
L 359.550005 37.701189 
L 359.228799 36.283342 
L 358.829162 34.885574 
L 358.352335 33.51222 
L 357.799797 32.167539 
L 357.17326 30.855702 
L 356.474668 29.580777 
L 355.706188 28.346717 
L 354.870202 27.157351 
L 353.969304 26.016365 
L 353.006287 24.9273 
L 351.984138 23.893532 
L 350.906026 22.918268 
L 349.775296 22.004531 
L 348.595454 21.155156 
L 347.370159 20.372777 
L 346.103211 19.65982 
L 344.798539 19.018497 
L 343.46019 18.450795 
L 342.092313 17.958476 
L 340.699151 17.543067 
L 339.285024 17.205856 
L 337.854319 16.947888 
L 336.411472 16.769964 
L 334.960957 16.672636 
L 333.507274 16.656205 
L 332.05493 16.720722 
L 330.60843 16.865987 
L 329.172259 17.09155 
L 327.750872 17.396711 
L 326.348676 17.780524 
L 324.970021 18.241798 
L 323.619181 18.779103 
L 322.300346 19.390773 
L 321.017607 20.074911 
L 319.77494 20.829394 
L 318.576201 21.651883 
L 326.257689 32.204889 
L 326.257689 32.204889 
L 326.857059 31.793644 
L 327.478392 31.416403 
L 328.119762 31.074334 
L 328.779179 30.768499 
L 329.454599 30.499846 
L 330.143927 30.269209 
L 330.845025 30.077303 
L 331.555719 29.924722 
L 332.273804 29.811941 
L 332.997054 29.739308 
L 333.723226 29.70705 
L 334.450068 29.715265 
L 335.175325 29.76393 
L 335.896748 29.852892 
L 336.612101 29.981875 
L 337.319164 30.150481 
L 338.015745 30.358186 
L 338.699684 30.604345 
L 339.368858 30.888196 
L 340.021194 31.208857 
L 340.654668 31.565336 
L 341.267316 31.956525 
L 341.857237 32.381213 
L 342.422602 32.838081 
L 342.961658 33.325713 
L 343.472732 33.842597 
L 343.954241 34.38713 
L 344.40469 34.957623 
L 344.822683 35.552306 
L 345.206923 36.169336 
L 345.556219 36.806798 
L 345.869487 37.462717 
L 346.145756 38.135057 
L 346.38417 38.821734 
L 346.583988 39.520618 
L 346.744591 40.229542 
L 346.865482 40.946307 
L 346.946284 41.66869 
L 346.986748 42.394451 
L 346.986748 43.121339 
L 346.946284 43.8471 
L 346.865482 44.569483 
L 346.744591 45.286247 
L 346.583988 45.995171 
L 346.38417 46.694055 
L 346.145756 47.380732 
L 345.869487 48.053072 
L 345.556219 48.708991 
L 345.206923 49.346454 
L 344.822683 49.963483 
L 344.40469 50.558167 
L 343.954241 51.128659 
L 343.472732 51.673192 
L 342.961658 52.190076 
L 342.422602 52.677708 
L 341.857237 53.134577 
L 341.267316 53.559264 
L 340.654668 53.950454 
L 340.021194 54.306932 
L 339.368858 54.627594 
L 338.699684 54.911445 
L 338.015745 55.157604 
L 337.319164 55.365309 
L 336.612101 55.533914 
L 335.896748 55.662898 
L 335.175325 55.75186 
L 334.450068 55.800524 
L 333.723226 55.80874 
L 332.997054 55.776481 
L 332.273804 55.703849 
L 331.555719 55.591067 
L 330.845025 55.438487 
L 330.143927 55.24658 
L 329.454599 55.015943 
L 328.779179 54.74729 
L 328.119762 54.441456 
L 327.478392 54.099387 
L 326.857059 53.722145 
L 326.257689 53.3109 
z
" clip-path="url(#pc9f6063437)" style="fill: #8000ff; opacity: 0.6; stroke: #8000ff; stroke-width: 2; stroke-linejoin: miter"/>
   </g>
   <g class="patch">
    <path d="M 328.022792 30.279821 
Q 339.159614 33.620868 348.690113 36.480017 
" style="fill: none; opacity: 0.7; stroke:var(--black); stroke-width: 1.5; stroke-linecap: round"/>
    <path d="M 345.107843 33.108469 
L 348.690113 36.480017 
L 343.843512 37.322905 
" style="fill: none; opacity: 0.7; stroke:var(--black); stroke-width: 1.5; stroke-linecap: round"/>
   </g>
   <g class="patch">
    <path d="M 329.969852 28.659396 
Q 339.161794 40.149323 347.306091 50.329694 
" style="fill: none; opacity: 0.7; stroke:var(--black); stroke-width: 1.5; stroke-linecap: round"/>
    <path d="M 346.275344 45.519542 
L 347.306091 50.329694 
L 342.839521 48.268201 
" style="fill: none; opacity: 0.7; stroke:var(--black); stroke-width: 1.5; stroke-linecap: round"/>
   </g>
   <g id="text_3" class="text">
    <!-- All Convex Combinations -->
    <g transform="translate(249.882928 79.305263) scale(0.12 -0.12)">
     <defs>
      <path id="DejaVuSerif-Bold-41" d="M -50 0 
L -50 378 
L 331 378 
L 2088 4666 
L 2834 4666 
L 4594 378 
L 5038 378 
L 5038 0 
L 2853 0 
L 2853 378 
L 3309 378 
L 2925 1331 
L 1172 1331 
L 781 378 
L 1338 378 
L 1338 0 
L -50 0 
z
M 1325 1709 
L 2772 1709 
L 2053 3494 
L 1325 1709 
z
" transform="scale(0.015625)"/>
      <path id="DejaVuSerif-Bold-62" d="M 622 378 
L 622 4488 
L 147 4488 
L 147 4863 
L 1728 4863 
L 1728 2900 
Q 1869 3159 2106 3286 
Q 2344 3413 2694 3413 
Q 3403 3413 3811 2945 
Q 4219 2478 4219 1663 
Q 4219 847 3811 378 
Q 3403 -91 2694 -91 
Q 2344 -91 2106 36 
Q 1869 163 1728 422 
L 1728 0 
L 147 0 
L 147 378 
L 622 378 
z
M 1728 1497 
Q 1728 916 1876 656 
Q 2025 397 2356 397 
Q 2697 397 2836 672 
Q 2975 947 2975 1663 
Q 2975 2378 2836 2651 
Q 2697 2925 2356 2925 
Q 2025 2925 1876 2665 
Q 1728 2406 1728 1825 
L 1728 1497 
z
" transform="scale(0.015625)"/>
     </defs>
     <use xlink:href="#DejaVuSerif-Bold-41"/>
     <use xlink:href="#DejaVuSerif-Bold-6c" transform="translate(77.587891 0)"/>
     <use xlink:href="#DejaVuSerif-Bold-6c" transform="translate(115.576172 0)"/>
     <use xlink:href="#DejaVuSerif-Bold-20" transform="translate(153.564453 0)"/>
     <use xlink:href="#DejaVuSerif-Bold-43" transform="translate(188.378906 0)"/>
     <use xlink:href="#DejaVuSerif-Bold-6f" transform="translate(267.96875 0)"/>
     <use xlink:href="#DejaVuSerif-Bold-6e" transform="translate(334.667969 0)"/>
     <use xlink:href="#DejaVuSerif-Bold-76" transform="translate(407.373047 0)"/>
     <use xlink:href="#DejaVuSerif-Bold-65" transform="translate(465.478516 0)"/>
     <use xlink:href="#DejaVuSerif-Bold-78" transform="translate(529.101562 0)"/>
     <use xlink:href="#DejaVuSerif-Bold-20" transform="translate(588.720703 0)"/>
     <use xlink:href="#DejaVuSerif-Bold-43" transform="translate(623.535156 0)"/>
     <use xlink:href="#DejaVuSerif-Bold-6f" transform="translate(703.125 0)"/>
     <use xlink:href="#DejaVuSerif-Bold-6d" transform="translate(769.824219 0)"/>
     <use xlink:href="#DejaVuSerif-Bold-62" transform="translate(875.634766 0)"/>
     <use xlink:href="#DejaVuSerif-Bold-69" transform="translate(945.556641 0)"/>
     <use xlink:href="#DejaVuSerif-Bold-6e" transform="translate(983.544922 0)"/>
     <use xlink:href="#DejaVuSerif-Bold-61" transform="translate(1056.25 0)"/>
     <use xlink:href="#DejaVuSerif-Bold-74" transform="translate(1121.044922 0)"/>
     <use xlink:href="#DejaVuSerif-Bold-69" transform="translate(1167.236328 0)"/>
     <use xlink:href="#DejaVuSerif-Bold-6f" transform="translate(1205.224609 0)"/>
     <use xlink:href="#DejaVuSerif-Bold-6e" transform="translate(1271.923828 0)"/>
     <use xlink:href="#DejaVuSerif-Bold-73" transform="translate(1344.628906 0)"/>
    </g>
   </g>
   <g id="PathCollection_2">
    <defs>
     <path id="m3964de877a" d="M 0 2.236068 
C 0.593012 2.236068 1.161816 2.000462 1.581139 1.581139 
C 2.000462 1.161816 2.236068 0.593012 2.236068 0 
C 2.236068 -0.593012 2.000462 -1.161816 1.581139 -1.581139 
C 1.161816 -2.000462 0.593012 -2.236068 0 -2.236068 
C -0.593012 -2.236068 -1.161816 -2.000462 -1.581139 -1.581139 
C -2.000462 -1.161816 -2.236068 -0.593012 -2.236068 0 
C -2.236068 0.593012 -2.000462 1.161816 -1.581139 1.581139 
C -1.161816 2.000462 -0.593012 2.236068 0 2.236068 
z
" style="stroke:var(--black); stroke-opacity: 0.7"/>
    </defs>
    <g clip-path="url(#pc9f6063437)">
     <use xlink:href="#m3964de877a" x="326.107599" y="29.705263" style="fill-opacity: 0.7; stroke:var(--black); stroke-opacity: 0.7"/>
    </g>
   </g>
   <g id="PathCollection_3">
    <g clip-path="url(#pc9f6063437)">
     <use xlink:href="#m3964de877a" x="352.212862" y="37.536842" style="fill-opacity: 0.7; stroke:var(--black); stroke-opacity: 0.7"/>
    </g>
   </g>
   <g id="PathCollection_4">
    <g clip-path="url(#pc9f6063437)">
     <use xlink:href="#m3964de877a" x="328.718125" y="27.094737" style="fill-opacity: 0.7; stroke:var(--black); stroke-opacity: 0.7"/>
    </g>
   </g>
   <g id="PathCollection_5">
    <g clip-path="url(#pc9f6063437)">
     <use xlink:href="#m3964de877a" x="349.602336" y="53.2" style="fill-opacity: 0.7; stroke:var(--black); stroke-opacity: 0.7"/>
    </g>
   </g>
  </g>
 </g>
 <defs>
  <clipPath id="p3cb9598af8">
   <rect x="23.808651" y="3.6" width="93.978947" height="91.368421"/>
  </clipPath>
  <clipPath id="pb17a25e7ed">
   <rect x="155.379178" y="3.6" width="93.978947" height="91.368421"/>
  </clipPath>
  <clipPath id="pc9f6063437">
   <rect x="286.949704" y="3.6" width="93.978947" height="91.368421"/>
  </clipPath>
 </defs>
</svg>
