<?xml version="1.0" encoding="utf-8" standalone="no"?>
<!DOCTYPE svg PUBLIC "-//W3C//DTD SVG 1.1//EN"
  "http://www.w3.org/Graphics/SVG/1.1/DTD/svg11.dtd">
<svg xmlns:xlink="http://www.w3.org/1999/xlink" width="364.32pt" height="157.053465pt" viewBox="0 0 364.32 157.053465" xmlns="http://www.w3.org/2000/svg" version="1.1">
<style>:root { --axis-color:#000; --grid-stroke:rgba(0,0,0,0.2); --plot3d-stroke:rgba(0,0,0,0.3); --plot3d-grid:rgba(0,0,0,0.2); }
@media (prefers-color-scheme:dark) { :root { --axis-color:#fff; --grid-stroke:rgba(255,255,255,0.2); --plot3d-stroke:rgba(255,255,255,0.3); --plot3d-grid:rgba(255,255,255,0.2); } }
.black{fill:#000000;stroke:#000000;}:root{--black:#000000;}.c1{fill:#FF0001;stroke:#FF0001;}:root{--c1:#FF0001;}.c2{fill:#00FF02;stroke:#00FF02;}:root{--c2:#00FF02;}.c3{fill:#0000FF;stroke:#0000FF;}:root{--c3:#0000FF;}.c4{fill:#FF00FF;stroke:#FF00FF;}:root{--c4:#FF00FF;}.c5{fill:#00FFFF;stroke:#00FFFF;}:root{--c5:#00FFFF;}.c6{fill:#FFFF00;stroke:#FFFF00;}:root{--c6:#FFFF00;}.c7{fill:#FF8000;stroke:#FF8000;}:root{--c7:#FF8000;}.c8{fill:#8000FF;stroke:#8000FF;}:root{--c8:#8000FF;}.gray{fill:#7f7f7f;stroke:#7f7f7f;}:root{--gray:#7f7f7f;}.grey{fill:#7f7f7f;stroke:#7f7f7f;}:root{--grey:#7f7f7f;}.octonary{fill:#bcbd22;stroke:#bcbd22;}:root{--octonary:#bcbd22;}.primary{fill:#d62728;stroke:#d62728;}:root{--primary:#d62728;}.quaternary{fill:#9467bd;stroke:#9467bd;}:root{--quaternary:#9467bd;}.quinary{fill:#8c564b;stroke:#8c564b;}:root{--quinary:#8c564b;}.secondary{fill:#2ca02c;stroke:#2ca02c;}:root{--secondary:#2ca02c;}.senary{fill:#e377c2;stroke:#e377c2;}:root{--senary:#e377c2;}.septenary{fill:#7f7f7f;stroke:#7f7f7f;}:root{--septenary:#7f7f7f;}.tertiary{fill:#1f77b4;stroke:#1f77b4;}:root{--tertiary:#1f77b4;}.white{fill:#ffffff;stroke:#ffffff;}:root{--white:#ffffff;}
@media (prefers-color-scheme:dark) { .black{fill:#FFFFFF;stroke:#FFFFFF;}:root{--black:#FFFFFF;}.c1{fill:#FF0001;stroke:#FF0001;}:root{--c1:#FF0001;}.c2{fill:#00FF02;stroke:#00FF02;}:root{--c2:#00FF02;}.c3{fill:#0000FF;stroke:#0000FF;}:root{--c3:#0000FF;}.c4{fill:#FF00FF;stroke:#FF00FF;}:root{--c4:#FF00FF;}.c5{fill:#00FFFF;stroke:#00FFFF;}:root{--c5:#00FFFF;}.c6{fill:#FFFF00;stroke:#FFFF00;}:root{--c6:#FFFF00;}.c7{fill:#FF8000;stroke:#FF8000;}:root{--c7:#FF8000;}.c8{fill:#8000FF;stroke:#8000FF;}:root{--c8:#8000FF;}.gray{fill:#CCCCCC;stroke:#CCCCCC;}:root{--gray:#CCCCCC;}.grey{fill:#CCCCCC;stroke:#CCCCCC;}:root{--grey:#CCCCCC;}.octonary{fill:#E6DB74;stroke:#E6DB74;}:root{--octonary:#E6DB74;}.primary{fill:#FF4A98;stroke:#FF4A98;}:root{--primary:#FF4A98;}.quaternary{fill:#B4A0FF;stroke:#B4A0FF;}:root{--quaternary:#B4A0FF;}.quinary{fill:#FFB86B;stroke:#FFB86B;}:root{--quinary:#FFB86B;}.secondary{fill:#0AFAFA;stroke:#0AFAFA;}:root{--secondary:#0AFAFA;}.senary{fill:#FF79C6;stroke:#FF79C6;}:root{--senary:#FF79C6;}.septenary{fill:#CCCCCC;stroke:#CCCCCC;}:root{--septenary:#CCCCCC;}.tertiary{fill:#7F83FF;stroke:#7F83FF;}:root{--tertiary:#7F83FF;}.white{fill:#000000;stroke:#000000;}:root{--white:#000000;} }
text,.text { fill:var(--axis-color)!important; stroke:none!important; }
.axis line,.axis path,.tick line,.tick path,path.domain,line.grid { stroke:var(--axis-color)!important; }
.legend text { fill:var(--axis-color)!important; }
.patch path[style*="stroke: currentColor"] { stroke:var(--axis-color)!important; }
g.legend>g:first-child>path:first-child { fill:rgba(255,255,255,0.8)!important; stroke:rgba(0,0,0,0.1)!important; }
@media (prefers-color-scheme:dark) { g.legend>g:first-child>path:first-child { fill:rgba(26,26,26,0.8)!important; stroke:rgba(255,255,255,0.1)!important; } }
.plot3d path,.plot3d polygon { stroke:var(--plot3d-stroke)!important; }
.plot3d-grid line { stroke:var(--plot3d-grid)!important; }
.plot3d-surface path[style*="fill:"] { fill-opacity:0.9!important; }
@media (prefers-color-scheme:dark) { .plot3d-surface path[style*="fill:"] { fill-opacity:0.95!important; filter:saturate(1.2)!important; } }</style>

 <metadata>
  <rdf:RDF xmlns:dc="http://purl.org/dc/elements/1.1/" xmlns:cc="http://creativecommons.org/ns#" xmlns:rdf="http://www.w3.org/1999/02/22-rdf-syntax-ns#">
   <cc:Work>
    <dc:type rdf:resource="http://purl.org/dc/dcmitype/StillImage"/>
    <dc:date>2026-01-03T22:32:02.982256</dc:date>
    <dc:format>image/svg+xml</dc:format>
    <dc:creator>
     <cc:Agent>
      <dc:title>Matplotlib v3.10.0, https://matplotlib.org/</dc:title>
     </cc:Agent>
    </dc:creator>
   </cc:Work>
  </rdf:RDF>
 </metadata>
 <defs>
  <style type="text/css">*{stroke-linejoin: round; stroke-linecap: butt}</style>
 </defs>
 <g id="figure_1">
  <g class="patch">
   <path d="M 0 157.053465 
L 364.32 157.053465 
L 364.32 0 
L 0 0 
L 0 157.053465 
z
" style="fill: none"/>
  </g>
  <g id="axes_1">
   <g class="patch">
    <path d="M 3.6 153.453465 
L 158.869565 153.453465 
L 158.869565 29.237813 
L 3.6 29.237813 
L 3.6 153.453465 
z
" style="fill: none"/>
   </g>
   <g class="axis"/>
   <g class="axis"/>
   <g class="patch">
    <path d="M 88.468392 118.341838 
C 100.400852 115.144545 111.084016 109.233284 118.165043 101.909943 
C 125.246069 94.586602 128.146823 86.449098 126.228448 79.289622 
C 124.310072 72.130147 117.729193 66.533239 107.935174 63.731552 
C 98.141154 60.929866 85.933632 61.152147 74.001173 64.34944 
C 62.068713 67.546732 51.385549 73.457993 44.304523 80.781334 
C 37.223496 88.104675 34.322742 96.242179 36.241118 103.401655 
C 38.159493 110.56113 44.740372 116.158038 54.534392 118.959725 
C 64.328411 121.761411 76.535933 121.53913 88.468392 118.341838 
z
" clip-path="url(#pd83213a516)" style="fill: #8000ff; stroke: #8000ff; stroke-width: 2; stroke-linejoin: miter"/>
   </g>
   <g id="text_1" class="text">
    <!-- $x_1$ -->
    <g transform="translate(44.24087 103.767204) scale(0.12 -0.12)">
     <defs>
      <path id="Cmmi10-78" d="M 500 184 
Q 613 97 819 97 
Q 1019 97 1172 289 
Q 1325 481 1381 709 
L 1672 1844 
Q 1741 2153 1741 2266 
Q 1741 2425 1652 2544 
Q 1563 2663 1403 2663 
Q 1200 2663 1022 2536 
Q 844 2409 722 2214 
Q 600 2019 550 1819 
Q 538 1778 500 1778 
L 422 1778 
Q 372 1778 372 1838 
L 372 1856 
Q 434 2094 584 2320 
Q 734 2547 951 2687 
Q 1169 2828 1416 2828 
Q 1650 2828 1839 2703 
Q 2028 2578 2106 2363 
Q 2216 2559 2386 2693 
Q 2556 2828 2759 2828 
Q 2897 2828 3040 2779 
Q 3184 2731 3275 2631 
Q 3366 2531 3366 2381 
Q 3366 2219 3261 2101 
Q 3156 1984 2994 1984 
Q 2891 1984 2822 2050 
Q 2753 2116 2753 2216 
Q 2753 2350 2845 2451 
Q 2938 2553 3066 2572 
Q 2950 2663 2747 2663 
Q 2541 2663 2389 2472 
Q 2238 2281 2175 2047 
L 1894 916 
Q 1825 659 1825 494 
Q 1825 331 1917 214 
Q 2009 97 2163 97 
Q 2463 97 2698 361 
Q 2934 625 3009 941 
Q 3022 978 3059 978 
L 3138 978 
Q 3163 978 3178 961 
Q 3194 944 3194 922 
Q 3194 916 3188 903 
Q 3097 522 2806 225 
Q 2516 -72 2150 -72 
Q 1916 -72 1727 54 
Q 1538 181 1459 397 
Q 1359 209 1182 68 
Q 1006 -72 806 -72 
Q 669 -72 523 -23 
Q 378 25 287 125 
Q 197 225 197 378 
Q 197 528 301 651 
Q 406 775 563 775 
Q 669 775 741 711 
Q 813 647 813 544 
Q 813 409 723 309 
Q 634 209 500 184 
z
" transform="scale(0.015625)"/>
      <path id="Cmr10-31" d="M 594 0 
L 594 225 
Q 1394 225 1394 428 
L 1394 3788 
Q 1063 3628 556 3628 
L 556 3853 
Q 1341 3853 1741 4263 
L 1831 4263 
Q 1853 4263 1873 4245 
Q 1894 4228 1894 4206 
L 1894 428 
Q 1894 225 2694 225 
L 2694 0 
L 594 0 
z
" transform="scale(0.015625)"/>
     </defs>
     <use xlink:href="#Cmmi10-78" transform="translate(0 0.8125)"/>
     <use xlink:href="#Cmr10-31" transform="translate(57.080078 -16.19375) scale(0.7)"/>
    </g>
   </g>
   <g id="text_2" class="text">
    <!-- $x_2$ -->
    <g transform="translate(100.137913 78.924073) scale(0.12 -0.12)">
     <defs>
      <path id="Cmr10-32" d="M 319 0 
L 319 172 
Q 319 188 331 206 
L 1325 1306 
Q 1550 1550 1690 1715 
Q 1831 1881 1968 2097 
Q 2106 2313 2186 2536 
Q 2266 2759 2266 3009 
Q 2266 3272 2169 3511 
Q 2072 3750 1880 3894 
Q 1688 4038 1416 4038 
Q 1138 4038 916 3870 
Q 694 3703 603 3438 
Q 628 3444 672 3444 
Q 816 3444 917 3347 
Q 1019 3250 1019 3097 
Q 1019 2950 917 2848 
Q 816 2747 672 2747 
Q 522 2747 420 2851 
Q 319 2956 319 3097 
Q 319 3338 409 3548 
Q 500 3759 670 3923 
Q 841 4088 1055 4175 
Q 1269 4263 1509 4263 
Q 1875 4263 2190 4108 
Q 2506 3953 2690 3670 
Q 2875 3388 2875 3009 
Q 2875 2731 2753 2481 
Q 2631 2231 2440 2026 
Q 2250 1822 1953 1562 
Q 1656 1303 1563 1216 
L 838 519 
L 1453 519 
Q 1906 519 2211 526 
Q 2516 534 2534 550 
Q 2609 631 2688 1141 
L 2875 1141 
L 2694 0 
L 319 0 
z
" transform="scale(0.015625)"/>
     </defs>
     <use xlink:href="#Cmmi10-78" transform="translate(0 0.8125)"/>
     <use xlink:href="#Cmr10-32" transform="translate(57.080078 -16.19375) scale(0.7)"/>
    </g>
   </g>
   <g id="text_3" class="text">
    <!-- Convex Set -->
    <g transform="translate(38.030564 14.237813) scale(0.14 -0.14)">
     <defs>
      <path id="DejaVuSerif-Bold-43" d="M 4769 1331 
Q 4584 609 4106 259 
Q 3628 -91 2822 -91 
Q 1641 -91 955 561 
Q 269 1213 269 2328 
Q 269 3447 955 4098 
Q 1641 4750 2822 4750 
Q 3238 4750 3688 4650 
Q 4138 4550 4641 4347 
L 4641 3200 
L 4244 3200 
Q 4122 3788 3800 4080 
Q 3478 4372 2950 4372 
Q 2269 4372 1937 3870 
Q 1606 3369 1606 2328 
Q 1606 1288 1937 788 
Q 2269 288 2956 288 
Q 3422 288 3717 547 
Q 4013 806 4147 1331 
L 4769 1331 
z
" transform="scale(0.015625)"/>
      <path id="DejaVuSerif-Bold-6f" d="M 2138 263 
Q 2488 263 2630 563 
Q 2772 863 2772 1663 
Q 2772 2463 2631 2761 
Q 2491 3059 2138 3059 
Q 1784 3059 1640 2757 
Q 1497 2456 1497 1663 
Q 1497 869 1640 566 
Q 1784 263 2138 263 
z
M 2138 -91 
Q 1259 -91 761 376 
Q 263 844 263 1663 
Q 263 2484 761 2948 
Q 1259 3413 2138 3413 
Q 3019 3413 3516 2948 
Q 4013 2484 4013 1663 
Q 4013 844 3514 376 
Q 3016 -91 2138 -91 
z
" transform="scale(0.015625)"/>
      <path id="DejaVuSerif-Bold-6e" d="M 219 0 
L 219 378 
L 691 378 
L 691 2944 
L 219 2944 
L 219 3322 
L 1797 3322 
L 1797 2853 
Q 1997 3150 2253 3281 
Q 2509 3413 2900 3413 
Q 3459 3413 3745 3083 
Q 4031 2753 4031 2113 
L 4031 378 
L 4506 378 
L 4506 0 
L 2522 0 
L 2522 378 
L 2925 378 
L 2925 2144 
Q 2925 2566 2817 2730 
Q 2709 2894 2444 2894 
Q 2109 2894 1953 2648 
Q 1797 2403 1797 1869 
L 1797 378 
L 2203 378 
L 2203 0 
L 219 0 
z
" transform="scale(0.015625)"/>
      <path id="DejaVuSerif-Bold-76" d="M 1428 0 
L 250 2944 
L -116 2944 
L -116 3322 
L 1791 3322 
L 1791 2944 
L 1388 2944 
L 2228 844 
L 3066 2944 
L 2631 2944 
L 2631 3322 
L 3878 3322 
L 3878 2944 
L 3494 2944 
L 2316 0 
L 1428 0 
z
" transform="scale(0.015625)"/>
      <path id="DejaVuSerif-Bold-65" d="M 2566 1875 
Q 2566 2531 2444 2795 
Q 2322 3059 2028 3059 
Q 1744 3059 1620 2800 
Q 1497 2541 1497 1931 
L 1497 1875 
L 2566 1875 
z
M 3781 1503 
L 1497 1503 
L 1497 1478 
Q 1497 834 1690 548 
Q 1884 263 2316 263 
Q 2675 263 2897 453 
Q 3119 644 3181 1006 
L 3700 1006 
Q 3566 441 3166 175 
Q 2766 -91 2047 -91 
Q 1184 -91 723 364 
Q 263 819 263 1663 
Q 263 2488 734 2950 
Q 1206 3413 2047 3413 
Q 2872 3413 3312 2927 
Q 3753 2441 3781 1503 
z
" transform="scale(0.015625)"/>
      <path id="DejaVuSerif-Bold-78" d="M 2247 2119 
L 2834 2944 
L 2425 2944 
L 2425 3322 
L 3719 3322 
L 3719 2944 
L 3278 2944 
L 2431 1759 
L 3419 378 
L 3859 378 
L 3859 0 
L 1747 0 
L 1747 378 
L 2175 378 
L 1550 1253 
L 922 378 
L 1369 378 
L 1369 0 
L 0 0 
L 0 378 
L 475 378 
L 1356 1619 
L 403 2944 
L 31 2944 
L 31 3322 
L 2059 3322 
L 2059 2944 
L 1656 2944 
L 2247 2119 
z
" transform="scale(0.015625)"/>
      <path id="DejaVuSerif-Bold-20" transform="scale(0.015625)"/>
      <path id="DejaVuSerif-Bold-53" d="M 494 225 
L 494 1331 
L 891 1331 
Q 981 806 1318 547 
Q 1656 288 2253 288 
Q 2738 288 2991 472 
Q 3244 656 3244 1013 
Q 3244 1294 3072 1450 
Q 2900 1606 2363 1741 
L 1663 1913 
Q 978 2088 700 2398 
Q 422 2709 422 3284 
Q 422 3978 883 4364 
Q 1344 4750 2175 4750 
Q 2584 4750 3026 4681 
Q 3469 4613 3944 4475 
L 3944 3444 
L 3547 3444 
Q 3456 3925 3150 4148 
Q 2844 4372 2278 4372 
Q 1816 4372 1580 4211 
Q 1344 4050 1344 3731 
Q 1344 3441 1506 3289 
Q 1669 3138 2303 2975 
L 3003 2803 
Q 3653 2641 3945 2297 
Q 4238 1953 4238 1350 
Q 4238 644 3750 276 
Q 3263 -91 2316 -91 
Q 1859 -91 1409 -12 
Q 959 66 494 225 
z
" transform="scale(0.015625)"/>
      <path id="DejaVuSerif-Bold-74" d="M 634 2944 
L 153 2944 
L 153 3322 
L 634 3322 
L 634 4353 
L 1741 4353 
L 1741 3322 
L 2663 3322 
L 2663 2944 
L 1741 2944 
L 1741 909 
Q 1741 475 1809 369 
Q 1878 263 2059 263 
Q 2259 263 2356 397 
Q 2453 531 2459 813 
L 2925 813 
Q 2897 313 2651 111 
Q 2406 -91 1806 -91 
Q 1122 -91 878 123 
Q 634 338 634 909 
L 634 2944 
z
" transform="scale(0.015625)"/>
     </defs>
     <use xlink:href="#DejaVuSerif-Bold-43"/>
     <use xlink:href="#DejaVuSerif-Bold-6f" transform="translate(79.589844 0)"/>
     <use xlink:href="#DejaVuSerif-Bold-6e" transform="translate(146.289062 0)"/>
     <use xlink:href="#DejaVuSerif-Bold-76" transform="translate(218.994141 0)"/>
     <use xlink:href="#DejaVuSerif-Bold-65" transform="translate(277.099609 0)"/>
     <use xlink:href="#DejaVuSerif-Bold-78" transform="translate(340.722656 0)"/>
     <use xlink:href="#DejaVuSerif-Bold-20" transform="translate(400.341797 0)"/>
     <use xlink:href="#DejaVuSerif-Bold-53" transform="translate(435.15625 0)"/>
     <use xlink:href="#DejaVuSerif-Bold-65" transform="translate(507.373047 0)"/>
     <use xlink:href="#DejaVuSerif-Bold-74" transform="translate(570.996094 0)"/>
    </g>
   </g>
   <g id="line2d_1">
    <path d="M 56.391652 97.556421 
L 99.86713 82.029465 
" clip-path="url(#pd83213a516)" style="fill: none; stroke:var(--black); stroke-width: 2; stroke-linecap: square"/>
   </g>
   <g id="PathCollection_1">
    <defs>
     <path id="ma4baec8e32" d="M 0 2.236068 
C 0.593012 2.236068 1.161816 2.000462 1.581139 1.581139 
C 2.000462 1.161816 2.236068 0.593012 2.236068 0 
C 2.236068 -0.593012 2.000462 -1.161816 1.581139 -1.581139 
C 1.161816 -2.000462 0.593012 -2.236068 0 -2.236068 
C -0.593012 -2.236068 -1.161816 -2.000462 -1.581139 -1.581139 
C -2.000462 -1.161816 -2.236068 -0.593012 -2.236068 0 
C -2.236068 0.593012 -2.000462 1.161816 -1.581139 1.581139 
C -1.161816 2.000462 -0.593012 2.236068 0 2.236068 
z
" style="stroke:var(--black); stroke-opacity: 0.9"/>
    </defs>
    <g clip-path="url(#pd83213a516)">
     <use xlink:href="#ma4baec8e32" x="56.391652" y="97.556421" style="fill-opacity: 0.9; stroke:var(--black); stroke-opacity: 0.9"/>
    </g>
   </g>
   <g id="PathCollection_2">
    <g clip-path="url(#pd83213a516)">
     <use xlink:href="#ma4baec8e32" x="99.86713" y="82.029465" style="fill-opacity: 0.9; stroke:var(--black); stroke-opacity: 0.9"/>
    </g>
   </g>
  </g>
  <g id="axes_2">
   <g class="patch">
    <path d="M 205.450435 153.453465 
L 360.72 153.453465 
L 360.72 29.237813 
L 205.450435 29.237813 
L 205.450435 153.453465 
z
" style="fill: none"/>
   </g>
   <g class="axis"/>
   <g class="axis"/>
   <g class="patch">
    <path d="M 253.230844 113.647521 
L 254.701189 115.491124 
L 256.285195 117.238038 
L 257.97652 118.881267 
L 259.768391 120.414232 
L 261.653633 121.830794 
L 263.624696 123.12528 
L 265.673687 124.292507 
L 267.792401 125.3278 
L 269.972355 126.227014 
L 272.204818 126.986548 
L 274.480851 127.603361 
L 276.79134 128.074982 
L 279.127032 128.399522 
L 281.478574 128.575683 
L 283.83655 128.602759 
L 286.191517 128.480642 
L 288.534046 128.209819 
L 290.854755 127.791377 
L 293.144351 127.22699 
L 295.393666 126.518919 
L 297.593693 125.669998 
L 299.735622 124.683629 
L 301.810875 123.563759 
L 303.811142 122.314874 
L 305.728415 120.941976 
L 307.555014 119.45056 
L 309.283625 117.846601 
L 310.907327 116.13652 
L 312.419616 114.327165 
L 313.814439 112.425783 
L 315.086208 110.439987 
L 316.229832 108.377729 
L 317.24073 106.247267 
L 318.114855 104.057132 
L 318.848706 101.816095 
L 319.439344 99.53313 
L 319.884405 97.217379 
L 320.182106 94.878114 
L 320.331255 92.524704 
L 320.331255 90.166573 
L 320.182106 87.813163 
L 319.884405 85.473899 
L 319.439344 83.158147 
L 318.848706 80.875182 
L 318.114855 78.634145 
L 317.24073 76.444011 
L 316.229832 74.313548 
L 315.086208 72.25129 
L 313.814439 70.265494 
L 312.419616 68.364112 
L 310.907327 66.554758 
L 309.283625 64.844677 
L 307.555014 63.240717 
L 305.728415 61.749302 
L 303.811142 60.376403 
L 301.810875 59.127518 
L 299.735622 58.007648 
L 297.593693 57.021279 
L 295.393666 56.172358 
L 293.144351 55.464287 
L 290.854755 54.8999 
L 288.534046 54.481458 
L 286.191517 54.210636 
L 283.83655 54.088518 
L 281.478574 54.115594 
L 279.127032 54.291755 
L 276.79134 54.616295 
L 274.480851 55.087916 
L 272.204818 55.704729 
L 269.972355 56.464263 
L 267.792401 57.363477 
L 265.673687 58.39877 
L 263.624696 59.565997 
L 261.653633 60.860483 
L 259.768391 62.277045 
L 257.97652 63.81001 
L 256.285195 65.453239 
L 254.701189 67.200153 
L 253.230844 69.043756 
L 265.670166 78.336207 
L 265.670166 78.336207 
L 266.527867 77.260772 
L 267.451871 76.241739 
L 268.438477 75.283189 
L 269.483735 74.388959 
L 270.58346 73.562631 
L 271.733246 72.807514 
L 272.928491 72.126632 
L 274.164408 71.522711 
L 275.436048 70.998169 
L 276.738318 70.555108 
L 278.066004 70.195301 
L 279.413789 69.920188 
L 280.776276 69.730873 
L 282.148009 69.628112 
L 283.523495 69.612318 
L 284.897226 69.683554 
L 286.263701 69.841533 
L 287.617447 70.085625 
L 288.953045 70.41485 
L 290.265146 70.827892 
L 291.548495 71.323095 
L 292.797953 71.898478 
L 294.008518 72.551735 
L 295.17534 73.280251 
L 296.293749 74.081109 
L 297.359265 74.951101 
L 298.367622 75.886744 
L 299.314781 76.884291 
L 300.19695 77.939748 
L 301.010597 79.048888 
L 301.752462 80.207269 
L 302.419576 81.410253 
L 303.009266 82.653022 
L 303.519172 83.930601 
L 303.947252 85.237872 
L 304.291791 86.569602 
L 304.55141 87.920457 
L 304.725069 89.285028 
L 304.812073 90.65785 
L 304.812073 92.033427 
L 304.725069 93.406249 
L 304.55141 94.77082 
L 304.291791 96.121675 
L 303.947252 97.453405 
L 303.519172 98.760676 
L 303.009266 100.038255 
L 302.419576 101.281024 
L 301.752462 102.484008 
L 301.010597 103.64239 
L 300.19695 104.751529 
L 299.314781 105.806986 
L 298.367622 106.804533 
L 297.359265 107.740176 
L 296.293749 108.610169 
L 295.17534 109.411026 
L 294.008518 110.139542 
L 292.797953 110.792799 
L 291.548495 111.368182 
L 290.265146 111.863385 
L 288.953045 112.276427 
L 287.617447 112.605653 
L 286.263701 112.849744 
L 284.897226 113.007724 
L 283.523495 113.078959 
L 282.148009 113.063165 
L 280.776276 112.960404 
L 279.413789 112.771089 
L 278.066004 112.495977 
L 276.738318 112.136169 
L 275.436048 111.693108 
L 274.164408 111.168566 
L 272.928491 110.564645 
L 271.733246 109.883763 
L 270.58346 109.128646 
L 269.483735 108.302318 
L 268.438477 107.408089 
L 267.451871 106.449538 
L 266.527867 105.430505 
L 265.670166 104.35507 
z
" clip-path="url(#pd4c381feca)" style="fill: #8000ff; stroke: #8000ff; stroke-width: 2; stroke-linejoin: miter"/>
   </g>
   <g id="text_4" class="text">
    <!-- $x_1$ -->
    <g transform="translate(255.407478 63.397117) scale(0.12 -0.12)">
     <use xlink:href="#Cmmi10-78" transform="translate(0 0.8125)"/>
     <use xlink:href="#Cmr10-31" transform="translate(57.080078 -16.19375) scale(0.7)"/>
    </g>
   </g>
   <g id="text_5" class="text">
    <!-- $x_2$ -->
    <g transform="translate(255.407478 119.29416) scale(0.12 -0.12)">
     <use xlink:href="#Cmmi10-78" transform="translate(0 0.8125)"/>
     <use xlink:href="#Cmr10-32" transform="translate(57.080078 -16.19375) scale(0.7)"/>
    </g>
   </g>
   <g id="text_6" class="text">
    <!-- Non-convex Set -->
    <g transform="translate(222.128342 14.237813) scale(0.14 -0.14)">
     <defs>
      <path id="DejaVuSerif-Bold-4e" d="M 281 0 
L 281 378 
L 878 378 
L 878 4288 
L 281 4288 
L 281 4666 
L 1741 4666 
L 4556 1363 
L 4556 4288 
L 3963 4288 
L 3963 4666 
L 5594 4666 
L 5594 4288 
L 4997 4288 
L 4997 0 
L 4178 0 
L 1319 3372 
L 1319 378 
L 1913 378 
L 1913 0 
L 281 0 
z
" transform="scale(0.015625)"/>
      <path id="DejaVuSerif-Bold-2d" d="M 347 2138 
L 2309 2138 
L 2309 1294 
L 347 1294 
L 347 2138 
z
" transform="scale(0.015625)"/>
      <path id="DejaVuSerif-Bold-63" d="M 3609 1038 
Q 3491 469 3123 189 
Q 2756 -91 2125 -91 
Q 1238 -91 750 368 
Q 263 828 263 1663 
Q 263 2488 744 2950 
Q 1225 3413 2081 3413 
Q 2428 3413 2781 3347 
Q 3134 3281 3500 3150 
L 3500 2228 
L 3150 2228 
Q 3100 2650 2903 2854 
Q 2706 3059 2350 3059 
Q 1888 3059 1692 2746 
Q 1497 2434 1497 1663 
Q 1497 909 1687 586 
Q 1878 263 2309 263 
Q 2644 263 2845 463 
Q 3047 663 3091 1038 
L 3609 1038 
z
" transform="scale(0.015625)"/>
     </defs>
     <use xlink:href="#DejaVuSerif-Bold-4e"/>
     <use xlink:href="#DejaVuSerif-Bold-6f" transform="translate(91.40625 0)"/>
     <use xlink:href="#DejaVuSerif-Bold-6e" transform="translate(158.105469 0)"/>
     <use xlink:href="#DejaVuSerif-Bold-2d" transform="translate(230.810547 0)"/>
     <use xlink:href="#DejaVuSerif-Bold-63" transform="translate(272.314453 0)"/>
     <use xlink:href="#DejaVuSerif-Bold-6f" transform="translate(333.203125 0)"/>
     <use xlink:href="#DejaVuSerif-Bold-6e" transform="translate(399.902344 0)"/>
     <use xlink:href="#DejaVuSerif-Bold-76" transform="translate(472.607422 0)"/>
     <use xlink:href="#DejaVuSerif-Bold-65" transform="translate(530.712891 0)"/>
     <use xlink:href="#DejaVuSerif-Bold-78" transform="translate(594.335938 0)"/>
     <use xlink:href="#DejaVuSerif-Bold-20" transform="translate(653.955078 0)"/>
     <use xlink:href="#DejaVuSerif-Bold-53" transform="translate(688.769531 0)"/>
     <use xlink:href="#DejaVuSerif-Bold-65" transform="translate(760.986328 0)"/>
     <use xlink:href="#DejaVuSerif-Bold-74" transform="translate(824.609375 0)"/>
    </g>
   </g>
   <g id="line2d_2">
    <path d="M 267.558261 69.607899 
L 267.558261 113.083378 
" clip-path="url(#pd4c381feca)" style="fill: none; stroke-dasharray: 11.1,4.8; stroke-dashoffset: 0; stroke:var(--black); stroke-opacity: 0.8; stroke-width: 3"/>
   </g>
   <g id="PathCollection_3">
    <g clip-path="url(#pd4c381feca)">
     <use xlink:href="#ma4baec8e32" x="267.558261" y="69.607899" style="fill-opacity: 0.9; stroke:var(--black); stroke-opacity: 0.9"/>
    </g>
   </g>
   <g id="PathCollection_4">
    <g clip-path="url(#pd4c381feca)">
     <use xlink:href="#ma4baec8e32" x="267.558261" y="113.083378" style="fill-opacity: 0.9; stroke:var(--black); stroke-opacity: 0.9"/>
    </g>
   </g>
  </g>
 </g>
 <defs>
  <clipPath id="pd83213a516">
   <rect x="3.6" y="29.237813" width="155.269565" height="124.215652"/>
  </clipPath>
  <clipPath id="pd4c381feca">
   <rect x="205.450435" y="29.237813" width="155.269565" height="124.215652"/>
  </clipPath>
 </defs>
</svg>
