<?xml version="1.0" encoding="utf-8" standalone="no"?>
<!DOCTYPE svg PUBLIC "-//W3C//DTD SVG 1.1//EN"
  "http://www.w3.org/Graphics/SVG/1.1/DTD/svg11.dtd">
<svg xmlns:xlink="http://www.w3.org/1999/xlink" width="400.201719pt" height="304.636062pt" viewBox="0 0 400.201719 304.636062" xmlns="http://www.w3.org/2000/svg" version="1.1">
<style>:root { --axis-color:#000; --grid-stroke:rgba(0,0,0,0.2); --plot3d-stroke:rgba(0,0,0,0.3); --plot3d-grid:rgba(0,0,0,0.2); }
@media (prefers-color-scheme:dark) { :root { --axis-color:#fff; --grid-stroke:rgba(255,255,255,0.2); --plot3d-stroke:rgba(255,255,255,0.3); --plot3d-grid:rgba(255,255,255,0.2); } }
.black{fill:#000000;stroke:#000000;}:root{--black:#000000;}.c1{fill:#FF0001;stroke:#FF0001;}:root{--c1:#FF0001;}.c2{fill:#00FF02;stroke:#00FF02;}:root{--c2:#00FF02;}.c3{fill:#0000FF;stroke:#0000FF;}:root{--c3:#0000FF;}.c4{fill:#FF00FF;stroke:#FF00FF;}:root{--c4:#FF00FF;}.c5{fill:#00FFFF;stroke:#00FFFF;}:root{--c5:#00FFFF;}.c6{fill:#FFFF00;stroke:#FFFF00;}:root{--c6:#FFFF00;}.c7{fill:#FF8000;stroke:#FF8000;}:root{--c7:#FF8000;}.c8{fill:#8000FF;stroke:#8000FF;}:root{--c8:#8000FF;}.gray{fill:#7f7f7f;stroke:#7f7f7f;}:root{--gray:#7f7f7f;}.grey{fill:#7f7f7f;stroke:#7f7f7f;}:root{--grey:#7f7f7f;}.octonary{fill:#bcbd22;stroke:#bcbd22;}:root{--octonary:#bcbd22;}.primary{fill:#d62728;stroke:#d62728;}:root{--primary:#d62728;}.quaternary{fill:#9467bd;stroke:#9467bd;}:root{--quaternary:#9467bd;}.quinary{fill:#8c564b;stroke:#8c564b;}:root{--quinary:#8c564b;}.secondary{fill:#2ca02c;stroke:#2ca02c;}:root{--secondary:#2ca02c;}.senary{fill:#e377c2;stroke:#e377c2;}:root{--senary:#e377c2;}.septenary{fill:#7f7f7f;stroke:#7f7f7f;}:root{--septenary:#7f7f7f;}.tertiary{fill:#1f77b4;stroke:#1f77b4;}:root{--tertiary:#1f77b4;}.white{fill:#ffffff;stroke:#ffffff;}:root{--white:#ffffff;}
@media (prefers-color-scheme:dark) { .black{fill:#FFFFFF;stroke:#FFFFFF;}:root{--black:#FFFFFF;}.c1{fill:#FF0001;stroke:#FF0001;}:root{--c1:#FF0001;}.c2{fill:#00FF02;stroke:#00FF02;}:root{--c2:#00FF02;}.c3{fill:#0000FF;stroke:#0000FF;}:root{--c3:#0000FF;}.c4{fill:#FF00FF;stroke:#FF00FF;}:root{--c4:#FF00FF;}.c5{fill:#00FFFF;stroke:#00FFFF;}:root{--c5:#00FFFF;}.c6{fill:#FFFF00;stroke:#FFFF00;}:root{--c6:#FFFF00;}.c7{fill:#FF8000;stroke:#FF8000;}:root{--c7:#FF8000;}.c8{fill:#8000FF;stroke:#8000FF;}:root{--c8:#8000FF;}.gray{fill:#CCCCCC;stroke:#CCCCCC;}:root{--gray:#CCCCCC;}.grey{fill:#CCCCCC;stroke:#CCCCCC;}:root{--grey:#CCCCCC;}.octonary{fill:#E6DB74;stroke:#E6DB74;}:root{--octonary:#E6DB74;}.primary{fill:#FF4A98;stroke:#FF4A98;}:root{--primary:#FF4A98;}.quaternary{fill:#B4A0FF;stroke:#B4A0FF;}:root{--quaternary:#B4A0FF;}.quinary{fill:#FFB86B;stroke:#FFB86B;}:root{--quinary:#FFB86B;}.secondary{fill:#0AFAFA;stroke:#0AFAFA;}:root{--secondary:#0AFAFA;}.senary{fill:#FF79C6;stroke:#FF79C6;}:root{--senary:#FF79C6;}.septenary{fill:#CCCCCC;stroke:#CCCCCC;}:root{--septenary:#CCCCCC;}.tertiary{fill:#7F83FF;stroke:#7F83FF;}:root{--tertiary:#7F83FF;}.white{fill:#000000;stroke:#000000;}:root{--white:#000000;} }
text,.text { fill:var(--axis-color)!important; stroke:none!important; }
.axis line,.axis path,.tick line,.tick path,path.domain,line.grid { stroke:var(--axis-color)!important; }
.legend text { fill:var(--axis-color)!important; }
.patch path[style*="stroke: currentColor"] { stroke:var(--axis-color)!important; }
g.legend>g:first-child>path:first-child { fill:rgba(255,255,255,0.8)!important; stroke:rgba(0,0,0,0.1)!important; }
@media (prefers-color-scheme:dark) { g.legend>g:first-child>path:first-child { fill:rgba(26,26,26,0.8)!important; stroke:rgba(255,255,255,0.1)!important; } }
.plot3d path,.plot3d polygon { stroke:var(--plot3d-stroke)!important; }
.plot3d-grid line { stroke:var(--plot3d-grid)!important; }
.plot3d-surface path[style*="fill:"] { fill-opacity:0.9!important; }
@media (prefers-color-scheme:dark) { .plot3d-surface path[style*="fill:"] { fill-opacity:0.95!important; filter:saturate(1.2)!important; } }</style>

 <metadata>
  <rdf:RDF xmlns:dc="http://purl.org/dc/elements/1.1/" xmlns:cc="http://creativecommons.org/ns#" xmlns:rdf="http://www.w3.org/1999/02/22-rdf-syntax-ns#">
   <cc:Work>
    <dc:type rdf:resource="http://purl.org/dc/dcmitype/StillImage"/>
    <dc:date>2026-01-03T22:32:04.653362</dc:date>
    <dc:format>image/svg+xml</dc:format>
    <dc:creator>
     <cc:Agent>
      <dc:title>Matplotlib v3.10.0, https://matplotlib.org/</dc:title>
     </cc:Agent>
    </dc:creator>
   </cc:Work>
  </rdf:RDF>
 </metadata>
 <defs>
  <style type="text/css">*{stroke-linejoin: round; stroke-linecap: butt}</style>
 </defs>
 <g id="figure_1">
  <g class="patch">
   <path d="M 0 304.636062 
L 400.201719 304.636062 
L 400.201719 0 
L 0 0 
L 0 304.636062 
z
" style="fill: none"/>
  </g>
  <g id="axes_1">
   <g class="patch">
    <path d="M 39.481719 269.712 
L 396.601719 269.712 
L 396.601719 3.6 
L 39.481719 3.6 
L 39.481719 269.712 
z
" style="fill: none"/>
   </g>
   <g class="axis">
    <g class="tick xtick">
     <g id="line2d_1">
      <path d="M 46.349411 269.712 
L 46.349411 3.6 
" clip-path="url(#p6fa8d40c68)" style="fill: none; stroke: #b0b0b0; stroke-opacity: 0.15; stroke-width: 0.5; stroke-linecap: square"/>
     </g>
     <g id="line2d_2">
      <defs>
       <path id="m52ae0eefa0" d="M 0 0 
L 0 3.5 
" style="stroke:var(--black); stroke-width: 0.8"/>
      </defs>
      <g>
       <use xlink:href="#m52ae0eefa0" x="46.349411" y="269.712" style="stroke:var(--black); stroke-width: 0.8"/>
      </g>
     </g>
     <g id="text_1" class="text">
      <!-- −1 -->
      <g transform="translate(39.715427 283.550594) scale(0.09 -0.09)">
       <defs>
        <path id="DejaVuSerif-2212" d="M 678 2259 
L 4684 2259 
L 4684 1753 
L 678 1753 
L 678 2259 
z
" transform="scale(0.015625)"/>
        <path id="DejaVuSerif-31" d="M 909 0 
L 909 331 
L 1722 331 
L 1722 4213 
L 781 3603 
L 781 4013 
L 1919 4750 
L 2350 4750 
L 2350 331 
L 3163 331 
L 3163 0 
L 909 0 
z
" transform="scale(0.015625)"/>
       </defs>
       <use xlink:href="#DejaVuSerif-2212"/>
       <use xlink:href="#DejaVuSerif-31" transform="translate(83.789062 0)"/>
      </g>
     </g>
    </g>
    <g class="tick xtick">
     <g id="line2d_3">
      <path d="M 115.026334 269.712 
L 115.026334 3.6 
" clip-path="url(#p6fa8d40c68)" style="fill: none; stroke: #b0b0b0; stroke-opacity: 0.15; stroke-width: 0.5; stroke-linecap: square"/>
     </g>
     <g id="line2d_4">
      <g>
       <use xlink:href="#m52ae0eefa0" x="115.026334" y="269.712" style="stroke:var(--black); stroke-width: 0.8"/>
      </g>
     </g>
     <g id="text_2" class="text">
      <!-- 0 -->
      <g transform="translate(112.163209 283.550594) scale(0.09 -0.09)">
       <defs>
        <path id="DejaVuSerif-30" d="M 2034 219 
Q 2513 219 2750 744 
Q 2988 1269 2988 2328 
Q 2988 3391 2750 3916 
Q 2513 4441 2034 4441 
Q 1556 4441 1318 3916 
Q 1081 3391 1081 2328 
Q 1081 1269 1318 744 
Q 1556 219 2034 219 
z
M 2034 -91 
Q 1275 -91 848 546 
Q 422 1184 422 2328 
Q 422 3475 848 4112 
Q 1275 4750 2034 4750 
Q 2797 4750 3222 4112 
Q 3647 3475 3647 2328 
Q 3647 1184 3222 546 
Q 2797 -91 2034 -91 
z
" transform="scale(0.015625)"/>
       </defs>
       <use xlink:href="#DejaVuSerif-30"/>
      </g>
     </g>
    </g>
    <g class="tick xtick">
     <g id="line2d_5">
      <path d="M 183.703257 269.712 
L 183.703257 3.6 
" clip-path="url(#p6fa8d40c68)" style="fill: none; stroke: #b0b0b0; stroke-opacity: 0.15; stroke-width: 0.5; stroke-linecap: square"/>
     </g>
     <g id="line2d_6">
      <g>
       <use xlink:href="#m52ae0eefa0" x="183.703257" y="269.712" style="stroke:var(--black); stroke-width: 0.8"/>
      </g>
     </g>
     <g id="text_3" class="text">
      <!-- 1 -->
      <g transform="translate(180.840132 283.550594) scale(0.09 -0.09)">
       <use xlink:href="#DejaVuSerif-31"/>
      </g>
     </g>
    </g>
    <g class="tick xtick">
     <g id="line2d_7">
      <path d="M 252.38018 269.712 
L 252.38018 3.6 
" clip-path="url(#p6fa8d40c68)" style="fill: none; stroke: #b0b0b0; stroke-opacity: 0.15; stroke-width: 0.5; stroke-linecap: square"/>
     </g>
     <g id="line2d_8">
      <g>
       <use xlink:href="#m52ae0eefa0" x="252.38018" y="269.712" style="stroke:var(--black); stroke-width: 0.8"/>
      </g>
     </g>
     <g id="text_4" class="text">
      <!-- 2 -->
      <g transform="translate(249.517055 283.550594) scale(0.09 -0.09)">
       <defs>
        <path id="DejaVuSerif-32" d="M 819 3553 
L 469 3553 
L 469 4384 
Q 803 4563 1142 4656 
Q 1481 4750 1806 4750 
Q 2534 4750 2956 4397 
Q 3378 4044 3378 3438 
Q 3378 2753 2422 1800 
Q 2347 1728 2309 1691 
L 1131 513 
L 3078 513 
L 3078 1088 
L 3444 1088 
L 3444 0 
L 434 0 
L 434 341 
L 1850 1753 
Q 2319 2222 2519 2614 
Q 2719 3006 2719 3438 
Q 2719 3909 2473 4175 
Q 2228 4441 1797 4441 
Q 1350 4441 1106 4219 
Q 863 3997 819 3553 
z
" transform="scale(0.015625)"/>
       </defs>
       <use xlink:href="#DejaVuSerif-32"/>
      </g>
     </g>
    </g>
    <g class="tick xtick">
     <g id="line2d_9">
      <path d="M 321.057103 269.712 
L 321.057103 3.6 
" clip-path="url(#p6fa8d40c68)" style="fill: none; stroke: #b0b0b0; stroke-opacity: 0.15; stroke-width: 0.5; stroke-linecap: square"/>
     </g>
     <g id="line2d_10">
      <g>
       <use xlink:href="#m52ae0eefa0" x="321.057103" y="269.712" style="stroke:var(--black); stroke-width: 0.8"/>
      </g>
     </g>
     <g id="text_5" class="text">
      <!-- 3 -->
      <g transform="translate(318.193978 283.550594) scale(0.09 -0.09)">
       <defs>
        <path id="DejaVuSerif-33" d="M 622 4469 
Q 988 4606 1323 4678 
Q 1659 4750 1953 4750 
Q 2638 4750 3022 4454 
Q 3406 4159 3406 3634 
Q 3406 3213 3140 2930 
Q 2875 2647 2388 2547 
Q 2963 2466 3280 2130 
Q 3597 1794 3597 1259 
Q 3597 606 3158 257 
Q 2719 -91 1894 -91 
Q 1528 -91 1179 -12 
Q 831 66 488 225 
L 488 1131 
L 838 1131 
Q 869 681 1141 450 
Q 1413 219 1906 219 
Q 2384 219 2661 495 
Q 2938 772 2938 1253 
Q 2938 1803 2653 2086 
Q 2369 2369 1819 2369 
L 1522 2369 
L 1522 2688 
L 1678 2688 
Q 2225 2688 2498 2914 
Q 2772 3141 2772 3597 
Q 2772 4006 2547 4223 
Q 2322 4441 1900 4441 
Q 1478 4441 1245 4241 
Q 1013 4041 972 3647 
L 622 3647 
L 622 4469 
z
" transform="scale(0.015625)"/>
       </defs>
       <use xlink:href="#DejaVuSerif-33"/>
      </g>
     </g>
    </g>
    <g class="tick xtick">
     <g id="line2d_11">
      <path d="M 389.734026 269.712 
L 389.734026 3.6 
" clip-path="url(#p6fa8d40c68)" style="fill: none; stroke: #b0b0b0; stroke-opacity: 0.15; stroke-width: 0.5; stroke-linecap: square"/>
     </g>
     <g id="line2d_12">
      <g>
       <use xlink:href="#m52ae0eefa0" x="389.734026" y="269.712" style="stroke:var(--black); stroke-width: 0.8"/>
      </g>
     </g>
     <g id="text_6" class="text">
      <!-- 4 -->
      <g transform="translate(386.870901 283.550594) scale(0.09 -0.09)">
       <defs>
        <path id="DejaVuSerif-34" d="M 2234 1581 
L 2234 4063 
L 641 1581 
L 2234 1581 
z
M 3609 0 
L 1484 0 
L 1484 331 
L 2234 331 
L 2234 1247 
L 197 1247 
L 197 1588 
L 2241 4750 
L 2859 4750 
L 2859 1581 
L 3750 1581 
L 3750 1247 
L 2859 1247 
L 2859 331 
L 3609 331 
L 3609 0 
z
" transform="scale(0.015625)"/>
       </defs>
       <use xlink:href="#DejaVuSerif-34"/>
      </g>
     </g>
    </g>
    <g id="text_7" class="text">
     <!-- $x_1$ -->
     <g transform="translate(212.101719 298.540437) scale(0.12 -0.12)">
      <defs>
       <path id="Cmmi10-78" d="M 500 184 
Q 613 97 819 97 
Q 1019 97 1172 289 
Q 1325 481 1381 709 
L 1672 1844 
Q 1741 2153 1741 2266 
Q 1741 2425 1652 2544 
Q 1563 2663 1403 2663 
Q 1200 2663 1022 2536 
Q 844 2409 722 2214 
Q 600 2019 550 1819 
Q 538 1778 500 1778 
L 422 1778 
Q 372 1778 372 1838 
L 372 1856 
Q 434 2094 584 2320 
Q 734 2547 951 2687 
Q 1169 2828 1416 2828 
Q 1650 2828 1839 2703 
Q 2028 2578 2106 2363 
Q 2216 2559 2386 2693 
Q 2556 2828 2759 2828 
Q 2897 2828 3040 2779 
Q 3184 2731 3275 2631 
Q 3366 2531 3366 2381 
Q 3366 2219 3261 2101 
Q 3156 1984 2994 1984 
Q 2891 1984 2822 2050 
Q 2753 2116 2753 2216 
Q 2753 2350 2845 2451 
Q 2938 2553 3066 2572 
Q 2950 2663 2747 2663 
Q 2541 2663 2389 2472 
Q 2238 2281 2175 2047 
L 1894 916 
Q 1825 659 1825 494 
Q 1825 331 1917 214 
Q 2009 97 2163 97 
Q 2463 97 2698 361 
Q 2934 625 3009 941 
Q 3022 978 3059 978 
L 3138 978 
Q 3163 978 3178 961 
Q 3194 944 3194 922 
Q 3194 916 3188 903 
Q 3097 522 2806 225 
Q 2516 -72 2150 -72 
Q 1916 -72 1727 54 
Q 1538 181 1459 397 
Q 1359 209 1182 68 
Q 1006 -72 806 -72 
Q 669 -72 523 -23 
Q 378 25 287 125 
Q 197 225 197 378 
Q 197 528 301 651 
Q 406 775 563 775 
Q 669 775 741 711 
Q 813 647 813 544 
Q 813 409 723 309 
Q 634 209 500 184 
z
" transform="scale(0.015625)"/>
       <path id="Cmr10-31" d="M 594 0 
L 594 225 
Q 1394 225 1394 428 
L 1394 3788 
Q 1063 3628 556 3628 
L 556 3853 
Q 1341 3853 1741 4263 
L 1831 4263 
Q 1853 4263 1873 4245 
Q 1894 4228 1894 4206 
L 1894 428 
Q 1894 225 2694 225 
L 2694 0 
L 594 0 
z
" transform="scale(0.015625)"/>
      </defs>
      <use xlink:href="#Cmmi10-78" transform="translate(0 0.8125)"/>
      <use xlink:href="#Cmr10-31" transform="translate(57.080078 -16.19375) scale(0.7)"/>
     </g>
    </g>
   </g>
   <g class="axis">
    <g class="tick ytick">
     <g id="line2d_13">
      <path d="M 39.481719 264.594462 
L 396.601719 264.594462 
" clip-path="url(#p6fa8d40c68)" style="fill: none; stroke: #b0b0b0; stroke-opacity: 0.15; stroke-width: 0.5; stroke-linecap: square"/>
     </g>
     <g id="line2d_14">
      <defs>
       <path id="mf7b5c93034" d="M 0 0 
L -3.5 0 
" style="stroke:var(--black); stroke-width: 0.8"/>
      </defs>
      <g>
       <use xlink:href="#mf7b5c93034" x="39.481719" y="264.594462" style="stroke:var(--black); stroke-width: 0.8"/>
      </g>
     </g>
     <g id="text_8" class="text">
      <!-- −1 -->
      <g transform="translate(19.21375 268.013758) scale(0.09 -0.09)">
       <use xlink:href="#DejaVuSerif-2212"/>
       <use xlink:href="#DejaVuSerif-31" transform="translate(83.789062 0)"/>
      </g>
     </g>
    </g>
    <g class="tick ytick">
     <g id="line2d_15">
      <path d="M 39.481719 213.419077 
L 396.601719 213.419077 
" clip-path="url(#p6fa8d40c68)" style="fill: none; stroke: #b0b0b0; stroke-opacity: 0.15; stroke-width: 0.5; stroke-linecap: square"/>
     </g>
     <g id="line2d_16">
      <g>
       <use xlink:href="#mf7b5c93034" x="39.481719" y="213.419077" style="stroke:var(--black); stroke-width: 0.8"/>
      </g>
     </g>
     <g id="text_9" class="text">
      <!-- 0 -->
      <g transform="translate(26.755469 216.838374) scale(0.09 -0.09)">
       <use xlink:href="#DejaVuSerif-30"/>
      </g>
     </g>
    </g>
    <g class="tick ytick">
     <g id="line2d_17">
      <path d="M 39.481719 162.243692 
L 396.601719 162.243692 
" clip-path="url(#p6fa8d40c68)" style="fill: none; stroke: #b0b0b0; stroke-opacity: 0.15; stroke-width: 0.5; stroke-linecap: square"/>
     </g>
     <g id="line2d_18">
      <g>
       <use xlink:href="#mf7b5c93034" x="39.481719" y="162.243692" style="stroke:var(--black); stroke-width: 0.8"/>
      </g>
     </g>
     <g id="text_10" class="text">
      <!-- 1 -->
      <g transform="translate(26.755469 165.662989) scale(0.09 -0.09)">
       <use xlink:href="#DejaVuSerif-31"/>
      </g>
     </g>
    </g>
    <g class="tick ytick">
     <g id="line2d_19">
      <path d="M 39.481719 111.068308 
L 396.601719 111.068308 
" clip-path="url(#p6fa8d40c68)" style="fill: none; stroke: #b0b0b0; stroke-opacity: 0.15; stroke-width: 0.5; stroke-linecap: square"/>
     </g>
     <g id="line2d_20">
      <g>
       <use xlink:href="#mf7b5c93034" x="39.481719" y="111.068308" style="stroke:var(--black); stroke-width: 0.8"/>
      </g>
     </g>
     <g id="text_11" class="text">
      <!-- 2 -->
      <g transform="translate(26.755469 114.487605) scale(0.09 -0.09)">
       <use xlink:href="#DejaVuSerif-32"/>
      </g>
     </g>
    </g>
    <g class="tick ytick">
     <g id="line2d_21">
      <path d="M 39.481719 59.892923 
L 396.601719 59.892923 
" clip-path="url(#p6fa8d40c68)" style="fill: none; stroke: #b0b0b0; stroke-opacity: 0.15; stroke-width: 0.5; stroke-linecap: square"/>
     </g>
     <g id="line2d_22">
      <g>
       <use xlink:href="#mf7b5c93034" x="39.481719" y="59.892923" style="stroke:var(--black); stroke-width: 0.8"/>
      </g>
     </g>
     <g id="text_12" class="text">
      <!-- 3 -->
      <g transform="translate(26.755469 63.31222) scale(0.09 -0.09)">
       <use xlink:href="#DejaVuSerif-33"/>
      </g>
     </g>
    </g>
    <g class="tick ytick">
     <g id="line2d_23">
      <path d="M 39.481719 8.717538 
L 396.601719 8.717538 
" clip-path="url(#p6fa8d40c68)" style="fill: none; stroke: #b0b0b0; stroke-opacity: 0.15; stroke-width: 0.5; stroke-linecap: square"/>
     </g>
     <g id="line2d_24">
      <g>
       <use xlink:href="#mf7b5c93034" x="39.481719" y="8.717538" style="stroke:var(--black); stroke-width: 0.8"/>
      </g>
     </g>
     <g id="text_13" class="text">
      <!-- 4 -->
      <g transform="translate(26.755469 12.136835) scale(0.09 -0.09)">
       <use xlink:href="#DejaVuSerif-34"/>
      </g>
     </g>
    </g>
    <g id="text_14" class="text">
     <!-- $x_2$ -->
     <g transform="translate(12.718125 142.596) rotate(-90) scale(0.12 -0.12)">
      <defs>
       <path id="Cmr10-32" d="M 319 0 
L 319 172 
Q 319 188 331 206 
L 1325 1306 
Q 1550 1550 1690 1715 
Q 1831 1881 1968 2097 
Q 2106 2313 2186 2536 
Q 2266 2759 2266 3009 
Q 2266 3272 2169 3511 
Q 2072 3750 1880 3894 
Q 1688 4038 1416 4038 
Q 1138 4038 916 3870 
Q 694 3703 603 3438 
Q 628 3444 672 3444 
Q 816 3444 917 3347 
Q 1019 3250 1019 3097 
Q 1019 2950 917 2848 
Q 816 2747 672 2747 
Q 522 2747 420 2851 
Q 319 2956 319 3097 
Q 319 3338 409 3548 
Q 500 3759 670 3923 
Q 841 4088 1055 4175 
Q 1269 4263 1509 4263 
Q 1875 4263 2190 4108 
Q 2506 3953 2690 3670 
Q 2875 3388 2875 3009 
Q 2875 2731 2753 2481 
Q 2631 2231 2440 2026 
Q 2250 1822 1953 1562 
Q 1656 1303 1563 1216 
L 838 519 
L 1453 519 
Q 1906 519 2211 526 
Q 2516 534 2534 550 
Q 2609 631 2688 1141 
L 2875 1141 
L 2694 0 
L 319 0 
z
" transform="scale(0.015625)"/>
      </defs>
      <use xlink:href="#Cmmi10-78" transform="translate(0 0.8125)"/>
      <use xlink:href="#Cmr10-32" transform="translate(57.080078 -16.19375) scale(0.7)"/>
     </g>
    </g>
   </g>
   <g id="QuadContourSet_1">
    <path d="M 389.734026 264.273814 
L 389.734026 263.953166 
L 389.734026 263.31187 
L 389.734026 262.670575 
L 389.734026 262.029279 
L 389.734026 261.387984 
L 389.734026 260.746688 
L 389.734026 260.105393 
L 389.734026 259.464097 
L 389.734026 258.822802 
L 389.734026 258.181506 
L 389.734026 257.540211 
L 389.734026 256.898915 
L 389.734026 256.257619 
L 389.734026 255.616324 
L 389.734026 254.975028 
L 389.734026 254.333733 
L 389.734026 253.692437 
L 389.734026 253.051142 
L 389.734026 252.409846 
L 389.734026 251.768551 
L 389.734026 251.127255 
L 389.734026 250.48596 
L 389.734026 249.844664 
L 389.734026 249.203368 
L 389.734026 248.562073 
L 389.734026 247.920777 
L 389.734026 247.279482 
L 389.734026 246.638186 
L 389.734026 245.996891 
L 389.734026 245.355595 
L 389.734026 244.7143 
L 389.734026 244.073004 
L 389.734026 243.431709 
L 389.734026 242.790413 
L 389.734026 242.149117 
L 389.734026 241.507822 
L 389.734026 240.866526 
L 389.734026 240.225231 
L 389.734026 239.583935 
L 389.734026 238.94264 
L 389.734026 238.301344 
L 389.734026 237.660049 
L 389.734026 237.018753 
L 389.734026 236.377457 
L 389.734026 235.736162 
L 389.734026 235.094866 
L 389.734026 234.453571 
L 389.734026 233.812275 
L 389.734026 233.17098 
L 389.734026 232.529684 
L 389.734026 231.888389 
L 389.734026 231.247093 
L 389.734026 230.605798 
L 389.734026 229.964502 
L 389.734026 229.323206 
L 389.734026 228.681911 
L 389.734026 228.040615 
L 389.734026 227.39932 
L 389.734026 226.758024 
L 389.734026 226.116729 
L 389.734026 225.475433 
L 389.734026 224.834138 
L 389.734026 224.192842 
L 389.734026 223.551547 
L 389.734026 222.910251 
L 389.734026 222.268955 
L 389.734026 221.62766 
L 389.734026 220.986364 
L 389.734026 220.345069 
L 389.734026 219.703773 
L 389.734026 219.062478 
L 389.734026 218.421182 
L 389.734026 217.779887 
L 389.734026 217.138591 
L 389.734026 216.497296 
L 389.734026 215.856 
L 389.734026 215.214704 
L 389.734026 214.573409 
L 389.734026 213.932113 
L 389.734026 213.290818 
L 389.734026 212.649522 
L 389.734026 212.008227 
L 389.734026 211.366931 
L 389.734026 210.725636 
L 389.734026 210.08434 
L 389.734026 209.443045 
L 389.734026 208.801749 
L 389.734026 208.160453 
L 389.734026 207.519158 
L 389.734026 206.877862 
L 389.734026 206.236567 
L 389.734026 205.595271 
L 389.734026 204.953976 
L 389.734026 204.31268 
L 389.734026 203.671385 
L 389.734026 203.030089 
L 389.734026 202.388794 
L 389.734026 201.747498 
L 389.734026 201.106202 
L 389.734026 200.464907 
L 389.734026 199.823611 
L 389.734026 199.182316 
L 389.734026 198.54102 
L 389.734026 197.899725 
L 389.734026 197.258429 
L 389.734026 196.617134 
L 389.734026 195.975838 
L 389.734026 195.334543 
L 389.734026 194.693247 
L 389.734026 194.051951 
L 389.734026 193.410656 
L 389.734026 192.76936 
L 389.734026 192.128065 
L 389.734026 191.486769 
L 389.734026 190.845474 
L 389.734026 190.204178 
L 389.734026 189.562883 
L 389.734026 188.921587 
L 389.734026 188.280291 
L 389.734026 187.638996 
L 389.734026 186.9977 
L 389.734026 186.356405 
L 389.734026 185.715109 
L 389.734026 185.073814 
L 389.734026 184.432518 
L 389.734026 183.791223 
L 389.734026 183.149927 
L 389.734026 182.508632 
L 389.734026 181.867336 
L 389.734026 181.22604 
L 389.734026 180.584745 
L 389.734026 179.943449 
L 389.734026 179.302154 
L 389.734026 178.660858 
L 389.734026 178.019563 
L 389.734026 177.378267 
L 389.734026 176.736972 
L 389.734026 176.095676 
L 389.734026 175.454381 
L 389.734026 174.813085 
L 389.734026 174.171789 
L 389.734026 173.530494 
L 389.734026 172.889198 
L 389.734026 172.247903 
L 389.734026 171.606607 
L 389.734026 170.965312 
L 389.734026 170.324016 
L 389.734026 169.682721 
L 389.734026 169.041425 
L 389.734026 168.40013 
L 389.734026 167.758834 
L 389.734026 167.117538 
L 389.734026 166.476243 
L 389.734026 165.834947 
L 389.734026 165.193652 
L 389.734026 164.552356 
L 389.734026 163.911061 
L 389.734026 163.269765 
L 389.734026 162.62847 
L 389.734026 161.987174 
L 389.734026 161.345879 
L 389.734026 160.704583 
L 389.734026 160.063287 
L 389.734026 159.421992 
L 389.734026 158.780696 
L 389.734026 158.139401 
L 389.734026 157.498105 
L 389.734026 156.85681 
L 389.734026 156.215514 
L 389.734026 155.574219 
L 389.734026 154.932923 
L 389.734026 154.291628 
L 389.734026 153.650332 
L 389.734026 153.009036 
L 389.734026 152.367741 
L 389.734026 151.726445 
L 389.734026 151.08515 
L 389.734026 150.443854 
L 389.734026 149.802559 
L 389.734026 149.161263 
L 389.734026 148.519968 
L 389.734026 147.878672 
L 389.734026 147.237377 
L 389.734026 146.596081 
L 389.734026 145.954785 
L 389.734026 145.31349 
L 389.734026 144.672194 
L 389.734026 144.030899 
L 389.734026 143.389603 
L 389.734026 142.748308 
L 389.734026 142.107012 
L 389.734026 141.465717 
L 389.734026 140.824421 
L 389.734026 140.183126 
L 389.734026 139.54183 
L 389.734026 138.900534 
L 389.734026 138.259239 
L 389.734026 137.617943 
L 389.734026 136.976648 
L 389.734026 136.335352 
L 389.734026 135.694057 
L 389.734026 135.052761 
L 389.734026 134.411466 
L 389.734026 133.77017 
L 389.734026 133.128874 
L 389.734026 132.487579 
L 389.734026 131.846283 
L 389.734026 131.204988 
L 389.734026 130.563692 
L 389.734026 129.922397 
L 389.734026 129.281101 
L 389.734026 128.639806 
L 389.734026 127.99851 
L 389.734026 127.357215 
L 389.734026 126.715919 
L 389.734026 126.074623 
L 389.734026 125.433328 
L 389.734026 124.792032 
L 389.734026 124.150737 
L 389.734026 123.509441 
L 389.734026 122.868146 
L 389.734026 122.22685 
L 389.734026 121.585555 
L 389.734026 120.944259 
L 389.734026 120.302964 
L 389.734026 119.661668 
L 389.734026 119.020372 
L 389.734026 118.379077 
L 389.734026 117.737781 
L 389.734026 117.096486 
L 389.734026 116.45519 
L 389.734026 115.813895 
L 389.734026 115.172599 
L 389.734026 114.531304 
L 389.734026 113.890008 
L 389.734026 113.248713 
L 389.734026 112.607417 
L 389.734026 111.966121 
L 389.734026 111.324826 
L 389.734026 110.68353 
L 389.734026 110.042235 
L 389.734026 109.400939 
L 389.734026 108.759644 
L 389.734026 108.118348 
L 389.734026 107.477053 
L 389.734026 106.835757 
L 389.734026 106.194462 
L 389.734026 105.553166 
L 389.734026 104.91187 
L 389.734026 104.270575 
L 389.734026 103.629279 
L 389.734026 102.987984 
L 389.734026 102.346688 
L 389.734026 101.705393 
L 389.734026 101.064097 
L 389.734026 100.422802 
L 389.734026 99.781506 
L 389.734026 99.140211 
L 389.734026 98.498915 
L 389.734026 97.857619 
L 389.734026 97.216324 
L 389.734026 96.575028 
L 389.734026 95.933733 
L 389.734026 95.292437 
L 389.734026 94.651142 
L 389.734026 94.009846 
L 389.734026 93.368551 
L 389.734026 92.727255 
L 389.734026 92.08596 
L 389.734026 91.444664 
L 389.734026 90.803368 
L 389.734026 90.162073 
L 389.734026 89.520777 
L 389.734026 88.879482 
L 389.734026 88.238186 
L 389.734026 87.596891 
L 389.734026 86.955595 
L 389.734026 86.3143 
L 389.734026 85.673004 
L 389.734026 85.031709 
L 389.734026 84.390413 
L 389.734026 83.749117 
L 389.734026 83.107822 
L 389.734026 82.466526 
L 389.734026 81.825231 
L 389.734026 81.183935 
L 389.734026 80.54264 
L 389.734026 79.901344 
L 389.734026 79.260049 
L 389.734026 78.618753 
L 389.734026 77.977457 
L 389.734026 77.336162 
L 389.734026 76.694866 
L 389.734026 76.053571 
L 389.734026 75.412275 
L 389.734026 74.77098 
L 389.734026 74.129684 
L 389.734026 73.488389 
L 389.734026 72.847093 
L 389.734026 72.205798 
L 389.734026 71.564502 
L 389.734026 70.923206 
L 389.734026 70.281911 
L 389.734026 69.640615 
L 389.734026 68.99932 
L 389.734026 68.358024 
L 389.734026 67.716729 
L 389.734026 67.075433 
L 389.734026 66.434138 
L 389.734026 65.792842 
L 389.734026 65.151547 
L 389.734026 64.510251 
L 389.734026 63.868955 
L 389.734026 63.22766 
L 389.734026 62.586364 
L 389.734026 61.945069 
L 389.734026 61.303773 
L 389.734026 60.662478 
L 389.734026 60.021182 
L 389.734026 59.379887 
L 389.734026 58.738591 
L 389.734026 58.097296 
L 389.734026 57.456 
L 389.734026 56.814704 
L 389.734026 56.173409 
L 389.734026 55.532113 
L 389.734026 54.890818 
L 389.734026 54.249522 
L 389.734026 53.608227 
L 389.734026 52.966931 
L 389.734026 52.325636 
L 389.734026 51.68434 
L 389.734026 51.043045 
L 389.734026 50.401749 
L 389.734026 49.760453 
L 389.734026 49.119158 
L 389.734026 48.477862 
L 389.734026 47.836567 
L 389.734026 47.195271 
L 389.734026 46.553976 
L 389.734026 45.91268 
L 389.734026 45.271385 
L 389.734026 44.630089 
L 389.734026 43.988794 
L 389.734026 43.347498 
L 389.734026 42.706202 
L 389.734026 42.064907 
L 389.734026 41.423611 
L 389.734026 40.782316 
L 389.734026 40.14102 
L 389.734026 39.499725 
L 389.734026 38.858429 
L 389.734026 38.217134 
L 389.734026 37.575838 
L 389.734026 36.934543 
L 389.734026 36.293247 
L 389.734026 35.651951 
L 389.734026 35.010656 
L 389.734026 34.36936 
L 389.734026 33.728065 
L 389.734026 33.086769 
L 389.734026 32.445474 
L 389.734026 31.804178 
L 389.734026 31.162883 
L 389.734026 30.521587 
L 389.734026 29.880291 
L 389.734026 29.238996 
L 389.734026 28.5977 
L 389.734026 27.956405 
L 389.734026 27.315109 
L 389.734026 26.673814 
L 389.734026 26.032518 
L 389.734026 25.391223 
L 389.734026 24.749927 
L 389.734026 24.108632 
L 389.734026 23.467336 
L 389.734026 22.82604 
L 389.734026 22.184745 
L 389.734026 21.543449 
L 389.734026 20.902154 
L 389.734026 20.260858 
L 389.734026 19.619563 
L 389.734026 18.978267 
L 389.734026 18.336972 
L 389.734026 17.695676 
L 389.734026 17.054381 
L 389.734026 16.413085 
L 389.734026 15.771789 
L 389.734026 15.130494 
L 389.734026 14.489198 
L 389.734026 13.847903 
L 389.734026 13.206607 
L 389.734026 12.565312 
L 389.734026 11.924016 
L 389.734026 11.282721 
L 389.734026 10.641425 
L 389.734026 10.00013 
L 389.734026 9.358834 
L 389.734026 8.717538 
L 388.873413 8.717538 
L 388.0128 8.717538 
L 387.152187 8.717538 
L 386.291574 8.717538 
L 385.430961 8.717538 
L 384.570348 8.717538 
L 383.709735 8.717538 
L 382.849122 8.717538 
L 381.988509 8.717538 
L 381.127896 8.717538 
L 380.267283 8.717538 
L 379.40667 8.717538 
L 378.546057 8.717538 
L 377.685443 8.717538 
L 376.82483 8.717538 
L 375.964217 8.717538 
L 375.103604 8.717538 
L 374.242991 8.717538 
L 373.382378 8.717538 
L 372.521765 8.717538 
L 371.661152 8.717538 
L 370.800539 8.717538 
L 369.939926 8.717538 
L 369.079313 8.717538 
L 368.2187 8.717538 
L 367.358087 8.717538 
L 366.497474 8.717538 
L 365.63686 8.717538 
L 364.776247 8.717538 
L 363.915634 8.717538 
L 363.055021 8.717538 
L 362.194408 8.717538 
L 361.333795 8.717538 
L 360.473182 8.717538 
L 359.612569 8.717538 
L 358.751956 8.717538 
L 357.891343 8.717538 
L 357.03073 8.717538 
L 356.170117 8.717538 
L 355.309504 8.717538 
L 354.448891 8.717538 
L 353.588277 8.717538 
L 352.727664 8.717538 
L 351.867051 8.717538 
L 351.006438 8.717538 
L 350.145825 8.717538 
L 349.285212 8.717538 
L 348.424599 8.717538 
L 347.563986 8.717538 
L 346.703373 8.717538 
L 345.84276 8.717538 
L 344.982147 8.717538 
L 344.121534 8.717538 
L 343.260921 8.717538 
L 342.400308 8.717538 
L 341.539694 8.717538 
L 340.679081 8.717538 
L 339.818468 8.717538 
L 338.957855 8.717538 
L 338.097242 8.717538 
L 337.236629 8.717538 
L 336.376016 8.717538 
L 335.515403 8.717538 
L 334.65479 8.717538 
L 333.794177 8.717538 
L 332.933564 8.717538 
L 332.072951 8.717538 
L 331.212338 8.717538 
L 330.351725 8.717538 
L 329.491111 8.717538 
L 328.630498 8.717538 
L 327.769885 8.717538 
L 326.909272 8.717538 
L 326.048659 8.717538 
L 325.188046 8.717538 
L 324.327433 8.717538 
L 323.46682 8.717538 
L 322.606207 8.717538 
L 321.745594 8.717538 
L 320.884981 8.717538 
L 320.024368 8.717538 
L 319.163755 8.717538 
L 318.303142 8.717538 
L 317.442528 8.717538 
L 316.581915 8.717538 
L 315.721302 8.717538 
L 314.860689 8.717538 
L 314.000076 8.717538 
L 313.139463 8.717538 
L 312.27885 8.717538 
L 311.418237 8.717538 
L 310.557624 8.717538 
L 309.697011 8.717538 
L 308.836398 8.717538 
L 307.975785 8.717538 
L 307.115172 8.717538 
L 306.254559 8.717538 
L 305.393945 8.717538 
L 304.533332 8.717538 
L 303.672719 8.717538 
L 302.812106 8.717538 
L 301.951493 8.717538 
L 301.09088 8.717538 
L 300.230267 8.717538 
L 299.369654 8.717538 
L 298.509041 8.717538 
L 297.648428 8.717538 
L 296.787815 8.717538 
L 295.927202 8.717538 
L 295.066589 8.717538 
L 294.205976 8.717538 
L 293.345362 8.717538 
L 292.484749 8.717538 
L 291.624136 8.717538 
L 290.763523 8.717538 
L 289.90291 8.717538 
L 289.042297 8.717538 
L 288.181684 8.717538 
L 287.321071 8.717538 
L 286.460458 8.717538 
L 285.599845 8.717538 
L 284.739232 8.717538 
L 283.878619 8.717538 
L 283.018006 8.717538 
L 282.157393 8.717538 
L 281.296779 8.717538 
L 280.436166 8.717538 
L 279.575553 8.717538 
L 278.71494 8.717538 
L 277.854327 8.717538 
L 276.993714 8.717538 
L 276.133101 8.717538 
L 275.272488 8.717538 
L 274.411875 8.717538 
L 273.551262 8.717538 
L 272.690649 8.717538 
L 271.830036 8.717538 
L 270.969423 8.717538 
L 270.10881 8.717538 
L 269.248196 8.717538 
L 268.387583 8.717538 
L 267.52697 8.717538 
L 266.666357 8.717538 
L 265.805744 8.717538 
L 264.945131 8.717538 
L 264.084518 8.717538 
L 263.223905 8.717538 
L 262.363292 8.717538 
L 261.502679 8.717538 
L 260.642066 8.717538 
L 259.781453 8.717538 
L 258.92084 8.717538 
L 258.060227 8.717538 
L 257.199613 8.717538 
L 256.339 8.717538 
L 255.478387 8.717538 
L 254.617774 8.717538 
L 253.757161 8.717538 
L 252.896548 8.717538 
L 252.035935 8.717538 
L 251.175322 8.717538 
L 250.314709 8.717538 
L 249.454096 8.717538 
L 248.593483 8.717538 
L 247.73287 8.717538 
L 246.872257 8.717538 
L 246.011644 8.717538 
L 245.15103 8.717538 
L 244.290417 8.717538 
L 243.429804 8.717538 
L 242.569191 8.717538 
L 241.708578 8.717538 
L 240.847965 8.717538 
L 239.987352 8.717538 
L 239.126739 8.717538 
L 238.266126 8.717538 
L 237.405513 8.717538 
L 236.5449 8.717538 
L 235.684287 8.717538 
L 234.823674 8.717538 
L 233.963061 8.717538 
L 233.102447 8.717538 
L 232.241834 8.717538 
L 231.381221 8.717538 
L 230.520608 8.717538 
L 229.659995 8.717538 
L 228.799382 8.717538 
L 227.938769 8.717538 
L 227.078156 8.717538 
L 226.217543 8.717538 
L 225.35693 8.717538 
L 224.496317 8.717538 
L 223.635704 8.717538 
L 222.775091 8.717538 
L 221.914478 8.717538 
L 221.053864 8.717538 
L 220.193251 8.717538 
L 219.332638 8.717538 
L 218.472025 8.717538 
L 217.611412 8.717538 
L 216.750799 8.717538 
L 215.890186 8.717538 
L 215.029573 8.717538 
L 214.16896 8.717538 
L 213.308347 8.717538 
L 212.447734 8.717538 
L 211.587121 8.717538 
L 210.726508 8.717538 
L 209.865895 8.717538 
L 209.005282 8.717538 
L 208.144668 8.717538 
L 207.284055 8.717538 
L 206.423442 8.717538 
L 205.562829 8.717538 
L 204.702216 8.717538 
L 203.841603 8.717538 
L 202.98099 8.717538 
L 202.120377 8.717538 
L 201.259764 8.717538 
L 200.399151 8.717538 
L 199.538538 8.717538 
L 198.677925 8.717538 
L 197.817312 8.717538 
L 196.956699 8.717538 
L 196.096085 8.717538 
L 195.235472 8.717538 
L 194.374859 8.717538 
L 193.514246 8.717538 
L 192.653633 8.717538 
L 191.79302 8.717538 
L 190.932407 8.717538 
L 190.071794 8.717538 
L 189.211181 8.717538 
L 188.350568 8.717538 
L 187.489955 8.717538 
L 186.629342 8.717538 
L 185.768729 8.717538 
L 184.908116 8.717538 
L 184.047502 8.717538 
L 183.186889 8.717538 
L 182.326276 8.717538 
L 181.465663 8.717538 
L 180.60505 8.717538 
L 179.744437 8.717538 
L 178.883824 8.717538 
L 178.023211 8.717538 
L 177.162598 8.717538 
L 176.301985 8.717538 
L 175.441372 8.717538 
L 174.580759 8.717538 
L 173.720146 8.717538 
L 172.859533 8.717538 
L 171.998919 8.717538 
L 171.138306 8.717538 
L 170.277693 8.717538 
L 169.41708 8.717538 
L 168.556467 8.717538 
L 167.695854 8.717538 
L 166.835241 8.717538 
L 165.974628 8.717538 
L 165.114015 8.717538 
L 164.253402 8.717538 
L 163.392789 8.717538 
L 162.532176 8.717538 
L 161.671563 8.717538 
L 160.81095 8.717538 
L 159.950336 8.717538 
L 159.089723 8.717538 
L 158.22911 8.717538 
L 157.368497 8.717538 
L 156.507884 8.717538 
L 155.647271 8.717538 
L 154.786658 8.717538 
L 153.926045 8.717538 
L 153.065432 8.717538 
L 152.204819 8.717538 
L 151.344206 8.717538 
L 150.483593 8.717538 
L 149.62298 8.717538 
L 148.762367 8.717538 
L 147.901753 8.717538 
L 147.04114 8.717538 
L 146.180527 8.717538 
L 145.319914 8.717538 
L 144.459301 8.717538 
L 143.598688 8.717538 
L 142.738075 8.717538 
L 141.877462 8.717538 
L 141.016849 8.717538 
L 140.156236 8.717538 
L 139.295623 8.717538 
L 138.43501 8.717538 
L 137.574397 8.717538 
L 136.713784 8.717538 
L 135.85317 8.717538 
L 134.992557 8.717538 
L 134.131944 8.717538 
L 133.271331 8.717538 
L 132.410718 8.717538 
L 131.550105 8.717538 
L 130.689492 8.717538 
L 129.828879 8.717538 
L 128.968266 8.717538 
L 128.107653 8.717538 
L 127.24704 8.717538 
L 126.386427 8.717538 
L 125.525814 8.717538 
L 124.665201 8.717538 
L 123.804587 8.717538 
L 122.943974 8.717538 
L 122.083361 8.717538 
L 121.222748 8.717538 
L 120.362135 8.717538 
L 119.501522 8.717538 
L 118.640909 8.717538 
L 117.780296 8.717538 
L 116.919683 8.717538 
L 116.05907 8.717538 
L 115.198457 8.717538 
L 114.337844 8.717538 
L 113.477231 8.717538 
L 112.616618 8.717538 
L 111.756004 8.717538 
L 110.895391 8.717538 
L 110.034778 8.717538 
L 109.174165 8.717538 
L 108.313552 8.717538 
L 107.452939 8.717538 
L 106.592326 8.717538 
L 105.731713 8.717538 
L 104.8711 8.717538 
L 104.010487 8.717538 
L 103.149874 8.717538 
L 102.289261 8.717538 
L 101.428648 8.717538 
L 100.568035 8.717538 
L 99.707421 8.717538 
L 98.846808 8.717538 
L 97.986195 8.717538 
L 97.125582 8.717538 
L 96.264969 8.717538 
L 95.404356 8.717538 
L 94.543743 8.717538 
L 93.68313 8.717538 
L 92.822517 8.717538 
L 91.961904 8.717538 
L 91.101291 8.717538 
L 90.240678 8.717538 
L 89.380065 8.717538 
L 88.519452 8.717538 
L 87.658838 8.717538 
L 86.798225 8.717538 
L 85.937612 8.717538 
L 85.076999 8.717538 
L 84.216386 8.717538 
L 83.355773 8.717538 
L 82.49516 8.717538 
L 81.634547 8.717538 
L 80.773934 8.717538 
L 79.913321 8.717538 
L 79.052708 8.717538 
L 78.192095 8.717538 
L 77.331482 8.717538 
L 76.470869 8.717538 
L 75.610255 8.717538 
L 74.749642 8.717538 
L 73.889029 8.717538 
L 73.028416 8.717538 
L 72.167803 8.717538 
L 71.30719 8.717538 
L 70.446577 8.717538 
L 69.585964 8.717538 
L 68.725351 8.717538 
L 67.864738 8.717538 
L 67.004125 8.717538 
L 66.143512 8.717538 
L 65.282899 8.717538 
L 64.422286 8.717538 
L 63.561672 8.717538 
L 62.701059 8.717538 
L 61.840446 8.717538 
L 60.979833 8.717538 
L 60.11922 8.717538 
L 59.258607 8.717538 
L 58.397994 8.717538 
L 57.537381 8.717538 
L 56.676768 8.717538 
L 55.816155 8.717538 
L 54.955542 8.717538 
L 54.094929 8.717538 
L 53.234316 8.717538 
L 52.373703 8.717538 
L 51.513089 8.717538 
L 50.652476 8.717538 
L 49.791863 8.717538 
L 48.93125 8.717538 
L 48.070637 8.717538 
L 47.210024 8.717538 
L 46.779718 8.717538 
L 47.210024 9.038186 
L 47.640331 9.358834 
L 48.070637 9.679482 
L 48.500944 10.00013 
L 48.93125 10.320777 
L 49.361557 10.641425 
L 49.791863 10.962073 
L 50.22217 11.282721 
L 50.652476 11.603368 
L 51.082783 11.924016 
L 51.513089 12.244664 
L 51.943396 12.565312 
L 52.373703 12.88596 
L 52.804009 13.206607 
L 53.234316 13.527255 
L 53.664622 13.847903 
L 54.094929 14.168551 
L 54.525235 14.489198 
L 54.955542 14.809846 
L 55.385848 15.130494 
L 55.816155 15.451142 
L 56.246461 15.771789 
L 56.676768 16.092437 
L 57.107074 16.413085 
L 57.537381 16.733733 
L 57.967688 17.054381 
L 58.397994 17.375028 
L 58.828301 17.695676 
L 59.258607 18.016324 
L 59.688914 18.336972 
L 60.11922 18.657619 
L 60.549527 18.978267 
L 60.979833 19.298915 
L 61.41014 19.619563 
L 61.840446 19.940211 
L 62.270753 20.260858 
L 62.701059 20.581506 
L 63.131366 20.902154 
L 63.561672 21.222802 
L 63.991979 21.543449 
L 64.422286 21.864097 
L 64.852592 22.184745 
L 65.282899 22.505393 
L 65.713205 22.82604 
L 66.143512 23.146688 
L 66.573818 23.467336 
L 67.004125 23.787984 
L 67.434431 24.108632 
L 67.864738 24.429279 
L 68.295044 24.749927 
L 68.725351 25.070575 
L 69.155657 25.391223 
L 69.585964 25.71187 
L 70.016271 26.032518 
L 70.446577 26.353166 
L 70.876884 26.673814 
L 71.30719 26.994462 
L 71.737497 27.315109 
L 72.167803 27.635757 
L 72.59811 27.956405 
L 73.028416 28.277053 
L 73.458723 28.5977 
L 73.889029 28.918348 
L 74.319336 29.238996 
L 74.749642 29.559644 
L 75.179949 29.880291 
L 75.610255 30.200939 
L 76.040562 30.521587 
L 76.470869 30.842235 
L 76.901175 31.162883 
L 77.331482 31.48353 
L 77.761788 31.804178 
L 78.192095 32.124826 
L 78.622401 32.445474 
L 79.052708 32.766121 
L 79.483014 33.086769 
L 79.913321 33.407417 
L 80.343627 33.728065 
L 80.773934 34.048713 
L 81.20424 34.36936 
L 81.634547 34.690008 
L 82.064854 35.010656 
L 82.49516 35.331304 
L 82.925467 35.651951 
L 83.355773 35.972599 
L 83.78608 36.293247 
L 84.216386 36.613895 
L 84.646693 36.934543 
L 85.076999 37.25519 
L 85.507306 37.575838 
L 85.937612 37.896486 
L 86.367919 38.217134 
L 86.798225 38.537781 
L 87.228532 38.858429 
L 87.658838 39.179077 
L 88.089145 39.499725 
L 88.519452 39.820372 
L 88.949758 40.14102 
L 89.380065 40.461668 
L 89.810371 40.782316 
L 90.240678 41.102964 
L 90.670984 41.423611 
L 91.101291 41.744259 
L 91.531597 42.064907 
L 91.961904 42.385555 
L 92.39221 42.706202 
L 92.822517 43.02685 
L 93.252823 43.347498 
L 93.68313 43.668146 
L 94.113437 43.988794 
L 94.543743 44.309441 
L 94.97405 44.630089 
L 95.404356 44.950737 
L 95.834663 45.271385 
L 96.264969 45.592032 
L 96.695276 45.91268 
L 97.125582 46.233328 
L 97.555889 46.553976 
L 97.986195 46.874623 
L 98.416502 47.195271 
L 98.846808 47.515919 
L 99.277115 47.836567 
L 99.707421 48.157215 
L 100.137728 48.477862 
L 100.568035 48.79851 
L 100.998341 49.119158 
L 101.428648 49.439806 
L 101.858954 49.760453 
L 102.289261 50.081101 
L 102.719567 50.401749 
L 103.149874 50.722397 
L 103.58018 51.043045 
L 104.010487 51.363692 
L 104.440793 51.68434 
L 104.8711 52.004988 
L 105.301406 52.325636 
L 105.731713 52.646283 
L 106.16202 52.966931 
L 106.592326 53.287579 
L 107.022633 53.608227 
L 107.452939 53.928874 
L 107.883246 54.249522 
L 108.313552 54.57017 
L 108.743859 54.890818 
L 109.174165 55.211466 
L 109.604472 55.532113 
L 110.034778 55.852761 
L 110.465085 56.173409 
L 110.895391 56.494057 
L 111.325698 56.814704 
L 111.756004 57.135352 
L 112.186311 57.456 
L 112.616618 57.776648 
L 113.046924 58.097296 
L 113.477231 58.417943 
L 113.907537 58.738591 
L 114.337844 59.059239 
L 114.76815 59.379887 
L 115.198457 59.700534 
L 115.628763 60.021182 
L 116.05907 60.34183 
L 116.489376 60.662478 
L 116.919683 60.983126 
L 117.349989 61.303773 
L 117.780296 61.624421 
L 118.210602 61.945069 
L 118.640909 62.265717 
L 119.071216 62.586364 
L 119.501522 62.907012 
L 119.931829 63.22766 
L 120.362135 63.548308 
L 120.792442 63.868955 
L 121.222748 64.189603 
L 121.653055 64.510251 
L 122.083361 64.830899 
L 122.513668 65.151547 
L 122.943974 65.472194 
L 123.374281 65.792842 
L 123.804587 66.11349 
L 124.234894 66.434138 
L 124.665201 66.754785 
L 125.095507 67.075433 
L 125.525814 67.396081 
L 125.95612 67.716729 
L 126.386427 68.037377 
L 126.816733 68.358024 
L 127.24704 68.678672 
L 127.677346 68.99932 
L 128.107653 69.319968 
L 128.537959 69.640615 
L 128.968266 69.961263 
L 129.398572 70.281911 
L 129.828879 70.602559 
L 130.259185 70.923206 
L 130.689492 71.243854 
L 131.119799 71.564502 
L 131.550105 71.88515 
L 131.980412 72.205798 
L 132.410718 72.526445 
L 132.841025 72.847093 
L 133.271331 73.167741 
L 133.701638 73.488389 
L 134.131944 73.809036 
L 134.562251 74.129684 
L 134.992557 74.450332 
L 135.422864 74.77098 
L 135.85317 75.091628 
L 136.283477 75.412275 
L 136.713784 75.732923 
L 137.14409 76.053571 
L 137.574397 76.374219 
L 138.004703 76.694866 
L 138.43501 77.015514 
L 138.865316 77.336162 
L 139.295623 77.65681 
L 139.725929 77.977457 
L 140.156236 78.298105 
L 140.586542 78.618753 
L 141.016849 78.939401 
L 141.447155 79.260049 
L 141.877462 79.580696 
L 142.307768 79.901344 
L 142.738075 80.221992 
L 143.168382 80.54264 
L 143.598688 80.863287 
L 144.028995 81.183935 
L 144.459301 81.504583 
L 144.889608 81.825231 
L 145.319914 82.145879 
L 145.750221 82.466526 
L 146.180527 82.787174 
L 146.610834 83.107822 
L 147.04114 83.42847 
L 147.471447 83.749117 
L 147.901753 84.069765 
L 148.33206 84.390413 
L 148.762367 84.711061 
L 149.192673 85.031709 
L 149.62298 85.352356 
L 150.053286 85.673004 
L 150.483593 85.993652 
L 150.913899 86.3143 
L 151.344206 86.634947 
L 151.774512 86.955595 
L 152.204819 87.276243 
L 152.635125 87.596891 
L 153.065432 87.917538 
L 153.495738 88.238186 
L 153.926045 88.558834 
L 154.356351 88.879482 
L 154.786658 89.20013 
L 155.216965 89.520777 
L 155.647271 89.841425 
L 156.077578 90.162073 
L 156.507884 90.482721 
L 156.938191 90.803368 
L 157.368497 91.124016 
L 157.798804 91.444664 
L 158.22911 91.765312 
L 158.659417 92.08596 
L 159.089723 92.406607 
L 159.52003 92.727255 
L 159.950336 93.047903 
L 160.380643 93.368551 
L 160.81095 93.689198 
L 161.241256 94.009846 
L 161.671563 94.330494 
L 162.101869 94.651142 
L 162.532176 94.971789 
L 162.962482 95.292437 
L 163.392789 95.613085 
L 163.823095 95.933733 
L 164.253402 96.254381 
L 164.683708 96.575028 
L 165.114015 96.895676 
L 165.544321 97.216324 
L 165.974628 97.536972 
L 166.404934 97.857619 
L 166.835241 98.178267 
L 167.265548 98.498915 
L 167.695854 98.819563 
L 168.126161 99.140211 
L 168.556467 99.460858 
L 168.986774 99.781506 
L 169.41708 100.102154 
L 169.847387 100.422802 
L 170.277693 100.743449 
L 170.708 101.064097 
L 171.138306 101.384745 
L 171.568613 101.705393 
L 171.998919 102.02604 
L 172.429226 102.346688 
L 172.859533 102.667336 
L 173.289839 102.987984 
L 173.720146 103.308632 
L 174.150452 103.629279 
L 174.580759 103.949927 
L 175.011065 104.270575 
L 175.441372 104.591223 
L 175.871678 104.91187 
L 176.301985 105.232518 
L 176.732291 105.553166 
L 177.162598 105.873814 
L 177.592904 106.194462 
L 178.023211 106.515109 
L 178.453517 106.835757 
L 178.883824 107.156405 
L 179.314131 107.477053 
L 179.744437 107.7977 
L 180.174744 108.118348 
L 180.60505 108.438996 
L 181.035357 108.759644 
L 181.465663 109.080291 
L 181.89597 109.400939 
L 182.326276 109.721587 
L 182.756583 110.042235 
L 183.186889 110.362883 
L 183.617196 110.68353 
L 184.047502 111.004178 
L 184.477809 111.324826 
L 184.908116 111.645474 
L 185.338422 111.966121 
L 185.768729 112.286769 
L 186.199035 112.607417 
L 186.629342 112.928065 
L 187.059648 113.248713 
L 187.489955 113.56936 
L 187.920261 113.890008 
L 188.350568 114.210656 
L 188.780874 114.531304 
L 189.211181 114.851951 
L 189.641487 115.172599 
L 190.071794 115.493247 
L 190.5021 115.813895 
L 190.932407 116.134543 
L 191.362714 116.45519 
L 191.79302 116.775838 
L 192.223327 117.096486 
L 192.653633 117.417134 
L 193.08394 117.737781 
L 193.514246 118.058429 
L 193.944553 118.379077 
L 194.374859 118.699725 
L 194.805166 119.020372 
L 195.235472 119.34102 
L 195.665779 119.661668 
L 196.096085 119.982316 
L 196.526392 120.302964 
L 196.956699 120.623611 
L 197.387005 120.944259 
L 197.817312 121.264907 
L 198.247618 121.585555 
L 198.677925 121.906202 
L 199.108231 122.22685 
L 199.538538 122.547498 
L 199.968844 122.868146 
L 200.399151 123.188794 
L 200.829457 123.509441 
L 201.259764 123.830089 
L 201.69007 124.150737 
L 202.120377 124.471385 
L 202.550683 124.792032 
L 202.98099 125.11268 
L 203.411297 125.433328 
L 203.841603 125.753976 
L 204.27191 126.074623 
L 204.702216 126.395271 
L 205.132523 126.715919 
L 205.562829 127.036567 
L 205.993136 127.357215 
L 206.423442 127.677862 
L 206.853749 127.99851 
L 207.284055 128.319158 
L 207.714362 128.639806 
L 208.144668 128.960453 
L 208.574975 129.281101 
L 209.005282 129.601749 
L 209.435588 129.922397 
L 209.865895 130.243045 
L 210.296201 130.563692 
L 210.726508 130.88434 
L 211.156814 131.204988 
L 211.587121 131.525636 
L 212.017427 131.846283 
L 212.447734 132.166931 
L 212.87804 132.487579 
L 213.308347 132.808227 
L 213.738653 133.128874 
L 214.16896 133.449522 
L 214.599266 133.77017 
L 215.029573 134.090818 
L 215.45988 134.411466 
L 215.890186 134.732113 
L 216.320493 135.052761 
L 216.750799 135.373409 
L 217.181106 135.694057 
L 217.611412 136.014704 
L 218.041719 136.335352 
L 218.472025 136.656 
L 218.902332 136.976648 
L 219.332638 137.297296 
L 219.762945 137.617943 
L 220.193251 137.938591 
L 220.623558 138.259239 
L 221.053864 138.579887 
L 221.484171 138.900534 
L 221.914478 139.221182 
L 222.344784 139.54183 
L 222.775091 139.862478 
L 223.205397 140.183126 
L 223.635704 140.503773 
L 224.06601 140.824421 
L 224.496317 141.145069 
L 224.926623 141.465717 
L 225.35693 141.786364 
L 225.787236 142.107012 
L 226.217543 142.42766 
L 226.647849 142.748308 
L 227.078156 143.068955 
L 227.508463 143.389603 
L 227.938769 143.710251 
L 228.369076 144.030899 
L 228.799382 144.351547 
L 229.229689 144.672194 
L 229.659995 144.992842 
L 230.090302 145.31349 
L 230.520608 145.634138 
L 230.950915 145.954785 
L 231.381221 146.275433 
L 231.811528 146.596081 
L 232.241834 146.916729 
L 232.672141 147.237377 
L 233.102447 147.558024 
L 233.532754 147.878672 
L 233.963061 148.19932 
L 234.393367 148.519968 
L 234.823674 148.840615 
L 235.25398 149.161263 
L 235.684287 149.481911 
L 236.114593 149.802559 
L 236.5449 150.123206 
L 236.975206 150.443854 
L 237.405513 150.764502 
L 237.835819 151.08515 
L 238.266126 151.405798 
L 238.696432 151.726445 
L 239.126739 152.047093 
L 239.557046 152.367741 
L 239.987352 152.688389 
L 240.417659 153.009036 
L 240.847965 153.329684 
L 241.278272 153.650332 
L 241.708578 153.97098 
L 242.138885 154.291628 
L 242.569191 154.612275 
L 242.999498 154.932923 
L 243.429804 155.253571 
L 243.860111 155.574219 
L 244.290417 155.894866 
L 244.720724 156.215514 
L 245.15103 156.536162 
L 245.581337 156.85681 
L 246.011644 157.177457 
L 246.44195 157.498105 
L 246.872257 157.818753 
L 247.302563 158.139401 
L 247.73287 158.460049 
L 248.163176 158.780696 
L 248.593483 159.101344 
L 249.023789 159.421992 
L 249.454096 159.74264 
L 249.884402 160.063287 
L 250.314709 160.383935 
L 250.745015 160.704583 
L 251.175322 161.025231 
L 251.605629 161.345879 
L 252.035935 161.666526 
L 252.466242 161.987174 
L 252.896548 162.307822 
L 253.326855 162.62847 
L 253.757161 162.949117 
L 254.187468 163.269765 
L 254.617774 163.590413 
L 255.048081 163.911061 
L 255.478387 164.231709 
L 255.908694 164.552356 
L 256.339 164.873004 
L 256.769307 165.193652 
L 257.199613 165.5143 
L 257.62992 165.834947 
L 258.060227 166.155595 
L 258.490533 166.476243 
L 258.92084 166.796891 
L 259.351146 167.117538 
L 259.781453 167.438186 
L 260.211759 167.758834 
L 260.642066 168.079482 
L 261.072372 168.40013 
L 261.502679 168.720777 
L 261.932985 169.041425 
L 262.363292 169.362073 
L 262.793598 169.682721 
L 263.223905 170.003368 
L 263.654212 170.324016 
L 264.084518 170.644664 
L 264.514825 170.965312 
L 264.945131 171.28596 
L 265.375438 171.606607 
L 265.805744 171.927255 
L 266.236051 172.247903 
L 266.666357 172.568551 
L 267.096664 172.889198 
L 267.52697 173.209846 
L 267.957277 173.530494 
L 268.387583 173.851142 
L 268.81789 174.171789 
L 269.248196 174.492437 
L 269.678503 174.813085 
L 270.10881 175.133733 
L 270.539116 175.454381 
L 270.969423 175.775028 
L 271.399729 176.095676 
L 271.830036 176.416324 
L 272.260342 176.736972 
L 272.690649 177.057619 
L 273.120955 177.378267 
L 273.551262 177.698915 
L 273.981568 178.019563 
L 274.411875 178.340211 
L 274.842181 178.660858 
L 275.272488 178.981506 
L 275.702795 179.302154 
L 276.133101 179.622802 
L 276.563408 179.943449 
L 276.993714 180.264097 
L 277.424021 180.584745 
L 277.854327 180.905393 
L 278.284634 181.22604 
L 278.71494 181.546688 
L 279.145247 181.867336 
L 279.575553 182.187984 
L 280.00586 182.508632 
L 280.436166 182.829279 
L 280.866473 183.149927 
L 281.296779 183.470575 
L 281.727086 183.791223 
L 282.157393 184.11187 
L 282.587699 184.432518 
L 283.018006 184.753166 
L 283.448312 185.073814 
L 283.878619 185.394462 
L 284.308925 185.715109 
L 284.739232 186.035757 
L 285.169538 186.356405 
L 285.599845 186.677053 
L 286.030151 186.9977 
L 286.460458 187.318348 
L 286.890764 187.638996 
L 287.321071 187.959644 
L 287.751378 188.280291 
L 288.181684 188.600939 
L 288.611991 188.921587 
L 289.042297 189.242235 
L 289.472604 189.562883 
L 289.90291 189.88353 
L 290.333217 190.204178 
L 290.763523 190.524826 
L 291.19383 190.845474 
L 291.624136 191.166121 
L 292.054443 191.486769 
L 292.484749 191.807417 
L 292.915056 192.128065 
L 293.345362 192.448713 
L 293.775669 192.76936 
L 294.205976 193.090008 
L 294.636282 193.410656 
L 295.066589 193.731304 
L 295.496895 194.051951 
L 295.927202 194.372599 
L 296.357508 194.693247 
L 296.787815 195.013895 
L 297.218121 195.334543 
L 297.648428 195.65519 
L 298.078734 195.975838 
L 298.509041 196.296486 
L 298.939347 196.617134 
L 299.369654 196.937781 
L 299.799961 197.258429 
L 300.230267 197.579077 
L 300.660574 197.899725 
L 301.09088 198.220372 
L 301.521187 198.54102 
L 301.951493 198.861668 
L 302.3818 199.182316 
L 302.812106 199.502964 
L 303.242413 199.823611 
L 303.672719 200.144259 
L 304.103026 200.464907 
L 304.533332 200.785555 
L 304.963639 201.106202 
L 305.393945 201.42685 
L 305.824252 201.747498 
L 306.254559 202.068146 
L 306.684865 202.388794 
L 307.115172 202.709441 
L 307.545478 203.030089 
L 307.975785 203.350737 
L 308.406091 203.671385 
L 308.836398 203.992032 
L 309.266704 204.31268 
L 309.697011 204.633328 
L 310.127317 204.953976 
L 310.557624 205.274623 
L 310.98793 205.595271 
L 311.418237 205.915919 
L 311.848544 206.236567 
L 312.27885 206.557215 
L 312.709157 206.877862 
L 313.139463 207.19851 
L 313.56977 207.519158 
L 314.000076 207.839806 
L 314.430383 208.160453 
L 314.860689 208.481101 
L 315.290996 208.801749 
L 315.721302 209.122397 
L 316.151609 209.443045 
L 316.581915 209.763692 
L 317.012222 210.08434 
L 317.442528 210.404988 
L 317.872835 210.725636 
L 318.303142 211.046283 
L 318.733448 211.366931 
L 319.163755 211.687579 
L 319.594061 212.008227 
L 320.024368 212.328874 
L 320.454674 212.649522 
L 320.884981 212.97017 
L 321.315287 213.290818 
L 321.745594 213.611466 
L 322.1759 213.932113 
L 322.606207 214.252761 
L 323.036513 214.573409 
L 323.46682 214.894057 
L 323.897127 215.214704 
L 324.327433 215.535352 
L 324.75774 215.856 
L 325.188046 216.176648 
L 325.618353 216.497296 
L 326.048659 216.817943 
L 326.478966 217.138591 
L 326.909272 217.459239 
L 327.339579 217.779887 
L 327.769885 218.100534 
L 328.200192 218.421182 
L 328.630498 218.74183 
L 329.060805 219.062478 
L 329.491111 219.383126 
L 329.921418 219.703773 
L 330.351725 220.024421 
L 330.782031 220.345069 
L 331.212338 220.665717 
L 331.642644 220.986364 
L 332.072951 221.307012 
L 332.503257 221.62766 
L 332.933564 221.948308 
L 333.36387 222.268955 
L 333.794177 222.589603 
L 334.224483 222.910251 
L 334.65479 223.230899 
L 335.085096 223.551547 
L 335.515403 223.872194 
L 335.945709 224.192842 
L 336.376016 224.51349 
L 336.806323 224.834138 
L 337.236629 225.154785 
L 337.666936 225.475433 
L 338.097242 225.796081 
L 338.527549 226.116729 
L 338.957855 226.437377 
L 339.388162 226.758024 
L 339.818468 227.078672 
L 340.248775 227.39932 
L 340.679081 227.719968 
L 341.109388 228.040615 
L 341.539694 228.361263 
L 341.970001 228.681911 
L 342.400308 229.002559 
L 342.830614 229.323206 
L 343.260921 229.643854 
L 343.691227 229.964502 
L 344.121534 230.28515 
L 344.55184 230.605798 
L 344.982147 230.926445 
L 345.412453 231.247093 
L 345.84276 231.567741 
L 346.273066 231.888389 
L 346.703373 232.209036 
L 347.133679 232.529684 
L 347.563986 232.850332 
L 347.994292 233.17098 
L 348.424599 233.491628 
L 348.854906 233.812275 
L 349.285212 234.132923 
L 349.715519 234.453571 
L 350.145825 234.774219 
L 350.576132 235.094866 
L 351.006438 235.415514 
L 351.436745 235.736162 
L 351.867051 236.05681 
L 352.297358 236.377457 
L 352.727664 236.698105 
L 353.157971 237.018753 
L 353.588277 237.339401 
L 354.018584 237.660049 
L 354.448891 237.980696 
L 354.879197 238.301344 
L 355.309504 238.621992 
L 355.73981 238.94264 
L 356.170117 239.263287 
L 356.600423 239.583935 
L 357.03073 239.904583 
L 357.461036 240.225231 
L 357.891343 240.545879 
L 358.321649 240.866526 
L 358.751956 241.187174 
L 359.182262 241.507822 
L 359.612569 241.82847 
L 360.042875 242.149117 
L 360.473182 242.469765 
L 360.903489 242.790413 
L 361.333795 243.111061 
L 361.764102 243.431709 
L 362.194408 243.752356 
L 362.624715 244.073004 
L 363.055021 244.393652 
L 363.485328 244.7143 
L 363.915634 245.034947 
L 364.345941 245.355595 
L 364.776247 245.676243 
L 365.206554 245.996891 
L 365.63686 246.317538 
L 366.067167 246.638186 
L 366.497474 246.958834 
L 366.92778 247.279482 
L 367.358087 247.60013 
L 367.788393 247.920777 
L 368.2187 248.241425 
L 368.649006 248.562073 
L 369.079313 248.882721 
L 369.509619 249.203368 
L 369.939926 249.524016 
L 370.370232 249.844664 
L 370.800539 250.165312 
L 371.230845 250.48596 
L 371.661152 250.806607 
L 372.091458 251.127255 
L 372.521765 251.447903 
L 372.952072 251.768551 
L 373.382378 252.089198 
L 373.812685 252.409846 
L 374.242991 252.730494 
L 374.673298 253.051142 
L 375.103604 253.371789 
L 375.533911 253.692437 
L 375.964217 254.013085 
L 376.394524 254.333733 
L 376.82483 254.654381 
L 377.255137 254.975028 
L 377.685443 255.295676 
L 378.11575 255.616324 
L 378.546057 255.936972 
L 378.976363 256.257619 
L 379.40667 256.578267 
L 379.836976 256.898915 
L 380.267283 257.219563 
L 380.697589 257.540211 
L 381.127896 257.860858 
L 381.558202 258.181506 
L 381.988509 258.502154 
L 382.418815 258.822802 
L 382.849122 259.143449 
L 383.279428 259.464097 
L 383.709735 259.784745 
L 384.140041 260.105393 
L 384.570348 260.42604 
L 385.000655 260.746688 
L 385.430961 261.067336 
L 385.861268 261.387984 
L 386.291574 261.708632 
L 386.721881 262.029279 
L 387.152187 262.349927 
L 387.582494 262.670575 
L 388.0128 262.991223 
L 388.443107 263.31187 
L 388.873413 263.632518 
L 389.30372 263.953166 
z
" clip-path="url(#p6fa8d40c68)" style="fill: #8000ff; fill-opacity: 0.15"/>
   </g>
   <g id="line2d_25">
    <path d="M 46.349411 8.717538 
L 49.817943 11.302154 
L 53.286474 13.886769 
L 56.755005 16.471385 
L 60.223537 19.056 
L 63.692068 21.640615 
L 67.1606 24.225231 
L 70.629131 26.809846 
L 74.097663 29.394462 
L 77.566194 31.979077 
L 81.034726 34.563692 
L 84.503257 37.148308 
L 87.971789 39.732923 
L 91.44032 42.317538 
L 94.908852 44.902154 
L 98.377383 47.486769 
L 101.845915 50.071385 
L 105.314446 52.656 
L 108.782977 55.240615 
L 112.251509 57.825231 
L 115.72004 60.409846 
L 119.188572 62.994462 
L 122.657103 65.579077 
L 126.125635 68.163692 
L 129.594166 70.748308 
L 133.062698 73.332923 
L 136.531229 75.917538 
L 139.999761 78.502154 
L 143.468292 81.086769 
L 146.936824 83.671385 
L 150.405355 86.256 
L 153.873887 88.840615 
L 157.342418 91.425231 
L 160.81095 94.009846 
L 164.279481 96.594462 
L 167.748012 99.179077 
L 171.216544 101.763692 
L 174.685075 104.348308 
L 178.153607 106.932923 
L 181.622138 109.517538 
L 185.09067 112.102154 
L 188.559201 114.686769 
L 192.027733 117.271385 
L 195.496264 119.856 
L 198.964796 122.440615 
L 202.433327 125.025231 
L 205.901859 127.609846 
L 209.37039 130.194462 
L 212.838922 132.779077 
L 216.307453 135.363692 
L 219.775984 137.948308 
L 223.244516 140.532923 
L 226.713047 143.117538 
L 230.181579 145.702154 
L 233.65011 148.286769 
L 237.118642 150.871385 
L 240.587173 153.456 
L 244.055705 156.040615 
L 247.524236 158.625231 
L 250.992768 161.209846 
L 254.461299 163.794462 
L 257.929831 166.379077 
L 261.398362 168.963692 
L 264.866894 171.548308 
L 268.335425 174.132923 
L 271.803957 176.717538 
L 275.272488 179.302154 
L 278.741019 181.886769 
L 282.209551 184.471385 
L 285.678082 187.056 
L 289.146614 189.640615 
L 292.615145 192.225231 
L 296.083677 194.809846 
L 299.552208 197.394462 
L 303.02074 199.979077 
L 306.489271 202.563692 
L 309.957803 205.148308 
L 313.426334 207.732923 
L 316.894866 210.317538 
L 320.363397 212.902154 
L 323.831929 215.486769 
L 327.30046 218.071385 
L 330.768991 220.656 
L 334.237523 223.240615 
L 337.706054 225.825231 
L 341.174586 228.409846 
L 344.643117 230.994462 
L 348.111649 233.579077 
L 351.58018 236.163692 
L 355.048712 238.748308 
L 358.517243 241.332923 
L 361.985775 243.917538 
L 365.454306 246.502154 
L 368.922838 249.086769 
L 372.391369 251.671385 
L 375.859901 254.256 
L 379.328432 256.840615 
L 382.796964 259.425231 
L 386.265495 262.009846 
L 389.734026 264.594462 
" clip-path="url(#p6fa8d40c68)" style="fill: none; stroke: #8000ff; stroke-width: 2; stroke-linecap: square"/>
   </g>
   <g class="patch">
    <path d="M 39.481719 269.712 
L 39.481719 3.6 
" style="fill: none; stroke:var(--black); stroke-width: 0.8; stroke-linejoin: miter; stroke-linecap: square"/>
   </g>
   <g class="patch">
    <path d="M 39.481719 269.712 
L 396.601719 269.712 
" style="fill: none; stroke:var(--black); stroke-width: 0.8; stroke-linejoin: miter; stroke-linecap: square"/>
   </g>
   <g class="legend">
    <g class="patch">
     <path d="M 269.092344 26.420312 
L 389.601719 26.420312 
Q 391.601719 26.420312 391.601719 24.420312 
L 391.601719 10.6 
Q 391.601719 8.6 389.601719 8.6 
L 269.092344 8.6 
Q 267.092344 8.6 267.092344 10.6 
L 267.092344 24.420312 
Q 267.092344 26.420312 269.092344 26.420312 
L 269.092344 26.420312 
z
" style="fill: none; opacity: 0.9; stroke: #cccccc; stroke-linejoin: miter"/>
    </g>
    <g class="patch">
     <path d="M 271.092344 20.198437 
L 291.092344 20.198437 
L 291.092344 13.198437 
L 271.092344 13.198437 
z
" style="fill: #8000ff; opacity: 0.15"/>
    </g>
    <g id="text_15" class="text">
     <!-- Infeasible Region -->
     <g transform="translate(299.092344 20.198437) scale(0.1 -0.1)">
      <defs>
       <path id="DejaVuSerif-49" d="M 1581 331 
L 2175 331 
L 2175 0 
L 353 0 
L 353 331 
L 947 331 
L 947 4331 
L 353 4331 
L 353 4666 
L 2175 4666 
L 2175 4331 
L 1581 4331 
L 1581 331 
z
" transform="scale(0.015625)"/>
       <path id="DejaVuSerif-6e" d="M 263 0 
L 263 331 
L 781 331 
L 781 2988 
L 231 2988 
L 231 3322 
L 1356 3322 
L 1356 2731 
Q 1516 3069 1770 3241 
Q 2025 3413 2363 3413 
Q 2913 3413 3172 3097 
Q 3431 2781 3431 2113 
L 3431 331 
L 3944 331 
L 3944 0 
L 2356 0 
L 2356 331 
L 2853 331 
L 2853 1931 
Q 2853 2541 2703 2767 
Q 2553 2994 2175 2994 
Q 1775 2994 1565 2701 
Q 1356 2409 1356 1850 
L 1356 331 
L 1856 331 
L 1856 0 
L 263 0 
z
" transform="scale(0.015625)"/>
       <path id="DejaVuSerif-66" d="M 2753 4078 
L 2450 4078 
Q 2447 4313 2317 4434 
Q 2188 4556 1941 4556 
Q 1619 4556 1487 4379 
Q 1356 4203 1356 3750 
L 1356 3322 
L 2284 3322 
L 2284 2988 
L 1356 2988 
L 1356 331 
L 2094 331 
L 2094 0 
L 231 0 
L 231 331 
L 781 331 
L 781 2988 
L 231 2988 
L 231 3322 
L 781 3322 
L 781 3738 
Q 781 4294 1070 4578 
Q 1359 4863 1919 4863 
Q 2128 4863 2337 4825 
Q 2547 4788 2753 4709 
L 2753 4078 
z
" transform="scale(0.015625)"/>
       <path id="DejaVuSerif-65" d="M 3469 1600 
L 991 1600 
L 991 1575 
Q 991 903 1244 561 
Q 1497 219 1991 219 
Q 2369 219 2611 417 
Q 2853 616 2950 1006 
L 3413 1006 
Q 3275 459 2904 184 
Q 2534 -91 1931 -91 
Q 1203 -91 761 389 
Q 319 869 319 1663 
Q 319 2450 753 2931 
Q 1188 3413 1894 3413 
Q 2647 3413 3050 2948 
Q 3453 2484 3469 1600 
z
M 2791 1931 
Q 2772 2513 2545 2808 
Q 2319 3103 1894 3103 
Q 1497 3103 1269 2806 
Q 1041 2509 991 1931 
L 2791 1931 
z
" transform="scale(0.015625)"/>
       <path id="DejaVuSerif-61" d="M 2547 1044 
L 2547 1747 
L 1806 1747 
Q 1378 1747 1168 1562 
Q 959 1378 959 997 
Q 959 650 1171 447 
Q 1384 244 1747 244 
Q 2106 244 2326 466 
Q 2547 688 2547 1044 
z
M 3122 2075 
L 3122 331 
L 3634 331 
L 3634 0 
L 2547 0 
L 2547 359 
Q 2356 128 2106 18 
Q 1856 -91 1522 -91 
Q 969 -91 644 203 
Q 319 497 319 997 
Q 319 1513 691 1797 
Q 1063 2081 1741 2081 
L 2547 2081 
L 2547 2309 
Q 2547 2688 2317 2895 
Q 2088 3103 1672 3103 
Q 1328 3103 1125 2947 
Q 922 2791 872 2484 
L 575 2484 
L 575 3156 
Q 875 3284 1158 3348 
Q 1441 3413 1709 3413 
Q 2400 3413 2761 3070 
Q 3122 2728 3122 2075 
z
" transform="scale(0.015625)"/>
       <path id="DejaVuSerif-73" d="M 359 184 
L 359 959 
L 691 959 
Q 703 588 923 403 
Q 1144 219 1575 219 
Q 1963 219 2166 364 
Q 2369 509 2369 788 
Q 2369 1006 2220 1140 
Q 2072 1275 1594 1428 
L 1178 1569 
Q 750 1706 558 1912 
Q 366 2119 366 2438 
Q 366 2894 700 3153 
Q 1034 3413 1625 3413 
Q 1888 3413 2178 3344 
Q 2469 3275 2778 3144 
L 2778 2419 
L 2447 2419 
Q 2434 2741 2221 2922 
Q 2009 3103 1644 3103 
Q 1281 3103 1095 2975 
Q 909 2847 909 2591 
Q 909 2381 1050 2254 
Q 1191 2128 1613 1997 
L 2069 1856 
Q 2541 1709 2748 1489 
Q 2956 1269 2956 922 
Q 2956 450 2595 179 
Q 2234 -91 1600 -91 
Q 1278 -91 972 -22 
Q 666 47 359 184 
z
" transform="scale(0.015625)"/>
       <path id="DejaVuSerif-69" d="M 622 4353 
Q 622 4497 726 4603 
Q 831 4709 978 4709 
Q 1122 4709 1226 4603 
Q 1331 4497 1331 4353 
Q 1331 4206 1228 4103 
Q 1125 4000 978 4000 
Q 831 4000 726 4103 
Q 622 4206 622 4353 
z
M 1356 331 
L 1900 331 
L 1900 0 
L 231 0 
L 231 331 
L 781 331 
L 781 2988 
L 231 2988 
L 231 3322 
L 1356 3322 
L 1356 331 
z
" transform="scale(0.015625)"/>
       <path id="DejaVuSerif-62" d="M 738 331 
L 738 4531 
L 184 4531 
L 184 4863 
L 1313 4863 
L 1313 2803 
Q 1481 3116 1742 3264 
Q 2003 3413 2388 3413 
Q 3000 3413 3387 2928 
Q 3775 2444 3775 1663 
Q 3775 881 3387 395 
Q 3000 -91 2388 -91 
Q 2003 -91 1742 57 
Q 1481 206 1313 519 
L 1313 0 
L 184 0 
L 184 331 
L 738 331 
z
M 1313 1497 
Q 1313 897 1542 583 
Q 1772 269 2209 269 
Q 2650 269 2876 622 
Q 3103 975 3103 1663 
Q 3103 2353 2876 2703 
Q 2650 3053 2209 3053 
Q 1772 3053 1542 2737 
Q 1313 2422 1313 1825 
L 1313 1497 
z
" transform="scale(0.015625)"/>
       <path id="DejaVuSerif-6c" d="M 1313 331 
L 1856 331 
L 1856 0 
L 184 0 
L 184 331 
L 738 331 
L 738 4531 
L 184 4531 
L 184 4863 
L 1313 4863 
L 1313 331 
z
" transform="scale(0.015625)"/>
       <path id="DejaVuSerif-20" transform="scale(0.015625)"/>
       <path id="DejaVuSerif-52" d="M 3066 2316 
Q 3284 2256 3442 2114 
Q 3600 1972 3725 1716 
L 4403 331 
L 4972 331 
L 4972 0 
L 3872 0 
L 3144 1484 
Q 2934 1916 2759 2042 
Q 2584 2169 2278 2169 
L 1581 2169 
L 1581 331 
L 2241 331 
L 2241 0 
L 353 0 
L 353 331 
L 947 331 
L 947 4331 
L 353 4331 
L 353 4666 
L 2719 4666 
Q 3400 4666 3770 4341 
Q 4141 4016 4141 3419 
Q 4141 2938 3870 2661 
Q 3600 2384 3066 2316 
z
M 1581 2503 
L 2503 2503 
Q 2975 2503 3200 2726 
Q 3425 2950 3425 3419 
Q 3425 3888 3200 4109 
Q 2975 4331 2503 4331 
L 1581 4331 
L 1581 2503 
z
" transform="scale(0.015625)"/>
       <path id="DejaVuSerif-67" d="M 3359 2988 
L 3359 72 
Q 3359 -644 2965 -1033 
Q 2572 -1422 1844 -1422 
Q 1516 -1422 1216 -1362 
Q 916 -1303 641 -1184 
L 641 -488 
L 941 -488 
Q 997 -813 1206 -963 
Q 1416 -1113 1806 -1113 
Q 2313 -1113 2548 -827 
Q 2784 -541 2784 72 
L 2784 519 
Q 2616 206 2355 57 
Q 2094 -91 1709 -91 
Q 1097 -91 708 395 
Q 319 881 319 1663 
Q 319 2444 706 2928 
Q 1094 3413 1709 3413 
Q 2094 3413 2355 3264 
Q 2616 3116 2784 2803 
L 2784 3322 
L 3909 3322 
L 3909 2988 
L 3359 2988 
z
M 2784 1825 
Q 2784 2422 2554 2737 
Q 2325 3053 1888 3053 
Q 1444 3053 1217 2703 
Q 991 2353 991 1663 
Q 991 975 1217 622 
Q 1444 269 1888 269 
Q 2325 269 2554 583 
Q 2784 897 2784 1497 
L 2784 1825 
z
" transform="scale(0.015625)"/>
       <path id="DejaVuSerif-6f" d="M 1925 219 
Q 2388 219 2623 584 
Q 2859 950 2859 1663 
Q 2859 2375 2623 2739 
Q 2388 3103 1925 3103 
Q 1463 3103 1227 2739 
Q 991 2375 991 1663 
Q 991 950 1228 584 
Q 1466 219 1925 219 
z
M 1925 -91 
Q 1200 -91 759 389 
Q 319 869 319 1663 
Q 319 2456 758 2934 
Q 1197 3413 1925 3413 
Q 2653 3413 3092 2934 
Q 3531 2456 3531 1663 
Q 3531 869 3092 389 
Q 2653 -91 1925 -91 
z
" transform="scale(0.015625)"/>
      </defs>
      <use xlink:href="#DejaVuSerif-49"/>
      <use xlink:href="#DejaVuSerif-6e" transform="translate(39.501953 0)"/>
      <use xlink:href="#DejaVuSerif-66" transform="translate(103.90625 0)"/>
      <use xlink:href="#DejaVuSerif-65" transform="translate(140.917969 0)"/>
      <use xlink:href="#DejaVuSerif-61" transform="translate(200.097656 0)"/>
      <use xlink:href="#DejaVuSerif-73" transform="translate(259.716797 0)"/>
      <use xlink:href="#DejaVuSerif-69" transform="translate(311.035156 0)"/>
      <use xlink:href="#DejaVuSerif-62" transform="translate(343.017578 0)"/>
      <use xlink:href="#DejaVuSerif-6c" transform="translate(407.03125 0)"/>
      <use xlink:href="#DejaVuSerif-65" transform="translate(439.013672 0)"/>
      <use xlink:href="#DejaVuSerif-20" transform="translate(498.193359 0)"/>
      <use xlink:href="#DejaVuSerif-52" transform="translate(529.980469 0)"/>
      <use xlink:href="#DejaVuSerif-65" transform="translate(605.273438 0)"/>
      <use xlink:href="#DejaVuSerif-67" transform="translate(664.453125 0)"/>
      <use xlink:href="#DejaVuSerif-69" transform="translate(728.466797 0)"/>
      <use xlink:href="#DejaVuSerif-6f" transform="translate(760.449219 0)"/>
      <use xlink:href="#DejaVuSerif-6e" transform="translate(820.654297 0)"/>
     </g>
    </g>
   </g>
  </g>
 </g>
 <defs>
  <clipPath id="p6fa8d40c68">
   <rect x="39.481719" y="3.6" width="357.12" height="266.112"/>
  </clipPath>
 </defs>
</svg>
