<?xml version="1.0" encoding="utf-8" standalone="no"?>
<!DOCTYPE svg PUBLIC "-//W3C//DTD SVG 1.1//EN"
  "http://www.w3.org/Graphics/SVG/1.1/DTD/svg11.dtd">
<svg xmlns:xlink="http://www.w3.org/1999/xlink" width="400.201719pt" height="304.810091pt" viewBox="0 0 400.201719 304.810091" xmlns="http://www.w3.org/2000/svg" version="1.1">
<style>:root { --axis-color:#000; --grid-stroke:rgba(0,0,0,0.2); --plot3d-stroke:rgba(0,0,0,0.3); --plot3d-grid:rgba(0,0,0,0.2); }
@media (prefers-color-scheme:dark) { :root { --axis-color:#fff; --grid-stroke:rgba(255,255,255,0.2); --plot3d-stroke:rgba(255,255,255,0.3); --plot3d-grid:rgba(255,255,255,0.2); } }
.black{fill:#000000;stroke:#000000;}:root{--black:#000000;}.c1{fill:#FF0001;stroke:#FF0001;}:root{--c1:#FF0001;}.c2{fill:#00FF02;stroke:#00FF02;}:root{--c2:#00FF02;}.c3{fill:#0000FF;stroke:#0000FF;}:root{--c3:#0000FF;}.c4{fill:#FF00FF;stroke:#FF00FF;}:root{--c4:#FF00FF;}.c5{fill:#00FFFF;stroke:#00FFFF;}:root{--c5:#00FFFF;}.c6{fill:#FFFF00;stroke:#FFFF00;}:root{--c6:#FFFF00;}.c7{fill:#FF8000;stroke:#FF8000;}:root{--c7:#FF8000;}.c8{fill:#8000FF;stroke:#8000FF;}:root{--c8:#8000FF;}.gray{fill:#7f7f7f;stroke:#7f7f7f;}:root{--gray:#7f7f7f;}.grey{fill:#7f7f7f;stroke:#7f7f7f;}:root{--grey:#7f7f7f;}.octonary{fill:#bcbd22;stroke:#bcbd22;}:root{--octonary:#bcbd22;}.primary{fill:#d62728;stroke:#d62728;}:root{--primary:#d62728;}.quaternary{fill:#9467bd;stroke:#9467bd;}:root{--quaternary:#9467bd;}.quinary{fill:#8c564b;stroke:#8c564b;}:root{--quinary:#8c564b;}.secondary{fill:#2ca02c;stroke:#2ca02c;}:root{--secondary:#2ca02c;}.senary{fill:#e377c2;stroke:#e377c2;}:root{--senary:#e377c2;}.septenary{fill:#7f7f7f;stroke:#7f7f7f;}:root{--septenary:#7f7f7f;}.tertiary{fill:#1f77b4;stroke:#1f77b4;}:root{--tertiary:#1f77b4;}.white{fill:#ffffff;stroke:#ffffff;}:root{--white:#ffffff;}
@media (prefers-color-scheme:dark) { .black{fill:#FFFFFF;stroke:#FFFFFF;}:root{--black:#FFFFFF;}.c1{fill:#FF0001;stroke:#FF0001;}:root{--c1:#FF0001;}.c2{fill:#00FF02;stroke:#00FF02;}:root{--c2:#00FF02;}.c3{fill:#0000FF;stroke:#0000FF;}:root{--c3:#0000FF;}.c4{fill:#FF00FF;stroke:#FF00FF;}:root{--c4:#FF00FF;}.c5{fill:#00FFFF;stroke:#00FFFF;}:root{--c5:#00FFFF;}.c6{fill:#FFFF00;stroke:#FFFF00;}:root{--c6:#FFFF00;}.c7{fill:#FF8000;stroke:#FF8000;}:root{--c7:#FF8000;}.c8{fill:#8000FF;stroke:#8000FF;}:root{--c8:#8000FF;}.gray{fill:#CCCCCC;stroke:#CCCCCC;}:root{--gray:#CCCCCC;}.grey{fill:#CCCCCC;stroke:#CCCCCC;}:root{--grey:#CCCCCC;}.octonary{fill:#E6DB74;stroke:#E6DB74;}:root{--octonary:#E6DB74;}.primary{fill:#FF4A98;stroke:#FF4A98;}:root{--primary:#FF4A98;}.quaternary{fill:#B4A0FF;stroke:#B4A0FF;}:root{--quaternary:#B4A0FF;}.quinary{fill:#FFB86B;stroke:#FFB86B;}:root{--quinary:#FFB86B;}.secondary{fill:#0AFAFA;stroke:#0AFAFA;}:root{--secondary:#0AFAFA;}.senary{fill:#FF79C6;stroke:#FF79C6;}:root{--senary:#FF79C6;}.septenary{fill:#CCCCCC;stroke:#CCCCCC;}:root{--septenary:#CCCCCC;}.tertiary{fill:#7F83FF;stroke:#7F83FF;}:root{--tertiary:#7F83FF;}.white{fill:#000000;stroke:#000000;}:root{--white:#000000;} }
text,.text { fill:var(--axis-color)!important; stroke:none!important; }
.axis line,.axis path,.tick line,.tick path,path.domain,line.grid { stroke:var(--axis-color)!important; }
.legend text { fill:var(--axis-color)!important; }
.patch path[style*="stroke: currentColor"] { stroke:var(--axis-color)!important; }
g.legend>g:first-child>path:first-child { fill:rgba(255,255,255,0.8)!important; stroke:rgba(0,0,0,0.1)!important; }
@media (prefers-color-scheme:dark) { g.legend>g:first-child>path:first-child { fill:rgba(26,26,26,0.8)!important; stroke:rgba(255,255,255,0.1)!important; } }
.plot3d path,.plot3d polygon { stroke:var(--plot3d-stroke)!important; }
.plot3d-grid line { stroke:var(--plot3d-grid)!important; }
.plot3d-surface path[style*="fill:"] { fill-opacity:0.9!important; }
@media (prefers-color-scheme:dark) { .plot3d-surface path[style*="fill:"] { fill-opacity:0.95!important; filter:saturate(1.2)!important; } }</style>

 <metadata>
  <rdf:RDF xmlns:dc="http://purl.org/dc/elements/1.1/" xmlns:cc="http://creativecommons.org/ns#" xmlns:rdf="http://www.w3.org/1999/02/22-rdf-syntax-ns#">
   <cc:Work>
    <dc:type rdf:resource="http://purl.org/dc/dcmitype/StillImage"/>
    <dc:date>2026-01-03T22:32:04.783001</dc:date>
    <dc:format>image/svg+xml</dc:format>
    <dc:creator>
     <cc:Agent>
      <dc:title>Matplotlib v3.10.0, https://matplotlib.org/</dc:title>
     </cc:Agent>
    </dc:creator>
   </cc:Work>
  </rdf:RDF>
 </metadata>
 <defs>
  <style type="text/css">*{stroke-linejoin: round; stroke-linecap: butt}</style>
 </defs>
 <g id="figure_1">
  <g class="patch">
   <path d="M 0 304.810091 
L 400.201719 304.810091 
L 400.201719 0 
L 0 0 
L 0 304.810091 
z
" style="fill: none"/>
  </g>
  <g id="axes_1">
   <g class="patch">
    <path d="M 39.481719 269.886029 
L 396.601719 269.886029 
L 396.601719 3.774029 
L 39.481719 3.774029 
L 39.481719 269.886029 
z
" style="fill: none"/>
   </g>
   <g class="axis">
    <g class="tick xtick">
     <g id="line2d_1">
      <path d="M 43.836841 269.886029 
L 43.836841 3.774029 
" clip-path="url(#p07d506cbc2)" style="fill: none; stroke: #b0b0b0; stroke-opacity: 0.15; stroke-width: 0.5; stroke-linecap: square"/>
     </g>
     <g id="line2d_2">
      <defs>
       <path id="m56862830ed" d="M 0 0 
L 0 3.5 
" style="stroke:var(--black); stroke-width: 0.8"/>
      </defs>
      <g>
       <use xlink:href="#m56862830ed" x="43.836841" y="269.886029" style="stroke:var(--black); stroke-width: 0.8"/>
      </g>
     </g>
     <g id="text_1" class="text">
      <!-- −2 -->
      <g transform="translate(37.202856 283.724622) scale(0.09 -0.09)">
       <defs>
        <path id="DejaVuSerif-2212" d="M 678 2259 
L 4684 2259 
L 4684 1753 
L 678 1753 
L 678 2259 
z
" transform="scale(0.015625)"/>
        <path id="DejaVuSerif-32" d="M 819 3553 
L 469 3553 
L 469 4384 
Q 803 4563 1142 4656 
Q 1481 4750 1806 4750 
Q 2534 4750 2956 4397 
Q 3378 4044 3378 3438 
Q 3378 2753 2422 1800 
Q 2347 1728 2309 1691 
L 1131 513 
L 3078 513 
L 3078 1088 
L 3444 1088 
L 3444 0 
L 434 0 
L 434 341 
L 1850 1753 
Q 2319 2222 2519 2614 
Q 2719 3006 2719 3438 
Q 2719 3909 2473 4175 
Q 2228 4441 1797 4441 
Q 1350 4441 1106 4219 
Q 863 3997 819 3553 
z
" transform="scale(0.015625)"/>
       </defs>
       <use xlink:href="#DejaVuSerif-2212"/>
       <use xlink:href="#DejaVuSerif-32" transform="translate(83.789062 0)"/>
      </g>
     </g>
    </g>
    <g class="tick xtick">
     <g id="line2d_3">
      <path d="M 87.38806 269.886029 
L 87.38806 3.774029 
" clip-path="url(#p07d506cbc2)" style="fill: none; stroke: #b0b0b0; stroke-opacity: 0.15; stroke-width: 0.5; stroke-linecap: square"/>
     </g>
     <g id="line2d_4">
      <g>
       <use xlink:href="#m56862830ed" x="87.38806" y="269.886029" style="stroke:var(--black); stroke-width: 0.8"/>
      </g>
     </g>
     <g id="text_2" class="text">
      <!-- −1 -->
      <g transform="translate(80.754076 283.724622) scale(0.09 -0.09)">
       <defs>
        <path id="DejaVuSerif-31" d="M 909 0 
L 909 331 
L 1722 331 
L 1722 4213 
L 781 3603 
L 781 4013 
L 1919 4750 
L 2350 4750 
L 2350 331 
L 3163 331 
L 3163 0 
L 909 0 
z
" transform="scale(0.015625)"/>
       </defs>
       <use xlink:href="#DejaVuSerif-2212"/>
       <use xlink:href="#DejaVuSerif-31" transform="translate(83.789062 0)"/>
      </g>
     </g>
    </g>
    <g class="tick xtick">
     <g id="line2d_5">
      <path d="M 130.93928 269.886029 
L 130.93928 3.774029 
" clip-path="url(#p07d506cbc2)" style="fill: none; stroke: #b0b0b0; stroke-opacity: 0.15; stroke-width: 0.5; stroke-linecap: square"/>
     </g>
     <g id="line2d_6">
      <g>
       <use xlink:href="#m56862830ed" x="130.93928" y="269.886029" style="stroke:var(--black); stroke-width: 0.8"/>
      </g>
     </g>
     <g id="text_3" class="text">
      <!-- 0 -->
      <g transform="translate(128.076155 283.724622) scale(0.09 -0.09)">
       <defs>
        <path id="DejaVuSerif-30" d="M 2034 219 
Q 2513 219 2750 744 
Q 2988 1269 2988 2328 
Q 2988 3391 2750 3916 
Q 2513 4441 2034 4441 
Q 1556 4441 1318 3916 
Q 1081 3391 1081 2328 
Q 1081 1269 1318 744 
Q 1556 219 2034 219 
z
M 2034 -91 
Q 1275 -91 848 546 
Q 422 1184 422 2328 
Q 422 3475 848 4112 
Q 1275 4750 2034 4750 
Q 2797 4750 3222 4112 
Q 3647 3475 3647 2328 
Q 3647 1184 3222 546 
Q 2797 -91 2034 -91 
z
" transform="scale(0.015625)"/>
       </defs>
       <use xlink:href="#DejaVuSerif-30"/>
      </g>
     </g>
    </g>
    <g class="tick xtick">
     <g id="line2d_7">
      <path d="M 174.490499 269.886029 
L 174.490499 3.774029 
" clip-path="url(#p07d506cbc2)" style="fill: none; stroke: #b0b0b0; stroke-opacity: 0.15; stroke-width: 0.5; stroke-linecap: square"/>
     </g>
     <g id="line2d_8">
      <g>
       <use xlink:href="#m56862830ed" x="174.490499" y="269.886029" style="stroke:var(--black); stroke-width: 0.8"/>
      </g>
     </g>
     <g id="text_4" class="text">
      <!-- 1 -->
      <g transform="translate(171.627374 283.724622) scale(0.09 -0.09)">
       <use xlink:href="#DejaVuSerif-31"/>
      </g>
     </g>
    </g>
    <g class="tick xtick">
     <g id="line2d_9">
      <path d="M 218.041719 269.886029 
L 218.041719 3.774029 
" clip-path="url(#p07d506cbc2)" style="fill: none; stroke: #b0b0b0; stroke-opacity: 0.15; stroke-width: 0.5; stroke-linecap: square"/>
     </g>
     <g id="line2d_10">
      <g>
       <use xlink:href="#m56862830ed" x="218.041719" y="269.886029" style="stroke:var(--black); stroke-width: 0.8"/>
      </g>
     </g>
     <g id="text_5" class="text">
      <!-- 2 -->
      <g transform="translate(215.178594 283.724622) scale(0.09 -0.09)">
       <use xlink:href="#DejaVuSerif-32"/>
      </g>
     </g>
    </g>
    <g class="tick xtick">
     <g id="line2d_11">
      <path d="M 261.592938 269.886029 
L 261.592938 3.774029 
" clip-path="url(#p07d506cbc2)" style="fill: none; stroke: #b0b0b0; stroke-opacity: 0.15; stroke-width: 0.5; stroke-linecap: square"/>
     </g>
     <g id="line2d_12">
      <g>
       <use xlink:href="#m56862830ed" x="261.592938" y="269.886029" style="stroke:var(--black); stroke-width: 0.8"/>
      </g>
     </g>
     <g id="text_6" class="text">
      <!-- 3 -->
      <g transform="translate(258.729813 283.724622) scale(0.09 -0.09)">
       <defs>
        <path id="DejaVuSerif-33" d="M 622 4469 
Q 988 4606 1323 4678 
Q 1659 4750 1953 4750 
Q 2638 4750 3022 4454 
Q 3406 4159 3406 3634 
Q 3406 3213 3140 2930 
Q 2875 2647 2388 2547 
Q 2963 2466 3280 2130 
Q 3597 1794 3597 1259 
Q 3597 606 3158 257 
Q 2719 -91 1894 -91 
Q 1528 -91 1179 -12 
Q 831 66 488 225 
L 488 1131 
L 838 1131 
Q 869 681 1141 450 
Q 1413 219 1906 219 
Q 2384 219 2661 495 
Q 2938 772 2938 1253 
Q 2938 1803 2653 2086 
Q 2369 2369 1819 2369 
L 1522 2369 
L 1522 2688 
L 1678 2688 
Q 2225 2688 2498 2914 
Q 2772 3141 2772 3597 
Q 2772 4006 2547 4223 
Q 2322 4441 1900 4441 
Q 1478 4441 1245 4241 
Q 1013 4041 972 3647 
L 622 3647 
L 622 4469 
z
" transform="scale(0.015625)"/>
       </defs>
       <use xlink:href="#DejaVuSerif-33"/>
      </g>
     </g>
    </g>
    <g class="tick xtick">
     <g id="line2d_13">
      <path d="M 305.144158 269.886029 
L 305.144158 3.774029 
" clip-path="url(#p07d506cbc2)" style="fill: none; stroke: #b0b0b0; stroke-opacity: 0.15; stroke-width: 0.5; stroke-linecap: square"/>
     </g>
     <g id="line2d_14">
      <g>
       <use xlink:href="#m56862830ed" x="305.144158" y="269.886029" style="stroke:var(--black); stroke-width: 0.8"/>
      </g>
     </g>
     <g id="text_7" class="text">
      <!-- 4 -->
      <g transform="translate(302.281033 283.724622) scale(0.09 -0.09)">
       <defs>
        <path id="DejaVuSerif-34" d="M 2234 1581 
L 2234 4063 
L 641 1581 
L 2234 1581 
z
M 3609 0 
L 1484 0 
L 1484 331 
L 2234 331 
L 2234 1247 
L 197 1247 
L 197 1588 
L 2241 4750 
L 2859 4750 
L 2859 1581 
L 3750 1581 
L 3750 1247 
L 2859 1247 
L 2859 331 
L 3609 331 
L 3609 0 
z
" transform="scale(0.015625)"/>
       </defs>
       <use xlink:href="#DejaVuSerif-34"/>
      </g>
     </g>
    </g>
    <g class="tick xtick">
     <g id="line2d_15">
      <path d="M 348.695377 269.886029 
L 348.695377 3.774029 
" clip-path="url(#p07d506cbc2)" style="fill: none; stroke: #b0b0b0; stroke-opacity: 0.15; stroke-width: 0.5; stroke-linecap: square"/>
     </g>
     <g id="line2d_16">
      <g>
       <use xlink:href="#m56862830ed" x="348.695377" y="269.886029" style="stroke:var(--black); stroke-width: 0.8"/>
      </g>
     </g>
     <g id="text_8" class="text">
      <!-- 5 -->
      <g transform="translate(345.832252 283.724622) scale(0.09 -0.09)">
       <defs>
        <path id="DejaVuSerif-35" d="M 3219 4666 
L 3219 4153 
L 1081 4153 
L 1081 2816 
Q 1244 2928 1461 2984 
Q 1678 3041 1947 3041 
Q 2703 3041 3140 2622 
Q 3578 2203 3578 1478 
Q 3578 738 3136 323 
Q 2694 -91 1894 -91 
Q 1572 -91 1234 -12 
Q 897 66 544 225 
L 544 1131 
L 897 1131 
Q 925 688 1179 453 
Q 1434 219 1894 219 
Q 2388 219 2653 544 
Q 2919 869 2919 1478 
Q 2919 2084 2655 2407 
Q 2391 2731 1894 2731 
Q 1613 2731 1398 2631 
Q 1184 2531 1019 2322 
L 750 2322 
L 750 4666 
L 3219 4666 
z
" transform="scale(0.015625)"/>
       </defs>
       <use xlink:href="#DejaVuSerif-35"/>
      </g>
     </g>
    </g>
    <g class="tick xtick">
     <g id="line2d_17">
      <path d="M 392.246597 269.886029 
L 392.246597 3.774029 
" clip-path="url(#p07d506cbc2)" style="fill: none; stroke: #b0b0b0; stroke-opacity: 0.15; stroke-width: 0.5; stroke-linecap: square"/>
     </g>
     <g id="line2d_18">
      <g>
       <use xlink:href="#m56862830ed" x="392.246597" y="269.886029" style="stroke:var(--black); stroke-width: 0.8"/>
      </g>
     </g>
     <g id="text_9" class="text">
      <!-- 6 -->
      <g transform="translate(389.383472 283.724622) scale(0.09 -0.09)">
       <defs>
        <path id="DejaVuSerif-36" d="M 2094 219 
Q 2534 219 2771 542 
Q 3009 866 3009 1472 
Q 3009 2078 2771 2401 
Q 2534 2725 2094 2725 
Q 1647 2725 1412 2412 
Q 1178 2100 1178 1509 
Q 1178 888 1415 553 
Q 1653 219 2094 219 
z
M 1075 2569 
Q 1288 2803 1556 2918 
Q 1825 3034 2163 3034 
Q 2859 3034 3264 2615 
Q 3669 2197 3669 1472 
Q 3669 763 3233 336 
Q 2797 -91 2069 -91 
Q 1278 -91 853 498 
Q 428 1088 428 2181 
Q 428 3406 931 4078 
Q 1434 4750 2350 4750 
Q 2597 4750 2869 4703 
Q 3141 4656 3425 4563 
L 3425 3794 
L 3072 3794 
Q 3034 4109 2831 4275 
Q 2628 4441 2284 4441 
Q 1678 4441 1381 3981 
Q 1084 3522 1075 2569 
z
" transform="scale(0.015625)"/>
       </defs>
       <use xlink:href="#DejaVuSerif-36"/>
      </g>
     </g>
    </g>
    <g id="text_10" class="text">
     <!-- $x_1$ -->
     <g transform="translate(212.101719 298.714466) scale(0.12 -0.12)">
      <defs>
       <path id="Cmmi10-78" d="M 500 184 
Q 613 97 819 97 
Q 1019 97 1172 289 
Q 1325 481 1381 709 
L 1672 1844 
Q 1741 2153 1741 2266 
Q 1741 2425 1652 2544 
Q 1563 2663 1403 2663 
Q 1200 2663 1022 2536 
Q 844 2409 722 2214 
Q 600 2019 550 1819 
Q 538 1778 500 1778 
L 422 1778 
Q 372 1778 372 1838 
L 372 1856 
Q 434 2094 584 2320 
Q 734 2547 951 2687 
Q 1169 2828 1416 2828 
Q 1650 2828 1839 2703 
Q 2028 2578 2106 2363 
Q 2216 2559 2386 2693 
Q 2556 2828 2759 2828 
Q 2897 2828 3040 2779 
Q 3184 2731 3275 2631 
Q 3366 2531 3366 2381 
Q 3366 2219 3261 2101 
Q 3156 1984 2994 1984 
Q 2891 1984 2822 2050 
Q 2753 2116 2753 2216 
Q 2753 2350 2845 2451 
Q 2938 2553 3066 2572 
Q 2950 2663 2747 2663 
Q 2541 2663 2389 2472 
Q 2238 2281 2175 2047 
L 1894 916 
Q 1825 659 1825 494 
Q 1825 331 1917 214 
Q 2009 97 2163 97 
Q 2463 97 2698 361 
Q 2934 625 3009 941 
Q 3022 978 3059 978 
L 3138 978 
Q 3163 978 3178 961 
Q 3194 944 3194 922 
Q 3194 916 3188 903 
Q 3097 522 2806 225 
Q 2516 -72 2150 -72 
Q 1916 -72 1727 54 
Q 1538 181 1459 397 
Q 1359 209 1182 68 
Q 1006 -72 806 -72 
Q 669 -72 523 -23 
Q 378 25 287 125 
Q 197 225 197 378 
Q 197 528 301 651 
Q 406 775 563 775 
Q 669 775 741 711 
Q 813 647 813 544 
Q 813 409 723 309 
Q 634 209 500 184 
z
" transform="scale(0.015625)"/>
       <path id="Cmr10-31" d="M 594 0 
L 594 225 
Q 1394 225 1394 428 
L 1394 3788 
Q 1063 3628 556 3628 
L 556 3853 
Q 1341 3853 1741 4263 
L 1831 4263 
Q 1853 4263 1873 4245 
Q 1894 4228 1894 4206 
L 1894 428 
Q 1894 225 2694 225 
L 2694 0 
L 594 0 
z
" transform="scale(0.015625)"/>
      </defs>
      <use xlink:href="#Cmmi10-78" transform="translate(0 0.8125)"/>
      <use xlink:href="#Cmr10-31" transform="translate(57.080078 -16.19375) scale(0.7)"/>
     </g>
    </g>
   </g>
   <g class="axis">
    <g class="tick ytick">
     <g id="line2d_19">
      <path d="M 39.481719 266.64076 
L 396.601719 266.64076 
" clip-path="url(#p07d506cbc2)" style="fill: none; stroke: #b0b0b0; stroke-opacity: 0.15; stroke-width: 0.5; stroke-linecap: square"/>
     </g>
     <g id="line2d_20">
      <defs>
       <path id="m451a6860cc" d="M 0 0 
L -3.5 0 
" style="stroke:var(--black); stroke-width: 0.8"/>
      </defs>
      <g>
       <use xlink:href="#m451a6860cc" x="39.481719" y="266.64076" style="stroke:var(--black); stroke-width: 0.8"/>
      </g>
     </g>
     <g id="text_11" class="text">
      <!-- −2 -->
      <g transform="translate(19.21375 270.060057) scale(0.09 -0.09)">
       <use xlink:href="#DejaVuSerif-2212"/>
       <use xlink:href="#DejaVuSerif-32" transform="translate(83.789062 0)"/>
      </g>
     </g>
    </g>
    <g class="tick ytick">
     <g id="line2d_21">
      <path d="M 39.481719 234.188077 
L 396.601719 234.188077 
" clip-path="url(#p07d506cbc2)" style="fill: none; stroke: #b0b0b0; stroke-opacity: 0.15; stroke-width: 0.5; stroke-linecap: square"/>
     </g>
     <g id="line2d_22">
      <g>
       <use xlink:href="#m451a6860cc" x="39.481719" y="234.188077" style="stroke:var(--black); stroke-width: 0.8"/>
      </g>
     </g>
     <g id="text_12" class="text">
      <!-- −1 -->
      <g transform="translate(19.21375 237.607374) scale(0.09 -0.09)">
       <use xlink:href="#DejaVuSerif-2212"/>
       <use xlink:href="#DejaVuSerif-31" transform="translate(83.789062 0)"/>
      </g>
     </g>
    </g>
    <g class="tick ytick">
     <g id="line2d_23">
      <path d="M 39.481719 201.735394 
L 396.601719 201.735394 
" clip-path="url(#p07d506cbc2)" style="fill: none; stroke: #b0b0b0; stroke-opacity: 0.15; stroke-width: 0.5; stroke-linecap: square"/>
     </g>
     <g id="line2d_24">
      <g>
       <use xlink:href="#m451a6860cc" x="39.481719" y="201.735394" style="stroke:var(--black); stroke-width: 0.8"/>
      </g>
     </g>
     <g id="text_13" class="text">
      <!-- 0 -->
      <g transform="translate(26.755469 205.154691) scale(0.09 -0.09)">
       <use xlink:href="#DejaVuSerif-30"/>
      </g>
     </g>
    </g>
    <g class="tick ytick">
     <g id="line2d_25">
      <path d="M 39.481719 169.282712 
L 396.601719 169.282712 
" clip-path="url(#p07d506cbc2)" style="fill: none; stroke: #b0b0b0; stroke-opacity: 0.15; stroke-width: 0.5; stroke-linecap: square"/>
     </g>
     <g id="line2d_26">
      <g>
       <use xlink:href="#m451a6860cc" x="39.481719" y="169.282712" style="stroke:var(--black); stroke-width: 0.8"/>
      </g>
     </g>
     <g id="text_14" class="text">
      <!-- 1 -->
      <g transform="translate(26.755469 172.702008) scale(0.09 -0.09)">
       <use xlink:href="#DejaVuSerif-31"/>
      </g>
     </g>
    </g>
    <g class="tick ytick">
     <g id="line2d_27">
      <path d="M 39.481719 136.830029 
L 396.601719 136.830029 
" clip-path="url(#p07d506cbc2)" style="fill: none; stroke: #b0b0b0; stroke-opacity: 0.15; stroke-width: 0.5; stroke-linecap: square"/>
     </g>
     <g id="line2d_28">
      <g>
       <use xlink:href="#m451a6860cc" x="39.481719" y="136.830029" style="stroke:var(--black); stroke-width: 0.8"/>
      </g>
     </g>
     <g id="text_15" class="text">
      <!-- 2 -->
      <g transform="translate(26.755469 140.249325) scale(0.09 -0.09)">
       <use xlink:href="#DejaVuSerif-32"/>
      </g>
     </g>
    </g>
    <g class="tick ytick">
     <g id="line2d_29">
      <path d="M 39.481719 104.377346 
L 396.601719 104.377346 
" clip-path="url(#p07d506cbc2)" style="fill: none; stroke: #b0b0b0; stroke-opacity: 0.15; stroke-width: 0.5; stroke-linecap: square"/>
     </g>
     <g id="line2d_30">
      <g>
       <use xlink:href="#m451a6860cc" x="39.481719" y="104.377346" style="stroke:var(--black); stroke-width: 0.8"/>
      </g>
     </g>
     <g id="text_16" class="text">
      <!-- 3 -->
      <g transform="translate(26.755469 107.796643) scale(0.09 -0.09)">
       <use xlink:href="#DejaVuSerif-33"/>
      </g>
     </g>
    </g>
    <g class="tick ytick">
     <g id="line2d_31">
      <path d="M 39.481719 71.924663 
L 396.601719 71.924663 
" clip-path="url(#p07d506cbc2)" style="fill: none; stroke: #b0b0b0; stroke-opacity: 0.15; stroke-width: 0.5; stroke-linecap: square"/>
     </g>
     <g id="line2d_32">
      <g>
       <use xlink:href="#m451a6860cc" x="39.481719" y="71.924663" style="stroke:var(--black); stroke-width: 0.8"/>
      </g>
     </g>
     <g id="text_17" class="text">
      <!-- 4 -->
      <g transform="translate(26.755469 75.34396) scale(0.09 -0.09)">
       <use xlink:href="#DejaVuSerif-34"/>
      </g>
     </g>
    </g>
    <g class="tick ytick">
     <g id="line2d_33">
      <path d="M 39.481719 39.47198 
L 396.601719 39.47198 
" clip-path="url(#p07d506cbc2)" style="fill: none; stroke: #b0b0b0; stroke-opacity: 0.15; stroke-width: 0.5; stroke-linecap: square"/>
     </g>
     <g id="line2d_34">
      <g>
       <use xlink:href="#m451a6860cc" x="39.481719" y="39.47198" style="stroke:var(--black); stroke-width: 0.8"/>
      </g>
     </g>
     <g id="text_18" class="text">
      <!-- 5 -->
      <g transform="translate(26.755469 42.891277) scale(0.09 -0.09)">
       <use xlink:href="#DejaVuSerif-35"/>
      </g>
     </g>
    </g>
    <g class="tick ytick">
     <g id="line2d_35">
      <path d="M 39.481719 7.019297 
L 396.601719 7.019297 
" clip-path="url(#p07d506cbc2)" style="fill: none; stroke: #b0b0b0; stroke-opacity: 0.15; stroke-width: 0.5; stroke-linecap: square"/>
     </g>
     <g id="line2d_36">
      <g>
       <use xlink:href="#m451a6860cc" x="39.481719" y="7.019297" style="stroke:var(--black); stroke-width: 0.8"/>
      </g>
     </g>
     <g id="text_19" class="text">
      <!-- 6 -->
      <g transform="translate(26.755469 10.438594) scale(0.09 -0.09)">
       <use xlink:href="#DejaVuSerif-36"/>
      </g>
     </g>
    </g>
    <g id="text_20" class="text">
     <!-- $x_2$ -->
     <g transform="translate(12.718125 142.770029) rotate(-90) scale(0.12 -0.12)">
      <defs>
       <path id="Cmr10-32" d="M 319 0 
L 319 172 
Q 319 188 331 206 
L 1325 1306 
Q 1550 1550 1690 1715 
Q 1831 1881 1968 2097 
Q 2106 2313 2186 2536 
Q 2266 2759 2266 3009 
Q 2266 3272 2169 3511 
Q 2072 3750 1880 3894 
Q 1688 4038 1416 4038 
Q 1138 4038 916 3870 
Q 694 3703 603 3438 
Q 628 3444 672 3444 
Q 816 3444 917 3347 
Q 1019 3250 1019 3097 
Q 1019 2950 917 2848 
Q 816 2747 672 2747 
Q 522 2747 420 2851 
Q 319 2956 319 3097 
Q 319 3338 409 3548 
Q 500 3759 670 3923 
Q 841 4088 1055 4175 
Q 1269 4263 1509 4263 
Q 1875 4263 2190 4108 
Q 2506 3953 2690 3670 
Q 2875 3388 2875 3009 
Q 2875 2731 2753 2481 
Q 2631 2231 2440 2026 
Q 2250 1822 1953 1562 
Q 1656 1303 1563 1216 
L 838 519 
L 1453 519 
Q 1906 519 2211 526 
Q 2516 534 2534 550 
Q 2609 631 2688 1141 
L 2875 1141 
L 2694 0 
L 319 0 
z
" transform="scale(0.015625)"/>
      </defs>
      <use xlink:href="#Cmmi10-78" transform="translate(0 0.8125)"/>
      <use xlink:href="#Cmr10-32" transform="translate(57.080078 -16.19375) scale(0.7)"/>
     </g>
    </g>
   </g>
   <g id="QuadContourSet_1">
    <path d="M 196.648137 169.364047 
L 197.521345 169.364047 
L 198.394552 169.364047 
L 199.267759 169.364047 
L 200.140967 169.364047 
L 201.014174 169.364047 
L 201.887382 169.364047 
L 202.760589 169.364047 
L 203.633797 169.364047 
L 204.507004 169.364047 
L 205.380211 169.364047 
L 206.253419 169.364047 
L 207.126626 169.364047 
L 207.999834 169.364047 
L 208.873041 169.364047 
L 209.746248 169.364047 
L 210.619456 169.364047 
L 211.492663 169.364047 
L 212.365871 169.364047 
L 213.239078 169.364047 
L 214.112285 169.364047 
L 214.985493 169.364047 
L 215.8587 169.364047 
L 216.731908 169.364047 
L 217.605115 169.364047 
L 218.478322 169.364047 
L 219.35153 169.364047 
L 220.224737 169.364047 
L 221.097945 169.364047 
L 221.971152 169.364047 
L 222.844359 169.364047 
L 223.717567 169.364047 
L 224.590774 169.364047 
L 225.463982 169.364047 
L 226.337189 169.364047 
L 227.210397 169.364047 
L 228.083604 169.364047 
L 228.956811 169.364047 
L 229.830019 169.364047 
L 230.703226 169.364047 
L 231.576434 169.364047 
L 232.449641 169.364047 
L 233.322848 169.364047 
L 234.196056 169.364047 
L 235.069263 169.364047 
L 235.942471 169.364047 
L 236.815678 169.364047 
L 237.688885 169.364047 
L 238.562093 169.364047 
L 239.4353 169.364047 
L 240.308508 169.364047 
L 241.181715 169.364047 
L 242.054922 169.364047 
L 242.92813 169.364047 
L 243.801337 169.364047 
L 244.674545 169.364047 
L 245.547752 169.364047 
L 246.42096 169.364047 
L 247.294167 169.364047 
L 248.167374 169.364047 
L 249.040582 169.364047 
L 249.913789 169.364047 
L 250.786997 169.364047 
L 251.660204 169.364047 
L 252.533411 169.364047 
L 253.406619 169.364047 
L 254.279826 169.364047 
L 255.153034 169.364047 
L 256.026241 169.364047 
L 256.899448 169.364047 
L 257.772656 169.364047 
L 258.645863 169.364047 
L 259.519071 169.364047 
L 260.392278 169.364047 
L 261.265485 169.364047 
L 262.138693 169.364047 
L 263.0119 169.364047 
L 263.885108 169.364047 
L 264.758315 169.364047 
L 265.631523 169.364047 
L 266.50473 169.364047 
L 267.377937 169.364047 
L 268.251145 169.364047 
L 269.124352 169.364047 
L 269.99756 169.364047 
L 270.870767 169.364047 
L 271.743974 169.364047 
L 272.617182 169.364047 
L 273.490389 169.364047 
L 274.363597 169.364047 
L 275.236804 169.364047 
L 276.110011 169.364047 
L 276.983219 169.364047 
L 277.856426 169.364047 
L 278.729634 169.364047 
L 279.602841 169.364047 
L 280.476048 169.364047 
L 281.349256 169.364047 
L 282.222463 169.364047 
L 283.095671 169.364047 
L 283.968878 169.364047 
L 284.842086 169.364047 
L 285.715293 169.364047 
L 286.5885 169.364047 
L 287.461708 169.364047 
L 288.334915 169.364047 
L 289.208123 169.364047 
L 290.08133 169.364047 
L 290.954537 169.364047 
L 291.827745 169.364047 
L 292.700952 169.364047 
L 293.57416 169.364047 
L 294.447367 169.364047 
L 295.320574 169.364047 
L 296.193782 169.364047 
L 297.066989 169.364047 
L 297.940197 169.364047 
L 298.813404 169.364047 
L 299.686611 169.364047 
L 300.559819 169.364047 
L 301.433026 169.364047 
L 302.306234 169.364047 
L 303.179441 169.364047 
L 304.052649 169.364047 
L 304.489252 169.038706 
L 304.052649 168.713366 
L 303.179441 168.713366 
L 302.742837 168.388026 
L 302.306234 168.062686 
L 301.433026 168.062686 
L 300.996423 167.737346 
L 300.559819 167.412005 
L 299.686611 167.412005 
L 299.250008 167.086665 
L 298.813404 166.761325 
L 297.940197 166.761325 
L 297.503593 166.435985 
L 297.066989 166.110645 
L 296.193782 166.110645 
L 295.757178 165.785305 
L 295.320574 165.459964 
L 294.447367 165.459964 
L 294.010763 165.134624 
L 293.57416 164.809284 
L 292.700952 164.809284 
L 292.264348 164.483944 
L 291.827745 164.158604 
L 290.954537 164.158604 
L 290.517934 163.833263 
L 290.08133 163.507923 
L 289.208123 163.507923 
L 288.771519 163.182583 
L 288.334915 162.857243 
L 287.461708 162.857243 
L 287.025104 162.531903 
L 286.5885 162.206563 
L 285.715293 162.206563 
L 285.278689 161.881222 
L 284.842086 161.555882 
L 283.968878 161.555882 
L 283.532274 161.230542 
L 283.095671 160.905202 
L 282.222463 160.905202 
L 281.78586 160.579862 
L 281.349256 160.254522 
L 280.476048 160.254522 
L 280.039445 159.929181 
L 279.602841 159.603841 
L 278.729634 159.603841 
L 278.29303 159.278501 
L 277.856426 158.953161 
L 276.983219 158.953161 
L 276.546615 158.627821 
L 276.110011 158.30248 
L 275.236804 158.30248 
L 274.8002 157.97714 
L 274.363597 157.6518 
L 273.490389 157.6518 
L 273.053786 157.32646 
L 272.617182 157.00112 
L 271.743974 157.00112 
L 271.307371 156.67578 
L 270.870767 156.350439 
L 269.99756 156.350439 
L 269.560956 156.025099 
L 269.124352 155.699759 
L 268.251145 155.699759 
L 267.814541 155.374419 
L 267.377937 155.049079 
L 266.50473 155.049079 
L 266.068126 154.723738 
L 265.631523 154.398398 
L 264.758315 154.398398 
L 264.321711 154.073058 
L 263.885108 153.747718 
L 263.0119 153.747718 
L 262.575297 153.422378 
L 262.138693 153.097038 
L 261.265485 153.097038 
L 260.828882 152.771697 
L 260.392278 152.446357 
L 259.519071 152.446357 
L 259.082467 152.121017 
L 258.645863 151.795677 
L 257.772656 151.795677 
L 257.336052 151.470337 
L 256.899448 151.144996 
L 256.026241 151.144996 
L 255.589637 150.819656 
L 255.153034 150.494316 
L 254.279826 150.494316 
L 253.843223 150.168976 
L 253.406619 149.843636 
L 252.533411 149.843636 
L 252.096808 149.518296 
L 251.660204 149.192955 
L 250.786997 149.192955 
L 250.350393 148.867615 
L 249.913789 148.542275 
L 249.040582 148.542275 
L 248.603978 148.216935 
L 248.167374 147.891595 
L 247.294167 147.891595 
L 246.857563 147.566255 
L 246.42096 147.240914 
L 245.547752 147.240914 
L 245.111148 146.915574 
L 244.674545 146.590234 
L 243.801337 146.590234 
L 243.364734 146.264894 
L 242.92813 145.939554 
L 242.054922 145.939554 
L 241.618319 145.614213 
L 241.181715 145.288873 
L 240.308508 145.288873 
L 239.871904 144.963533 
L 239.4353 144.638193 
L 238.562093 144.638193 
L 238.125489 144.312853 
L 237.688885 143.987513 
L 236.815678 143.987513 
L 236.379074 143.662172 
L 235.942471 143.336832 
L 235.069263 143.336832 
L 234.63266 143.011492 
L 234.196056 142.686152 
L 233.322848 142.686152 
L 232.886245 142.360812 
L 232.449641 142.035471 
L 231.576434 142.035471 
L 231.13983 141.710131 
L 230.703226 141.384791 
L 229.830019 141.384791 
L 229.393415 141.059451 
L 228.956811 140.734111 
L 228.083604 140.734111 
L 227.647 140.408771 
L 227.210397 140.08343 
L 226.337189 140.08343 
L 225.900585 139.75809 
L 225.463982 139.43275 
L 224.590774 139.43275 
L 224.154171 139.10741 
L 223.717567 138.78207 
L 222.844359 138.78207 
L 222.407756 138.456729 
L 221.971152 138.131389 
L 221.097945 138.131389 
L 220.661341 137.806049 
L 220.224737 137.480709 
L 219.35153 137.480709 
L 218.914926 137.155369 
L 218.478322 136.830029 
L 218.041719 137.155369 
L 217.605115 137.480709 
L 217.168511 137.806049 
L 217.168511 138.456729 
L 216.731908 138.78207 
L 216.295304 139.10741 
L 216.295304 139.75809 
L 215.8587 140.08343 
L 215.422097 140.408771 
L 215.422097 141.059451 
L 214.985493 141.384791 
L 214.548889 141.710131 
L 214.548889 142.360812 
L 214.112285 142.686152 
L 213.675682 143.011492 
L 213.675682 143.662172 
L 213.239078 143.987513 
L 212.802474 144.312853 
L 212.802474 144.963533 
L 212.365871 145.288873 
L 211.929267 145.614213 
L 211.929267 146.264894 
L 211.492663 146.590234 
L 211.056059 146.915574 
L 211.056059 147.566255 
L 210.619456 147.891595 
L 210.182852 148.216935 
L 210.182852 148.867615 
L 209.746248 149.192955 
L 209.309645 149.518296 
L 209.309645 150.168976 
L 208.873041 150.494316 
L 208.436437 150.819656 
L 208.436437 151.470337 
L 207.999834 151.795677 
L 207.56323 152.121017 
L 207.56323 152.771697 
L 207.126626 153.097038 
L 206.690022 153.422378 
L 206.690022 154.073058 
L 206.253419 154.398398 
L 205.816815 154.723738 
L 205.816815 155.374419 
L 205.380211 155.699759 
L 204.943608 156.025099 
L 204.943608 156.67578 
L 204.507004 157.00112 
L 204.0704 157.32646 
L 204.0704 157.97714 
L 203.633797 158.30248 
L 203.197193 158.627821 
L 203.197193 159.278501 
L 202.760589 159.603841 
L 202.323985 159.929181 
L 202.323985 160.579862 
L 201.887382 160.905202 
L 201.450778 161.230542 
L 201.450778 161.881222 
L 201.014174 162.206563 
L 200.577571 162.531903 
L 200.577571 163.182583 
L 200.140967 163.507923 
L 199.704363 163.833263 
L 199.704363 164.483944 
L 199.267759 164.809284 
L 198.831156 165.134624 
L 198.831156 165.785305 
L 198.394552 166.110645 
L 197.957948 166.435985 
L 197.957948 167.086665 
L 197.521345 167.412005 
L 197.084741 167.737346 
L 197.084741 168.388026 
L 196.648137 168.713366 
L 196.211534 169.038706 
z
" clip-path="url(#p07d506cbc2)" style="fill: #8000ff; fill-opacity: 0.4"/>
   </g>
   <g id="line2d_37">
    <path d="M 43.836841 71.924663 
L 47.356131 73.235882 
L 50.875422 74.547102 
L 54.394712 75.858321 
L 57.914003 77.169541 
L 61.433293 78.48076 
L 64.952583 79.79198 
L 68.471874 81.103199 
L 71.991164 82.414419 
L 75.510455 83.725638 
L 79.029745 85.036858 
L 82.549036 86.348077 
L 86.068326 87.659297 
L 89.587617 88.970516 
L 93.106907 90.281736 
L 96.626198 91.592955 
L 100.145488 92.904175 
L 103.664779 94.215394 
L 107.184069 95.526614 
L 110.70336 96.837833 
L 114.22265 98.149053 
L 117.74194 99.460272 
L 121.261231 100.771492 
L 124.780521 102.082712 
L 128.299812 103.393931 
L 131.819102 104.705151 
L 135.338393 106.01637 
L 138.857683 107.32759 
L 142.376974 108.638809 
L 145.896264 109.950029 
L 149.415555 111.261248 
L 152.934845 112.572468 
L 156.454136 113.883687 
L 159.973426 115.194907 
L 163.492717 116.506126 
L 167.012007 117.817346 
L 170.531297 119.128565 
L 174.050588 120.439785 
L 177.569878 121.751004 
L 181.089169 123.062224 
L 184.608459 124.373443 
L 188.12775 125.684663 
L 191.64704 126.995882 
L 195.166331 128.307102 
L 198.685621 129.618321 
L 202.204912 130.929541 
L 205.724202 132.24076 
L 209.243493 133.55198 
L 212.762783 134.863199 
L 216.282074 136.174419 
L 219.801364 137.485638 
L 223.320654 138.796858 
L 226.839945 140.108077 
L 230.359235 141.419297 
L 233.878526 142.730516 
L 237.397816 144.041736 
L 240.917107 145.352955 
L 244.436397 146.664175 
L 247.955688 147.975394 
L 251.474978 149.286614 
L 254.994269 150.597833 
L 258.513559 151.909053 
L 262.03285 153.220272 
L 265.55214 154.531492 
L 269.071431 155.842712 
L 272.590721 157.153931 
L 276.110011 158.465151 
L 279.629302 159.77637 
L 283.148592 161.08759 
L 286.667883 162.398809 
L 290.187173 163.710029 
L 293.706464 165.021248 
L 297.225754 166.332468 
L 300.745045 167.643687 
L 304.264335 168.954907 
L 307.783626 170.266126 
L 311.302916 171.577346 
L 314.822207 172.888565 
L 318.341497 174.199785 
L 321.860787 175.511004 
L 325.380078 176.822224 
L 328.899368 178.133443 
L 332.418659 179.444663 
L 335.937949 180.755882 
L 339.45724 182.067102 
L 342.97653 183.378321 
L 346.495821 184.689541 
L 350.015111 186.00076 
L 353.534402 187.31198 
L 357.053692 188.623199 
L 360.572983 189.934419 
L 364.092273 191.245638 
L 367.611564 192.556858 
L 371.130854 193.868077 
L 374.650144 195.179297 
L 378.169435 196.490516 
L 381.688725 197.801736 
L 385.208016 199.112955 
L 388.727306 200.424175 
L 392.246597 201.735394 
" clip-path="url(#p07d506cbc2)" style="fill: none; stroke: #8000ff; stroke-opacity: 0.8; stroke-width: 2; stroke-linecap: square"/>
   </g>
   <g id="line2d_38">
    <path d="M 104.656828 305.810091 
L 107.184069 302.043687 
L 110.70336 296.798809 
L 114.22265 291.553931 
L 117.74194 286.309053 
L 121.261231 281.064175 
L 124.780521 275.819297 
L 128.299812 270.574419 
L 131.819102 265.329541 
L 135.338393 260.084663 
L 138.857683 254.839785 
L 142.376974 249.594907 
L 145.896264 244.350029 
L 149.415555 239.105151 
L 152.934845 233.860272 
L 156.454136 228.615394 
L 159.973426 223.370516 
L 163.492717 218.125638 
L 167.012007 212.88076 
L 170.531297 207.635882 
L 174.050588 202.391004 
L 177.569878 197.146126 
L 181.089169 191.901248 
L 184.608459 186.65637 
L 188.12775 181.411492 
L 191.64704 176.166614 
L 195.166331 170.921736 
L 198.685621 165.676858 
L 202.204912 160.43198 
L 205.724202 155.187102 
L 209.243493 149.942224 
L 212.762783 144.697346 
L 216.282074 139.452468 
L 219.801364 134.20759 
L 223.320654 128.962712 
L 226.839945 123.717833 
L 230.359235 118.472955 
L 233.878526 113.228077 
L 237.397816 107.983199 
L 240.917107 102.738321 
L 244.436397 97.493443 
L 247.955688 92.248565 
L 251.474978 87.003687 
L 254.994269 81.758809 
L 258.513559 76.513931 
L 262.03285 71.269053 
L 265.55214 66.024175 
L 269.071431 60.779297 
L 272.590721 55.534419 
L 276.110011 50.289541 
L 279.629302 45.044663 
L 283.148592 39.799785 
L 286.667883 34.554907 
L 290.187173 29.310029 
L 293.706464 24.065151 
L 297.225754 18.820272 
L 300.745045 13.575394 
L 304.264335 8.330516 
L 307.783626 3.085638 
L 310.525071 -1 
" clip-path="url(#p07d506cbc2)" style="fill: none; stroke: #8000ff; stroke-opacity: 0.8; stroke-width: 2; stroke-linecap: square"/>
   </g>
   <g id="line2d_39">
    <path d="M 43.836841 169.282712 
L 47.356131 169.282712 
L 50.875422 169.282712 
L 54.394712 169.282712 
L 57.914003 169.282712 
L 61.433293 169.282712 
L 64.952583 169.282712 
L 68.471874 169.282712 
L 71.991164 169.282712 
L 75.510455 169.282712 
L 79.029745 169.282712 
L 82.549036 169.282712 
L 86.068326 169.282712 
L 89.587617 169.282712 
L 93.106907 169.282712 
L 96.626198 169.282712 
L 100.145488 169.282712 
L 103.664779 169.282712 
L 107.184069 169.282712 
L 110.70336 169.282712 
L 114.22265 169.282712 
L 117.74194 169.282712 
L 121.261231 169.282712 
L 124.780521 169.282712 
L 128.299812 169.282712 
L 131.819102 169.282712 
L 135.338393 169.282712 
L 138.857683 169.282712 
L 142.376974 169.282712 
L 145.896264 169.282712 
L 149.415555 169.282712 
L 152.934845 169.282712 
L 156.454136 169.282712 
L 159.973426 169.282712 
L 163.492717 169.282712 
L 167.012007 169.282712 
L 170.531297 169.282712 
L 174.050588 169.282712 
L 177.569878 169.282712 
L 181.089169 169.282712 
L 184.608459 169.282712 
L 188.12775 169.282712 
L 191.64704 169.282712 
L 195.166331 169.282712 
L 198.685621 169.282712 
L 202.204912 169.282712 
L 205.724202 169.282712 
L 209.243493 169.282712 
L 212.762783 169.282712 
L 216.282074 169.282712 
L 219.801364 169.282712 
L 223.320654 169.282712 
L 226.839945 169.282712 
L 230.359235 169.282712 
L 233.878526 169.282712 
L 237.397816 169.282712 
L 240.917107 169.282712 
L 244.436397 169.282712 
L 247.955688 169.282712 
L 251.474978 169.282712 
L 254.994269 169.282712 
L 258.513559 169.282712 
L 262.03285 169.282712 
L 265.55214 169.282712 
L 269.071431 169.282712 
L 272.590721 169.282712 
L 276.110011 169.282712 
L 279.629302 169.282712 
L 283.148592 169.282712 
L 286.667883 169.282712 
L 290.187173 169.282712 
L 293.706464 169.282712 
L 297.225754 169.282712 
L 300.745045 169.282712 
L 304.264335 169.282712 
L 307.783626 169.282712 
L 311.302916 169.282712 
L 314.822207 169.282712 
L 318.341497 169.282712 
L 321.860787 169.282712 
L 325.380078 169.282712 
L 328.899368 169.282712 
L 332.418659 169.282712 
L 335.937949 169.282712 
L 339.45724 169.282712 
L 342.97653 169.282712 
L 346.495821 169.282712 
L 350.015111 169.282712 
L 353.534402 169.282712 
L 357.053692 169.282712 
L 360.572983 169.282712 
L 364.092273 169.282712 
L 367.611564 169.282712 
L 371.130854 169.282712 
L 374.650144 169.282712 
L 378.169435 169.282712 
L 381.688725 169.282712 
L 385.208016 169.282712 
L 388.727306 169.282712 
L 392.246597 169.282712 
" clip-path="url(#p07d506cbc2)" style="fill: none; stroke: #8000ff; stroke-opacity: 0.8; stroke-width: 2; stroke-linecap: square"/>
   </g>
   <g class="patch">
    <path d="M 39.481719 269.886029 
L 39.481719 3.774029 
" style="fill: none; stroke:var(--black); stroke-width: 0.8; stroke-linejoin: miter; stroke-linecap: square"/>
   </g>
   <g class="patch">
    <path d="M 39.481719 269.886029 
L 396.601719 269.886029 
" style="fill: none; stroke:var(--black); stroke-width: 0.8; stroke-linejoin: miter; stroke-linecap: square"/>
   </g>
   <g class="legend">
    <g class="patch">
     <path d="M 276.795469 26.594341 
L 389.601719 26.594341 
Q 391.601719 26.594341 391.601719 24.594341 
L 391.601719 10.774029 
Q 391.601719 8.774029 389.601719 8.774029 
L 276.795469 8.774029 
Q 274.795469 8.774029 274.795469 10.774029 
L 274.795469 24.594341 
Q 274.795469 26.594341 276.795469 26.594341 
L 276.795469 26.594341 
z
" style="fill: none; opacity: 0.9; stroke: #cccccc; stroke-linejoin: miter"/>
    </g>
    <g class="patch">
     <path d="M 278.795469 20.372466 
L 298.795469 20.372466 
L 298.795469 13.372466 
L 278.795469 13.372466 
z
" style="fill: #8000ff; opacity: 0.4"/>
    </g>
    <g id="text_21" class="text">
     <!-- Feasible Region -->
     <g transform="translate(306.795469 20.372466) scale(0.1 -0.1)">
      <defs>
       <path id="DejaVuSerif-46" d="M 353 0 
L 353 331 
L 947 331 
L 947 4331 
L 353 4331 
L 353 4666 
L 4172 4666 
L 4172 3628 
L 3788 3628 
L 3788 4281 
L 1581 4281 
L 1581 2719 
L 3175 2719 
L 3175 3303 
L 3559 3303 
L 3559 1753 
L 3175 1753 
L 3175 2338 
L 1581 2338 
L 1581 331 
L 2328 331 
L 2328 0 
L 353 0 
z
" transform="scale(0.015625)"/>
       <path id="DejaVuSerif-65" d="M 3469 1600 
L 991 1600 
L 991 1575 
Q 991 903 1244 561 
Q 1497 219 1991 219 
Q 2369 219 2611 417 
Q 2853 616 2950 1006 
L 3413 1006 
Q 3275 459 2904 184 
Q 2534 -91 1931 -91 
Q 1203 -91 761 389 
Q 319 869 319 1663 
Q 319 2450 753 2931 
Q 1188 3413 1894 3413 
Q 2647 3413 3050 2948 
Q 3453 2484 3469 1600 
z
M 2791 1931 
Q 2772 2513 2545 2808 
Q 2319 3103 1894 3103 
Q 1497 3103 1269 2806 
Q 1041 2509 991 1931 
L 2791 1931 
z
" transform="scale(0.015625)"/>
       <path id="DejaVuSerif-61" d="M 2547 1044 
L 2547 1747 
L 1806 1747 
Q 1378 1747 1168 1562 
Q 959 1378 959 997 
Q 959 650 1171 447 
Q 1384 244 1747 244 
Q 2106 244 2326 466 
Q 2547 688 2547 1044 
z
M 3122 2075 
L 3122 331 
L 3634 331 
L 3634 0 
L 2547 0 
L 2547 359 
Q 2356 128 2106 18 
Q 1856 -91 1522 -91 
Q 969 -91 644 203 
Q 319 497 319 997 
Q 319 1513 691 1797 
Q 1063 2081 1741 2081 
L 2547 2081 
L 2547 2309 
Q 2547 2688 2317 2895 
Q 2088 3103 1672 3103 
Q 1328 3103 1125 2947 
Q 922 2791 872 2484 
L 575 2484 
L 575 3156 
Q 875 3284 1158 3348 
Q 1441 3413 1709 3413 
Q 2400 3413 2761 3070 
Q 3122 2728 3122 2075 
z
" transform="scale(0.015625)"/>
       <path id="DejaVuSerif-73" d="M 359 184 
L 359 959 
L 691 959 
Q 703 588 923 403 
Q 1144 219 1575 219 
Q 1963 219 2166 364 
Q 2369 509 2369 788 
Q 2369 1006 2220 1140 
Q 2072 1275 1594 1428 
L 1178 1569 
Q 750 1706 558 1912 
Q 366 2119 366 2438 
Q 366 2894 700 3153 
Q 1034 3413 1625 3413 
Q 1888 3413 2178 3344 
Q 2469 3275 2778 3144 
L 2778 2419 
L 2447 2419 
Q 2434 2741 2221 2922 
Q 2009 3103 1644 3103 
Q 1281 3103 1095 2975 
Q 909 2847 909 2591 
Q 909 2381 1050 2254 
Q 1191 2128 1613 1997 
L 2069 1856 
Q 2541 1709 2748 1489 
Q 2956 1269 2956 922 
Q 2956 450 2595 179 
Q 2234 -91 1600 -91 
Q 1278 -91 972 -22 
Q 666 47 359 184 
z
" transform="scale(0.015625)"/>
       <path id="DejaVuSerif-69" d="M 622 4353 
Q 622 4497 726 4603 
Q 831 4709 978 4709 
Q 1122 4709 1226 4603 
Q 1331 4497 1331 4353 
Q 1331 4206 1228 4103 
Q 1125 4000 978 4000 
Q 831 4000 726 4103 
Q 622 4206 622 4353 
z
M 1356 331 
L 1900 331 
L 1900 0 
L 231 0 
L 231 331 
L 781 331 
L 781 2988 
L 231 2988 
L 231 3322 
L 1356 3322 
L 1356 331 
z
" transform="scale(0.015625)"/>
       <path id="DejaVuSerif-62" d="M 738 331 
L 738 4531 
L 184 4531 
L 184 4863 
L 1313 4863 
L 1313 2803 
Q 1481 3116 1742 3264 
Q 2003 3413 2388 3413 
Q 3000 3413 3387 2928 
Q 3775 2444 3775 1663 
Q 3775 881 3387 395 
Q 3000 -91 2388 -91 
Q 2003 -91 1742 57 
Q 1481 206 1313 519 
L 1313 0 
L 184 0 
L 184 331 
L 738 331 
z
M 1313 1497 
Q 1313 897 1542 583 
Q 1772 269 2209 269 
Q 2650 269 2876 622 
Q 3103 975 3103 1663 
Q 3103 2353 2876 2703 
Q 2650 3053 2209 3053 
Q 1772 3053 1542 2737 
Q 1313 2422 1313 1825 
L 1313 1497 
z
" transform="scale(0.015625)"/>
       <path id="DejaVuSerif-6c" d="M 1313 331 
L 1856 331 
L 1856 0 
L 184 0 
L 184 331 
L 738 331 
L 738 4531 
L 184 4531 
L 184 4863 
L 1313 4863 
L 1313 331 
z
" transform="scale(0.015625)"/>
       <path id="DejaVuSerif-20" transform="scale(0.015625)"/>
       <path id="DejaVuSerif-52" d="M 3066 2316 
Q 3284 2256 3442 2114 
Q 3600 1972 3725 1716 
L 4403 331 
L 4972 331 
L 4972 0 
L 3872 0 
L 3144 1484 
Q 2934 1916 2759 2042 
Q 2584 2169 2278 2169 
L 1581 2169 
L 1581 331 
L 2241 331 
L 2241 0 
L 353 0 
L 353 331 
L 947 331 
L 947 4331 
L 353 4331 
L 353 4666 
L 2719 4666 
Q 3400 4666 3770 4341 
Q 4141 4016 4141 3419 
Q 4141 2938 3870 2661 
Q 3600 2384 3066 2316 
z
M 1581 2503 
L 2503 2503 
Q 2975 2503 3200 2726 
Q 3425 2950 3425 3419 
Q 3425 3888 3200 4109 
Q 2975 4331 2503 4331 
L 1581 4331 
L 1581 2503 
z
" transform="scale(0.015625)"/>
       <path id="DejaVuSerif-67" d="M 3359 2988 
L 3359 72 
Q 3359 -644 2965 -1033 
Q 2572 -1422 1844 -1422 
Q 1516 -1422 1216 -1362 
Q 916 -1303 641 -1184 
L 641 -488 
L 941 -488 
Q 997 -813 1206 -963 
Q 1416 -1113 1806 -1113 
Q 2313 -1113 2548 -827 
Q 2784 -541 2784 72 
L 2784 519 
Q 2616 206 2355 57 
Q 2094 -91 1709 -91 
Q 1097 -91 708 395 
Q 319 881 319 1663 
Q 319 2444 706 2928 
Q 1094 3413 1709 3413 
Q 2094 3413 2355 3264 
Q 2616 3116 2784 2803 
L 2784 3322 
L 3909 3322 
L 3909 2988 
L 3359 2988 
z
M 2784 1825 
Q 2784 2422 2554 2737 
Q 2325 3053 1888 3053 
Q 1444 3053 1217 2703 
Q 991 2353 991 1663 
Q 991 975 1217 622 
Q 1444 269 1888 269 
Q 2325 269 2554 583 
Q 2784 897 2784 1497 
L 2784 1825 
z
" transform="scale(0.015625)"/>
       <path id="DejaVuSerif-6f" d="M 1925 219 
Q 2388 219 2623 584 
Q 2859 950 2859 1663 
Q 2859 2375 2623 2739 
Q 2388 3103 1925 3103 
Q 1463 3103 1227 2739 
Q 991 2375 991 1663 
Q 991 950 1228 584 
Q 1466 219 1925 219 
z
M 1925 -91 
Q 1200 -91 759 389 
Q 319 869 319 1663 
Q 319 2456 758 2934 
Q 1197 3413 1925 3413 
Q 2653 3413 3092 2934 
Q 3531 2456 3531 1663 
Q 3531 869 3092 389 
Q 2653 -91 1925 -91 
z
" transform="scale(0.015625)"/>
       <path id="DejaVuSerif-6e" d="M 263 0 
L 263 331 
L 781 331 
L 781 2988 
L 231 2988 
L 231 3322 
L 1356 3322 
L 1356 2731 
Q 1516 3069 1770 3241 
Q 2025 3413 2363 3413 
Q 2913 3413 3172 3097 
Q 3431 2781 3431 2113 
L 3431 331 
L 3944 331 
L 3944 0 
L 2356 0 
L 2356 331 
L 2853 331 
L 2853 1931 
Q 2853 2541 2703 2767 
Q 2553 2994 2175 2994 
Q 1775 2994 1565 2701 
Q 1356 2409 1356 1850 
L 1356 331 
L 1856 331 
L 1856 0 
L 263 0 
z
" transform="scale(0.015625)"/>
      </defs>
      <use xlink:href="#DejaVuSerif-46"/>
      <use xlink:href="#DejaVuSerif-65" transform="translate(63.884766 0)"/>
      <use xlink:href="#DejaVuSerif-61" transform="translate(123.064453 0)"/>
      <use xlink:href="#DejaVuSerif-73" transform="translate(182.683594 0)"/>
      <use xlink:href="#DejaVuSerif-69" transform="translate(234.001953 0)"/>
      <use xlink:href="#DejaVuSerif-62" transform="translate(265.984375 0)"/>
      <use xlink:href="#DejaVuSerif-6c" transform="translate(329.998047 0)"/>
      <use xlink:href="#DejaVuSerif-65" transform="translate(361.980469 0)"/>
      <use xlink:href="#DejaVuSerif-20" transform="translate(421.160156 0)"/>
      <use xlink:href="#DejaVuSerif-52" transform="translate(452.947266 0)"/>
      <use xlink:href="#DejaVuSerif-65" transform="translate(528.240234 0)"/>
      <use xlink:href="#DejaVuSerif-67" transform="translate(587.419922 0)"/>
      <use xlink:href="#DejaVuSerif-69" transform="translate(651.433594 0)"/>
      <use xlink:href="#DejaVuSerif-6f" transform="translate(683.416016 0)"/>
      <use xlink:href="#DejaVuSerif-6e" transform="translate(743.621094 0)"/>
     </g>
    </g>
   </g>
  </g>
 </g>
 <defs>
  <clipPath id="p07d506cbc2">
   <rect x="39.481719" y="3.774029" width="357.12" height="266.112"/>
  </clipPath>
 </defs>
</svg>
