<?xml version="1.0" encoding="utf-8" standalone="no"?>
<!DOCTYPE svg PUBLIC "-//W3C//DTD SVG 1.1//EN"
  "http://www.w3.org/Graphics/SVG/1.1/DTD/svg11.dtd">
<svg xmlns:xlink="http://www.w3.org/1999/xlink" width="385.632812pt" height="304.636062pt" viewBox="0 0 385.632812 304.636062" xmlns="http://www.w3.org/2000/svg" version="1.1">
<style>:root { --axis-color:#000; --grid-stroke:rgba(0,0,0,0.2); --plot3d-stroke:rgba(0,0,0,0.3); --plot3d-grid:rgba(0,0,0,0.2); }
@media (prefers-color-scheme:dark) { :root { --axis-color:#fff; --grid-stroke:rgba(255,255,255,0.2); --plot3d-stroke:rgba(255,255,255,0.3); --plot3d-grid:rgba(255,255,255,0.2); } }
.black{fill:#000000;stroke:#000000;}:root{--black:#000000;}.c1{fill:#FF0001;stroke:#FF0001;}:root{--c1:#FF0001;}.c2{fill:#00FF02;stroke:#00FF02;}:root{--c2:#00FF02;}.c3{fill:#0000FF;stroke:#0000FF;}:root{--c3:#0000FF;}.c4{fill:#FF00FF;stroke:#FF00FF;}:root{--c4:#FF00FF;}.c5{fill:#00FFFF;stroke:#00FFFF;}:root{--c5:#00FFFF;}.c6{fill:#FFFF00;stroke:#FFFF00;}:root{--c6:#FFFF00;}.c7{fill:#FF8000;stroke:#FF8000;}:root{--c7:#FF8000;}.c8{fill:#8000FF;stroke:#8000FF;}:root{--c8:#8000FF;}.gray{fill:#7f7f7f;stroke:#7f7f7f;}:root{--gray:#7f7f7f;}.grey{fill:#7f7f7f;stroke:#7f7f7f;}:root{--grey:#7f7f7f;}.octonary{fill:#bcbd22;stroke:#bcbd22;}:root{--octonary:#bcbd22;}.primary{fill:#d62728;stroke:#d62728;}:root{--primary:#d62728;}.quaternary{fill:#9467bd;stroke:#9467bd;}:root{--quaternary:#9467bd;}.quinary{fill:#8c564b;stroke:#8c564b;}:root{--quinary:#8c564b;}.secondary{fill:#2ca02c;stroke:#2ca02c;}:root{--secondary:#2ca02c;}.senary{fill:#e377c2;stroke:#e377c2;}:root{--senary:#e377c2;}.septenary{fill:#7f7f7f;stroke:#7f7f7f;}:root{--septenary:#7f7f7f;}.tertiary{fill:#1f77b4;stroke:#1f77b4;}:root{--tertiary:#1f77b4;}.white{fill:#ffffff;stroke:#ffffff;}:root{--white:#ffffff;}
@media (prefers-color-scheme:dark) { .black{fill:#FFFFFF;stroke:#FFFFFF;}:root{--black:#FFFFFF;}.c1{fill:#FF0001;stroke:#FF0001;}:root{--c1:#FF0001;}.c2{fill:#00FF02;stroke:#00FF02;}:root{--c2:#00FF02;}.c3{fill:#0000FF;stroke:#0000FF;}:root{--c3:#0000FF;}.c4{fill:#FF00FF;stroke:#FF00FF;}:root{--c4:#FF00FF;}.c5{fill:#00FFFF;stroke:#00FFFF;}:root{--c5:#00FFFF;}.c6{fill:#FFFF00;stroke:#FFFF00;}:root{--c6:#FFFF00;}.c7{fill:#FF8000;stroke:#FF8000;}:root{--c7:#FF8000;}.c8{fill:#8000FF;stroke:#8000FF;}:root{--c8:#8000FF;}.gray{fill:#CCCCCC;stroke:#CCCCCC;}:root{--gray:#CCCCCC;}.grey{fill:#CCCCCC;stroke:#CCCCCC;}:root{--grey:#CCCCCC;}.octonary{fill:#E6DB74;stroke:#E6DB74;}:root{--octonary:#E6DB74;}.primary{fill:#FF4A98;stroke:#FF4A98;}:root{--primary:#FF4A98;}.quaternary{fill:#B4A0FF;stroke:#B4A0FF;}:root{--quaternary:#B4A0FF;}.quinary{fill:#FFB86B;stroke:#FFB86B;}:root{--quinary:#FFB86B;}.secondary{fill:#0AFAFA;stroke:#0AFAFA;}:root{--secondary:#0AFAFA;}.senary{fill:#FF79C6;stroke:#FF79C6;}:root{--senary:#FF79C6;}.septenary{fill:#CCCCCC;stroke:#CCCCCC;}:root{--septenary:#CCCCCC;}.tertiary{fill:#7F83FF;stroke:#7F83FF;}:root{--tertiary:#7F83FF;}.white{fill:#000000;stroke:#000000;}:root{--white:#000000;} }
text,.text { fill:var(--axis-color)!important; stroke:none!important; }
.axis line,.axis path,.tick line,.tick path,path.domain,line.grid { stroke:var(--axis-color)!important; }
.legend text { fill:var(--axis-color)!important; }
.patch path[style*="stroke: currentColor"] { stroke:var(--axis-color)!important; }
g.legend>g:first-child>path:first-child { fill:rgba(255,255,255,0.8)!important; stroke:rgba(0,0,0,0.1)!important; }
@media (prefers-color-scheme:dark) { g.legend>g:first-child>path:first-child { fill:rgba(26,26,26,0.8)!important; stroke:rgba(255,255,255,0.1)!important; } }
.plot3d path,.plot3d polygon { stroke:var(--plot3d-stroke)!important; }
.plot3d-grid line { stroke:var(--plot3d-grid)!important; }
.plot3d-surface path[style*="fill:"] { fill-opacity:0.9!important; }
@media (prefers-color-scheme:dark) { .plot3d-surface path[style*="fill:"] { fill-opacity:0.95!important; filter:saturate(1.2)!important; } }</style>

 <metadata>
  <rdf:RDF xmlns:dc="http://purl.org/dc/elements/1.1/" xmlns:cc="http://creativecommons.org/ns#" xmlns:rdf="http://www.w3.org/1999/02/22-rdf-syntax-ns#">
   <cc:Work>
    <dc:type rdf:resource="http://purl.org/dc/dcmitype/StillImage"/>
    <dc:date>2026-01-03T22:28:51.347371</dc:date>
    <dc:format>image/svg+xml</dc:format>
    <dc:creator>
     <cc:Agent>
      <dc:title>Matplotlib v3.10.0, https://matplotlib.org/</dc:title>
     </cc:Agent>
    </dc:creator>
   </cc:Work>
  </rdf:RDF>
 </metadata>
 <defs>
  <style type="text/css">*{stroke-linejoin: round; stroke-linecap: butt}</style>
 </defs>
 <g id="figure_1">
  <g class="patch">
   <path d="M 0 304.636062 
L 385.632812 304.636062 
L 385.632812 0 
L 0 0 
L 0 304.636062 
z
" style="fill: none"/>
  </g>
  <g id="axes_1">
   <g class="patch">
    <path d="M 24.912813 269.712 
L 382.032812 269.712 
L 382.032812 3.6 
L 24.912813 3.6 
L 24.912813 269.712 
z
" style="fill: none"/>
   </g>
   <g class="axis">
    <g class="tick xtick">
     <g id="line2d_1">
      <path d="M 60.624812 269.712 
L 60.624812 3.6 
" clip-path="url(#p6fd653690b)" style="fill: none; stroke: #b0b0b0; stroke-opacity: 0.15; stroke-width: 0.5; stroke-linecap: square"/>
     </g>
     <g id="line2d_2">
      <defs>
       <path id="m0ce6dfbf6b" d="M 0 0 
L 0 3.5 
" style="stroke:var(--black); stroke-width: 0.8"/>
      </defs>
      <g>
       <use xlink:href="#m0ce6dfbf6b" x="60.624812" y="269.712" style="stroke:var(--black); stroke-width: 0.8"/>
      </g>
     </g>
     <g id="text_1" class="text">
      <!-- −4 -->
      <g transform="translate(53.990828 283.550594) scale(0.09 -0.09)">
       <defs>
        <path id="DejaVuSerif-2212" d="M 678 2259 
L 4684 2259 
L 4684 1753 
L 678 1753 
L 678 2259 
z
" transform="scale(0.015625)"/>
        <path id="DejaVuSerif-34" d="M 2234 1581 
L 2234 4063 
L 641 1581 
L 2234 1581 
z
M 3609 0 
L 1484 0 
L 1484 331 
L 2234 331 
L 2234 1247 
L 197 1247 
L 197 1588 
L 2241 4750 
L 2859 4750 
L 2859 1581 
L 3750 1581 
L 3750 1247 
L 2859 1247 
L 2859 331 
L 3609 331 
L 3609 0 
z
" transform="scale(0.015625)"/>
       </defs>
       <use xlink:href="#DejaVuSerif-2212"/>
       <use xlink:href="#DejaVuSerif-34" transform="translate(83.789062 0)"/>
      </g>
     </g>
    </g>
    <g class="tick xtick">
     <g id="line2d_3">
      <path d="M 132.048812 269.712 
L 132.048812 3.6 
" clip-path="url(#p6fd653690b)" style="fill: none; stroke: #b0b0b0; stroke-opacity: 0.15; stroke-width: 0.5; stroke-linecap: square"/>
     </g>
     <g id="line2d_4">
      <g>
       <use xlink:href="#m0ce6dfbf6b" x="132.048812" y="269.712" style="stroke:var(--black); stroke-width: 0.8"/>
      </g>
     </g>
     <g id="text_2" class="text">
      <!-- −2 -->
      <g transform="translate(125.414828 283.550594) scale(0.09 -0.09)">
       <defs>
        <path id="DejaVuSerif-32" d="M 819 3553 
L 469 3553 
L 469 4384 
Q 803 4563 1142 4656 
Q 1481 4750 1806 4750 
Q 2534 4750 2956 4397 
Q 3378 4044 3378 3438 
Q 3378 2753 2422 1800 
Q 2347 1728 2309 1691 
L 1131 513 
L 3078 513 
L 3078 1088 
L 3444 1088 
L 3444 0 
L 434 0 
L 434 341 
L 1850 1753 
Q 2319 2222 2519 2614 
Q 2719 3006 2719 3438 
Q 2719 3909 2473 4175 
Q 2228 4441 1797 4441 
Q 1350 4441 1106 4219 
Q 863 3997 819 3553 
z
" transform="scale(0.015625)"/>
       </defs>
       <use xlink:href="#DejaVuSerif-2212"/>
       <use xlink:href="#DejaVuSerif-32" transform="translate(83.789062 0)"/>
      </g>
     </g>
    </g>
    <g class="tick xtick">
     <g id="line2d_5">
      <path d="M 203.472813 269.712 
L 203.472813 3.6 
" clip-path="url(#p6fd653690b)" style="fill: none; stroke: #b0b0b0; stroke-opacity: 0.15; stroke-width: 0.5; stroke-linecap: square"/>
     </g>
     <g id="line2d_6">
      <g>
       <use xlink:href="#m0ce6dfbf6b" x="203.472813" y="269.712" style="stroke:var(--black); stroke-width: 0.8"/>
      </g>
     </g>
     <g id="text_3" class="text">
      <!-- 0 -->
      <g transform="translate(200.609688 283.550594) scale(0.09 -0.09)">
       <defs>
        <path id="DejaVuSerif-30" d="M 2034 219 
Q 2513 219 2750 744 
Q 2988 1269 2988 2328 
Q 2988 3391 2750 3916 
Q 2513 4441 2034 4441 
Q 1556 4441 1318 3916 
Q 1081 3391 1081 2328 
Q 1081 1269 1318 744 
Q 1556 219 2034 219 
z
M 2034 -91 
Q 1275 -91 848 546 
Q 422 1184 422 2328 
Q 422 3475 848 4112 
Q 1275 4750 2034 4750 
Q 2797 4750 3222 4112 
Q 3647 3475 3647 2328 
Q 3647 1184 3222 546 
Q 2797 -91 2034 -91 
z
" transform="scale(0.015625)"/>
       </defs>
       <use xlink:href="#DejaVuSerif-30"/>
      </g>
     </g>
    </g>
    <g class="tick xtick">
     <g id="line2d_7">
      <path d="M 274.896813 269.712 
L 274.896813 3.6 
" clip-path="url(#p6fd653690b)" style="fill: none; stroke: #b0b0b0; stroke-opacity: 0.15; stroke-width: 0.5; stroke-linecap: square"/>
     </g>
     <g id="line2d_8">
      <g>
       <use xlink:href="#m0ce6dfbf6b" x="274.896813" y="269.712" style="stroke:var(--black); stroke-width: 0.8"/>
      </g>
     </g>
     <g id="text_4" class="text">
      <!-- 2 -->
      <g transform="translate(272.033687 283.550594) scale(0.09 -0.09)">
       <use xlink:href="#DejaVuSerif-32"/>
      </g>
     </g>
    </g>
    <g class="tick xtick">
     <g id="line2d_9">
      <path d="M 346.320812 269.712 
L 346.320812 3.6 
" clip-path="url(#p6fd653690b)" style="fill: none; stroke: #b0b0b0; stroke-opacity: 0.15; stroke-width: 0.5; stroke-linecap: square"/>
     </g>
     <g id="line2d_10">
      <g>
       <use xlink:href="#m0ce6dfbf6b" x="346.320812" y="269.712" style="stroke:var(--black); stroke-width: 0.8"/>
      </g>
     </g>
     <g id="text_5" class="text">
      <!-- 4 -->
      <g transform="translate(343.457687 283.550594) scale(0.09 -0.09)">
       <use xlink:href="#DejaVuSerif-34"/>
      </g>
     </g>
    </g>
    <g id="text_6" class="text">
     <!-- z -->
     <g transform="translate(200.311563 298.540437) scale(0.12 -0.12)">
      <defs>
       <path id="DejaVuSerif-7a" d="M 256 0 
L 256 269 
L 2338 2988 
L 691 2988 
L 691 2413 
L 359 2413 
L 359 3322 
L 3078 3322 
L 3078 3053 
L 997 331 
L 2803 331 
L 2803 934 
L 3138 934 
L 3138 0 
L 256 0 
z
" transform="scale(0.015625)"/>
      </defs>
      <use xlink:href="#DejaVuSerif-7a"/>
     </g>
    </g>
   </g>
   <g class="axis">
    <g class="tick ytick">
     <g id="line2d_11">
      <path d="M 24.912813 251.529842 
L 382.032812 251.529842 
" clip-path="url(#p6fd653690b)" style="fill: none; stroke: #b0b0b0; stroke-opacity: 0.15; stroke-width: 0.5; stroke-linecap: square"/>
     </g>
     <g id="line2d_12">
      <defs>
       <path id="m99cbf67292" d="M 0 0 
L -3.5 0 
" style="stroke:var(--black); stroke-width: 0.8"/>
      </defs>
      <g>
       <use xlink:href="#m99cbf67292" x="24.912813" y="251.529842" style="stroke:var(--black); stroke-width: 0.8"/>
      </g>
     </g>
     <g id="text_7" class="text">
      <!-- 0.0 -->
      <g transform="translate(3.6 254.949139) scale(0.09 -0.09)">
       <defs>
        <path id="DejaVuSerif-2e" d="M 603 325 
Q 603 500 722 622 
Q 841 744 1019 744 
Q 1191 744 1312 622 
Q 1434 500 1434 325 
Q 1434 153 1312 31 
Q 1191 -91 1019 -91 
Q 841 -91 722 29 
Q 603 150 603 325 
z
" transform="scale(0.015625)"/>
       </defs>
       <use xlink:href="#DejaVuSerif-30"/>
       <use xlink:href="#DejaVuSerif-2e" transform="translate(63.623047 0)"/>
       <use xlink:href="#DejaVuSerif-30" transform="translate(95.410156 0)"/>
      </g>
     </g>
    </g>
    <g class="tick ytick">
     <g id="line2d_13">
      <path d="M 24.912813 215.165525 
L 382.032812 215.165525 
" clip-path="url(#p6fd653690b)" style="fill: none; stroke: #b0b0b0; stroke-opacity: 0.15; stroke-width: 0.5; stroke-linecap: square"/>
     </g>
     <g id="line2d_14">
      <g>
       <use xlink:href="#m99cbf67292" x="24.912813" y="215.165525" style="stroke:var(--black); stroke-width: 0.8"/>
      </g>
     </g>
     <g id="text_8" class="text">
      <!-- 0.1 -->
      <g transform="translate(3.6 218.584822) scale(0.09 -0.09)">
       <defs>
        <path id="DejaVuSerif-31" d="M 909 0 
L 909 331 
L 1722 331 
L 1722 4213 
L 781 3603 
L 781 4013 
L 1919 4750 
L 2350 4750 
L 2350 331 
L 3163 331 
L 3163 0 
L 909 0 
z
" transform="scale(0.015625)"/>
       </defs>
       <use xlink:href="#DejaVuSerif-30"/>
       <use xlink:href="#DejaVuSerif-2e" transform="translate(63.623047 0)"/>
       <use xlink:href="#DejaVuSerif-31" transform="translate(95.410156 0)"/>
      </g>
     </g>
    </g>
    <g class="tick ytick">
     <g id="line2d_15">
      <path d="M 24.912813 178.801208 
L 382.032812 178.801208 
" clip-path="url(#p6fd653690b)" style="fill: none; stroke: #b0b0b0; stroke-opacity: 0.15; stroke-width: 0.5; stroke-linecap: square"/>
     </g>
     <g id="line2d_16">
      <g>
       <use xlink:href="#m99cbf67292" x="24.912813" y="178.801208" style="stroke:var(--black); stroke-width: 0.8"/>
      </g>
     </g>
     <g id="text_9" class="text">
      <!-- 0.2 -->
      <g transform="translate(3.6 182.220505) scale(0.09 -0.09)">
       <use xlink:href="#DejaVuSerif-30"/>
       <use xlink:href="#DejaVuSerif-2e" transform="translate(63.623047 0)"/>
       <use xlink:href="#DejaVuSerif-32" transform="translate(95.410156 0)"/>
      </g>
     </g>
    </g>
    <g class="tick ytick">
     <g id="line2d_17">
      <path d="M 24.912813 142.436892 
L 382.032812 142.436892 
" clip-path="url(#p6fd653690b)" style="fill: none; stroke: #b0b0b0; stroke-opacity: 0.15; stroke-width: 0.5; stroke-linecap: square"/>
     </g>
     <g id="line2d_18">
      <g>
       <use xlink:href="#m99cbf67292" x="24.912813" y="142.436892" style="stroke:var(--black); stroke-width: 0.8"/>
      </g>
     </g>
     <g id="text_10" class="text">
      <!-- 0.3 -->
      <g transform="translate(3.6 145.856189) scale(0.09 -0.09)">
       <defs>
        <path id="DejaVuSerif-33" d="M 622 4469 
Q 988 4606 1323 4678 
Q 1659 4750 1953 4750 
Q 2638 4750 3022 4454 
Q 3406 4159 3406 3634 
Q 3406 3213 3140 2930 
Q 2875 2647 2388 2547 
Q 2963 2466 3280 2130 
Q 3597 1794 3597 1259 
Q 3597 606 3158 257 
Q 2719 -91 1894 -91 
Q 1528 -91 1179 -12 
Q 831 66 488 225 
L 488 1131 
L 838 1131 
Q 869 681 1141 450 
Q 1413 219 1906 219 
Q 2384 219 2661 495 
Q 2938 772 2938 1253 
Q 2938 1803 2653 2086 
Q 2369 2369 1819 2369 
L 1522 2369 
L 1522 2688 
L 1678 2688 
Q 2225 2688 2498 2914 
Q 2772 3141 2772 3597 
Q 2772 4006 2547 4223 
Q 2322 4441 1900 4441 
Q 1478 4441 1245 4241 
Q 1013 4041 972 3647 
L 622 3647 
L 622 4469 
z
" transform="scale(0.015625)"/>
       </defs>
       <use xlink:href="#DejaVuSerif-30"/>
       <use xlink:href="#DejaVuSerif-2e" transform="translate(63.623047 0)"/>
       <use xlink:href="#DejaVuSerif-33" transform="translate(95.410156 0)"/>
      </g>
     </g>
    </g>
    <g class="tick ytick">
     <g id="line2d_19">
      <path d="M 24.912813 106.072575 
L 382.032812 106.072575 
" clip-path="url(#p6fd653690b)" style="fill: none; stroke: #b0b0b0; stroke-opacity: 0.15; stroke-width: 0.5; stroke-linecap: square"/>
     </g>
     <g id="line2d_20">
      <g>
       <use xlink:href="#m99cbf67292" x="24.912813" y="106.072575" style="stroke:var(--black); stroke-width: 0.8"/>
      </g>
     </g>
     <g id="text_11" class="text">
      <!-- 0.4 -->
      <g transform="translate(3.6 109.491872) scale(0.09 -0.09)">
       <use xlink:href="#DejaVuSerif-30"/>
       <use xlink:href="#DejaVuSerif-2e" transform="translate(63.623047 0)"/>
       <use xlink:href="#DejaVuSerif-34" transform="translate(95.410156 0)"/>
      </g>
     </g>
    </g>
    <g class="tick ytick">
     <g id="line2d_21">
      <path d="M 24.912813 69.708258 
L 382.032812 69.708258 
" clip-path="url(#p6fd653690b)" style="fill: none; stroke: #b0b0b0; stroke-opacity: 0.15; stroke-width: 0.5; stroke-linecap: square"/>
     </g>
     <g id="line2d_22">
      <g>
       <use xlink:href="#m99cbf67292" x="24.912813" y="69.708258" style="stroke:var(--black); stroke-width: 0.8"/>
      </g>
     </g>
     <g id="text_12" class="text">
      <!-- 0.5 -->
      <g transform="translate(3.6 73.127555) scale(0.09 -0.09)">
       <defs>
        <path id="DejaVuSerif-35" d="M 3219 4666 
L 3219 4153 
L 1081 4153 
L 1081 2816 
Q 1244 2928 1461 2984 
Q 1678 3041 1947 3041 
Q 2703 3041 3140 2622 
Q 3578 2203 3578 1478 
Q 3578 738 3136 323 
Q 2694 -91 1894 -91 
Q 1572 -91 1234 -12 
Q 897 66 544 225 
L 544 1131 
L 897 1131 
Q 925 688 1179 453 
Q 1434 219 1894 219 
Q 2388 219 2653 544 
Q 2919 869 2919 1478 
Q 2919 2084 2655 2407 
Q 2391 2731 1894 2731 
Q 1613 2731 1398 2631 
Q 1184 2531 1019 2322 
L 750 2322 
L 750 4666 
L 3219 4666 
z
" transform="scale(0.015625)"/>
       </defs>
       <use xlink:href="#DejaVuSerif-30"/>
       <use xlink:href="#DejaVuSerif-2e" transform="translate(63.623047 0)"/>
       <use xlink:href="#DejaVuSerif-35" transform="translate(95.410156 0)"/>
      </g>
     </g>
    </g>
    <g class="tick ytick">
     <g id="line2d_23">
      <path d="M 24.912813 33.343942 
L 382.032812 33.343942 
" clip-path="url(#p6fd653690b)" style="fill: none; stroke: #b0b0b0; stroke-opacity: 0.15; stroke-width: 0.5; stroke-linecap: square"/>
     </g>
     <g id="line2d_24">
      <g>
       <use xlink:href="#m99cbf67292" x="24.912813" y="33.343942" style="stroke:var(--black); stroke-width: 0.8"/>
      </g>
     </g>
     <g id="text_13" class="text">
      <!-- 0.6 -->
      <g transform="translate(3.6 36.763239) scale(0.09 -0.09)">
       <defs>
        <path id="DejaVuSerif-36" d="M 2094 219 
Q 2534 219 2771 542 
Q 3009 866 3009 1472 
Q 3009 2078 2771 2401 
Q 2534 2725 2094 2725 
Q 1647 2725 1412 2412 
Q 1178 2100 1178 1509 
Q 1178 888 1415 553 
Q 1653 219 2094 219 
z
M 1075 2569 
Q 1288 2803 1556 2918 
Q 1825 3034 2163 3034 
Q 2859 3034 3264 2615 
Q 3669 2197 3669 1472 
Q 3669 763 3233 336 
Q 2797 -91 2069 -91 
Q 1278 -91 853 498 
Q 428 1088 428 2181 
Q 428 3406 931 4078 
Q 1434 4750 2350 4750 
Q 2597 4750 2869 4703 
Q 3141 4656 3425 4563 
L 3425 3794 
L 3072 3794 
Q 3034 4109 2831 4275 
Q 2628 4441 2284 4441 
Q 1678 4441 1381 3981 
Q 1084 3522 1075 2569 
z
" transform="scale(0.015625)"/>
       </defs>
       <use xlink:href="#DejaVuSerif-30"/>
       <use xlink:href="#DejaVuSerif-2e" transform="translate(63.623047 0)"/>
       <use xlink:href="#DejaVuSerif-36" transform="translate(95.410156 0)"/>
      </g>
     </g>
    </g>
   </g>
   <g id="line2d_25">
    <path d="M 24.912813 251.529795 
L 62.010384 251.423582 
L 69.161724 251.183336 
L 73.631311 250.84049 
L 77.20698 250.367912 
L 80.335691 249.732429 
L 83.017443 248.956982 
L 85.252237 248.097851 
L 87.48703 246.996438 
L 89.721824 245.599894 
L 91.509659 244.23038 
L 93.297493 242.600702 
L 95.085328 240.675404 
L 96.873163 238.417388 
L 98.660998 235.788583 
L 100.448833 232.75078 
L 102.236667 229.266661 
L 104.024502 225.300977 
L 105.812337 220.821901 
L 107.600172 215.802486 
L 109.388006 210.222236 
L 111.6228 202.440176 
L 113.857593 193.76034 
L 116.092387 184.208036 
L 118.774139 171.676595 
L 121.90285 155.799759 
L 125.925478 134.022919 
L 132.629859 97.42357 
L 135.311611 83.95253 
L 137.546404 73.75435 
L 139.334239 66.458214 
L 141.122074 60.064104 
L 142.46295 55.928291 
L 143.803826 52.404491 
L 145.144702 49.528369 
L 146.485578 47.329216 
L 147.379496 46.25057 
L 148.273413 45.487763 
L 149.167331 45.044165 
L 150.061248 44.92164 
L 150.955165 45.120528 
L 151.849083 45.639635 
L 152.743 46.476248 
L 153.636918 47.626148 
L 154.530835 49.083646 
L 155.871711 51.830678 
L 157.212587 55.223665 
L 158.553463 59.226344 
L 160.341298 65.43805 
L 162.129133 72.544207 
L 164.363926 82.490161 
L 167.045679 95.628148 
L 170.621348 114.388119 
L 177.325729 149.772166 
L 180.45444 164.929295 
L 183.136192 176.706806 
L 185.370985 185.501575 
L 187.605779 193.279867 
L 189.393614 198.73632 
L 191.181448 203.498201 
L 192.969283 207.564441 
L 194.310159 210.162233 
L 195.651035 212.379597 
L 196.991911 214.225089 
L 198.332787 215.709077 
L 199.673664 216.843428 
L 201.01454 217.641226 
L 202.355416 218.116505 
L 203.696292 218.284023 
L 205.037168 218.159051 
L 206.378044 217.757208 
L 207.71892 217.094313 
L 209.059796 216.186278 
L 210.400672 215.049014 
L 212.188507 213.203475 
L 213.976342 211.015892 
L 216.211135 207.856614 
L 218.445929 204.291811 
L 221.127681 199.578016 
L 224.256392 193.630292 
L 229.619896 182.841995 
L 235.430359 171.278069 
L 238.55907 165.514664 
L 241.240823 161.009756 
L 243.475616 157.642318 
L 245.710409 154.685054 
L 247.498244 152.647546 
L 249.286079 150.925618 
L 251.073914 149.53781 
L 252.41479 148.725418 
L 253.755666 148.114511 
L 255.096542 147.708871 
L 256.437418 147.51103 
L 257.778294 147.522251 
L 259.11917 147.742525 
L 260.460047 148.170567 
L 261.800923 148.803833 
L 263.141799 149.638554 
L 264.929634 151.056145 
L 266.717468 152.808038 
L 268.505303 154.876013 
L 270.740097 157.872871 
L 272.97489 161.283063 
L 275.656642 165.846838 
L 278.785353 171.697342 
L 282.361023 178.87811 
L 289.959321 194.826285 
L 294.875866 204.864178 
L 298.451536 211.71226 
L 301.580247 217.279453 
L 304.708958 222.389534 
L 307.39071 226.378736 
L 310.072462 229.996005 
L 312.754214 233.24096 
L 315.435966 236.121558 
L 318.117719 238.652601 
L 320.799471 240.854231 
L 323.481223 242.750458 
L 326.162975 244.367802 
L 328.844727 245.734076 
L 331.52648 246.877343 
L 334.65519 247.965857 
L 337.783901 248.829471 
L 341.359571 249.589564 
L 345.382199 250.214844 
L 350.298745 250.7323 
L 356.109208 251.103325 
L 363.707506 251.352136 
L 375.775391 251.49111 
L 382.032812 251.513356 
L 382.032812 251.513356 
" clip-path="url(#p6fd653690b)" style="fill: none; stroke: #8000ff; stroke-width: 2; stroke-linecap: square"/>
   </g>
   <g id="line2d_26">
    <path d="M 24.912813 244.989279 
L 32.958069 243.725325 
L 40.556367 242.313843 
L 47.707706 240.760025 
L 54.412087 239.074528 
L 60.669508 237.273786 
L 66.479971 235.380013 
L 72.290435 233.247834 
L 77.653939 231.045317 
L 83.017443 228.595074 
L 87.933989 226.111393 
L 92.850535 223.380969 
L 97.76708 220.384253 
L 102.236667 217.412063 
L 106.706254 214.188095 
L 111.175841 210.697227 
L 115.645428 206.924628 
L 120.115015 202.856028 
L 124.584602 198.478028 
L 129.054189 193.778447 
L 133.523776 188.746709 
L 137.993363 183.374248 
L 142.46295 177.654941 
L 146.932537 171.585543 
L 151.402124 165.166117 
L 156.31867 157.705083 
L 161.235216 149.835883 
L 166.59872 140.80609 
L 171.962224 131.342383 
L 177.772687 120.648086 
L 184.477068 107.820327 
L 192.522324 91.898117 
L 204.590209 67.432763 
L 217.99897 40.383582 
L 225.597268 25.551304 
L 232.301649 12.956282 
L 238.112112 2.503038 
L 240.121524 -1 
L 240.121524 -1 
" clip-path="url(#p6fd653690b)" style="fill: none; stroke: #ff8000; stroke-width: 2; stroke-linecap: square"/>
   </g>
   <g class="patch">
    <path d="M 24.912813 269.712 
L 24.912813 3.6 
" style="fill: none; stroke:var(--black); stroke-width: 0.8; stroke-linejoin: miter; stroke-linecap: square"/>
   </g>
   <g class="patch">
    <path d="M 24.912813 269.712 
L 382.032812 269.712 
" style="fill: none; stroke:var(--black); stroke-width: 0.8; stroke-linejoin: miter; stroke-linecap: square"/>
   </g>
   <g class="legend">
    <g class="patch">
     <path d="M 323.559375 40.95625 
L 375.032813 40.95625 
Q 377.032813 40.95625 377.032813 38.95625 
L 377.032813 10.6 
Q 377.032813 8.6 375.032813 8.6 
L 323.559375 8.6 
Q 321.559375 8.6 321.559375 10.6 
L 321.559375 38.95625 
Q 321.559375 40.95625 323.559375 40.95625 
L 323.559375 40.95625 
z
" style="fill: none; opacity: 0.9; stroke: #cccccc; stroke-linejoin: miter"/>
    </g>
    <g id="line2d_27">
     <path d="M 325.559375 16.698437 
L 335.559375 16.698437 
L 345.559375 16.698437 
" style="fill: none; stroke: #8000ff; stroke-width: 2; stroke-linecap: square"/>
    </g>
    <g id="text_14" class="text">
     <!-- p(z) -->
     <g transform="translate(353.559375 20.198437) scale(0.1 -0.1)">
      <defs>
       <path id="DejaVuSerif-70" d="M 1313 1825 
L 1313 1497 
Q 1313 897 1542 583 
Q 1772 269 2209 269 
Q 2650 269 2876 622 
Q 3103 975 3103 1663 
Q 3103 2353 2876 2703 
Q 2650 3053 2209 3053 
Q 1772 3053 1542 2737 
Q 1313 2422 1313 1825 
z
M 738 2988 
L 184 2988 
L 184 3322 
L 1313 3322 
L 1313 2803 
Q 1481 3116 1742 3264 
Q 2003 3413 2388 3413 
Q 3000 3413 3387 2928 
Q 3775 2444 3775 1663 
Q 3775 881 3387 395 
Q 3000 -91 2388 -91 
Q 2003 -91 1742 57 
Q 1481 206 1313 519 
L 1313 -997 
L 1856 -997 
L 1856 -1331 
L 184 -1331 
L 184 -997 
L 738 -997 
L 738 2988 
z
" transform="scale(0.015625)"/>
       <path id="DejaVuSerif-28" d="M 2041 -997 
Q 1281 -656 893 83 
Q 506 822 506 1931 
Q 506 3044 893 3783 
Q 1281 4522 2041 4863 
L 2041 4556 
Q 1559 4225 1350 3623 
Q 1141 3022 1141 1931 
Q 1141 844 1350 242 
Q 1559 -359 2041 -691 
L 2041 -997 
z
" transform="scale(0.015625)"/>
       <path id="DejaVuSerif-29" d="M 453 -997 
L 453 -691 
Q 934 -359 1145 242 
Q 1356 844 1356 1931 
Q 1356 3022 1145 3623 
Q 934 4225 453 4556 
L 453 4863 
Q 1216 4522 1603 3783 
Q 1991 3044 1991 1931 
Q 1991 822 1603 83 
Q 1216 -656 453 -997 
z
" transform="scale(0.015625)"/>
      </defs>
      <use xlink:href="#DejaVuSerif-70"/>
      <use xlink:href="#DejaVuSerif-28" transform="translate(64.013672 0)"/>
      <use xlink:href="#DejaVuSerif-7a" transform="translate(103.027344 0)"/>
      <use xlink:href="#DejaVuSerif-29" transform="translate(155.712891 0)"/>
     </g>
    </g>
    <g id="line2d_28">
     <path d="M 325.559375 31.376562 
L 335.559375 31.376562 
L 345.559375 31.376562 
" style="fill: none; stroke: #ff8000; stroke-width: 2; stroke-linecap: square"/>
    </g>
    <g id="text_15" class="text">
     <!-- f(z) -->
     <g transform="translate(353.559375 34.876562) scale(0.1 -0.1)">
      <defs>
       <path id="DejaVuSerif-66" d="M 2753 4078 
L 2450 4078 
Q 2447 4313 2317 4434 
Q 2188 4556 1941 4556 
Q 1619 4556 1487 4379 
Q 1356 4203 1356 3750 
L 1356 3322 
L 2284 3322 
L 2284 2988 
L 1356 2988 
L 1356 331 
L 2094 331 
L 2094 0 
L 231 0 
L 231 331 
L 781 331 
L 781 2988 
L 231 2988 
L 231 3322 
L 781 3322 
L 781 3738 
Q 781 4294 1070 4578 
Q 1359 4863 1919 4863 
Q 2128 4863 2337 4825 
Q 2547 4788 2753 4709 
L 2753 4078 
z
" transform="scale(0.015625)"/>
      </defs>
      <use xlink:href="#DejaVuSerif-66"/>
      <use xlink:href="#DejaVuSerif-28" transform="translate(37.011719 0)"/>
      <use xlink:href="#DejaVuSerif-7a" transform="translate(76.025391 0)"/>
      <use xlink:href="#DejaVuSerif-29" transform="translate(128.710938 0)"/>
     </g>
    </g>
   </g>
  </g>
 </g>
 <defs>
  <clipPath id="p6fd653690b">
   <rect x="24.912813" y="3.6" width="357.12" height="266.112"/>
  </clipPath>
 </defs>
</svg>
