<?xml version="1.0" encoding="utf-8" standalone="no"?>
<!DOCTYPE svg PUBLIC "-//W3C//DTD SVG 1.1//EN"
  "http://www.w3.org/Graphics/SVG/1.1/DTD/svg11.dtd">
<svg xmlns:xlink="http://www.w3.org/1999/xlink" width="468pt" height="289.245983pt" viewBox="0 0 468 289.245983" xmlns="http://www.w3.org/2000/svg" version="1.1">
<style>:root { --axis-color:#2a241c; --grid-color:rgba(42, 36, 28, 0.14); --black:#000000;--c1:#D55E00;--c2:#009E73;--c3:#56B4E9;--c4:#CC79A7;--c5:#E69F00;--c6:#C7B42E;--c7:#999999;--c8:#0072B2;--gray:#999999;--grey:#999999;--octonary:#0072B2;--primary:#D55E00;--quaternary:#CC79A7;--quinary:#E69F00;--secondary:#009E73;--senary:#C7B42E;--septenary:#999999;--tertiary:#56B4E9;--white:#ffffff; }
@media (prefers-color-scheme:dark) {
  :root { --axis-color:#e6dfd2; --grid-color:rgba(230, 223, 210, 0.16); --black:#FFFFFF;--c1:#E36A1C;--c2:#23AB7F;--c3:#3F9FD3;--c4:#C673A1;--c5:#C38819;--c6:#847500;--c7:#929292;--c8:#1F81C2;--gray:#929292;--grey:#929292;--octonary:#1F81C2;--primary:#E36A1C;--quaternary:#C673A1;--quinary:#C38819;--secondary:#23AB7F;--senary:#847500;--septenary:#929292;--tertiary:#3F9FD3;--white:#000000; }
}
.plot3d path,.plot3d polygon { stroke:var(--axis-color); }
.plot3d-grid line { stroke:var(--grid-color); }</style>

 <metadata>
  <rdf:RDF xmlns:dc="http://purl.org/dc/elements/1.1/" xmlns:cc="http://creativecommons.org/ns#" xmlns:rdf="http://www.w3.org/1999/02/22-rdf-syntax-ns#">
   <cc:Work>
    <dc:type rdf:resource="http://purl.org/dc/dcmitype/StillImage"/>
    <dc:format>image/svg+xml</dc:format>
    <dc:creator>
     <cc:Agent>
      <dc:title>Matplotlib v3.10.1, https://matplotlib.org/</dc:title>
     </cc:Agent>
    </dc:creator>
   </cc:Work>
  </rdf:RDF>
 </metadata>
 <defs>
  <style type="text/css">*{stroke-linejoin: round; stroke-linecap: butt}</style>
 </defs>
 <g id="figure_1">
  <g class="patch">
   <path d="M 0 289.25 
L 468 289.25 
L 468 0 
L 0 0 
L 0 289.25 
z
" style="fill: none"/>
  </g>
  <g id="axes_1">
   <g class="patch">
    <path d="M 37.19 254.79 
L 465.84 254.79 
L 465.84 18.62 
L 37.19 18.62 
L 37.19 254.79 
z
" style="fill: none"/>
   </g>
   <g class="axis">
    <g class="tick xtick">
     <g id="line2d_1">
      <path d="M 48.22 254.79 
L 48.22 18.62 
" clip-path="url(#p46b65b9a02)" style="fill: none; stroke:var(--grid-color); stroke-opacity: 0.15; stroke-width: 0.6; stroke-linecap: round"/>
     </g>
     <g id="line2d_2">
      <defs>
       <path id="mffb8127b41" d="M 0 0 
L 0 3 
" style="stroke:var(--axis-color); stroke-width: 0.7"/>
      </defs>
      <g>
       <use xlink:href="#mffb8127b41" x="48.219637" y="254.790983" style="fill:var(--axis-color); stroke:var(--axis-color); stroke-width: 0.7"/>
      </g>
     </g>
     <g id="text_1" class="text">
      <!-- $\mathdefault{0.0}$ -->
      <g style="fill:var(--axis-color)" transform="translate(41.657137 269.193483) scale(0.105 -0.105)">
       <defs>
        <path id="EBGaramond12-Regular-30" d="M 1613 2643 
Q 2182 2643 2585 2249 
Q 2989 1856 2989 1299 
Q 2989 723 2589 313 
Q 2189 -96 1626 -96 
Q 1056 -96 656 317 
Q 256 730 256 1306 
Q 256 1862 656 2252 
Q 1056 2643 1613 2643 
z
M 1658 2381 
Q 1267 2381 1011 2077 
Q 755 1773 755 1306 
Q 755 864 982 515 
Q 1210 166 1581 166 
Q 1997 166 2243 444 
Q 2490 723 2490 1299 
Q 2490 1728 2266 2054 
Q 2042 2381 1658 2381 
z
" transform="scale(0.015625)"/>
        <path id="EBGaramond12-Regular-2e" d="M 486 512 
Q 589 614 736 614 
Q 883 614 985 512 
Q 1088 410 1088 262 
Q 1088 115 985 12 
Q 883 -90 736 -90 
Q 589 -90 486 12 
Q 384 115 384 262 
Q 384 410 486 512 
z
" transform="scale(0.015625)"/>
       </defs>
       <use xlink:href="#EBGaramond12-Regular-30" transform="translate(0 0.703125)"/>
       <use xlink:href="#EBGaramond12-Regular-2e" transform="translate(50.699997 0.703125)"/>
       <use xlink:href="#EBGaramond12-Regular-30" transform="translate(73.699982 0.703125)"/>
      </g>
     </g>
    </g>
    <g class="tick xtick">
     <g id="line2d_3">
      <path d="M 130.32 254.79 
L 130.32 18.62 
" clip-path="url(#p46b65b9a02)" style="fill: none; stroke:var(--grid-color); stroke-opacity: 0.15; stroke-width: 0.6; stroke-linecap: round"/>
     </g>
     <g id="line2d_4">
      <g>
       <use xlink:href="#mffb8127b41" x="130.317173" y="254.790983" style="fill:var(--axis-color); stroke:var(--axis-color); stroke-width: 0.7"/>
      </g>
     </g>
     <g id="text_2" class="text">
      <!-- $\mathdefault{0.2}$ -->
      <g style="fill:var(--axis-color)" transform="translate(124.227173 269.193483) scale(0.105 -0.105)">
       <defs>
        <path id="EBGaramond12-Regular-32" d="M 2323 -26 
L 1907 -13 
Q 1485 0 1229 0 
Q 1050 0 797 -3 
Q 544 -6 365 -13 
L 186 -19 
Q 141 -19 141 32 
Q 141 64 186 109 
Q 442 365 576 474 
Q 1446 1184 1446 1709 
Q 1446 1933 1331 2070 
Q 1216 2208 1030 2208 
Q 563 2208 288 1901 
Q 243 1856 205 1856 
Q 160 1856 160 1946 
Q 160 1971 195 2041 
Q 230 2112 316 2214 
Q 403 2317 518 2413 
Q 634 2509 819 2576 
Q 1005 2643 1216 2643 
Q 1510 2643 1696 2409 
Q 1882 2176 1882 1856 
Q 1882 1542 1619 1222 
Q 1491 1069 1200 790 
Q 909 512 845 467 
Q 800 435 877 422 
Q 890 416 902 416 
L 1894 416 
Q 2074 416 2237 525 
Q 2400 634 2490 819 
Q 2528 883 2611 883 
Q 2637 883 2637 845 
Q 2637 819 2630 806 
Q 2419 211 2419 77 
Q 2419 38 2380 6 
Q 2342 -26 2323 -26 
z
" transform="scale(0.015625)"/>
       </defs>
       <use xlink:href="#EBGaramond12-Regular-30" transform="translate(0 0.703125)"/>
       <use xlink:href="#EBGaramond12-Regular-2e" transform="translate(50.699997 0.703125)"/>
       <use xlink:href="#EBGaramond12-Regular-32" transform="translate(73.699982 0.703125)"/>
      </g>
     </g>
    </g>
    <g class="tick xtick">
     <g id="line2d_5">
      <path d="M 212.41 254.79 
L 212.41 18.62 
" clip-path="url(#p46b65b9a02)" style="fill: none; stroke:var(--grid-color); stroke-opacity: 0.15; stroke-width: 0.6; stroke-linecap: round"/>
     </g>
     <g id="line2d_6">
      <g>
       <use xlink:href="#mffb8127b41" x="212.414709" y="254.790983" style="fill:var(--axis-color); stroke:var(--axis-color); stroke-width: 0.7"/>
      </g>
     </g>
     <g id="text_3" class="text">
      <!-- $\mathdefault{0.4}$ -->
      <g style="fill:var(--axis-color)" transform="translate(205.957209 269.193483) scale(0.105 -0.105)">
       <defs>
        <path id="EBGaramond12-Regular-34" d="M 1990 2413 
Q 2029 2451 2093 2528 
Q 2157 2605 2198 2649 
Q 2240 2694 2246 2694 
Q 2266 2694 2266 2618 
Q 2266 2240 2253 1657 
Q 2240 1075 2240 698 
Q 2240 659 2272 659 
Q 2368 653 2528 653 
Q 2624 653 2906 666 
Q 2976 666 2976 621 
Q 2976 544 2925 441 
Q 2874 339 2842 339 
Q 2797 339 2688 342 
Q 2579 346 2528 346 
Q 2432 346 2330 333 
Q 2246 314 2246 294 
L 2246 -851 
Q 2246 -954 2089 -1056 
Q 1933 -1158 1875 -1158 
Q 1779 -1158 1779 -1075 
L 1779 262 
Q 1779 288 1737 304 
Q 1696 320 1683 320 
Q 1421 320 989 301 
Q 557 282 218 275 
Q 134 275 134 307 
Q 134 333 160 358 
L 1990 2413 
z
M 1702 666 
Q 1779 666 1779 717 
L 1779 1798 
Q 1779 1811 1753 1814 
Q 1728 1818 1715 1805 
L 742 723 
Q 730 710 742 688 
Q 755 666 774 666 
L 1702 666 
z
" transform="scale(0.015625)"/>
       </defs>
       <use xlink:href="#EBGaramond12-Regular-30" transform="translate(0 0.90625)"/>
       <use xlink:href="#EBGaramond12-Regular-2e" transform="translate(50.699997 0.90625)"/>
       <use xlink:href="#EBGaramond12-Regular-34" transform="translate(73.699982 0.90625)"/>
      </g>
     </g>
    </g>
    <g class="tick xtick">
     <g id="line2d_7">
      <path d="M 294.51 254.79 
L 294.51 18.62 
" clip-path="url(#p46b65b9a02)" style="fill: none; stroke:var(--grid-color); stroke-opacity: 0.15; stroke-width: 0.6; stroke-linecap: round"/>
     </g>
     <g id="line2d_8">
      <g>
       <use xlink:href="#mffb8127b41" x="294.512245" y="254.790983" style="fill:var(--axis-color); stroke:var(--axis-color); stroke-width: 0.7"/>
      </g>
     </g>
     <g id="text_4" class="text">
      <!-- $\mathdefault{0.6}$ -->
      <g style="fill:var(--axis-color)" transform="translate(288.054745 269.193483) scale(0.105 -0.105)">
       <defs>
        <path id="EBGaramond12-Regular-36" d="M 1485 -90 
Q 877 -90 569 272 
Q 262 634 262 1235 
Q 262 2189 998 3053 
Q 1267 3360 1728 3654 
Q 2189 3949 2733 4090 
L 2765 4090 
Q 2822 4090 2822 4064 
Q 2822 4045 2809 4022 
Q 2797 4000 2771 3987 
Q 2746 3974 2726 3961 
Q 2707 3949 2682 3942 
L 2656 3930 
Q 1818 3565 1363 2918 
Q 794 2099 794 1216 
Q 794 774 1011 506 
Q 1114 378 1299 259 
Q 1485 141 1670 141 
Q 1926 141 2093 275 
Q 2368 486 2368 909 
Q 2368 1210 2192 1437 
Q 2016 1664 1766 1664 
Q 1440 1664 1254 1568 
Q 1197 1542 1184 1571 
Q 1171 1600 1210 1638 
Q 1286 1722 1382 1792 
Q 1472 1862 1661 1932 
Q 1850 2003 2010 2003 
Q 2342 2003 2576 1779 
Q 2810 1555 2810 1216 
Q 2810 672 2464 291 
Q 2118 -90 1485 -90 
z
" transform="scale(0.015625)"/>
       </defs>
       <use xlink:href="#EBGaramond12-Regular-30" transform="translate(0 0.09375)"/>
       <use xlink:href="#EBGaramond12-Regular-2e" transform="translate(50.699997 0.09375)"/>
       <use xlink:href="#EBGaramond12-Regular-36" transform="translate(73.699982 0.09375)"/>
      </g>
     </g>
    </g>
    <g class="tick xtick">
     <g id="line2d_9">
      <path d="M 376.61 254.79 
L 376.61 18.62 
" clip-path="url(#p46b65b9a02)" style="fill: none; stroke:var(--grid-color); stroke-opacity: 0.15; stroke-width: 0.6; stroke-linecap: round"/>
     </g>
     <g id="line2d_10">
      <g>
       <use xlink:href="#mffb8127b41" x="376.609781" y="254.790983" style="fill:var(--axis-color); stroke:var(--axis-color); stroke-width: 0.7"/>
      </g>
     </g>
     <g id="text_5" class="text">
      <!-- $\mathdefault{0.8}$ -->
      <g style="fill:var(--axis-color)" transform="translate(370.362281 269.193483) scale(0.105 -0.105)">
       <defs>
        <path id="EBGaramond12-Regular-38" d="M 1261 1670 
Q 1101 1542 1030 1468 
Q 960 1395 899 1260 
Q 838 1126 838 941 
Q 838 627 1027 390 
Q 1216 154 1510 154 
Q 1779 154 1955 326 
Q 2131 499 2131 755 
Q 2131 1178 1427 1658 
Q 1357 1709 1331 1709 
Q 1312 1709 1261 1670 
z
M 1830 2016 
Q 2221 1760 2400 1549 
Q 2579 1338 2579 1005 
Q 2579 550 2227 233 
Q 1875 -83 1421 -83 
Q 1005 -83 697 182 
Q 390 448 390 845 
Q 390 1030 460 1187 
Q 531 1344 672 1465 
Q 813 1587 912 1654 
Q 1011 1722 1171 1805 
Q 1210 1837 1203 1846 
Q 1197 1856 1152 1888 
Q 928 2074 803 2202 
Q 678 2330 569 2541 
Q 461 2752 461 2989 
Q 461 3334 793 3552 
Q 1126 3770 1549 3770 
Q 1920 3770 2205 3546 
Q 2490 3322 2490 2976 
Q 2490 2656 2182 2394 
Q 2080 2304 1862 2144 
Q 1786 2086 1782 2067 
Q 1779 2048 1830 2016 
z
M 1696 2176 
Q 2042 2458 2042 3021 
Q 2042 3251 1888 3433 
Q 1734 3616 1517 3616 
Q 1280 3616 1094 3469 
Q 909 3322 909 3110 
Q 909 2976 934 2877 
Q 960 2778 1046 2675 
Q 1133 2573 1181 2525 
Q 1229 2477 1392 2352 
Q 1555 2227 1619 2176 
Q 1658 2150 1696 2176 
z
" transform="scale(0.015625)"/>
       </defs>
       <use xlink:href="#EBGaramond12-Regular-30" transform="translate(0 0.09375)"/>
       <use xlink:href="#EBGaramond12-Regular-2e" transform="translate(50.699997 0.09375)"/>
       <use xlink:href="#EBGaramond12-Regular-38" transform="translate(73.699982 0.09375)"/>
      </g>
     </g>
    </g>
    <g class="tick xtick">
     <g id="line2d_11">
      <path d="M 458.71 254.79 
L 458.71 18.62 
" clip-path="url(#p46b65b9a02)" style="fill: none; stroke:var(--grid-color); stroke-opacity: 0.15; stroke-width: 0.6; stroke-linecap: round"/>
     </g>
     <g id="line2d_12">
      <g>
       <use xlink:href="#mffb8127b41" x="458.707317" y="254.790983" style="fill:var(--axis-color); stroke:var(--axis-color); stroke-width: 0.7"/>
      </g>
     </g>
     <g id="text_6" class="text">
      <!-- $\mathdefault{1.0}$ -->
      <g style="fill:var(--axis-color)" transform="translate(453.299817 269.193483) scale(0.105 -0.105)">
       <defs>
        <path id="EBGaramond12-Regular-31" d="M 698 435 
L 698 2131 
Q 698 2189 685 2233 
Q 672 2278 659 2307 
Q 646 2336 614 2361 
Q 582 2387 563 2400 
Q 544 2413 496 2422 
Q 448 2432 432 2435 
Q 416 2438 358 2448 
Q 301 2458 294 2458 
Q 250 2458 250 2528 
Q 250 2598 294 2598 
Q 506 2598 662 2588 
Q 819 2579 928 2579 
Q 1030 2579 1187 2588 
Q 1344 2598 1549 2598 
Q 1600 2598 1600 2534 
Q 1600 2470 1549 2458 
Q 1530 2451 1459 2438 
Q 1389 2426 1363 2419 
Q 1338 2413 1286 2390 
Q 1235 2368 1216 2339 
Q 1197 2310 1177 2256 
Q 1158 2202 1158 2131 
L 1158 435 
Q 1158 314 1225 253 
Q 1293 192 1357 179 
Q 1421 166 1613 141 
Q 1690 128 1690 58 
Q 1690 -19 1613 -19 
Q 1421 -19 1235 -3 
Q 1050 13 928 13 
Q 800 13 605 -3 
Q 410 -19 230 -19 
Q 160 -19 160 70 
Q 160 141 230 141 
Q 326 147 380 156 
Q 435 166 521 192 
Q 608 218 653 282 
Q 698 346 698 435 
z
" transform="scale(0.015625)"/>
       </defs>
       <use xlink:href="#EBGaramond12-Regular-31" transform="translate(0 0.703125)"/>
       <use xlink:href="#EBGaramond12-Regular-2e" transform="translate(28.899994 0.703125)"/>
       <use xlink:href="#EBGaramond12-Regular-30" transform="translate(51.899979 0.703125)"/>
      </g>
     </g>
    </g>
    <g id="text_7" class="text">
     <!-- x -->
     <g style="fill:var(--axis-color)" transform="translate(249.3625 284.235983) scale(0.1 -0.1)">
      <defs>
       <path id="EBGaramond12-Regular-78" d="M 1408 51 
Q 1408 128 1587 185 
Q 1766 243 1766 333 
Q 1766 384 1728 448 
L 1382 1037 
Q 1350 1088 1331 1056 
L 902 429 
Q 870 378 870 307 
Q 870 192 960 166 
Q 1107 115 1107 51 
Q 1107 -6 960 -6 
Q 928 -6 803 0 
Q 678 6 621 6 
Q 486 6 361 -10 
Q 237 -26 192 -26 
Q 64 -26 64 32 
Q 64 109 211 147 
Q 384 198 640 512 
L 1184 1190 
Q 1242 1261 1197 1338 
L 678 2144 
Q 544 2368 384 2413 
Q 237 2451 237 2528 
Q 237 2586 384 2586 
Q 499 2586 611 2573 
Q 723 2560 890 2560 
Q 966 2560 1056 2566 
Q 1146 2573 1216 2573 
Q 1363 2573 1363 2515 
Q 1363 2464 1238 2422 
Q 1114 2381 1114 2317 
Q 1114 2246 1197 2112 
L 1453 1715 
Q 1485 1658 1504 1683 
L 1818 2163 
Q 1869 2234 1869 2304 
Q 1869 2381 1786 2406 
Q 1638 2458 1638 2522 
Q 1638 2579 1786 2579 
Q 1811 2579 1929 2569 
Q 2048 2560 2106 2560 
Q 2240 2560 2355 2576 
Q 2470 2592 2509 2592 
Q 2637 2592 2637 2534 
Q 2637 2470 2490 2419 
Q 2182 2330 2035 2118 
L 1619 1530 
Q 1594 1491 1626 1446 
L 2246 416 
Q 2381 192 2541 147 
Q 2688 109 2688 32 
Q 2688 -26 2560 -26 
Q 2438 -26 2313 -13 
Q 2189 0 2022 0 
Q 1946 0 1786 -3 
Q 1626 -6 1555 -6 
Q 1408 -6 1408 51 
z
" transform="scale(0.015625)"/>
      </defs>
      <use xlink:href="#EBGaramond12-Regular-78"/>
     </g>
    </g>
   </g>
   <g class="axis">
    <g class="tick ytick">
     <g id="line2d_13">
      <path d="M 37.19 245.26 
L 465.84 245.26 
" clip-path="url(#p46b65b9a02)" style="fill: none; stroke:var(--grid-color); stroke-opacity: 0.15; stroke-width: 0.6; stroke-linecap: round"/>
     </g>
     <g id="line2d_14">
      <defs>
       <path id="md54551f048" d="M 0 0 
L -3 0 
" style="stroke:var(--axis-color); stroke-width: 0.7"/>
      </defs>
      <g>
       <use xlink:href="#md54551f048" x="37.185" y="245.264055" style="fill:var(--axis-color); stroke:var(--axis-color); stroke-width: 0.7"/>
      </g>
     </g>
     <g id="text_8" class="text">
      <!-- $\mathdefault{0.0}$ -->
      <g style="fill:var(--axis-color)" transform="translate(17.06 248.965305) scale(0.105 -0.105)">
       <use xlink:href="#EBGaramond12-Regular-30" transform="translate(0 0.703125)"/>
       <use xlink:href="#EBGaramond12-Regular-2e" transform="translate(50.699997 0.703125)"/>
       <use xlink:href="#EBGaramond12-Regular-30" transform="translate(73.699982 0.703125)"/>
      </g>
     </g>
    </g>
    <g class="tick ytick">
     <g id="line2d_15">
      <path d="M 37.19 201.51 
L 465.84 201.51 
" clip-path="url(#p46b65b9a02)" style="fill: none; stroke:var(--grid-color); stroke-opacity: 0.15; stroke-width: 0.6; stroke-linecap: round"/>
     </g>
     <g id="line2d_16">
      <g>
       <use xlink:href="#md54551f048" x="37.185" y="201.508483" style="fill:var(--axis-color); stroke:var(--axis-color); stroke-width: 0.7"/>
      </g>
     </g>
     <g id="text_9" class="text">
      <!-- $\mathdefault{0.2}$ -->
      <g style="fill:var(--axis-color)" transform="translate(18.005 205.209733) scale(0.105 -0.105)">
       <use xlink:href="#EBGaramond12-Regular-30" transform="translate(0 0.703125)"/>
       <use xlink:href="#EBGaramond12-Regular-2e" transform="translate(50.699997 0.703125)"/>
       <use xlink:href="#EBGaramond12-Regular-32" transform="translate(73.699982 0.703125)"/>
      </g>
     </g>
    </g>
    <g class="tick ytick">
     <g id="line2d_17">
      <path d="M 37.19 157.75 
L 465.84 157.75 
" clip-path="url(#p46b65b9a02)" style="fill: none; stroke:var(--grid-color); stroke-opacity: 0.15; stroke-width: 0.6; stroke-linecap: round"/>
     </g>
     <g id="line2d_18">
      <g>
       <use xlink:href="#md54551f048" x="37.185" y="157.752912" style="fill:var(--axis-color); stroke:var(--axis-color); stroke-width: 0.7"/>
      </g>
     </g>
     <g id="text_10" class="text">
      <!-- $\mathdefault{0.4}$ -->
      <g style="fill:var(--axis-color)" transform="translate(17.27 161.454162) scale(0.105 -0.105)">
       <use xlink:href="#EBGaramond12-Regular-30" transform="translate(0 0.90625)"/>
       <use xlink:href="#EBGaramond12-Regular-2e" transform="translate(50.699997 0.90625)"/>
       <use xlink:href="#EBGaramond12-Regular-34" transform="translate(73.699982 0.90625)"/>
      </g>
     </g>
    </g>
    <g class="tick ytick">
     <g id="line2d_19">
      <path d="M 37.19 114 
L 465.84 114 
" clip-path="url(#p46b65b9a02)" style="fill: none; stroke:var(--grid-color); stroke-opacity: 0.15; stroke-width: 0.6; stroke-linecap: round"/>
     </g>
     <g id="line2d_20">
      <g>
       <use xlink:href="#md54551f048" x="37.185" y="113.99734" style="fill:var(--axis-color); stroke:var(--axis-color); stroke-width: 0.7"/>
      </g>
     </g>
     <g id="text_11" class="text">
      <!-- $\mathdefault{0.6}$ -->
      <g style="fill:var(--axis-color)" transform="translate(17.27 117.69859) scale(0.105 -0.105)">
       <use xlink:href="#EBGaramond12-Regular-30" transform="translate(0 0.09375)"/>
       <use xlink:href="#EBGaramond12-Regular-2e" transform="translate(50.699997 0.09375)"/>
       <use xlink:href="#EBGaramond12-Regular-36" transform="translate(73.699982 0.09375)"/>
      </g>
     </g>
    </g>
    <g class="tick ytick">
     <g id="line2d_21">
      <path d="M 37.19 70.24 
L 465.84 70.24 
" clip-path="url(#p46b65b9a02)" style="fill: none; stroke:var(--grid-color); stroke-opacity: 0.15; stroke-width: 0.6; stroke-linecap: round"/>
     </g>
     <g id="line2d_22">
      <g>
       <use xlink:href="#md54551f048" x="37.185" y="70.241768" style="fill:var(--axis-color); stroke:var(--axis-color); stroke-width: 0.7"/>
      </g>
     </g>
     <g id="text_12" class="text">
      <!-- $\mathdefault{0.8}$ -->
      <g style="fill:var(--axis-color)" transform="translate(17.69 73.943018) scale(0.105 -0.105)">
       <use xlink:href="#EBGaramond12-Regular-30" transform="translate(0 0.09375)"/>
       <use xlink:href="#EBGaramond12-Regular-2e" transform="translate(50.699997 0.09375)"/>
       <use xlink:href="#EBGaramond12-Regular-38" transform="translate(73.699982 0.09375)"/>
      </g>
     </g>
    </g>
    <g class="tick ytick">
     <g id="line2d_23">
      <path d="M 37.19 26.49 
L 465.84 26.49 
" clip-path="url(#p46b65b9a02)" style="fill: none; stroke:var(--grid-color); stroke-opacity: 0.15; stroke-width: 0.6; stroke-linecap: round"/>
     </g>
     <g id="line2d_24">
      <g>
       <use xlink:href="#md54551f048" x="37.185" y="26.486197" style="fill:var(--axis-color); stroke:var(--axis-color); stroke-width: 0.7"/>
      </g>
     </g>
     <g id="text_13" class="text">
      <!-- $\mathdefault{1.0}$ -->
      <g style="fill:var(--axis-color)" transform="translate(19.37 30.187447) scale(0.105 -0.105)">
       <use xlink:href="#EBGaramond12-Regular-31" transform="translate(0 0.703125)"/>
       <use xlink:href="#EBGaramond12-Regular-2e" transform="translate(28.899994 0.703125)"/>
       <use xlink:href="#EBGaramond12-Regular-30" transform="translate(51.899979 0.703125)"/>
      </g>
     </g>
    </g>
    <g id="text_14" class="text">
     <!-- y -->
     <g style="fill:var(--axis-color)" transform="translate(9.21 138.895335) rotate(-90) scale(0.1 -0.1)">
      <defs>
       <path id="EBGaramond12-Regular-79" d="M 83 -1594 
Q 83 -1402 256 -1402 
Q 307 -1402 393 -1421 
Q 480 -1440 512 -1440 
Q 589 -1440 634 -1370 
Q 928 -864 1216 -102 
Q 1235 -45 1235 45 
Q 1235 160 1210 230 
L 467 2106 
Q 358 2368 179 2419 
Q 32 2470 32 2534 
Q 32 2592 160 2592 
Q 294 2592 406 2576 
Q 518 2560 627 2560 
Q 736 2560 857 2576 
Q 979 2592 1114 2592 
Q 1242 2592 1242 2522 
Q 1242 2432 1056 2381 
Q 928 2342 928 2176 
Q 928 2118 979 1997 
L 1485 742 
Q 1536 621 1581 749 
L 2010 1888 
Q 2061 2003 2061 2125 
Q 2061 2317 1933 2368 
Q 1747 2451 1747 2521 
Q 1747 2592 1875 2592 
Q 1920 2592 2057 2576 
Q 2195 2560 2330 2560 
Q 2458 2560 2554 2576 
Q 2650 2592 2707 2592 
Q 2835 2592 2835 2534 
Q 2835 2470 2688 2419 
Q 2592 2387 2483 2265 
Q 2374 2144 2310 1990 
L 1440 -83 
Q 1434 -102 1334 -339 
Q 1235 -576 1088 -934 
Q 941 -1293 826 -1562 
Q 710 -1824 410 -1824 
Q 288 -1824 185 -1760 
Q 83 -1696 83 -1594 
z
" transform="scale(0.015625)"/>
      </defs>
      <use xlink:href="#EBGaramond12-Regular-79"/>
     </g>
    </g>
   </g>
   <g id="PathCollection_1">
    <path d="M 201.96 34.39 
C 202.3 34.39 202.62 34.26 202.85 34.03 
C 203.09 33.79 203.22 33.47 203.22 33.14 
C 203.22 32.81 203.09 32.49 202.85 32.25 
C 202.62 32.02 202.3 31.89 201.96 31.89 
C 201.63 31.89 201.31 32.02 201.08 32.25 
C 200.84 32.49 200.71 32.81 200.71 33.14 
C 200.71 33.47 200.84 33.79 201.08 34.03 
C 201.31 34.26 201.63 34.39 201.96 34.39 
z
" clip-path="url(#p46b65b9a02)" style="fill:var(--c1); fill-opacity: 0.7; stroke:var(--c1); stroke-opacity: 0.7"/>
    <path d="M 438.48 81.32 
C 439.97 81.32 441.41 80.73 442.46 79.67 
C 443.52 78.61 444.12 77.18 444.12 75.68 
C 444.12 74.19 443.52 72.75 442.46 71.69 
C 441.41 70.64 439.97 70.04 438.48 70.04 
C 436.98 70.04 435.55 70.64 434.49 71.69 
C 433.43 72.75 432.84 74.19 432.84 75.68 
C 432.84 77.18 433.43 78.61 434.49 79.67 
C 435.55 80.73 436.98 81.32 438.48 81.32 
z
" clip-path="url(#p46b65b9a02)" style="fill:var(--c1); fill-opacity: 0.7; stroke:var(--c1); stroke-opacity: 0.7"/>
    <path d="M 348.69 43.69 
C 349.75 43.69 350.75 43.27 351.5 42.53 
C 352.24 41.78 352.66 40.77 352.66 39.72 
C 352.66 38.67 352.24 37.66 351.5 36.92 
C 350.75 36.18 349.75 35.76 348.69 35.76 
C 347.64 35.76 346.63 36.18 345.89 36.92 
C 345.15 37.66 344.73 38.67 344.73 39.72 
C 344.73 40.77 345.15 41.78 345.89 42.53 
C 346.63 43.27 347.64 43.69 348.69 43.69 
z
" clip-path="url(#p46b65b9a02)" style="fill:var(--c1); fill-opacity: 0.7; stroke:var(--c1); stroke-opacity: 0.7"/>
    <path d="M 293.96 54.54 
C 295.3 54.54 296.58 54.01 297.53 53.06 
C 298.47 52.12 299 50.83 299 49.5 
C 299 48.16 298.47 46.88 297.53 45.93 
C 296.58 44.98 295.3 44.45 293.96 44.45 
C 292.62 44.45 291.34 44.98 290.4 45.93 
C 289.45 46.88 288.92 48.16 288.92 49.5 
C 288.92 50.83 289.45 52.12 290.4 53.06 
C 291.34 54.01 292.62 54.54 293.96 54.54 
z
" clip-path="url(#p46b65b9a02)" style="fill:var(--c1); fill-opacity: 0.7; stroke:var(--c1); stroke-opacity: 0.7"/>
    <path d="M 112.26 121.19 
C 114.05 121.19 115.76 120.48 117.03 119.22 
C 118.29 117.96 119 116.24 119 114.46 
C 119 112.67 118.29 110.96 117.03 109.69 
C 115.76 108.43 114.05 107.72 112.26 107.72 
C 110.48 107.72 108.76 108.43 107.5 109.69 
C 106.24 110.96 105.53 112.67 105.53 114.46 
C 105.53 116.24 106.24 117.96 107.5 119.22 
C 108.76 120.48 110.48 121.19 112.26 121.19 
z
" clip-path="url(#p46b65b9a02)" style="fill:var(--c1); fill-opacity: 0.7; stroke:var(--c1); stroke-opacity: 0.7"/>
    <path d="M 112.25 47.11 
C 113.19 47.11 114.09 46.74 114.75 46.07 
C 115.41 45.41 115.78 44.51 115.78 43.58 
C 115.78 42.64 115.41 41.74 114.75 41.08 
C 114.09 40.42 113.19 40.05 112.25 40.05 
C 111.32 40.05 110.42 40.42 109.76 41.08 
C 109.09 41.74 108.72 42.64 108.72 43.58 
C 108.72 44.51 109.09 45.41 109.76 46.07 
C 110.42 46.74 111.32 47.11 112.25 47.11 
z
" clip-path="url(#p46b65b9a02)" style="fill:var(--c1); fill-opacity: 0.7; stroke:var(--c1); stroke-opacity: 0.7"/>
    <path d="M 72.06 230.43 
C 73.26 230.43 74.42 229.96 75.27 229.11 
C 76.11 228.26 76.59 227.11 76.59 225.9 
C 76.59 224.7 76.11 223.55 75.27 222.7 
C 74.42 221.85 73.26 221.37 72.06 221.37 
C 70.86 221.37 69.71 221.85 68.86 222.7 
C 68.01 223.55 67.53 224.7 67.53 225.9 
C 67.53 227.11 68.01 228.26 68.86 229.11 
C 69.71 229.96 70.86 230.43 72.06 230.43 
z
" clip-path="url(#p46b65b9a02)" style="fill:var(--c1); fill-opacity: 0.7; stroke:var(--c1); stroke-opacity: 0.7"/>
    <path d="M 403.77 208.53 
C 405.4 208.53 406.97 207.89 408.12 206.73 
C 409.27 205.58 409.92 204.02 409.92 202.39 
C 409.92 200.76 409.27 199.19 408.12 198.04 
C 406.97 196.89 405.4 196.24 403.77 196.24 
C 402.14 196.24 400.58 196.89 399.43 198.04 
C 398.28 199.19 397.63 200.76 397.63 202.39 
C 397.63 204.02 398.28 205.58 399.43 206.73 
C 400.58 207.89 402.14 208.53 403.77 208.53 
z
" clip-path="url(#p46b65b9a02)" style="fill:var(--c1); fill-opacity: 0.7; stroke:var(--c1); stroke-opacity: 0.7"/>
    <path d="M 294.97 238.75 
C 295.87 238.75 296.73 238.4 297.36 237.76 
C 298 237.13 298.35 236.27 298.35 235.37 
C 298.35 234.47 298 233.61 297.36 232.98 
C 296.73 232.34 295.87 231.99 294.97 231.99 
C 294.07 231.99 293.21 232.34 292.58 232.98 
C 291.94 233.61 291.59 234.47 291.59 235.37 
C 291.59 236.27 291.94 237.13 292.58 237.76 
C 293.21 238.4 294.07 238.75 294.97 238.75 
z
" clip-path="url(#p46b65b9a02)" style="fill:var(--c1); fill-opacity: 0.7; stroke:var(--c1); stroke-opacity: 0.7"/>
    <path d="M 338.87 176.05 
C 339.4 176.05 339.89 175.84 340.26 175.48 
C 340.63 175.11 340.84 174.61 340.84 174.09 
C 340.84 173.57 340.63 173.07 340.26 172.7 
C 339.89 172.33 339.4 172.13 338.87 172.13 
C 338.35 172.13 337.86 172.33 337.49 172.7 
C 337.12 173.07 336.91 173.57 336.91 174.09 
C 336.91 174.61 337.12 175.11 337.49 175.48 
C 337.86 175.84 338.35 176.05 338.87 176.05 
z
" clip-path="url(#p46b65b9a02)" style="fill:var(--c1); fill-opacity: 0.7; stroke:var(--c1); stroke-opacity: 0.7"/>
    <path d="M 56.67 164.04 
C 57.68 164.04 58.65 163.64 59.36 162.92 
C 60.07 162.21 60.48 161.24 60.48 160.23 
C 60.48 159.22 60.07 158.25 59.36 157.54 
C 58.65 156.82 57.68 156.42 56.67 156.42 
C 55.66 156.42 54.69 156.82 53.98 157.54 
C 53.26 158.25 52.86 159.22 52.86 160.23 
C 52.86 161.24 53.26 162.21 53.98 162.92 
C 54.69 163.64 55.66 164.04 56.67 164.04 
z
" clip-path="url(#p46b65b9a02)" style="fill:var(--c1); fill-opacity: 0.7; stroke:var(--c1); stroke-opacity: 0.7"/>
    <path d="M 446.36 188.74 
C 447.11 188.74 447.83 188.44 448.36 187.91 
C 448.9 187.37 449.19 186.65 449.19 185.9 
C 449.19 185.15 448.9 184.42 448.36 183.89 
C 447.83 183.36 447.11 183.06 446.36 183.06 
C 445.6 183.06 444.88 183.36 444.35 183.89 
C 443.82 184.42 443.52 185.15 443.52 185.9 
C 443.52 186.65 443.82 187.37 444.35 187.91 
C 444.88 188.44 445.6 188.74 446.36 188.74 
z
" clip-path="url(#p46b65b9a02)" style="fill:var(--c1); fill-opacity: 0.7; stroke:var(--c1); stroke-opacity: 0.7"/>
    <path d="M 389.93 70.77 
C 391.74 70.77 393.47 70.05 394.75 68.78 
C 396.03 67.5 396.75 65.76 396.75 63.95 
C 396.75 62.15 396.03 60.41 394.75 59.13 
C 393.47 57.86 391.74 57.14 389.93 57.14 
C 388.12 57.14 386.38 57.86 385.11 59.13 
C 383.83 60.41 383.11 62.15 383.11 63.95 
C 383.11 65.76 383.83 67.5 385.11 68.78 
C 386.38 70.05 388.12 70.77 389.93 70.77 
z
" clip-path="url(#p46b65b9a02)" style="fill:var(--c1); fill-opacity: 0.7; stroke:var(--c1); stroke-opacity: 0.7"/>
    <path d="M 135.38 173.57 
C 137.07 173.57 138.68 172.9 139.88 171.71 
C 141.07 170.52 141.74 168.9 141.74 167.21 
C 141.74 165.53 141.07 163.91 139.88 162.72 
C 138.68 161.53 137.07 160.86 135.38 160.86 
C 133.7 160.86 132.08 161.53 130.89 162.72 
C 129.7 163.91 129.03 165.53 129.03 167.21 
C 129.03 168.9 129.7 170.52 130.89 171.71 
C 132.08 172.9 133.7 173.57 135.38 173.57 
z
" clip-path="url(#p46b65b9a02)" style="fill:var(--c1); fill-opacity: 0.7; stroke:var(--c1); stroke-opacity: 0.7"/>
    <path d="M 122.86 189.43 
C 124.35 189.43 125.78 188.84 126.84 187.78 
C 127.89 186.73 128.48 185.29 128.48 183.8 
C 128.48 182.31 127.89 180.88 126.84 179.82 
C 125.78 178.77 124.35 178.17 122.86 178.17 
C 121.36 178.17 119.93 178.77 118.88 179.82 
C 117.82 180.88 117.23 182.31 117.23 183.8 
C 117.23 185.29 117.82 186.73 118.88 187.78 
C 119.93 188.84 121.36 189.43 122.86 189.43 
z
" clip-path="url(#p46b65b9a02)" style="fill:var(--c1); fill-opacity: 0.7; stroke:var(--c1); stroke-opacity: 0.7"/>
    <path d="M 123.5 133.14 
C 125.26 133.14 126.93 132.44 128.17 131.2 
C 129.41 129.96 130.11 128.28 130.11 126.53 
C 130.11 124.78 129.41 123.1 128.17 121.87 
C 126.93 120.63 125.26 119.93 123.5 119.93 
C 121.75 119.93 120.08 120.63 118.84 121.87 
C 117.6 123.1 116.9 124.78 116.9 126.53 
C 116.9 128.28 117.6 129.96 118.84 131.2 
C 120.08 132.44 121.75 133.14 123.5 133.14 
z
" clip-path="url(#p46b65b9a02)" style="fill:var(--c1); fill-opacity: 0.7; stroke:var(--c1); stroke-opacity: 0.7"/>
    <path d="M 173.11 220.77 
C 174.79 220.77 176.4 220.1 177.59 218.92 
C 178.78 217.73 179.45 216.11 179.45 214.43 
C 179.45 212.75 178.78 211.14 177.59 209.95 
C 176.4 208.76 174.79 208.09 173.11 208.09 
C 171.43 208.09 169.81 208.76 168.62 209.95 
C 167.44 211.14 166.77 212.75 166.77 214.43 
C 166.77 216.11 167.44 217.73 168.62 218.92 
C 169.81 220.1 171.43 220.77 173.11 220.77 
z
" clip-path="url(#p46b65b9a02)" style="fill:var(--c1); fill-opacity: 0.7; stroke:var(--c1); stroke-opacity: 0.7"/>
    <path d="M 263.63 72.82 
C 264.44 72.82 265.21 72.49 265.79 71.92 
C 266.36 71.35 266.68 70.57 266.68 69.76 
C 266.68 68.95 266.36 68.17 265.79 67.6 
C 265.21 67.03 264.44 66.71 263.63 66.71 
C 262.82 66.71 262.04 67.03 261.47 67.6 
C 260.89 68.17 260.57 68.95 260.57 69.76 
C 260.57 70.57 260.89 71.35 261.47 71.92 
C 262.04 72.49 262.82 72.82 263.63 72.82 
z
" clip-path="url(#p46b65b9a02)" style="fill:var(--c1); fill-opacity: 0.7; stroke:var(--c1); stroke-opacity: 0.7"/>
    <path d="M 225.53 235.63 
C 227.3 235.63 229 234.93 230.25 233.68 
C 231.5 232.43 232.21 230.73 232.21 228.95 
C 232.21 227.18 231.5 225.48 230.25 224.23 
C 229 222.98 227.3 222.27 225.53 222.27 
C 223.76 222.27 222.06 222.98 220.8 224.23 
C 219.55 225.48 218.85 227.18 218.85 228.95 
C 218.85 230.73 219.55 232.43 220.8 233.68 
C 222.06 234.93 223.76 235.63 225.53 235.63 
z
" clip-path="url(#p46b65b9a02)" style="fill:var(--c1); fill-opacity: 0.7; stroke:var(--c1); stroke-opacity: 0.7"/>
    <path d="M 167.77 34.55 
C 169.14 34.55 170.46 34 171.44 33.03 
C 172.41 32.05 172.96 30.73 172.96 29.36 
C 172.96 27.98 172.41 26.66 171.44 25.68 
C 170.46 24.71 169.14 24.16 167.77 24.16 
C 166.39 24.16 165.07 24.71 164.09 25.68 
C 163.12 26.66 162.57 27.98 162.57 29.36 
C 162.57 30.73 163.12 32.05 164.09 33.03 
C 165.07 34 166.39 34.55 167.77 34.55 
z
" clip-path="url(#p46b65b9a02)" style="fill:var(--c1); fill-opacity: 0.7; stroke:var(--c1); stroke-opacity: 0.7"/>
    <path d="M 299.38 82.67 
C 301.06 82.67 302.68 82 303.87 80.81 
C 305.06 79.62 305.73 78 305.73 76.31 
C 305.73 74.63 305.06 73.01 303.87 71.82 
C 302.68 70.63 301.06 69.96 299.38 69.96 
C 297.69 69.96 296.08 70.63 294.88 71.82 
C 293.69 73.01 293.02 74.63 293.02 76.31 
C 293.02 78 293.69 79.62 294.88 80.81 
C 296.08 82 297.69 82.67 299.38 82.67 
z
" clip-path="url(#p46b65b9a02)" style="fill:var(--c1); fill-opacity: 0.7; stroke:var(--c1); stroke-opacity: 0.7"/>
    <path d="M 105.48 208.48 
C 107.26 208.48 108.96 207.78 110.21 206.52 
C 111.47 205.27 112.17 203.56 112.17 201.79 
C 112.17 200.01 111.47 198.31 110.21 197.06 
C 108.96 195.8 107.26 195.1 105.48 195.1 
C 103.7 195.1 102 195.8 100.75 197.06 
C 99.49 198.31 98.79 200.01 98.79 201.79 
C 98.79 203.56 99.49 205.27 100.75 206.52 
C 102 207.78 103.7 208.48 105.48 208.48 
z
" clip-path="url(#p46b65b9a02)" style="fill:var(--c1); fill-opacity: 0.7; stroke:var(--c1); stroke-opacity: 0.7"/>
    <path d="M 168.14 248.04 
C 169.2 248.04 170.21 247.62 170.96 246.88 
C 171.71 246.13 172.13 245.11 172.13 244.06 
C 172.13 243 171.71 241.98 170.96 241.24 
C 170.21 240.49 169.2 240.07 168.14 240.07 
C 167.08 240.07 166.07 240.49 165.32 241.24 
C 164.57 241.98 164.15 243 164.15 244.06 
C 164.15 245.11 164.57 246.13 165.32 246.88 
C 166.07 247.62 167.08 248.04 168.14 248.04 
z
" clip-path="url(#p46b65b9a02)" style="fill:var(--c1); fill-opacity: 0.7; stroke:var(--c1); stroke-opacity: 0.7"/>
    <path d="M 198.61 69.2 
C 199.23 69.2 199.83 68.96 200.27 68.52 
C 200.71 68.08 200.95 67.48 200.95 66.86 
C 200.95 66.24 200.71 65.64 200.27 65.2 
C 199.83 64.76 199.23 64.51 198.61 64.51 
C 197.98 64.51 197.39 64.76 196.95 65.2 
C 196.51 65.64 196.26 66.24 196.26 66.86 
C 196.26 67.48 196.51 68.08 196.95 68.52 
C 197.39 68.96 197.98 69.2 198.61 69.2 
z
" clip-path="url(#p46b65b9a02)" style="fill:var(--c1); fill-opacity: 0.7; stroke:var(--c1); stroke-opacity: 0.7"/>
    <path d="M 235.43 94 
C 236.33 94 237.18 93.64 237.82 93.01 
C 238.45 92.37 238.81 91.51 238.81 90.62 
C 238.81 89.72 238.45 88.87 237.82 88.23 
C 237.18 87.6 236.33 87.24 235.43 87.24 
C 234.54 87.24 233.68 87.6 233.04 88.23 
C 232.41 88.87 232.05 89.72 232.05 90.62 
C 232.05 91.51 232.41 92.37 233.04 93.01 
C 233.68 93.64 234.54 94 235.43 94 
z
" clip-path="url(#p46b65b9a02)" style="fill:var(--c1); fill-opacity: 0.7; stroke:var(--c1); stroke-opacity: 0.7"/>
    <path d="M 370.52 90.39 
C 371.75 90.39 372.93 89.91 373.79 89.04 
C 374.66 88.17 375.15 87 375.15 85.77 
C 375.15 84.55 374.66 83.37 373.79 82.51 
C 372.93 81.64 371.75 81.15 370.52 81.15 
C 369.3 81.15 368.12 81.64 367.26 82.51 
C 366.39 83.37 365.9 84.55 365.9 85.77 
C 365.9 87 366.39 88.17 367.26 89.04 
C 368.12 89.91 369.3 90.39 370.52 90.39 
z
" clip-path="url(#p46b65b9a02)" style="fill:var(--c1); fill-opacity: 0.7; stroke:var(--c1); stroke-opacity: 0.7"/>
    <path d="M 130.18 82.92 
C 131.88 82.92 133.51 82.25 134.71 81.05 
C 135.9 79.85 136.58 78.22 136.58 76.53 
C 136.58 74.83 135.9 73.2 134.71 72 
C 133.51 70.81 131.88 70.13 130.18 70.13 
C 128.49 70.13 126.86 70.81 125.66 72 
C 124.46 73.2 123.79 74.83 123.79 76.53 
C 123.79 78.22 124.46 79.85 125.66 81.05 
C 126.86 82.25 128.49 82.92 130.18 82.92 
z
" clip-path="url(#p46b65b9a02)" style="fill:var(--c1); fill-opacity: 0.7; stroke:var(--c1); stroke-opacity: 0.7"/>
    <path d="M 259.31 235.62 
C 261.05 235.62 262.72 234.93 263.95 233.7 
C 265.18 232.47 265.87 230.8 265.87 229.06 
C 265.87 227.32 265.18 225.66 263.95 224.43 
C 262.72 223.2 261.05 222.5 259.31 222.5 
C 257.57 222.5 255.9 223.2 254.67 224.43 
C 253.44 225.66 252.75 227.32 252.75 229.06 
C 252.75 230.8 253.44 232.47 254.67 233.7 
C 255.9 234.93 257.57 235.62 259.31 235.62 
z
" clip-path="url(#p46b65b9a02)" style="fill:var(--c1); fill-opacity: 0.7; stroke:var(--c1); stroke-opacity: 0.7"/>
    <path d="M 291.4 167.43 
C 291.55 167.43 291.7 167.37 291.82 167.26 
C 291.93 167.15 291.99 167 291.99 166.84 
C 291.99 166.68 291.93 166.53 291.82 166.42 
C 291.7 166.31 291.55 166.25 291.4 166.25 
C 291.24 166.25 291.09 166.31 290.98 166.42 
C 290.87 166.53 290.81 166.68 290.81 166.84 
C 290.81 167 290.87 167.15 290.98 167.26 
C 291.09 167.37 291.24 167.43 291.4 167.43 
z
" clip-path="url(#p46b65b9a02)" style="fill:var(--c1); fill-opacity: 0.7; stroke:var(--c1); stroke-opacity: 0.7"/>
    <path d="M 67.29 224.97 
C 68.63 224.97 69.91 224.44 70.86 223.49 
C 71.81 222.54 72.34 221.25 72.34 219.91 
C 72.34 218.57 71.81 217.29 70.86 216.34 
C 69.91 215.39 68.63 214.86 67.29 214.86 
C 65.95 214.86 64.66 215.39 63.71 216.34 
C 62.77 217.29 62.23 218.57 62.23 219.91 
C 62.23 221.25 62.77 222.54 63.71 223.49 
C 64.66 224.44 65.95 224.97 67.29 224.97 
z
" clip-path="url(#p46b65b9a02)" style="fill:var(--c1); fill-opacity: 0.7; stroke:var(--c1); stroke-opacity: 0.7"/>
    <path d="M 297.61 61 
C 298.82 61 299.98 60.52 300.84 59.67 
C 301.7 58.81 302.18 57.65 302.18 56.44 
C 302.18 55.22 301.7 54.06 300.84 53.21 
C 299.98 52.35 298.82 51.87 297.61 51.87 
C 296.4 51.87 295.24 52.35 294.38 53.21 
C 293.52 54.06 293.04 55.22 293.04 56.44 
C 293.04 57.65 293.52 58.81 294.38 59.67 
C 295.24 60.52 296.4 61 297.61 61 
z
" clip-path="url(#p46b65b9a02)" style="fill:var(--c1); fill-opacity: 0.7; stroke:var(--c1); stroke-opacity: 0.7"/>
    <path d="M 118.22 112.23 
C 119.1 112.23 119.95 111.88 120.57 111.26 
C 121.2 110.63 121.55 109.78 121.55 108.9 
C 121.55 108.02 121.2 107.17 120.57 106.54 
C 119.95 105.92 119.1 105.57 118.22 105.57 
C 117.33 105.57 116.49 105.92 115.86 106.54 
C 115.24 107.17 114.89 108.02 114.89 108.9 
C 114.89 109.78 115.24 110.63 115.86 111.26 
C 116.49 111.88 117.33 112.23 118.22 112.23 
z
" clip-path="url(#p46b65b9a02)" style="fill:var(--c1); fill-opacity: 0.7; stroke:var(--c1); stroke-opacity: 0.7"/>
    <path d="M 74.92 175.32 
C 75.57 175.32 76.19 175.06 76.65 174.6 
C 77.11 174.14 77.37 173.52 77.37 172.87 
C 77.37 172.22 77.11 171.6 76.65 171.14 
C 76.19 170.68 75.57 170.42 74.92 170.42 
C 74.27 170.42 73.65 170.68 73.19 171.14 
C 72.73 171.6 72.47 172.22 72.47 172.87 
C 72.47 173.52 72.73 174.14 73.19 174.6 
C 73.65 175.06 74.27 175.32 74.92 175.32 
z
" clip-path="url(#p46b65b9a02)" style="fill:var(--c1); fill-opacity: 0.7; stroke:var(--c1); stroke-opacity: 0.7"/>
    <path d="M 437.73 235.47 
C 438.82 235.47 439.86 235.03 440.63 234.26 
C 441.4 233.49 441.83 232.45 441.83 231.36 
C 441.83 230.27 441.4 229.22 440.63 228.45 
C 439.86 227.68 438.82 227.25 437.73 227.25 
C 436.64 227.25 435.59 227.68 434.82 228.45 
C 434.05 229.22 433.62 230.27 433.62 231.36 
C 433.62 232.45 434.05 233.49 434.82 234.26 
C 435.59 235.03 436.64 235.47 437.73 235.47 
z
" clip-path="url(#p46b65b9a02)" style="fill:var(--c1); fill-opacity: 0.7; stroke:var(--c1); stroke-opacity: 0.7"/>
    <path d="M 444.6 184.09 
C 446.42 184.09 448.17 183.37 449.45 182.08 
C 450.74 180.8 451.47 179.05 451.47 177.23 
C 451.47 175.41 450.74 173.66 449.45 172.37 
C 448.17 171.09 446.42 170.36 444.6 170.36 
C 442.78 170.36 441.03 171.09 439.74 172.37 
C 438.46 173.66 437.73 175.41 437.73 177.23 
C 437.73 179.05 438.46 180.8 439.74 182.08 
C 441.03 183.37 442.78 184.09 444.6 184.09 
z
" clip-path="url(#p46b65b9a02)" style="fill:var(--c1); fill-opacity: 0.7; stroke:var(--c1); stroke-opacity: 0.7"/>
    <path d="M 380.06 178.14 
C 381.12 178.14 382.15 177.72 382.9 176.96 
C 383.65 176.21 384.08 175.19 384.08 174.12 
C 384.08 173.06 383.65 172.03 382.9 171.28 
C 382.15 170.52 381.12 170.1 380.06 170.1 
C 378.99 170.1 377.97 170.52 377.21 171.28 
C 376.46 172.03 376.04 173.06 376.04 174.12 
C 376.04 175.19 376.46 176.21 377.21 176.96 
C 377.97 177.72 378.99 178.14 380.06 178.14 
z
" clip-path="url(#p46b65b9a02)" style="fill:var(--c1); fill-opacity: 0.7; stroke:var(--c1); stroke-opacity: 0.7"/>
    <path d="M 173.26 90.74 
C 174.61 90.74 175.91 90.2 176.86 89.24 
C 177.82 88.29 178.35 86.99 178.35 85.64 
C 178.35 84.29 177.82 83 176.86 82.04 
C 175.91 81.09 174.61 80.55 173.26 80.55 
C 171.91 80.55 170.61 81.09 169.66 82.04 
C 168.7 83 168.17 84.29 168.17 85.64 
C 168.17 86.99 168.7 88.29 169.66 89.24 
C 170.61 90.2 171.91 90.74 173.26 90.74 
z
" clip-path="url(#p46b65b9a02)" style="fill:var(--c1); fill-opacity: 0.7; stroke:var(--c1); stroke-opacity: 0.7"/>
    <path d="M 88.31 111.71 
C 89.89 111.71 91.39 111.08 92.51 109.97 
C 93.62 108.86 94.24 107.35 94.24 105.78 
C 94.24 104.21 93.62 102.7 92.51 101.59 
C 91.39 100.48 89.89 99.85 88.31 99.85 
C 86.74 99.85 85.23 100.48 84.12 101.59 
C 83.01 102.7 82.38 104.21 82.38 105.78 
C 82.38 107.35 83.01 108.86 84.12 109.97 
C 85.23 111.08 86.74 111.71 88.31 111.71 
z
" clip-path="url(#p46b65b9a02)" style="fill:var(--c1); fill-opacity: 0.7; stroke:var(--c1); stroke-opacity: 0.7"/>
    <path d="M 329.09 55.43 
C 330.22 55.43 331.3 54.98 332.1 54.18 
C 332.9 53.38 333.35 52.29 333.35 51.16 
C 333.35 50.03 332.9 48.95 332.1 48.15 
C 331.3 47.35 330.22 46.9 329.09 46.9 
C 327.96 46.9 326.87 47.35 326.07 48.15 
C 325.27 48.95 324.82 50.03 324.82 51.16 
C 324.82 52.29 325.27 53.38 326.07 54.18 
C 326.87 54.98 327.96 55.43 329.09 55.43 
z
" clip-path="url(#p46b65b9a02)" style="fill:var(--c1); fill-opacity: 0.7; stroke:var(--c1); stroke-opacity: 0.7"/>
    <path d="M 228.9 148.92 
C 230.75 148.92 232.52 148.19 233.83 146.88 
C 235.13 145.58 235.87 143.8 235.87 141.95 
C 235.87 140.11 235.13 138.33 233.83 137.02 
C 232.52 135.72 230.75 134.98 228.9 134.98 
C 227.05 134.98 225.28 135.72 223.97 137.02 
C 222.66 138.33 221.93 140.11 221.93 141.95 
C 221.93 143.8 222.66 145.58 223.97 146.88 
C 225.28 148.19 227.05 148.92 228.9 148.92 
z
" clip-path="url(#p46b65b9a02)" style="fill:var(--c1); fill-opacity: 0.7; stroke:var(--c1); stroke-opacity: 0.7"/>
    <path d="M 98.31 226.04 
C 100.15 226.04 101.92 225.31 103.22 224 
C 104.52 222.7 105.25 220.94 105.25 219.1 
C 105.25 217.26 104.52 215.5 103.22 214.19 
C 101.92 212.89 100.15 212.16 98.31 212.16 
C 96.48 212.16 94.71 212.89 93.41 214.19 
C 92.11 215.5 91.38 217.26 91.38 219.1 
C 91.38 220.94 92.11 222.7 93.41 224 
C 94.71 225.31 96.48 226.04 98.31 226.04 
z
" clip-path="url(#p46b65b9a02)" style="fill:var(--c1); fill-opacity: 0.7; stroke:var(--c1); stroke-opacity: 0.7"/>
    <path d="M 251.48 92.77 
C 252.42 92.77 253.33 92.4 253.99 91.73 
C 254.66 91.07 255.03 90.16 255.03 89.22 
C 255.03 88.28 254.66 87.38 253.99 86.71 
C 253.33 86.05 252.42 85.67 251.48 85.67 
C 250.54 85.67 249.64 86.05 248.97 86.71 
C 248.31 87.38 247.94 88.28 247.94 89.22 
C 247.94 90.16 248.31 91.07 248.97 91.73 
C 249.64 92.4 250.54 92.77 251.48 92.77 
z
" clip-path="url(#p46b65b9a02)" style="fill:var(--c1); fill-opacity: 0.7; stroke:var(--c1); stroke-opacity: 0.7"/>
    <path d="M 62.34 83.81 
C 63.66 83.81 64.93 83.28 65.86 82.35 
C 66.8 81.41 67.32 80.14 67.32 78.82 
C 67.32 77.5 66.8 76.23 65.86 75.3 
C 64.93 74.36 63.66 73.83 62.34 73.83 
C 61.01 73.83 59.74 74.36 58.81 75.3 
C 57.87 76.23 57.35 77.5 57.35 78.82 
C 57.35 80.14 57.87 81.41 58.81 82.35 
C 59.74 83.28 61.01 83.81 62.34 83.81 
z
" clip-path="url(#p46b65b9a02)" style="fill:var(--c1); fill-opacity: 0.7; stroke:var(--c1); stroke-opacity: 0.7"/>
    <path d="M 421.48 126.35 
C 422.51 126.35 423.5 125.94 424.23 125.21 
C 424.95 124.48 425.36 123.5 425.36 122.47 
C 425.36 121.44 424.95 120.45 424.23 119.73 
C 423.5 119 422.51 118.59 421.48 118.59 
C 420.46 118.59 419.47 119 418.74 119.73 
C 418.01 120.45 417.61 121.44 417.61 122.47 
C 417.61 123.5 418.01 124.48 418.74 125.21 
C 419.47 125.94 420.46 126.35 421.48 126.35 
z
" clip-path="url(#p46b65b9a02)" style="fill:var(--c1); fill-opacity: 0.7; stroke:var(--c1); stroke-opacity: 0.7"/>
    <path d="M 154.45 80.37 
C 155.45 80.37 156.41 79.97 157.11 79.26 
C 157.82 78.55 158.22 77.59 158.22 76.59 
C 158.22 75.59 157.82 74.63 157.11 73.92 
C 156.41 73.22 155.45 72.82 154.45 72.82 
C 153.44 72.82 152.48 73.22 151.78 73.92 
C 151.07 74.63 150.67 75.59 150.67 76.59 
C 150.67 77.59 151.07 78.55 151.78 79.26 
C 152.48 79.97 153.44 80.37 154.45 80.37 
z
" clip-path="url(#p46b65b9a02)" style="fill:var(--c1); fill-opacity: 0.7; stroke:var(--c1); stroke-opacity: 0.7"/>
    <path d="M 320.18 138.59 
C 320.54 138.59 320.88 138.45 321.14 138.19 
C 321.39 137.94 321.53 137.59 321.53 137.23 
C 321.53 136.87 321.39 136.53 321.14 136.27 
C 320.88 136.02 320.54 135.87 320.18 135.87 
C 319.82 135.87 319.47 136.02 319.22 136.27 
C 318.96 136.53 318.82 136.87 318.82 137.23 
C 318.82 137.59 318.96 137.94 319.22 138.19 
C 319.47 138.45 319.82 138.59 320.18 138.59 
z
" clip-path="url(#p46b65b9a02)" style="fill:var(--c1); fill-opacity: 0.7; stroke:var(--c1); stroke-opacity: 0.7"/>
    <path d="M 176.17 136.42 
C 177.64 136.42 179.04 135.84 180.08 134.81 
C 181.11 133.77 181.69 132.37 181.69 130.9 
C 181.69 129.44 181.11 128.03 180.08 127 
C 179.04 125.96 177.64 125.38 176.17 125.38 
C 174.71 125.38 173.3 125.96 172.27 127 
C 171.23 128.03 170.65 129.44 170.65 130.9 
C 170.65 132.37 171.23 133.77 172.27 134.81 
C 173.3 135.84 174.71 136.42 176.17 136.42 
z
" clip-path="url(#p46b65b9a02)" style="fill:var(--c1); fill-opacity: 0.7; stroke:var(--c1); stroke-opacity: 0.7"/>
    <path d="M 261.7 156.74 
C 263.03 156.74 264.31 156.21 265.25 155.27 
C 266.19 154.33 266.71 153.06 266.71 151.73 
C 266.71 150.4 266.19 149.12 265.25 148.18 
C 264.31 147.24 263.03 146.71 261.7 146.71 
C 260.37 146.71 259.1 147.24 258.16 148.18 
C 257.22 149.12 256.69 150.4 256.69 151.73 
C 256.69 153.06 257.22 154.33 258.16 155.27 
C 259.1 156.21 260.37 156.74 261.7 156.74 
z
" clip-path="url(#p46b65b9a02)" style="fill:var(--c1); fill-opacity: 0.7; stroke:var(--c1); stroke-opacity: 0.7"/>
    <path d="M 272.64 241.31 
C 273.06 241.31 273.47 241.14 273.77 240.84 
C 274.07 240.54 274.24 240.13 274.24 239.7 
C 274.24 239.28 274.07 238.87 273.77 238.57 
C 273.47 238.27 273.06 238.1 272.64 238.1 
C 272.21 238.1 271.8 238.27 271.5 238.57 
C 271.2 238.87 271.03 239.28 271.03 239.7 
C 271.03 240.13 271.2 240.54 271.5 240.84 
C 271.8 241.14 272.21 241.31 272.64 241.31 
z
" clip-path="url(#p46b65b9a02)" style="fill:var(--c1); fill-opacity: 0.7; stroke:var(--c1); stroke-opacity: 0.7"/>
    <path d="M 124.1 225.39 
C 125.09 225.39 126.04 225 126.74 224.3 
C 127.44 223.6 127.83 222.65 127.83 221.66 
C 127.83 220.67 127.44 219.72 126.74 219.02 
C 126.04 218.32 125.09 217.93 124.1 217.93 
C 123.11 217.93 122.16 218.32 121.46 219.02 
C 120.76 219.72 120.37 220.67 120.37 221.66 
C 120.37 222.65 120.76 223.6 121.46 224.3 
C 122.16 225 123.11 225.39 124.1 225.39 
z
" clip-path="url(#p46b65b9a02)" style="fill:var(--c1); fill-opacity: 0.7; stroke:var(--c1); stroke-opacity: 0.7"/>
   </g>
   <g class="patch">
    <path d="M 37.19 254.79 
L 37.19 18.62 
" style="fill: none; stroke:var(--axis-color); stroke-width: 0.7; stroke-linejoin: miter; stroke-linecap: square"/>
   </g>
   <g class="patch">
    <path d="M 37.19 254.79 
L 465.84 254.79 
" style="fill: none; stroke:var(--axis-color); stroke-width: 0.7; stroke-linejoin: miter; stroke-linecap: square"/>
   </g>
   <g id="text_15" class="text">
    <!-- Scatter Plot -->
    <g style="fill:var(--axis-color)" transform="translate(225.14625 10.62) scale(0.12 -0.12)">
     <defs>
      <path id="EBGaramond12-Regular-53" d="M 1427 109 
Q 1779 109 1971 307 
Q 2163 506 2163 845 
Q 2163 1382 1190 2035 
Q 800 2298 589 2563 
Q 378 2829 378 3181 
Q 378 3616 742 3933 
Q 1107 4250 1664 4250 
Q 1843 4250 2019 4218 
Q 2195 4186 2300 4154 
Q 2406 4122 2426 4122 
Q 2502 4122 2534 3974 
Q 2541 3962 2553 3875 
Q 2566 3789 2579 3657 
Q 2592 3526 2592 3437 
Q 2592 3277 2547 3277 
Q 2362 3277 2323 3456 
Q 2278 3731 2080 3884 
Q 1882 4038 1606 4038 
Q 1299 4038 1084 3849 
Q 870 3661 870 3347 
Q 870 3200 947 3062 
Q 1024 2925 1187 2790 
Q 1350 2656 1440 2589 
Q 1530 2522 1722 2400 
Q 2701 1766 2701 1024 
Q 2701 582 2368 240 
Q 2035 -102 1370 -102 
Q 838 -102 512 51 
Q 403 102 378 160 
Q 262 403 262 896 
Q 262 947 304 1014 
Q 346 1082 397 1082 
Q 454 1082 589 659 
Q 678 384 902 246 
Q 1126 109 1427 109 
z
" transform="scale(0.015625)"/>
      <path id="EBGaramond12-Regular-63" d="M 2131 2042 
Q 2035 2042 1971 2106 
Q 1798 2291 1696 2348 
Q 1594 2406 1370 2406 
Q 1037 2406 851 2118 
Q 666 1830 666 1446 
Q 666 966 950 604 
Q 1235 243 1683 243 
Q 1875 243 1993 316 
Q 2112 390 2246 563 
Q 2278 595 2304 595 
Q 2330 595 2355 566 
Q 2381 538 2381 506 
Q 2381 314 2045 112 
Q 1709 -90 1318 -90 
Q 845 -90 534 278 
Q 224 646 224 1152 
Q 224 1760 611 2201 
Q 998 2643 1574 2643 
Q 2093 2643 2342 2336 
Q 2374 2291 2374 2259 
Q 2374 2182 2281 2112 
Q 2189 2042 2131 2042 
z
" transform="scale(0.015625)"/>
      <path id="EBGaramond12-Regular-61" d="M 2189 205 
Q 2349 205 2445 294 
Q 2470 320 2508 297 
Q 2547 275 2547 237 
Q 2547 179 2371 44 
Q 2195 -90 2035 -90 
Q 1875 -90 1769 -6 
Q 1664 77 1619 160 
Q 1574 243 1562 243 
Q 1536 243 1446 160 
Q 1357 77 1181 -6 
Q 1005 -90 774 -90 
Q 576 -90 400 70 
Q 224 230 224 416 
Q 224 800 691 992 
L 1344 1261 
Q 1466 1312 1491 1350 
Q 1517 1389 1523 1517 
L 1536 1926 
Q 1542 2093 1433 2214 
Q 1325 2336 1158 2336 
Q 1050 2336 928 2269 
Q 806 2202 768 2131 
Q 742 2086 742 2010 
Q 742 1997 745 1965 
Q 749 1933 749 1920 
Q 749 1862 566 1779 
Q 384 1696 307 1696 
Q 256 1696 256 1754 
Q 256 1971 512 2195 
Q 698 2362 966 2506 
Q 1235 2650 1466 2650 
Q 1690 2650 1843 2483 
Q 1997 2317 1990 2080 
L 1958 698 
Q 1958 205 2189 205 
z
M 736 557 
Q 736 390 838 297 
Q 941 205 1050 205 
Q 1235 205 1434 378 
Q 1504 435 1510 634 
L 1523 947 
Q 1530 1082 1466 1082 
Q 1421 1082 1376 1062 
Q 736 845 736 557 
z
" transform="scale(0.015625)"/>
      <path id="EBGaramond12-Regular-74" d="M 1210 -90 
Q 896 -90 720 99 
Q 544 288 544 672 
L 544 2157 
Q 544 2214 496 2233 
Q 448 2253 301 2253 
Q 282 2253 253 2301 
Q 224 2349 224 2381 
Q 224 2406 256 2426 
Q 403 2470 560 2611 
Q 717 2752 816 2873 
Q 915 2995 934 2995 
Q 1050 2995 1043 2931 
L 992 2650 
Q 986 2611 1034 2585 
Q 1082 2560 1152 2560 
L 1882 2560 
Q 1946 2560 1946 2406 
Q 1946 2253 1882 2253 
L 1248 2253 
Q 1075 2253 1033 2227 
Q 992 2202 992 2074 
L 992 864 
Q 992 538 1113 400 
Q 1235 262 1414 262 
Q 1734 262 1894 384 
Q 1920 403 1939 374 
Q 1958 346 1958 301 
Q 1958 262 1856 169 
Q 1754 77 1571 -6 
Q 1389 -90 1210 -90 
z
" transform="scale(0.015625)"/>
      <path id="EBGaramond12-Regular-65" d="M 1363 2451 
Q 1114 2451 912 2268 
Q 710 2086 710 1939 
Q 710 1843 832 1843 
L 1357 1843 
Q 1658 1843 1824 1875 
Q 1888 1882 1888 2054 
Q 1888 2234 1728 2342 
Q 1568 2451 1363 2451 
z
M 1466 2650 
Q 1850 2650 2077 2464 
Q 2304 2278 2304 1933 
Q 2304 1645 2080 1645 
L 749 1645 
Q 659 1645 624 1603 
Q 589 1562 589 1408 
Q 589 960 864 627 
Q 1139 294 1555 294 
Q 1702 294 1878 364 
Q 2054 435 2170 582 
Q 2214 627 2240 627 
Q 2310 627 2278 499 
Q 2221 294 1945 102 
Q 1670 -90 1267 -90 
Q 819 -90 505 294 
Q 192 678 192 1299 
Q 192 1850 560 2250 
Q 928 2650 1466 2650 
z
" transform="scale(0.015625)"/>
      <path id="EBGaramond12-Regular-72" d="M 1024 1690 
L 1024 429 
Q 1030 256 1370 154 
Q 1517 102 1517 38 
Q 1517 -19 1389 -19 
Q 1254 -19 1097 -3 
Q 941 13 832 13 
Q 723 13 585 -3 
Q 448 -19 314 -19 
Q 186 -19 186 38 
Q 186 102 333 154 
Q 416 179 454 195 
Q 493 211 534 262 
Q 576 314 576 397 
L 576 1773 
Q 576 2176 314 2234 
Q 250 2246 250 2317 
Q 250 2381 307 2394 
Q 422 2419 537 2467 
Q 653 2515 717 2556 
Q 781 2598 883 2662 
Q 986 2726 1018 2746 
Q 1024 2746 1024 2749 
Q 1024 2752 1030 2752 
Q 1056 2752 1069 2707 
Q 1069 2534 1050 2227 
Q 1050 2214 1056 2214 
Q 1069 2214 1094 2246 
Q 1120 2278 1155 2320 
Q 1190 2362 1210 2374 
Q 1517 2650 1798 2650 
Q 1933 2650 2019 2592 
Q 2106 2534 2106 2445 
Q 2106 2342 2026 2227 
Q 1946 2112 1856 2112 
Q 1805 2112 1670 2169 
Q 1536 2227 1472 2227 
Q 1286 2227 1155 2105 
Q 1024 1984 1024 1690 
z
" transform="scale(0.015625)"/>
      <path id="EBGaramond12-Regular-20" transform="scale(0.015625)"/>
      <path id="EBGaramond12-Regular-50" d="M 2822 2931 
Q 2822 3494 2534 3763 
Q 2246 4032 1754 4032 
Q 1344 4032 1344 3763 
L 1344 710 
Q 1344 230 1773 154 
Q 1984 115 1984 38 
Q 1984 -32 1798 -32 
Q 1613 -32 1446 -9 
Q 1280 13 1171 13 
Q 1011 13 761 -9 
Q 512 -32 339 -32 
Q 154 -32 154 38 
Q 154 115 365 154 
Q 614 198 723 304 
Q 832 410 832 640 
L 832 3341 
Q 832 3648 752 3795 
Q 672 3942 442 3981 
Q 230 4019 230 4109 
Q 230 4179 416 4179 
Q 602 4179 762 4176 
Q 922 4173 1043 4173 
Q 1178 4173 1427 4192 
Q 1677 4211 1754 4211 
Q 2477 4211 2937 3904 
Q 3398 3597 3398 3085 
Q 3398 2458 3020 2042 
Q 2643 1626 1939 1626 
Q 1811 1626 1731 1664 
Q 1651 1702 1651 1747 
Q 1651 1773 1686 1795 
Q 1722 1818 1754 1818 
L 1850 1805 
Q 1946 1786 2048 1786 
Q 2822 1786 2822 2931 
z
" transform="scale(0.015625)"/>
      <path id="EBGaramond12-Regular-6c" d="M 992 397 
Q 992 333 1011 291 
Q 1030 250 1088 221 
Q 1146 192 1165 185 
Q 1184 179 1267 154 
Q 1414 102 1414 38 
Q 1414 -19 1286 -19 
Q 1158 -19 1017 -3 
Q 877 13 768 13 
Q 659 13 518 -3 
Q 378 -19 250 -19 
Q 122 -19 122 38 
Q 122 102 269 154 
Q 480 218 525 294 
Q 544 339 544 397 
L 544 3622 
Q 544 4026 250 4090 
Q 198 4102 198 4173 
Q 198 4237 243 4250 
Q 403 4288 986 4506 
L 992 4506 
L 998 4512 
Q 1037 4512 1037 4467 
Q 1037 4448 1024 4349 
Q 1011 4250 1001 4051 
Q 992 3853 992 3597 
L 992 397 
z
" transform="scale(0.015625)"/>
      <path id="EBGaramond12-Regular-6f" d="M 1626 2650 
Q 2176 2650 2560 2269 
Q 2944 1888 2944 1363 
Q 2944 762 2563 336 
Q 2182 -90 1498 -90 
Q 954 -90 589 275 
Q 224 640 224 1197 
Q 224 1747 637 2198 
Q 1050 2650 1626 2650 
z
M 1517 2451 
Q 1152 2451 954 2195 
Q 749 1939 749 1344 
Q 749 851 1005 476 
Q 1261 102 1632 102 
Q 2112 102 2291 454 
Q 2419 704 2419 1210 
Q 2419 1690 2163 2070 
Q 1907 2451 1517 2451 
z
" transform="scale(0.015625)"/>
     </defs>
     <use xlink:href="#EBGaramond12-Regular-53"/>
     <use xlink:href="#EBGaramond12-Regular-63" transform="translate(46.499985 0)"/>
     <use xlink:href="#EBGaramond12-Regular-61" transform="translate(84.199982 0)"/>
     <use xlink:href="#EBGaramond12-Regular-74" transform="translate(124.099976 0)"/>
     <use xlink:href="#EBGaramond12-Regular-74" transform="translate(155.499969 0)"/>
     <use xlink:href="#EBGaramond12-Regular-65" transform="translate(186.899963 0)"/>
     <use xlink:href="#EBGaramond12-Regular-72" transform="translate(225.899948 0)"/>
     <use xlink:href="#EBGaramond12-Regular-20" transform="translate(259.299942 0)"/>
     <use xlink:href="#EBGaramond12-Regular-50" transform="translate(279.299927 0)"/>
     <use xlink:href="#EBGaramond12-Regular-6c" transform="translate(334.499924 0)"/>
     <use xlink:href="#EBGaramond12-Regular-6f" transform="translate(358.499908 0)"/>
     <use xlink:href="#EBGaramond12-Regular-74" transform="translate(407.999893 0)"/>
    </g>
   </g>
  </g>
 </g>
 <defs>
  <clipPath id="p46b65b9a02">
   <rect x="37.185" y="18.62" width="428.655" height="236.170983"/>
  </clipPath>
 </defs>
</svg>
