<?xml version="1.0" encoding="utf-8" standalone="no"?>
<!DOCTYPE svg PUBLIC "-//W3C//DTD SVG 1.1//EN"
  "http://www.w3.org/Graphics/SVG/1.1/DTD/svg11.dtd">
<svg xmlns:xlink="http://www.w3.org/1999/xlink" width="314.098919pt" height="397.046563pt" viewBox="0 0 314.098919 397.046563" xmlns="http://www.w3.org/2000/svg" version="1.1">
<style>/* === RDF autogenerated palette === */
:root {
    --axis-color: #000;
    --grid-stroke: rgba(0,0,0,0.2);
    --plot3d-stroke: rgba(0,0,0,0.3);
    --plot3d-grid: rgba(0,0,0,0.2);
}
@media (prefers-color-scheme: dark) {
    :root {
        --axis-color: #fff;
        --grid-stroke: rgba(255,255,255,0.2);
        --plot3d-stroke: rgba(255,255,255,0.3);
        --plot3d-grid: rgba(255,255,255,0.2);
    }
}

/* Light‑mode palette */
.c1 { fill:#FF0001; stroke:#FF0001; }.c2 { fill:#00FF02; stroke:#00FF02; }.c3 { fill:#0000FF; stroke:#0000FF; }.c4 { fill:#FF00FF; stroke:#FF00FF; }.c5 { fill:#00FFFF; stroke:#00FFFF; }.c6 { fill:#FFFF00; stroke:#FFFF00; }.c7 { fill:#FF8000; stroke:#FF8000; }.c8 { fill:#8000FF; stroke:#8000FF; }.octonary { fill:#bcbd22; stroke:#bcbd22; }.primary { fill:#d62728; stroke:#d62728; }.quaternary { fill:#9467bd; stroke:#9467bd; }.quinary { fill:#8c564b; stroke:#8c564b; }.secondary { fill:#2ca02c; stroke:#2ca02c; }.senary { fill:#e377c2; stroke:#e377c2; }.septenary { fill:#7f7f7f; stroke:#7f7f7f; }.tertiary { fill:#1f77b4; stroke:#1f77b4; }

/* Dark overrides */
@media (prefers-color-scheme: dark) {
    .c1 { fill:#FF0001; stroke:#FF0001; }.c2 { fill:#00FF02; stroke:#00FF02; }.c3 { fill:#0000FF; stroke:#0000FF; }.c4 { fill:#FF00FF; stroke:#FF00FF; }.c5 { fill:#00FFFF; stroke:#00FFFF; }.c6 { fill:#FFFF00; stroke:#FFFF00; }.c7 { fill:#FF8000; stroke:#FF8000; }.c8 { fill:#8000FF; stroke:#8000FF; }.octonary { fill:#E6DB74; stroke:#E6DB74; }.primary { fill:#FF4A98; stroke:#FF4A98; }.quaternary { fill:#B4A0FF; stroke:#B4A0FF; }.quinary { fill:#FFB86B; stroke:#FFB86B; }.secondary { fill:#0AFAFA; stroke:#0AFAFA; }.senary { fill:#FF79C6; stroke:#FF79C6; }.septenary { fill:#CCCCCC; stroke:#CCCCCC; }.tertiary { fill:#7F83FF; stroke:#7F83FF; }
}/* Axis, ticks, legend */
text, .text { fill: var(--axis-color) !important; stroke: none !important; }
.axis line, .axis path,
.tick line, .tick path,
path.domain,
line.grid { stroke: var(--axis-color) !important; }
.legend text { fill: var(--axis-color) !important; }

/* Patch paths that relied on currentColor */
.patch path[style*="stroke: currentColor"] { stroke: var(--axis-color) !important; }

/* Legend background (first child of legend group) */
g.legend > g:first-child > path:first-child {
    fill: rgba(255,255,255,0.8) !important;
    stroke: rgba(0,0,0,0.1) !important;
}
@media (prefers-color-scheme: dark) {
    g.legend > g:first-child > path:first-child {
        fill: rgba(26,26,26,0.8) !important;
        stroke: rgba(255,255,255,0.1) !important;
    }
}

/* 3‑D specific rules */
.plot3d path, .plot3d polygon {
    stroke: var(--plot3d-stroke) !important;
}
.plot3d-grid line { stroke: var(--plot3d-grid) !important; }
.plot3d-surface path[style*="fill:"] {
    fill-opacity: 0.9 !important;
}
@media (prefers-color-scheme: dark) {
    .plot3d-surface path[style*="fill:"] {
        fill-opacity: 0.95 !important;
        filter: saturate(1.2) !important;
    }
}</style>

 <metadata>
  <rdf:RDF xmlns:dc="http://purl.org/dc/elements/1.1/" xmlns:cc="http://creativecommons.org/ns#" xmlns:rdf="http://www.w3.org/1999/02/22-rdf-syntax-ns#">
   <cc:Work>
    <dc:type rdf:resource="http://purl.org/dc/dcmitype/StillImage"/>
    <dc:date>2025-05-27T21:44:44.249542</dc:date>
    <dc:format>image/svg+xml</dc:format>
    <dc:creator>
     <cc:Agent>
      <dc:title>Matplotlib v3.10.1, https://matplotlib.org/</dc:title>
     </cc:Agent>
    </dc:creator>
   </cc:Work>
  </rdf:RDF>
 </metadata>
 <defs>
  <style type="text/css">*{stroke-linejoin: round; stroke-linecap: butt}</style>
 </defs>
 <g id="figure_1">
  <g class="patch">
   <path d="M 0 397.046563 
L 314.098919 397.046563 
L 314.098919 0 
L 0 0 
L 0 397.046563 
z
" style="fill: none"/>
  </g>
  <g id="axes_1">
   <g class="patch">
    <path d="M 39.02 363.958125 
L 297.064089 363.958125 
L 297.064089 31.318125 
L 39.02 31.318125 
L 39.02 363.958125 
z
" style="fill: none"/>
   </g>
   <g class="axis">
    <g class="tick xtick">
     <g id="line2d_1">
      <path d="M 43.667713 363.958125 
L 43.667713 31.318125 
" clip-path="url(#pa46b816469)" style="fill: none; stroke: #d3d3d3; stroke-opacity: 0.1; stroke-width: 0.5; stroke-linecap: square"/>
     </g>
     <g id="line2d_2">
      <defs>
       <path id="m7cfc888b67" d="M 0 0 
L 0 -6 
" style="stroke: currentColor"/>
      </defs>
      <g>
       <use xlink:href="#m7cfc888b67" x="43.667713" y="363.958125" style="stroke: currentColor"/>
      </g>
     </g>
     <g id="line2d_3">
      <defs>
       <path id="m13c2d5e4b8" d="M 0 0 
L 0 6 
" style="stroke: currentColor"/>
      </defs>
      <g>
       <use xlink:href="#m13c2d5e4b8" x="43.667713" y="31.318125" style="stroke: currentColor"/>
      </g>
     </g>
     <g id="text_1" class="text">
      <!-- $\mathdefault{0}$ -->
      <g transform="translate(40.787713 374.296719) scale(0.09 -0.09)">
       <defs>
        <path id="DejaVuSerif-30" d="M 2034 219 
Q 2513 219 2750 744 
Q 2988 1269 2988 2328 
Q 2988 3391 2750 3916 
Q 2513 4441 2034 4441 
Q 1556 4441 1318 3916 
Q 1081 3391 1081 2328 
Q 1081 1269 1318 744 
Q 1556 219 2034 219 
z
M 2034 -91 
Q 1275 -91 848 546 
Q 422 1184 422 2328 
Q 422 3475 848 4112 
Q 1275 4750 2034 4750 
Q 2797 4750 3222 4112 
Q 3647 3475 3647 2328 
Q 3647 1184 3222 546 
Q 2797 -91 2034 -91 
z
" transform="scale(0.015625)"/>
       </defs>
       <use xlink:href="#DejaVuSerif-30" transform="translate(0 0.78125)"/>
      </g>
     </g>
    </g>
    <g class="tick xtick">
     <g id="line2d_4">
      <path d="M 90.144847 363.958125 
L 90.144847 31.318125 
" clip-path="url(#pa46b816469)" style="fill: none; stroke: #d3d3d3; stroke-opacity: 0.1; stroke-width: 0.5; stroke-linecap: square"/>
     </g>
     <g id="line2d_5">
      <g>
       <use xlink:href="#m7cfc888b67" x="90.144847" y="363.958125" style="stroke: currentColor"/>
      </g>
     </g>
     <g id="line2d_6">
      <g>
       <use xlink:href="#m13c2d5e4b8" x="90.144847" y="31.318125" style="stroke: currentColor"/>
      </g>
     </g>
     <g id="text_2" class="text">
      <!-- $\mathdefault{2}$ -->
      <g transform="translate(87.264847 374.296719) scale(0.09 -0.09)">
       <defs>
        <path id="DejaVuSerif-32" d="M 819 3553 
L 469 3553 
L 469 4384 
Q 803 4563 1142 4656 
Q 1481 4750 1806 4750 
Q 2534 4750 2956 4397 
Q 3378 4044 3378 3438 
Q 3378 2753 2422 1800 
Q 2347 1728 2309 1691 
L 1131 513 
L 3078 513 
L 3078 1088 
L 3444 1088 
L 3444 0 
L 434 0 
L 434 341 
L 1850 1753 
Q 2319 2222 2519 2614 
Q 2719 3006 2719 3438 
Q 2719 3909 2473 4175 
Q 2228 4441 1797 4441 
Q 1350 4441 1106 4219 
Q 863 3997 819 3553 
z
" transform="scale(0.015625)"/>
       </defs>
       <use xlink:href="#DejaVuSerif-32" transform="translate(0 0.78125)"/>
      </g>
     </g>
    </g>
    <g class="tick xtick">
     <g id="line2d_7">
      <path d="M 136.62198 363.958125 
L 136.62198 31.318125 
" clip-path="url(#pa46b816469)" style="fill: none; stroke: #d3d3d3; stroke-opacity: 0.1; stroke-width: 0.5; stroke-linecap: square"/>
     </g>
     <g id="line2d_8">
      <g>
       <use xlink:href="#m7cfc888b67" x="136.62198" y="363.958125" style="stroke: currentColor"/>
      </g>
     </g>
     <g id="line2d_9">
      <g>
       <use xlink:href="#m13c2d5e4b8" x="136.62198" y="31.318125" style="stroke: currentColor"/>
      </g>
     </g>
     <g id="text_3" class="text">
      <!-- $\mathdefault{4}$ -->
      <g transform="translate(133.74198 374.296719) scale(0.09 -0.09)">
       <defs>
        <path id="DejaVuSerif-34" d="M 2234 1581 
L 2234 4063 
L 641 1581 
L 2234 1581 
z
M 3609 0 
L 1484 0 
L 1484 331 
L 2234 331 
L 2234 1247 
L 197 1247 
L 197 1588 
L 2241 4750 
L 2859 4750 
L 2859 1581 
L 3750 1581 
L 3750 1247 
L 2859 1247 
L 2859 331 
L 3609 331 
L 3609 0 
z
" transform="scale(0.015625)"/>
       </defs>
       <use xlink:href="#DejaVuSerif-34" transform="translate(0 0.78125)"/>
      </g>
     </g>
    </g>
    <g class="tick xtick">
     <g id="line2d_10">
      <path d="M 183.099114 363.958125 
L 183.099114 31.318125 
" clip-path="url(#pa46b816469)" style="fill: none; stroke: #d3d3d3; stroke-opacity: 0.1; stroke-width: 0.5; stroke-linecap: square"/>
     </g>
     <g id="line2d_11">
      <g>
       <use xlink:href="#m7cfc888b67" x="183.099114" y="363.958125" style="stroke: currentColor"/>
      </g>
     </g>
     <g id="line2d_12">
      <g>
       <use xlink:href="#m13c2d5e4b8" x="183.099114" y="31.318125" style="stroke: currentColor"/>
      </g>
     </g>
     <g id="text_4" class="text">
      <!-- $\mathdefault{6}$ -->
      <g transform="translate(180.219114 374.296719) scale(0.09 -0.09)">
       <defs>
        <path id="DejaVuSerif-36" d="M 2094 219 
Q 2534 219 2771 542 
Q 3009 866 3009 1472 
Q 3009 2078 2771 2401 
Q 2534 2725 2094 2725 
Q 1647 2725 1412 2412 
Q 1178 2100 1178 1509 
Q 1178 888 1415 553 
Q 1653 219 2094 219 
z
M 1075 2569 
Q 1288 2803 1556 2918 
Q 1825 3034 2163 3034 
Q 2859 3034 3264 2615 
Q 3669 2197 3669 1472 
Q 3669 763 3233 336 
Q 2797 -91 2069 -91 
Q 1278 -91 853 498 
Q 428 1088 428 2181 
Q 428 3406 931 4078 
Q 1434 4750 2350 4750 
Q 2597 4750 2869 4703 
Q 3141 4656 3425 4563 
L 3425 3794 
L 3072 3794 
Q 3034 4109 2831 4275 
Q 2628 4441 2284 4441 
Q 1678 4441 1381 3981 
Q 1084 3522 1075 2569 
z
" transform="scale(0.015625)"/>
       </defs>
       <use xlink:href="#DejaVuSerif-36" transform="translate(0 0.78125)"/>
      </g>
     </g>
    </g>
    <g class="tick xtick">
     <g id="line2d_13">
      <path d="M 229.576247 363.958125 
L 229.576247 31.318125 
" clip-path="url(#pa46b816469)" style="fill: none; stroke: #d3d3d3; stroke-opacity: 0.1; stroke-width: 0.5; stroke-linecap: square"/>
     </g>
     <g id="line2d_14">
      <g>
       <use xlink:href="#m7cfc888b67" x="229.576247" y="363.958125" style="stroke: currentColor"/>
      </g>
     </g>
     <g id="line2d_15">
      <g>
       <use xlink:href="#m13c2d5e4b8" x="229.576247" y="31.318125" style="stroke: currentColor"/>
      </g>
     </g>
     <g id="text_5" class="text">
      <!-- $\mathdefault{8}$ -->
      <g transform="translate(226.696247 374.296719) scale(0.09 -0.09)">
       <defs>
        <path id="DejaVuSerif-38" d="M 2981 1275 
Q 2981 1775 2732 2051 
Q 2484 2328 2034 2328 
Q 1584 2328 1336 2051 
Q 1088 1775 1088 1275 
Q 1088 772 1336 495 
Q 1584 219 2034 219 
Q 2484 219 2732 495 
Q 2981 772 2981 1275 
z
M 2853 3541 
Q 2853 3966 2637 4203 
Q 2422 4441 2034 4441 
Q 1650 4441 1433 4203 
Q 1216 3966 1216 3541 
Q 1216 3113 1433 2875 
Q 1650 2638 2034 2638 
Q 2422 2638 2637 2875 
Q 2853 3113 2853 3541 
z
M 2516 2484 
Q 3047 2413 3344 2092 
Q 3641 1772 3641 1275 
Q 3641 619 3225 264 
Q 2809 -91 2034 -91 
Q 1263 -91 845 264 
Q 428 619 428 1275 
Q 428 1772 725 2092 
Q 1022 2413 1556 2484 
Q 1084 2569 832 2842 
Q 581 3116 581 3541 
Q 581 4103 968 4426 
Q 1356 4750 2034 4750 
Q 2713 4750 3100 4426 
Q 3488 4103 3488 3541 
Q 3488 3116 3236 2842 
Q 2984 2569 2516 2484 
z
" transform="scale(0.015625)"/>
       </defs>
       <use xlink:href="#DejaVuSerif-38" transform="translate(0 0.78125)"/>
      </g>
     </g>
    </g>
    <g class="tick xtick">
     <g id="line2d_16">
      <path d="M 276.05338 363.958125 
L 276.05338 31.318125 
" clip-path="url(#pa46b816469)" style="fill: none; stroke: #d3d3d3; stroke-opacity: 0.1; stroke-width: 0.5; stroke-linecap: square"/>
     </g>
     <g id="line2d_17">
      <g>
       <use xlink:href="#m7cfc888b67" x="276.05338" y="363.958125" style="stroke: currentColor"/>
      </g>
     </g>
     <g id="line2d_18">
      <g>
       <use xlink:href="#m13c2d5e4b8" x="276.05338" y="31.318125" style="stroke: currentColor"/>
      </g>
     </g>
     <g id="text_6" class="text">
      <!-- $\mathdefault{10}$ -->
      <g transform="translate(270.29338 374.296719) scale(0.09 -0.09)">
       <defs>
        <path id="DejaVuSerif-31" d="M 909 0 
L 909 331 
L 1722 331 
L 1722 4213 
L 781 3603 
L 781 4013 
L 1919 4750 
L 2350 4750 
L 2350 331 
L 3163 331 
L 3163 0 
L 909 0 
z
" transform="scale(0.015625)"/>
       </defs>
       <use xlink:href="#DejaVuSerif-31" transform="translate(0 0.78125)"/>
       <use xlink:href="#DejaVuSerif-30" transform="translate(63.623047 0.78125)"/>
      </g>
     </g>
    </g>
    <g class="tick xtick">
     <g id="line2d_19">
      <defs>
       <path id="mec2935ae43" d="M 0 0 
L 0 -3 
" style="stroke: currentColor; stroke-width: 0.8"/>
      </defs>
      <g>
       <use xlink:href="#mec2935ae43" x="55.286997" y="363.958125" style="stroke: currentColor; stroke-width: 0.8"/>
      </g>
     </g>
     <g id="line2d_20">
      <defs>
       <path id="md5099d86d7" d="M 0 0 
L 0 3 
" style="stroke: currentColor; stroke-width: 0.8"/>
      </defs>
      <g>
       <use xlink:href="#md5099d86d7" x="55.286997" y="31.318125" style="stroke: currentColor; stroke-width: 0.8"/>
      </g>
     </g>
    </g>
    <g class="tick xtick">
     <g id="line2d_21">
      <g>
       <use xlink:href="#mec2935ae43" x="66.90628" y="363.958125" style="stroke: currentColor; stroke-width: 0.8"/>
      </g>
     </g>
     <g id="line2d_22">
      <g>
       <use xlink:href="#md5099d86d7" x="66.90628" y="31.318125" style="stroke: currentColor; stroke-width: 0.8"/>
      </g>
     </g>
    </g>
    <g class="tick xtick">
     <g id="line2d_23">
      <g>
       <use xlink:href="#mec2935ae43" x="78.525563" y="363.958125" style="stroke: currentColor; stroke-width: 0.8"/>
      </g>
     </g>
     <g id="line2d_24">
      <g>
       <use xlink:href="#md5099d86d7" x="78.525563" y="31.318125" style="stroke: currentColor; stroke-width: 0.8"/>
      </g>
     </g>
    </g>
    <g class="tick xtick">
     <g id="line2d_25">
      <g>
       <use xlink:href="#mec2935ae43" x="101.76413" y="363.958125" style="stroke: currentColor; stroke-width: 0.8"/>
      </g>
     </g>
     <g id="line2d_26">
      <g>
       <use xlink:href="#md5099d86d7" x="101.76413" y="31.318125" style="stroke: currentColor; stroke-width: 0.8"/>
      </g>
     </g>
    </g>
    <g class="tick xtick">
     <g id="line2d_27">
      <g>
       <use xlink:href="#mec2935ae43" x="113.383413" y="363.958125" style="stroke: currentColor; stroke-width: 0.8"/>
      </g>
     </g>
     <g id="line2d_28">
      <g>
       <use xlink:href="#md5099d86d7" x="113.383413" y="31.318125" style="stroke: currentColor; stroke-width: 0.8"/>
      </g>
     </g>
    </g>
    <g class="tick xtick">
     <g id="line2d_29">
      <g>
       <use xlink:href="#mec2935ae43" x="125.002697" y="363.958125" style="stroke: currentColor; stroke-width: 0.8"/>
      </g>
     </g>
     <g id="line2d_30">
      <g>
       <use xlink:href="#md5099d86d7" x="125.002697" y="31.318125" style="stroke: currentColor; stroke-width: 0.8"/>
      </g>
     </g>
    </g>
    <g class="tick xtick">
     <g id="line2d_31">
      <g>
       <use xlink:href="#mec2935ae43" x="148.241264" y="363.958125" style="stroke: currentColor; stroke-width: 0.8"/>
      </g>
     </g>
     <g id="line2d_32">
      <g>
       <use xlink:href="#md5099d86d7" x="148.241264" y="31.318125" style="stroke: currentColor; stroke-width: 0.8"/>
      </g>
     </g>
    </g>
    <g class="tick xtick">
     <g id="line2d_33">
      <g>
       <use xlink:href="#mec2935ae43" x="159.860547" y="363.958125" style="stroke: currentColor; stroke-width: 0.8"/>
      </g>
     </g>
     <g id="line2d_34">
      <g>
       <use xlink:href="#md5099d86d7" x="159.860547" y="31.318125" style="stroke: currentColor; stroke-width: 0.8"/>
      </g>
     </g>
    </g>
    <g class="tick xtick">
     <g id="line2d_35">
      <g>
       <use xlink:href="#mec2935ae43" x="171.47983" y="363.958125" style="stroke: currentColor; stroke-width: 0.8"/>
      </g>
     </g>
     <g id="line2d_36">
      <g>
       <use xlink:href="#md5099d86d7" x="171.47983" y="31.318125" style="stroke: currentColor; stroke-width: 0.8"/>
      </g>
     </g>
    </g>
    <g class="tick xtick">
     <g id="line2d_37">
      <g>
       <use xlink:href="#mec2935ae43" x="194.718397" y="363.958125" style="stroke: currentColor; stroke-width: 0.8"/>
      </g>
     </g>
     <g id="line2d_38">
      <g>
       <use xlink:href="#md5099d86d7" x="194.718397" y="31.318125" style="stroke: currentColor; stroke-width: 0.8"/>
      </g>
     </g>
    </g>
    <g class="tick xtick">
     <g id="line2d_39">
      <g>
       <use xlink:href="#mec2935ae43" x="206.33768" y="363.958125" style="stroke: currentColor; stroke-width: 0.8"/>
      </g>
     </g>
     <g id="line2d_40">
      <g>
       <use xlink:href="#md5099d86d7" x="206.33768" y="31.318125" style="stroke: currentColor; stroke-width: 0.8"/>
      </g>
     </g>
    </g>
    <g class="tick xtick">
     <g id="line2d_41">
      <g>
       <use xlink:href="#mec2935ae43" x="217.956964" y="363.958125" style="stroke: currentColor; stroke-width: 0.8"/>
      </g>
     </g>
     <g id="line2d_42">
      <g>
       <use xlink:href="#md5099d86d7" x="217.956964" y="31.318125" style="stroke: currentColor; stroke-width: 0.8"/>
      </g>
     </g>
    </g>
    <g class="tick xtick">
     <g id="line2d_43">
      <g>
       <use xlink:href="#mec2935ae43" x="241.19553" y="363.958125" style="stroke: currentColor; stroke-width: 0.8"/>
      </g>
     </g>
     <g id="line2d_44">
      <g>
       <use xlink:href="#md5099d86d7" x="241.19553" y="31.318125" style="stroke: currentColor; stroke-width: 0.8"/>
      </g>
     </g>
    </g>
    <g class="tick xtick">
     <g id="line2d_45">
      <g>
       <use xlink:href="#mec2935ae43" x="252.814814" y="363.958125" style="stroke: currentColor; stroke-width: 0.8"/>
      </g>
     </g>
     <g id="line2d_46">
      <g>
       <use xlink:href="#md5099d86d7" x="252.814814" y="31.318125" style="stroke: currentColor; stroke-width: 0.8"/>
      </g>
     </g>
    </g>
    <g class="tick xtick">
     <g id="line2d_47">
      <g>
       <use xlink:href="#mec2935ae43" x="264.434097" y="363.958125" style="stroke: currentColor; stroke-width: 0.8"/>
      </g>
     </g>
     <g id="line2d_48">
      <g>
       <use xlink:href="#md5099d86d7" x="264.434097" y="31.318125" style="stroke: currentColor; stroke-width: 0.8"/>
      </g>
     </g>
    </g>
    <g class="tick xtick">
     <g id="line2d_49">
      <g>
       <use xlink:href="#mec2935ae43" x="287.672664" y="363.958125" style="stroke: currentColor; stroke-width: 0.8"/>
      </g>
     </g>
     <g id="line2d_50">
      <g>
       <use xlink:href="#md5099d86d7" x="287.672664" y="31.318125" style="stroke: currentColor; stroke-width: 0.8"/>
      </g>
     </g>
    </g>
    <g id="text_7" class="text">
     <!-- $t$ -->
     <g transform="translate(166.192044 387.766875) scale(0.1 -0.1)">
      <defs>
       <path id="Cmmi10-74" d="M 397 519 
Q 397 613 416 697 
L 878 2534 
L 206 2534 
Q 141 2534 141 2619 
Q 166 2759 225 2759 
L 934 2759 
L 1191 3803 
Q 1216 3888 1291 3947 
Q 1366 4006 1459 4006 
Q 1541 4006 1595 3957 
Q 1650 3909 1650 3828 
Q 1650 3809 1648 3798 
Q 1647 3788 1644 3775 
L 1388 2759 
L 2047 2759 
Q 2113 2759 2113 2675 
Q 2109 2659 2100 2621 
Q 2091 2584 2075 2559 
Q 2059 2534 2028 2534 
L 1331 2534 
L 872 684 
Q 825 503 825 372 
Q 825 97 1013 97 
Q 1294 97 1511 361 
Q 1728 625 1844 941 
Q 1869 978 1894 978 
L 1972 978 
Q 1997 978 2012 961 
Q 2028 944 2028 922 
Q 2028 909 2022 903 
Q 1881 516 1612 222 
Q 1344 -72 997 -72 
Q 744 -72 570 93 
Q 397 259 397 519 
z
" transform="scale(0.015625)"/>
      </defs>
      <use xlink:href="#Cmmi10-74" transform="translate(0 0.40625)"/>
     </g>
    </g>
   </g>
   <g class="axis">
    <g class="tick ytick">
     <g id="line2d_51">
      <path d="M 39.02 326.54392 
L 297.064089 326.54392 
" clip-path="url(#pa46b816469)" style="fill: none; stroke: #d3d3d3; stroke-opacity: 0.1; stroke-width: 0.5; stroke-linecap: square"/>
     </g>
     <g id="line2d_52">
      <defs>
       <path id="mcf734b2e97" d="M 0 0 
L 6 0 
" style="stroke: currentColor"/>
      </defs>
      <g>
       <use xlink:href="#mcf734b2e97" x="39.02" y="326.54392" style="stroke: currentColor"/>
      </g>
     </g>
     <g id="line2d_53">
      <defs>
       <path id="md96ed8a7ec" d="M 0 0 
L -6 0 
" style="stroke: currentColor"/>
      </defs>
      <g>
       <use xlink:href="#md96ed8a7ec" x="297.064089" y="326.54392" style="stroke: currentColor"/>
      </g>
     </g>
     <g id="text_8" class="text">
      <!-- $\mathdefault{−2}$ -->
      <g transform="translate(22.2 329.963217) scale(0.09 -0.09)">
       <defs>
        <path id="DejaVuSerif-2212" d="M 678 2259 
L 4684 2259 
L 4684 1753 
L 678 1753 
L 678 2259 
z
" transform="scale(0.015625)"/>
       </defs>
       <use xlink:href="#DejaVuSerif-2212" transform="translate(0 0.78125)"/>
       <use xlink:href="#DejaVuSerif-32" transform="translate(83.789062 0.78125)"/>
      </g>
     </g>
    </g>
    <g class="tick ytick">
     <g id="line2d_54">
      <path d="M 39.02 280.066787 
L 297.064089 280.066787 
" clip-path="url(#pa46b816469)" style="fill: none; stroke: #d3d3d3; stroke-opacity: 0.1; stroke-width: 0.5; stroke-linecap: square"/>
     </g>
     <g id="line2d_55">
      <g>
       <use xlink:href="#mcf734b2e97" x="39.02" y="280.066787" style="stroke: currentColor"/>
      </g>
     </g>
     <g id="line2d_56">
      <g>
       <use xlink:href="#md96ed8a7ec" x="297.064089" y="280.066787" style="stroke: currentColor"/>
      </g>
     </g>
     <g id="text_9" class="text">
      <!-- $\mathdefault{0}$ -->
      <g transform="translate(29.76 283.486084) scale(0.09 -0.09)">
       <use xlink:href="#DejaVuSerif-30" transform="translate(0 0.78125)"/>
      </g>
     </g>
    </g>
    <g class="tick ytick">
     <g id="line2d_57">
      <path d="M 39.02 233.589654 
L 297.064089 233.589654 
" clip-path="url(#pa46b816469)" style="fill: none; stroke: #d3d3d3; stroke-opacity: 0.1; stroke-width: 0.5; stroke-linecap: square"/>
     </g>
     <g id="line2d_58">
      <g>
       <use xlink:href="#mcf734b2e97" x="39.02" y="233.589654" style="stroke: currentColor"/>
      </g>
     </g>
     <g id="line2d_59">
      <g>
       <use xlink:href="#md96ed8a7ec" x="297.064089" y="233.589654" style="stroke: currentColor"/>
      </g>
     </g>
     <g id="text_10" class="text">
      <!-- $\mathdefault{2}$ -->
      <g transform="translate(29.76 237.00895) scale(0.09 -0.09)">
       <use xlink:href="#DejaVuSerif-32" transform="translate(0 0.78125)"/>
      </g>
     </g>
    </g>
    <g class="tick ytick">
     <g id="line2d_60">
      <path d="M 39.02 187.11252 
L 297.064089 187.11252 
" clip-path="url(#pa46b816469)" style="fill: none; stroke: #d3d3d3; stroke-opacity: 0.1; stroke-width: 0.5; stroke-linecap: square"/>
     </g>
     <g id="line2d_61">
      <g>
       <use xlink:href="#mcf734b2e97" x="39.02" y="187.11252" style="stroke: currentColor"/>
      </g>
     </g>
     <g id="line2d_62">
      <g>
       <use xlink:href="#md96ed8a7ec" x="297.064089" y="187.11252" style="stroke: currentColor"/>
      </g>
     </g>
     <g id="text_11" class="text">
      <!-- $\mathdefault{4}$ -->
      <g transform="translate(29.76 190.531817) scale(0.09 -0.09)">
       <use xlink:href="#DejaVuSerif-34" transform="translate(0 0.78125)"/>
      </g>
     </g>
    </g>
    <g class="tick ytick">
     <g id="line2d_63">
      <path d="M 39.02 140.635387 
L 297.064089 140.635387 
" clip-path="url(#pa46b816469)" style="fill: none; stroke: #d3d3d3; stroke-opacity: 0.1; stroke-width: 0.5; stroke-linecap: square"/>
     </g>
     <g id="line2d_64">
      <g>
       <use xlink:href="#mcf734b2e97" x="39.02" y="140.635387" style="stroke: currentColor"/>
      </g>
     </g>
     <g id="line2d_65">
      <g>
       <use xlink:href="#md96ed8a7ec" x="297.064089" y="140.635387" style="stroke: currentColor"/>
      </g>
     </g>
     <g id="text_12" class="text">
      <!-- $\mathdefault{6}$ -->
      <g transform="translate(29.76 144.054684) scale(0.09 -0.09)">
       <use xlink:href="#DejaVuSerif-36" transform="translate(0 0.78125)"/>
      </g>
     </g>
    </g>
    <g class="tick ytick">
     <g id="line2d_66">
      <path d="M 39.02 94.158253 
L 297.064089 94.158253 
" clip-path="url(#pa46b816469)" style="fill: none; stroke: #d3d3d3; stroke-opacity: 0.1; stroke-width: 0.5; stroke-linecap: square"/>
     </g>
     <g id="line2d_67">
      <g>
       <use xlink:href="#mcf734b2e97" x="39.02" y="94.158253" style="stroke: currentColor"/>
      </g>
     </g>
     <g id="line2d_68">
      <g>
       <use xlink:href="#md96ed8a7ec" x="297.064089" y="94.158253" style="stroke: currentColor"/>
      </g>
     </g>
     <g id="text_13" class="text">
      <!-- $\mathdefault{8}$ -->
      <g transform="translate(29.76 97.57755) scale(0.09 -0.09)">
       <use xlink:href="#DejaVuSerif-38" transform="translate(0 0.78125)"/>
      </g>
     </g>
    </g>
    <g class="tick ytick">
     <g id="line2d_69">
      <path d="M 39.02 47.68112 
L 297.064089 47.68112 
" clip-path="url(#pa46b816469)" style="fill: none; stroke: #d3d3d3; stroke-opacity: 0.1; stroke-width: 0.5; stroke-linecap: square"/>
     </g>
     <g id="line2d_70">
      <g>
       <use xlink:href="#mcf734b2e97" x="39.02" y="47.68112" style="stroke: currentColor"/>
      </g>
     </g>
     <g id="line2d_71">
      <g>
       <use xlink:href="#md96ed8a7ec" x="297.064089" y="47.68112" style="stroke: currentColor"/>
      </g>
     </g>
     <g id="text_14" class="text">
      <!-- $\mathdefault{10}$ -->
      <g transform="translate(24 51.100417) scale(0.09 -0.09)">
       <use xlink:href="#DejaVuSerif-31" transform="translate(0 0.78125)"/>
       <use xlink:href="#DejaVuSerif-30" transform="translate(63.623047 0.78125)"/>
      </g>
     </g>
    </g>
    <g class="tick ytick">
     <g id="line2d_72">
      <defs>
       <path id="mbd66fabdb2" d="M 0 0 
L 3 0 
" style="stroke: currentColor; stroke-width: 0.8"/>
      </defs>
      <g>
       <use xlink:href="#mbd66fabdb2" x="39.02" y="361.40177" style="stroke: currentColor; stroke-width: 0.8"/>
      </g>
     </g>
     <g id="line2d_73">
      <defs>
       <path id="m57ee2d101c" d="M 0 0 
L -3 0 
" style="stroke: currentColor; stroke-width: 0.8"/>
      </defs>
      <g>
       <use xlink:href="#m57ee2d101c" x="297.064089" y="361.40177" style="stroke: currentColor; stroke-width: 0.8"/>
      </g>
     </g>
    </g>
    <g class="tick ytick">
     <g id="line2d_74">
      <g>
       <use xlink:href="#mbd66fabdb2" x="39.02" y="349.782487" style="stroke: currentColor; stroke-width: 0.8"/>
      </g>
     </g>
     <g id="line2d_75">
      <g>
       <use xlink:href="#m57ee2d101c" x="297.064089" y="349.782487" style="stroke: currentColor; stroke-width: 0.8"/>
      </g>
     </g>
    </g>
    <g class="tick ytick">
     <g id="line2d_76">
      <g>
       <use xlink:href="#mbd66fabdb2" x="39.02" y="338.163204" style="stroke: currentColor; stroke-width: 0.8"/>
      </g>
     </g>
     <g id="line2d_77">
      <g>
       <use xlink:href="#m57ee2d101c" x="297.064089" y="338.163204" style="stroke: currentColor; stroke-width: 0.8"/>
      </g>
     </g>
    </g>
    <g class="tick ytick">
     <g id="line2d_78">
      <g>
       <use xlink:href="#mbd66fabdb2" x="39.02" y="314.924637" style="stroke: currentColor; stroke-width: 0.8"/>
      </g>
     </g>
     <g id="line2d_79">
      <g>
       <use xlink:href="#m57ee2d101c" x="297.064089" y="314.924637" style="stroke: currentColor; stroke-width: 0.8"/>
      </g>
     </g>
    </g>
    <g class="tick ytick">
     <g id="line2d_80">
      <g>
       <use xlink:href="#mbd66fabdb2" x="39.02" y="303.305354" style="stroke: currentColor; stroke-width: 0.8"/>
      </g>
     </g>
     <g id="line2d_81">
      <g>
       <use xlink:href="#m57ee2d101c" x="297.064089" y="303.305354" style="stroke: currentColor; stroke-width: 0.8"/>
      </g>
     </g>
    </g>
    <g class="tick ytick">
     <g id="line2d_82">
      <g>
       <use xlink:href="#mbd66fabdb2" x="39.02" y="291.68607" style="stroke: currentColor; stroke-width: 0.8"/>
      </g>
     </g>
     <g id="line2d_83">
      <g>
       <use xlink:href="#m57ee2d101c" x="297.064089" y="291.68607" style="stroke: currentColor; stroke-width: 0.8"/>
      </g>
     </g>
    </g>
    <g class="tick ytick">
     <g id="line2d_84">
      <g>
       <use xlink:href="#mbd66fabdb2" x="39.02" y="268.447504" style="stroke: currentColor; stroke-width: 0.8"/>
      </g>
     </g>
     <g id="line2d_85">
      <g>
       <use xlink:href="#m57ee2d101c" x="297.064089" y="268.447504" style="stroke: currentColor; stroke-width: 0.8"/>
      </g>
     </g>
    </g>
    <g class="tick ytick">
     <g id="line2d_86">
      <g>
       <use xlink:href="#mbd66fabdb2" x="39.02" y="256.82822" style="stroke: currentColor; stroke-width: 0.8"/>
      </g>
     </g>
     <g id="line2d_87">
      <g>
       <use xlink:href="#m57ee2d101c" x="297.064089" y="256.82822" style="stroke: currentColor; stroke-width: 0.8"/>
      </g>
     </g>
    </g>
    <g class="tick ytick">
     <g id="line2d_88">
      <g>
       <use xlink:href="#mbd66fabdb2" x="39.02" y="245.208937" style="stroke: currentColor; stroke-width: 0.8"/>
      </g>
     </g>
     <g id="line2d_89">
      <g>
       <use xlink:href="#m57ee2d101c" x="297.064089" y="245.208937" style="stroke: currentColor; stroke-width: 0.8"/>
      </g>
     </g>
    </g>
    <g class="tick ytick">
     <g id="line2d_90">
      <g>
       <use xlink:href="#mbd66fabdb2" x="39.02" y="221.97037" style="stroke: currentColor; stroke-width: 0.8"/>
      </g>
     </g>
     <g id="line2d_91">
      <g>
       <use xlink:href="#m57ee2d101c" x="297.064089" y="221.97037" style="stroke: currentColor; stroke-width: 0.8"/>
      </g>
     </g>
    </g>
    <g class="tick ytick">
     <g id="line2d_92">
      <g>
       <use xlink:href="#mbd66fabdb2" x="39.02" y="210.351087" style="stroke: currentColor; stroke-width: 0.8"/>
      </g>
     </g>
     <g id="line2d_93">
      <g>
       <use xlink:href="#m57ee2d101c" x="297.064089" y="210.351087" style="stroke: currentColor; stroke-width: 0.8"/>
      </g>
     </g>
    </g>
    <g class="tick ytick">
     <g id="line2d_94">
      <g>
       <use xlink:href="#mbd66fabdb2" x="39.02" y="198.731804" style="stroke: currentColor; stroke-width: 0.8"/>
      </g>
     </g>
     <g id="line2d_95">
      <g>
       <use xlink:href="#m57ee2d101c" x="297.064089" y="198.731804" style="stroke: currentColor; stroke-width: 0.8"/>
      </g>
     </g>
    </g>
    <g class="tick ytick">
     <g id="line2d_96">
      <g>
       <use xlink:href="#mbd66fabdb2" x="39.02" y="175.493237" style="stroke: currentColor; stroke-width: 0.8"/>
      </g>
     </g>
     <g id="line2d_97">
      <g>
       <use xlink:href="#m57ee2d101c" x="297.064089" y="175.493237" style="stroke: currentColor; stroke-width: 0.8"/>
      </g>
     </g>
    </g>
    <g class="tick ytick">
     <g id="line2d_98">
      <g>
       <use xlink:href="#mbd66fabdb2" x="39.02" y="163.873954" style="stroke: currentColor; stroke-width: 0.8"/>
      </g>
     </g>
     <g id="line2d_99">
      <g>
       <use xlink:href="#m57ee2d101c" x="297.064089" y="163.873954" style="stroke: currentColor; stroke-width: 0.8"/>
      </g>
     </g>
    </g>
    <g class="tick ytick">
     <g id="line2d_100">
      <g>
       <use xlink:href="#mbd66fabdb2" x="39.02" y="152.25467" style="stroke: currentColor; stroke-width: 0.8"/>
      </g>
     </g>
     <g id="line2d_101">
      <g>
       <use xlink:href="#m57ee2d101c" x="297.064089" y="152.25467" style="stroke: currentColor; stroke-width: 0.8"/>
      </g>
     </g>
    </g>
    <g class="tick ytick">
     <g id="line2d_102">
      <g>
       <use xlink:href="#mbd66fabdb2" x="39.02" y="129.016103" style="stroke: currentColor; stroke-width: 0.8"/>
      </g>
     </g>
     <g id="line2d_103">
      <g>
       <use xlink:href="#m57ee2d101c" x="297.064089" y="129.016103" style="stroke: currentColor; stroke-width: 0.8"/>
      </g>
     </g>
    </g>
    <g class="tick ytick">
     <g id="line2d_104">
      <g>
       <use xlink:href="#mbd66fabdb2" x="39.02" y="117.39682" style="stroke: currentColor; stroke-width: 0.8"/>
      </g>
     </g>
     <g id="line2d_105">
      <g>
       <use xlink:href="#m57ee2d101c" x="297.064089" y="117.39682" style="stroke: currentColor; stroke-width: 0.8"/>
      </g>
     </g>
    </g>
    <g class="tick ytick">
     <g id="line2d_106">
      <g>
       <use xlink:href="#mbd66fabdb2" x="39.02" y="105.777537" style="stroke: currentColor; stroke-width: 0.8"/>
      </g>
     </g>
     <g id="line2d_107">
      <g>
       <use xlink:href="#m57ee2d101c" x="297.064089" y="105.777537" style="stroke: currentColor; stroke-width: 0.8"/>
      </g>
     </g>
    </g>
    <g class="tick ytick">
     <g id="line2d_108">
      <g>
       <use xlink:href="#mbd66fabdb2" x="39.02" y="82.53897" style="stroke: currentColor; stroke-width: 0.8"/>
      </g>
     </g>
     <g id="line2d_109">
      <g>
       <use xlink:href="#m57ee2d101c" x="297.064089" y="82.53897" style="stroke: currentColor; stroke-width: 0.8"/>
      </g>
     </g>
    </g>
    <g class="tick ytick">
     <g id="line2d_110">
      <g>
       <use xlink:href="#mbd66fabdb2" x="39.02" y="70.919687" style="stroke: currentColor; stroke-width: 0.8"/>
      </g>
     </g>
     <g id="line2d_111">
      <g>
       <use xlink:href="#m57ee2d101c" x="297.064089" y="70.919687" style="stroke: currentColor; stroke-width: 0.8"/>
      </g>
     </g>
    </g>
    <g class="tick ytick">
     <g id="line2d_112">
      <g>
       <use xlink:href="#mbd66fabdb2" x="39.02" y="59.300403" style="stroke: currentColor; stroke-width: 0.8"/>
      </g>
     </g>
     <g id="line2d_113">
      <g>
       <use xlink:href="#m57ee2d101c" x="297.064089" y="59.300403" style="stroke: currentColor; stroke-width: 0.8"/>
      </g>
     </g>
    </g>
    <g class="tick ytick">
     <g id="line2d_114">
      <g>
       <use xlink:href="#mbd66fabdb2" x="39.02" y="36.061837" style="stroke: currentColor; stroke-width: 0.8"/>
      </g>
     </g>
     <g id="line2d_115">
      <g>
       <use xlink:href="#m57ee2d101c" x="297.064089" y="36.061837" style="stroke: currentColor; stroke-width: 0.8"/>
      </g>
     </g>
    </g>
    <g id="text_15" class="text">
     <!-- $\beta(t), \beta^2(t)$ -->
     <g transform="translate(15.7 219.588125) rotate(-90) scale(0.1 -0.1)">
      <defs>
       <path id="Cmmi10-af" d="M 172 -1241 
Q 153 -1241 137 -1219 
Q 122 -1197 122 -1178 
L 1106 2778 
Q 1191 3097 1353 3397 
Q 1516 3697 1761 3955 
Q 2006 4213 2300 4363 
Q 2594 4513 2925 4513 
Q 3163 4513 3355 4408 
Q 3547 4303 3658 4114 
Q 3769 3925 3769 3688 
Q 3769 3459 3681 3251 
Q 3594 3044 3437 2864 
Q 3281 2684 3103 2572 
Q 3206 2506 3287 2404 
Q 3369 2303 3419 2192 
Q 3469 2081 3497 1945 
Q 3525 1809 3525 1691 
Q 3525 1363 3384 1044 
Q 3244 725 3001 465 
Q 2759 206 2446 54 
Q 2134 -97 1806 -97 
Q 1447 -97 1159 100 
Q 872 297 763 634 
L 300 -1203 
Q 300 -1241 250 -1241 
L 172 -1241 
z
M 1819 78 
Q 2106 78 2339 267 
Q 2572 456 2723 742 
Q 2875 1028 2954 1348 
Q 3034 1669 3034 1931 
Q 3034 2256 2847 2444 
Q 2628 2363 2419 2363 
Q 1913 2363 1913 2534 
Q 1913 2759 2491 2759 
Q 2697 2759 2869 2694 
Q 3006 2800 3118 3006 
Q 3231 3213 3289 3438 
Q 3347 3663 3347 3859 
Q 3347 4069 3236 4208 
Q 3125 4347 2913 4347 
Q 2522 4347 2186 4106 
Q 1850 3866 1619 3498 
Q 1388 3131 1288 2741 
L 934 1325 
Q 900 1178 891 997 
Q 891 597 1153 337 
Q 1416 78 1819 78 
z
M 2106 2553 
Q 2203 2528 2425 2528 
Q 2534 2528 2644 2566 
Q 2638 2572 2619 2572 
Q 2550 2591 2472 2591 
Q 2181 2591 2106 2553 
z
" transform="scale(0.015625)"/>
       <path id="Cmr10-28" d="M 1984 -1588 
Q 1628 -1306 1370 -942 
Q 1113 -578 948 -165 
Q 784 247 703 697 
Q 622 1147 622 1600 
Q 622 2059 703 2509 
Q 784 2959 951 3375 
Q 1119 3791 1378 4153 
Q 1638 4516 1984 4788 
Q 1984 4800 2016 4800 
L 2075 4800 
Q 2094 4800 2109 4783 
Q 2125 4766 2125 4744 
Q 2125 4716 2113 4703 
Q 1800 4397 1592 4047 
Q 1384 3697 1257 3301 
Q 1131 2906 1075 2482 
Q 1019 2059 1019 1600 
Q 1019 -434 2106 -1491 
Q 2125 -1509 2125 -1544 
Q 2125 -1559 2108 -1579 
Q 2091 -1600 2075 -1600 
L 2016 -1600 
Q 1984 -1600 1984 -1588 
z
" transform="scale(0.015625)"/>
       <path id="Cmr10-29" d="M 416 -1600 
Q 359 -1600 359 -1544 
Q 359 -1516 372 -1503 
Q 1466 -434 1466 1600 
Q 1466 3634 384 4691 
Q 359 4706 359 4744 
Q 359 4766 376 4783 
Q 394 4800 416 4800 
L 475 4800 
Q 494 4800 506 4788 
Q 966 4425 1272 3906 
Q 1578 3388 1720 2800 
Q 1863 2213 1863 1600 
Q 1863 1147 1786 708 
Q 1709 269 1542 -157 
Q 1375 -584 1119 -945 
Q 863 -1306 506 -1588 
Q 494 -1600 475 -1600 
L 416 -1600 
z
" transform="scale(0.015625)"/>
       <path id="Cmmi10-3b" d="M 634 -1153 
Q 634 -1125 659 -1100 
Q 891 -878 1019 -587 
Q 1147 -297 1147 25 
L 1147 103 
Q 1044 0 891 0 
Q 744 0 641 103 
Q 538 206 538 353 
Q 538 503 641 603 
Q 744 703 891 703 
Q 1119 703 1216 492 
Q 1313 281 1313 25 
Q 1313 -331 1170 -651 
Q 1028 -972 769 -1228 
Q 744 -1241 728 -1241 
Q 697 -1241 665 -1212 
Q 634 -1184 634 -1153 
z
" transform="scale(0.015625)"/>
       <path id="Cmr10-32" d="M 319 0 
L 319 172 
Q 319 188 331 206 
L 1325 1306 
Q 1550 1550 1690 1715 
Q 1831 1881 1968 2097 
Q 2106 2313 2186 2536 
Q 2266 2759 2266 3009 
Q 2266 3272 2169 3511 
Q 2072 3750 1880 3894 
Q 1688 4038 1416 4038 
Q 1138 4038 916 3870 
Q 694 3703 603 3438 
Q 628 3444 672 3444 
Q 816 3444 917 3347 
Q 1019 3250 1019 3097 
Q 1019 2950 917 2848 
Q 816 2747 672 2747 
Q 522 2747 420 2851 
Q 319 2956 319 3097 
Q 319 3338 409 3548 
Q 500 3759 670 3923 
Q 841 4088 1055 4175 
Q 1269 4263 1509 4263 
Q 1875 4263 2190 4108 
Q 2506 3953 2690 3670 
Q 2875 3388 2875 3009 
Q 2875 2731 2753 2481 
Q 2631 2231 2440 2026 
Q 2250 1822 1953 1562 
Q 1656 1303 1563 1216 
L 838 519 
L 1453 519 
Q 1906 519 2211 526 
Q 2516 534 2534 550 
Q 2609 631 2688 1141 
L 2875 1141 
L 2694 0 
L 319 0 
z
" transform="scale(0.015625)"/>
      </defs>
      <use xlink:href="#Cmmi10-af" transform="translate(0 0.109375)"/>
      <use xlink:href="#Cmr10-28" transform="translate(56.494141 0.109375)"/>
      <use xlink:href="#Cmmi10-74" transform="translate(95.3125 0.109375)"/>
      <use xlink:href="#Cmr10-29" transform="translate(131.396484 0.109375)"/>
      <use xlink:href="#Cmmi10-3b" transform="translate(170.214844 0.109375)"/>
      <use xlink:href="#Cmmi10-af" transform="translate(215.458984 0.109375)"/>
      <use xlink:href="#Cmr10-32" transform="translate(283.785312 38.373438) scale(0.7)"/>
      <use xlink:href="#Cmr10-28" transform="translate(325.162656 0.109375)"/>
      <use xlink:href="#Cmmi10-74" transform="translate(363.981016 0.109375)"/>
      <use xlink:href="#Cmr10-29" transform="translate(400.065 0.109375)"/>
     </g>
    </g>
   </g>
   <g id="line2d_116">
    <path d="M 43.667713 280.066787 
L 43.900099 276.150209 
L 44.132485 278.918337 
L 44.36487 277.766389 
L 44.597256 278.335307 
L 44.829642 275.907717 
L 45.062027 275.915351 
L 45.526799 278.150225 
L 45.99157 274.183478 
L 46.223956 273.531345 
L 46.456341 275.357139 
L 46.688727 276.095602 
L 46.921113 272.469937 
L 47.153498 271.075605 
L 47.385884 274.057274 
L 47.61827 270.501302 
L 47.850655 275.41288 
L 48.083041 276.327894 
L 48.547812 276.231295 
L 48.780198 277.369664 
L 49.244969 277.805258 
L 49.477355 276.457022 
L 49.709741 276.135325 
L 49.942126 278.563761 
L 50.174512 279.082123 
L 50.406898 278.85175 
L 50.639283 278.948002 
L 50.871669 279.482211 
L 51.104055 276.302371 
L 51.33644 275.471094 
L 51.568826 277.686877 
L 52.033597 274.431868 
L 52.265983 274.729742 
L 52.730754 286.583527 
L 53.195526 285.949344 
L 53.427911 287.438639 
L 53.660297 287.158764 
L 53.892683 288.195246 
L 54.125068 286.419696 
L 54.357454 288.982336 
L 54.58984 292.957113 
L 54.822225 293.333976 
L 55.054611 291.908176 
L 55.519382 287.661202 
L 55.751768 291.509685 
L 55.984154 290.621588 
L 56.681311 294.916531 
L 56.913696 293.295841 
L 57.378468 301.256462 
L 57.843239 297.443195 
L 58.075625 304.693252 
L 58.30801 307.034402 
L 58.540396 306.236725 
L 58.772782 306.922172 
L 59.005167 306.223836 
L 59.237553 304.672212 
L 59.469939 308.602332 
L 59.702324 305.961011 
L 59.93471 304.892257 
L 60.167096 306.242408 
L 60.864253 302.197475 
L 61.096638 303.186009 
L 61.329024 308.036992 
L 61.56141 309.847149 
L 61.793795 308.368411 
L 62.026181 310.37208 
L 62.258567 314.536867 
L 62.490952 314.997014 
L 62.723338 312.169361 
L 62.955724 313.70249 
L 63.188109 321.671302 
L 63.420495 320.155689 
L 63.652881 319.842644 
L 63.885266 318.068885 
L 64.117652 312.247267 
L 64.350038 315.43702 
L 64.582423 315.959475 
L 64.814809 318.524493 
L 65.047195 318.328003 
L 65.27958 318.551596 
L 65.511966 320.161849 
L 65.744352 320.647191 
L 65.976737 323.646554 
L 66.209123 325.034444 
L 66.441509 327.88537 
L 66.673894 327.428983 
L 66.90628 329.405944 
L 67.138666 328.678891 
L 67.371051 331.679541 
L 67.603437 332.4868 
L 67.835823 337.93229 
L 68.068208 340.614993 
L 68.300594 339.082217 
L 68.765365 334.441787 
L 68.997751 337.677542 
L 69.230137 339.332432 
L 69.694908 336.244664 
L 69.927294 334.960068 
L 70.159679 334.967822 
L 70.392065 339.947083 
L 70.856836 335.597677 
L 71.089222 341.694687 
L 71.553993 335.708677 
L 71.786379 336.139525 
L 72.25115 331.996429 
L 72.715922 337.761671 
L 72.948307 336.41313 
L 73.413079 338.25805 
L 73.645464 339.168907 
L 73.87785 338.431488 
L 74.110236 336.912019 
L 74.342621 336.460303 
L 74.807393 341.529317 
L 75.039778 342.076909 
L 75.272164 345.858045 
L 75.50455 347.529012 
L 75.736935 347.748014 
L 76.201707 349.960032 
L 76.434092 349.12326 
L 76.898864 353.541553 
L 77.131249 352.219232 
L 77.363635 347.779981 
L 77.596021 348.310937 
L 77.828406 349.168771 
L 78.060792 344.593402 
L 78.293178 349.699125 
L 78.525563 346.316779 
L 78.757949 346.787082 
L 78.990335 349.752479 
L 79.22272 350.374737 
L 79.455106 350.227039 
L 79.687492 351.333206 
L 79.919877 351.796979 
L 80.152263 352.685311 
L 80.384649 354.308115 
L 80.617034 352.578608 
L 81.081806 354.662698 
L 81.314191 354.288307 
L 81.778963 349.059142 
L 82.011348 346.572861 
L 82.243734 347.00981 
L 82.47612 343.796667 
L 82.708505 343.92569 
L 82.940891 342.780305 
L 83.405662 344.576085 
L 83.638048 342.760314 
L 84.102819 336.876607 
L 84.335205 340.591485 
L 84.567591 337.944785 
L 84.799976 344.394873 
L 85.032362 347.004302 
L 85.264748 348.108922 
L 85.497133 346.628095 
L 85.729519 346.019123 
L 86.19429 347.938541 
L 86.426676 345.553734 
L 86.659062 345.622243 
L 87.123833 344.203374 
L 87.356219 344.087862 
L 87.588604 344.451062 
L 87.82099 345.141404 
L 88.518147 341.783914 
L 88.750533 344.035028 
L 88.982918 344.110913 
L 89.215304 345.640597 
L 89.44769 341.951714 
L 89.680075 342.919719 
L 89.912461 343.147774 
L 89.912461 343.147774 
" clip-path="url(#pa46b816469)" style="fill: none; stroke: #8000ff; stroke-width: 2; stroke-linecap: square"/>
   </g>
   <g id="line2d_117">
    <path d="M 43.667713 280.066787 
L 43.900099 279.406696 
L 44.132485 280.010031 
L 44.36487 279.839069 
L 44.597256 279.937776 
L 44.829642 279.322427 
L 45.062027 279.325157 
L 45.294413 279.740636 
L 45.526799 279.908722 
L 45.99157 278.57731 
L 46.223956 278.228808 
L 46.456341 279.112305 
L 46.688727 279.388161 
L 47.153498 276.588028 
L 47.385884 278.512722 
L 47.61827 276.129431 
L 47.850655 279.134765 
L 48.083041 279.46523 
L 48.547812 279.433745 
L 48.780198 279.753753 
L 49.244969 279.8467 
L 49.477355 279.506064 
L 49.709741 279.401669 
L 49.942126 279.969574 
L 50.406898 280.003258 
L 50.871669 280.052082 
L 51.33644 279.157936 
L 51.568826 279.823055 
L 52.033597 278.700424 
L 52.265983 278.841064 
L 52.498369 279.943855 
L 52.730754 278.239312 
L 53.195526 278.57769 
L 53.427911 277.728252 
L 53.660297 277.902448 
L 53.892683 277.223589 
L 54.125068 278.330042 
L 54.357454 276.646309 
L 54.58984 272.916583 
L 54.822225 272.492382 
L 55.054611 274.032917 
L 55.286997 276.425868 
L 55.519382 277.584915 
L 55.751768 274.432192 
L 55.984154 275.272867 
L 56.681311 270.577609 
L 56.913696 272.535863 
L 57.146082 268.260783 
L 57.378468 260.745358 
L 57.843239 267.07375 
L 58.075625 253.969533 
L 58.30801 248.771731 
L 58.540396 250.595706 
L 58.772782 249.031668 
L 59.005167 250.62473 
L 59.237553 254.014107 
L 59.469939 245.026875 
L 59.702324 251.213422 
L 59.93471 253.546049 
L 60.167096 250.582906 
L 60.864253 258.99116 
L 61.096638 257.066298 
L 61.329024 246.401529 
L 61.56141 241.903076 
L 61.793795 245.599002 
L 62.026181 240.545814 
L 62.258567 228.936851 
L 62.490952 227.562655 
L 62.723338 235.719162 
L 62.955724 231.382179 
L 63.188109 205.581311 
L 63.420495 210.909334 
L 63.652881 211.985187 
L 63.885266 217.921842 
L 64.117652 235.503656 
L 64.350038 226.231565 
L 64.582423 224.629417 
L 64.814809 216.422794 
L 65.047195 217.071481 
L 65.27958 216.333059 
L 65.511966 210.88808 
L 65.744352 209.203157 
L 65.976737 198.340744 
L 66.209123 193.052377 
L 66.441509 181.669287 
L 66.673894 183.53856 
L 66.90628 175.311945 
L 67.138666 178.376493 
L 67.371051 165.435091 
L 67.603437 161.821209 
L 68.068208 122.308121 
L 68.300594 130.194333 
L 68.765365 152.836882 
L 69.230137 128.920777 
L 69.694908 144.260054 
L 69.927294 150.399913 
L 70.159679 150.36328 
L 70.392065 125.769413 
L 70.856836 147.370145 
L 71.089222 116.63166 
L 71.553993 146.839123 
L 71.786379 144.767912 
L 72.25115 164.023153 
L 72.715922 136.826469 
L 72.948307 143.444316 
L 73.413079 134.351125 
L 73.645464 129.753704 
L 73.87785 133.481227 
L 74.110236 141.014306 
L 74.342621 143.21546 
L 75.50455 84.222012 
L 75.736935 82.948413 
L 76.201707 69.853064 
L 76.434092 74.856348 
L 76.898864 47.757226 
L 77.131249 56.043704 
L 77.363635 82.762166 
L 77.596021 79.655804 
L 77.828406 74.585777 
L 78.060792 100.895493 
L 78.293178 71.419558 
L 78.525563 91.197073 
L 78.757949 88.506016 
L 78.990335 71.099694 
L 79.22272 67.351095 
L 79.455106 68.243873 
L 79.687492 61.511895 
L 79.919877 58.658102 
L 80.152263 53.140137 
L 80.384649 42.884571 
L 80.617034 53.806527 
L 81.081806 40.613552 
L 81.314191 43.011116 
L 82.011348 89.734139 
L 82.243734 87.224931 
L 82.47612 105.292773 
L 82.708505 104.584388 
L 82.940891 110.822898 
L 83.405662 100.99165 
L 83.638048 110.930785 
L 84.102819 141.187499 
L 84.335205 122.430599 
L 84.567591 135.915785 
L 84.799976 101.996312 
L 85.032362 87.256661 
L 85.264748 80.840552 
L 85.497133 89.417865 
L 85.729519 92.890415 
L 86.19429 81.837051 
L 86.426676 95.522696 
L 86.659062 95.136369 
L 87.123833 103.054932 
L 87.356219 103.691966 
L 87.588604 101.685093 
L 87.82099 97.839291 
L 88.518147 116.158065 
L 88.750533 103.982954 
L 88.982918 103.564935 
L 89.215304 95.032806 
L 89.44769 115.265566 
L 89.680075 110.069595 
L 89.912461 108.833725 
L 89.912461 108.833725 
" clip-path="url(#pa46b816469)" style="fill: none; stroke: #ff8000; stroke-width: 2; stroke-linecap: square"/>
   </g>
   <g class="patch">
    <path d="M 39.02 363.958125 
L 39.02 31.318125 
" style="fill: none; stroke: currentColor; stroke-linejoin: miter; stroke-linecap: square"/>
   </g>
   <g class="patch">
    <path d="M 39.02 363.958125 
L 297.064089 363.958125 
" style="fill: none; stroke: currentColor; stroke-linejoin: miter; stroke-linecap: square"/>
   </g>
   <g id="text_16" class="text">
    <!-- Brownian motion and its squared version -->
    <g transform="translate(29.185169 16.318125) scale(0.12 -0.12)">
     <defs>
      <path id="DejaVuSerif-Bold-42" d="M 300 0 
L 300 378 
L 897 378 
L 897 4288 
L 300 4288 
L 300 4666 
L 3066 4666 
Q 3919 4666 4347 4378 
Q 4775 4091 4775 3513 
Q 4775 3097 4479 2853 
Q 4184 2609 3603 2547 
Q 4306 2481 4681 2172 
Q 5056 1863 5056 1350 
Q 5056 656 4532 328 
Q 4009 0 2894 0 
L 300 0 
z
M 2100 2719 
L 2509 2719 
Q 3047 2719 3306 2914 
Q 3566 3109 3566 3513 
Q 3566 3919 3314 4103 
Q 3063 4288 2509 4288 
L 2100 4288 
L 2100 2719 
z
M 2100 378 
L 2547 378 
Q 3144 378 3431 615 
Q 3719 853 3719 1350 
Q 3719 1850 3428 2097 
Q 3138 2344 2547 2344 
L 2100 2344 
L 2100 378 
z
" transform="scale(0.015625)"/>
      <path id="DejaVuSerif-Bold-72" d="M 3438 3359 
L 3438 2369 
L 3084 2369 
Q 3066 2634 2941 2764 
Q 2816 2894 2578 2894 
Q 2216 2894 2006 2575 
Q 1797 2256 1797 1691 
L 1797 378 
L 2400 378 
L 2400 0 
L 219 0 
L 219 378 
L 691 378 
L 691 2944 
L 184 2944 
L 184 3322 
L 1797 3322 
L 1797 2731 
Q 1959 3078 2226 3245 
Q 2494 3413 2881 3413 
Q 2978 3413 3117 3398 
Q 3256 3384 3438 3359 
z
" transform="scale(0.015625)"/>
      <path id="DejaVuSerif-Bold-6f" d="M 2138 263 
Q 2488 263 2630 563 
Q 2772 863 2772 1663 
Q 2772 2463 2631 2761 
Q 2491 3059 2138 3059 
Q 1784 3059 1640 2757 
Q 1497 2456 1497 1663 
Q 1497 869 1640 566 
Q 1784 263 2138 263 
z
M 2138 -91 
Q 1259 -91 761 376 
Q 263 844 263 1663 
Q 263 2484 761 2948 
Q 1259 3413 2138 3413 
Q 3019 3413 3516 2948 
Q 4013 2484 4013 1663 
Q 4013 844 3514 376 
Q 3016 -91 2138 -91 
z
" transform="scale(0.015625)"/>
      <path id="DejaVuSerif-Bold-77" d="M 3450 3322 
L 4206 1106 
L 4831 2944 
L 4397 2944 
L 4397 3322 
L 5638 3322 
L 5638 2944 
L 5247 2944 
L 4244 0 
L 3481 0 
L 2778 2081 
L 2069 0 
L 1313 0 
L 306 2944 
L -56 2944 
L -56 3322 
L 1825 3322 
L 1825 2944 
L 1434 2944 
L 2047 1147 
L 2791 3322 
L 3450 3322 
z
" transform="scale(0.015625)"/>
      <path id="DejaVuSerif-Bold-6e" d="M 219 0 
L 219 378 
L 691 378 
L 691 2944 
L 219 2944 
L 219 3322 
L 1797 3322 
L 1797 2853 
Q 1997 3150 2253 3281 
Q 2509 3413 2900 3413 
Q 3459 3413 3745 3083 
Q 4031 2753 4031 2113 
L 4031 378 
L 4506 378 
L 4506 0 
L 2522 0 
L 2522 378 
L 2925 378 
L 2925 2144 
Q 2925 2566 2817 2730 
Q 2709 2894 2444 2894 
Q 2109 2894 1953 2648 
Q 1797 2403 1797 1869 
L 1797 378 
L 2203 378 
L 2203 0 
L 219 0 
z
" transform="scale(0.015625)"/>
      <path id="DejaVuSerif-Bold-69" d="M 588 4263 
Q 588 4516 763 4689 
Q 938 4863 1191 4863 
Q 1438 4863 1611 4689 
Q 1784 4516 1784 4263 
Q 1784 4016 1611 3842 
Q 1438 3669 1191 3669 
Q 938 3669 763 3841 
Q 588 4013 588 4263 
z
M 1797 378 
L 2272 378 
L 2272 0 
L 219 0 
L 219 378 
L 691 378 
L 691 2944 
L 219 2944 
L 219 3322 
L 1797 3322 
L 1797 378 
z
" transform="scale(0.015625)"/>
      <path id="DejaVuSerif-Bold-61" d="M 3525 2041 
L 3525 378 
L 4000 378 
L 4000 0 
L 2419 0 
L 2419 422 
Q 2200 159 1931 34 
Q 1663 -91 1319 -91 
Q 809 -91 536 182 
Q 263 456 263 966 
Q 263 1525 655 1803 
Q 1047 2081 1838 2081 
L 2419 2081 
L 2419 2278 
Q 2419 2681 2228 2873 
Q 2038 3066 1638 3066 
Q 1306 3066 1126 2930 
Q 947 2794 872 2484 
L 519 2484 
L 519 3200 
Q 816 3306 1134 3359 
Q 1453 3413 1806 3413 
Q 2697 3413 3111 3081 
Q 3525 2750 3525 2041 
z
M 2419 1044 
L 2419 1709 
L 2003 1709 
Q 1694 1709 1528 1540 
Q 1363 1372 1363 1056 
Q 1363 741 1483 584 
Q 1603 428 1850 428 
Q 2106 428 2262 597 
Q 2419 766 2419 1044 
z
" transform="scale(0.015625)"/>
      <path id="DejaVuSerif-Bold-20" transform="scale(0.015625)"/>
      <path id="DejaVuSerif-Bold-6d" d="M 3884 2778 
Q 4116 3109 4384 3261 
Q 4653 3413 5013 3413 
Q 5584 3413 5867 3089 
Q 6150 2766 6150 2113 
L 6150 378 
L 6625 378 
L 6625 0 
L 4647 0 
L 4647 378 
L 5044 378 
L 5044 1947 
Q 5044 2569 4948 2731 
Q 4853 2894 4594 2894 
Q 4300 2894 4137 2667 
Q 3975 2441 3975 2022 
L 3975 378 
L 4372 378 
L 4372 0 
L 2472 0 
L 2472 378 
L 2869 378 
L 2869 1947 
Q 2869 2569 2772 2731 
Q 2675 2894 2419 2894 
Q 2122 2894 1959 2667 
Q 1797 2441 1797 2022 
L 1797 378 
L 2194 378 
L 2194 0 
L 219 0 
L 219 378 
L 691 378 
L 691 2944 
L 219 2944 
L 219 3322 
L 1797 3322 
L 1797 2853 
Q 1991 3144 2241 3278 
Q 2491 3413 2834 3413 
Q 3241 3413 3494 3258 
Q 3747 3103 3884 2778 
z
" transform="scale(0.015625)"/>
      <path id="DejaVuSerif-Bold-74" d="M 634 2944 
L 153 2944 
L 153 3322 
L 634 3322 
L 634 4353 
L 1741 4353 
L 1741 3322 
L 2663 3322 
L 2663 2944 
L 1741 2944 
L 1741 909 
Q 1741 475 1809 369 
Q 1878 263 2059 263 
Q 2259 263 2356 397 
Q 2453 531 2459 813 
L 2925 813 
Q 2897 313 2651 111 
Q 2406 -91 1806 -91 
Q 1122 -91 878 123 
Q 634 338 634 909 
L 634 2944 
z
" transform="scale(0.015625)"/>
      <path id="DejaVuSerif-Bold-64" d="M 2747 1497 
L 2747 1825 
Q 2747 2406 2597 2665 
Q 2447 2925 2119 2925 
Q 1775 2925 1636 2651 
Q 1497 2378 1497 1663 
Q 1497 947 1637 672 
Q 1778 397 2119 397 
Q 2447 397 2597 656 
Q 2747 916 2747 1497 
z
M 3853 378 
L 4325 378 
L 4325 0 
L 2747 0 
L 2747 422 
Q 2606 163 2367 36 
Q 2128 -91 1778 -91 
Q 1072 -91 667 378 
Q 263 847 263 1663 
Q 263 2481 667 2947 
Q 1072 3413 1778 3413 
Q 2128 3413 2367 3286 
Q 2606 3159 2747 2900 
L 2747 4488 
L 2272 4488 
L 2272 4863 
L 3853 4863 
L 3853 378 
z
" transform="scale(0.015625)"/>
      <path id="DejaVuSerif-Bold-73" d="M 300 97 
L 300 1025 
L 653 1025 
Q 697 653 931 458 
Q 1166 263 1569 263 
Q 1906 263 2086 380 
Q 2266 497 2266 716 
Q 2266 916 2152 1025 
Q 2038 1134 1709 1216 
L 1253 1331 
Q 738 1459 506 1698 
Q 275 1938 275 2344 
Q 275 2884 650 3148 
Q 1025 3413 1806 3413 
Q 2100 3413 2433 3364 
Q 2766 3316 3169 3213 
L 3169 2375 
L 2816 2375 
Q 2788 2716 2573 2887 
Q 2359 3059 1959 3059 
Q 1622 3059 1448 2951 
Q 1275 2844 1275 2638 
Q 1275 2469 1375 2372 
Q 1475 2275 1734 2209 
L 2188 2094 
Q 2841 1928 3091 1684 
Q 3341 1441 3341 1006 
Q 3341 444 2939 176 
Q 2538 -91 1691 -91 
Q 1381 -91 1034 -44 
Q 688 3 300 97 
z
" transform="scale(0.015625)"/>
      <path id="DejaVuSerif-Bold-71" d="M 3853 2944 
L 3853 -953 
L 4325 -953 
L 4325 -1331 
L 2234 -1331 
L 2234 -953 
L 2747 -953 
L 2747 422 
Q 2606 163 2367 36 
Q 2128 -91 1778 -91 
Q 1072 -91 667 378 
Q 263 847 263 1663 
Q 263 2481 667 2947 
Q 1072 3413 1778 3413 
Q 2128 3413 2367 3286 
Q 2606 3159 2747 2900 
L 2747 3322 
L 4325 3322 
L 4325 2944 
L 3853 2944 
z
M 2747 1825 
Q 2747 2406 2597 2665 
Q 2447 2925 2119 2925 
Q 1775 2925 1636 2651 
Q 1497 2378 1497 1663 
Q 1497 947 1637 672 
Q 1778 397 2119 397 
Q 2447 397 2597 656 
Q 2747 916 2747 1497 
L 2747 1825 
z
" transform="scale(0.015625)"/>
      <path id="DejaVuSerif-Bold-75" d="M 3963 3322 
L 3963 378 
L 4434 378 
L 4434 0 
L 2853 0 
L 2853 469 
Q 2656 172 2400 40 
Q 2144 -91 1753 -91 
Q 1194 -91 908 239 
Q 622 569 622 1209 
L 622 2944 
L 147 2944 
L 147 3322 
L 1728 3322 
L 1728 1381 
Q 1728 763 1831 595 
Q 1934 428 2209 428 
Q 2544 428 2698 675 
Q 2853 922 2853 1459 
L 2853 2944 
L 2450 2944 
L 2450 3322 
L 3963 3322 
z
" transform="scale(0.015625)"/>
      <path id="DejaVuSerif-Bold-65" d="M 2566 1875 
Q 2566 2531 2444 2795 
Q 2322 3059 2028 3059 
Q 1744 3059 1620 2800 
Q 1497 2541 1497 1931 
L 1497 1875 
L 2566 1875 
z
M 3781 1503 
L 1497 1503 
L 1497 1478 
Q 1497 834 1690 548 
Q 1884 263 2316 263 
Q 2675 263 2897 453 
Q 3119 644 3181 1006 
L 3700 1006 
Q 3566 441 3166 175 
Q 2766 -91 2047 -91 
Q 1184 -91 723 364 
Q 263 819 263 1663 
Q 263 2488 734 2950 
Q 1206 3413 2047 3413 
Q 2872 3413 3312 2927 
Q 3753 2441 3781 1503 
z
" transform="scale(0.015625)"/>
      <path id="DejaVuSerif-Bold-76" d="M 1428 0 
L 250 2944 
L -116 2944 
L -116 3322 
L 1791 3322 
L 1791 2944 
L 1388 2944 
L 2228 844 
L 3066 2944 
L 2631 2944 
L 2631 3322 
L 3878 3322 
L 3878 2944 
L 3494 2944 
L 2316 0 
L 1428 0 
z
" transform="scale(0.015625)"/>
     </defs>
     <use xlink:href="#DejaVuSerif-Bold-42"/>
     <use xlink:href="#DejaVuSerif-Bold-72" transform="translate(84.521484 0)"/>
     <use xlink:href="#DejaVuSerif-Bold-6f" transform="translate(137.207031 0)"/>
     <use xlink:href="#DejaVuSerif-Bold-77" transform="translate(203.90625 0)"/>
     <use xlink:href="#DejaVuSerif-Bold-6e" transform="translate(289.990234 0)"/>
     <use xlink:href="#DejaVuSerif-Bold-69" transform="translate(362.695312 0)"/>
     <use xlink:href="#DejaVuSerif-Bold-61" transform="translate(400.683594 0)"/>
     <use xlink:href="#DejaVuSerif-Bold-6e" transform="translate(465.478516 0)"/>
     <use xlink:href="#DejaVuSerif-Bold-20" transform="translate(538.183594 0)"/>
     <use xlink:href="#DejaVuSerif-Bold-6d" transform="translate(572.998047 0)"/>
     <use xlink:href="#DejaVuSerif-Bold-6f" transform="translate(678.808594 0)"/>
     <use xlink:href="#DejaVuSerif-Bold-74" transform="translate(745.507812 0)"/>
     <use xlink:href="#DejaVuSerif-Bold-69" transform="translate(791.699219 0)"/>
     <use xlink:href="#DejaVuSerif-Bold-6f" transform="translate(829.6875 0)"/>
     <use xlink:href="#DejaVuSerif-Bold-6e" transform="translate(896.386719 0)"/>
     <use xlink:href="#DejaVuSerif-Bold-20" transform="translate(969.091797 0)"/>
     <use xlink:href="#DejaVuSerif-Bold-61" transform="translate(1003.90625 0)"/>
     <use xlink:href="#DejaVuSerif-Bold-6e" transform="translate(1068.701172 0)"/>
     <use xlink:href="#DejaVuSerif-Bold-64" transform="translate(1141.40625 0)"/>
     <use xlink:href="#DejaVuSerif-Bold-20" transform="translate(1211.328125 0)"/>
     <use xlink:href="#DejaVuSerif-Bold-69" transform="translate(1246.142578 0)"/>
     <use xlink:href="#DejaVuSerif-Bold-74" transform="translate(1284.130859 0)"/>
     <use xlink:href="#DejaVuSerif-Bold-73" transform="translate(1330.322266 0)"/>
     <use xlink:href="#DejaVuSerif-Bold-20" transform="translate(1386.621094 0)"/>
     <use xlink:href="#DejaVuSerif-Bold-73" transform="translate(1421.435547 0)"/>
     <use xlink:href="#DejaVuSerif-Bold-71" transform="translate(1477.734375 0)"/>
     <use xlink:href="#DejaVuSerif-Bold-75" transform="translate(1547.65625 0)"/>
     <use xlink:href="#DejaVuSerif-Bold-61" transform="translate(1620.361328 0)"/>
     <use xlink:href="#DejaVuSerif-Bold-72" transform="translate(1685.15625 0)"/>
     <use xlink:href="#DejaVuSerif-Bold-65" transform="translate(1737.841797 0)"/>
     <use xlink:href="#DejaVuSerif-Bold-64" transform="translate(1801.464844 0)"/>
     <use xlink:href="#DejaVuSerif-Bold-20" transform="translate(1871.386719 0)"/>
     <use xlink:href="#DejaVuSerif-Bold-76" transform="translate(1906.201172 0)"/>
     <use xlink:href="#DejaVuSerif-Bold-65" transform="translate(1964.306641 0)"/>
     <use xlink:href="#DejaVuSerif-Bold-72" transform="translate(2027.929688 0)"/>
     <use xlink:href="#DejaVuSerif-Bold-73" transform="translate(2080.615234 0)"/>
     <use xlink:href="#DejaVuSerif-Bold-69" transform="translate(2136.914062 0)"/>
     <use xlink:href="#DejaVuSerif-Bold-6f" transform="translate(2174.902344 0)"/>
     <use xlink:href="#DejaVuSerif-Bold-6e" transform="translate(2241.601562 0)"/>
    </g>
   </g>
   <g class="legend">
    <g class="patch">
     <path d="M 236.643207 73.159519 
L 285.603207 73.159519 
Q 287.403207 73.159519 287.403207 71.359519 
L 287.403207 44.270925 
Q 287.403207 42.470925 285.603207 42.470925 
L 236.643207 42.470925 
Q 234.843207 42.470925 234.843207 44.270925 
L 234.843207 71.359519 
Q 234.843207 73.159519 236.643207 73.159519 
z
" style="fill: #ffffff; opacity: 0.9; stroke: #cccccc; stroke-linejoin: miter"/>
    </g>
    <g id="line2d_118">
     <path d="M 238.443207 49.759519 
L 247.443207 49.759519 
L 256.443207 49.759519 
" style="fill: none; stroke: #8000ff; stroke-width: 2; stroke-linecap: square"/>
    </g>
    <g id="text_17" class="text">
     <!-- $\beta(t)$ -->
     <g transform="translate(263.643207 52.909519) scale(0.09 -0.09)">
      <use xlink:href="#Cmmi10-af"/>
      <use xlink:href="#Cmr10-28" transform="translate(56.494141 0)"/>
      <use xlink:href="#Cmmi10-74" transform="translate(95.3125 0)"/>
      <use xlink:href="#Cmr10-29" transform="translate(131.396484 0)"/>
     </g>
    </g>
    <g id="line2d_119">
     <path d="M 238.443207 64.159519 
L 247.443207 64.159519 
L 256.443207 64.159519 
" style="fill: none; stroke: #ff8000; stroke-width: 2; stroke-linecap: square"/>
    </g>
    <g id="text_18" class="text">
     <!-- $\beta^2(t)$ -->
     <g transform="translate(263.643207 67.309519) scale(0.09 -0.09)">
      <use xlink:href="#Cmmi10-af" transform="translate(0 0.109375)"/>
      <use xlink:href="#Cmr10-32" transform="translate(68.326328 38.373438) scale(0.7)"/>
      <use xlink:href="#Cmr10-28" transform="translate(109.703672 0.109375)"/>
      <use xlink:href="#Cmmi10-74" transform="translate(148.522031 0.109375)"/>
      <use xlink:href="#Cmr10-29" transform="translate(184.606016 0.109375)"/>
     </g>
    </g>
   </g>
  </g>
 </g>
 <defs>
  <clipPath id="pa46b816469">
   <rect x="39.02" y="31.318125" width="258.044089" height="332.64"/>
  </clipPath>
 </defs>
</svg>
