<?xml version="1.0" encoding="utf-8" standalone="no"?>
<!DOCTYPE svg PUBLIC "-//W3C//DTD SVG 1.1//EN"
  "http://www.w3.org/Graphics/SVG/1.1/DTD/svg11.dtd">
<svg xmlns:xlink="http://www.w3.org/1999/xlink" width="488.3pt" height="364.017344pt" viewBox="0 0 488.3 364.017344" xmlns="http://www.w3.org/2000/svg" version="1.1">
<style>/* === RDF autogenerated palette === */
:root {
    --axis-color: #000;
    --grid-stroke: rgba(0,0,0,0.2);
    --plot3d-stroke: rgba(0,0,0,0.3);
    --plot3d-grid: rgba(0,0,0,0.2);
}
@media (prefers-color-scheme: dark) {
    :root {
        --axis-color: #fff;
        --grid-stroke: rgba(255,255,255,0.2);
        --plot3d-stroke: rgba(255,255,255,0.3);
        --plot3d-grid: rgba(255,255,255,0.2);
    }
}

/* Light‑mode palette */
.c1 { fill:#FF0001; stroke:#FF0001; }.c2 { fill:#00FF02; stroke:#00FF02; }.c3 { fill:#0000FF; stroke:#0000FF; }.c4 { fill:#FF00FF; stroke:#FF00FF; }.c5 { fill:#00FFFF; stroke:#00FFFF; }.c6 { fill:#FFFF00; stroke:#FFFF00; }.c7 { fill:#FF8000; stroke:#FF8000; }.c8 { fill:#8000FF; stroke:#8000FF; }.octonary { fill:#bcbd22; stroke:#bcbd22; }.primary { fill:#d62728; stroke:#d62728; }.quaternary { fill:#9467bd; stroke:#9467bd; }.quinary { fill:#8c564b; stroke:#8c564b; }.secondary { fill:#2ca02c; stroke:#2ca02c; }.senary { fill:#e377c2; stroke:#e377c2; }.septenary { fill:#7f7f7f; stroke:#7f7f7f; }.tertiary { fill:#1f77b4; stroke:#1f77b4; }

/* Dark overrides */
@media (prefers-color-scheme: dark) {
    .c1 { fill:#FF0001; stroke:#FF0001; }.c2 { fill:#00FF02; stroke:#00FF02; }.c3 { fill:#0000FF; stroke:#0000FF; }.c4 { fill:#FF00FF; stroke:#FF00FF; }.c5 { fill:#00FFFF; stroke:#00FFFF; }.c6 { fill:#FFFF00; stroke:#FFFF00; }.c7 { fill:#FF8000; stroke:#FF8000; }.c8 { fill:#8000FF; stroke:#8000FF; }.octonary { fill:#E6DB74; stroke:#E6DB74; }.primary { fill:#FF4A98; stroke:#FF4A98; }.quaternary { fill:#B4A0FF; stroke:#B4A0FF; }.quinary { fill:#FFB86B; stroke:#FFB86B; }.secondary { fill:#0AFAFA; stroke:#0AFAFA; }.senary { fill:#FF79C6; stroke:#FF79C6; }.septenary { fill:#CCCCCC; stroke:#CCCCCC; }.tertiary { fill:#7F83FF; stroke:#7F83FF; }
}/* Axis, ticks, legend */
text, .text { fill: var(--axis-color) !important; stroke: none !important; }
.axis line, .axis path,
.tick line, .tick path,
path.domain,
line.grid { stroke: var(--axis-color) !important; }
.legend text { fill: var(--axis-color) !important; }

/* Patch paths that relied on currentColor */
.patch path[style*="stroke: currentColor"] { stroke: var(--axis-color) !important; }

/* Legend background (first child of legend group) */
g.legend > g:first-child > path:first-child {
    fill: rgba(255,255,255,0.8) !important;
    stroke: rgba(0,0,0,0.1) !important;
}
@media (prefers-color-scheme: dark) {
    g.legend > g:first-child > path:first-child {
        fill: rgba(26,26,26,0.8) !important;
        stroke: rgba(255,255,255,0.1) !important;
    }
}

/* 3‑D specific rules */
.plot3d path, .plot3d polygon {
    stroke: var(--plot3d-stroke) !important;
}
.plot3d-grid line { stroke: var(--plot3d-grid) !important; }
.plot3d-surface path[style*="fill:"] {
    fill-opacity: 0.9 !important;
}
@media (prefers-color-scheme: dark) {
    .plot3d-surface path[style*="fill:"] {
        fill-opacity: 0.95 !important;
        filter: saturate(1.2) !important;
    }
}</style>

 <metadata>
  <rdf:RDF xmlns:dc="http://purl.org/dc/elements/1.1/" xmlns:cc="http://creativecommons.org/ns#" xmlns:rdf="http://www.w3.org/1999/02/22-rdf-syntax-ns#">
   <cc:Work>
    <dc:type rdf:resource="http://purl.org/dc/dcmitype/StillImage"/>
    <dc:date>2025-05-27T21:46:03.771449</dc:date>
    <dc:format>image/svg+xml</dc:format>
    <dc:creator>
     <cc:Agent>
      <dc:title>Matplotlib v3.10.1, https://matplotlib.org/</dc:title>
     </cc:Agent>
    </dc:creator>
   </cc:Work>
  </rdf:RDF>
 </metadata>
 <defs>
  <style type="text/css">*{stroke-linejoin: round; stroke-linecap: butt}</style>
 </defs>
 <g id="figure_1">
  <g class="patch">
   <path d="M 0 364.017344 
L 488.3 364.017344 
L 488.3 0 
L 0 0 
L 0 364.017344 
z
" style="fill: none"/>
  </g>
  <g id="axes_1">
   <g class="patch">
    <path d="M 26.7 343.639219 
L 473.1 343.639219 
L 473.1 10.999219 
L 26.7 10.999219 
L 26.7 343.639219 
z
" style="fill: none"/>
   </g>
   <g class="axis">
    <g class="tick xtick">
     <g id="line2d_1">
      <path d="M 26.7 343.639219 
L 26.7 10.999219 
" clip-path="url(#p1890494b63)" style="fill: none; stroke-dasharray: 1.85,0.8; stroke-dashoffset: 0; stroke: #d3d3d3; stroke-opacity: 0.5; stroke-width: 0.5"/>
     </g>
     <g id="line2d_2">
      <defs>
       <path id="mf23928b4c3" d="M 0 0 
L 0 -6 
" style="stroke: currentColor"/>
      </defs>
      <g>
       <use xlink:href="#mf23928b4c3" x="26.7" y="343.639219" style="stroke: currentColor"/>
      </g>
     </g>
     <g id="line2d_3">
      <defs>
       <path id="m8dc15d4a17" d="M 0 0 
L 0 6 
" style="stroke: currentColor"/>
      </defs>
      <g>
       <use xlink:href="#m8dc15d4a17" x="26.7" y="10.999219" style="stroke: currentColor"/>
      </g>
     </g>
     <g id="text_1" class="text">
      <!-- $\mathdefault{0.0}$ -->
      <g transform="translate(18.7 354.737656) scale(0.1 -0.1)">
       <defs>
        <path id="DejaVuSerif-30" d="M 2034 219 
Q 2513 219 2750 744 
Q 2988 1269 2988 2328 
Q 2988 3391 2750 3916 
Q 2513 4441 2034 4441 
Q 1556 4441 1318 3916 
Q 1081 3391 1081 2328 
Q 1081 1269 1318 744 
Q 1556 219 2034 219 
z
M 2034 -91 
Q 1275 -91 848 546 
Q 422 1184 422 2328 
Q 422 3475 848 4112 
Q 1275 4750 2034 4750 
Q 2797 4750 3222 4112 
Q 3647 3475 3647 2328 
Q 3647 1184 3222 546 
Q 2797 -91 2034 -91 
z
" transform="scale(0.015625)"/>
        <path id="DejaVuSerif-2e" d="M 603 325 
Q 603 500 722 622 
Q 841 744 1019 744 
Q 1191 744 1312 622 
Q 1434 500 1434 325 
Q 1434 153 1312 31 
Q 1191 -91 1019 -91 
Q 841 -91 722 29 
Q 603 150 603 325 
z
" transform="scale(0.015625)"/>
       </defs>
       <use xlink:href="#DejaVuSerif-30" transform="translate(0 0.78125)"/>
       <use xlink:href="#DejaVuSerif-2e" transform="translate(63.623047 0.78125)"/>
       <use xlink:href="#DejaVuSerif-30" transform="translate(95.410156 0.78125)"/>
      </g>
     </g>
    </g>
    <g class="tick xtick">
     <g id="line2d_4">
      <path d="M 115.98 343.639219 
L 115.98 10.999219 
" clip-path="url(#p1890494b63)" style="fill: none; stroke-dasharray: 1.85,0.8; stroke-dashoffset: 0; stroke: #d3d3d3; stroke-opacity: 0.5; stroke-width: 0.5"/>
     </g>
     <g id="line2d_5">
      <g>
       <use xlink:href="#mf23928b4c3" x="115.98" y="343.639219" style="stroke: currentColor"/>
      </g>
     </g>
     <g id="line2d_6">
      <g>
       <use xlink:href="#m8dc15d4a17" x="115.98" y="10.999219" style="stroke: currentColor"/>
      </g>
     </g>
     <g id="text_2" class="text">
      <!-- $\mathdefault{0.2}$ -->
      <g transform="translate(108.13 354.737656) scale(0.1 -0.1)">
       <defs>
        <path id="DejaVuSerif-32" d="M 819 3553 
L 469 3553 
L 469 4384 
Q 803 4563 1142 4656 
Q 1481 4750 1806 4750 
Q 2534 4750 2956 4397 
Q 3378 4044 3378 3438 
Q 3378 2753 2422 1800 
Q 2347 1728 2309 1691 
L 1131 513 
L 3078 513 
L 3078 1088 
L 3444 1088 
L 3444 0 
L 434 0 
L 434 341 
L 1850 1753 
Q 2319 2222 2519 2614 
Q 2719 3006 2719 3438 
Q 2719 3909 2473 4175 
Q 2228 4441 1797 4441 
Q 1350 4441 1106 4219 
Q 863 3997 819 3553 
z
" transform="scale(0.015625)"/>
       </defs>
       <use xlink:href="#DejaVuSerif-30" transform="translate(0 0.78125)"/>
       <use xlink:href="#DejaVuSerif-2e" transform="translate(63.623047 0.78125)"/>
       <use xlink:href="#DejaVuSerif-32" transform="translate(92.785156 0.78125)"/>
      </g>
     </g>
    </g>
    <g class="tick xtick">
     <g id="line2d_7">
      <path d="M 205.26 343.639219 
L 205.26 10.999219 
" clip-path="url(#p1890494b63)" style="fill: none; stroke-dasharray: 1.85,0.8; stroke-dashoffset: 0; stroke: #d3d3d3; stroke-opacity: 0.5; stroke-width: 0.5"/>
     </g>
     <g id="line2d_8">
      <g>
       <use xlink:href="#mf23928b4c3" x="205.26" y="343.639219" style="stroke: currentColor"/>
      </g>
     </g>
     <g id="line2d_9">
      <g>
       <use xlink:href="#m8dc15d4a17" x="205.26" y="10.999219" style="stroke: currentColor"/>
      </g>
     </g>
     <g id="text_3" class="text">
      <!-- $\mathdefault{0.4}$ -->
      <g transform="translate(197.26 354.737656) scale(0.1 -0.1)">
       <defs>
        <path id="DejaVuSerif-34" d="M 2234 1581 
L 2234 4063 
L 641 1581 
L 2234 1581 
z
M 3609 0 
L 1484 0 
L 1484 331 
L 2234 331 
L 2234 1247 
L 197 1247 
L 197 1588 
L 2241 4750 
L 2859 4750 
L 2859 1581 
L 3750 1581 
L 3750 1247 
L 2859 1247 
L 2859 331 
L 3609 331 
L 3609 0 
z
" transform="scale(0.015625)"/>
       </defs>
       <use xlink:href="#DejaVuSerif-30" transform="translate(0 0.78125)"/>
       <use xlink:href="#DejaVuSerif-2e" transform="translate(63.623047 0.78125)"/>
       <use xlink:href="#DejaVuSerif-34" transform="translate(95.410156 0.78125)"/>
      </g>
     </g>
    </g>
    <g class="tick xtick">
     <g id="line2d_10">
      <path d="M 294.54 343.639219 
L 294.54 10.999219 
" clip-path="url(#p1890494b63)" style="fill: none; stroke-dasharray: 1.85,0.8; stroke-dashoffset: 0; stroke: #d3d3d3; stroke-opacity: 0.5; stroke-width: 0.5"/>
     </g>
     <g id="line2d_11">
      <g>
       <use xlink:href="#mf23928b4c3" x="294.54" y="343.639219" style="stroke: currentColor"/>
      </g>
     </g>
     <g id="line2d_12">
      <g>
       <use xlink:href="#m8dc15d4a17" x="294.54" y="10.999219" style="stroke: currentColor"/>
      </g>
     </g>
     <g id="text_4" class="text">
      <!-- $\mathdefault{0.6}$ -->
      <g transform="translate(286.54 354.737656) scale(0.1 -0.1)">
       <defs>
        <path id="DejaVuSerif-36" d="M 2094 219 
Q 2534 219 2771 542 
Q 3009 866 3009 1472 
Q 3009 2078 2771 2401 
Q 2534 2725 2094 2725 
Q 1647 2725 1412 2412 
Q 1178 2100 1178 1509 
Q 1178 888 1415 553 
Q 1653 219 2094 219 
z
M 1075 2569 
Q 1288 2803 1556 2918 
Q 1825 3034 2163 3034 
Q 2859 3034 3264 2615 
Q 3669 2197 3669 1472 
Q 3669 763 3233 336 
Q 2797 -91 2069 -91 
Q 1278 -91 853 498 
Q 428 1088 428 2181 
Q 428 3406 931 4078 
Q 1434 4750 2350 4750 
Q 2597 4750 2869 4703 
Q 3141 4656 3425 4563 
L 3425 3794 
L 3072 3794 
Q 3034 4109 2831 4275 
Q 2628 4441 2284 4441 
Q 1678 4441 1381 3981 
Q 1084 3522 1075 2569 
z
" transform="scale(0.015625)"/>
       </defs>
       <use xlink:href="#DejaVuSerif-30" transform="translate(0 0.78125)"/>
       <use xlink:href="#DejaVuSerif-2e" transform="translate(63.623047 0.78125)"/>
       <use xlink:href="#DejaVuSerif-36" transform="translate(95.410156 0.78125)"/>
      </g>
     </g>
    </g>
    <g class="tick xtick">
     <g id="line2d_13">
      <path d="M 383.82 343.639219 
L 383.82 10.999219 
" clip-path="url(#p1890494b63)" style="fill: none; stroke-dasharray: 1.85,0.8; stroke-dashoffset: 0; stroke: #d3d3d3; stroke-opacity: 0.5; stroke-width: 0.5"/>
     </g>
     <g id="line2d_14">
      <g>
       <use xlink:href="#mf23928b4c3" x="383.82" y="343.639219" style="stroke: currentColor"/>
      </g>
     </g>
     <g id="line2d_15">
      <g>
       <use xlink:href="#m8dc15d4a17" x="383.82" y="10.999219" style="stroke: currentColor"/>
      </g>
     </g>
     <g id="text_5" class="text">
      <!-- $\mathdefault{0.8}$ -->
      <g transform="translate(376.02 354.737656) scale(0.1 -0.1)">
       <defs>
        <path id="DejaVuSerif-38" d="M 2981 1275 
Q 2981 1775 2732 2051 
Q 2484 2328 2034 2328 
Q 1584 2328 1336 2051 
Q 1088 1775 1088 1275 
Q 1088 772 1336 495 
Q 1584 219 2034 219 
Q 2484 219 2732 495 
Q 2981 772 2981 1275 
z
M 2853 3541 
Q 2853 3966 2637 4203 
Q 2422 4441 2034 4441 
Q 1650 4441 1433 4203 
Q 1216 3966 1216 3541 
Q 1216 3113 1433 2875 
Q 1650 2638 2034 2638 
Q 2422 2638 2637 2875 
Q 2853 3113 2853 3541 
z
M 2516 2484 
Q 3047 2413 3344 2092 
Q 3641 1772 3641 1275 
Q 3641 619 3225 264 
Q 2809 -91 2034 -91 
Q 1263 -91 845 264 
Q 428 619 428 1275 
Q 428 1772 725 2092 
Q 1022 2413 1556 2484 
Q 1084 2569 832 2842 
Q 581 3116 581 3541 
Q 581 4103 968 4426 
Q 1356 4750 2034 4750 
Q 2713 4750 3100 4426 
Q 3488 4103 3488 3541 
Q 3488 3116 3236 2842 
Q 2984 2569 2516 2484 
z
" transform="scale(0.015625)"/>
       </defs>
       <use xlink:href="#DejaVuSerif-30" transform="translate(0 0.78125)"/>
       <use xlink:href="#DejaVuSerif-2e" transform="translate(63.623047 0.78125)"/>
       <use xlink:href="#DejaVuSerif-38" transform="translate(91.785156 0.78125)"/>
      </g>
     </g>
    </g>
    <g class="tick xtick">
     <g id="line2d_16">
      <path d="M 473.1 343.639219 
L 473.1 10.999219 
" clip-path="url(#p1890494b63)" style="fill: none; stroke-dasharray: 1.85,0.8; stroke-dashoffset: 0; stroke: #d3d3d3; stroke-opacity: 0.5; stroke-width: 0.5"/>
     </g>
     <g id="line2d_17">
      <g>
       <use xlink:href="#mf23928b4c3" x="473.1" y="343.639219" style="stroke: currentColor"/>
      </g>
     </g>
     <g id="line2d_18">
      <g>
       <use xlink:href="#m8dc15d4a17" x="473.1" y="10.999219" style="stroke: currentColor"/>
      </g>
     </g>
     <g id="text_6" class="text">
      <!-- $\mathdefault{1.0}$ -->
      <g transform="translate(465.1 354.737656) scale(0.1 -0.1)">
       <defs>
        <path id="DejaVuSerif-31" d="M 909 0 
L 909 331 
L 1722 331 
L 1722 4213 
L 781 3603 
L 781 4013 
L 1919 4750 
L 2350 4750 
L 2350 331 
L 3163 331 
L 3163 0 
L 909 0 
z
" transform="scale(0.015625)"/>
       </defs>
       <use xlink:href="#DejaVuSerif-31" transform="translate(0 0.78125)"/>
       <use xlink:href="#DejaVuSerif-2e" transform="translate(63.623047 0.78125)"/>
       <use xlink:href="#DejaVuSerif-30" transform="translate(95.410156 0.78125)"/>
      </g>
     </g>
    </g>
    <g class="tick xtick">
     <g id="line2d_19">
      <defs>
       <path id="m8d4edd8c94" d="M 0 0 
L 0 -3 
" style="stroke: currentColor; stroke-width: 0.8"/>
      </defs>
      <g>
       <use xlink:href="#m8d4edd8c94" x="49.02" y="343.639219" style="stroke: currentColor; stroke-width: 0.8"/>
      </g>
     </g>
     <g id="line2d_20">
      <defs>
       <path id="m55c2731e65" d="M 0 0 
L 0 3 
" style="stroke: currentColor; stroke-width: 0.8"/>
      </defs>
      <g>
       <use xlink:href="#m55c2731e65" x="49.02" y="10.999219" style="stroke: currentColor; stroke-width: 0.8"/>
      </g>
     </g>
    </g>
    <g class="tick xtick">
     <g id="line2d_21">
      <g>
       <use xlink:href="#m8d4edd8c94" x="71.34" y="343.639219" style="stroke: currentColor; stroke-width: 0.8"/>
      </g>
     </g>
     <g id="line2d_22">
      <g>
       <use xlink:href="#m55c2731e65" x="71.34" y="10.999219" style="stroke: currentColor; stroke-width: 0.8"/>
      </g>
     </g>
    </g>
    <g class="tick xtick">
     <g id="line2d_23">
      <g>
       <use xlink:href="#m8d4edd8c94" x="93.66" y="343.639219" style="stroke: currentColor; stroke-width: 0.8"/>
      </g>
     </g>
     <g id="line2d_24">
      <g>
       <use xlink:href="#m55c2731e65" x="93.66" y="10.999219" style="stroke: currentColor; stroke-width: 0.8"/>
      </g>
     </g>
    </g>
    <g class="tick xtick">
     <g id="line2d_25">
      <g>
       <use xlink:href="#m8d4edd8c94" x="138.3" y="343.639219" style="stroke: currentColor; stroke-width: 0.8"/>
      </g>
     </g>
     <g id="line2d_26">
      <g>
       <use xlink:href="#m55c2731e65" x="138.3" y="10.999219" style="stroke: currentColor; stroke-width: 0.8"/>
      </g>
     </g>
    </g>
    <g class="tick xtick">
     <g id="line2d_27">
      <g>
       <use xlink:href="#m8d4edd8c94" x="160.62" y="343.639219" style="stroke: currentColor; stroke-width: 0.8"/>
      </g>
     </g>
     <g id="line2d_28">
      <g>
       <use xlink:href="#m55c2731e65" x="160.62" y="10.999219" style="stroke: currentColor; stroke-width: 0.8"/>
      </g>
     </g>
    </g>
    <g class="tick xtick">
     <g id="line2d_29">
      <g>
       <use xlink:href="#m8d4edd8c94" x="182.94" y="343.639219" style="stroke: currentColor; stroke-width: 0.8"/>
      </g>
     </g>
     <g id="line2d_30">
      <g>
       <use xlink:href="#m55c2731e65" x="182.94" y="10.999219" style="stroke: currentColor; stroke-width: 0.8"/>
      </g>
     </g>
    </g>
    <g class="tick xtick">
     <g id="line2d_31">
      <g>
       <use xlink:href="#m8d4edd8c94" x="227.58" y="343.639219" style="stroke: currentColor; stroke-width: 0.8"/>
      </g>
     </g>
     <g id="line2d_32">
      <g>
       <use xlink:href="#m55c2731e65" x="227.58" y="10.999219" style="stroke: currentColor; stroke-width: 0.8"/>
      </g>
     </g>
    </g>
    <g class="tick xtick">
     <g id="line2d_33">
      <g>
       <use xlink:href="#m8d4edd8c94" x="249.9" y="343.639219" style="stroke: currentColor; stroke-width: 0.8"/>
      </g>
     </g>
     <g id="line2d_34">
      <g>
       <use xlink:href="#m55c2731e65" x="249.9" y="10.999219" style="stroke: currentColor; stroke-width: 0.8"/>
      </g>
     </g>
    </g>
    <g class="tick xtick">
     <g id="line2d_35">
      <g>
       <use xlink:href="#m8d4edd8c94" x="272.22" y="343.639219" style="stroke: currentColor; stroke-width: 0.8"/>
      </g>
     </g>
     <g id="line2d_36">
      <g>
       <use xlink:href="#m55c2731e65" x="272.22" y="10.999219" style="stroke: currentColor; stroke-width: 0.8"/>
      </g>
     </g>
    </g>
    <g class="tick xtick">
     <g id="line2d_37">
      <g>
       <use xlink:href="#m8d4edd8c94" x="316.86" y="343.639219" style="stroke: currentColor; stroke-width: 0.8"/>
      </g>
     </g>
     <g id="line2d_38">
      <g>
       <use xlink:href="#m55c2731e65" x="316.86" y="10.999219" style="stroke: currentColor; stroke-width: 0.8"/>
      </g>
     </g>
    </g>
    <g class="tick xtick">
     <g id="line2d_39">
      <g>
       <use xlink:href="#m8d4edd8c94" x="339.18" y="343.639219" style="stroke: currentColor; stroke-width: 0.8"/>
      </g>
     </g>
     <g id="line2d_40">
      <g>
       <use xlink:href="#m55c2731e65" x="339.18" y="10.999219" style="stroke: currentColor; stroke-width: 0.8"/>
      </g>
     </g>
    </g>
    <g class="tick xtick">
     <g id="line2d_41">
      <g>
       <use xlink:href="#m8d4edd8c94" x="361.5" y="343.639219" style="stroke: currentColor; stroke-width: 0.8"/>
      </g>
     </g>
     <g id="line2d_42">
      <g>
       <use xlink:href="#m55c2731e65" x="361.5" y="10.999219" style="stroke: currentColor; stroke-width: 0.8"/>
      </g>
     </g>
    </g>
    <g class="tick xtick">
     <g id="line2d_43">
      <g>
       <use xlink:href="#m8d4edd8c94" x="406.14" y="343.639219" style="stroke: currentColor; stroke-width: 0.8"/>
      </g>
     </g>
     <g id="line2d_44">
      <g>
       <use xlink:href="#m55c2731e65" x="406.14" y="10.999219" style="stroke: currentColor; stroke-width: 0.8"/>
      </g>
     </g>
    </g>
    <g class="tick xtick">
     <g id="line2d_45">
      <g>
       <use xlink:href="#m8d4edd8c94" x="428.46" y="343.639219" style="stroke: currentColor; stroke-width: 0.8"/>
      </g>
     </g>
     <g id="line2d_46">
      <g>
       <use xlink:href="#m55c2731e65" x="428.46" y="10.999219" style="stroke: currentColor; stroke-width: 0.8"/>
      </g>
     </g>
    </g>
    <g class="tick xtick">
     <g id="line2d_47">
      <g>
       <use xlink:href="#m8d4edd8c94" x="450.78" y="343.639219" style="stroke: currentColor; stroke-width: 0.8"/>
      </g>
     </g>
     <g id="line2d_48">
      <g>
       <use xlink:href="#m55c2731e65" x="450.78" y="10.999219" style="stroke: currentColor; stroke-width: 0.8"/>
      </g>
     </g>
    </g>
   </g>
   <g class="axis">
    <g class="tick ytick">
     <g id="line2d_49">
      <path d="M 26.7 343.639219 
L 473.1 343.639219 
" clip-path="url(#p1890494b63)" style="fill: none; stroke-dasharray: 1.85,0.8; stroke-dashoffset: 0; stroke: #d3d3d3; stroke-opacity: 0.5; stroke-width: 0.5"/>
     </g>
     <g id="line2d_50">
      <defs>
       <path id="m26441e09e4" d="M 0 0 
L 6 0 
" style="stroke: currentColor"/>
      </defs>
      <g>
       <use xlink:href="#m26441e09e4" x="26.7" y="343.639219" style="stroke: currentColor"/>
      </g>
     </g>
     <g id="line2d_51">
      <defs>
       <path id="m41cf2d2274" d="M 0 0 
L -6 0 
" style="stroke: currentColor"/>
      </defs>
      <g>
       <use xlink:href="#m41cf2d2274" x="473.1" y="343.639219" style="stroke: currentColor"/>
      </g>
     </g>
     <g id="text_7" class="text">
      <!-- $\mathdefault{0.0}$ -->
      <g transform="translate(7.2 347.438438) scale(0.1 -0.1)">
       <use xlink:href="#DejaVuSerif-30" transform="translate(0 0.78125)"/>
       <use xlink:href="#DejaVuSerif-2e" transform="translate(63.623047 0.78125)"/>
       <use xlink:href="#DejaVuSerif-30" transform="translate(95.410156 0.78125)"/>
      </g>
     </g>
    </g>
    <g class="tick ytick">
     <g id="line2d_52">
      <path d="M 26.7 277.111219 
L 473.1 277.111219 
" clip-path="url(#p1890494b63)" style="fill: none; stroke-dasharray: 1.85,0.8; stroke-dashoffset: 0; stroke: #d3d3d3; stroke-opacity: 0.5; stroke-width: 0.5"/>
     </g>
     <g id="line2d_53">
      <g>
       <use xlink:href="#m26441e09e4" x="26.7" y="277.111219" style="stroke: currentColor"/>
      </g>
     </g>
     <g id="line2d_54">
      <g>
       <use xlink:href="#m41cf2d2274" x="473.1" y="277.111219" style="stroke: currentColor"/>
      </g>
     </g>
     <g id="text_8" class="text">
      <!-- $\mathdefault{0.2}$ -->
      <g transform="translate(7.5 280.910438) scale(0.1 -0.1)">
       <use xlink:href="#DejaVuSerif-30" transform="translate(0 0.78125)"/>
       <use xlink:href="#DejaVuSerif-2e" transform="translate(63.623047 0.78125)"/>
       <use xlink:href="#DejaVuSerif-32" transform="translate(92.785156 0.78125)"/>
      </g>
     </g>
    </g>
    <g class="tick ytick">
     <g id="line2d_55">
      <path d="M 26.7 210.583219 
L 473.1 210.583219 
" clip-path="url(#p1890494b63)" style="fill: none; stroke-dasharray: 1.85,0.8; stroke-dashoffset: 0; stroke: #d3d3d3; stroke-opacity: 0.5; stroke-width: 0.5"/>
     </g>
     <g id="line2d_56">
      <g>
       <use xlink:href="#m26441e09e4" x="26.7" y="210.583219" style="stroke: currentColor"/>
      </g>
     </g>
     <g id="line2d_57">
      <g>
       <use xlink:href="#m41cf2d2274" x="473.1" y="210.583219" style="stroke: currentColor"/>
      </g>
     </g>
     <g id="text_9" class="text">
      <!-- $\mathdefault{0.4}$ -->
      <g transform="translate(7.2 214.382437) scale(0.1 -0.1)">
       <use xlink:href="#DejaVuSerif-30" transform="translate(0 0.78125)"/>
       <use xlink:href="#DejaVuSerif-2e" transform="translate(63.623047 0.78125)"/>
       <use xlink:href="#DejaVuSerif-34" transform="translate(95.410156 0.78125)"/>
      </g>
     </g>
    </g>
    <g class="tick ytick">
     <g id="line2d_58">
      <path d="M 26.7 144.055219 
L 473.1 144.055219 
" clip-path="url(#p1890494b63)" style="fill: none; stroke-dasharray: 1.85,0.8; stroke-dashoffset: 0; stroke: #d3d3d3; stroke-opacity: 0.5; stroke-width: 0.5"/>
     </g>
     <g id="line2d_59">
      <g>
       <use xlink:href="#m26441e09e4" x="26.7" y="144.055219" style="stroke: currentColor"/>
      </g>
     </g>
     <g id="line2d_60">
      <g>
       <use xlink:href="#m41cf2d2274" x="473.1" y="144.055219" style="stroke: currentColor"/>
      </g>
     </g>
     <g id="text_10" class="text">
      <!-- $\mathdefault{0.6}$ -->
      <g transform="translate(7.2 147.854437) scale(0.1 -0.1)">
       <use xlink:href="#DejaVuSerif-30" transform="translate(0 0.78125)"/>
       <use xlink:href="#DejaVuSerif-2e" transform="translate(63.623047 0.78125)"/>
       <use xlink:href="#DejaVuSerif-36" transform="translate(95.410156 0.78125)"/>
      </g>
     </g>
    </g>
    <g class="tick ytick">
     <g id="line2d_61">
      <path d="M 26.7 77.527219 
L 473.1 77.527219 
" clip-path="url(#p1890494b63)" style="fill: none; stroke-dasharray: 1.85,0.8; stroke-dashoffset: 0; stroke: #d3d3d3; stroke-opacity: 0.5; stroke-width: 0.5"/>
     </g>
     <g id="line2d_62">
      <g>
       <use xlink:href="#m26441e09e4" x="26.7" y="77.527219" style="stroke: currentColor"/>
      </g>
     </g>
     <g id="line2d_63">
      <g>
       <use xlink:href="#m41cf2d2274" x="473.1" y="77.527219" style="stroke: currentColor"/>
      </g>
     </g>
     <g id="text_11" class="text">
      <!-- $\mathdefault{0.8}$ -->
      <g transform="translate(7.6 81.326437) scale(0.1 -0.1)">
       <use xlink:href="#DejaVuSerif-30" transform="translate(0 0.78125)"/>
       <use xlink:href="#DejaVuSerif-2e" transform="translate(63.623047 0.78125)"/>
       <use xlink:href="#DejaVuSerif-38" transform="translate(91.785156 0.78125)"/>
      </g>
     </g>
    </g>
    <g class="tick ytick">
     <g id="line2d_64">
      <path d="M 26.7 10.999219 
L 473.1 10.999219 
" clip-path="url(#p1890494b63)" style="fill: none; stroke-dasharray: 1.85,0.8; stroke-dashoffset: 0; stroke: #d3d3d3; stroke-opacity: 0.5; stroke-width: 0.5"/>
     </g>
     <g id="line2d_65">
      <g>
       <use xlink:href="#m26441e09e4" x="26.7" y="10.999219" style="stroke: currentColor"/>
      </g>
     </g>
     <g id="line2d_66">
      <g>
       <use xlink:href="#m41cf2d2274" x="473.1" y="10.999219" style="stroke: currentColor"/>
      </g>
     </g>
     <g id="text_12" class="text">
      <!-- $\mathdefault{1.0}$ -->
      <g transform="translate(7.2 14.798437) scale(0.1 -0.1)">
       <use xlink:href="#DejaVuSerif-31" transform="translate(0 0.78125)"/>
       <use xlink:href="#DejaVuSerif-2e" transform="translate(63.623047 0.78125)"/>
       <use xlink:href="#DejaVuSerif-30" transform="translate(95.410156 0.78125)"/>
      </g>
     </g>
    </g>
    <g class="tick ytick">
     <g id="line2d_67">
      <defs>
       <path id="m63ab2d9ff6" d="M 0 0 
L 3 0 
" style="stroke: currentColor; stroke-width: 0.8"/>
      </defs>
      <g>
       <use xlink:href="#m63ab2d9ff6" x="26.7" y="327.007219" style="stroke: currentColor; stroke-width: 0.8"/>
      </g>
     </g>
     <g id="line2d_68">
      <defs>
       <path id="m8e97ffc965" d="M 0 0 
L -3 0 
" style="stroke: currentColor; stroke-width: 0.8"/>
      </defs>
      <g>
       <use xlink:href="#m8e97ffc965" x="473.1" y="327.007219" style="stroke: currentColor; stroke-width: 0.8"/>
      </g>
     </g>
    </g>
    <g class="tick ytick">
     <g id="line2d_69">
      <g>
       <use xlink:href="#m63ab2d9ff6" x="26.7" y="310.375219" style="stroke: currentColor; stroke-width: 0.8"/>
      </g>
     </g>
     <g id="line2d_70">
      <g>
       <use xlink:href="#m8e97ffc965" x="473.1" y="310.375219" style="stroke: currentColor; stroke-width: 0.8"/>
      </g>
     </g>
    </g>
    <g class="tick ytick">
     <g id="line2d_71">
      <g>
       <use xlink:href="#m63ab2d9ff6" x="26.7" y="293.743219" style="stroke: currentColor; stroke-width: 0.8"/>
      </g>
     </g>
     <g id="line2d_72">
      <g>
       <use xlink:href="#m8e97ffc965" x="473.1" y="293.743219" style="stroke: currentColor; stroke-width: 0.8"/>
      </g>
     </g>
    </g>
    <g class="tick ytick">
     <g id="line2d_73">
      <g>
       <use xlink:href="#m63ab2d9ff6" x="26.7" y="260.479219" style="stroke: currentColor; stroke-width: 0.8"/>
      </g>
     </g>
     <g id="line2d_74">
      <g>
       <use xlink:href="#m8e97ffc965" x="473.1" y="260.479219" style="stroke: currentColor; stroke-width: 0.8"/>
      </g>
     </g>
    </g>
    <g class="tick ytick">
     <g id="line2d_75">
      <g>
       <use xlink:href="#m63ab2d9ff6" x="26.7" y="243.847219" style="stroke: currentColor; stroke-width: 0.8"/>
      </g>
     </g>
     <g id="line2d_76">
      <g>
       <use xlink:href="#m8e97ffc965" x="473.1" y="243.847219" style="stroke: currentColor; stroke-width: 0.8"/>
      </g>
     </g>
    </g>
    <g class="tick ytick">
     <g id="line2d_77">
      <g>
       <use xlink:href="#m63ab2d9ff6" x="26.7" y="227.215219" style="stroke: currentColor; stroke-width: 0.8"/>
      </g>
     </g>
     <g id="line2d_78">
      <g>
       <use xlink:href="#m8e97ffc965" x="473.1" y="227.215219" style="stroke: currentColor; stroke-width: 0.8"/>
      </g>
     </g>
    </g>
    <g class="tick ytick">
     <g id="line2d_79">
      <g>
       <use xlink:href="#m63ab2d9ff6" x="26.7" y="193.951219" style="stroke: currentColor; stroke-width: 0.8"/>
      </g>
     </g>
     <g id="line2d_80">
      <g>
       <use xlink:href="#m8e97ffc965" x="473.1" y="193.951219" style="stroke: currentColor; stroke-width: 0.8"/>
      </g>
     </g>
    </g>
    <g class="tick ytick">
     <g id="line2d_81">
      <g>
       <use xlink:href="#m63ab2d9ff6" x="26.7" y="177.319219" style="stroke: currentColor; stroke-width: 0.8"/>
      </g>
     </g>
     <g id="line2d_82">
      <g>
       <use xlink:href="#m8e97ffc965" x="473.1" y="177.319219" style="stroke: currentColor; stroke-width: 0.8"/>
      </g>
     </g>
    </g>
    <g class="tick ytick">
     <g id="line2d_83">
      <g>
       <use xlink:href="#m63ab2d9ff6" x="26.7" y="160.687219" style="stroke: currentColor; stroke-width: 0.8"/>
      </g>
     </g>
     <g id="line2d_84">
      <g>
       <use xlink:href="#m8e97ffc965" x="473.1" y="160.687219" style="stroke: currentColor; stroke-width: 0.8"/>
      </g>
     </g>
    </g>
    <g class="tick ytick">
     <g id="line2d_85">
      <g>
       <use xlink:href="#m63ab2d9ff6" x="26.7" y="127.423219" style="stroke: currentColor; stroke-width: 0.8"/>
      </g>
     </g>
     <g id="line2d_86">
      <g>
       <use xlink:href="#m8e97ffc965" x="473.1" y="127.423219" style="stroke: currentColor; stroke-width: 0.8"/>
      </g>
     </g>
    </g>
    <g class="tick ytick">
     <g id="line2d_87">
      <g>
       <use xlink:href="#m63ab2d9ff6" x="26.7" y="110.791219" style="stroke: currentColor; stroke-width: 0.8"/>
      </g>
     </g>
     <g id="line2d_88">
      <g>
       <use xlink:href="#m8e97ffc965" x="473.1" y="110.791219" style="stroke: currentColor; stroke-width: 0.8"/>
      </g>
     </g>
    </g>
    <g class="tick ytick">
     <g id="line2d_89">
      <g>
       <use xlink:href="#m63ab2d9ff6" x="26.7" y="94.159219" style="stroke: currentColor; stroke-width: 0.8"/>
      </g>
     </g>
     <g id="line2d_90">
      <g>
       <use xlink:href="#m8e97ffc965" x="473.1" y="94.159219" style="stroke: currentColor; stroke-width: 0.8"/>
      </g>
     </g>
    </g>
    <g class="tick ytick">
     <g id="line2d_91">
      <g>
       <use xlink:href="#m63ab2d9ff6" x="26.7" y="60.895219" style="stroke: currentColor; stroke-width: 0.8"/>
      </g>
     </g>
     <g id="line2d_92">
      <g>
       <use xlink:href="#m8e97ffc965" x="473.1" y="60.895219" style="stroke: currentColor; stroke-width: 0.8"/>
      </g>
     </g>
    </g>
    <g class="tick ytick">
     <g id="line2d_93">
      <g>
       <use xlink:href="#m63ab2d9ff6" x="26.7" y="44.263219" style="stroke: currentColor; stroke-width: 0.8"/>
      </g>
     </g>
     <g id="line2d_94">
      <g>
       <use xlink:href="#m8e97ffc965" x="473.1" y="44.263219" style="stroke: currentColor; stroke-width: 0.8"/>
      </g>
     </g>
    </g>
    <g class="tick ytick">
     <g id="line2d_95">
      <g>
       <use xlink:href="#m63ab2d9ff6" x="26.7" y="27.631219" style="stroke: currentColor; stroke-width: 0.8"/>
      </g>
     </g>
     <g id="line2d_96">
      <g>
       <use xlink:href="#m8e97ffc965" x="473.1" y="27.631219" style="stroke: currentColor; stroke-width: 0.8"/>
      </g>
     </g>
    </g>
   </g>
   <g class="patch">
    <path d="M 26.7 343.639219 
L 26.7 10.999219 
" style="fill: none; stroke: currentColor; stroke-linejoin: miter; stroke-linecap: square"/>
   </g>
   <g class="patch">
    <path d="M 473.1 343.639219 
L 473.1 10.999219 
" style="fill: none; stroke: currentColor; stroke-linejoin: miter; stroke-linecap: square"/>
   </g>
   <g class="patch">
    <path d="M 26.7 343.639219 
L 473.1 343.639219 
" style="fill: none; stroke: currentColor; stroke-linejoin: miter; stroke-linecap: square"/>
   </g>
   <g class="patch">
    <path d="M 26.7 10.999219 
L 473.1 10.999219 
" style="fill: none; stroke: currentColor; stroke-linejoin: miter; stroke-linecap: square"/>
   </g>
  </g>
 </g>
 <defs>
  <clipPath id="p1890494b63">
   <rect x="26.7" y="10.999219" width="446.4" height="332.64"/>
  </clipPath>
 </defs>
</svg>
