<?xml version="1.0" encoding="utf-8" standalone="no"?>
<!DOCTYPE svg PUBLIC "-//W3C//DTD SVG 1.1//EN"
  "http://www.w3.org/Graphics/SVG/1.1/DTD/svg11.dtd">
<svg xmlns:xlink="http://www.w3.org/1999/xlink" width="273.312pt" height="283.943833pt" viewBox="0 0 273.312 283.943833" xmlns="http://www.w3.org/2000/svg" version="1.1">
<style>:root { --axis-color:#000; --grid-stroke:rgba(0,0,0,0.2); --plot3d-stroke:rgba(0,0,0,0.3); --plot3d-grid:rgba(0,0,0,0.2); }
@media (prefers-color-scheme:dark) { :root { --axis-color:#fff; --grid-stroke:rgba(255,255,255,0.2); --plot3d-stroke:rgba(255,255,255,0.3); --plot3d-grid:rgba(255,255,255,0.2); } }
.black{fill:#000000;stroke:#000000;}:root{--black:#000000;}.c1{fill:#FF0001;stroke:#FF0001;}:root{--c1:#FF0001;}.c2{fill:#00FF02;stroke:#00FF02;}:root{--c2:#00FF02;}.c3{fill:#0000FF;stroke:#0000FF;}:root{--c3:#0000FF;}.c4{fill:#FF00FF;stroke:#FF00FF;}:root{--c4:#FF00FF;}.c5{fill:#00FFFF;stroke:#00FFFF;}:root{--c5:#00FFFF;}.c6{fill:#FFFF00;stroke:#FFFF00;}:root{--c6:#FFFF00;}.c7{fill:#FF8000;stroke:#FF8000;}:root{--c7:#FF8000;}.c8{fill:#8000FF;stroke:#8000FF;}:root{--c8:#8000FF;}.gray{fill:#7f7f7f;stroke:#7f7f7f;}:root{--gray:#7f7f7f;}.grey{fill:#7f7f7f;stroke:#7f7f7f;}:root{--grey:#7f7f7f;}.octonary{fill:#bcbd22;stroke:#bcbd22;}:root{--octonary:#bcbd22;}.primary{fill:#d62728;stroke:#d62728;}:root{--primary:#d62728;}.quaternary{fill:#9467bd;stroke:#9467bd;}:root{--quaternary:#9467bd;}.quinary{fill:#8c564b;stroke:#8c564b;}:root{--quinary:#8c564b;}.secondary{fill:#2ca02c;stroke:#2ca02c;}:root{--secondary:#2ca02c;}.senary{fill:#e377c2;stroke:#e377c2;}:root{--senary:#e377c2;}.septenary{fill:#7f7f7f;stroke:#7f7f7f;}:root{--septenary:#7f7f7f;}.tertiary{fill:#1f77b4;stroke:#1f77b4;}:root{--tertiary:#1f77b4;}.white{fill:#ffffff;stroke:#ffffff;}:root{--white:#ffffff;}
@media (prefers-color-scheme:dark) { .black{fill:#FFFFFF;stroke:#FFFFFF;}:root{--black:#FFFFFF;}.c1{fill:#FF0001;stroke:#FF0001;}:root{--c1:#FF0001;}.c2{fill:#00FF02;stroke:#00FF02;}:root{--c2:#00FF02;}.c3{fill:#0000FF;stroke:#0000FF;}:root{--c3:#0000FF;}.c4{fill:#FF00FF;stroke:#FF00FF;}:root{--c4:#FF00FF;}.c5{fill:#00FFFF;stroke:#00FFFF;}:root{--c5:#00FFFF;}.c6{fill:#FFFF00;stroke:#FFFF00;}:root{--c6:#FFFF00;}.c7{fill:#FF8000;stroke:#FF8000;}:root{--c7:#FF8000;}.c8{fill:#8000FF;stroke:#8000FF;}:root{--c8:#8000FF;}.gray{fill:#CCCCCC;stroke:#CCCCCC;}:root{--gray:#CCCCCC;}.grey{fill:#CCCCCC;stroke:#CCCCCC;}:root{--grey:#CCCCCC;}.octonary{fill:#E6DB74;stroke:#E6DB74;}:root{--octonary:#E6DB74;}.primary{fill:#FF4A98;stroke:#FF4A98;}:root{--primary:#FF4A98;}.quaternary{fill:#B4A0FF;stroke:#B4A0FF;}:root{--quaternary:#B4A0FF;}.quinary{fill:#FFB86B;stroke:#FFB86B;}:root{--quinary:#FFB86B;}.secondary{fill:#0AFAFA;stroke:#0AFAFA;}:root{--secondary:#0AFAFA;}.senary{fill:#FF79C6;stroke:#FF79C6;}:root{--senary:#FF79C6;}.septenary{fill:#CCCCCC;stroke:#CCCCCC;}:root{--septenary:#CCCCCC;}.tertiary{fill:#7F83FF;stroke:#7F83FF;}:root{--tertiary:#7F83FF;}.white{fill:#000000;stroke:#000000;}:root{--white:#000000;} }
text,.text { fill:var(--axis-color)!important; stroke:none!important; }
.axis line,.axis path,.tick line,.tick path,path.domain,line.grid { stroke:var(--axis-color)!important; }
.legend text { fill:var(--axis-color)!important; }
.patch path[style*="stroke: currentColor"] { stroke:var(--axis-color)!important; }
g.legend>g:first-child>path:first-child { fill:rgba(255,255,255,0.8)!important; stroke:rgba(0,0,0,0.1)!important; }
@media (prefers-color-scheme:dark) { g.legend>g:first-child>path:first-child { fill:rgba(26,26,26,0.8)!important; stroke:rgba(255,255,255,0.1)!important; } }
.plot3d path,.plot3d polygon { stroke:var(--plot3d-stroke)!important; }
.plot3d-grid line { stroke:var(--plot3d-grid)!important; }
.plot3d-surface path[style*="fill:"] { fill-opacity:0.9!important; }
@media (prefers-color-scheme:dark) { .plot3d-surface path[style*="fill:"] { fill-opacity:0.95!important; filter:saturate(1.2)!important; } }</style>

 <metadata>
  <rdf:RDF xmlns:dc="http://purl.org/dc/elements/1.1/" xmlns:cc="http://creativecommons.org/ns#" xmlns:rdf="http://www.w3.org/1999/02/22-rdf-syntax-ns#">
   <cc:Work>
    <dc:type rdf:resource="http://purl.org/dc/dcmitype/StillImage"/>
    <dc:date>2026-01-03T22:18:57.344409</dc:date>
    <dc:format>image/svg+xml</dc:format>
    <dc:creator>
     <cc:Agent>
      <dc:title>Matplotlib v3.10.0, https://matplotlib.org/</dc:title>
     </cc:Agent>
    </dc:creator>
   </cc:Work>
  </rdf:RDF>
 </metadata>
 <defs>
  <style type="text/css">*{stroke-linejoin: round; stroke-linecap: butt}</style>
 </defs>
 <g id="figure_1">
  <g class="patch">
   <path d="M 0 283.943833 
L 273.312 283.943833 
L 273.312 0 
L 0 0 
L 0 283.943833 
z
" style="fill: none"/>
  </g>
  <g class="patch">
   <path d="M 3.6 269.712 
L 269.712 269.712 
L 269.712 3.6 
L 3.6 3.6 
L 3.6 269.712 
z
" style="fill: none"/>
  </g>
  <g id="pane3d_1">
   <g class="patch">
    <path d="M 33.232607 215.245431 
L 113.742091 146.3149 
L 112.33652 14.919704 
L 27.068128 76.467902 
" style="fill: #f2f2f2; opacity: 0.5; stroke: #f2f2f2; stroke-linejoin: miter"/>
   </g>
  </g>
  <g id="pane3d_2">
   <g class="patch">
    <path d="M 113.742091 146.3149 
L 243.699674 184.783675 
L 249.448471 49.202633 
L 112.33652 14.919704 
" style="fill: #e6e6e6; opacity: 0.5; stroke: #e6e6e6; stroke-linejoin: miter"/>
   </g>
  </g>
  <g id="pane3d_3">
   <g class="patch">
    <path d="M 33.232607 215.245431 
L 170.347415 260.424759 
L 243.699674 184.783675 
L 113.742091 146.3149 
" style="fill: #ececec; opacity: 0.5; stroke: #ececec; stroke-linejoin: miter"/>
   </g>
  </g>
  <g id="grid3d_1" class="plot3d-grid">
   <g class="plot3d">
    <path d="M 49.024323 220.448802 
L 128.758992 150.760057 
L 128.146241 18.872704 
" style="fill: none; stroke: #b0b0b0; stroke-width: 0.5"/>
    <path d="M 68.642726 226.913065 
L 147.396829 156.277047 
L 147.780357 23.781941 
" style="fill: none; stroke: #b0b0b0; stroke-width: 0.5"/>
    <path d="M 88.539419 233.469025 
L 166.278711 161.866278 
L 167.68546 28.758934 
" style="fill: none; stroke: #b0b0b0; stroke-width: 0.5"/>
    <path d="M 108.720367 240.118647 
L 185.409464 167.529176 
L 187.867199 33.805096 
" style="fill: none; stroke: #b0b0b0; stroke-width: 0.5"/>
    <path d="M 129.191705 246.863953 
L 204.79404 173.267209 
L 208.331381 38.921879 
" style="fill: none; stroke: #b0b0b0; stroke-width: 0.5"/>
    <path d="M 149.959746 253.707022 
L 224.437524 179.081882 
L 229.083978 44.110776 
" style="fill: none; stroke: #b0b0b0; stroke-width: 0.5"/>
   </g>
  </g>
  <g id="grid3d_2" class="plot3d-grid">
   <g class="plot3d">
    <path d="M 38.087362 68.514028 
L 43.597583 206.371156 
L 179.8217 250.654846 
" style="fill: none; stroke: #b0b0b0; stroke-width: 0.5"/>
    <path d="M 51.298532 58.977978 
L 56.039664 195.718508 
L 191.182566 238.939484 
" style="fill: none; stroke: #b0b0b0; stroke-width: 0.5"/>
    <path d="M 64.184784 49.676458 
L 68.191864 185.314049 
L 202.266089 227.510121 
" style="fill: none; stroke: #b0b0b0; stroke-width: 0.5"/>
    <path d="M 76.757962 40.600921 
L 80.064195 175.149208 
L 213.082301 216.356408 
" style="fill: none; stroke: #b0b0b0; stroke-width: 0.5"/>
    <path d="M 89.029337 31.743231 
L 91.666218 165.2158 
L 223.640758 205.468493 
" style="fill: none; stroke: #b0b0b0; stroke-width: 0.5"/>
    <path d="M 101.009646 23.095637 
L 103.007058 155.506011 
L 233.950565 194.836987 
" style="fill: none; stroke: #b0b0b0; stroke-width: 0.5"/>
   </g>
  </g>
  <g id="grid3d_3" class="plot3d-grid">
   <g class="plot3d">
    <path d="M 244.358401 169.248106 
L 113.580688 131.226673 
L 32.52745 199.370616 
" style="fill: none; stroke: #b0b0b0; stroke-width: 0.5"/>
    <path d="M 245.177969 149.919218 
L 113.38 112.466043 
L 31.649681 179.609896 
" style="fill: none; stroke: #b0b0b0; stroke-width: 0.5"/>
    <path d="M 246.010543 130.283585 
L 113.17627 93.420947 
L 30.757491 159.524499 
" style="fill: none; stroke: #b0b0b0; stroke-width: 0.5"/>
    <path d="M 246.856435 110.333847 
L 112.969426 74.084863 
L 29.85052 139.106358 
" style="fill: none; stroke: #b0b0b0; stroke-width: 0.5"/>
    <path d="M 247.715968 90.062406 
L 112.759398 54.451073 
L 28.928398 118.347135 
" style="fill: none; stroke: #b0b0b0; stroke-width: 0.5"/>
    <path d="M 248.589475 69.461417 
L 112.546111 34.512646 
L 27.990742 97.238211 
" style="fill: none; stroke: #b0b0b0; stroke-width: 0.5"/>
   </g>
  </g>
  <g id="axis3d_1">
   <g id="line2d_1">
    <path d="M 33.232607 215.245431 
L 170.347415 260.424759 
" style="fill: none; stroke:var(--black); stroke-width: 0.8; stroke-linecap: square"/>
   </g>
   <g class="tick xtick">
    <g id="line2d_2">
     <path d="M 140.252108 133.059892 
" clip-path="url(#pca71ba66a0)" style="fill: none; stroke: #b0b0b0; stroke-opacity: 0.15; stroke-width: 0.5; stroke-linecap: square"/>
    </g>
    <g id="line2d_3">
     <path d="M 49.714156 219.845882 
L 47.641932 221.657022 
" style="fill: none; stroke:var(--black); stroke-width: 0.8; stroke-linecap: square"/>
    </g>
    <g id="text_1" class="text">
     <!-- −2 -->
     <g transform="translate(35.63023 244.509883) scale(0.09 -0.09)">
      <defs>
       <path id="DejaVuSerif-2212" d="M 678 2259 
L 4684 2259 
L 4684 1753 
L 678 1753 
L 678 2259 
z
" transform="scale(0.015625)"/>
       <path id="DejaVuSerif-32" d="M 819 3553 
L 469 3553 
L 469 4384 
Q 803 4563 1142 4656 
Q 1481 4750 1806 4750 
Q 2534 4750 2956 4397 
Q 3378 4044 3378 3438 
Q 3378 2753 2422 1800 
Q 2347 1728 2309 1691 
L 1131 513 
L 3078 513 
L 3078 1088 
L 3444 1088 
L 3444 0 
L 434 0 
L 434 341 
L 1850 1753 
Q 2319 2222 2519 2614 
Q 2719 3006 2719 3438 
Q 2719 3909 2473 4175 
Q 2228 4441 1797 4441 
Q 1350 4441 1106 4219 
Q 863 3997 819 3553 
z
" transform="scale(0.015625)"/>
      </defs>
      <use xlink:href="#DejaVuSerif-2212"/>
      <use xlink:href="#DejaVuSerif-32" transform="translate(83.789062 0)"/>
     </g>
    </g>
   </g>
   <g class="tick xtick">
    <g id="line2d_4">
     <path d="M 140.252108 133.059892 
" clip-path="url(#pca71ba66a0)" style="fill: none; stroke: #b0b0b0; stroke-opacity: 0.15; stroke-width: 0.5; stroke-linecap: square"/>
    </g>
    <g id="line2d_5">
     <path d="M 69.324437 226.301626 
L 67.276593 228.138375 
" style="fill: none; stroke:var(--black); stroke-width: 0.8; stroke-linecap: square"/>
    </g>
    <g id="text_2" class="text">
     <!-- −1 -->
     <g transform="translate(55.245913 251.110543) scale(0.09 -0.09)">
      <defs>
       <path id="DejaVuSerif-31" d="M 909 0 
L 909 331 
L 1722 331 
L 1722 4213 
L 781 3603 
L 781 4013 
L 1919 4750 
L 2350 4750 
L 2350 331 
L 3163 331 
L 3163 0 
L 909 0 
z
" transform="scale(0.015625)"/>
      </defs>
      <use xlink:href="#DejaVuSerif-2212"/>
      <use xlink:href="#DejaVuSerif-31" transform="translate(83.789062 0)"/>
     </g>
    </g>
   </g>
   <g class="tick xtick">
    <g id="line2d_6">
     <path d="M 140.252108 133.059892 
" clip-path="url(#pca71ba66a0)" style="fill: none; stroke: #b0b0b0; stroke-opacity: 0.15; stroke-width: 0.5; stroke-linecap: square"/>
    </g>
    <g id="line2d_7">
     <path d="M 89.212708 232.848885 
L 87.190147 234.71179 
" style="fill: none; stroke:var(--black); stroke-width: 0.8; stroke-linecap: square"/>
    </g>
    <g id="text_3" class="text">
     <!-- 0 -->
     <g transform="translate(78.911349 257.805052) scale(0.09 -0.09)">
      <defs>
       <path id="DejaVuSerif-30" d="M 2034 219 
Q 2513 219 2750 744 
Q 2988 1269 2988 2328 
Q 2988 3391 2750 3916 
Q 2513 4441 2034 4441 
Q 1556 4441 1318 3916 
Q 1081 3391 1081 2328 
Q 1081 1269 1318 744 
Q 1556 219 2034 219 
z
M 2034 -91 
Q 1275 -91 848 546 
Q 422 1184 422 2328 
Q 422 3475 848 4112 
Q 1275 4750 2034 4750 
Q 2797 4750 3222 4112 
Q 3647 3475 3647 2328 
Q 3647 1184 3222 546 
Q 2797 -91 2034 -91 
z
" transform="scale(0.015625)"/>
      </defs>
      <use xlink:href="#DejaVuSerif-30"/>
     </g>
    </g>
   </g>
   <g class="tick xtick">
    <g id="line2d_8">
     <path d="M 140.252108 133.059892 
" clip-path="url(#pca71ba66a0)" style="fill: none; stroke: #b0b0b0; stroke-opacity: 0.15; stroke-width: 0.5; stroke-linecap: square"/>
    </g>
    <g id="line2d_9">
     <path d="M 109.384922 239.489619 
L 107.388578 241.379242 
" style="fill: none; stroke:var(--black); stroke-width: 0.8; stroke-linecap: square"/>
    </g>
    <g id="text_4" class="text">
     <!-- 1 -->
     <g transform="translate(99.090812 264.595423) scale(0.09 -0.09)">
      <use xlink:href="#DejaVuSerif-31"/>
     </g>
    </g>
   </g>
   <g class="tick xtick">
    <g id="line2d_10">
     <path d="M 140.252108 133.059892 
" clip-path="url(#pca71ba66a0)" style="fill: none; stroke: #b0b0b0; stroke-opacity: 0.15; stroke-width: 0.5; stroke-linecap: square"/>
    </g>
    <g id="line2d_11">
     <path d="M 129.847204 246.225843 
L 127.878045 248.142765 
" style="fill: none; stroke:var(--black); stroke-width: 0.8; stroke-linecap: square"/>
    </g>
    <g id="text_5" class="text">
     <!-- 2 -->
     <g transform="translate(119.561324 271.483733) scale(0.09 -0.09)">
      <use xlink:href="#DejaVuSerif-32"/>
     </g>
    </g>
   </g>
   <g class="tick xtick">
    <g id="line2d_12">
     <path d="M 140.252108 133.059892 
" clip-path="url(#pca71ba66a0)" style="fill: none; stroke: #b0b0b0; stroke-opacity: 0.15; stroke-width: 0.5; stroke-linecap: square"/>
    </g>
    <g id="line2d_13">
     <path d="M 150.605856 253.059634 
L 148.664882 255.004448 
" style="fill: none; stroke:var(--black); stroke-width: 0.8; stroke-linecap: square"/>
    </g>
    <g id="text_6" class="text">
     <!-- 3 -->
     <g transform="translate(140.329227 278.472115) scale(0.09 -0.09)">
      <defs>
       <path id="DejaVuSerif-33" d="M 622 4469 
Q 988 4606 1323 4678 
Q 1659 4750 1953 4750 
Q 2638 4750 3022 4454 
Q 3406 4159 3406 3634 
Q 3406 3213 3140 2930 
Q 2875 2647 2388 2547 
Q 2963 2466 3280 2130 
Q 3597 1794 3597 1259 
Q 3597 606 3158 257 
Q 2719 -91 1894 -91 
Q 1528 -91 1179 -12 
Q 831 66 488 225 
L 488 1131 
L 838 1131 
Q 869 681 1141 450 
Q 1413 219 1906 219 
Q 2384 219 2661 495 
Q 2938 772 2938 1253 
Q 2938 1803 2653 2086 
Q 2369 2369 1819 2369 
L 1522 2369 
L 1522 2688 
L 1678 2688 
Q 2225 2688 2498 2914 
Q 2772 3141 2772 3597 
Q 2772 4006 2547 4223 
Q 2322 4441 1900 4441 
Q 1478 4441 1245 4241 
Q 1013 4041 972 3647 
L 622 3647 
L 622 4469 
z
" transform="scale(0.015625)"/>
      </defs>
      <use xlink:href="#DejaVuSerif-33"/>
     </g>
    </g>
   </g>
   <g id="text_7" class="text">
    <!-- $\beta_x(t)$ -->
    <g transform="translate(74.298153 274.586372) rotate(-341.762949) scale(0.1 -0.1)">
     <defs>
      <path id="Cmmi10-af" d="M 172 -1241 
Q 153 -1241 137 -1219 
Q 122 -1197 122 -1178 
L 1106 2778 
Q 1191 3097 1353 3397 
Q 1516 3697 1761 3955 
Q 2006 4213 2300 4363 
Q 2594 4513 2925 4513 
Q 3163 4513 3355 4408 
Q 3547 4303 3658 4114 
Q 3769 3925 3769 3688 
Q 3769 3459 3681 3251 
Q 3594 3044 3437 2864 
Q 3281 2684 3103 2572 
Q 3206 2506 3287 2404 
Q 3369 2303 3419 2192 
Q 3469 2081 3497 1945 
Q 3525 1809 3525 1691 
Q 3525 1363 3384 1044 
Q 3244 725 3001 465 
Q 2759 206 2446 54 
Q 2134 -97 1806 -97 
Q 1447 -97 1159 100 
Q 872 297 763 634 
L 300 -1203 
Q 300 -1241 250 -1241 
L 172 -1241 
z
M 1819 78 
Q 2106 78 2339 267 
Q 2572 456 2723 742 
Q 2875 1028 2954 1348 
Q 3034 1669 3034 1931 
Q 3034 2256 2847 2444 
Q 2628 2363 2419 2363 
Q 1913 2363 1913 2534 
Q 1913 2759 2491 2759 
Q 2697 2759 2869 2694 
Q 3006 2800 3118 3006 
Q 3231 3213 3289 3438 
Q 3347 3663 3347 3859 
Q 3347 4069 3236 4208 
Q 3125 4347 2913 4347 
Q 2522 4347 2186 4106 
Q 1850 3866 1619 3498 
Q 1388 3131 1288 2741 
L 934 1325 
Q 900 1178 891 997 
Q 891 597 1153 337 
Q 1416 78 1819 78 
z
M 2106 2553 
Q 2203 2528 2425 2528 
Q 2534 2528 2644 2566 
Q 2638 2572 2619 2572 
Q 2550 2591 2472 2591 
Q 2181 2591 2106 2553 
z
" transform="scale(0.015625)"/>
      <path id="Cmmi10-78" d="M 500 184 
Q 613 97 819 97 
Q 1019 97 1172 289 
Q 1325 481 1381 709 
L 1672 1844 
Q 1741 2153 1741 2266 
Q 1741 2425 1652 2544 
Q 1563 2663 1403 2663 
Q 1200 2663 1022 2536 
Q 844 2409 722 2214 
Q 600 2019 550 1819 
Q 538 1778 500 1778 
L 422 1778 
Q 372 1778 372 1838 
L 372 1856 
Q 434 2094 584 2320 
Q 734 2547 951 2687 
Q 1169 2828 1416 2828 
Q 1650 2828 1839 2703 
Q 2028 2578 2106 2363 
Q 2216 2559 2386 2693 
Q 2556 2828 2759 2828 
Q 2897 2828 3040 2779 
Q 3184 2731 3275 2631 
Q 3366 2531 3366 2381 
Q 3366 2219 3261 2101 
Q 3156 1984 2994 1984 
Q 2891 1984 2822 2050 
Q 2753 2116 2753 2216 
Q 2753 2350 2845 2451 
Q 2938 2553 3066 2572 
Q 2950 2663 2747 2663 
Q 2541 2663 2389 2472 
Q 2238 2281 2175 2047 
L 1894 916 
Q 1825 659 1825 494 
Q 1825 331 1917 214 
Q 2009 97 2163 97 
Q 2463 97 2698 361 
Q 2934 625 3009 941 
Q 3022 978 3059 978 
L 3138 978 
Q 3163 978 3178 961 
Q 3194 944 3194 922 
Q 3194 916 3188 903 
Q 3097 522 2806 225 
Q 2516 -72 2150 -72 
Q 1916 -72 1727 54 
Q 1538 181 1459 397 
Q 1359 209 1182 68 
Q 1006 -72 806 -72 
Q 669 -72 523 -23 
Q 378 25 287 125 
Q 197 225 197 378 
Q 197 528 301 651 
Q 406 775 563 775 
Q 669 775 741 711 
Q 813 647 813 544 
Q 813 409 723 309 
Q 634 209 500 184 
z
" transform="scale(0.015625)"/>
      <path id="Cmr10-28" d="M 1984 -1588 
Q 1628 -1306 1370 -942 
Q 1113 -578 948 -165 
Q 784 247 703 697 
Q 622 1147 622 1600 
Q 622 2059 703 2509 
Q 784 2959 951 3375 
Q 1119 3791 1378 4153 
Q 1638 4516 1984 4788 
Q 1984 4800 2016 4800 
L 2075 4800 
Q 2094 4800 2109 4783 
Q 2125 4766 2125 4744 
Q 2125 4716 2113 4703 
Q 1800 4397 1592 4047 
Q 1384 3697 1257 3301 
Q 1131 2906 1075 2482 
Q 1019 2059 1019 1600 
Q 1019 -434 2106 -1491 
Q 2125 -1509 2125 -1544 
Q 2125 -1559 2108 -1579 
Q 2091 -1600 2075 -1600 
L 2016 -1600 
Q 1984 -1600 1984 -1588 
z
" transform="scale(0.015625)"/>
      <path id="Cmmi10-74" d="M 397 519 
Q 397 613 416 697 
L 878 2534 
L 206 2534 
Q 141 2534 141 2619 
Q 166 2759 225 2759 
L 934 2759 
L 1191 3803 
Q 1216 3888 1291 3947 
Q 1366 4006 1459 4006 
Q 1541 4006 1595 3957 
Q 1650 3909 1650 3828 
Q 1650 3809 1648 3798 
Q 1647 3788 1644 3775 
L 1388 2759 
L 2047 2759 
Q 2113 2759 2113 2675 
Q 2109 2659 2100 2621 
Q 2091 2584 2075 2559 
Q 2059 2534 2028 2534 
L 1331 2534 
L 872 684 
Q 825 503 825 372 
Q 825 97 1013 97 
Q 1294 97 1511 361 
Q 1728 625 1844 941 
Q 1869 978 1894 978 
L 1972 978 
Q 1997 978 2012 961 
Q 2028 944 2028 922 
Q 2028 909 2022 903 
Q 1881 516 1612 222 
Q 1344 -72 997 -72 
Q 744 -72 570 93 
Q 397 259 397 519 
z
" transform="scale(0.015625)"/>
      <path id="Cmr10-29" d="M 416 -1600 
Q 359 -1600 359 -1544 
Q 359 -1516 372 -1503 
Q 1466 -434 1466 1600 
Q 1466 3634 384 4691 
Q 359 4706 359 4744 
Q 359 4766 376 4783 
Q 394 4800 416 4800 
L 475 4800 
Q 494 4800 506 4788 
Q 966 4425 1272 3906 
Q 1578 3388 1720 2800 
Q 1863 2213 1863 1600 
Q 1863 1147 1786 708 
Q 1709 269 1542 -157 
Q 1375 -584 1119 -945 
Q 863 -1306 506 -1588 
Q 494 -1600 475 -1600 
L 416 -1600 
z
" transform="scale(0.015625)"/>
     </defs>
     <use xlink:href="#Cmmi10-af"/>
     <use xlink:href="#Cmmi10-78" transform="translate(56.494141 -17.00625) scale(0.7)"/>
     <use xlink:href="#Cmr10-28" transform="translate(102.827539 0)"/>
     <use xlink:href="#Cmmi10-74" transform="translate(141.645898 0)"/>
     <use xlink:href="#Cmr10-29" transform="translate(177.729883 0)"/>
    </g>
   </g>
  </g>
  <g id="axis3d_2">
   <g id="line2d_14">
    <path d="M 243.699674 184.783675 
L 170.347415 260.424759 
" style="fill: none; stroke:var(--black); stroke-width: 0.8; stroke-linecap: square"/>
   </g>
   <g class="tick xtick">
    <g id="line2d_15">
     <path d="M 140.252108 133.059892 
" clip-path="url(#pca71ba66a0)" style="fill: none; stroke: #b0b0b0; stroke-opacity: 0.15; stroke-width: 0.5; stroke-linecap: square"/>
    </g>
    <g id="line2d_16">
     <path d="M 178.678958 250.283364 
L 182.109873 251.398685 
" style="fill: none; stroke:var(--black); stroke-width: 0.8; stroke-linecap: square"/>
    </g>
    <g id="text_8" class="text">
     <!-- −2 -->
     <g transform="translate(184.851303 272.482154) scale(0.09 -0.09)">
      <use xlink:href="#DejaVuSerif-2212"/>
      <use xlink:href="#DejaVuSerif-32" transform="translate(83.789062 0)"/>
     </g>
    </g>
   </g>
   <g class="tick xtick">
    <g id="line2d_17">
     <path d="M 140.252108 133.059892 
" clip-path="url(#pca71ba66a0)" style="fill: none; stroke: #b0b0b0; stroke-opacity: 0.15; stroke-width: 0.5; stroke-linecap: square"/>
    </g>
    <g id="line2d_18">
     <path d="M 190.049543 238.577125 
L 193.451246 239.665047 
" style="fill: none; stroke:var(--black); stroke-width: 0.8; stroke-linecap: square"/>
    </g>
    <g id="text_9" class="text">
     <!-- −1 -->
     <g transform="translate(196.061081 260.588966) scale(0.09 -0.09)">
      <use xlink:href="#DejaVuSerif-2212"/>
      <use xlink:href="#DejaVuSerif-31" transform="translate(83.789062 0)"/>
     </g>
    </g>
   </g>
   <g class="tick xtick">
    <g id="line2d_19">
     <path d="M 140.252108 133.059892 
" clip-path="url(#pca71ba66a0)" style="fill: none; stroke: #b0b0b0; stroke-opacity: 0.15; stroke-width: 0.5; stroke-linecap: square"/>
    </g>
    <g id="line2d_20">
     <path d="M 201.142653 227.156551 
L 204.515539 228.218072 
" style="fill: none; stroke:var(--black); stroke-width: 0.8; stroke-linecap: square"/>
    </g>
    <g id="text_10" class="text">
     <!-- 0 -->
     <g transform="translate(210.76823 248.985938) scale(0.09 -0.09)">
      <use xlink:href="#DejaVuSerif-30"/>
     </g>
    </g>
   </g>
   <g class="tick xtick">
    <g id="line2d_21">
     <path d="M 140.252108 133.059892 
" clip-path="url(#pca71ba66a0)" style="fill: none; stroke: #b0b0b0; stroke-opacity: 0.15; stroke-width: 0.5; stroke-linecap: square"/>
    </g>
    <g id="line2d_22">
     <path d="M 211.968323 216.011313 
L 215.312784 217.047381 
" style="fill: none; stroke:var(--black); stroke-width: 0.8; stroke-linecap: square"/>
    </g>
    <g id="text_11" class="text">
     <!-- 1 -->
     <g transform="translate(221.44092 237.66258) scale(0.09 -0.09)">
      <use xlink:href="#DejaVuSerif-31"/>
     </g>
    </g>
   </g>
   <g class="tick xtick">
    <g id="line2d_23">
     <path d="M 140.252108 133.059892 
" clip-path="url(#pca71ba66a0)" style="fill: none; stroke: #b0b0b0; stroke-opacity: 0.15; stroke-width: 0.5; stroke-linecap: square"/>
    </g>
    <g id="line2d_24">
     <path d="M 222.536108 205.131571 
L 225.852534 206.143092 
" style="fill: none; stroke:var(--black); stroke-width: 0.8; stroke-linecap: square"/>
    </g>
    <g id="text_12" class="text">
     <!-- 2 -->
     <g transform="translate(231.859427 226.608902) scale(0.09 -0.09)">
      <use xlink:href="#DejaVuSerif-32"/>
     </g>
    </g>
   </g>
   <g class="tick xtick">
    <g id="line2d_25">
     <path d="M 140.252108 133.059892 
" clip-path="url(#pca71ba66a0)" style="fill: none; stroke: #b0b0b0; stroke-opacity: 0.15; stroke-width: 0.5; stroke-linecap: square"/>
    </g>
    <g id="line2d_26">
     <path d="M 232.855116 194.507951 
L 236.14389 195.495787 
" style="fill: none; stroke:var(--black); stroke-width: 0.8; stroke-linecap: square"/>
    </g>
    <g id="text_13" class="text">
     <!-- 3 -->
     <g transform="translate(242.032726 215.815382) scale(0.09 -0.09)">
      <use xlink:href="#DejaVuSerif-33"/>
     </g>
    </g>
   </g>
   <g id="text_14" class="text">
    <!-- $\beta_y(t)$ -->
    <g transform="translate(227.238982 261.703824) rotate(-45.880104) scale(0.1 -0.1)">
     <defs>
      <path id="Cmmi10-79" d="M 538 -916 
Q 672 -1147 1006 -1147 
Q 1309 -1147 1531 -934 
Q 1753 -722 1889 -420 
Q 2025 -119 2100 197 
Q 1816 -72 1484 -72 
Q 1231 -72 1053 15 
Q 875 103 776 276 
Q 678 450 678 697 
Q 678 906 734 1126 
Q 791 1347 892 1617 
Q 994 1888 1069 2088 
Q 1153 2322 1153 2472 
Q 1153 2663 1013 2663 
Q 759 2663 595 2402 
Q 431 2141 353 1819 
Q 341 1778 300 1778 
L 225 1778 
Q 172 1778 172 1838 
L 172 1856 
Q 275 2238 487 2533 
Q 700 2828 1025 2828 
Q 1253 2828 1411 2678 
Q 1569 2528 1569 2297 
Q 1569 2178 1516 2047 
Q 1488 1969 1388 1706 
Q 1288 1444 1234 1272 
Q 1181 1100 1147 934 
Q 1113 769 1113 603 
Q 1113 391 1203 244 
Q 1294 97 1491 97 
Q 1888 97 2203 581 
L 2688 2553 
Q 2709 2638 2787 2698 
Q 2866 2759 2956 2759 
Q 3034 2759 3092 2709 
Q 3150 2659 3150 2578 
Q 3150 2541 3144 2528 
L 2509 -19 
Q 2425 -347 2200 -647 
Q 1975 -947 1658 -1130 
Q 1341 -1313 997 -1313 
Q 831 -1313 668 -1248 
Q 506 -1184 406 -1056 
Q 306 -928 306 -756 
Q 306 -581 409 -453 
Q 513 -325 684 -325 
Q 788 -325 858 -389 
Q 928 -453 928 -556 
Q 928 -703 818 -812 
Q 709 -922 563 -922 
Q 556 -919 550 -917 
Q 544 -916 538 -916 
z
" transform="scale(0.015625)"/>
     </defs>
     <use xlink:href="#Cmmi10-af"/>
     <use xlink:href="#Cmmi10-79" transform="translate(56.494141 -17.00625) scale(0.7)"/>
     <use xlink:href="#Cmr10-28" transform="translate(97.187891 0)"/>
     <use xlink:href="#Cmmi10-74" transform="translate(136.00625 0)"/>
     <use xlink:href="#Cmr10-29" transform="translate(172.090234 0)"/>
    </g>
   </g>
  </g>
  <g id="axis3d_3">
   <g id="line2d_27">
    <path d="M 243.699674 184.783675 
L 249.448471 49.202633 
" style="fill: none; stroke:var(--black); stroke-width: 0.8; stroke-linecap: square"/>
   </g>
   <g class="tick xtick">
    <g id="line2d_28">
     <path d="M 140.252108 133.059892 
" style="fill: none; stroke: #b0b0b0; stroke-opacity: 0.15; stroke-width: 0.5; stroke-linecap: square"/>
    </g>
    <g id="line2d_29">
     <path d="M 243.264576 168.930095 
L 246.548461 169.88483 
" style="fill: none; stroke:var(--black); stroke-width: 0.8; stroke-linecap: square"/>
    </g>
    <g id="text_15" class="text">
     <!-- −2 -->
     <g transform="translate(254.663004 173.678021) scale(0.09 -0.09)">
      <use xlink:href="#DejaVuSerif-2212"/>
      <use xlink:href="#DejaVuSerif-32" transform="translate(83.789062 0)"/>
     </g>
    </g>
   </g>
   <g class="tick xtick">
    <g id="line2d_30">
     <path d="M 140.252108 133.059892 
" style="fill: none; stroke: #b0b0b0; stroke-opacity: 0.15; stroke-width: 0.5; stroke-linecap: square"/>
    </g>
    <g id="line2d_31">
     <path d="M 244.075233 149.605853 
L 247.385889 150.546645 
" style="fill: none; stroke:var(--black); stroke-width: 0.8; stroke-linecap: square"/>
    </g>
    <g id="text_16" class="text">
     <!-- −1 -->
     <g transform="translate(255.61325 154.384365) scale(0.09 -0.09)">
      <use xlink:href="#DejaVuSerif-2212"/>
      <use xlink:href="#DejaVuSerif-31" transform="translate(83.789062 0)"/>
     </g>
    </g>
   </g>
   <g class="tick xtick">
    <g id="line2d_32">
     <path d="M 140.252108 133.059892 
" style="fill: none; stroke: #b0b0b0; stroke-opacity: 0.15; stroke-width: 0.5; stroke-linecap: square"/>
    </g>
    <g id="line2d_33">
     <path d="M 244.89875 129.975053 
L 248.236617 130.90134 
" style="fill: none; stroke:var(--black); stroke-width: 0.8; stroke-linecap: square"/>
    </g>
    <g id="text_17" class="text">
     <!-- 0 -->
     <g transform="translate(260.349394 134.785387) scale(0.09 -0.09)">
      <use xlink:href="#DejaVuSerif-30"/>
     </g>
    </g>
   </g>
   <g class="tick xtick">
    <g id="line2d_34">
     <path d="M 140.252108 133.059892 
" style="fill: none; stroke: #b0b0b0; stroke-opacity: 0.15; stroke-width: 0.5; stroke-linecap: square"/>
    </g>
    <g id="line2d_35">
     <path d="M 245.735436 110.030344 
L 249.100964 110.941538 
" style="fill: none; stroke:var(--black); stroke-width: 0.8; stroke-linecap: square"/>
    </g>
    <g id="text_18" class="text">
     <!-- 1 -->
     <g transform="translate(261.330075 114.873783) scale(0.09 -0.09)">
      <use xlink:href="#DejaVuSerif-31"/>
     </g>
    </g>
   </g>
   <g class="tick xtick">
    <g id="line2d_36">
     <path d="M 140.252108 133.059892 
" style="fill: none; stroke: #b0b0b0; stroke-opacity: 0.15; stroke-width: 0.5; stroke-linecap: square"/>
    </g>
    <g id="line2d_37">
     <path d="M 246.585608 89.764135 
L 249.97926 90.659626 
" style="fill: none; stroke:var(--black); stroke-width: 0.8; stroke-linecap: square"/>
    </g>
    <g id="text_19" class="text">
     <!-- 2 -->
     <g transform="translate(262.326525 94.642012) scale(0.09 -0.09)">
      <use xlink:href="#DejaVuSerif-32"/>
     </g>
    </g>
   </g>
   <g class="tick xtick">
    <g id="line2d_38">
     <path d="M 140.252108 133.059892 
" style="fill: none; stroke: #b0b0b0; stroke-opacity: 0.15; stroke-width: 0.5; stroke-linecap: square"/>
    </g>
    <g id="line2d_39">
     <path d="M 247.449596 69.168589 
L 250.871845 70.047745 
" style="fill: none; stroke:var(--black); stroke-width: 0.8; stroke-linecap: square"/>
    </g>
    <g id="text_20" class="text">
     <!-- 3 -->
     <g transform="translate(263.339127 74.082289) scale(0.09 -0.09)">
      <use xlink:href="#DejaVuSerif-33"/>
     </g>
    </g>
   </g>
   <g id="text_21" class="text">
    <!-- $\beta_z(t)$ -->
    <g transform="translate(285.988558 124.406434) rotate(-87.572045) scale(0.1 -0.1)">
     <defs>
      <path id="Cmmi10-7a" d="M 313 -72 
Q 263 -72 263 -13 
Q 263 19 275 31 
Q 447 328 689 598 
Q 931 869 1239 1145 
Q 1547 1422 1858 1700 
Q 2169 1978 2363 2194 
L 2338 2194 
Q 2197 2194 1925 2284 
Q 1653 2375 1497 2375 
Q 1328 2375 1168 2301 
Q 1009 2228 966 2075 
Q 956 2028 916 2028 
L 838 2028 
Q 788 2028 788 2094 
L 788 2113 
Q 838 2300 952 2462 
Q 1066 2625 1233 2726 
Q 1400 2828 1581 2828 
Q 1709 2828 1793 2770 
Q 1878 2713 1990 2591 
Q 2103 2469 2173 2416 
Q 2244 2363 2350 2363 
Q 2491 2363 2602 2491 
Q 2713 2619 2822 2809 
Q 2841 2828 2869 2828 
L 2944 2828 
Q 2966 2828 2980 2812 
Q 2994 2797 2994 2772 
Q 2994 2750 2981 2731 
Q 2809 2434 2579 2176 
Q 2350 1919 1979 1586 
Q 1609 1253 1354 1023 
Q 1100 794 878 550 
Q 928 563 1013 563 
Q 1169 563 1439 473 
Q 1709 384 1856 384 
Q 2016 384 2178 453 
Q 2341 522 2459 647 
Q 2578 772 2619 934 
Q 2634 978 2669 978 
L 2747 978 
Q 2772 978 2787 958 
Q 2803 938 2803 916 
Q 2803 909 2797 897 
Q 2738 653 2591 433 
Q 2444 213 2230 70 
Q 2016 -72 1772 -72 
Q 1650 -72 1565 -15 
Q 1481 41 1367 164 
Q 1253 288 1181 342 
Q 1109 397 1006 397 
Q 688 397 434 -50 
Q 413 -72 391 -72 
L 313 -72 
z
" transform="scale(0.015625)"/>
     </defs>
     <use xlink:href="#Cmmi10-af"/>
     <use xlink:href="#Cmmi10-7a" transform="translate(56.494141 -17.00625) scale(0.7)"/>
     <use xlink:href="#Cmr10-28" transform="translate(95.410547 0)"/>
     <use xlink:href="#Cmmi10-74" transform="translate(134.228906 0)"/>
     <use xlink:href="#Cmr10-29" transform="translate(170.312891 0)"/>
    </g>
   </g>
  </g>
  <g id="axes_1">
   <g id="line2d_40">
    <path d="M 121.91594 147.141138 
L 120.792162 147.466199 
L 119.410833 141.945238 
L 117.79328 143.942823 
L 118.22137 143.941027 
L 116.415616 141.416078 
L 119.269378 141.761927 
L 121.464032 143.270302 
L 121.708781 147.350964 
L 117.51372 146.237826 
L 121.610611 146.196286 
L 123.214622 142.706096 
L 124.163863 147.212714 
L 122.40651 146.52456 
L 122.478982 147.16333 
L 121.938623 145.456566 
L 124.076429 146.408748 
L 125.751349 143.635652 
L 126.773903 147.340562 
L 128.160976 148.414299 
L 128.588297 152.589185 
L 128.353466 155.017735 
L 129.179448 157.665003 
L 126.926103 161.03702 
L 123.278591 164.634435 
L 121.966122 165.679997 
L 118.95811 163.13391 
L 118.222896 168.055756 
L 115.143906 170.827971 
L 115.550296 168.548816 
L 112.954442 161.611565 
L 117.272622 165.018391 
L 118.620062 166.977677 
L 115.782207 168.906474 
L 108.644948 167.605132 
L 107.345793 167.115898 
L 105.864122 166.053873 
L 108.157836 166.779317 
L 109.747365 169.079536 
L 110.517655 169.34651 
L 110.834972 170.626015 
L 111.932823 169.514279 
L 114.103909 170.185408 
L 110.693246 171.414124 
L 111.88943 171.709692 
L 112.401141 174.351948 
L 110.184757 176.310922 
L 109.66628 175.966748 
L 114.151947 176.690858 
L 113.27793 176.8397 
L 112.629462 173.185107 
L 116.899012 169.98529 
L 119.854799 174.104982 
L 119.224339 176.772261 
L 116.992247 178.387494 
L 115.189782 182.261864 
L 115.326363 182.96754 
L 114.610899 185.047109 
L 115.132338 178.567497 
L 122.363496 178.043055 
L 117.865665 176.901498 
L 116.978494 180.623385 
L 116.617944 178.96855 
L 121.004958 177.364724 
L 121.466892 178.604159 
L 119.867695 179.312314 
L 121.309429 177.822379 
L 122.278557 177.922292 
L 121.938713 176.366019 
L 119.178523 175.137422 
L 118.976231 175.610134 
L 117.952398 175.392394 
L 116.866572 177.230287 
L 113.176469 177.3976 
L 106.75056 175.304758 
L 106.372575 175.722484 
L 104.371054 178.415576 
L 102.378218 182.354667 
L 98.556818 180.08652 
L 101.360189 181.340306 
L 101.074722 181.012083 
L 106.923512 178.363055 
L 108.287797 177.230588 
L 108.330814 175.483822 
L 103.041519 176.34542 
L 104.387655 176.413629 
L 107.497277 177.425336 
L 109.996625 177.801373 
L 109.155506 175.741967 
L 106.264599 179.348917 
L 105.231031 180.033415 
L 103.316081 177.8765 
L 103.923087 180.483714 
L 105.108274 176.800695 
L 104.908073 173.802529 
L 107.433035 171.211354 
L 106.399089 166.749778 
L 108.558341 169.594609 
L 107.762972 167.77559 
L 109.419309 172.673447 
L 111.023435 175.992905 
L 113.548074 178.436927 
L 115.348446 179.571049 
L 119.251648 178.641704 
L 118.249168 178.635602 
L 119.531702 177.025536 
L 117.486563 178.689693 
L 119.344037 182.894131 
L 122.016597 183.372916 
L 120.070665 181.593318 
L 120.418288 181.539847 
L 116.452091 181.867361 
L 117.355947 182.23286 
L 118.81526 181.598912 
L 114.459471 179.247618 
L 105.805229 175.723148 
L 109.301717 176.981367 
L 111.425297 174.831541 
L 111.225059 175.644265 
L 108.826108 175.232604 
L 108.752868 177.405596 
L 108.061426 174.993756 
L 106.300619 170.492555 
L 106.134932 166.823452 
L 102.857234 165.919397 
L 104.568561 166.122762 
L 100.256994 170.48915 
L 102.345897 169.410397 
L 104.306614 169.699293 
L 107.080321 166.976611 
L 107.639389 168.399523 
L 105.555834 167.83897 
L 105.523254 169.535878 
L 103.082217 170.239555 
L 104.772783 172.104027 
L 104.537868 170.906788 
L 103.208302 172.240137 
L 102.434264 170.205023 
L 97.892595 172.323173 
L 102.857557 172.321333 
L 100.354823 171.246903 
L 102.432944 173.684926 
L 107.818782 179.472896 
L 105.013955 175.859552 
L 109.462937 173.14551 
L 108.526721 172.010509 
L 109.967154 169.21943 
L 111.932634 167.184793 
L 117.60184 166.992007 
L 118.586421 167.406623 
L 122.042148 167.059903 
L 126.004308 168.665444 
L 120.283975 170.819505 
L 120.569539 171.218318 
L 120.541708 171.641433 
L 117.944321 171.777569 
L 116.641065 169.717913 
L 118.332999 171.294539 
L 119.269019 167.401745 
L 120.106765 169.331133 
L 122.64034 172.46276 
L 124.576748 169.276378 
L 126.491106 170.18494 
L 123.06318 166.959804 
L 124.467641 167.40655 
L 126.526689 171.530015 
L 130.015893 172.358379 
L 128.462685 170.394412 
L 128.045325 171.191121 
L 129.989057 170.339415 
L 132.1808 167.042406 
L 130.249254 161.900235 
L 131.797308 162.703488 
L 131.182946 159.276784 
L 134.975244 160.715386 
L 133.798068 159.330449 
L 133.201777 158.871381 
L 133.368043 155.156269 
L 132.860733 158.31745 
L 136.795262 158.544671 
L 137.803566 159.284466 
L 138.216914 154.458551 
L 137.158199 154.400082 
L 138.955449 152.87704 
L 138.447667 151.652962 
L 137.166643 153.822941 
L 135.420327 153.267039 
L 133.637996 152.445803 
L 133.477358 153.559552 
L 129.622589 154.68463 
L 130.074131 157.555466 
L 127.619418 157.70007 
L 131.277788 158.375756 
L 132.455409 155.170528 
L 133.998808 156.595692 
L 132.5123 157.549419 
L 132.027789 156.634173 
L 129.753098 159.309097 
L 127.80366 155.43558 
L 125.103712 152.739782 
L 121.804794 152.349434 
L 119.709219 155.532643 
L 121.702425 155.143224 
L 123.493139 154.249674 
L 123.792553 159.69097 
L 127.252749 158.702667 
L 130.36038 162.531573 
L 125.687842 162.805497 
L 126.222487 171.840272 
L 127.384404 171.564485 
L 126.438466 171.815351 
L 128.196556 171.017756 
L 128.361849 171.864031 
L 129.057422 169.783922 
L 127.101115 175.196778 
L 128.712963 171.470993 
L 128.644853 174.166583 
L 132.588269 174.326889 
L 129.946353 173.098757 
L 128.832597 173.604518 
L 128.901231 175.3022 
L 127.919343 175.278946 
L 130.705319 179.147928 
L 130.862651 178.087695 
L 130.670977 174.427317 
L 127.906942 175.480112 
L 125.566163 174.396397 
L 125.555895 175.739237 
L 128.19796 175.597874 
L 127.332666 176.260878 
L 127.8505 175.000086 
L 128.848521 175.692287 
L 126.283361 179.219988 
L 127.879637 179.067427 
L 129.057167 175.602704 
L 128.772644 173.805099 
L 128.89539 175.884336 
L 132.162019 180.357691 
L 133.114942 177.867949 
L 134.966404 176.758218 
L 130.048374 176.550855 
L 129.001052 176.759465 
L 125.678587 173.832 
L 128.722962 176.899094 
L 128.849042 174.213585 
L 125.807296 176.891778 
L 125.615751 176.355081 
L 125.905092 174.084525 
L 127.28457 172.137826 
L 124.587652 169.418326 
L 123.1757 170.05207 
L 122.305819 169.387943 
L 125.545502 164.566003 
L 123.739647 158.8725 
L 124.020269 156.918535 
L 121.855482 158.552133 
L 122.22346 158.848707 
L 119.423157 159.761037 
L 122.161007 162.404724 
L 120.162227 161.335441 
L 119.249664 164.051922 
L 122.470661 160.331686 
L 122.797075 155.031158 
L 126.23962 158.862029 
L 127.193022 157.99554 
L 124.193783 156.286495 
L 129.309212 157.368559 
L 130.900087 156.558642 
L 123.946551 158.923111 
L 123.583159 154.619282 
L 123.853572 159.720116 
L 121.498625 163.488736 
L 121.597457 160.31169 
L 121.440413 164.967335 
L 120.755174 166.422774 
L 122.013007 165.101381 
L 121.095089 164.548924 
L 123.019308 165.166107 
L 121.592559 164.014416 
L 124.771234 163.350769 
L 122.450876 161.362316 
L 126.739416 160.735921 
L 126.911921 159.971252 
L 127.008917 157.55094 
L 127.210857 158.027936 
L 124.046884 156.045167 
L 122.483527 158.610067 
L 123.708889 154.467722 
L 126.122788 156.115602 
L 125.407523 159.809365 
L 127.140323 160.222461 
L 125.261883 162.118402 
L 127.615849 161.062534 
L 128.578188 161.947278 
L 126.499835 158.970812 
L 128.448481 161.493074 
L 127.256297 160.843474 
L 124.559697 154.269061 
L 122.986984 154.567093 
L 122.009613 152.077915 
L 118.732905 152.680615 
L 122.33592 152.212729 
L 122.138697 150.277512 
L 124.137374 151.998465 
L 125.827541 154.028302 
L 124.225276 151.611466 
L 127.825445 151.675903 
L 130.673386 147.232576 
L 132.455148 147.119727 
L 134.158968 147.652668 
L 133.95077 146.220254 
L 134.401298 143.810445 
L 133.594536 142.129676 
L 132.850015 139.028172 
L 131.575296 140.30169 
L 133.632488 140.36826 
L 134.414377 140.238646 
L 136.535165 138.181198 
L 137.31858 137.944125 
L 137.943517 137.151895 
L 138.791074 138.022241 
L 138.522078 137.70832 
L 139.15136 137.42879 
L 141.229406 134.699741 
L 142.316719 132.698956 
L 143.010546 135.202931 
L 142.318515 135.970257 
L 142.245966 133.585367 
L 138.7749 134.975781 
L 139.414343 133.991577 
L 139.869917 135.053137 
L 139.341426 134.011617 
L 139.943548 133.487734 
L 144.279537 129.030257 
L 145.854449 126.024444 
L 150.291657 127.026071 
L 151.790259 123.908003 
L 148.857447 124.108799 
L 152.534211 126.900531 
L 153.106752 126.196186 
L 157.267589 127.855548 
L 156.897402 122.984626 
L 157.677011 123.107106 
L 158.405605 123.472328 
L 159.452104 128.08616 
L 157.654439 127.303672 
L 159.000674 127.099148 
L 160.471535 124.98778 
L 158.128493 125.849843 
L 158.402817 125.804887 
L 158.678678 126.948871 
L 155.59553 131.836677 
L 155.972462 131.830245 
L 151.230756 133.988299 
L 151.734629 135.177783 
L 156.520923 135.463434 
L 155.871382 133.624747 
L 158.242374 128.7871 
L 158.407872 127.100617 
L 160.666987 129.762274 
L 157.646477 133.375658 
L 157.534532 131.270858 
L 158.977629 129.651991 
L 158.951725 130.574897 
L 157.312708 131.45874 
L 151.516743 129.452349 
L 154.473231 130.416184 
L 151.118931 133.425908 
L 145.864844 132.324924 
L 144.086919 129.434423 
L 144.937425 127.770555 
L 145.214884 129.801691 
L 148.987732 133.343538 
L 151.398645 138.051306 
L 151.147481 133.804899 
L 150.434057 134.341337 
L 150.421797 135.878389 
L 152.892864 135.593081 
L 154.896191 134.13663 
L 152.007743 134.283531 
L 154.122612 134.738885 
L 153.454294 136.133723 
L 151.855162 135.198966 
L 150.755348 135.563604 
L 150.236173 135.429782 
L 151.749711 132.468947 
L 151.437618 128.163082 
L 152.466463 128.152971 
L 153.263084 129.731545 
L 155.605324 129.670138 
L 156.269792 129.858235 
L 158.182969 129.176661 
L 160.695781 130.966249 
L 161.431008 132.171146 
L 161.297585 129.117418 
L 162.272047 127.084977 
L 159.524305 126.809161 
L 158.297807 128.851799 
L 163.09569 128.002794 
L 165.53183 131.778839 
L 165.241392 132.559336 
L 163.813283 129.794869 
L 165.194722 129.496142 
L 163.972991 125.869616 
L 163.402181 127.591806 
L 165.446979 128.176677 
L 161.308931 128.656711 
L 159.91136 125.679491 
L 158.755566 126.319677 
L 158.997115 127.295732 
L 158.820512 121.595455 
L 158.217433 121.94813 
L 154.631371 119.34489 
L 155.353566 117.012887 
L 155.713993 113.331493 
L 151.698569 119.325054 
L 151.814984 119.502962 
L 154.4142 122.964695 
L 151.991194 118.868934 
L 159.366234 120.198076 
L 160.931121 117.627034 
L 159.98807 118.101189 
L 164.644005 114.08072 
L 163.375444 111.36194 
L 163.700405 113.887545 
L 162.024454 115.42165 
L 159.704922 125.04667 
L 158.924016 124.739041 
L 158.103654 122.359118 
L 154.228714 120.459907 
L 156.258375 123.218649 
L 157.314844 121.486015 
L 160.869665 125.66507 
L 159.549466 126.914879 
L 156.978687 128.58109 
L 154.613909 126.973212 
L 158.220639 125.493736 
L 157.042081 127.029857 
L 156.766018 130.746595 
L 158.664798 129.961433 
L 162.656718 132.736043 
L 162.948122 132.312323 
L 161.625603 135.569263 
L 163.724031 133.098598 
L 159.549705 133.50553 
L 157.251634 130.061111 
L 155.708977 129.491943 
L 156.554627 128.377081 
L 162.353904 129.736067 
L 162.467089 127.21746 
L 159.877021 127.520975 
L 156.076084 122.613141 
L 150.742053 127.822862 
L 150.334234 133.164116 
L 152.316647 132.169523 
L 156.85702 131.055722 
L 157.595731 130.344029 
L 156.176651 131.202118 
L 155.101633 132.966905 
L 151.473948 134.754208 
L 149.667015 138.055122 
L 152.635964 137.663006 
L 152.404261 136.082667 
L 150.965659 139.687322 
L 149.692878 140.033294 
L 152.75316 138.233914 
L 152.355213 138.057196 
L 151.11963 140.220934 
L 149.318513 138.80444 
L 148.978056 138.776402 
L 152.299895 139.322123 
L 151.905055 141.320966 
L 150.571659 140.561556 
L 149.157693 137.714662 
L 150.111103 135.253827 
L 149.894859 139.054643 
L 152.316252 139.837972 
L 156.052319 143.011798 
L 157.614697 142.369967 
L 156.681853 141.550165 
L 157.952921 137.893903 
L 158.537517 138.378264 
L 154.231478 139.081017 
L 153.579132 138.173912 
L 153.033133 136.147432 
L 153.505587 138.557772 
L 151.561771 137.661802 
L 153.495383 138.58105 
L 152.073513 135.860977 
L 150.888321 136.540636 
L 146.875286 133.171419 
L 144.88705 130.861296 
L 143.183418 134.066004 
L 143.553096 137.644459 
L 143.306987 139.614358 
L 144.719024 138.031645 
L 146.038957 137.062069 
L 148.870364 137.484703 
L 150.831108 138.28089 
L 152.433648 139.942016 
L 153.276887 137.423235 
L 153.374243 140.34408 
L 150.739895 139.010615 
L 149.338719 137.949761 
L 150.493058 136.938754 
L 149.403125 136.732319 
L 150.618581 137.168445 
L 153.314272 136.521824 
L 153.813006 134.046483 
L 155.461588 133.773198 
L 149.761497 135.454619 
L 149.6861 139.349027 
L 149.269186 136.018814 
L 148.975066 131.767624 
L 146.69882 131.640585 
L 149.125784 132.885177 
L 147.225733 136.041431 
L 150.337473 135.947262 
L 146.040226 133.648478 
L 142.951806 130.491854 
L 137.151183 130.898287 
L 136.482405 132.760379 
L 139.901749 132.565148 
L 136.533271 135.235023 
L 139.047704 136.616487 
L 139.280664 137.343045 
L 137.780143 139.440481 
L 135.031021 138.218161 
L 137.020648 136.330955 
L 133.471482 134.460458 
L 132.387755 135.352471 
L 132.14998 134.814764 
L 133.791165 136.018771 
L 139.432369 134.895067 
L 140.786933 135.505026 
L 134.960365 133.02137 
L 134.428688 132.005436 
L 134.532317 134.512099 
L 138.993837 131.256986 
L 137.973631 131.692128 
L 144.229625 131.593588 
L 143.891311 130.61913 
L 142.501314 128.04102 
L 135.998098 125.299497 
L 134.89987 125.295376 
L 132.846157 123.258593 
L 132.246727 122.239043 
L 128.245373 120.567294 
L 131.038989 118.937174 
L 132.051768 121.1767 
L 132.706004 124.46464 
L 135.503814 124.833196 
L 136.63591 126.782107 
L 135.989103 128.805377 
L 136.920524 130.897504 
L 136.652244 129.443088 
L 133.843249 128.835358 
L 135.78274 130.485519 
L 133.908349 129.946828 
L 134.220279 131.931542 
L 134.145625 133.933078 
L 137.047439 134.182382 
L 135.480016 136.074834 
L 138.906009 134.535849 
L 138.60196 134.980592 
L 141.49615 133.121173 
L 138.794109 133.058877 
L 137.036086 137.003773 
L 138.601317 142.649613 
L 138.211369 142.647867 
L 136.402141 139.608429 
L 134.652175 137.856749 
L 132.363027 140.616443 
L 132.511592 142.360665 
L 129.82897 142.96273 
L 128.88721 142.092863 
L 128.018169 141.535604 
L 129.646685 140.38766 
L 131.911203 141.864841 
L 132.714603 138.168026 
L 133.614078 135.505688 
L 136.691006 132.30443 
L 138.298563 131.237239 
L 137.798111 130.161827 
L 138.306188 131.576518 
L 134.840515 132.986697 
L 135.047576 131.825637 
L 140.048298 132.394311 
L 137.737897 133.955262 
L 138.311427 129.668959 
L 136.962889 132.173659 
L 138.937384 126.785179 
L 137.477095 124.659316 
L 137.323195 126.69901 
L 138.640673 128.005379 
L 138.929019 129.782443 
L 137.355581 129.149044 
L 137.086773 129.208921 
L 135.03654 131.158694 
L 134.230558 135.460274 
L 135.574324 136.161487 
L 135.782372 135.542743 
L 135.270732 133.314365 
L 138.574677 130.202188 
L 137.222545 133.02919 
L 137.312616 133.187671 
L 135.110371 135.665035 
L 137.867849 139.463646 
L 141.943402 138.030534 
L 140.645357 137.679384 
L 142.431772 139.11893 
L 140.08992 135.968591 
L 140.08992 135.968591 
" clip-path="url(#pca71ba66a0)" style="fill: none; stroke: #8000ff; stroke-width: 2; stroke-linecap: square"/>
   </g>
  </g>
 </g>
 <defs>
  <clipPath id="pca71ba66a0">
   <rect x="3.6" y="3.6" width="266.112" height="266.112"/>
  </clipPath>
 </defs>
</svg>
