<?xml version="1.0" encoding="utf-8" standalone="no"?>
<!DOCTYPE svg PUBLIC "-//W3C//DTD SVG 1.1//EN"
  "http://www.w3.org/Graphics/SVG/1.1/DTD/svg11.dtd">
<svg xmlns:xlink="http://www.w3.org/1999/xlink" width="394.884317pt" height="318.786375pt" viewBox="0 0 394.884317 318.786375" xmlns="http://www.w3.org/2000/svg" version="1.1">
<style>:root { --axis-color:#000; --grid-stroke:rgba(0,0,0,0.2); --plot3d-stroke:rgba(0,0,0,0.3); --plot3d-grid:rgba(0,0,0,0.2); }
@media (prefers-color-scheme:dark) { :root { --axis-color:#fff; --grid-stroke:rgba(255,255,255,0.2); --plot3d-stroke:rgba(255,255,255,0.3); --plot3d-grid:rgba(255,255,255,0.2); } }
.black{fill:#000000;stroke:#000000;}:root{--black:#000000;}.c1{fill:#FF0001;stroke:#FF0001;}:root{--c1:#FF0001;}.c2{fill:#00FF02;stroke:#00FF02;}:root{--c2:#00FF02;}.c3{fill:#0000FF;stroke:#0000FF;}:root{--c3:#0000FF;}.c4{fill:#FF00FF;stroke:#FF00FF;}:root{--c4:#FF00FF;}.c5{fill:#00FFFF;stroke:#00FFFF;}:root{--c5:#00FFFF;}.c6{fill:#FFFF00;stroke:#FFFF00;}:root{--c6:#FFFF00;}.c7{fill:#FF8000;stroke:#FF8000;}:root{--c7:#FF8000;}.c8{fill:#8000FF;stroke:#8000FF;}:root{--c8:#8000FF;}.gray{fill:#7f7f7f;stroke:#7f7f7f;}:root{--gray:#7f7f7f;}.grey{fill:#7f7f7f;stroke:#7f7f7f;}:root{--grey:#7f7f7f;}.octonary{fill:#bcbd22;stroke:#bcbd22;}:root{--octonary:#bcbd22;}.primary{fill:#d62728;stroke:#d62728;}:root{--primary:#d62728;}.quaternary{fill:#9467bd;stroke:#9467bd;}:root{--quaternary:#9467bd;}.quinary{fill:#8c564b;stroke:#8c564b;}:root{--quinary:#8c564b;}.secondary{fill:#2ca02c;stroke:#2ca02c;}:root{--secondary:#2ca02c;}.senary{fill:#e377c2;stroke:#e377c2;}:root{--senary:#e377c2;}.septenary{fill:#7f7f7f;stroke:#7f7f7f;}:root{--septenary:#7f7f7f;}.tertiary{fill:#1f77b4;stroke:#1f77b4;}:root{--tertiary:#1f77b4;}.white{fill:#ffffff;stroke:#ffffff;}:root{--white:#ffffff;}
@media (prefers-color-scheme:dark) { .black{fill:#FFFFFF;stroke:#FFFFFF;}:root{--black:#FFFFFF;}.c1{fill:#FF0001;stroke:#FF0001;}:root{--c1:#FF0001;}.c2{fill:#00FF02;stroke:#00FF02;}:root{--c2:#00FF02;}.c3{fill:#0000FF;stroke:#0000FF;}:root{--c3:#0000FF;}.c4{fill:#FF00FF;stroke:#FF00FF;}:root{--c4:#FF00FF;}.c5{fill:#00FFFF;stroke:#00FFFF;}:root{--c5:#00FFFF;}.c6{fill:#FFFF00;stroke:#FFFF00;}:root{--c6:#FFFF00;}.c7{fill:#FF8000;stroke:#FF8000;}:root{--c7:#FF8000;}.c8{fill:#8000FF;stroke:#8000FF;}:root{--c8:#8000FF;}.gray{fill:#CCCCCC;stroke:#CCCCCC;}:root{--gray:#CCCCCC;}.grey{fill:#CCCCCC;stroke:#CCCCCC;}:root{--grey:#CCCCCC;}.octonary{fill:#E6DB74;stroke:#E6DB74;}:root{--octonary:#E6DB74;}.primary{fill:#FF4A98;stroke:#FF4A98;}:root{--primary:#FF4A98;}.quaternary{fill:#B4A0FF;stroke:#B4A0FF;}:root{--quaternary:#B4A0FF;}.quinary{fill:#FFB86B;stroke:#FFB86B;}:root{--quinary:#FFB86B;}.secondary{fill:#0AFAFA;stroke:#0AFAFA;}:root{--secondary:#0AFAFA;}.senary{fill:#FF79C6;stroke:#FF79C6;}:root{--senary:#FF79C6;}.septenary{fill:#CCCCCC;stroke:#CCCCCC;}:root{--septenary:#CCCCCC;}.tertiary{fill:#7F83FF;stroke:#7F83FF;}:root{--tertiary:#7F83FF;}.white{fill:#000000;stroke:#000000;}:root{--white:#000000;} }
text,.text { fill:var(--axis-color)!important; stroke:none!important; }
.axis line,.axis path,.tick line,.tick path,path.domain,line.grid { stroke:var(--axis-color)!important; }
.legend text { fill:var(--axis-color)!important; }
.patch path[style*="stroke: currentColor"] { stroke:var(--axis-color)!important; }
g.legend>g:first-child>path:first-child { fill:rgba(255,255,255,0.8)!important; stroke:rgba(0,0,0,0.1)!important; }
@media (prefers-color-scheme:dark) { g.legend>g:first-child>path:first-child { fill:rgba(26,26,26,0.8)!important; stroke:rgba(255,255,255,0.1)!important; } }
.plot3d path,.plot3d polygon { stroke:var(--plot3d-stroke)!important; }
.plot3d-grid line { stroke:var(--plot3d-grid)!important; }
.plot3d-surface path[style*="fill:"] { fill-opacity:0.9!important; }
@media (prefers-color-scheme:dark) { .plot3d-surface path[style*="fill:"] { fill-opacity:0.95!important; filter:saturate(1.2)!important; } }</style>

 <metadata>
  <rdf:RDF xmlns:dc="http://purl.org/dc/elements/1.1/" xmlns:cc="http://creativecommons.org/ns#" xmlns:rdf="http://www.w3.org/1999/02/22-rdf-syntax-ns#">
   <cc:Work>
    <dc:type rdf:resource="http://purl.org/dc/dcmitype/StillImage"/>
    <dc:date>2026-01-03T22:19:51.425359</dc:date>
    <dc:format>image/svg+xml</dc:format>
    <dc:creator>
     <cc:Agent>
      <dc:title>Matplotlib v3.10.0, https://matplotlib.org/</dc:title>
     </cc:Agent>
    </dc:creator>
   </cc:Work>
  </rdf:RDF>
 </metadata>
 <defs>
  <style type="text/css">*{stroke-linejoin: round; stroke-linecap: butt}</style>
 </defs>
 <g id="figure_1">
  <g class="patch">
   <path d="M 0 318.786375 
L 394.884317 318.786375 
L 394.884317 0 
L 0 0 
L 0 318.786375 
z
" style="fill: none"/>
  </g>
  <g id="axes_1">
   <g class="patch">
    <path d="M 30.972188 284.830125 
L 179.772188 284.830125 
L 179.772188 18.718125 
L 30.972188 18.718125 
L 30.972188 284.830125 
z
" style="fill: none"/>
   </g>
   <g class="axis">
    <g class="tick xtick">
     <g id="line2d_1">
      <path d="M 37.735824 284.830125 
L 37.735824 18.718125 
" clip-path="url(#p9841f55b7f)" style="fill: none; stroke: #b0b0b0; stroke-opacity: 0.15; stroke-width: 0.5; stroke-linecap: square"/>
     </g>
     <g id="line2d_2">
      <defs>
       <path id="m74ef8939b8" d="M 0 0 
L 0 3.5 
" style="stroke:var(--black); stroke-width: 0.8"/>
      </defs>
      <g>
       <use xlink:href="#m74ef8939b8" x="37.735824" y="284.830125" style="stroke:var(--black); stroke-width: 0.8"/>
      </g>
     </g>
     <g id="text_1" class="text">
      <!-- 0.0 -->
      <g transform="translate(30.579418 298.668719) scale(0.09 -0.09)">
       <defs>
        <path id="DejaVuSerif-30" d="M 2034 219 
Q 2513 219 2750 744 
Q 2988 1269 2988 2328 
Q 2988 3391 2750 3916 
Q 2513 4441 2034 4441 
Q 1556 4441 1318 3916 
Q 1081 3391 1081 2328 
Q 1081 1269 1318 744 
Q 1556 219 2034 219 
z
M 2034 -91 
Q 1275 -91 848 546 
Q 422 1184 422 2328 
Q 422 3475 848 4112 
Q 1275 4750 2034 4750 
Q 2797 4750 3222 4112 
Q 3647 3475 3647 2328 
Q 3647 1184 3222 546 
Q 2797 -91 2034 -91 
z
" transform="scale(0.015625)"/>
        <path id="DejaVuSerif-2e" d="M 603 325 
Q 603 500 722 622 
Q 841 744 1019 744 
Q 1191 744 1312 622 
Q 1434 500 1434 325 
Q 1434 153 1312 31 
Q 1191 -91 1019 -91 
Q 841 -91 722 29 
Q 603 150 603 325 
z
" transform="scale(0.015625)"/>
       </defs>
       <use xlink:href="#DejaVuSerif-30"/>
       <use xlink:href="#DejaVuSerif-2e" transform="translate(63.623047 0)"/>
       <use xlink:href="#DejaVuSerif-30" transform="translate(95.410156 0)"/>
      </g>
     </g>
    </g>
    <g class="tick xtick">
     <g id="line2d_3">
      <path d="M 71.554006 284.830125 
L 71.554006 18.718125 
" clip-path="url(#p9841f55b7f)" style="fill: none; stroke: #b0b0b0; stroke-opacity: 0.15; stroke-width: 0.5; stroke-linecap: square"/>
     </g>
     <g id="line2d_4">
      <g>
       <use xlink:href="#m74ef8939b8" x="71.554006" y="284.830125" style="stroke:var(--black); stroke-width: 0.8"/>
      </g>
     </g>
     <g id="text_2" class="text">
      <!-- 2.5 -->
      <g transform="translate(64.397599 298.668719) scale(0.09 -0.09)">
       <defs>
        <path id="DejaVuSerif-32" d="M 819 3553 
L 469 3553 
L 469 4384 
Q 803 4563 1142 4656 
Q 1481 4750 1806 4750 
Q 2534 4750 2956 4397 
Q 3378 4044 3378 3438 
Q 3378 2753 2422 1800 
Q 2347 1728 2309 1691 
L 1131 513 
L 3078 513 
L 3078 1088 
L 3444 1088 
L 3444 0 
L 434 0 
L 434 341 
L 1850 1753 
Q 2319 2222 2519 2614 
Q 2719 3006 2719 3438 
Q 2719 3909 2473 4175 
Q 2228 4441 1797 4441 
Q 1350 4441 1106 4219 
Q 863 3997 819 3553 
z
" transform="scale(0.015625)"/>
        <path id="DejaVuSerif-35" d="M 3219 4666 
L 3219 4153 
L 1081 4153 
L 1081 2816 
Q 1244 2928 1461 2984 
Q 1678 3041 1947 3041 
Q 2703 3041 3140 2622 
Q 3578 2203 3578 1478 
Q 3578 738 3136 323 
Q 2694 -91 1894 -91 
Q 1572 -91 1234 -12 
Q 897 66 544 225 
L 544 1131 
L 897 1131 
Q 925 688 1179 453 
Q 1434 219 1894 219 
Q 2388 219 2653 544 
Q 2919 869 2919 1478 
Q 2919 2084 2655 2407 
Q 2391 2731 1894 2731 
Q 1613 2731 1398 2631 
Q 1184 2531 1019 2322 
L 750 2322 
L 750 4666 
L 3219 4666 
z
" transform="scale(0.015625)"/>
       </defs>
       <use xlink:href="#DejaVuSerif-32"/>
       <use xlink:href="#DejaVuSerif-2e" transform="translate(63.623047 0)"/>
       <use xlink:href="#DejaVuSerif-35" transform="translate(95.410156 0)"/>
      </g>
     </g>
    </g>
    <g class="tick xtick">
     <g id="line2d_5">
      <path d="M 105.372188 284.830125 
L 105.372188 18.718125 
" clip-path="url(#p9841f55b7f)" style="fill: none; stroke: #b0b0b0; stroke-opacity: 0.15; stroke-width: 0.5; stroke-linecap: square"/>
     </g>
     <g id="line2d_6">
      <g>
       <use xlink:href="#m74ef8939b8" x="105.372188" y="284.830125" style="stroke:var(--black); stroke-width: 0.8"/>
      </g>
     </g>
     <g id="text_3" class="text">
      <!-- 5.0 -->
      <g transform="translate(98.215781 298.668719) scale(0.09 -0.09)">
       <use xlink:href="#DejaVuSerif-35"/>
       <use xlink:href="#DejaVuSerif-2e" transform="translate(63.623047 0)"/>
       <use xlink:href="#DejaVuSerif-30" transform="translate(95.410156 0)"/>
      </g>
     </g>
    </g>
    <g class="tick xtick">
     <g id="line2d_7">
      <path d="M 139.190369 284.830125 
L 139.190369 18.718125 
" clip-path="url(#p9841f55b7f)" style="fill: none; stroke: #b0b0b0; stroke-opacity: 0.15; stroke-width: 0.5; stroke-linecap: square"/>
     </g>
     <g id="line2d_8">
      <g>
       <use xlink:href="#m74ef8939b8" x="139.190369" y="284.830125" style="stroke:var(--black); stroke-width: 0.8"/>
      </g>
     </g>
     <g id="text_4" class="text">
      <!-- 7.5 -->
      <g transform="translate(132.033963 298.668719) scale(0.09 -0.09)">
       <defs>
        <path id="DejaVuSerif-37" d="M 3609 4347 
L 1784 0 
L 1319 0 
L 3059 4153 
L 903 4153 
L 903 3578 
L 538 3578 
L 538 4666 
L 3609 4666 
L 3609 4347 
z
" transform="scale(0.015625)"/>
       </defs>
       <use xlink:href="#DejaVuSerif-37"/>
       <use xlink:href="#DejaVuSerif-2e" transform="translate(63.623047 0)"/>
       <use xlink:href="#DejaVuSerif-35" transform="translate(95.410156 0)"/>
      </g>
     </g>
    </g>
    <g class="tick xtick">
     <g id="line2d_9">
      <path d="M 173.008551 284.830125 
L 173.008551 18.718125 
" clip-path="url(#p9841f55b7f)" style="fill: none; stroke: #b0b0b0; stroke-opacity: 0.15; stroke-width: 0.5; stroke-linecap: square"/>
     </g>
     <g id="line2d_10">
      <g>
       <use xlink:href="#m74ef8939b8" x="173.008551" y="284.830125" style="stroke:var(--black); stroke-width: 0.8"/>
      </g>
     </g>
     <g id="text_5" class="text">
      <!-- 10.0 -->
      <g transform="translate(162.98902 298.668719) scale(0.09 -0.09)">
       <defs>
        <path id="DejaVuSerif-31" d="M 909 0 
L 909 331 
L 1722 331 
L 1722 4213 
L 781 3603 
L 781 4013 
L 1919 4750 
L 2350 4750 
L 2350 331 
L 3163 331 
L 3163 0 
L 909 0 
z
" transform="scale(0.015625)"/>
       </defs>
       <use xlink:href="#DejaVuSerif-31"/>
       <use xlink:href="#DejaVuSerif-30" transform="translate(63.623047 0)"/>
       <use xlink:href="#DejaVuSerif-2e" transform="translate(127.246094 0)"/>
       <use xlink:href="#DejaVuSerif-30" transform="translate(159.033203 0)"/>
      </g>
     </g>
    </g>
    <g id="text_6" class="text">
     <!-- Time -->
     <g transform="translate(91.473516 312.898719) scale(0.11 -0.11)">
      <defs>
       <path id="DejaVuSerif-54" d="M 1222 0 
L 1222 331 
L 1819 331 
L 1819 4294 
L 447 4294 
L 447 3566 
L 63 3566 
L 63 4666 
L 4206 4666 
L 4206 3566 
L 3822 3566 
L 3822 4294 
L 2450 4294 
L 2450 331 
L 3047 331 
L 3047 0 
L 1222 0 
z
" transform="scale(0.015625)"/>
       <path id="DejaVuSerif-69" d="M 622 4353 
Q 622 4497 726 4603 
Q 831 4709 978 4709 
Q 1122 4709 1226 4603 
Q 1331 4497 1331 4353 
Q 1331 4206 1228 4103 
Q 1125 4000 978 4000 
Q 831 4000 726 4103 
Q 622 4206 622 4353 
z
M 1356 331 
L 1900 331 
L 1900 0 
L 231 0 
L 231 331 
L 781 331 
L 781 2988 
L 231 2988 
L 231 3322 
L 1356 3322 
L 1356 331 
z
" transform="scale(0.015625)"/>
       <path id="DejaVuSerif-6d" d="M 3316 2675 
Q 3481 3041 3739 3227 
Q 3997 3413 4341 3413 
Q 4863 3413 5119 3089 
Q 5375 2766 5375 2113 
L 5375 331 
L 5894 331 
L 5894 0 
L 4300 0 
L 4300 331 
L 4800 331 
L 4800 2047 
Q 4800 2556 4650 2772 
Q 4500 2988 4153 2988 
Q 3769 2988 3567 2697 
Q 3366 2406 3366 1850 
L 3366 331 
L 3866 331 
L 3866 0 
L 2291 0 
L 2291 331 
L 2791 331 
L 2791 2069 
Q 2791 2566 2641 2777 
Q 2491 2988 2144 2988 
Q 1759 2988 1557 2697 
Q 1356 2406 1356 1850 
L 1356 331 
L 1856 331 
L 1856 0 
L 263 0 
L 263 331 
L 781 331 
L 781 2994 
L 231 2994 
L 231 3322 
L 1356 3322 
L 1356 2731 
Q 1516 3063 1762 3238 
Q 2009 3413 2322 3413 
Q 2709 3413 2968 3220 
Q 3228 3028 3316 2675 
z
" transform="scale(0.015625)"/>
       <path id="DejaVuSerif-65" d="M 3469 1600 
L 991 1600 
L 991 1575 
Q 991 903 1244 561 
Q 1497 219 1991 219 
Q 2369 219 2611 417 
Q 2853 616 2950 1006 
L 3413 1006 
Q 3275 459 2904 184 
Q 2534 -91 1931 -91 
Q 1203 -91 761 389 
Q 319 869 319 1663 
Q 319 2450 753 2931 
Q 1188 3413 1894 3413 
Q 2647 3413 3050 2948 
Q 3453 2484 3469 1600 
z
M 2791 1931 
Q 2772 2513 2545 2808 
Q 2319 3103 1894 3103 
Q 1497 3103 1269 2806 
Q 1041 2509 991 1931 
L 2791 1931 
z
" transform="scale(0.015625)"/>
      </defs>
      <use xlink:href="#DejaVuSerif-54"/>
      <use xlink:href="#DejaVuSerif-69" transform="translate(66.699219 0)"/>
      <use xlink:href="#DejaVuSerif-6d" transform="translate(98.681641 0)"/>
      <use xlink:href="#DejaVuSerif-65" transform="translate(193.505859 0)"/>
     </g>
    </g>
   </g>
   <g class="axis">
    <g class="tick ytick">
     <g id="line2d_11">
      <path d="M 30.972188 267.983519 
L 179.772188 267.983519 
" clip-path="url(#p9841f55b7f)" style="fill: none; stroke: #b0b0b0; stroke-opacity: 0.15; stroke-width: 0.5; stroke-linecap: square"/>
     </g>
     <g id="line2d_12">
      <defs>
       <path id="m0756e8f4e5" d="M 0 0 
L -3.5 0 
" style="stroke:var(--black); stroke-width: 0.8"/>
      </defs>
      <g>
       <use xlink:href="#m0756e8f4e5" x="30.972188" y="267.983519" style="stroke:var(--black); stroke-width: 0.8"/>
      </g>
     </g>
     <g id="text_7" class="text">
      <!-- 1 -->
      <g transform="translate(18.245938 271.402816) scale(0.09 -0.09)">
       <use xlink:href="#DejaVuSerif-31"/>
      </g>
     </g>
    </g>
    <g class="tick ytick">
     <g id="line2d_13">
      <path d="M 30.972188 231.622952 
L 179.772188 231.622952 
" clip-path="url(#p9841f55b7f)" style="fill: none; stroke: #b0b0b0; stroke-opacity: 0.15; stroke-width: 0.5; stroke-linecap: square"/>
     </g>
     <g id="line2d_14">
      <g>
       <use xlink:href="#m0756e8f4e5" x="30.972188" y="231.622952" style="stroke:var(--black); stroke-width: 0.8"/>
      </g>
     </g>
     <g id="text_8" class="text">
      <!-- 2 -->
      <g transform="translate(18.245938 235.042249) scale(0.09 -0.09)">
       <use xlink:href="#DejaVuSerif-32"/>
      </g>
     </g>
    </g>
    <g class="tick ytick">
     <g id="line2d_15">
      <path d="M 30.972188 195.262385 
L 179.772188 195.262385 
" clip-path="url(#p9841f55b7f)" style="fill: none; stroke: #b0b0b0; stroke-opacity: 0.15; stroke-width: 0.5; stroke-linecap: square"/>
     </g>
     <g id="line2d_16">
      <g>
       <use xlink:href="#m0756e8f4e5" x="30.972188" y="195.262385" style="stroke:var(--black); stroke-width: 0.8"/>
      </g>
     </g>
     <g id="text_9" class="text">
      <!-- 3 -->
      <g transform="translate(18.245938 198.681682) scale(0.09 -0.09)">
       <defs>
        <path id="DejaVuSerif-33" d="M 622 4469 
Q 988 4606 1323 4678 
Q 1659 4750 1953 4750 
Q 2638 4750 3022 4454 
Q 3406 4159 3406 3634 
Q 3406 3213 3140 2930 
Q 2875 2647 2388 2547 
Q 2963 2466 3280 2130 
Q 3597 1794 3597 1259 
Q 3597 606 3158 257 
Q 2719 -91 1894 -91 
Q 1528 -91 1179 -12 
Q 831 66 488 225 
L 488 1131 
L 838 1131 
Q 869 681 1141 450 
Q 1413 219 1906 219 
Q 2384 219 2661 495 
Q 2938 772 2938 1253 
Q 2938 1803 2653 2086 
Q 2369 2369 1819 2369 
L 1522 2369 
L 1522 2688 
L 1678 2688 
Q 2225 2688 2498 2914 
Q 2772 3141 2772 3597 
Q 2772 4006 2547 4223 
Q 2322 4441 1900 4441 
Q 1478 4441 1245 4241 
Q 1013 4041 972 3647 
L 622 3647 
L 622 4469 
z
" transform="scale(0.015625)"/>
       </defs>
       <use xlink:href="#DejaVuSerif-33"/>
      </g>
     </g>
    </g>
    <g class="tick ytick">
     <g id="line2d_17">
      <path d="M 30.972188 158.901818 
L 179.772188 158.901818 
" clip-path="url(#p9841f55b7f)" style="fill: none; stroke: #b0b0b0; stroke-opacity: 0.15; stroke-width: 0.5; stroke-linecap: square"/>
     </g>
     <g id="line2d_18">
      <g>
       <use xlink:href="#m0756e8f4e5" x="30.972188" y="158.901818" style="stroke:var(--black); stroke-width: 0.8"/>
      </g>
     </g>
     <g id="text_10" class="text">
      <!-- 4 -->
      <g transform="translate(18.245938 162.321115) scale(0.09 -0.09)">
       <defs>
        <path id="DejaVuSerif-34" d="M 2234 1581 
L 2234 4063 
L 641 1581 
L 2234 1581 
z
M 3609 0 
L 1484 0 
L 1484 331 
L 2234 331 
L 2234 1247 
L 197 1247 
L 197 1588 
L 2241 4750 
L 2859 4750 
L 2859 1581 
L 3750 1581 
L 3750 1247 
L 2859 1247 
L 2859 331 
L 3609 331 
L 3609 0 
z
" transform="scale(0.015625)"/>
       </defs>
       <use xlink:href="#DejaVuSerif-34"/>
      </g>
     </g>
    </g>
    <g class="tick ytick">
     <g id="line2d_19">
      <path d="M 30.972188 122.541251 
L 179.772188 122.541251 
" clip-path="url(#p9841f55b7f)" style="fill: none; stroke: #b0b0b0; stroke-opacity: 0.15; stroke-width: 0.5; stroke-linecap: square"/>
     </g>
     <g id="line2d_20">
      <g>
       <use xlink:href="#m0756e8f4e5" x="30.972188" y="122.541251" style="stroke:var(--black); stroke-width: 0.8"/>
      </g>
     </g>
     <g id="text_11" class="text">
      <!-- 5 -->
      <g transform="translate(18.245938 125.960548) scale(0.09 -0.09)">
       <use xlink:href="#DejaVuSerif-35"/>
      </g>
     </g>
    </g>
    <g class="tick ytick">
     <g id="line2d_21">
      <path d="M 30.972188 86.180684 
L 179.772188 86.180684 
" clip-path="url(#p9841f55b7f)" style="fill: none; stroke: #b0b0b0; stroke-opacity: 0.15; stroke-width: 0.5; stroke-linecap: square"/>
     </g>
     <g id="line2d_22">
      <g>
       <use xlink:href="#m0756e8f4e5" x="30.972188" y="86.180684" style="stroke:var(--black); stroke-width: 0.8"/>
      </g>
     </g>
     <g id="text_12" class="text">
      <!-- 6 -->
      <g transform="translate(18.245938 89.599981) scale(0.09 -0.09)">
       <defs>
        <path id="DejaVuSerif-36" d="M 2094 219 
Q 2534 219 2771 542 
Q 3009 866 3009 1472 
Q 3009 2078 2771 2401 
Q 2534 2725 2094 2725 
Q 1647 2725 1412 2412 
Q 1178 2100 1178 1509 
Q 1178 888 1415 553 
Q 1653 219 2094 219 
z
M 1075 2569 
Q 1288 2803 1556 2918 
Q 1825 3034 2163 3034 
Q 2859 3034 3264 2615 
Q 3669 2197 3669 1472 
Q 3669 763 3233 336 
Q 2797 -91 2069 -91 
Q 1278 -91 853 498 
Q 428 1088 428 2181 
Q 428 3406 931 4078 
Q 1434 4750 2350 4750 
Q 2597 4750 2869 4703 
Q 3141 4656 3425 4563 
L 3425 3794 
L 3072 3794 
Q 3034 4109 2831 4275 
Q 2628 4441 2284 4441 
Q 1678 4441 1381 3981 
Q 1084 3522 1075 2569 
z
" transform="scale(0.015625)"/>
       </defs>
       <use xlink:href="#DejaVuSerif-36"/>
      </g>
     </g>
    </g>
    <g class="tick ytick">
     <g id="line2d_23">
      <path d="M 30.972188 49.820117 
L 179.772188 49.820117 
" clip-path="url(#p9841f55b7f)" style="fill: none; stroke: #b0b0b0; stroke-opacity: 0.15; stroke-width: 0.5; stroke-linecap: square"/>
     </g>
     <g id="line2d_24">
      <g>
       <use xlink:href="#m0756e8f4e5" x="30.972188" y="49.820117" style="stroke:var(--black); stroke-width: 0.8"/>
      </g>
     </g>
     <g id="text_13" class="text">
      <!-- 7 -->
      <g transform="translate(18.245938 53.239414) scale(0.09 -0.09)">
       <use xlink:href="#DejaVuSerif-37"/>
      </g>
     </g>
    </g>
    <g id="text_14" class="text">
     <!-- Population -->
     <g transform="translate(11.958281 181.490453) rotate(-90) scale(0.11 -0.11)">
      <defs>
       <path id="DejaVuSerif-50" d="M 1581 2375 
L 2406 2375 
Q 2872 2375 3115 2626 
Q 3359 2878 3359 3353 
Q 3359 3831 3115 4081 
Q 2872 4331 2406 4331 
L 1581 4331 
L 1581 2375 
z
M 353 0 
L 353 331 
L 947 331 
L 947 4331 
L 353 4331 
L 353 4666 
L 2559 4666 
Q 3259 4666 3668 4311 
Q 4078 3956 4078 3353 
Q 4078 2753 3668 2397 
Q 3259 2041 2559 2041 
L 1581 2041 
L 1581 331 
L 2303 331 
L 2303 0 
L 353 0 
z
" transform="scale(0.015625)"/>
       <path id="DejaVuSerif-6f" d="M 1925 219 
Q 2388 219 2623 584 
Q 2859 950 2859 1663 
Q 2859 2375 2623 2739 
Q 2388 3103 1925 3103 
Q 1463 3103 1227 2739 
Q 991 2375 991 1663 
Q 991 950 1228 584 
Q 1466 219 1925 219 
z
M 1925 -91 
Q 1200 -91 759 389 
Q 319 869 319 1663 
Q 319 2456 758 2934 
Q 1197 3413 1925 3413 
Q 2653 3413 3092 2934 
Q 3531 2456 3531 1663 
Q 3531 869 3092 389 
Q 2653 -91 1925 -91 
z
" transform="scale(0.015625)"/>
       <path id="DejaVuSerif-70" d="M 1313 1825 
L 1313 1497 
Q 1313 897 1542 583 
Q 1772 269 2209 269 
Q 2650 269 2876 622 
Q 3103 975 3103 1663 
Q 3103 2353 2876 2703 
Q 2650 3053 2209 3053 
Q 1772 3053 1542 2737 
Q 1313 2422 1313 1825 
z
M 738 2988 
L 184 2988 
L 184 3322 
L 1313 3322 
L 1313 2803 
Q 1481 3116 1742 3264 
Q 2003 3413 2388 3413 
Q 3000 3413 3387 2928 
Q 3775 2444 3775 1663 
Q 3775 881 3387 395 
Q 3000 -91 2388 -91 
Q 2003 -91 1742 57 
Q 1481 206 1313 519 
L 1313 -997 
L 1856 -997 
L 1856 -1331 
L 184 -1331 
L 184 -997 
L 738 -997 
L 738 2988 
z
" transform="scale(0.015625)"/>
       <path id="DejaVuSerif-75" d="M 2266 3322 
L 3341 3322 
L 3341 331 
L 3884 331 
L 3884 0 
L 2766 0 
L 2766 588 
Q 2606 256 2353 82 
Q 2100 -91 1766 -91 
Q 1213 -91 952 223 
Q 691 538 691 1209 
L 691 2988 
L 172 2988 
L 172 3322 
L 1269 3322 
L 1269 1388 
Q 1269 781 1417 556 
Q 1566 331 1947 331 
Q 2347 331 2556 625 
Q 2766 919 2766 1478 
L 2766 2988 
L 2266 2988 
L 2266 3322 
z
" transform="scale(0.015625)"/>
       <path id="DejaVuSerif-6c" d="M 1313 331 
L 1856 331 
L 1856 0 
L 184 0 
L 184 331 
L 738 331 
L 738 4531 
L 184 4531 
L 184 4863 
L 1313 4863 
L 1313 331 
z
" transform="scale(0.015625)"/>
       <path id="DejaVuSerif-61" d="M 2547 1044 
L 2547 1747 
L 1806 1747 
Q 1378 1747 1168 1562 
Q 959 1378 959 997 
Q 959 650 1171 447 
Q 1384 244 1747 244 
Q 2106 244 2326 466 
Q 2547 688 2547 1044 
z
M 3122 2075 
L 3122 331 
L 3634 331 
L 3634 0 
L 2547 0 
L 2547 359 
Q 2356 128 2106 18 
Q 1856 -91 1522 -91 
Q 969 -91 644 203 
Q 319 497 319 997 
Q 319 1513 691 1797 
Q 1063 2081 1741 2081 
L 2547 2081 
L 2547 2309 
Q 2547 2688 2317 2895 
Q 2088 3103 1672 3103 
Q 1328 3103 1125 2947 
Q 922 2791 872 2484 
L 575 2484 
L 575 3156 
Q 875 3284 1158 3348 
Q 1441 3413 1709 3413 
Q 2400 3413 2761 3070 
Q 3122 2728 3122 2075 
z
" transform="scale(0.015625)"/>
       <path id="DejaVuSerif-74" d="M 691 2988 
L 184 2988 
L 184 3322 
L 691 3322 
L 691 4353 
L 1269 4353 
L 1269 3322 
L 2350 3322 
L 2350 2988 
L 1269 2988 
L 1269 878 
Q 1269 456 1350 337 
Q 1431 219 1650 219 
Q 1875 219 1978 351 
Q 2081 484 2088 781 
L 2522 781 
Q 2497 328 2275 118 
Q 2053 -91 1600 -91 
Q 1103 -91 897 129 
Q 691 350 691 878 
L 691 2988 
z
" transform="scale(0.015625)"/>
       <path id="DejaVuSerif-6e" d="M 263 0 
L 263 331 
L 781 331 
L 781 2988 
L 231 2988 
L 231 3322 
L 1356 3322 
L 1356 2731 
Q 1516 3069 1770 3241 
Q 2025 3413 2363 3413 
Q 2913 3413 3172 3097 
Q 3431 2781 3431 2113 
L 3431 331 
L 3944 331 
L 3944 0 
L 2356 0 
L 2356 331 
L 2853 331 
L 2853 1931 
Q 2853 2541 2703 2767 
Q 2553 2994 2175 2994 
Q 1775 2994 1565 2701 
Q 1356 2409 1356 1850 
L 1356 331 
L 1856 331 
L 1856 0 
L 263 0 
z
" transform="scale(0.015625)"/>
      </defs>
      <use xlink:href="#DejaVuSerif-50"/>
      <use xlink:href="#DejaVuSerif-6f" transform="translate(63.285156 0)"/>
      <use xlink:href="#DejaVuSerif-70" transform="translate(123.490234 0)"/>
      <use xlink:href="#DejaVuSerif-75" transform="translate(187.503906 0)"/>
      <use xlink:href="#DejaVuSerif-6c" transform="translate(251.908203 0)"/>
      <use xlink:href="#DejaVuSerif-61" transform="translate(283.890625 0)"/>
      <use xlink:href="#DejaVuSerif-74" transform="translate(343.509766 0)"/>
      <use xlink:href="#DejaVuSerif-69" transform="translate(383.695312 0)"/>
      <use xlink:href="#DejaVuSerif-6f" transform="translate(415.677734 0)"/>
      <use xlink:href="#DejaVuSerif-6e" transform="translate(475.882812 0)"/>
     </g>
    </g>
   </g>
   <g id="line2d_25">
    <path d="M 37.735824 267.983519 
L 39.102215 267.241492 
L 40.468606 266.484323 
L 41.834997 265.711701 
L 43.201389 264.923312 
L 44.56778 264.118834 
L 45.934171 263.297939 
L 47.300562 262.460291 
L 48.666953 261.605549 
L 50.033345 260.733364 
L 51.399736 259.84338 
L 52.766127 258.935233 
L 54.132518 258.008554 
L 55.498909 257.062963 
L 56.8653 256.098075 
L 58.231692 255.113497 
L 59.598083 254.108825 
L 60.964474 253.083651 
L 62.330865 252.037556 
L 63.697256 250.970112 
L 65.063648 249.880885 
L 66.430039 248.769429 
L 67.79643 247.635292 
L 69.162821 246.478009 
L 70.529212 245.297109 
L 71.895603 244.09211 
L 73.261995 242.86252 
L 74.628386 241.607838 
L 75.994777 240.32755 
L 77.361168 239.021135 
L 78.727559 237.688059 
L 80.093951 236.327779 
L 81.460342 234.939739 
L 82.826733 233.523372 
L 84.193124 232.078101 
L 85.559515 230.603336 
L 86.925907 229.098474 
L 88.292298 227.562902 
L 89.658689 225.995993 
L 91.02508 224.397107 
L 92.391471 222.765592 
L 93.757862 221.100782 
L 95.124254 219.401998 
L 96.490645 217.668545 
L 97.857036 215.899717 
L 99.223427 214.094792 
L 100.589818 212.253033 
L 101.95621 210.373689 
L 103.322601 208.455991 
L 104.688992 206.499159 
L 106.055383 204.502392 
L 107.421774 202.464876 
L 108.788165 200.38578 
L 110.154557 198.264255 
L 111.520948 196.099435 
L 112.887339 193.890436 
L 114.25373 191.636358 
L 115.620121 189.336279 
L 116.986513 186.989261 
L 118.352904 184.594347 
L 119.719295 182.150559 
L 121.085686 179.656899 
L 122.452077 177.11235 
L 123.818468 174.515873 
L 125.18486 171.866409 
L 126.551251 169.162876 
L 127.917642 166.40417 
L 129.284033 163.589167 
L 130.650424 160.716716 
L 132.016816 157.785646 
L 133.383207 154.79476 
L 134.749598 151.742838 
L 136.115989 148.628634 
L 137.48238 145.450877 
L 138.848772 142.208269 
L 140.215163 138.899489 
L 141.581554 135.523184 
L 142.947945 132.077978 
L 144.314336 128.562464 
L 145.680727 124.975207 
L 147.047119 121.314744 
L 148.41351 117.579579 
L 149.779901 113.76819 
L 151.146292 109.879019 
L 152.512683 105.910481 
L 153.879075 101.860955 
L 155.245466 97.728788 
L 156.611857 93.512294 
L 157.978248 89.209752 
L 159.344639 84.819406 
L 160.71103 80.339465 
L 162.077422 75.768099 
L 163.443813 71.103443 
L 164.810204 66.343594 
L 166.176595 61.486608 
L 167.542986 56.530503 
L 168.909378 51.473256 
L 170.275769 46.312805 
L 171.64216 41.047041 
L 173.008551 35.673816 
" clip-path="url(#p9841f55b7f)" style="fill: none; stroke:var(--black); stroke-width: 2; stroke-linecap: square"/>
   </g>
   <g id="line2d_26">
    <path d="M 37.735824 261.569325 
L 39.102215 265.786498 
L 40.468606 262.925576 
L 41.834997 257.563686 
L 43.201389 258.132765 
L 44.56778 267.672272 
L 45.934171 259.843363 
L 47.300562 263.010634 
L 48.666953 261.980859 
L 50.033345 259.240404 
L 51.399736 259.319629 
L 52.766127 253.647412 
L 54.132518 255.241378 
L 55.498909 256.620546 
L 56.8653 254.484164 
L 58.231692 253.900238 
L 59.598083 248.676269 
L 60.964474 253.829618 
L 62.330865 250.899224 
L 63.697256 254.075653 
L 65.063648 259.163701 
L 66.430039 246.392835 
L 67.79643 244.492153 
L 69.162821 249.176563 
L 70.529212 237.044153 
L 71.895603 249.380266 
L 73.261995 242.69614 
L 74.628386 242.288449 
L 75.994777 234.754278 
L 77.361168 233.678463 
L 78.727559 237.124662 
L 80.093951 234.952759 
L 81.460342 238.167778 
L 82.826733 240.72566 
L 84.193124 233.343129 
L 85.559515 230.034842 
L 86.925907 224.625067 
L 88.292298 223.190981 
L 89.658689 227.404335 
L 91.02508 225.496297 
L 92.391471 226.57819 
L 93.757862 226.264048 
L 95.124254 225.606093 
L 96.490645 210.575415 
L 97.857036 217.752842 
L 99.223427 215.687655 
L 100.589818 216.808268 
L 101.95621 207.54669 
L 103.322601 214.324215 
L 104.688992 207.272694 
L 106.055383 207.758359 
L 107.421774 201.058077 
L 108.788165 202.243097 
L 110.154557 202.557101 
L 111.520948 196.201907 
L 112.887339 192.332997 
L 114.25373 191.394497 
L 115.620121 188.236474 
L 116.986513 189.295693 
L 118.352904 185.913295 
L 119.719295 184.595663 
L 121.085686 180.964255 
L 122.452077 180.068996 
L 123.818468 180.792735 
L 125.18486 171.221277 
L 126.551251 170.623774 
L 127.917642 172.331664 
L 129.284033 161.906464 
L 130.650424 164.015704 
L 132.016816 157.59677 
L 133.383207 152.143746 
L 134.749598 151.273849 
L 136.115989 144.485708 
L 137.48238 149.940773 
L 138.848772 140.745332 
L 140.215163 141.389497 
L 141.581554 138.689452 
L 142.947945 134.182709 
L 144.314336 129.695287 
L 145.680727 124.770987 
L 147.047119 125.551295 
L 148.41351 114.304123 
L 149.779901 112.075015 
L 151.146292 115.464889 
L 152.512683 100.499112 
L 153.879075 94.967394 
L 155.245466 93.442678 
L 156.611857 94.166511 
L 157.978248 93.103069 
L 159.344639 80.98536 
L 160.71103 81.805439 
L 162.077422 71.323219 
L 163.443813 70.346144 
L 164.810204 62.792479 
L 166.176595 60.190839 
L 167.542986 53.961363 
L 168.909378 51.435078 
L 170.275769 39.819278 
L 171.64216 40.585581 
L 173.008551 34.21216 
" clip-path="url(#p9841f55b7f)" style="fill: none; stroke: #808080; stroke-opacity: 0.7; stroke-linecap: square"/>
   </g>
   <g id="line2d_27">
    <path d="M 37.735824 261.136277 
L 39.102215 272.142021 
L 40.468606 271.103878 
L 41.834997 262.18692 
L 43.201389 269.188855 
L 44.56778 257.051717 
L 45.934171 264.801881 
L 47.300562 265.178079 
L 48.666953 254.613623 
L 50.033345 255.350128 
L 51.399736 253.052829 
L 52.766127 255.640804 
L 54.132518 261.140019 
L 55.498909 250.117859 
L 56.8653 257.072551 
L 58.231692 252.19572 
L 59.598083 250.664564 
L 60.964474 253.647277 
L 62.330865 249.804728 
L 63.697256 247.616917 
L 65.063648 248.51218 
L 66.430039 252.766913 
L 67.79643 246.550881 
L 69.162821 241.655195 
L 70.529212 247.822597 
L 71.895603 244.63619 
L 73.261995 244.444763 
L 74.628386 234.88381 
L 75.994777 237.883048 
L 77.361168 237.539581 
L 78.727559 240.487518 
L 80.093951 234.367038 
L 81.460342 237.39165 
L 82.826733 233.407634 
L 84.193124 234.390073 
L 85.559515 228.143786 
L 86.925907 227.001957 
L 88.292298 228.320288 
L 89.658689 224.55609 
L 91.02508 228.371541 
L 92.391471 228.18789 
L 93.757862 219.503129 
L 95.124254 218.795963 
L 96.490645 215.359535 
L 97.857036 207.234468 
L 99.223427 210.660611 
L 100.589818 215.572107 
L 101.95621 206.312154 
L 103.322601 213.240705 
L 104.688992 208.177506 
L 106.055383 204.750522 
L 107.421774 196.235065 
L 108.788165 203.093751 
L 110.154557 201.269232 
L 111.520948 196.457414 
L 112.887339 196.302881 
L 114.25373 187.539846 
L 115.620121 193.262971 
L 116.986513 191.161523 
L 118.352904 186.186286 
L 119.719295 183.961433 
L 121.085686 172.641011 
L 122.452077 173.660202 
L 123.818468 174.197532 
L 125.18486 176.322162 
L 126.551251 166.092724 
L 127.917642 170.04101 
L 129.284033 169.206042 
L 130.650424 156.396972 
L 132.016816 156.633225 
L 133.383207 151.446465 
L 134.749598 150.583926 
L 136.115989 145.513149 
L 137.48238 147.818043 
L 138.848772 145.968835 
L 140.215163 136.421173 
L 141.581554 138.444428 
L 142.947945 134.58522 
L 144.314336 130.218806 
L 145.680727 124.911652 
L 147.047119 122.601886 
L 148.41351 122.57898 
L 149.779901 116.108423 
L 151.146292 117.963439 
L 152.512683 103.637104 
L 153.879075 107.686127 
L 155.245466 101.744388 
L 156.611857 93.322619 
L 157.978248 91.898845 
L 159.344639 79.208918 
L 160.71103 85.040366 
L 162.077422 74.797087 
L 163.443813 71.246278 
L 164.810204 70.590848 
L 166.176595 59.583944 
L 167.542986 57.154255 
L 168.909378 48.666982 
L 170.275769 43.318497 
L 171.64216 33.181392 
L 173.008551 30.814125 
" clip-path="url(#p9841f55b7f)" style="fill: none; stroke: #808080; stroke-opacity: 0.7; stroke-linecap: square"/>
   </g>
   <g id="line2d_28">
    <path d="M 37.735824 269.325885 
L 39.102215 268.111889 
L 40.468606 262.485898 
L 41.834997 263.329125 
L 43.201389 262.595757 
L 44.56778 269.998178 
L 45.934171 263.38639 
L 47.300562 265.143813 
L 48.666953 260.587727 
L 50.033345 261.090244 
L 51.399736 256.533918 
L 52.766127 257.78181 
L 54.132518 255.149421 
L 55.498909 258.758889 
L 56.8653 259.532136 
L 58.231692 256.604461 
L 59.598083 254.170713 
L 60.964474 251.705034 
L 62.330865 243.82258 
L 63.697256 251.123762 
L 65.063648 253.356755 
L 66.430039 250.027439 
L 67.79643 249.320953 
L 69.162821 244.727315 
L 70.529212 250.899535 
L 71.895603 243.862086 
L 73.261995 242.293454 
L 74.628386 240.763614 
L 75.994777 242.499425 
L 77.361168 239.886232 
L 78.727559 242.866025 
L 80.093951 238.121518 
L 81.460342 236.913614 
L 82.826733 232.010591 
L 84.193124 236.282046 
L 85.559515 227.762855 
L 86.925907 223.664444 
L 88.292298 235.089485 
L 89.658689 224.446092 
L 91.02508 221.935831 
L 92.391471 225.08335 
L 93.757862 222.545285 
L 95.124254 219.885159 
L 96.490645 218.75133 
L 97.857036 217.023306 
L 99.223427 220.188837 
L 100.589818 208.06309 
L 101.95621 206.448134 
L 103.322601 211.41343 
L 104.688992 211.831161 
L 106.055383 202.607771 
L 107.421774 204.558474 
L 108.788165 199.86963 
L 110.154557 199.425351 
L 111.520948 193.584961 
L 112.887339 191.364289 
L 114.25373 194.274671 
L 115.620121 194.366269 
L 116.986513 192.744915 
L 118.352904 182.374973 
L 119.719295 186.473319 
L 121.085686 181.499712 
L 122.452077 179.280582 
L 123.818468 174.707011 
L 125.18486 178.906832 
L 126.551251 168.476466 
L 127.917642 164.499273 
L 129.284033 163.267659 
L 130.650424 161.847116 
L 132.016816 157.431493 
L 133.383207 153.343805 
L 134.749598 161.824142 
L 136.115989 141.516826 
L 137.48238 144.032475 
L 138.848772 144.580464 
L 140.215163 140.321017 
L 141.581554 133.727911 
L 142.947945 132.500139 
L 144.314336 135.946148 
L 145.680727 117.468594 
L 147.047119 121.716676 
L 148.41351 113.870174 
L 149.779901 116.284522 
L 151.146292 104.292665 
L 152.512683 104.869319 
L 153.879075 99.647164 
L 155.245466 101.529388 
L 156.611857 89.108501 
L 157.978248 86.701534 
L 159.344639 80.08582 
L 160.71103 82.623227 
L 162.077422 77.517141 
L 163.443813 62.726271 
L 164.810204 70.197871 
L 166.176595 61.980928 
L 167.542986 52.396701 
L 168.909378 51.117923 
L 170.275769 44.193152 
L 171.64216 42.49946 
L 173.008551 34.328272 
" clip-path="url(#p9841f55b7f)" style="fill: none; stroke: #808080; stroke-opacity: 0.7; stroke-linecap: square"/>
   </g>
   <g id="line2d_29">
    <path d="M 37.735824 272.734125 
L 39.102215 261.212435 
L 40.468606 266.913974 
L 41.834997 268.184867 
L 43.201389 262.500305 
L 44.56778 265.794037 
L 45.934171 268.149378 
L 47.300562 267.357032 
L 48.666953 259.08295 
L 50.033345 261.313582 
L 51.399736 260.329526 
L 52.766127 255.016496 
L 54.132518 262.105756 
L 55.498909 259.719749 
L 56.8653 257.49752 
L 58.231692 254.770429 
L 59.598083 254.262163 
L 60.964474 254.126789 
L 62.330865 252.261633 
L 63.697256 251.36028 
L 65.063648 252.497407 
L 66.430039 251.725518 
L 67.79643 246.637135 
L 69.162821 249.717427 
L 70.529212 249.505319 
L 71.895603 245.227623 
L 73.261995 243.435807 
L 74.628386 233.402263 
L 75.994777 242.88988 
L 77.361168 235.591385 
L 78.727559 234.97124 
L 80.093951 240.65085 
L 81.460342 232.128147 
L 82.826733 237.828029 
L 84.193124 241.747002 
L 85.559515 228.398724 
L 86.925907 235.482992 
L 88.292298 225.923279 
L 89.658689 228.483095 
L 91.02508 218.362886 
L 92.391471 218.880432 
L 93.757862 222.749319 
L 95.124254 221.903014 
L 96.490645 222.083 
L 97.857036 217.502937 
L 99.223427 215.114181 
L 100.589818 213.57908 
L 101.95621 209.803905 
L 103.322601 206.352454 
L 104.688992 205.227795 
L 106.055383 207.280863 
L 107.421774 207.692768 
L 108.788165 195.424265 
L 110.154557 200.771131 
L 111.520948 198.471211 
L 112.887339 195.78551 
L 114.25373 198.337863 
L 115.620121 191.074219 
L 116.986513 188.733317 
L 118.352904 182.338689 
L 119.719295 179.610929 
L 121.085686 179.643188 
L 122.452077 173.724097 
L 123.818468 173.279741 
L 125.18486 171.92343 
L 126.551251 168.577732 
L 127.917642 167.097397 
L 129.284033 165.024862 
L 130.650424 161.69021 
L 132.016816 161.887159 
L 133.383207 153.775058 
L 134.749598 155.353892 
L 136.115989 145.568415 
L 137.48238 146.357922 
L 138.848772 142.028303 
L 140.215163 137.10387 
L 141.581554 133.184057 
L 142.947945 137.788854 
L 144.314336 129.314778 
L 145.680727 121.774827 
L 147.047119 127.489153 
L 148.41351 116.171406 
L 149.779901 121.969549 
L 151.146292 113.596912 
L 152.512683 105.770018 
L 153.879075 107.884865 
L 155.245466 101.312161 
L 156.611857 98.86397 
L 157.978248 83.21704 
L 159.344639 84.222265 
L 160.71103 78.276765 
L 162.077422 76.577758 
L 163.443813 72.388541 
L 164.810204 72.221185 
L 166.176595 62.547745 
L 167.542986 59.299332 
L 168.909378 48.353796 
L 170.275769 42.163693 
L 171.64216 35.714478 
L 173.008551 32.573889 
" clip-path="url(#p9841f55b7f)" style="fill: none; stroke: #808080; stroke-opacity: 0.7; stroke-linecap: square"/>
   </g>
   <g id="line2d_30">
    <path d="M 37.735824 270.160259 
L 39.102215 271.298957 
L 40.468606 263.696692 
L 41.834997 264.4162 
L 43.201389 271.353818 
L 44.56778 262.826282 
L 45.934171 260.336298 
L 47.300562 262.246034 
L 48.666953 262.278415 
L 50.033345 263.67002 
L 51.399736 265.103062 
L 52.766127 256.025305 
L 54.132518 259.132511 
L 55.498909 257.911861 
L 56.8653 249.797803 
L 58.231692 252.624612 
L 59.598083 252.760485 
L 60.964474 252.567106 
L 62.330865 246.510768 
L 63.697256 244.717588 
L 65.063648 246.501152 
L 66.430039 246.652428 
L 67.79643 255.251387 
L 69.162821 246.028149 
L 70.529212 245.770185 
L 71.895603 243.750491 
L 73.261995 239.433551 
L 74.628386 251.569459 
L 75.994777 242.397601 
L 77.361168 238.039747 
L 78.727559 239.385536 
L 80.093951 241.47973 
L 81.460342 231.780138 
L 82.826733 232.51665 
L 84.193124 235.609092 
L 85.559515 229.458642 
L 86.925907 226.111142 
L 88.292298 227.543658 
L 89.658689 223.085094 
L 91.02508 224.112549 
L 92.391471 224.202667 
L 93.757862 225.316501 
L 95.124254 219.714447 
L 96.490645 216.962085 
L 97.857036 212.71514 
L 99.223427 214.51333 
L 100.589818 210.589844 
L 101.95621 213.881073 
L 103.322601 211.301675 
L 104.688992 206.90054 
L 106.055383 208.337081 
L 107.421774 199.482409 
L 108.788165 198.701812 
L 110.154557 197.249447 
L 111.520948 194.86716 
L 112.887339 186.541807 
L 114.25373 193.341174 
L 115.620121 197.340844 
L 116.986513 186.264595 
L 118.352904 184.778345 
L 119.719295 184.032288 
L 121.085686 183.21598 
L 122.452077 178.709268 
L 123.818468 173.856517 
L 125.18486 173.694679 
L 126.551251 160.391057 
L 127.917642 169.896619 
L 129.284033 166.472986 
L 130.650424 169.038268 
L 132.016816 156.871234 
L 133.383207 162.126529 
L 134.749598 153.704326 
L 136.115989 149.630987 
L 137.48238 148.031488 
L 138.848772 135.88563 
L 140.215163 135.283814 
L 141.581554 130.726728 
L 142.947945 135.286503 
L 144.314336 124.458832 
L 145.680727 123.17172 
L 147.047119 118.509868 
L 148.41351 113.836482 
L 149.779901 117.072505 
L 151.146292 111.421862 
L 152.512683 102.774033 
L 153.879075 111.516936 
L 155.245466 92.226241 
L 156.611857 91.501074 
L 157.978248 89.375934 
L 159.344639 84.017628 
L 160.71103 84.084368 
L 162.077422 77.040513 
L 163.443813 67.102747 
L 164.810204 61.623912 
L 166.176595 51.682984 
L 167.542986 56.799297 
L 168.909378 53.867792 
L 170.275769 48.182588 
L 171.64216 44.748699 
L 173.008551 35.956901 
" clip-path="url(#p9841f55b7f)" style="fill: none; stroke: #808080; stroke-opacity: 0.7; stroke-linecap: square"/>
   </g>
   <g id="line2d_31">
    <path d="M 37.735824 266.591882 
L 39.102215 267.365999 
L 40.468606 262.497943 
L 41.834997 266.563323 
L 43.201389 266.186662 
L 44.56778 266.232359 
L 45.934171 269.23429 
L 47.300562 268.160783 
L 48.666953 265.893034 
L 50.033345 256.001298 
L 51.399736 256.588163 
L 52.766127 253.935786 
L 54.132518 262.852551 
L 55.498909 264.220994 
L 56.8653 258.498078 
L 58.231692 254.474209 
L 59.598083 252.295559 
L 60.964474 249.273165 
L 62.330865 251.003899 
L 63.697256 244.63367 
L 65.063648 250.690292 
L 66.430039 252.089437 
L 67.79643 253.748296 
L 69.162821 249.710359 
L 70.529212 244.416755 
L 71.895603 247.323547 
L 73.261995 239.456472 
L 74.628386 236.472534 
L 75.994777 248.943502 
L 77.361168 235.879392 
L 78.727559 245.831387 
L 80.093951 234.867906 
L 81.460342 230.48604 
L 82.826733 233.287552 
L 84.193124 236.731123 
L 85.559515 232.731997 
L 86.925907 230.049832 
L 88.292298 228.225555 
L 89.658689 226.733737 
L 91.02508 224.796647 
L 92.391471 221.989367 
L 93.757862 225.495225 
L 95.124254 220.281996 
L 96.490645 212.148062 
L 97.857036 217.29831 
L 99.223427 215.708606 
L 100.589818 208.332647 
L 101.95621 219.679029 
L 103.322601 204.160432 
L 104.688992 208.796797 
L 106.055383 203.906338 
L 107.421774 202.114646 
L 108.788165 196.958913 
L 110.154557 199.237245 
L 111.520948 198.564775 
L 112.887339 189.171395 
L 114.25373 200.232628 
L 115.620121 189.262343 
L 116.986513 191.890395 
L 118.352904 187.363471 
L 119.719295 174.837516 
L 121.085686 179.819051 
L 122.452077 176.403066 
L 123.818468 180.993737 
L 125.18486 174.517257 
L 126.551251 168.448182 
L 127.917642 165.114251 
L 129.284033 161.346132 
L 130.650424 160.685345 
L 132.016816 155.869429 
L 133.383207 153.144783 
L 134.749598 158.395878 
L 136.115989 148.494079 
L 137.48238 142.65874 
L 138.848772 140.063433 
L 140.215163 140.2225 
L 141.581554 138.452488 
L 142.947945 136.144224 
L 144.314336 129.038984 
L 145.680727 120.855265 
L 147.047119 128.411614 
L 148.41351 119.978983 
L 149.779901 117.912576 
L 151.146292 107.024869 
L 152.512683 107.925982 
L 153.879075 103.57222 
L 155.245466 98.517629 
L 156.611857 91.892819 
L 157.978248 90.636501 
L 159.344639 95.895355 
L 160.71103 78.363952 
L 162.077422 74.171714 
L 163.443813 71.901707 
L 164.810204 70.285212 
L 166.176595 60.207515 
L 167.542986 55.151581 
L 168.909378 53.182323 
L 170.275769 47.100852 
L 171.64216 44.429143 
L 173.008551 36.323176 
" clip-path="url(#p9841f55b7f)" style="fill: none; stroke: #808080; stroke-opacity: 0.7; stroke-linecap: square"/>
   </g>
   <g class="patch">
    <path d="M 30.972188 284.830125 
L 30.972188 18.718125 
" style="fill: none; stroke:var(--black); stroke-width: 0.8; stroke-linejoin: miter; stroke-linecap: square"/>
   </g>
   <g class="patch">
    <path d="M 30.972188 284.830125 
L 179.772188 284.830125 
" style="fill: none; stroke:var(--black); stroke-width: 0.8; stroke-linejoin: miter; stroke-linecap: square"/>
   </g>
   <g id="text_15" class="text">
    <!-- Bacterial Growth -->
    <g transform="translate(53.188125 12.718125) scale(0.12 -0.12)">
     <defs>
      <path id="DejaVuSerif-42" d="M 1581 331 
L 2516 331 
Q 3078 331 3337 575 
Q 3597 819 3597 1350 
Q 3597 1878 3339 2120 
Q 3081 2363 2516 2363 
L 1581 2363 
L 1581 331 
z
M 1581 2694 
L 2375 2694 
Q 2888 2694 3123 2891 
Q 3359 3088 3359 3513 
Q 3359 3941 3123 4136 
Q 2888 4331 2375 4331 
L 1581 4331 
L 1581 2694 
z
M 353 0 
L 353 331 
L 947 331 
L 947 4331 
L 353 4331 
L 353 4666 
L 2656 4666 
Q 3363 4666 3720 4377 
Q 4078 4088 4078 3513 
Q 4078 3097 3829 2850 
Q 3581 2603 3103 2547 
Q 3697 2472 4005 2167 
Q 4313 1863 4313 1350 
Q 4313 656 3875 328 
Q 3438 0 2509 0 
L 353 0 
z
" transform="scale(0.015625)"/>
      <path id="DejaVuSerif-63" d="M 3291 997 
Q 3169 466 2822 187 
Q 2475 -91 1925 -91 
Q 1200 -91 759 389 
Q 319 869 319 1663 
Q 319 2459 759 2936 
Q 1200 3413 1925 3413 
Q 2241 3413 2553 3339 
Q 2866 3266 3181 3116 
L 3181 2266 
L 2847 2266 
Q 2781 2703 2561 2903 
Q 2341 3103 1931 3103 
Q 1466 3103 1228 2742 
Q 991 2381 991 1663 
Q 991 944 1227 581 
Q 1463 219 1931 219 
Q 2303 219 2525 412 
Q 2747 606 2828 997 
L 3291 997 
z
" transform="scale(0.015625)"/>
      <path id="DejaVuSerif-72" d="M 3059 3328 
L 3059 2497 
L 2728 2497 
Q 2713 2744 2591 2866 
Q 2469 2988 2234 2988 
Q 1809 2988 1582 2694 
Q 1356 2400 1356 1850 
L 1356 331 
L 2022 331 
L 2022 0 
L 263 0 
L 263 331 
L 781 331 
L 781 2994 
L 231 2994 
L 231 3322 
L 1356 3322 
L 1356 2731 
Q 1525 3078 1790 3245 
Q 2056 3413 2438 3413 
Q 2578 3413 2733 3391 
Q 2888 3369 3059 3328 
z
" transform="scale(0.015625)"/>
      <path id="DejaVuSerif-20" transform="scale(0.015625)"/>
      <path id="DejaVuSerif-47" d="M 4097 3272 
Q 3988 3856 3641 4136 
Q 3294 4416 2675 4416 
Q 1869 4416 1472 3897 
Q 1075 3378 1075 2328 
Q 1075 1300 1484 772 
Q 1894 244 2688 244 
Q 3041 244 3362 331 
Q 3684 419 3975 594 
L 3975 1797 
L 3097 1797 
L 3097 2131 
L 4609 2131 
L 4609 391 
Q 4194 150 3714 29 
Q 3234 -91 2688 -91 
Q 1631 -91 995 570 
Q 359 1231 359 2328 
Q 359 3434 996 4092 
Q 1634 4750 2713 4750 
Q 3113 4750 3539 4658 
Q 3966 4566 4447 4378 
L 4447 3272 
L 4097 3272 
z
" transform="scale(0.015625)"/>
      <path id="DejaVuSerif-77" d="M 3072 3322 
L 3922 728 
L 4672 2988 
L 4191 2988 
L 4191 3322 
L 5394 3322 
L 5394 2988 
L 5025 2988 
L 4038 0 
L 3559 0 
L 2741 2484 
L 1919 0 
L 1459 0 
L 475 2988 
L 103 2988 
L 103 3322 
L 1606 3322 
L 1606 2988 
L 1069 2988 
L 1813 728 
L 2669 3322 
L 3072 3322 
z
" transform="scale(0.015625)"/>
      <path id="DejaVuSerif-68" d="M 263 0 
L 263 331 
L 781 331 
L 781 4531 
L 231 4531 
L 231 4863 
L 1356 4863 
L 1356 2731 
Q 1516 3069 1770 3241 
Q 2025 3413 2363 3413 
Q 2913 3413 3172 3097 
Q 3431 2781 3431 2113 
L 3431 331 
L 3944 331 
L 3944 0 
L 2356 0 
L 2356 331 
L 2853 331 
L 2853 1931 
Q 2853 2541 2704 2764 
Q 2556 2988 2175 2988 
Q 1775 2988 1565 2697 
Q 1356 2406 1356 1850 
L 1356 331 
L 1856 331 
L 1856 0 
L 263 0 
z
" transform="scale(0.015625)"/>
     </defs>
     <use xlink:href="#DejaVuSerif-42"/>
     <use xlink:href="#DejaVuSerif-61" transform="translate(73.486328 0)"/>
     <use xlink:href="#DejaVuSerif-63" transform="translate(133.105469 0)"/>
     <use xlink:href="#DejaVuSerif-74" transform="translate(189.111328 0)"/>
     <use xlink:href="#DejaVuSerif-65" transform="translate(229.296875 0)"/>
     <use xlink:href="#DejaVuSerif-72" transform="translate(288.476562 0)"/>
     <use xlink:href="#DejaVuSerif-69" transform="translate(336.279297 0)"/>
     <use xlink:href="#DejaVuSerif-61" transform="translate(368.261719 0)"/>
     <use xlink:href="#DejaVuSerif-6c" transform="translate(427.880859 0)"/>
     <use xlink:href="#DejaVuSerif-20" transform="translate(459.863281 0)"/>
     <use xlink:href="#DejaVuSerif-47" transform="translate(491.650391 0)"/>
     <use xlink:href="#DejaVuSerif-72" transform="translate(571.533203 0)"/>
     <use xlink:href="#DejaVuSerif-6f" transform="translate(619.335938 0)"/>
     <use xlink:href="#DejaVuSerif-77" transform="translate(679.541016 0)"/>
     <use xlink:href="#DejaVuSerif-74" transform="translate(765.136719 0)"/>
     <use xlink:href="#DejaVuSerif-68" transform="translate(805.322266 0)"/>
    </g>
   </g>
   <g class="legend">
    <g class="patch">
     <path d="M 37.972188 56.074375 
L 138.894063 56.074375 
Q 140.894063 56.074375 140.894063 54.074375 
L 140.894063 25.718125 
Q 140.894063 23.718125 138.894063 23.718125 
L 37.972188 23.718125 
Q 35.972188 23.718125 35.972188 25.718125 
L 35.972188 54.074375 
Q 35.972188 56.074375 37.972188 56.074375 
L 37.972188 56.074375 
z
" style="fill: none; opacity: 0.9; stroke: #cccccc; stroke-linejoin: miter"/>
    </g>
    <g id="line2d_32">
     <path d="M 39.972188 31.816562 
L 49.972188 31.816562 
L 59.972188 31.816562 
" style="fill: none; stroke:var(--black); stroke-width: 2; stroke-linecap: square"/>
    </g>
    <g id="text_16" class="text">
     <!-- Deterministic -->
     <g transform="translate(67.972188 35.316562) scale(0.1 -0.1)">
      <defs>
       <path id="DejaVuSerif-44" d="M 1581 331 
L 2163 331 
Q 3072 331 3558 850 
Q 4044 1369 4044 2338 
Q 4044 3306 3559 3818 
Q 3075 4331 2163 4331 
L 1581 4331 
L 1581 331 
z
M 353 0 
L 353 331 
L 947 331 
L 947 4331 
L 353 4331 
L 353 4666 
L 2209 4666 
Q 3416 4666 4089 4050 
Q 4763 3434 4763 2338 
Q 4763 1238 4088 619 
Q 3413 0 2209 0 
L 353 0 
z
" transform="scale(0.015625)"/>
       <path id="DejaVuSerif-73" d="M 359 184 
L 359 959 
L 691 959 
Q 703 588 923 403 
Q 1144 219 1575 219 
Q 1963 219 2166 364 
Q 2369 509 2369 788 
Q 2369 1006 2220 1140 
Q 2072 1275 1594 1428 
L 1178 1569 
Q 750 1706 558 1912 
Q 366 2119 366 2438 
Q 366 2894 700 3153 
Q 1034 3413 1625 3413 
Q 1888 3413 2178 3344 
Q 2469 3275 2778 3144 
L 2778 2419 
L 2447 2419 
Q 2434 2741 2221 2922 
Q 2009 3103 1644 3103 
Q 1281 3103 1095 2975 
Q 909 2847 909 2591 
Q 909 2381 1050 2254 
Q 1191 2128 1613 1997 
L 2069 1856 
Q 2541 1709 2748 1489 
Q 2956 1269 2956 922 
Q 2956 450 2595 179 
Q 2234 -91 1600 -91 
Q 1278 -91 972 -22 
Q 666 47 359 184 
z
" transform="scale(0.015625)"/>
      </defs>
      <use xlink:href="#DejaVuSerif-44"/>
      <use xlink:href="#DejaVuSerif-65" transform="translate(80.175781 0)"/>
      <use xlink:href="#DejaVuSerif-74" transform="translate(139.355469 0)"/>
      <use xlink:href="#DejaVuSerif-65" transform="translate(179.541016 0)"/>
      <use xlink:href="#DejaVuSerif-72" transform="translate(238.720703 0)"/>
      <use xlink:href="#DejaVuSerif-6d" transform="translate(286.523438 0)"/>
      <use xlink:href="#DejaVuSerif-69" transform="translate(381.347656 0)"/>
      <use xlink:href="#DejaVuSerif-6e" transform="translate(413.330078 0)"/>
      <use xlink:href="#DejaVuSerif-69" transform="translate(477.734375 0)"/>
      <use xlink:href="#DejaVuSerif-73" transform="translate(509.716797 0)"/>
      <use xlink:href="#DejaVuSerif-74" transform="translate(561.035156 0)"/>
      <use xlink:href="#DejaVuSerif-69" transform="translate(601.220703 0)"/>
      <use xlink:href="#DejaVuSerif-63" transform="translate(633.203125 0)"/>
     </g>
    </g>
    <g id="line2d_33">
     <path d="M 39.972188 46.494687 
L 49.972188 46.494687 
L 59.972188 46.494687 
" style="fill: none; stroke: #808080; stroke-opacity: 0.7; stroke-linecap: square"/>
    </g>
    <g id="text_17" class="text">
     <!-- Stochastic -->
     <g transform="translate(67.972188 49.994687) scale(0.1 -0.1)">
      <defs>
       <path id="DejaVuSerif-53" d="M 594 225 
L 594 1288 
L 953 1284 
Q 969 753 1261 498 
Q 1553 244 2150 244 
Q 2706 244 2998 464 
Q 3291 684 3291 1106 
Q 3291 1444 3114 1625 
Q 2938 1806 2369 1978 
L 1753 2163 
Q 1084 2366 811 2669 
Q 538 2972 538 3500 
Q 538 4094 959 4422 
Q 1381 4750 2144 4750 
Q 2469 4750 2856 4679 
Q 3244 4609 3681 4475 
L 3681 3481 
L 3328 3481 
Q 3275 3975 2998 4195 
Q 2722 4416 2156 4416 
Q 1663 4416 1405 4214 
Q 1147 4013 1147 3628 
Q 1147 3294 1340 3103 
Q 1534 2913 2163 2725 
L 2741 2553 
Q 3375 2363 3645 2067 
Q 3916 1772 3916 1275 
Q 3916 597 3481 253 
Q 3047 -91 2188 -91 
Q 1803 -91 1404 -12 
Q 1006 66 594 225 
z
" transform="scale(0.015625)"/>
      </defs>
      <use xlink:href="#DejaVuSerif-53"/>
      <use xlink:href="#DejaVuSerif-74" transform="translate(68.505859 0)"/>
      <use xlink:href="#DejaVuSerif-6f" transform="translate(108.691406 0)"/>
      <use xlink:href="#DejaVuSerif-63" transform="translate(168.896484 0)"/>
      <use xlink:href="#DejaVuSerif-68" transform="translate(224.902344 0)"/>
      <use xlink:href="#DejaVuSerif-61" transform="translate(289.306641 0)"/>
      <use xlink:href="#DejaVuSerif-73" transform="translate(348.925781 0)"/>
      <use xlink:href="#DejaVuSerif-74" transform="translate(400.244141 0)"/>
      <use xlink:href="#DejaVuSerif-69" transform="translate(440.429688 0)"/>
      <use xlink:href="#DejaVuSerif-63" transform="translate(472.412109 0)"/>
     </g>
    </g>
   </g>
  </g>
  <g id="axes_2">
   <g class="patch">
    <path d="M 239.292188 284.830125 
L 388.092188 284.830125 
L 388.092188 18.718125 
L 239.292188 18.718125 
L 239.292188 284.830125 
z
" style="fill: none"/>
   </g>
   <g class="axis">
    <g class="tick xtick">
     <g id="line2d_34">
      <path d="M 246.055824 284.830125 
L 246.055824 18.718125 
" clip-path="url(#p002b255796)" style="fill: none; stroke: #b0b0b0; stroke-opacity: 0.15; stroke-width: 0.5; stroke-linecap: square"/>
     </g>
     <g id="line2d_35">
      <g>
       <use xlink:href="#m74ef8939b8" x="246.055824" y="284.830125" style="stroke:var(--black); stroke-width: 0.8"/>
      </g>
     </g>
     <g id="text_18" class="text">
      <!-- 0 -->
      <g transform="translate(243.192699 298.668719) scale(0.09 -0.09)">
       <use xlink:href="#DejaVuSerif-30"/>
      </g>
     </g>
    </g>
    <g class="tick xtick">
     <g id="line2d_36">
      <path d="M 280.215603 284.830125 
L 280.215603 18.718125 
" clip-path="url(#p002b255796)" style="fill: none; stroke: #b0b0b0; stroke-opacity: 0.15; stroke-width: 0.5; stroke-linecap: square"/>
     </g>
     <g id="line2d_37">
      <g>
       <use xlink:href="#m74ef8939b8" x="280.215603" y="284.830125" style="stroke:var(--black); stroke-width: 0.8"/>
      </g>
     </g>
     <g id="text_19" class="text">
      <!-- 25 -->
      <g transform="translate(274.489353 298.668719) scale(0.09 -0.09)">
       <use xlink:href="#DejaVuSerif-32"/>
       <use xlink:href="#DejaVuSerif-35" transform="translate(63.623047 0)"/>
      </g>
     </g>
    </g>
    <g class="tick xtick">
     <g id="line2d_38">
      <path d="M 314.375383 284.830125 
L 314.375383 18.718125 
" clip-path="url(#p002b255796)" style="fill: none; stroke: #b0b0b0; stroke-opacity: 0.15; stroke-width: 0.5; stroke-linecap: square"/>
     </g>
     <g id="line2d_39">
      <g>
       <use xlink:href="#m74ef8939b8" x="314.375383" y="284.830125" style="stroke:var(--black); stroke-width: 0.8"/>
      </g>
     </g>
     <g id="text_20" class="text">
      <!-- 50 -->
      <g transform="translate(308.649133 298.668719) scale(0.09 -0.09)">
       <use xlink:href="#DejaVuSerif-35"/>
       <use xlink:href="#DejaVuSerif-30" transform="translate(63.623047 0)"/>
      </g>
     </g>
    </g>
    <g class="tick xtick">
     <g id="line2d_40">
      <path d="M 348.535163 284.830125 
L 348.535163 18.718125 
" clip-path="url(#p002b255796)" style="fill: none; stroke: #b0b0b0; stroke-opacity: 0.15; stroke-width: 0.5; stroke-linecap: square"/>
     </g>
     <g id="line2d_41">
      <g>
       <use xlink:href="#m74ef8939b8" x="348.535163" y="284.830125" style="stroke:var(--black); stroke-width: 0.8"/>
      </g>
     </g>
     <g id="text_21" class="text">
      <!-- 75 -->
      <g transform="translate(342.808913 298.668719) scale(0.09 -0.09)">
       <use xlink:href="#DejaVuSerif-37"/>
       <use xlink:href="#DejaVuSerif-35" transform="translate(63.623047 0)"/>
      </g>
     </g>
    </g>
    <g class="tick xtick">
     <g id="line2d_42">
      <path d="M 382.694942 284.830125 
L 382.694942 18.718125 
" clip-path="url(#p002b255796)" style="fill: none; stroke: #b0b0b0; stroke-opacity: 0.15; stroke-width: 0.5; stroke-linecap: square"/>
     </g>
     <g id="line2d_43">
      <g>
       <use xlink:href="#m74ef8939b8" x="382.694942" y="284.830125" style="stroke:var(--black); stroke-width: 0.8"/>
      </g>
     </g>
     <g id="text_22" class="text">
      <!-- 100 -->
      <g transform="translate(374.105567 298.668719) scale(0.09 -0.09)">
       <use xlink:href="#DejaVuSerif-31"/>
       <use xlink:href="#DejaVuSerif-30" transform="translate(63.623047 0)"/>
       <use xlink:href="#DejaVuSerif-30" transform="translate(127.246094 0)"/>
      </g>
     </g>
    </g>
    <g id="text_23" class="text">
     <!-- Time -->
     <g transform="translate(299.793516 312.898719) scale(0.11 -0.11)">
      <use xlink:href="#DejaVuSerif-54"/>
      <use xlink:href="#DejaVuSerif-69" transform="translate(66.699219 0)"/>
      <use xlink:href="#DejaVuSerif-6d" transform="translate(98.681641 0)"/>
      <use xlink:href="#DejaVuSerif-65" transform="translate(193.505859 0)"/>
     </g>
    </g>
   </g>
   <g class="axis">
    <g class="tick ytick">
     <g id="line2d_44">
      <path d="M 239.292188 268.641093 
L 388.092188 268.641093 
" clip-path="url(#p002b255796)" style="fill: none; stroke: #b0b0b0; stroke-opacity: 0.15; stroke-width: 0.5; stroke-linecap: square"/>
     </g>
     <g id="line2d_45">
      <g>
       <use xlink:href="#m0756e8f4e5" x="239.292188" y="268.641093" style="stroke:var(--black); stroke-width: 0.8"/>
      </g>
     </g>
     <g id="text_24" class="text">
      <!-- 94 -->
      <g transform="translate(220.839688 272.06039) scale(0.09 -0.09)">
       <defs>
        <path id="DejaVuSerif-39" d="M 2994 2091 
Q 2784 1856 2512 1740 
Q 2241 1625 1900 1625 
Q 1206 1625 804 2044 
Q 403 2463 403 3188 
Q 403 3897 839 4323 
Q 1275 4750 2003 4750 
Q 2794 4750 3217 4161 
Q 3641 3572 3641 2478 
Q 3641 1253 3137 581 
Q 2634 -91 1722 -91 
Q 1475 -91 1203 -44 
Q 931 3 647 97 
L 647 872 
L 997 872 
Q 1038 556 1241 387 
Q 1444 219 1784 219 
Q 2391 219 2687 676 
Q 2984 1134 2994 2091 
z
M 1978 4441 
Q 1534 4441 1298 4117 
Q 1063 3794 1063 3188 
Q 1063 2581 1298 2256 
Q 1534 1931 1978 1931 
Q 2422 1931 2658 2245 
Q 2894 2559 2894 3150 
Q 2894 3772 2656 4106 
Q 2419 4441 1978 4441 
z
" transform="scale(0.015625)"/>
       </defs>
       <use xlink:href="#DejaVuSerif-39"/>
       <use xlink:href="#DejaVuSerif-34" transform="translate(63.623047 0)"/>
      </g>
     </g>
    </g>
    <g class="tick ytick">
     <g id="line2d_46">
      <path d="M 239.292188 231.462307 
L 388.092188 231.462307 
" clip-path="url(#p002b255796)" style="fill: none; stroke: #b0b0b0; stroke-opacity: 0.15; stroke-width: 0.5; stroke-linecap: square"/>
     </g>
     <g id="line2d_47">
      <g>
       <use xlink:href="#m0756e8f4e5" x="239.292188" y="231.462307" style="stroke:var(--black); stroke-width: 0.8"/>
      </g>
     </g>
     <g id="text_25" class="text">
      <!-- 96 -->
      <g transform="translate(220.839688 234.881604) scale(0.09 -0.09)">
       <use xlink:href="#DejaVuSerif-39"/>
       <use xlink:href="#DejaVuSerif-36" transform="translate(63.623047 0)"/>
      </g>
     </g>
    </g>
    <g class="tick ytick">
     <g id="line2d_48">
      <path d="M 239.292188 194.28352 
L 388.092188 194.28352 
" clip-path="url(#p002b255796)" style="fill: none; stroke: #b0b0b0; stroke-opacity: 0.15; stroke-width: 0.5; stroke-linecap: square"/>
     </g>
     <g id="line2d_49">
      <g>
       <use xlink:href="#m0756e8f4e5" x="239.292188" y="194.28352" style="stroke:var(--black); stroke-width: 0.8"/>
      </g>
     </g>
     <g id="text_26" class="text">
      <!-- 98 -->
      <g transform="translate(220.839688 197.702817) scale(0.09 -0.09)">
       <defs>
        <path id="DejaVuSerif-38" d="M 2981 1275 
Q 2981 1775 2732 2051 
Q 2484 2328 2034 2328 
Q 1584 2328 1336 2051 
Q 1088 1775 1088 1275 
Q 1088 772 1336 495 
Q 1584 219 2034 219 
Q 2484 219 2732 495 
Q 2981 772 2981 1275 
z
M 2853 3541 
Q 2853 3966 2637 4203 
Q 2422 4441 2034 4441 
Q 1650 4441 1433 4203 
Q 1216 3966 1216 3541 
Q 1216 3113 1433 2875 
Q 1650 2638 2034 2638 
Q 2422 2638 2637 2875 
Q 2853 3113 2853 3541 
z
M 2516 2484 
Q 3047 2413 3344 2092 
Q 3641 1772 3641 1275 
Q 3641 619 3225 264 
Q 2809 -91 2034 -91 
Q 1263 -91 845 264 
Q 428 619 428 1275 
Q 428 1772 725 2092 
Q 1022 2413 1556 2484 
Q 1084 2569 832 2842 
Q 581 3116 581 3541 
Q 581 4103 968 4426 
Q 1356 4750 2034 4750 
Q 2713 4750 3100 4426 
Q 3488 4103 3488 3541 
Q 3488 3116 3236 2842 
Q 2984 2569 2516 2484 
z
" transform="scale(0.015625)"/>
       </defs>
       <use xlink:href="#DejaVuSerif-39"/>
       <use xlink:href="#DejaVuSerif-38" transform="translate(63.623047 0)"/>
      </g>
     </g>
    </g>
    <g class="tick ytick">
     <g id="line2d_50">
      <path d="M 239.292188 157.104733 
L 388.092188 157.104733 
" clip-path="url(#p002b255796)" style="fill: none; stroke: #b0b0b0; stroke-opacity: 0.15; stroke-width: 0.5; stroke-linecap: square"/>
     </g>
     <g id="line2d_51">
      <g>
       <use xlink:href="#m0756e8f4e5" x="239.292188" y="157.104733" style="stroke:var(--black); stroke-width: 0.8"/>
      </g>
     </g>
     <g id="text_27" class="text">
      <!-- 100 -->
      <g transform="translate(215.113438 160.52403) scale(0.09 -0.09)">
       <use xlink:href="#DejaVuSerif-31"/>
       <use xlink:href="#DejaVuSerif-30" transform="translate(63.623047 0)"/>
       <use xlink:href="#DejaVuSerif-30" transform="translate(127.246094 0)"/>
      </g>
     </g>
    </g>
    <g class="tick ytick">
     <g id="line2d_52">
      <path d="M 239.292188 119.925947 
L 388.092188 119.925947 
" clip-path="url(#p002b255796)" style="fill: none; stroke: #b0b0b0; stroke-opacity: 0.15; stroke-width: 0.5; stroke-linecap: square"/>
     </g>
     <g id="line2d_53">
      <g>
       <use xlink:href="#m0756e8f4e5" x="239.292188" y="119.925947" style="stroke:var(--black); stroke-width: 0.8"/>
      </g>
     </g>
     <g id="text_28" class="text">
      <!-- 102 -->
      <g transform="translate(215.113438 123.345244) scale(0.09 -0.09)">
       <use xlink:href="#DejaVuSerif-31"/>
       <use xlink:href="#DejaVuSerif-30" transform="translate(63.623047 0)"/>
       <use xlink:href="#DejaVuSerif-32" transform="translate(127.246094 0)"/>
      </g>
     </g>
    </g>
    <g class="tick ytick">
     <g id="line2d_54">
      <path d="M 239.292188 82.74716 
L 388.092188 82.74716 
" clip-path="url(#p002b255796)" style="fill: none; stroke: #b0b0b0; stroke-opacity: 0.15; stroke-width: 0.5; stroke-linecap: square"/>
     </g>
     <g id="line2d_55">
      <g>
       <use xlink:href="#m0756e8f4e5" x="239.292188" y="82.74716" style="stroke:var(--black); stroke-width: 0.8"/>
      </g>
     </g>
     <g id="text_29" class="text">
      <!-- 104 -->
      <g transform="translate(215.113438 86.166457) scale(0.09 -0.09)">
       <use xlink:href="#DejaVuSerif-31"/>
       <use xlink:href="#DejaVuSerif-30" transform="translate(63.623047 0)"/>
       <use xlink:href="#DejaVuSerif-34" transform="translate(127.246094 0)"/>
      </g>
     </g>
    </g>
    <g class="tick ytick">
     <g id="line2d_56">
      <path d="M 239.292188 45.568374 
L 388.092188 45.568374 
" clip-path="url(#p002b255796)" style="fill: none; stroke: #b0b0b0; stroke-opacity: 0.15; stroke-width: 0.5; stroke-linecap: square"/>
     </g>
     <g id="line2d_57">
      <g>
       <use xlink:href="#m0756e8f4e5" x="239.292188" y="45.568374" style="stroke:var(--black); stroke-width: 0.8"/>
      </g>
     </g>
     <g id="text_30" class="text">
      <!-- 106 -->
      <g transform="translate(215.113438 48.98767) scale(0.09 -0.09)">
       <use xlink:href="#DejaVuSerif-31"/>
       <use xlink:href="#DejaVuSerif-30" transform="translate(63.623047 0)"/>
       <use xlink:href="#DejaVuSerif-36" transform="translate(127.246094 0)"/>
      </g>
     </g>
    </g>
    <g id="text_31" class="text">
     <!-- Stock Price -->
     <g transform="translate(208.825781 183.647484) rotate(-90) scale(0.11 -0.11)">
      <defs>
       <path id="DejaVuSerif-6b" d="M 1831 0 
L 219 0 
L 219 331 
L 738 331 
L 738 4531 
L 184 4531 
L 184 4863 
L 1313 4863 
L 1313 1697 
L 2713 2988 
L 2234 2988 
L 2234 3322 
L 3738 3322 
L 3738 2988 
L 3169 2988 
L 2181 2075 
L 3444 331 
L 3922 331 
L 3922 0 
L 2284 0 
L 2284 331 
L 2759 331 
L 1766 1697 
L 1313 1275 
L 1313 331 
L 1831 331 
L 1831 0 
z
" transform="scale(0.015625)"/>
      </defs>
      <use xlink:href="#DejaVuSerif-53"/>
      <use xlink:href="#DejaVuSerif-74" transform="translate(68.505859 0)"/>
      <use xlink:href="#DejaVuSerif-6f" transform="translate(108.691406 0)"/>
      <use xlink:href="#DejaVuSerif-63" transform="translate(168.896484 0)"/>
      <use xlink:href="#DejaVuSerif-6b" transform="translate(224.902344 0)"/>
      <use xlink:href="#DejaVuSerif-20" transform="translate(285.498047 0)"/>
      <use xlink:href="#DejaVuSerif-50" transform="translate(317.285156 0)"/>
      <use xlink:href="#DejaVuSerif-72" transform="translate(384.570312 0)"/>
      <use xlink:href="#DejaVuSerif-69" transform="translate(432.373047 0)"/>
      <use xlink:href="#DejaVuSerif-63" transform="translate(464.355469 0)"/>
      <use xlink:href="#DejaVuSerif-65" transform="translate(520.361328 0)"/>
     </g>
    </g>
   </g>
   <g id="line2d_58">
    <path d="M 246.055824 157.104733 
L 247.422215 126.909139 
L 248.788606 138.281319 
L 250.154997 148.099712 
L 251.521389 168.045547 
L 252.88778 151.958145 
L 254.254171 194.742353 
L 255.620562 162.307361 
L 256.986953 176.457735 
L 258.353345 170.526992 
L 259.719736 175.162636 
L 261.086127 147.982936 
L 262.452518 186.279702 
L 263.818909 192.273242 
L 265.1853 199.41258 
L 266.551692 178.336494 
L 267.918083 198.782805 
L 269.284474 201.988141 
L 270.650865 218.306996 
L 272.017256 217.522268 
L 273.383648 206.688087 
L 274.750039 227.14793 
L 276.11643 205.868211 
L 277.482821 189.108186 
L 278.849212 179.767121 
L 280.215603 163.020756 
L 281.581995 175.730842 
L 282.948386 178.015296 
L 284.314777 195.410683 
L 285.681168 200.390559 
L 287.047559 190.531573 
L 288.413951 203.389127 
L 289.780342 210.764534 
L 291.146733 223.538658 
L 292.513124 239.250518 
L 293.879515 251.728576 
L 295.245907 251.964003 
L 296.612298 272.734125 
L 297.978689 268.376479 
L 299.34508 237.521764 
L 300.711471 223.727613 
L 302.077862 227.29372 
L 303.444254 243.794204 
L 304.810645 257.683423 
L 306.177036 226.221719 
L 307.543427 225.277233 
L 308.909818 237.118596 
L 310.27621 233.569593 
L 311.642601 194.527124 
L 313.008992 192.293442 
L 314.375383 180.820011 
L 315.741774 175.240027 
L 317.108165 181.788138 
L 318.474557 203.026858 
L 319.840948 209.520927 
L 321.207339 213.404144 
L 322.57373 202.499175 
L 323.940121 186.902982 
L 325.306513 169.594359 
L 326.672904 164.285464 
L 328.039295 147.831227 
L 329.405686 161.855027 
L 330.772077 138.564968 
L 332.138468 129.029914 
L 333.50486 134.571279 
L 334.871251 125.490023 
L 336.237642 126.894855 
L 337.604033 105.858551 
L 338.970424 77.606079 
L 340.336816 36.977558 
L 341.703207 62.937578 
L 343.069598 89.782777 
L 344.435989 99.160491 
L 345.80238 96.185499 
L 347.168772 79.898051 
L 348.535163 74.030589 
L 349.901554 111.622082 
L 351.267945 117.314229 
L 352.634336 101.922683 
L 354.000727 97.645361 
L 355.367119 83.480036 
L 356.73351 87.612981 
L 358.099901 91.344952 
L 359.466292 87.876889 
L 360.832683 80.254277 
L 362.199075 76.568006 
L 363.565466 74.355707 
L 364.931857 86.822912 
L 366.298248 79.804231 
L 367.664639 77.539647 
L 369.03103 56.543227 
L 370.397422 34.25607 
L 371.763813 30.814125 
L 373.130204 37.790445 
L 374.496595 49.664055 
L 375.862986 41.791552 
L 377.229378 40.353847 
L 378.595769 46.745878 
L 379.96216 45.935439 
L 381.328551 57.460879 
" clip-path="url(#p002b255796)" style="fill: none; stroke:var(--black); stroke-width: 1.5; stroke-linecap: square"/>
   </g>
   <g class="patch">
    <path d="M 239.292188 284.830125 
L 239.292188 18.718125 
" style="fill: none; stroke:var(--black); stroke-width: 0.8; stroke-linejoin: miter; stroke-linecap: square"/>
   </g>
   <g class="patch">
    <path d="M 239.292188 284.830125 
L 388.092188 284.830125 
" style="fill: none; stroke:var(--black); stroke-width: 0.8; stroke-linejoin: miter; stroke-linecap: square"/>
   </g>
   <g id="text_32" class="text">
    <!-- Stock Price Evolution -->
    <g transform="translate(248.041875 12.718125) scale(0.12 -0.12)">
     <defs>
      <path id="DejaVuSerif-45" d="M 353 0 
L 353 331 
L 947 331 
L 947 4331 
L 353 4331 
L 353 4666 
L 4109 4666 
L 4109 3628 
L 3725 3628 
L 3725 4281 
L 1581 4281 
L 1581 2719 
L 3109 2719 
L 3109 3303 
L 3494 3303 
L 3494 1753 
L 3109 1753 
L 3109 2338 
L 1581 2338 
L 1581 384 
L 3775 384 
L 3775 1038 
L 4159 1038 
L 4159 0 
L 353 0 
z
" transform="scale(0.015625)"/>
      <path id="DejaVuSerif-76" d="M 1581 0 
L 359 2988 
L -19 2988 
L -19 3322 
L 1509 3322 
L 1509 2988 
L 978 2988 
L 1913 703 
L 2847 2988 
L 2350 2988 
L 2350 3322 
L 3597 3322 
L 3597 2988 
L 3225 2988 
L 2003 0 
L 1581 0 
z
" transform="scale(0.015625)"/>
     </defs>
     <use xlink:href="#DejaVuSerif-53"/>
     <use xlink:href="#DejaVuSerif-74" transform="translate(68.505859 0)"/>
     <use xlink:href="#DejaVuSerif-6f" transform="translate(108.691406 0)"/>
     <use xlink:href="#DejaVuSerif-63" transform="translate(168.896484 0)"/>
     <use xlink:href="#DejaVuSerif-6b" transform="translate(224.902344 0)"/>
     <use xlink:href="#DejaVuSerif-20" transform="translate(285.498047 0)"/>
     <use xlink:href="#DejaVuSerif-50" transform="translate(317.285156 0)"/>
     <use xlink:href="#DejaVuSerif-72" transform="translate(384.570312 0)"/>
     <use xlink:href="#DejaVuSerif-69" transform="translate(432.373047 0)"/>
     <use xlink:href="#DejaVuSerif-63" transform="translate(464.355469 0)"/>
     <use xlink:href="#DejaVuSerif-65" transform="translate(520.361328 0)"/>
     <use xlink:href="#DejaVuSerif-20" transform="translate(579.541016 0)"/>
     <use xlink:href="#DejaVuSerif-45" transform="translate(611.328125 0)"/>
     <use xlink:href="#DejaVuSerif-76" transform="translate(684.326172 0)"/>
     <use xlink:href="#DejaVuSerif-6f" transform="translate(740.820312 0)"/>
     <use xlink:href="#DejaVuSerif-6c" transform="translate(801.025391 0)"/>
     <use xlink:href="#DejaVuSerif-75" transform="translate(833.007812 0)"/>
     <use xlink:href="#DejaVuSerif-74" transform="translate(897.412109 0)"/>
     <use xlink:href="#DejaVuSerif-69" transform="translate(937.597656 0)"/>
     <use xlink:href="#DejaVuSerif-6f" transform="translate(969.580078 0)"/>
     <use xlink:href="#DejaVuSerif-6e" transform="translate(1029.785156 0)"/>
    </g>
   </g>
   <g class="legend">
    <g class="patch">
     <path d="M 246.292188 41.39625 
L 331.132812 41.39625 
Q 333.132812 41.39625 333.132812 39.39625 
L 333.132812 25.718125 
Q 333.132812 23.718125 331.132812 23.718125 
L 246.292188 23.718125 
Q 244.292188 23.718125 244.292188 25.718125 
L 244.292188 39.39625 
Q 244.292188 41.39625 246.292188 41.39625 
L 246.292188 41.39625 
z
" style="fill: none; opacity: 0.9; stroke: #cccccc; stroke-linejoin: miter"/>
    </g>
    <g id="line2d_59">
     <path d="M 248.292188 31.816563 
L 258.292188 31.816563 
L 268.292188 31.816563 
" style="fill: none; stroke:var(--black); stroke-width: 1.5; stroke-linecap: square"/>
    </g>
    <g id="text_33" class="text">
     <!-- Stochastic -->
     <g transform="translate(276.292188 35.316563) scale(0.1 -0.1)">
      <use xlink:href="#DejaVuSerif-53"/>
      <use xlink:href="#DejaVuSerif-74" transform="translate(68.505859 0)"/>
      <use xlink:href="#DejaVuSerif-6f" transform="translate(108.691406 0)"/>
      <use xlink:href="#DejaVuSerif-63" transform="translate(168.896484 0)"/>
      <use xlink:href="#DejaVuSerif-68" transform="translate(224.902344 0)"/>
      <use xlink:href="#DejaVuSerif-61" transform="translate(289.306641 0)"/>
      <use xlink:href="#DejaVuSerif-73" transform="translate(348.925781 0)"/>
      <use xlink:href="#DejaVuSerif-74" transform="translate(400.244141 0)"/>
      <use xlink:href="#DejaVuSerif-69" transform="translate(440.429688 0)"/>
      <use xlink:href="#DejaVuSerif-63" transform="translate(472.412109 0)"/>
     </g>
    </g>
   </g>
  </g>
 </g>
 <defs>
  <clipPath id="p9841f55b7f">
   <rect x="30.972188" y="18.718125" width="148.8" height="266.112"/>
  </clipPath>
  <clipPath id="p002b255796">
   <rect x="239.292188" y="18.718125" width="148.8" height="266.112"/>
  </clipPath>
 </defs>
</svg>
