<?xml version="1.0" encoding="utf-8" standalone="no"?>
<!DOCTYPE svg PUBLIC "-//W3C//DTD SVG 1.1//EN"
  "http://www.w3.org/Graphics/SVG/1.1/DTD/svg11.dtd">
<svg xmlns:xlink="http://www.w3.org/1999/xlink" width="453.242813pt" height="336.634375pt" viewBox="0 0 453.242813 336.634375" xmlns="http://www.w3.org/2000/svg" version="1.1">
        <style>
            /* Light mode (default) */
            .c1 { fill: #d62728 !important; stroke: #d62728 !important; }
.c2 { fill: #2ca02c !important; stroke: #2ca02c !important; }
.c3 { fill: #1f77b4 !important; stroke: #1f77b4 !important; }
.c4 { fill: #9467bd !important; stroke: #9467bd !important; }
.c5 { fill: #8c564b !important; stroke: #8c564b !important; }
.c6 { fill: #e377c2 !important; stroke: #e377c2 !important; }
.c7 { fill: #7f7f7f !important; stroke: #7f7f7f !important; }
.c8 { fill: #bcbd22 !important; stroke: #bcbd22 !important; }

            /* Text and graphic elements */
            text, .text {
                fill: #000000 !important;
                stroke: none !important;
            }

            .axis line, .axis path, .tick line, .tick path, path.domain, line.grid {
                stroke: #000000 !important;
            }

            .legend text {
                fill: #000000 !important;
            }

            g.legend > g:first-child > path:first-child {
                fill: rgba(255, 255, 255, 0.8) !important;
                stroke: rgba(0, 0, 0, 0.1) !important;
            }

            [stroke="currentColor"], [stroke="black"] {
                stroke: #000000 !important;
            }

            /* Dark mode via media query */
            @media (prefers-color-scheme: dark) {
                /* Dark theme colors */
                .c1 { fill: #FF4A98 !important; stroke: #FF4A98 !important; }
                .c2 { fill: #0AFAFA !important; stroke: #0AFAFA !important; }
                .c3 { fill: #7F83FF !important; stroke: #7F83FF !important; }
                .c4 { fill: #B4A0FF !important; stroke: #B4A0FF !important; }
                .c5 { fill: #FFB86B !important; stroke: #FFB86B !important; }
                .c6 { fill: #FF79C6 !important; stroke: #FF79C6 !important; }
                .c7 { fill: #CCCCCC !important; stroke: #CCCCCC !important; }
                .c8 { fill: #E6DB74 !important; stroke: #E6DB74 !important; }

                /* Dark theme text and graphics */
                text, .text {
                    fill: #FFFFFF !important;
                    stroke: none !important;
                }

                .axis line, .axis path, .tick line, .tick path, path.domain, line.grid {
                    stroke: #FFFFFF !important;
                }

                .grid line {
                    stroke: rgba(255, 255, 255, 0.2) !important;
                }

                .legend text {
                    fill: #FFFFFF !important;
                }

                g.legend > g:first-child > path:first-child {
                    fill: rgba(26, 26, 26, 0.8) !important;
                    stroke: rgba(255, 255, 255, 0.1) !important;
                }

                [stroke="currentColor"], [stroke="black"] {
                    stroke: #FFFFFF !important;
                }
            }
        </style>
        
 <metadata>
  <rdf:RDF xmlns:dc="http://purl.org/dc/elements/1.1/" xmlns:cc="http://creativecommons.org/ns#" xmlns:rdf="http://www.w3.org/1999/02/22-rdf-syntax-ns#">
   <cc:Work>
    <dc:type rdf:resource="http://purl.org/dc/dcmitype/StillImage"/>
    <dc:date>2025-04-02T14:39:10.594284</dc:date>
    <dc:format>image/svg+xml</dc:format>
    <dc:creator>
     <cc:Agent>
      <dc:title>Matplotlib v3.10.1, https://matplotlib.org/</dc:title>
     </cc:Agent>
    </dc:creator>
   </cc:Work>
  </rdf:RDF>
 </metadata>
 <defs>
  <style type="text/css">*{stroke-linejoin: round; stroke-linecap: butt}</style>
 </defs>
 <g id="figure_1">
  <g class="patch">
   <path d="M 0 336.634375 
L 453.242813 336.634375 
L 453.242813 0 
L 0 0 
L 0 336.634375 
z
" style="fill: none"/>
  </g>
  <g id="axes_1">
   <g class="patch">
    <path d="M 48.982813 299.078125 
L 446.042813 299.078125 
L 446.042813 22.318125 
L 48.982813 22.318125 
L 48.982813 299.078125 
z
" style="fill: none"/>
   </g>
   <g id="FillBetweenPolyCollection_1">
    <defs>
     <path id="mae2bcaebee" d="M 67.030994 -133.16425 
L 67.030994 -301.73625 
L 70.677092 -299.194836 
L 74.323189 -296.653422 
L 77.969286 -294.112008 
L 81.615384 -291.570593 
L 85.261481 -289.029179 
L 88.907578 -286.487765 
L 92.553676 -283.946351 
L 96.199773 -281.404937 
L 99.84587 -278.863523 
L 103.491968 -276.322109 
L 107.138065 -273.780694 
L 110.784162 -271.23928 
L 114.43026 -268.697866 
L 118.076357 -266.156452 
L 121.722454 -263.615038 
L 125.368552 -261.073624 
L 129.014649 -258.53221 
L 132.660746 -255.990795 
L 136.306844 -253.449381 
L 139.952941 -250.907967 
L 143.599038 -248.366553 
L 147.245136 -245.825139 
L 150.891233 -243.283725 
L 154.53733 -240.742311 
L 158.183428 -238.200896 
L 161.829525 -235.659482 
L 165.475622 -233.118068 
L 169.12172 -230.576654 
L 172.767817 -228.03524 
L 176.413914 -225.493826 
L 180.060012 -222.952412 
L 183.706109 -220.410997 
L 187.352206 -217.869583 
L 190.998304 -215.328169 
L 194.644401 -212.786755 
L 198.290498 -210.245341 
L 201.936596 -207.703927 
L 205.582693 -205.162513 
L 209.22879 -202.621098 
L 212.874888 -200.079684 
L 216.520985 -197.53827 
L 220.167082 -194.996856 
L 223.81318 -192.455442 
L 227.459277 -189.914028 
L 231.105374 -187.372614 
L 234.751472 -184.831199 
L 238.397569 -182.289785 
L 242.043666 -179.748371 
L 245.689764 -177.206957 
L 249.335861 -174.665543 
L 252.981959 -172.124129 
L 256.628056 -169.582715 
L 260.274153 -167.041301 
L 263.920251 -164.499886 
L 267.566348 -161.958472 
L 271.212445 -159.417058 
L 274.858543 -156.875644 
L 278.50464 -154.33423 
L 282.150737 -151.792816 
L 285.796835 -149.251402 
L 289.442932 -146.709987 
L 293.089029 -144.168573 
L 296.735127 -141.627159 
L 300.381224 -139.085745 
L 304.027321 -136.544331 
L 307.673419 -134.002917 
L 311.319516 -131.461503 
L 314.965613 -128.920088 
L 318.611711 -126.378674 
L 322.257808 -123.83726 
L 325.903905 -121.295846 
L 329.550003 -118.754432 
L 333.1961 -116.213018 
L 336.842197 -113.671604 
L 340.488295 -111.130189 
L 344.134392 -108.588775 
L 347.780489 -106.047361 
L 351.426587 -103.505947 
L 355.072684 -100.964533 
L 358.718781 -98.423119 
L 362.364879 -95.881705 
L 366.010976 -93.34029 
L 369.657073 -90.798876 
L 373.303171 -88.257462 
L 376.949268 -85.716048 
L 380.595365 -83.174634 
L 384.241463 -80.63322 
L 387.88756 -78.091806 
L 391.533657 -75.550391 
L 395.179755 -73.008977 
L 398.825852 -70.467563 
L 402.471949 -67.926149 
L 406.118047 -65.384735 
L 409.764144 -62.843321 
L 413.410241 -60.301907 
L 417.056339 -57.760492 
L 420.702436 -55.219078 
L 424.348533 -52.677664 
L 427.994631 -50.13625 
L 427.994631 -133.16425 
L 427.994631 -133.16425 
L 424.348533 -133.16425 
L 420.702436 -133.16425 
L 417.056339 -133.16425 
L 413.410241 -133.16425 
L 409.764144 -133.16425 
L 406.118047 -133.16425 
L 402.471949 -133.16425 
L 398.825852 -133.16425 
L 395.179755 -133.16425 
L 391.533657 -133.16425 
L 387.88756 -133.16425 
L 384.241463 -133.16425 
L 380.595365 -133.16425 
L 376.949268 -133.16425 
L 373.303171 -133.16425 
L 369.657073 -133.16425 
L 366.010976 -133.16425 
L 362.364879 -133.16425 
L 358.718781 -133.16425 
L 355.072684 -133.16425 
L 351.426587 -133.16425 
L 347.780489 -133.16425 
L 344.134392 -133.16425 
L 340.488295 -133.16425 
L 336.842197 -133.16425 
L 333.1961 -133.16425 
L 329.550003 -133.16425 
L 325.903905 -133.16425 
L 322.257808 -133.16425 
L 318.611711 -133.16425 
L 314.965613 -133.16425 
L 311.319516 -133.16425 
L 307.673419 -133.16425 
L 304.027321 -133.16425 
L 300.381224 -133.16425 
L 296.735127 -133.16425 
L 293.089029 -133.16425 
L 289.442932 -133.16425 
L 285.796835 -133.16425 
L 282.150737 -133.16425 
L 278.50464 -133.16425 
L 274.858543 -133.16425 
L 271.212445 -133.16425 
L 267.566348 -133.16425 
L 263.920251 -133.16425 
L 260.274153 -133.16425 
L 256.628056 -133.16425 
L 252.981959 -133.16425 
L 249.335861 -133.16425 
L 245.689764 -133.16425 
L 242.043666 -133.16425 
L 238.397569 -133.16425 
L 234.751472 -133.16425 
L 231.105374 -133.16425 
L 227.459277 -133.16425 
L 223.81318 -133.16425 
L 220.167082 -133.16425 
L 216.520985 -133.16425 
L 212.874888 -133.16425 
L 209.22879 -133.16425 
L 205.582693 -133.16425 
L 201.936596 -133.16425 
L 198.290498 -133.16425 
L 194.644401 -133.16425 
L 190.998304 -133.16425 
L 187.352206 -133.16425 
L 183.706109 -133.16425 
L 180.060012 -133.16425 
L 176.413914 -133.16425 
L 172.767817 -133.16425 
L 169.12172 -133.16425 
L 165.475622 -133.16425 
L 161.829525 -133.16425 
L 158.183428 -133.16425 
L 154.53733 -133.16425 
L 150.891233 -133.16425 
L 147.245136 -133.16425 
L 143.599038 -133.16425 
L 139.952941 -133.16425 
L 136.306844 -133.16425 
L 132.660746 -133.16425 
L 129.014649 -133.16425 
L 125.368552 -133.16425 
L 121.722454 -133.16425 
L 118.076357 -133.16425 
L 114.43026 -133.16425 
L 110.784162 -133.16425 
L 107.138065 -133.16425 
L 103.491968 -133.16425 
L 99.84587 -133.16425 
L 96.199773 -133.16425 
L 92.553676 -133.16425 
L 88.907578 -133.16425 
L 85.261481 -133.16425 
L 81.615384 -133.16425 
L 77.969286 -133.16425 
L 74.323189 -133.16425 
L 70.677092 -133.16425 
L 67.030994 -133.16425 
z
" style="stroke: #0000ff; stroke-opacity: 0.2"/>
    </defs>
    <g clip-path="url(#pffac0172b2)">
     <use xlink:href="#mae2bcaebee" x="0" y="336.634375" style="fill: #0000ff; fill-opacity: 0.2; stroke: #0000ff; stroke-opacity: 0.2"/>
    </g>
   </g>
   <g id="FillBetweenPolyCollection_2">
    <defs>
     <path id="ma51380abe5" d="M 67.030994 -233.80425 
L 67.030994 -301.73625 
L 70.677092 -299.194836 
L 74.323189 -296.653422 
L 77.969286 -294.112008 
L 81.615384 -291.570593 
L 85.261481 -289.029179 
L 88.907578 -286.487765 
L 92.553676 -283.946351 
L 96.199773 -281.404937 
L 99.84587 -278.863523 
L 103.491968 -276.322109 
L 107.138065 -273.780694 
L 110.784162 -271.23928 
L 114.43026 -268.697866 
L 118.076357 -266.156452 
L 121.722454 -263.615038 
L 125.368552 -261.073624 
L 129.014649 -258.53221 
L 132.660746 -255.990795 
L 136.306844 -253.449381 
L 139.952941 -250.907967 
L 143.599038 -248.366553 
L 147.245136 -245.825139 
L 150.891233 -243.283725 
L 154.53733 -240.742311 
L 158.183428 -238.200896 
L 161.829525 -235.659482 
L 165.475622 -233.118068 
L 169.12172 -230.576654 
L 172.767817 -228.03524 
L 176.413914 -225.493826 
L 180.060012 -222.952412 
L 183.706109 -220.410997 
L 187.352206 -217.869583 
L 190.998304 -215.328169 
L 194.644401 -212.786755 
L 198.290498 -210.245341 
L 201.936596 -207.703927 
L 205.582693 -205.162513 
L 209.22879 -202.621098 
L 212.874888 -200.079684 
L 216.520985 -197.53827 
L 220.167082 -194.996856 
L 223.81318 -192.455442 
L 227.459277 -189.914028 
L 231.105374 -187.372614 
L 234.751472 -184.831199 
L 238.397569 -182.289785 
L 242.043666 -179.748371 
L 245.689764 -177.206957 
L 249.335861 -174.665543 
L 252.981959 -172.124129 
L 256.628056 -169.582715 
L 260.274153 -167.041301 
L 263.920251 -164.499886 
L 267.566348 -161.958472 
L 271.212445 -159.417058 
L 274.858543 -156.875644 
L 278.50464 -154.33423 
L 282.150737 -151.792816 
L 285.796835 -149.251402 
L 289.442932 -146.709987 
L 293.089029 -144.168573 
L 296.735127 -141.627159 
L 300.381224 -139.085745 
L 304.027321 -136.544331 
L 307.673419 -134.002917 
L 311.319516 -131.461503 
L 314.965613 -128.920088 
L 318.611711 -126.378674 
L 322.257808 -123.83726 
L 325.903905 -121.295846 
L 329.550003 -118.754432 
L 333.1961 -116.213018 
L 336.842197 -113.671604 
L 340.488295 -111.130189 
L 344.134392 -108.588775 
L 347.780489 -106.047361 
L 351.426587 -103.505947 
L 355.072684 -100.964533 
L 358.718781 -98.423119 
L 362.364879 -95.881705 
L 366.010976 -93.34029 
L 369.657073 -90.798876 
L 373.303171 -88.257462 
L 376.949268 -85.716048 
L 380.595365 -83.174634 
L 384.241463 -80.63322 
L 387.88756 -78.091806 
L 391.533657 -75.550391 
L 395.179755 -73.008977 
L 398.825852 -70.467563 
L 402.471949 -67.926149 
L 406.118047 -65.384735 
L 409.764144 -62.843321 
L 413.410241 -60.301907 
L 417.056339 -57.760492 
L 420.702436 -55.219078 
L 424.348533 -52.677664 
L 427.994631 -50.13625 
L 427.994631 -233.80425 
L 427.994631 -233.80425 
L 424.348533 -233.80425 
L 420.702436 -233.80425 
L 417.056339 -233.80425 
L 413.410241 -233.80425 
L 409.764144 -233.80425 
L 406.118047 -233.80425 
L 402.471949 -233.80425 
L 398.825852 -233.80425 
L 395.179755 -233.80425 
L 391.533657 -233.80425 
L 387.88756 -233.80425 
L 384.241463 -233.80425 
L 380.595365 -233.80425 
L 376.949268 -233.80425 
L 373.303171 -233.80425 
L 369.657073 -233.80425 
L 366.010976 -233.80425 
L 362.364879 -233.80425 
L 358.718781 -233.80425 
L 355.072684 -233.80425 
L 351.426587 -233.80425 
L 347.780489 -233.80425 
L 344.134392 -233.80425 
L 340.488295 -233.80425 
L 336.842197 -233.80425 
L 333.1961 -233.80425 
L 329.550003 -233.80425 
L 325.903905 -233.80425 
L 322.257808 -233.80425 
L 318.611711 -233.80425 
L 314.965613 -233.80425 
L 311.319516 -233.80425 
L 307.673419 -233.80425 
L 304.027321 -233.80425 
L 300.381224 -233.80425 
L 296.735127 -233.80425 
L 293.089029 -233.80425 
L 289.442932 -233.80425 
L 285.796835 -233.80425 
L 282.150737 -233.80425 
L 278.50464 -233.80425 
L 274.858543 -233.80425 
L 271.212445 -233.80425 
L 267.566348 -233.80425 
L 263.920251 -233.80425 
L 260.274153 -233.80425 
L 256.628056 -233.80425 
L 252.981959 -233.80425 
L 249.335861 -233.80425 
L 245.689764 -233.80425 
L 242.043666 -233.80425 
L 238.397569 -233.80425 
L 234.751472 -233.80425 
L 231.105374 -233.80425 
L 227.459277 -233.80425 
L 223.81318 -233.80425 
L 220.167082 -233.80425 
L 216.520985 -233.80425 
L 212.874888 -233.80425 
L 209.22879 -233.80425 
L 205.582693 -233.80425 
L 201.936596 -233.80425 
L 198.290498 -233.80425 
L 194.644401 -233.80425 
L 190.998304 -233.80425 
L 187.352206 -233.80425 
L 183.706109 -233.80425 
L 180.060012 -233.80425 
L 176.413914 -233.80425 
L 172.767817 -233.80425 
L 169.12172 -233.80425 
L 165.475622 -233.80425 
L 161.829525 -233.80425 
L 158.183428 -233.80425 
L 154.53733 -233.80425 
L 150.891233 -233.80425 
L 147.245136 -233.80425 
L 143.599038 -233.80425 
L 139.952941 -233.80425 
L 136.306844 -233.80425 
L 132.660746 -233.80425 
L 129.014649 -233.80425 
L 125.368552 -233.80425 
L 121.722454 -233.80425 
L 118.076357 -233.80425 
L 114.43026 -233.80425 
L 110.784162 -233.80425 
L 107.138065 -233.80425 
L 103.491968 -233.80425 
L 99.84587 -233.80425 
L 96.199773 -233.80425 
L 92.553676 -233.80425 
L 88.907578 -233.80425 
L 85.261481 -233.80425 
L 81.615384 -233.80425 
L 77.969286 -233.80425 
L 74.323189 -233.80425 
L 70.677092 -233.80425 
L 67.030994 -233.80425 
z
" style="stroke: #ff0000; stroke-opacity: 0.2"/>
    </defs>
    <g clip-path="url(#pffac0172b2)">
     <use xlink:href="#ma51380abe5" x="0" y="336.634375" style="fill: #ff0000; fill-opacity: 0.2; stroke: #ff0000; stroke-opacity: 0.2"/>
    </g>
   </g>
   <g id="PathCollection_1">
    <defs>
     <path id="mc48bd5368d" d="M 0 3 
C 0.795609 3 1.55874 2.683901 2.12132 2.12132 
C 2.683901 1.55874 3 0.795609 3 0 
C 3 -0.795609 2.683901 -1.55874 2.12132 -2.12132 
C 1.55874 -2.683901 0.795609 -3 0 -3 
C -0.795609 -3 -1.55874 -2.683901 -2.12132 -2.12132 
C -2.683901 -1.55874 -3 -0.795609 -3 0 
C -3 0.795609 -2.683901 1.55874 -2.12132 2.12132 
C -1.55874 2.683901 -0.795609 3 0 3 
z
" style="stroke: #0000ff"/>
    </defs>
    <g clip-path="url(#pffac0172b2)">
     <use xlink:href="#mc48bd5368d" x="178.567743" y="155.929247" style="fill: #0000ff; stroke: #0000ff"/>
     <use xlink:href="#mc48bd5368d" x="206.438035" y="108.324024" style="fill: #0000ff; stroke: #0000ff"/>
     <use xlink:href="#mc48bd5368d" x="88.878453" y="142.930131" style="fill: #0000ff; stroke: #0000ff"/>
     <use xlink:href="#mc48bd5368d" x="356.78396" y="125.443069" style="fill: #0000ff; stroke: #0000ff"/>
     <use xlink:href="#mc48bd5368d" x="354.049468" y="156.130424" style="fill: #0000ff; stroke: #0000ff"/>
     <use xlink:href="#mc48bd5368d" x="69.201671" y="185.285549" style="fill: #0000ff; stroke: #0000ff"/>
     <use xlink:href="#mc48bd5368d" x="158.415484" y="108.031317" style="fill: #0000ff; stroke: #0000ff"/>
     <use xlink:href="#mc48bd5368d" x="294.43731" y="125.905993" style="fill: #0000ff; stroke: #0000ff"/>
     <use xlink:href="#mc48bd5368d" x="148.689014" y="152.681186" style="fill: #0000ff; stroke: #0000ff"/>
     <use xlink:href="#mc48bd5368d" x="368.102702" y="149.722028" style="fill: #0000ff; stroke: #0000ff"/>
    </g>
   </g>
   <g id="PathCollection_2">
    <defs>
     <path id="mb15d1b0243" d="M 0 3 
C 0.795609 3 1.55874 2.683901 2.12132 2.12132 
C 2.683901 1.55874 3 0.795609 3 0 
C 3 -0.795609 2.683901 -1.55874 2.12132 -2.12132 
C 1.55874 -2.683901 0.795609 -3 0 -3 
C -0.795609 -3 -1.55874 -2.683901 -2.12132 -2.12132 
C -2.683901 -1.55874 -3 -0.795609 -3 0 
C -3 0.795609 -2.683901 1.55874 -2.12132 2.12132 
C -1.55874 2.683901 -0.795609 3 0 3 
z
" style="stroke: #ff0000"/>
    </defs>
    <g clip-path="url(#pffac0172b2)">
     <use xlink:href="#mb15d1b0243" x="161.107081" y="147.996136" style="fill: #ff0000; stroke: #ff0000"/>
     <use xlink:href="#mb15d1b0243" x="259.320108" y="161.421396" style="fill: #ff0000; stroke: #ff0000"/>
     <use xlink:href="#mb15d1b0243" x="291.359234" y="178.544392" style="fill: #ff0000; stroke: #ff0000"/>
     <use xlink:href="#mb15d1b0243" x="308.520714" y="178.419565" style="fill: #ff0000; stroke: #ff0000"/>
     <use xlink:href="#mb15d1b0243" x="358.539871" y="140.75187" style="fill: #ff0000; stroke: #ff0000"/>
     <use xlink:href="#mb15d1b0243" x="214.434313" y="173.416405" style="fill: #ff0000; stroke: #ff0000"/>
     <use xlink:href="#mb15d1b0243" x="313.209763" y="146.938176" style="fill: #ff0000; stroke: #ff0000"/>
     <use xlink:href="#mb15d1b0243" x="101.413868" y="144.637241" style="fill: #ff0000; stroke: #ff0000"/>
     <use xlink:href="#mb15d1b0243" x="368.85125" y="183.244095" style="fill: #ff0000; stroke: #ff0000"/>
     <use xlink:href="#mb15d1b0243" x="210.567444" y="173.722361" style="fill: #ff0000; stroke: #ff0000"/>
    </g>
   </g>
   <g class="axis">
    <g class="tick xtick">
     <g id="line2d_1">
      <defs>
       <path id="ma2f7875d1c" d="M 0 0 
L 0 3.5 
" style="stroke: currentColor; stroke-width: 0.8"/>
      </defs>
      <g>
       <use xlink:href="#ma2f7875d1c" x="67.030994" y="299.078125" style="stroke: currentColor; stroke-width: 0.8"/>
      </g>
     </g>
     <g id="text_1" class="text">
      <!-- −10.0 -->
      <g transform="translate(51.708338 313.676562) scale(0.1 -0.1)">
       <defs>
        <path id="DejaVuSans-2212" d="M 678 2272 
L 4684 2272 
L 4684 1741 
L 678 1741 
L 678 2272 
z
" transform="scale(0.015625)"/>
        <path id="DejaVuSans-31" d="M 794 531 
L 1825 531 
L 1825 4091 
L 703 3866 
L 703 4441 
L 1819 4666 
L 2450 4666 
L 2450 531 
L 3481 531 
L 3481 0 
L 794 0 
L 794 531 
z
" transform="scale(0.015625)"/>
        <path id="DejaVuSans-30" d="M 2034 4250 
Q 1547 4250 1301 3770 
Q 1056 3291 1056 2328 
Q 1056 1369 1301 889 
Q 1547 409 2034 409 
Q 2525 409 2770 889 
Q 3016 1369 3016 2328 
Q 3016 3291 2770 3770 
Q 2525 4250 2034 4250 
z
M 2034 4750 
Q 2819 4750 3233 4129 
Q 3647 3509 3647 2328 
Q 3647 1150 3233 529 
Q 2819 -91 2034 -91 
Q 1250 -91 836 529 
Q 422 1150 422 2328 
Q 422 3509 836 4129 
Q 1250 4750 2034 4750 
z
" transform="scale(0.015625)"/>
        <path id="DejaVuSans-2e" d="M 684 794 
L 1344 794 
L 1344 0 
L 684 0 
L 684 794 
z
" transform="scale(0.015625)"/>
       </defs>
       <use xlink:href="#DejaVuSans-2212"/>
       <use xlink:href="#DejaVuSans-31" transform="translate(83.789062 0)"/>
       <use xlink:href="#DejaVuSans-30" transform="translate(147.412109 0)"/>
       <use xlink:href="#DejaVuSans-2e" transform="translate(211.035156 0)"/>
       <use xlink:href="#DejaVuSans-30" transform="translate(242.822266 0)"/>
      </g>
     </g>
    </g>
    <g class="tick xtick">
     <g id="line2d_2">
      <g>
       <use xlink:href="#ma2f7875d1c" x="112.151449" y="299.078125" style="stroke: currentColor; stroke-width: 0.8"/>
      </g>
     </g>
     <g id="text_2" class="text">
      <!-- −7.5 -->
      <g transform="translate(100.010043 313.676562) scale(0.1 -0.1)">
       <defs>
        <path id="DejaVuSans-37" d="M 525 4666 
L 3525 4666 
L 3525 4397 
L 1831 0 
L 1172 0 
L 2766 4134 
L 525 4134 
L 525 4666 
z
" transform="scale(0.015625)"/>
        <path id="DejaVuSans-35" d="M 691 4666 
L 3169 4666 
L 3169 4134 
L 1269 4134 
L 1269 2991 
Q 1406 3038 1543 3061 
Q 1681 3084 1819 3084 
Q 2600 3084 3056 2656 
Q 3513 2228 3513 1497 
Q 3513 744 3044 326 
Q 2575 -91 1722 -91 
Q 1428 -91 1123 -41 
Q 819 9 494 109 
L 494 744 
Q 775 591 1075 516 
Q 1375 441 1709 441 
Q 2250 441 2565 725 
Q 2881 1009 2881 1497 
Q 2881 1984 2565 2268 
Q 2250 2553 1709 2553 
Q 1456 2553 1204 2497 
Q 953 2441 691 2322 
L 691 4666 
z
" transform="scale(0.015625)"/>
       </defs>
       <use xlink:href="#DejaVuSans-2212"/>
       <use xlink:href="#DejaVuSans-37" transform="translate(83.789062 0)"/>
       <use xlink:href="#DejaVuSans-2e" transform="translate(147.412109 0)"/>
       <use xlink:href="#DejaVuSans-35" transform="translate(179.199219 0)"/>
      </g>
     </g>
    </g>
    <g class="tick xtick">
     <g id="line2d_3">
      <g>
       <use xlink:href="#ma2f7875d1c" x="157.271903" y="299.078125" style="stroke: currentColor; stroke-width: 0.8"/>
      </g>
     </g>
     <g id="text_3" class="text">
      <!-- −5.0 -->
      <g transform="translate(145.130497 313.676562) scale(0.1 -0.1)">
       <use xlink:href="#DejaVuSans-2212"/>
       <use xlink:href="#DejaVuSans-35" transform="translate(83.789062 0)"/>
       <use xlink:href="#DejaVuSans-2e" transform="translate(147.412109 0)"/>
       <use xlink:href="#DejaVuSans-30" transform="translate(179.199219 0)"/>
      </g>
     </g>
    </g>
    <g class="tick xtick">
     <g id="line2d_4">
      <g>
       <use xlink:href="#ma2f7875d1c" x="202.392358" y="299.078125" style="stroke: currentColor; stroke-width: 0.8"/>
      </g>
     </g>
     <g id="text_4" class="text">
      <!-- −2.5 -->
      <g transform="translate(190.250952 313.676562) scale(0.1 -0.1)">
       <defs>
        <path id="DejaVuSans-32" d="M 1228 531 
L 3431 531 
L 3431 0 
L 469 0 
L 469 531 
Q 828 903 1448 1529 
Q 2069 2156 2228 2338 
Q 2531 2678 2651 2914 
Q 2772 3150 2772 3378 
Q 2772 3750 2511 3984 
Q 2250 4219 1831 4219 
Q 1534 4219 1204 4116 
Q 875 4013 500 3803 
L 500 4441 
Q 881 4594 1212 4672 
Q 1544 4750 1819 4750 
Q 2544 4750 2975 4387 
Q 3406 4025 3406 3419 
Q 3406 3131 3298 2873 
Q 3191 2616 2906 2266 
Q 2828 2175 2409 1742 
Q 1991 1309 1228 531 
z
" transform="scale(0.015625)"/>
       </defs>
       <use xlink:href="#DejaVuSans-2212"/>
       <use xlink:href="#DejaVuSans-32" transform="translate(83.789062 0)"/>
       <use xlink:href="#DejaVuSans-2e" transform="translate(147.412109 0)"/>
       <use xlink:href="#DejaVuSans-35" transform="translate(179.199219 0)"/>
      </g>
     </g>
    </g>
    <g class="tick xtick">
     <g id="line2d_5">
      <g>
       <use xlink:href="#ma2f7875d1c" x="247.512812" y="299.078125" style="stroke: currentColor; stroke-width: 0.8"/>
      </g>
     </g>
     <g id="text_5" class="text">
      <!-- 0.0 -->
      <g transform="translate(239.56125 313.676562) scale(0.1 -0.1)">
       <use xlink:href="#DejaVuSans-30"/>
       <use xlink:href="#DejaVuSans-2e" transform="translate(63.623047 0)"/>
       <use xlink:href="#DejaVuSans-30" transform="translate(95.410156 0)"/>
      </g>
     </g>
    </g>
    <g class="tick xtick">
     <g id="line2d_6">
      <g>
       <use xlink:href="#ma2f7875d1c" x="292.633267" y="299.078125" style="stroke: currentColor; stroke-width: 0.8"/>
      </g>
     </g>
     <g id="text_6" class="text">
      <!-- 2.5 -->
      <g transform="translate(284.681705 313.676562) scale(0.1 -0.1)">
       <use xlink:href="#DejaVuSans-32"/>
       <use xlink:href="#DejaVuSans-2e" transform="translate(63.623047 0)"/>
       <use xlink:href="#DejaVuSans-35" transform="translate(95.410156 0)"/>
      </g>
     </g>
    </g>
    <g class="tick xtick">
     <g id="line2d_7">
      <g>
       <use xlink:href="#ma2f7875d1c" x="337.753722" y="299.078125" style="stroke: currentColor; stroke-width: 0.8"/>
      </g>
     </g>
     <g id="text_7" class="text">
      <!-- 5.0 -->
      <g transform="translate(329.802159 313.676562) scale(0.1 -0.1)">
       <use xlink:href="#DejaVuSans-35"/>
       <use xlink:href="#DejaVuSans-2e" transform="translate(63.623047 0)"/>
       <use xlink:href="#DejaVuSans-30" transform="translate(95.410156 0)"/>
      </g>
     </g>
    </g>
    <g class="tick xtick">
     <g id="line2d_8">
      <g>
       <use xlink:href="#ma2f7875d1c" x="382.874176" y="299.078125" style="stroke: currentColor; stroke-width: 0.8"/>
      </g>
     </g>
     <g id="text_8" class="text">
      <!-- 7.5 -->
      <g transform="translate(374.922614 313.676562) scale(0.1 -0.1)">
       <use xlink:href="#DejaVuSans-37"/>
       <use xlink:href="#DejaVuSans-2e" transform="translate(63.623047 0)"/>
       <use xlink:href="#DejaVuSans-35" transform="translate(95.410156 0)"/>
      </g>
     </g>
    </g>
    <g class="tick xtick">
     <g id="line2d_9">
      <g>
       <use xlink:href="#ma2f7875d1c" x="427.994631" y="299.078125" style="stroke: currentColor; stroke-width: 0.8"/>
      </g>
     </g>
     <g id="text_9" class="text">
      <!-- 10.0 -->
      <g transform="translate(416.861818 313.676562) scale(0.1 -0.1)">
       <use xlink:href="#DejaVuSans-31"/>
       <use xlink:href="#DejaVuSans-30" transform="translate(63.623047 0)"/>
       <use xlink:href="#DejaVuSans-2e" transform="translate(127.246094 0)"/>
       <use xlink:href="#DejaVuSans-30" transform="translate(159.033203 0)"/>
      </g>
     </g>
    </g>
    <g id="text_10" class="text">
     <!-- x1 -->
     <g transform="translate(241.372187 327.354687) scale(0.1 -0.1)">
      <defs>
       <path id="DejaVuSans-78" d="M 3513 3500 
L 2247 1797 
L 3578 0 
L 2900 0 
L 1881 1375 
L 863 0 
L 184 0 
L 1544 1831 
L 300 3500 
L 978 3500 
L 1906 2253 
L 2834 3500 
L 3513 3500 
z
" transform="scale(0.015625)"/>
      </defs>
      <use xlink:href="#DejaVuSans-78"/>
      <use xlink:href="#DejaVuSans-31" transform="translate(59.179688 0)"/>
     </g>
    </g>
   </g>
   <g class="axis">
    <g class="tick ytick">
     <g id="line2d_10">
      <defs>
       <path id="m516ceb5bd3" d="M 0 0 
L -3.5 0 
" style="stroke: currentColor; stroke-width: 0.8"/>
      </defs>
      <g>
       <use xlink:href="#m516ceb5bd3" x="48.982813" y="253.790125" style="stroke: currentColor; stroke-width: 0.8"/>
      </g>
     </g>
     <g id="text_11" class="text">
      <!-- −20 -->
      <g transform="translate(20.878125 257.589344) scale(0.1 -0.1)">
       <use xlink:href="#DejaVuSans-2212"/>
       <use xlink:href="#DejaVuSans-32" transform="translate(83.789062 0)"/>
       <use xlink:href="#DejaVuSans-30" transform="translate(147.412109 0)"/>
      </g>
     </g>
    </g>
    <g class="tick ytick">
     <g id="line2d_11">
      <g>
       <use xlink:href="#m516ceb5bd3" x="48.982813" y="203.470125" style="stroke: currentColor; stroke-width: 0.8"/>
      </g>
     </g>
     <g id="text_12" class="text">
      <!-- −10 -->
      <g transform="translate(20.878125 207.269344) scale(0.1 -0.1)">
       <use xlink:href="#DejaVuSans-2212"/>
       <use xlink:href="#DejaVuSans-31" transform="translate(83.789062 0)"/>
       <use xlink:href="#DejaVuSans-30" transform="translate(147.412109 0)"/>
      </g>
     </g>
    </g>
    <g class="tick ytick">
     <g id="line2d_12">
      <g>
       <use xlink:href="#m516ceb5bd3" x="48.982813" y="153.150125" style="stroke: currentColor; stroke-width: 0.8"/>
      </g>
     </g>
     <g id="text_13" class="text">
      <!-- 0 -->
      <g transform="translate(35.620312 156.949344) scale(0.1 -0.1)">
       <use xlink:href="#DejaVuSans-30"/>
      </g>
     </g>
    </g>
    <g class="tick ytick">
     <g id="line2d_13">
      <g>
       <use xlink:href="#m516ceb5bd3" x="48.982813" y="102.830125" style="stroke: currentColor; stroke-width: 0.8"/>
      </g>
     </g>
     <g id="text_14" class="text">
      <!-- 10 -->
      <g transform="translate(29.257812 106.629344) scale(0.1 -0.1)">
       <use xlink:href="#DejaVuSans-31"/>
       <use xlink:href="#DejaVuSans-30" transform="translate(63.623047 0)"/>
      </g>
     </g>
    </g>
    <g class="tick ytick">
     <g id="line2d_14">
      <g>
       <use xlink:href="#m516ceb5bd3" x="48.982813" y="52.510125" style="stroke: currentColor; stroke-width: 0.8"/>
      </g>
     </g>
     <g id="text_15" class="text">
      <!-- 20 -->
      <g transform="translate(29.257812 56.309344) scale(0.1 -0.1)">
       <use xlink:href="#DejaVuSans-32"/>
       <use xlink:href="#DejaVuSans-30" transform="translate(63.623047 0)"/>
      </g>
     </g>
    </g>
    <g id="text_16" class="text">
     <!-- x2 -->
     <g transform="translate(14.798438 166.83875) rotate(-90) scale(0.1 -0.1)">
      <use xlink:href="#DejaVuSans-78"/>
      <use xlink:href="#DejaVuSans-32" transform="translate(59.179688 0)"/>
     </g>
    </g>
   </g>
   <g id="line2d_15">
    <path d="M 67.030994 34.898125 
L 70.677092 37.439539 
L 74.323189 39.980953 
L 77.969286 42.522367 
L 81.615384 45.063782 
L 85.261481 47.605196 
L 88.907578 50.14661 
L 92.553676 52.688024 
L 96.199773 55.229438 
L 99.84587 57.770852 
L 103.491968 60.312266 
L 107.138065 62.853681 
L 110.784162 65.395095 
L 114.43026 67.936509 
L 118.076357 70.477923 
L 121.722454 73.019337 
L 125.368552 75.560751 
L 129.014649 78.102165 
L 132.660746 80.64358 
L 136.306844 83.184994 
L 139.952941 85.726408 
L 143.599038 88.267822 
L 147.245136 90.809236 
L 150.891233 93.35065 
L 154.53733 95.892064 
L 158.183428 98.433479 
L 161.829525 100.974893 
L 165.475622 103.516307 
L 169.12172 106.057721 
L 172.767817 108.599135 
L 176.413914 111.140549 
L 180.060012 113.681963 
L 183.706109 116.223378 
L 187.352206 118.764792 
L 190.998304 121.306206 
L 194.644401 123.84762 
L 198.290498 126.389034 
L 201.936596 128.930448 
L 205.582693 131.471862 
L 209.22879 134.013277 
L 212.874888 136.554691 
L 216.520985 139.096105 
L 220.167082 141.637519 
L 223.81318 144.178933 
L 227.459277 146.720347 
L 231.105374 149.261761 
L 234.751472 151.803176 
L 238.397569 154.34459 
L 242.043666 156.886004 
L 245.689764 159.427418 
L 249.335861 161.968832 
L 252.981959 164.510246 
L 256.628056 167.05166 
L 260.274153 169.593074 
L 263.920251 172.134489 
L 267.566348 174.675903 
L 271.212445 177.217317 
L 274.858543 179.758731 
L 278.50464 182.300145 
L 282.150737 184.841559 
L 285.796835 187.382973 
L 289.442932 189.924388 
L 293.089029 192.465802 
L 296.735127 195.007216 
L 300.381224 197.54863 
L 304.027321 200.090044 
L 307.673419 202.631458 
L 311.319516 205.172872 
L 314.965613 207.714287 
L 318.611711 210.255701 
L 322.257808 212.797115 
L 325.903905 215.338529 
L 329.550003 217.879943 
L 333.1961 220.421357 
L 336.842197 222.962771 
L 340.488295 225.504186 
L 344.134392 228.0456 
L 347.780489 230.587014 
L 351.426587 233.128428 
L 355.072684 235.669842 
L 358.718781 238.211256 
L 362.364879 240.75267 
L 366.010976 243.294085 
L 369.657073 245.835499 
L 373.303171 248.376913 
L 376.949268 250.918327 
L 380.595365 253.459741 
L 384.241463 256.001155 
L 387.88756 258.542569 
L 391.533657 261.083984 
L 395.179755 263.625398 
L 398.825852 266.166812 
L 402.471949 268.708226 
L 406.118047 271.24964 
L 409.764144 273.791054 
L 413.410241 276.332468 
L 417.056339 278.873883 
L 420.702436 281.415297 
L 424.348533 283.956711 
L 427.994631 286.498125 
" clip-path="url(#pffac0172b2)" style="fill: none; stroke: #1f77b4; stroke-width: 1.5; stroke-linecap: square"/>
   </g>
   <g class="patch">
    <path d="M 48.982813 299.078125 
L 48.982813 22.318125 
" style="fill: none; stroke: currentColor; stroke-width: 0.8; stroke-linejoin: miter; stroke-linecap: square"/>
   </g>
   <g class="patch">
    <path d="M 446.042813 299.078125 
L 446.042813 22.318125 
" style="fill: none; stroke: currentColor; stroke-width: 0.8; stroke-linejoin: miter; stroke-linecap: square"/>
   </g>
   <g class="patch">
    <path d="M 48.982812 299.078125 
L 446.042813 299.078125 
" style="fill: none; stroke: currentColor; stroke-width: 0.8; stroke-linejoin: miter; stroke-linecap: square"/>
   </g>
   <g class="patch">
    <path d="M 48.982812 22.318125 
L 446.042813 22.318125 
" style="fill: none; stroke: currentColor; stroke-width: 0.8; stroke-linejoin: miter; stroke-linecap: square"/>
   </g>
   <g id="text_17" class="text">
    <!-- Linear Halfspace Example -->
    <g transform="translate(169.449062 16.318125) scale(0.12 -0.12)">
     <defs>
      <path id="DejaVuSans-4c" d="M 628 4666 
L 1259 4666 
L 1259 531 
L 3531 531 
L 3531 0 
L 628 0 
L 628 4666 
z
" transform="scale(0.015625)"/>
      <path id="DejaVuSans-69" d="M 603 3500 
L 1178 3500 
L 1178 0 
L 603 0 
L 603 3500 
z
M 603 4863 
L 1178 4863 
L 1178 4134 
L 603 4134 
L 603 4863 
z
" transform="scale(0.015625)"/>
      <path id="DejaVuSans-6e" d="M 3513 2113 
L 3513 0 
L 2938 0 
L 2938 2094 
Q 2938 2591 2744 2837 
Q 2550 3084 2163 3084 
Q 1697 3084 1428 2787 
Q 1159 2491 1159 1978 
L 1159 0 
L 581 0 
L 581 3500 
L 1159 3500 
L 1159 2956 
Q 1366 3272 1645 3428 
Q 1925 3584 2291 3584 
Q 2894 3584 3203 3211 
Q 3513 2838 3513 2113 
z
" transform="scale(0.015625)"/>
      <path id="DejaVuSans-65" d="M 3597 1894 
L 3597 1613 
L 953 1613 
Q 991 1019 1311 708 
Q 1631 397 2203 397 
Q 2534 397 2845 478 
Q 3156 559 3463 722 
L 3463 178 
Q 3153 47 2828 -22 
Q 2503 -91 2169 -91 
Q 1331 -91 842 396 
Q 353 884 353 1716 
Q 353 2575 817 3079 
Q 1281 3584 2069 3584 
Q 2775 3584 3186 3129 
Q 3597 2675 3597 1894 
z
M 3022 2063 
Q 3016 2534 2758 2815 
Q 2500 3097 2075 3097 
Q 1594 3097 1305 2825 
Q 1016 2553 972 2059 
L 3022 2063 
z
" transform="scale(0.015625)"/>
      <path id="DejaVuSans-61" d="M 2194 1759 
Q 1497 1759 1228 1600 
Q 959 1441 959 1056 
Q 959 750 1161 570 
Q 1363 391 1709 391 
Q 2188 391 2477 730 
Q 2766 1069 2766 1631 
L 2766 1759 
L 2194 1759 
z
M 3341 1997 
L 3341 0 
L 2766 0 
L 2766 531 
Q 2569 213 2275 61 
Q 1981 -91 1556 -91 
Q 1019 -91 701 211 
Q 384 513 384 1019 
Q 384 1609 779 1909 
Q 1175 2209 1959 2209 
L 2766 2209 
L 2766 2266 
Q 2766 2663 2505 2880 
Q 2244 3097 1772 3097 
Q 1472 3097 1187 3025 
Q 903 2953 641 2809 
L 641 3341 
Q 956 3463 1253 3523 
Q 1550 3584 1831 3584 
Q 2591 3584 2966 3190 
Q 3341 2797 3341 1997 
z
" transform="scale(0.015625)"/>
      <path id="DejaVuSans-72" d="M 2631 2963 
Q 2534 3019 2420 3045 
Q 2306 3072 2169 3072 
Q 1681 3072 1420 2755 
Q 1159 2438 1159 1844 
L 1159 0 
L 581 0 
L 581 3500 
L 1159 3500 
L 1159 2956 
Q 1341 3275 1631 3429 
Q 1922 3584 2338 3584 
Q 2397 3584 2469 3576 
Q 2541 3569 2628 3553 
L 2631 2963 
z
" transform="scale(0.015625)"/>
      <path id="DejaVuSans-20" transform="scale(0.015625)"/>
      <path id="DejaVuSans-48" d="M 628 4666 
L 1259 4666 
L 1259 2753 
L 3553 2753 
L 3553 4666 
L 4184 4666 
L 4184 0 
L 3553 0 
L 3553 2222 
L 1259 2222 
L 1259 0 
L 628 0 
L 628 4666 
z
" transform="scale(0.015625)"/>
      <path id="DejaVuSans-6c" d="M 603 4863 
L 1178 4863 
L 1178 0 
L 603 0 
L 603 4863 
z
" transform="scale(0.015625)"/>
      <path id="DejaVuSans-66" d="M 2375 4863 
L 2375 4384 
L 1825 4384 
Q 1516 4384 1395 4259 
Q 1275 4134 1275 3809 
L 1275 3500 
L 2222 3500 
L 2222 3053 
L 1275 3053 
L 1275 0 
L 697 0 
L 697 3053 
L 147 3053 
L 147 3500 
L 697 3500 
L 697 3744 
Q 697 4328 969 4595 
Q 1241 4863 1831 4863 
L 2375 4863 
z
" transform="scale(0.015625)"/>
      <path id="DejaVuSans-73" d="M 2834 3397 
L 2834 2853 
Q 2591 2978 2328 3040 
Q 2066 3103 1784 3103 
Q 1356 3103 1142 2972 
Q 928 2841 928 2578 
Q 928 2378 1081 2264 
Q 1234 2150 1697 2047 
L 1894 2003 
Q 2506 1872 2764 1633 
Q 3022 1394 3022 966 
Q 3022 478 2636 193 
Q 2250 -91 1575 -91 
Q 1294 -91 989 -36 
Q 684 19 347 128 
L 347 722 
Q 666 556 975 473 
Q 1284 391 1588 391 
Q 1994 391 2212 530 
Q 2431 669 2431 922 
Q 2431 1156 2273 1281 
Q 2116 1406 1581 1522 
L 1381 1569 
Q 847 1681 609 1914 
Q 372 2147 372 2553 
Q 372 3047 722 3315 
Q 1072 3584 1716 3584 
Q 2034 3584 2315 3537 
Q 2597 3491 2834 3397 
z
" transform="scale(0.015625)"/>
      <path id="DejaVuSans-70" d="M 1159 525 
L 1159 -1331 
L 581 -1331 
L 581 3500 
L 1159 3500 
L 1159 2969 
Q 1341 3281 1617 3432 
Q 1894 3584 2278 3584 
Q 2916 3584 3314 3078 
Q 3713 2572 3713 1747 
Q 3713 922 3314 415 
Q 2916 -91 2278 -91 
Q 1894 -91 1617 61 
Q 1341 213 1159 525 
z
M 3116 1747 
Q 3116 2381 2855 2742 
Q 2594 3103 2138 3103 
Q 1681 3103 1420 2742 
Q 1159 2381 1159 1747 
Q 1159 1113 1420 752 
Q 1681 391 2138 391 
Q 2594 391 2855 752 
Q 3116 1113 3116 1747 
z
" transform="scale(0.015625)"/>
      <path id="DejaVuSans-63" d="M 3122 3366 
L 3122 2828 
Q 2878 2963 2633 3030 
Q 2388 3097 2138 3097 
Q 1578 3097 1268 2742 
Q 959 2388 959 1747 
Q 959 1106 1268 751 
Q 1578 397 2138 397 
Q 2388 397 2633 464 
Q 2878 531 3122 666 
L 3122 134 
Q 2881 22 2623 -34 
Q 2366 -91 2075 -91 
Q 1284 -91 818 406 
Q 353 903 353 1747 
Q 353 2603 823 3093 
Q 1294 3584 2113 3584 
Q 2378 3584 2631 3529 
Q 2884 3475 3122 3366 
z
" transform="scale(0.015625)"/>
      <path id="DejaVuSans-45" d="M 628 4666 
L 3578 4666 
L 3578 4134 
L 1259 4134 
L 1259 2753 
L 3481 2753 
L 3481 2222 
L 1259 2222 
L 1259 531 
L 3634 531 
L 3634 0 
L 628 0 
L 628 4666 
z
" transform="scale(0.015625)"/>
      <path id="DejaVuSans-6d" d="M 3328 2828 
Q 3544 3216 3844 3400 
Q 4144 3584 4550 3584 
Q 5097 3584 5394 3201 
Q 5691 2819 5691 2113 
L 5691 0 
L 5113 0 
L 5113 2094 
Q 5113 2597 4934 2840 
Q 4756 3084 4391 3084 
Q 3944 3084 3684 2787 
Q 3425 2491 3425 1978 
L 3425 0 
L 2847 0 
L 2847 2094 
Q 2847 2600 2669 2842 
Q 2491 3084 2119 3084 
Q 1678 3084 1418 2786 
Q 1159 2488 1159 1978 
L 1159 0 
L 581 0 
L 581 3500 
L 1159 3500 
L 1159 2956 
Q 1356 3278 1631 3431 
Q 1906 3584 2284 3584 
Q 2666 3584 2933 3390 
Q 3200 3197 3328 2828 
z
" transform="scale(0.015625)"/>
     </defs>
     <use xlink:href="#DejaVuSans-4c"/>
     <use xlink:href="#DejaVuSans-69" transform="translate(55.712891 0)"/>
     <use xlink:href="#DejaVuSans-6e" transform="translate(83.496094 0)"/>
     <use xlink:href="#DejaVuSans-65" transform="translate(146.875 0)"/>
     <use xlink:href="#DejaVuSans-61" transform="translate(208.398438 0)"/>
     <use xlink:href="#DejaVuSans-72" transform="translate(269.677734 0)"/>
     <use xlink:href="#DejaVuSans-20" transform="translate(310.791016 0)"/>
     <use xlink:href="#DejaVuSans-48" transform="translate(342.578125 0)"/>
     <use xlink:href="#DejaVuSans-61" transform="translate(417.773438 0)"/>
     <use xlink:href="#DejaVuSans-6c" transform="translate(479.052734 0)"/>
     <use xlink:href="#DejaVuSans-66" transform="translate(506.835938 0)"/>
     <use xlink:href="#DejaVuSans-73" transform="translate(542.041016 0)"/>
     <use xlink:href="#DejaVuSans-70" transform="translate(594.140625 0)"/>
     <use xlink:href="#DejaVuSans-61" transform="translate(657.617188 0)"/>
     <use xlink:href="#DejaVuSans-63" transform="translate(718.896484 0)"/>
     <use xlink:href="#DejaVuSans-65" transform="translate(773.876953 0)"/>
     <use xlink:href="#DejaVuSans-20" transform="translate(835.400391 0)"/>
     <use xlink:href="#DejaVuSans-45" transform="translate(867.1875 0)"/>
     <use xlink:href="#DejaVuSans-78" transform="translate(930.371094 0)"/>
     <use xlink:href="#DejaVuSans-61" transform="translate(989.550781 0)"/>
     <use xlink:href="#DejaVuSans-6d" transform="translate(1050.830078 0)"/>
     <use xlink:href="#DejaVuSans-70" transform="translate(1148.242188 0)"/>
     <use xlink:href="#DejaVuSans-6c" transform="translate(1211.71875 0)"/>
     <use xlink:href="#DejaVuSans-65" transform="translate(1239.501953 0)"/>
    </g>
   </g>
   <g class="legend">
    <g class="patch">
     <path d="M 55.982813 294.078125 
L 126.323438 294.078125 
Q 128.323438 294.078125 128.323438 292.078125 
L 128.323438 219.6875 
Q 128.323438 217.6875 126.323438 217.6875 
L 55.982813 217.6875 
Q 53.982813 217.6875 53.982813 219.6875 
L 53.982813 292.078125 
Q 53.982813 294.078125 55.982813 294.078125 
z
" style="fill: #ffffff; opacity: 0.8; stroke: #cccccc; stroke-linejoin: miter"/>
    </g>
    <g id="line2d_16">
     <path d="M 57.982813 225.785937 
L 67.982812 225.785937 
L 77.982812 225.785937 
" style="fill: none; stroke: #1f77b4; stroke-width: 1.5; stroke-linecap: square"/>
    </g>
    <g id="text_18" class="text">
     <!-- f(x) = 0 -->
     <g transform="translate(85.982812 229.285937) scale(0.1 -0.1)">
      <defs>
       <path id="DejaVuSans-28" d="M 1984 4856 
Q 1566 4138 1362 3434 
Q 1159 2731 1159 2009 
Q 1159 1288 1364 580 
Q 1569 -128 1984 -844 
L 1484 -844 
Q 1016 -109 783 600 
Q 550 1309 550 2009 
Q 550 2706 781 3412 
Q 1013 4119 1484 4856 
L 1984 4856 
z
" transform="scale(0.015625)"/>
       <path id="DejaVuSans-29" d="M 513 4856 
L 1013 4856 
Q 1481 4119 1714 3412 
Q 1947 2706 1947 2009 
Q 1947 1309 1714 600 
Q 1481 -109 1013 -844 
L 513 -844 
Q 928 -128 1133 580 
Q 1338 1288 1338 2009 
Q 1338 2731 1133 3434 
Q 928 4138 513 4856 
z
" transform="scale(0.015625)"/>
       <path id="DejaVuSans-3d" d="M 678 2906 
L 4684 2906 
L 4684 2381 
L 678 2381 
L 678 2906 
z
M 678 1631 
L 4684 1631 
L 4684 1100 
L 678 1100 
L 678 1631 
z
" transform="scale(0.015625)"/>
      </defs>
      <use xlink:href="#DejaVuSans-66"/>
      <use xlink:href="#DejaVuSans-28" transform="translate(35.205078 0)"/>
      <use xlink:href="#DejaVuSans-78" transform="translate(74.21875 0)"/>
      <use xlink:href="#DejaVuSans-29" transform="translate(133.398438 0)"/>
      <use xlink:href="#DejaVuSans-20" transform="translate(172.412109 0)"/>
      <use xlink:href="#DejaVuSans-3d" transform="translate(204.199219 0)"/>
      <use xlink:href="#DejaVuSans-20" transform="translate(287.988281 0)"/>
      <use xlink:href="#DejaVuSans-30" transform="translate(319.775391 0)"/>
     </g>
    </g>
    <g class="patch">
     <path d="M 57.982813 243.964062 
L 77.982812 243.964062 
L 77.982812 236.964062 
L 57.982813 236.964062 
z
" style="fill: #0000ff; fill-opacity: 0.2; stroke: #0000ff; stroke-opacity: 0.2; stroke-linejoin: miter"/>
    </g>
    <g id="text_19" class="text">
     <!-- f(x) &lt; 0 -->
     <g transform="translate(85.982812 243.964062) scale(0.1 -0.1)">
      <defs>
       <path id="DejaVuSans-3c" d="M 4684 3150 
L 1459 2003 
L 4684 863 
L 4684 294 
L 678 1747 
L 678 2266 
L 4684 3719 
L 4684 3150 
z
" transform="scale(0.015625)"/>
      </defs>
      <use xlink:href="#DejaVuSans-66"/>
      <use xlink:href="#DejaVuSans-28" transform="translate(35.205078 0)"/>
      <use xlink:href="#DejaVuSans-78" transform="translate(74.21875 0)"/>
      <use xlink:href="#DejaVuSans-29" transform="translate(133.398438 0)"/>
      <use xlink:href="#DejaVuSans-20" transform="translate(172.412109 0)"/>
      <use xlink:href="#DejaVuSans-3c" transform="translate(204.199219 0)"/>
      <use xlink:href="#DejaVuSans-20" transform="translate(287.988281 0)"/>
      <use xlink:href="#DejaVuSans-30" transform="translate(319.775391 0)"/>
     </g>
    </g>
    <g class="patch">
     <path d="M 57.982813 258.642187 
L 77.982812 258.642187 
L 77.982812 251.642187 
L 57.982813 251.642187 
z
" style="fill: #ff0000; fill-opacity: 0.2; stroke: #ff0000; stroke-opacity: 0.2; stroke-linejoin: miter"/>
    </g>
    <g id="text_20" class="text">
     <!-- f(x) &gt; 0 -->
     <g transform="translate(85.982812 258.642187) scale(0.1 -0.1)">
      <defs>
       <path id="DejaVuSans-3e" d="M 678 3150 
L 678 3719 
L 4684 2266 
L 4684 1747 
L 678 294 
L 678 863 
L 3897 2003 
L 678 3150 
z
" transform="scale(0.015625)"/>
      </defs>
      <use xlink:href="#DejaVuSans-66"/>
      <use xlink:href="#DejaVuSans-28" transform="translate(35.205078 0)"/>
      <use xlink:href="#DejaVuSans-78" transform="translate(74.21875 0)"/>
      <use xlink:href="#DejaVuSans-29" transform="translate(133.398438 0)"/>
      <use xlink:href="#DejaVuSans-20" transform="translate(172.412109 0)"/>
      <use xlink:href="#DejaVuSans-3e" transform="translate(204.199219 0)"/>
      <use xlink:href="#DejaVuSans-20" transform="translate(287.988281 0)"/>
      <use xlink:href="#DejaVuSans-30" transform="translate(319.775391 0)"/>
     </g>
    </g>
    <g id="PathCollection_3">
     <g>
      <use xlink:href="#mc48bd5368d" x="67.982812" y="270.695312" style="fill: #0000ff; stroke: #0000ff"/>
     </g>
    </g>
    <g id="text_21" class="text">
     <!-- class -1 -->
     <g transform="translate(85.982812 273.320312) scale(0.1 -0.1)">
      <defs>
       <path id="DejaVuSans-2d" d="M 313 2009 
L 1997 2009 
L 1997 1497 
L 313 1497 
L 313 2009 
z
" transform="scale(0.015625)"/>
      </defs>
      <use xlink:href="#DejaVuSans-63"/>
      <use xlink:href="#DejaVuSans-6c" transform="translate(54.980469 0)"/>
      <use xlink:href="#DejaVuSans-61" transform="translate(82.763672 0)"/>
      <use xlink:href="#DejaVuSans-73" transform="translate(144.042969 0)"/>
      <use xlink:href="#DejaVuSans-73" transform="translate(196.142578 0)"/>
      <use xlink:href="#DejaVuSans-20" transform="translate(248.242188 0)"/>
      <use xlink:href="#DejaVuSans-2d" transform="translate(280.029297 0)"/>
      <use xlink:href="#DejaVuSans-31" transform="translate(316.113281 0)"/>
     </g>
    </g>
    <g id="PathCollection_4">
     <g>
      <use xlink:href="#mb15d1b0243" x="67.982812" y="285.373437" style="fill: #ff0000; stroke: #ff0000"/>
     </g>
    </g>
    <g id="text_22" class="text">
     <!-- class 1 -->
     <g transform="translate(85.982812 287.998437) scale(0.1 -0.1)">
      <use xlink:href="#DejaVuSans-63"/>
      <use xlink:href="#DejaVuSans-6c" transform="translate(54.980469 0)"/>
      <use xlink:href="#DejaVuSans-61" transform="translate(82.763672 0)"/>
      <use xlink:href="#DejaVuSans-73" transform="translate(144.042969 0)"/>
      <use xlink:href="#DejaVuSans-73" transform="translate(196.142578 0)"/>
      <use xlink:href="#DejaVuSans-20" transform="translate(248.242188 0)"/>
      <use xlink:href="#DejaVuSans-31" transform="translate(280.029297 0)"/>
     </g>
    </g>
   </g>
  </g>
 </g>
 <defs>
  <clipPath id="pffac0172b2">
   <rect x="48.982813" y="22.318125" width="397.06" height="276.76"/>
  </clipPath>
 </defs>
</svg>
