<?xml version="1.0" encoding="utf-8" standalone="no"?>
<!DOCTYPE svg PUBLIC "-//W3C//DTD SVG 1.1//EN"
  "http://www.w3.org/Graphics/SVG/1.1/DTD/svg11.dtd">
<svg xmlns:xlink="http://www.w3.org/1999/xlink" width="402.645pt" height="337.582312pt" viewBox="0 0 402.645 337.582312" xmlns="http://www.w3.org/2000/svg" version="1.1">
<style>:root { --axis-color:#000; --grid-stroke:rgba(0,0,0,0.2); --plot3d-stroke:rgba(0,0,0,0.3); --plot3d-grid:rgba(0,0,0,0.2); }
@media (prefers-color-scheme:dark) { :root { --axis-color:#fff; --grid-stroke:rgba(255,255,255,0.2); --plot3d-stroke:rgba(255,255,255,0.3); --plot3d-grid:rgba(255,255,255,0.2); } }
.black{fill:#000000;stroke:#000000;}:root{--black:#000000;}.c1{fill:#FF0001;stroke:#FF0001;}:root{--c1:#FF0001;}.c2{fill:#00FF02;stroke:#00FF02;}:root{--c2:#00FF02;}.c3{fill:#0000FF;stroke:#0000FF;}:root{--c3:#0000FF;}.c4{fill:#FF00FF;stroke:#FF00FF;}:root{--c4:#FF00FF;}.c5{fill:#00FFFF;stroke:#00FFFF;}:root{--c5:#00FFFF;}.c6{fill:#FFFF00;stroke:#FFFF00;}:root{--c6:#FFFF00;}.c7{fill:#FF8000;stroke:#FF8000;}:root{--c7:#FF8000;}.c8{fill:#8000FF;stroke:#8000FF;}:root{--c8:#8000FF;}.gray{fill:#7f7f7f;stroke:#7f7f7f;}:root{--gray:#7f7f7f;}.grey{fill:#7f7f7f;stroke:#7f7f7f;}:root{--grey:#7f7f7f;}.octonary{fill:#bcbd22;stroke:#bcbd22;}:root{--octonary:#bcbd22;}.primary{fill:#d62728;stroke:#d62728;}:root{--primary:#d62728;}.quaternary{fill:#9467bd;stroke:#9467bd;}:root{--quaternary:#9467bd;}.quinary{fill:#8c564b;stroke:#8c564b;}:root{--quinary:#8c564b;}.secondary{fill:#2ca02c;stroke:#2ca02c;}:root{--secondary:#2ca02c;}.senary{fill:#e377c2;stroke:#e377c2;}:root{--senary:#e377c2;}.septenary{fill:#7f7f7f;stroke:#7f7f7f;}:root{--septenary:#7f7f7f;}.tertiary{fill:#1f77b4;stroke:#1f77b4;}:root{--tertiary:#1f77b4;}.white{fill:#ffffff;stroke:#ffffff;}:root{--white:#ffffff;}
@media (prefers-color-scheme:dark) { .black{fill:#FFFFFF;stroke:#FFFFFF;}:root{--black:#FFFFFF;}.c1{fill:#FF0001;stroke:#FF0001;}:root{--c1:#FF0001;}.c2{fill:#00FF02;stroke:#00FF02;}:root{--c2:#00FF02;}.c3{fill:#0000FF;stroke:#0000FF;}:root{--c3:#0000FF;}.c4{fill:#FF00FF;stroke:#FF00FF;}:root{--c4:#FF00FF;}.c5{fill:#00FFFF;stroke:#00FFFF;}:root{--c5:#00FFFF;}.c6{fill:#FFFF00;stroke:#FFFF00;}:root{--c6:#FFFF00;}.c7{fill:#FF8000;stroke:#FF8000;}:root{--c7:#FF8000;}.c8{fill:#8000FF;stroke:#8000FF;}:root{--c8:#8000FF;}.gray{fill:#CCCCCC;stroke:#CCCCCC;}:root{--gray:#CCCCCC;}.grey{fill:#CCCCCC;stroke:#CCCCCC;}:root{--grey:#CCCCCC;}.octonary{fill:#E6DB74;stroke:#E6DB74;}:root{--octonary:#E6DB74;}.primary{fill:#FF4A98;stroke:#FF4A98;}:root{--primary:#FF4A98;}.quaternary{fill:#B4A0FF;stroke:#B4A0FF;}:root{--quaternary:#B4A0FF;}.quinary{fill:#FFB86B;stroke:#FFB86B;}:root{--quinary:#FFB86B;}.secondary{fill:#0AFAFA;stroke:#0AFAFA;}:root{--secondary:#0AFAFA;}.senary{fill:#FF79C6;stroke:#FF79C6;}:root{--senary:#FF79C6;}.septenary{fill:#CCCCCC;stroke:#CCCCCC;}:root{--septenary:#CCCCCC;}.tertiary{fill:#7F83FF;stroke:#7F83FF;}:root{--tertiary:#7F83FF;}.white{fill:#000000;stroke:#000000;}:root{--white:#000000;} }
text,.text { fill:var(--axis-color)!important; stroke:none!important; }
.axis line,.axis path,.tick line,.tick path,path.domain,line.grid { stroke:var(--axis-color)!important; }
.legend text { fill:var(--axis-color)!important; }
.patch path[style*="stroke: currentColor"] { stroke:var(--axis-color)!important; }
g.legend>g:first-child>path:first-child { fill:rgba(255,255,255,0.8)!important; stroke:rgba(0,0,0,0.1)!important; }
@media (prefers-color-scheme:dark) { g.legend>g:first-child>path:first-child { fill:rgba(26,26,26,0.8)!important; stroke:rgba(255,255,255,0.1)!important; } }
.plot3d path,.plot3d polygon { stroke:var(--plot3d-stroke)!important; }
.plot3d-grid line { stroke:var(--plot3d-grid)!important; }
.plot3d-surface path[style*="fill:"] { fill-opacity:0.9!important; }
@media (prefers-color-scheme:dark) { .plot3d-surface path[style*="fill:"] { fill-opacity:0.95!important; filter:saturate(1.2)!important; } }</style>

 <metadata>
  <rdf:RDF xmlns:dc="http://purl.org/dc/elements/1.1/" xmlns:cc="http://creativecommons.org/ns#" xmlns:rdf="http://www.w3.org/1999/02/22-rdf-syntax-ns#">
   <cc:Work>
    <dc:type rdf:resource="http://purl.org/dc/dcmitype/StillImage"/>
    <dc:date>2026-01-03T22:17:23.991906</dc:date>
    <dc:format>image/svg+xml</dc:format>
    <dc:creator>
     <cc:Agent>
      <dc:title>Matplotlib v3.10.0, https://matplotlib.org/</dc:title>
     </cc:Agent>
    </dc:creator>
   </cc:Work>
  </rdf:RDF>
 </metadata>
 <defs>
  <style type="text/css">*{stroke-linejoin: round; stroke-linecap: butt}</style>
 </defs>
 <g id="figure_1">
  <g class="patch">
   <path d="M 0 337.582312 
L 402.645 337.582312 
L 402.645 0 
L 0 0 
L 0 337.582312 
z
" style="fill: none"/>
  </g>
  <g id="axes_1">
   <g class="patch">
    <path d="M 153.076542 153.86087 
L 261.088458 153.86087 
L 261.088458 38.16 
L 153.076542 38.16 
L 153.076542 153.86087 
z
" style="fill: none"/>
   </g>
   <g class="axis">
    <g class="tick xtick">
     <g id="line2d_1">
      <path d="M 170.43523 153.86087 
L 170.43523 38.16 
" clip-path="url(#pb5d305561c)" style="fill: none; stroke: #b0b0b0; stroke-opacity: 0.1; stroke-width: 0.5; stroke-linecap: square"/>
     </g>
     <g id="line2d_2">
      <defs>
       <path id="m10e2fa02b6" d="M 0 0 
L 0 3.5 
" style="stroke:var(--black); stroke-width: 0.8"/>
      </defs>
      <g>
       <use xlink:href="#m10e2fa02b6" x="170.43523" y="153.86087" style="stroke:var(--black); stroke-width: 0.8"/>
      </g>
     </g>
     <g id="text_1" class="text">
      <!-- −1 -->
      <g transform="translate(163.801246 167.699463) scale(0.09 -0.09)">
       <defs>
        <path id="DejaVuSerif-2212" d="M 678 2259 
L 4684 2259 
L 4684 1753 
L 678 1753 
L 678 2259 
z
" transform="scale(0.015625)"/>
        <path id="DejaVuSerif-31" d="M 909 0 
L 909 331 
L 1722 331 
L 1722 4213 
L 781 3603 
L 781 4013 
L 1919 4750 
L 2350 4750 
L 2350 331 
L 3163 331 
L 3163 0 
L 909 0 
z
" transform="scale(0.015625)"/>
       </defs>
       <use xlink:href="#DejaVuSerif-2212"/>
       <use xlink:href="#DejaVuSerif-31" transform="translate(83.789062 0)"/>
      </g>
     </g>
    </g>
    <g class="tick xtick">
     <g id="line2d_3">
      <path d="M 207.01978 153.86087 
L 207.01978 38.16 
" clip-path="url(#pb5d305561c)" style="fill: none; stroke: #b0b0b0; stroke-opacity: 0.1; stroke-width: 0.5; stroke-linecap: square"/>
     </g>
     <g id="line2d_4">
      <g>
       <use xlink:href="#m10e2fa02b6" x="207.01978" y="153.86087" style="stroke:var(--black); stroke-width: 0.8"/>
      </g>
     </g>
     <g id="text_2" class="text">
      <!-- 0 -->
      <g transform="translate(204.156655 167.699463) scale(0.09 -0.09)">
       <defs>
        <path id="DejaVuSerif-30" d="M 2034 219 
Q 2513 219 2750 744 
Q 2988 1269 2988 2328 
Q 2988 3391 2750 3916 
Q 2513 4441 2034 4441 
Q 1556 4441 1318 3916 
Q 1081 3391 1081 2328 
Q 1081 1269 1318 744 
Q 1556 219 2034 219 
z
M 2034 -91 
Q 1275 -91 848 546 
Q 422 1184 422 2328 
Q 422 3475 848 4112 
Q 1275 4750 2034 4750 
Q 2797 4750 3222 4112 
Q 3647 3475 3647 2328 
Q 3647 1184 3222 546 
Q 2797 -91 2034 -91 
z
" transform="scale(0.015625)"/>
       </defs>
       <use xlink:href="#DejaVuSerif-30"/>
      </g>
     </g>
    </g>
    <g class="tick xtick">
     <g id="line2d_5">
      <path d="M 243.604331 153.86087 
L 243.604331 38.16 
" clip-path="url(#pb5d305561c)" style="fill: none; stroke: #b0b0b0; stroke-opacity: 0.1; stroke-width: 0.5; stroke-linecap: square"/>
     </g>
     <g id="line2d_6">
      <g>
       <use xlink:href="#m10e2fa02b6" x="243.604331" y="153.86087" style="stroke:var(--black); stroke-width: 0.8"/>
      </g>
     </g>
     <g id="text_3" class="text">
      <!-- 1 -->
      <g transform="translate(240.741206 167.699463) scale(0.09 -0.09)">
       <use xlink:href="#DejaVuSerif-31"/>
      </g>
     </g>
    </g>
    <g id="text_4" class="text">
     <!-- $\beta(t)$ -->
     <g transform="translate(198.5325 181.071182) scale(0.1 -0.1)">
      <defs>
       <path id="Cmmi10-af" d="M 172 -1241 
Q 153 -1241 137 -1219 
Q 122 -1197 122 -1178 
L 1106 2778 
Q 1191 3097 1353 3397 
Q 1516 3697 1761 3955 
Q 2006 4213 2300 4363 
Q 2594 4513 2925 4513 
Q 3163 4513 3355 4408 
Q 3547 4303 3658 4114 
Q 3769 3925 3769 3688 
Q 3769 3459 3681 3251 
Q 3594 3044 3437 2864 
Q 3281 2684 3103 2572 
Q 3206 2506 3287 2404 
Q 3369 2303 3419 2192 
Q 3469 2081 3497 1945 
Q 3525 1809 3525 1691 
Q 3525 1363 3384 1044 
Q 3244 725 3001 465 
Q 2759 206 2446 54 
Q 2134 -97 1806 -97 
Q 1447 -97 1159 100 
Q 872 297 763 634 
L 300 -1203 
Q 300 -1241 250 -1241 
L 172 -1241 
z
M 1819 78 
Q 2106 78 2339 267 
Q 2572 456 2723 742 
Q 2875 1028 2954 1348 
Q 3034 1669 3034 1931 
Q 3034 2256 2847 2444 
Q 2628 2363 2419 2363 
Q 1913 2363 1913 2534 
Q 1913 2759 2491 2759 
Q 2697 2759 2869 2694 
Q 3006 2800 3118 3006 
Q 3231 3213 3289 3438 
Q 3347 3663 3347 3859 
Q 3347 4069 3236 4208 
Q 3125 4347 2913 4347 
Q 2522 4347 2186 4106 
Q 1850 3866 1619 3498 
Q 1388 3131 1288 2741 
L 934 1325 
Q 900 1178 891 997 
Q 891 597 1153 337 
Q 1416 78 1819 78 
z
M 2106 2553 
Q 2203 2528 2425 2528 
Q 2534 2528 2644 2566 
Q 2638 2572 2619 2572 
Q 2550 2591 2472 2591 
Q 2181 2591 2106 2553 
z
" transform="scale(0.015625)"/>
       <path id="Cmr10-28" d="M 1984 -1588 
Q 1628 -1306 1370 -942 
Q 1113 -578 948 -165 
Q 784 247 703 697 
Q 622 1147 622 1600 
Q 622 2059 703 2509 
Q 784 2959 951 3375 
Q 1119 3791 1378 4153 
Q 1638 4516 1984 4788 
Q 1984 4800 2016 4800 
L 2075 4800 
Q 2094 4800 2109 4783 
Q 2125 4766 2125 4744 
Q 2125 4716 2113 4703 
Q 1800 4397 1592 4047 
Q 1384 3697 1257 3301 
Q 1131 2906 1075 2482 
Q 1019 2059 1019 1600 
Q 1019 -434 2106 -1491 
Q 2125 -1509 2125 -1544 
Q 2125 -1559 2108 -1579 
Q 2091 -1600 2075 -1600 
L 2016 -1600 
Q 1984 -1600 1984 -1588 
z
" transform="scale(0.015625)"/>
       <path id="Cmmi10-74" d="M 397 519 
Q 397 613 416 697 
L 878 2534 
L 206 2534 
Q 141 2534 141 2619 
Q 166 2759 225 2759 
L 934 2759 
L 1191 3803 
Q 1216 3888 1291 3947 
Q 1366 4006 1459 4006 
Q 1541 4006 1595 3957 
Q 1650 3909 1650 3828 
Q 1650 3809 1648 3798 
Q 1647 3788 1644 3775 
L 1388 2759 
L 2047 2759 
Q 2113 2759 2113 2675 
Q 2109 2659 2100 2621 
Q 2091 2584 2075 2559 
Q 2059 2534 2028 2534 
L 1331 2534 
L 872 684 
Q 825 503 825 372 
Q 825 97 1013 97 
Q 1294 97 1511 361 
Q 1728 625 1844 941 
Q 1869 978 1894 978 
L 1972 978 
Q 1997 978 2012 961 
Q 2028 944 2028 922 
Q 2028 909 2022 903 
Q 1881 516 1612 222 
Q 1344 -72 997 -72 
Q 744 -72 570 93 
Q 397 259 397 519 
z
" transform="scale(0.015625)"/>
       <path id="Cmr10-29" d="M 416 -1600 
Q 359 -1600 359 -1544 
Q 359 -1516 372 -1503 
Q 1466 -434 1466 1600 
Q 1466 3634 384 4691 
Q 359 4706 359 4744 
Q 359 4766 376 4783 
Q 394 4800 416 4800 
L 475 4800 
Q 494 4800 506 4788 
Q 966 4425 1272 3906 
Q 1578 3388 1720 2800 
Q 1863 2213 1863 1600 
Q 1863 1147 1786 708 
Q 1709 269 1542 -157 
Q 1375 -584 1119 -945 
Q 863 -1306 506 -1588 
Q 494 -1600 475 -1600 
L 416 -1600 
z
" transform="scale(0.015625)"/>
      </defs>
      <use xlink:href="#Cmmi10-af"/>
      <use xlink:href="#Cmr10-28" transform="translate(56.494141 0)"/>
      <use xlink:href="#Cmmi10-74" transform="translate(95.3125 0)"/>
      <use xlink:href="#Cmr10-29" transform="translate(131.396484 0)"/>
     </g>
    </g>
   </g>
   <g class="axis">
    <g class="tick ytick">
     <g id="line2d_7">
      <path d="M 153.076542 135.814204 
L 261.088458 135.814204 
" clip-path="url(#pb5d305561c)" style="fill: none; stroke: #b0b0b0; stroke-opacity: 0.1; stroke-width: 0.5; stroke-linecap: square"/>
     </g>
     <g id="line2d_8">
      <defs>
       <path id="md89aa72a92" d="M 0 0 
L -3.5 0 
" style="stroke:var(--black); stroke-width: 0.8"/>
      </defs>
      <g>
       <use xlink:href="#md89aa72a92" x="153.076542" y="135.814204" style="stroke:var(--black); stroke-width: 0.8"/>
      </g>
     </g>
     <g id="text_5" class="text">
      <!-- −1 -->
      <g transform="translate(132.808573 139.233501) scale(0.09 -0.09)">
       <use xlink:href="#DejaVuSerif-2212"/>
       <use xlink:href="#DejaVuSerif-31" transform="translate(83.789062 0)"/>
      </g>
     </g>
    </g>
    <g class="tick ytick">
     <g id="line2d_9">
      <path d="M 153.076542 99.229654 
L 261.088458 99.229654 
" clip-path="url(#pb5d305561c)" style="fill: none; stroke: #b0b0b0; stroke-opacity: 0.1; stroke-width: 0.5; stroke-linecap: square"/>
     </g>
     <g id="line2d_10">
      <g>
       <use xlink:href="#md89aa72a92" x="153.076542" y="99.229654" style="stroke:var(--black); stroke-width: 0.8"/>
      </g>
     </g>
     <g id="text_6" class="text">
      <!-- 0 -->
      <g transform="translate(140.350292 102.648951) scale(0.09 -0.09)">
       <use xlink:href="#DejaVuSerif-30"/>
      </g>
     </g>
    </g>
    <g class="tick ytick">
     <g id="line2d_11">
      <path d="M 153.076542 62.645103 
L 261.088458 62.645103 
" clip-path="url(#pb5d305561c)" style="fill: none; stroke: #b0b0b0; stroke-opacity: 0.1; stroke-width: 0.5; stroke-linecap: square"/>
     </g>
     <g id="line2d_12">
      <g>
       <use xlink:href="#md89aa72a92" x="153.076542" y="62.645103" style="stroke:var(--black); stroke-width: 0.8"/>
      </g>
     </g>
     <g id="text_7" class="text">
      <!-- 1 -->
      <g transform="translate(140.350292 66.0644) scale(0.09 -0.09)">
       <use xlink:href="#DejaVuSerif-31"/>
      </g>
     </g>
    </g>
    <g id="text_8" class="text">
     <!-- $\beta^2(t)$ -->
     <g transform="translate(126.308573 107.210435) rotate(-90) scale(0.1 -0.1)">
      <defs>
       <path id="Cmr10-32" d="M 319 0 
L 319 172 
Q 319 188 331 206 
L 1325 1306 
Q 1550 1550 1690 1715 
Q 1831 1881 1968 2097 
Q 2106 2313 2186 2536 
Q 2266 2759 2266 3009 
Q 2266 3272 2169 3511 
Q 2072 3750 1880 3894 
Q 1688 4038 1416 4038 
Q 1138 4038 916 3870 
Q 694 3703 603 3438 
Q 628 3444 672 3444 
Q 816 3444 917 3347 
Q 1019 3250 1019 3097 
Q 1019 2950 917 2848 
Q 816 2747 672 2747 
Q 522 2747 420 2851 
Q 319 2956 319 3097 
Q 319 3338 409 3548 
Q 500 3759 670 3923 
Q 841 4088 1055 4175 
Q 1269 4263 1509 4263 
Q 1875 4263 2190 4108 
Q 2506 3953 2690 3670 
Q 2875 3388 2875 3009 
Q 2875 2731 2753 2481 
Q 2631 2231 2440 2026 
Q 2250 1822 1953 1562 
Q 1656 1303 1563 1216 
L 838 519 
L 1453 519 
Q 1906 519 2211 526 
Q 2516 534 2534 550 
Q 2609 631 2688 1141 
L 2875 1141 
L 2694 0 
L 319 0 
z
" transform="scale(0.015625)"/>
      </defs>
      <use xlink:href="#Cmmi10-af" transform="translate(0 0.109375)"/>
      <use xlink:href="#Cmr10-32" transform="translate(68.326328 38.373438) scale(0.7)"/>
      <use xlink:href="#Cmr10-28" transform="translate(109.703672 0.109375)"/>
      <use xlink:href="#Cmmi10-74" transform="translate(148.522031 0.109375)"/>
      <use xlink:href="#Cmr10-29" transform="translate(184.606016 0.109375)"/>
     </g>
    </g>
   </g>
   <g id="PathCollection_1">
    <defs>
     <path id="m3970ce9dd7" d="M 0 2.738613 
C 0.726289 2.738613 1.422928 2.450055 1.936492 1.936492 
C 2.450055 1.422928 2.738613 0.726289 2.738613 0 
C 2.738613 -0.726289 2.450055 -1.422928 1.936492 -1.936492 
C 1.422928 -2.450055 0.726289 -2.738613 0 -2.738613 
C -0.726289 -2.738613 -1.422928 -2.450055 -1.936492 -1.936492 
C -2.450055 -1.422928 -2.738613 -0.726289 -2.738613 0 
C -2.738613 0.726289 -2.450055 1.422928 -1.936492 1.936492 
C -1.422928 2.450055 -0.726289 2.738613 0 2.738613 
z
" style="stroke: #ff0001; stroke-opacity: 0.8"/>
    </defs>
    <g clip-path="url(#pb5d305561c)">
     <use xlink:href="#m3970ce9dd7" x="222.001639" y="93.094384" style="fill: #ff0001; fill-opacity: 0.8; stroke: #ff0001; stroke-opacity: 0.8"/>
    </g>
   </g>
   <g id="line2d_13">
    <path d="M 207.01978 99.229654 
L 204.457365 99.05018 
L 206.379215 99.218438 
L 203.129886 98.816056 
L 199.001673 97.472353 
L 194.964964 95.257524 
L 201.768432 98.475875 
L 203.40466 98.872424 
L 206.680304 99.226504 
L 213.268296 98.162429 
L 212.439496 98.426765 
L 205.326286 99.151262 
L 206.319391 99.216245 
L 205.347156 99.153182 
L 202.546325 98.682652 
L 194.507384 94.95025 
L 200.099576 97.920652 
L 205.375639 99.155765 
L 198.462644 97.228137 
L 199.399469 97.642395 
L 195.501419 95.603187 
L 191.808844 92.905329 
L 193.937545 94.551589 
L 197.566902 96.787177 
L 191.006074 92.22017 
L 188.41163 89.764913 
L 186.470768 87.687571 
L 181.120387 80.894631 
L 175.647112 72.326375 
L 175.658937 72.346653 
L 170.754297 63.280454 
L 167.984039 57.57849 
L 162.077535 44.020408 
L 167.08102 55.629156 
L 176.585273 73.911337 
L 178.972029 77.726688 
L 173.370673 68.280457 
L 171.570577 64.880563 
L 175.244596 71.631601 
L 174.883031 70.999959 
L 178.57564 77.114604 
L 181.851972 81.915826 
L 188.910139 90.265238 
L 185.622319 86.714771 
L 182.631901 82.972281 
L 189.666069 90.998001 
L 192.192093 93.220005 
L 198.789378 97.378065 
L 196.514166 96.212863 
L 194.349212 94.841372 
L 188.375902 89.728533 
L 192.640031 93.577617 
L 187.412102 88.720817 
L 191.12363 92.322705 
L 197.692737 96.851772 
L 201.650249 98.441565 
L 203.810125 98.948062 
L 202.634694 98.70405 
L 205.519263 99.16811 
L 203.451093 98.881541 
L 201.448955 98.38137 
L 201.487873 98.39318 
L 195.418453 95.550757 
L 194.135811 94.692311 
L 194.043694 94.627196 
L 197.764413 96.888178 
L 199.610458 97.729073 
L 199.591231 97.721275 
L 202.273378 98.613866 
L 206.603611 99.22492 
L 204.947327 99.112253 
L 209.440265 99.069511 
L 209.195497 99.100262 
L 206.966705 99.229577 
L 202.729407 98.726509 
L 208.27371 99.186676 
L 210.09529 98.971109 
L 215.447522 97.28821 
L 215.438596 97.292321 
L 222.664791 92.539224 
L 221.769875 93.282737 
L 225.672929 89.719083 
L 220.528214 94.241816 
L 214.810787 97.570489 
L 211.033255 98.789359 
L 216.007759 97.021515 
L 217.063095 96.472529 
L 213.14695 98.203477 
L 206.688092 99.226647 
L 205.953898 99.1986 
L 208.075887 99.199167 
L 212.659755 98.36018 
L 217.183214 96.406183 
L 214.639811 97.642512 
L 221.156912 93.766733 
L 217.71924 96.100507 
L 215.731569 97.155137 
L 213.092251 98.221717 
L 216.319101 96.865886 
L 214.539116 97.684181 
L 216.889393 96.567075 
L 222.980408 92.266561 
L 230.394387 84.295146 
L 235.152144 77.596755 
L 233.28707 80.370039 
L 240.286115 68.980572 
L 235.890123 76.446904 
L 237.090401 74.513148 
L 242.539916 64.742964 
L 239.10266 71.094521 
L 237.87557 73.20556 
L 244.173115 61.498692 
L 243.506313 62.840876 
L 246.492707 56.640311 
L 236.915238 74.80026 
L 238.150394 72.739918 
L 233.726794 79.733321 
L 233.859033 79.539772 
L 229.438247 85.491952 
L 228.168458 87.004095 
L 231.22616 83.213362 
L 235.961954 76.333393 
L 240.282166 68.987753 
L 235.126507 77.636165 
L 233.104537 80.631241 
L 235.952851 76.347794 
L 229.467043 85.456638 
L 228.465525 86.658228 
L 223.487383 91.817183 
L 220.065834 94.57743 
L 218.715013 95.490959 
L 215.878899 97.084377 
L 215.943172 97.053136 
L 213.513419 98.077054 
L 211.49015 98.683407 
L 211.817606 98.60045 
L 219.913506 94.685436 
L 220.678462 94.130245 
L 223.89568 91.445057 
L 228.156945 87.017402 
L 236.482213 75.502837 
L 242.940388 63.960939 
L 246.529022 56.561911 
L 244.873528 60.062677 
L 249.750202 49.32091 
L 252.087465 43.711787 
L 248.037695 53.241134 
L 244.620185 60.585188 
L 229.426903 85.505851 
L 235.211129 77.505944 
L 234.53618 78.533698 
L 238.281823 72.515773 
L 231.124265 83.347918 
L 231.124265 83.347918 
" clip-path="url(#pb5d305561c)" style="fill: none; stroke: #8000ff; stroke-width: 2; stroke-linecap: square"/>
   </g>
   <g id="line2d_14">
    <path d="M 207.01978 105.364923 
L 162.077535 142.173813 
L 252.087465 68.453295 
L 231.124265 85.622712 
" clip-path="url(#pb5d305561c)" style="fill: none; stroke-dasharray: 7.4,3.2; stroke-dashoffset: 0; stroke: #ff8000; stroke-width: 2"/>
   </g>
   <g class="patch">
    <path d="M 153.076542 153.86087 
L 153.076542 38.16 
" style="fill: none; stroke:var(--black); stroke-width: 0.8; stroke-linejoin: miter; stroke-linecap: square"/>
   </g>
   <g class="patch">
    <path d="M 153.076542 153.86087 
L 261.088458 153.86087 
" style="fill: none; stroke:var(--black); stroke-width: 0.8; stroke-linejoin: miter; stroke-linecap: square"/>
   </g>
   <g class="legend">
    <g class="patch">
     <path d="M 151.10822 76.654017 
L 252.62822 76.654017 
Q 254.42822 76.654017 254.42822 74.854017 
L 254.42822 46.774017 
Q 254.42822 44.974017 252.62822 44.974017 
L 151.10822 44.974017 
Q 149.30822 44.974017 149.30822 46.774017 
L 149.30822 74.854017 
Q 149.30822 76.654017 151.10822 76.654017 
L 151.10822 76.654017 
z
" style="fill: none; opacity: 0.9; stroke: #cccccc; stroke-linejoin: miter"/>
    </g>
    <g id="line2d_15">
     <path d="M 152.90822 53.074017 
L 161.90822 53.074017 
L 170.90822 53.074017 
" style="fill: none; stroke: #8000ff; stroke-width: 2; stroke-linecap: square"/>
    </g>
    <g id="text_9" class="text">
     <!-- $\beta^2(t)$ -->
     <g transform="translate(178.10822 56.224017) scale(0.09 -0.09)">
      <use xlink:href="#Cmmi10-af" transform="translate(0 0.109375)"/>
      <use xlink:href="#Cmr10-32" transform="translate(68.326328 38.373438) scale(0.7)"/>
      <use xlink:href="#Cmr10-28" transform="translate(109.703672 0.109375)"/>
      <use xlink:href="#Cmmi10-74" transform="translate(148.522031 0.109375)"/>
      <use xlink:href="#Cmr10-29" transform="translate(184.606016 0.109375)"/>
     </g>
    </g>
    <g id="line2d_16">
     <path d="M 152.90822 67.474017 
L 161.90822 67.474017 
L 170.90822 67.474017 
" style="fill: none; stroke-dasharray: 7.4,3.2; stroke-dashoffset: 0; stroke: #ff8000; stroke-width: 2"/>
    </g>
    <g id="text_10" class="text">
     <!-- $2\beta_i(\beta(t) - \beta_i) + \beta_i^2$ -->
     <g transform="translate(178.10822 70.624017) scale(0.09 -0.09)">
      <defs>
       <path id="Cmmi10-69" d="M 500 459 
Q 500 578 550 709 
L 1069 2088 
Q 1153 2322 1153 2472 
Q 1153 2663 1013 2663 
Q 759 2663 595 2402 
Q 431 2141 353 1819 
Q 341 1778 300 1778 
L 225 1778 
Q 172 1778 172 1838 
L 172 1856 
Q 275 2238 487 2533 
Q 700 2828 1025 2828 
Q 1253 2828 1411 2678 
Q 1569 2528 1569 2297 
Q 1569 2178 1516 2047 
L 997 672 
Q 909 459 909 288 
Q 909 97 1056 97 
Q 1306 97 1473 364 
Q 1641 631 1709 941 
Q 1722 978 1759 978 
L 1838 978 
Q 1863 978 1878 961 
Q 1894 944 1894 922 
Q 1894 916 1888 903 
Q 1800 541 1583 234 
Q 1366 -72 1044 -72 
Q 819 -72 659 83 
Q 500 238 500 459 
z
M 1222 3878 
Q 1222 4013 1334 4122 
Q 1447 4231 1581 4231 
Q 1691 4231 1761 4164 
Q 1831 4097 1831 3994 
Q 1831 3850 1717 3742 
Q 1603 3634 1466 3634 
Q 1363 3634 1292 3704 
Q 1222 3775 1222 3878 
z
" transform="scale(0.015625)"/>
       <path id="Cmsy10-a1" d="M 653 1472 
Q 600 1472 565 1512 
Q 531 1553 531 1600 
Q 531 1647 565 1687 
Q 600 1728 653 1728 
L 4325 1728 
Q 4375 1728 4408 1687 
Q 4441 1647 4441 1600 
Q 4441 1553 4408 1512 
Q 4375 1472 4325 1472 
L 653 1472 
z
" transform="scale(0.015625)"/>
       <path id="Cmr10-2b" d="M 481 1472 
Q 428 1472 393 1512 
Q 359 1553 359 1600 
Q 359 1647 393 1687 
Q 428 1728 481 1728 
L 2363 1728 
L 2363 3616 
Q 2363 3666 2400 3698 
Q 2438 3731 2491 3731 
Q 2538 3731 2578 3698 
Q 2619 3666 2619 3616 
L 2619 1728 
L 4500 1728 
Q 4547 1728 4581 1687 
Q 4616 1647 4616 1600 
Q 4616 1553 4581 1512 
Q 4547 1472 4500 1472 
L 2619 1472 
L 2619 -416 
Q 2619 -466 2578 -498 
Q 2538 -531 2491 -531 
Q 2438 -531 2400 -498 
Q 2363 -466 2363 -416 
L 2363 1472 
L 481 1472 
z
" transform="scale(0.015625)"/>
      </defs>
      <use xlink:href="#Cmr10-32" transform="translate(0 0.109375)"/>
      <use xlink:href="#Cmmi10-af" transform="translate(50 0.109375)"/>
      <use xlink:href="#Cmmi10-69" transform="translate(106.494141 -16.896875) scale(0.7)"/>
      <use xlink:href="#Cmr10-28" transform="translate(136.968164 0.109375)"/>
      <use xlink:href="#Cmmi10-af" transform="translate(175.786523 0.109375)"/>
      <use xlink:href="#Cmr10-28" transform="translate(232.280664 0.109375)"/>
      <use xlink:href="#Cmmi10-74" transform="translate(271.099023 0.109375)"/>
      <use xlink:href="#Cmr10-29" transform="translate(307.183008 0.109375)"/>
      <use xlink:href="#Cmsy10-a1" transform="translate(363.559961 0.109375)"/>
      <use xlink:href="#Cmmi10-af" transform="translate(458.804102 0.109375)"/>
      <use xlink:href="#Cmmi10-69" transform="translate(515.298242 -16.896875) scale(0.7)"/>
      <use xlink:href="#Cmr10-29" transform="translate(545.772266 0.109375)"/>
      <use xlink:href="#Cmr10-2b" transform="translate(602.149219 0.109375)"/>
      <use xlink:href="#Cmmi10-af" transform="translate(697.393359 0.109375)"/>
      <use xlink:href="#Cmr10-32" transform="translate(765.719688 38.373438) scale(0.7)"/>
      <use xlink:href="#Cmmi10-69" transform="translate(753.8875 -25.4) scale(0.7)"/>
     </g>
    </g>
   </g>
  </g>
  <g id="axes_2">
   <g class="patch">
    <path d="M 153.076542 304.272 
L 261.088458 304.272 
L 261.088458 188.57113 
L 153.076542 188.57113 
L 153.076542 304.272 
z
" style="fill: none"/>
   </g>
   <g class="axis">
    <g class="tick xtick">
     <g id="line2d_17">
      <path d="M 170.43523 304.272 
L 170.43523 188.57113 
" clip-path="url(#pa63e99d5de)" style="fill: none; stroke: #b0b0b0; stroke-opacity: 0.1; stroke-width: 0.5; stroke-linecap: square"/>
     </g>
     <g id="line2d_18">
      <g>
       <use xlink:href="#m10e2fa02b6" x="170.43523" y="304.272" style="stroke:var(--black); stroke-width: 0.8"/>
      </g>
     </g>
     <g id="text_11" class="text">
      <!-- −1 -->
      <g transform="translate(163.801246 318.110594) scale(0.09 -0.09)">
       <use xlink:href="#DejaVuSerif-2212"/>
       <use xlink:href="#DejaVuSerif-31" transform="translate(83.789062 0)"/>
      </g>
     </g>
    </g>
    <g class="tick xtick">
     <g id="line2d_19">
      <path d="M 207.01978 304.272 
L 207.01978 188.57113 
" clip-path="url(#pa63e99d5de)" style="fill: none; stroke: #b0b0b0; stroke-opacity: 0.1; stroke-width: 0.5; stroke-linecap: square"/>
     </g>
     <g id="line2d_20">
      <g>
       <use xlink:href="#m10e2fa02b6" x="207.01978" y="304.272" style="stroke:var(--black); stroke-width: 0.8"/>
      </g>
     </g>
     <g id="text_12" class="text">
      <!-- 0 -->
      <g transform="translate(204.156655 318.110594) scale(0.09 -0.09)">
       <use xlink:href="#DejaVuSerif-30"/>
      </g>
     </g>
    </g>
    <g class="tick xtick">
     <g id="line2d_21">
      <path d="M 243.604331 304.272 
L 243.604331 188.57113 
" clip-path="url(#pa63e99d5de)" style="fill: none; stroke: #b0b0b0; stroke-opacity: 0.1; stroke-width: 0.5; stroke-linecap: square"/>
     </g>
     <g id="line2d_22">
      <g>
       <use xlink:href="#m10e2fa02b6" x="243.604331" y="304.272" style="stroke:var(--black); stroke-width: 0.8"/>
      </g>
     </g>
     <g id="text_13" class="text">
      <!-- 1 -->
      <g transform="translate(240.741206 318.110594) scale(0.09 -0.09)">
       <use xlink:href="#DejaVuSerif-31"/>
      </g>
     </g>
    </g>
    <g id="text_14" class="text">
     <!-- $\beta(t)$ -->
     <g transform="translate(198.5325 331.482312) scale(0.1 -0.1)">
      <use xlink:href="#Cmmi10-af"/>
      <use xlink:href="#Cmr10-28" transform="translate(56.494141 0)"/>
      <use xlink:href="#Cmmi10-74" transform="translate(95.3125 0)"/>
      <use xlink:href="#Cmr10-29" transform="translate(131.396484 0)"/>
     </g>
    </g>
   </g>
   <g class="axis">
    <g class="tick ytick">
     <g id="line2d_23">
      <path d="M 153.076542 286.225334 
L 261.088458 286.225334 
" clip-path="url(#pa63e99d5de)" style="fill: none; stroke: #b0b0b0; stroke-opacity: 0.1; stroke-width: 0.5; stroke-linecap: square"/>
     </g>
     <g id="line2d_24">
      <g>
       <use xlink:href="#md89aa72a92" x="153.076542" y="286.225334" style="stroke:var(--black); stroke-width: 0.8"/>
      </g>
     </g>
     <g id="text_15" class="text">
      <!-- −1 -->
      <g transform="translate(132.808573 289.644631) scale(0.09 -0.09)">
       <use xlink:href="#DejaVuSerif-2212"/>
       <use xlink:href="#DejaVuSerif-31" transform="translate(83.789062 0)"/>
      </g>
     </g>
    </g>
    <g class="tick ytick">
     <g id="line2d_25">
      <path d="M 153.076542 249.640784 
L 261.088458 249.640784 
" clip-path="url(#pa63e99d5de)" style="fill: none; stroke: #b0b0b0; stroke-opacity: 0.1; stroke-width: 0.5; stroke-linecap: square"/>
     </g>
     <g id="line2d_26">
      <g>
       <use xlink:href="#md89aa72a92" x="153.076542" y="249.640784" style="stroke:var(--black); stroke-width: 0.8"/>
      </g>
     </g>
     <g id="text_16" class="text">
      <!-- 0 -->
      <g transform="translate(140.350292 253.060081) scale(0.09 -0.09)">
       <use xlink:href="#DejaVuSerif-30"/>
      </g>
     </g>
    </g>
    <g class="tick ytick">
     <g id="line2d_27">
      <path d="M 153.076542 213.056234 
L 261.088458 213.056234 
" clip-path="url(#pa63e99d5de)" style="fill: none; stroke: #b0b0b0; stroke-opacity: 0.1; stroke-width: 0.5; stroke-linecap: square"/>
     </g>
     <g id="line2d_28">
      <g>
       <use xlink:href="#md89aa72a92" x="153.076542" y="213.056234" style="stroke:var(--black); stroke-width: 0.8"/>
      </g>
     </g>
     <g id="text_17" class="text">
      <!-- 1 -->
      <g transform="translate(140.350292 216.475531) scale(0.09 -0.09)">
       <use xlink:href="#DejaVuSerif-31"/>
      </g>
     </g>
    </g>
    <g id="text_18" class="text">
     <!-- $\beta^2(t)$ -->
     <g transform="translate(126.308573 257.621565) rotate(-90) scale(0.1 -0.1)">
      <use xlink:href="#Cmmi10-af" transform="translate(0 0.109375)"/>
      <use xlink:href="#Cmr10-32" transform="translate(68.326328 38.373438) scale(0.7)"/>
      <use xlink:href="#Cmr10-28" transform="translate(109.703672 0.109375)"/>
      <use xlink:href="#Cmmi10-74" transform="translate(148.522031 0.109375)"/>
      <use xlink:href="#Cmr10-29" transform="translate(184.606016 0.109375)"/>
     </g>
    </g>
   </g>
   <g id="PathCollection_2">
    <g clip-path="url(#pa63e99d5de)">
     <use xlink:href="#m3970ce9dd7" x="222.001639" y="243.505515" style="fill: #ff0001; fill-opacity: 0.8; stroke: #ff0001; stroke-opacity: 0.8"/>
    </g>
   </g>
   <g id="line2d_29">
    <path d="M 207.01978 249.640784 
L 204.457365 249.46131 
L 206.379215 249.629568 
L 203.129886 249.227187 
L 199.001673 247.883484 
L 194.964964 245.668654 
L 201.768432 248.887005 
L 203.40466 249.283554 
L 206.680304 249.637634 
L 213.268296 248.573559 
L 212.439496 248.837895 
L 205.326286 249.562393 
L 206.319391 249.627376 
L 205.347156 249.564313 
L 202.546325 249.093783 
L 194.507384 245.36138 
L 200.099576 248.331783 
L 205.375639 249.566895 
L 198.462644 247.639268 
L 199.399469 248.053526 
L 195.501419 246.014318 
L 191.808844 243.31646 
L 193.937545 244.96272 
L 197.566902 247.198307 
L 191.006074 242.631301 
L 188.41163 240.176044 
L 186.470768 238.098702 
L 181.120387 231.305761 
L 175.647112 222.737506 
L 175.658937 222.757784 
L 170.754297 213.691584 
L 167.984039 207.989621 
L 162.077535 194.431539 
L 167.08102 206.040286 
L 176.585273 224.322468 
L 178.972029 228.137818 
L 173.370673 218.691588 
L 171.570577 215.291694 
L 175.244596 222.042732 
L 174.883031 221.411089 
L 178.57564 227.525735 
L 181.851972 232.326957 
L 188.910139 240.676368 
L 185.622319 237.125902 
L 182.631901 233.383412 
L 189.666069 241.409131 
L 192.192093 243.631135 
L 198.789378 247.789196 
L 196.514166 246.623993 
L 194.349212 245.252503 
L 188.375902 240.139664 
L 192.640031 243.988748 
L 187.412102 239.131948 
L 191.12363 242.733836 
L 197.692737 247.262902 
L 201.650249 248.852695 
L 203.810125 249.359193 
L 202.634694 249.11518 
L 205.519263 249.57924 
L 203.451093 249.292672 
L 201.448955 248.7925 
L 201.487873 248.804311 
L 195.418453 245.961887 
L 194.135811 245.103441 
L 194.043694 245.038327 
L 197.764413 247.299309 
L 199.610458 248.140204 
L 199.591231 248.132406 
L 202.273378 249.024996 
L 206.603611 249.63605 
L 204.947327 249.523383 
L 209.440265 249.480642 
L 209.195497 249.511392 
L 206.966705 249.640707 
L 202.729407 249.13764 
L 208.27371 249.597806 
L 210.09529 249.382239 
L 215.447522 247.699341 
L 215.438596 247.703451 
L 222.664791 242.950355 
L 221.769875 243.693867 
L 225.672929 240.130214 
L 220.528214 244.652947 
L 214.810787 247.98162 
L 211.033255 249.20049 
L 216.007759 247.432646 
L 217.063095 246.883659 
L 213.14695 248.614608 
L 206.688092 249.637777 
L 205.953898 249.60973 
L 208.075887 249.610297 
L 212.659755 248.77131 
L 217.183214 246.817314 
L 214.639811 248.053642 
L 221.156912 244.177864 
L 217.71924 246.511637 
L 215.731569 247.566268 
L 213.092251 248.632848 
L 216.319101 247.277017 
L 214.539116 248.095312 
L 216.889393 246.978205 
L 222.980408 242.677691 
L 230.394387 234.706276 
L 235.152144 228.007885 
L 233.28707 230.78117 
L 240.286115 219.391703 
L 235.890123 226.858034 
L 237.090401 224.924279 
L 242.539916 215.154095 
L 239.10266 221.505652 
L 237.87557 223.61669 
L 244.173115 211.909823 
L 243.506313 213.252006 
L 246.492707 207.051441 
L 236.915238 225.21139 
L 238.150394 223.151048 
L 233.726794 230.144451 
L 233.859033 229.950903 
L 229.438247 235.903082 
L 228.168458 237.415226 
L 231.22616 233.624492 
L 235.961954 226.744523 
L 240.282166 219.398884 
L 235.126507 228.047296 
L 233.104537 231.042372 
L 235.952851 226.758924 
L 229.467043 235.867769 
L 228.465525 237.069359 
L 223.487383 242.228313 
L 220.065834 244.98856 
L 218.715013 245.902089 
L 215.878899 247.495507 
L 215.943172 247.464267 
L 213.513419 248.488185 
L 211.49015 249.094537 
L 211.817606 249.011581 
L 219.913506 245.096567 
L 220.678462 244.541375 
L 223.89568 241.856187 
L 228.156945 237.428532 
L 236.482213 225.913968 
L 242.940388 214.37207 
L 246.529022 206.973042 
L 244.873528 210.473807 
L 249.750202 199.73204 
L 252.087465 194.122917 
L 248.037695 203.652264 
L 244.620185 210.996318 
L 229.426903 235.916982 
L 235.211129 227.917075 
L 234.53618 228.944828 
L 238.281823 222.926903 
L 231.124265 233.759048 
L 231.124265 233.759048 
" clip-path="url(#pa63e99d5de)" style="fill: none; stroke: #8000ff; stroke-width: 2; stroke-linecap: square"/>
   </g>
   <g id="line2d_30">
    <path d="M 207.01978 261.911323 
L 162.077535 298.720213 
L 252.087465 224.999695 
L 231.124265 242.169111 
" clip-path="url(#pa63e99d5de)" style="fill: none; stroke-dasharray: 7.4,3.2; stroke-dashoffset: 0; stroke: #ff8000; stroke-width: 2"/>
   </g>
   <g class="patch">
    <path d="M 153.076542 304.272 
L 153.076542 188.57113 
" style="fill: none; stroke:var(--black); stroke-width: 0.8; stroke-linejoin: miter; stroke-linecap: square"/>
   </g>
   <g class="patch">
    <path d="M 153.076542 304.272 
L 261.088458 304.272 
" style="fill: none; stroke:var(--black); stroke-width: 0.8; stroke-linejoin: miter; stroke-linecap: square"/>
   </g>
   <g class="legend">
    <g class="patch">
     <path d="M 151.10822 227.065148 
L 252.62822 227.065148 
Q 254.42822 227.065148 254.42822 225.265148 
L 254.42822 197.185148 
Q 254.42822 195.385148 252.62822 195.385148 
L 151.10822 195.385148 
Q 149.30822 195.385148 149.30822 197.185148 
L 149.30822 225.265148 
Q 149.30822 227.065148 151.10822 227.065148 
L 151.10822 227.065148 
z
" style="fill: none; opacity: 0.9; stroke: #cccccc; stroke-linejoin: miter"/>
    </g>
    <g id="line2d_31">
     <path d="M 152.90822 203.485148 
L 161.90822 203.485148 
L 170.90822 203.485148 
" style="fill: none; stroke: #8000ff; stroke-width: 2; stroke-linecap: square"/>
    </g>
    <g id="text_19" class="text">
     <!-- $\beta^2(t)$ -->
     <g transform="translate(178.10822 206.635148) scale(0.09 -0.09)">
      <use xlink:href="#Cmmi10-af" transform="translate(0 0.109375)"/>
      <use xlink:href="#Cmr10-32" transform="translate(68.326328 38.373438) scale(0.7)"/>
      <use xlink:href="#Cmr10-28" transform="translate(109.703672 0.109375)"/>
      <use xlink:href="#Cmmi10-74" transform="translate(148.522031 0.109375)"/>
      <use xlink:href="#Cmr10-29" transform="translate(184.606016 0.109375)"/>
     </g>
    </g>
    <g id="line2d_32">
     <path d="M 152.90822 217.885148 
L 161.90822 217.885148 
L 170.90822 217.885148 
" style="fill: none; stroke-dasharray: 7.4,3.2; stroke-dashoffset: 0; stroke: #ff8000; stroke-width: 2"/>
    </g>
    <g id="text_20" class="text">
     <!-- $2\beta_i(\beta(t) - \beta_i) + \beta_i^2$ -->
     <g transform="translate(178.10822 221.035148) scale(0.09 -0.09)">
      <use xlink:href="#Cmr10-32" transform="translate(0 0.109375)"/>
      <use xlink:href="#Cmmi10-af" transform="translate(50 0.109375)"/>
      <use xlink:href="#Cmmi10-69" transform="translate(106.494141 -16.896875) scale(0.7)"/>
      <use xlink:href="#Cmr10-28" transform="translate(136.968164 0.109375)"/>
      <use xlink:href="#Cmmi10-af" transform="translate(175.786523 0.109375)"/>
      <use xlink:href="#Cmr10-28" transform="translate(232.280664 0.109375)"/>
      <use xlink:href="#Cmmi10-74" transform="translate(271.099023 0.109375)"/>
      <use xlink:href="#Cmr10-29" transform="translate(307.183008 0.109375)"/>
      <use xlink:href="#Cmsy10-a1" transform="translate(363.559961 0.109375)"/>
      <use xlink:href="#Cmmi10-af" transform="translate(458.804102 0.109375)"/>
      <use xlink:href="#Cmmi10-69" transform="translate(515.298242 -16.896875) scale(0.7)"/>
      <use xlink:href="#Cmr10-29" transform="translate(545.772266 0.109375)"/>
      <use xlink:href="#Cmr10-2b" transform="translate(602.149219 0.109375)"/>
      <use xlink:href="#Cmmi10-af" transform="translate(697.393359 0.109375)"/>
      <use xlink:href="#Cmr10-32" transform="translate(765.719688 38.373438) scale(0.7)"/>
      <use xlink:href="#Cmmi10-69" transform="translate(753.8875 -25.4) scale(0.7)"/>
     </g>
    </g>
   </g>
  </g>
  <g id="text_21" class="text">
   <!-- Squared Brownian motion and its second-order Taylor expansion -->
   <g transform="translate(3.6 12.718125) scale(0.12 -0.12)">
    <defs>
     <path id="DejaVuSerif-53" d="M 594 225 
L 594 1288 
L 953 1284 
Q 969 753 1261 498 
Q 1553 244 2150 244 
Q 2706 244 2998 464 
Q 3291 684 3291 1106 
Q 3291 1444 3114 1625 
Q 2938 1806 2369 1978 
L 1753 2163 
Q 1084 2366 811 2669 
Q 538 2972 538 3500 
Q 538 4094 959 4422 
Q 1381 4750 2144 4750 
Q 2469 4750 2856 4679 
Q 3244 4609 3681 4475 
L 3681 3481 
L 3328 3481 
Q 3275 3975 2998 4195 
Q 2722 4416 2156 4416 
Q 1663 4416 1405 4214 
Q 1147 4013 1147 3628 
Q 1147 3294 1340 3103 
Q 1534 2913 2163 2725 
L 2741 2553 
Q 3375 2363 3645 2067 
Q 3916 1772 3916 1275 
Q 3916 597 3481 253 
Q 3047 -91 2188 -91 
Q 1803 -91 1404 -12 
Q 1006 66 594 225 
z
" transform="scale(0.015625)"/>
     <path id="DejaVuSerif-71" d="M 3359 2988 
L 3359 -997 
L 3909 -997 
L 3909 -1331 
L 2241 -1331 
L 2241 -997 
L 2784 -997 
L 2784 519 
Q 2616 206 2355 57 
Q 2094 -91 1709 -91 
Q 1097 -91 708 395 
Q 319 881 319 1663 
Q 319 2444 706 2928 
Q 1094 3413 1709 3413 
Q 2094 3413 2355 3264 
Q 2616 3116 2784 2803 
L 2784 3322 
L 3909 3322 
L 3909 2988 
L 3359 2988 
z
M 2784 1825 
Q 2784 2422 2554 2737 
Q 2325 3053 1888 3053 
Q 1444 3053 1217 2703 
Q 991 2353 991 1663 
Q 991 975 1217 622 
Q 1444 269 1888 269 
Q 2325 269 2554 583 
Q 2784 897 2784 1497 
L 2784 1825 
z
" transform="scale(0.015625)"/>
     <path id="DejaVuSerif-75" d="M 2266 3322 
L 3341 3322 
L 3341 331 
L 3884 331 
L 3884 0 
L 2766 0 
L 2766 588 
Q 2606 256 2353 82 
Q 2100 -91 1766 -91 
Q 1213 -91 952 223 
Q 691 538 691 1209 
L 691 2988 
L 172 2988 
L 172 3322 
L 1269 3322 
L 1269 1388 
Q 1269 781 1417 556 
Q 1566 331 1947 331 
Q 2347 331 2556 625 
Q 2766 919 2766 1478 
L 2766 2988 
L 2266 2988 
L 2266 3322 
z
" transform="scale(0.015625)"/>
     <path id="DejaVuSerif-61" d="M 2547 1044 
L 2547 1747 
L 1806 1747 
Q 1378 1747 1168 1562 
Q 959 1378 959 997 
Q 959 650 1171 447 
Q 1384 244 1747 244 
Q 2106 244 2326 466 
Q 2547 688 2547 1044 
z
M 3122 2075 
L 3122 331 
L 3634 331 
L 3634 0 
L 2547 0 
L 2547 359 
Q 2356 128 2106 18 
Q 1856 -91 1522 -91 
Q 969 -91 644 203 
Q 319 497 319 997 
Q 319 1513 691 1797 
Q 1063 2081 1741 2081 
L 2547 2081 
L 2547 2309 
Q 2547 2688 2317 2895 
Q 2088 3103 1672 3103 
Q 1328 3103 1125 2947 
Q 922 2791 872 2484 
L 575 2484 
L 575 3156 
Q 875 3284 1158 3348 
Q 1441 3413 1709 3413 
Q 2400 3413 2761 3070 
Q 3122 2728 3122 2075 
z
" transform="scale(0.015625)"/>
     <path id="DejaVuSerif-72" d="M 3059 3328 
L 3059 2497 
L 2728 2497 
Q 2713 2744 2591 2866 
Q 2469 2988 2234 2988 
Q 1809 2988 1582 2694 
Q 1356 2400 1356 1850 
L 1356 331 
L 2022 331 
L 2022 0 
L 263 0 
L 263 331 
L 781 331 
L 781 2994 
L 231 2994 
L 231 3322 
L 1356 3322 
L 1356 2731 
Q 1525 3078 1790 3245 
Q 2056 3413 2438 3413 
Q 2578 3413 2733 3391 
Q 2888 3369 3059 3328 
z
" transform="scale(0.015625)"/>
     <path id="DejaVuSerif-65" d="M 3469 1600 
L 991 1600 
L 991 1575 
Q 991 903 1244 561 
Q 1497 219 1991 219 
Q 2369 219 2611 417 
Q 2853 616 2950 1006 
L 3413 1006 
Q 3275 459 2904 184 
Q 2534 -91 1931 -91 
Q 1203 -91 761 389 
Q 319 869 319 1663 
Q 319 2450 753 2931 
Q 1188 3413 1894 3413 
Q 2647 3413 3050 2948 
Q 3453 2484 3469 1600 
z
M 2791 1931 
Q 2772 2513 2545 2808 
Q 2319 3103 1894 3103 
Q 1497 3103 1269 2806 
Q 1041 2509 991 1931 
L 2791 1931 
z
" transform="scale(0.015625)"/>
     <path id="DejaVuSerif-64" d="M 3359 331 
L 3909 331 
L 3909 0 
L 2784 0 
L 2784 519 
Q 2616 206 2355 57 
Q 2094 -91 1709 -91 
Q 1097 -91 708 395 
Q 319 881 319 1663 
Q 319 2444 706 2928 
Q 1094 3413 1709 3413 
Q 2094 3413 2355 3264 
Q 2616 3116 2784 2803 
L 2784 4531 
L 2241 4531 
L 2241 4863 
L 3359 4863 
L 3359 331 
z
M 2784 1497 
L 2784 1825 
Q 2784 2422 2554 2737 
Q 2325 3053 1888 3053 
Q 1444 3053 1217 2703 
Q 991 2353 991 1663 
Q 991 975 1217 622 
Q 1444 269 1888 269 
Q 2325 269 2554 583 
Q 2784 897 2784 1497 
z
" transform="scale(0.015625)"/>
     <path id="DejaVuSerif-20" transform="scale(0.015625)"/>
     <path id="DejaVuSerif-42" d="M 1581 331 
L 2516 331 
Q 3078 331 3337 575 
Q 3597 819 3597 1350 
Q 3597 1878 3339 2120 
Q 3081 2363 2516 2363 
L 1581 2363 
L 1581 331 
z
M 1581 2694 
L 2375 2694 
Q 2888 2694 3123 2891 
Q 3359 3088 3359 3513 
Q 3359 3941 3123 4136 
Q 2888 4331 2375 4331 
L 1581 4331 
L 1581 2694 
z
M 353 0 
L 353 331 
L 947 331 
L 947 4331 
L 353 4331 
L 353 4666 
L 2656 4666 
Q 3363 4666 3720 4377 
Q 4078 4088 4078 3513 
Q 4078 3097 3829 2850 
Q 3581 2603 3103 2547 
Q 3697 2472 4005 2167 
Q 4313 1863 4313 1350 
Q 4313 656 3875 328 
Q 3438 0 2509 0 
L 353 0 
z
" transform="scale(0.015625)"/>
     <path id="DejaVuSerif-6f" d="M 1925 219 
Q 2388 219 2623 584 
Q 2859 950 2859 1663 
Q 2859 2375 2623 2739 
Q 2388 3103 1925 3103 
Q 1463 3103 1227 2739 
Q 991 2375 991 1663 
Q 991 950 1228 584 
Q 1466 219 1925 219 
z
M 1925 -91 
Q 1200 -91 759 389 
Q 319 869 319 1663 
Q 319 2456 758 2934 
Q 1197 3413 1925 3413 
Q 2653 3413 3092 2934 
Q 3531 2456 3531 1663 
Q 3531 869 3092 389 
Q 2653 -91 1925 -91 
z
" transform="scale(0.015625)"/>
     <path id="DejaVuSerif-77" d="M 3072 3322 
L 3922 728 
L 4672 2988 
L 4191 2988 
L 4191 3322 
L 5394 3322 
L 5394 2988 
L 5025 2988 
L 4038 0 
L 3559 0 
L 2741 2484 
L 1919 0 
L 1459 0 
L 475 2988 
L 103 2988 
L 103 3322 
L 1606 3322 
L 1606 2988 
L 1069 2988 
L 1813 728 
L 2669 3322 
L 3072 3322 
z
" transform="scale(0.015625)"/>
     <path id="DejaVuSerif-6e" d="M 263 0 
L 263 331 
L 781 331 
L 781 2988 
L 231 2988 
L 231 3322 
L 1356 3322 
L 1356 2731 
Q 1516 3069 1770 3241 
Q 2025 3413 2363 3413 
Q 2913 3413 3172 3097 
Q 3431 2781 3431 2113 
L 3431 331 
L 3944 331 
L 3944 0 
L 2356 0 
L 2356 331 
L 2853 331 
L 2853 1931 
Q 2853 2541 2703 2767 
Q 2553 2994 2175 2994 
Q 1775 2994 1565 2701 
Q 1356 2409 1356 1850 
L 1356 331 
L 1856 331 
L 1856 0 
L 263 0 
z
" transform="scale(0.015625)"/>
     <path id="DejaVuSerif-69" d="M 622 4353 
Q 622 4497 726 4603 
Q 831 4709 978 4709 
Q 1122 4709 1226 4603 
Q 1331 4497 1331 4353 
Q 1331 4206 1228 4103 
Q 1125 4000 978 4000 
Q 831 4000 726 4103 
Q 622 4206 622 4353 
z
M 1356 331 
L 1900 331 
L 1900 0 
L 231 0 
L 231 331 
L 781 331 
L 781 2988 
L 231 2988 
L 231 3322 
L 1356 3322 
L 1356 331 
z
" transform="scale(0.015625)"/>
     <path id="DejaVuSerif-6d" d="M 3316 2675 
Q 3481 3041 3739 3227 
Q 3997 3413 4341 3413 
Q 4863 3413 5119 3089 
Q 5375 2766 5375 2113 
L 5375 331 
L 5894 331 
L 5894 0 
L 4300 0 
L 4300 331 
L 4800 331 
L 4800 2047 
Q 4800 2556 4650 2772 
Q 4500 2988 4153 2988 
Q 3769 2988 3567 2697 
Q 3366 2406 3366 1850 
L 3366 331 
L 3866 331 
L 3866 0 
L 2291 0 
L 2291 331 
L 2791 331 
L 2791 2069 
Q 2791 2566 2641 2777 
Q 2491 2988 2144 2988 
Q 1759 2988 1557 2697 
Q 1356 2406 1356 1850 
L 1356 331 
L 1856 331 
L 1856 0 
L 263 0 
L 263 331 
L 781 331 
L 781 2994 
L 231 2994 
L 231 3322 
L 1356 3322 
L 1356 2731 
Q 1516 3063 1762 3238 
Q 2009 3413 2322 3413 
Q 2709 3413 2968 3220 
Q 3228 3028 3316 2675 
z
" transform="scale(0.015625)"/>
     <path id="DejaVuSerif-74" d="M 691 2988 
L 184 2988 
L 184 3322 
L 691 3322 
L 691 4353 
L 1269 4353 
L 1269 3322 
L 2350 3322 
L 2350 2988 
L 1269 2988 
L 1269 878 
Q 1269 456 1350 337 
Q 1431 219 1650 219 
Q 1875 219 1978 351 
Q 2081 484 2088 781 
L 2522 781 
Q 2497 328 2275 118 
Q 2053 -91 1600 -91 
Q 1103 -91 897 129 
Q 691 350 691 878 
L 691 2988 
z
" transform="scale(0.015625)"/>
     <path id="DejaVuSerif-73" d="M 359 184 
L 359 959 
L 691 959 
Q 703 588 923 403 
Q 1144 219 1575 219 
Q 1963 219 2166 364 
Q 2369 509 2369 788 
Q 2369 1006 2220 1140 
Q 2072 1275 1594 1428 
L 1178 1569 
Q 750 1706 558 1912 
Q 366 2119 366 2438 
Q 366 2894 700 3153 
Q 1034 3413 1625 3413 
Q 1888 3413 2178 3344 
Q 2469 3275 2778 3144 
L 2778 2419 
L 2447 2419 
Q 2434 2741 2221 2922 
Q 2009 3103 1644 3103 
Q 1281 3103 1095 2975 
Q 909 2847 909 2591 
Q 909 2381 1050 2254 
Q 1191 2128 1613 1997 
L 2069 1856 
Q 2541 1709 2748 1489 
Q 2956 1269 2956 922 
Q 2956 450 2595 179 
Q 2234 -91 1600 -91 
Q 1278 -91 972 -22 
Q 666 47 359 184 
z
" transform="scale(0.015625)"/>
     <path id="DejaVuSerif-63" d="M 3291 997 
Q 3169 466 2822 187 
Q 2475 -91 1925 -91 
Q 1200 -91 759 389 
Q 319 869 319 1663 
Q 319 2459 759 2936 
Q 1200 3413 1925 3413 
Q 2241 3413 2553 3339 
Q 2866 3266 3181 3116 
L 3181 2266 
L 2847 2266 
Q 2781 2703 2561 2903 
Q 2341 3103 1931 3103 
Q 1466 3103 1228 2742 
Q 991 2381 991 1663 
Q 991 944 1227 581 
Q 1463 219 1931 219 
Q 2303 219 2525 412 
Q 2747 606 2828 997 
L 3291 997 
z
" transform="scale(0.015625)"/>
     <path id="DejaVuSerif-2d" d="M 281 1959 
L 1881 1959 
L 1881 1472 
L 281 1472 
L 281 1959 
z
" transform="scale(0.015625)"/>
     <path id="DejaVuSerif-54" d="M 1222 0 
L 1222 331 
L 1819 331 
L 1819 4294 
L 447 4294 
L 447 3566 
L 63 3566 
L 63 4666 
L 4206 4666 
L 4206 3566 
L 3822 3566 
L 3822 4294 
L 2450 4294 
L 2450 331 
L 3047 331 
L 3047 0 
L 1222 0 
z
" transform="scale(0.015625)"/>
     <path id="DejaVuSerif-79" d="M 1381 -609 
L 1600 -56 
L 359 2988 
L -19 2988 
L -19 3322 
L 1509 3322 
L 1509 2988 
L 978 2988 
L 1913 703 
L 2847 2988 
L 2350 2988 
L 2350 3322 
L 3597 3322 
L 3597 2988 
L 3225 2988 
L 1703 -750 
Q 1547 -1138 1356 -1280 
Q 1166 -1422 819 -1422 
Q 672 -1422 517 -1397 
Q 363 -1372 206 -1325 
L 206 -691 
L 500 -691 
Q 519 -903 608 -995 
Q 697 -1088 884 -1088 
Q 1056 -1088 1161 -992 
Q 1266 -897 1381 -609 
z
" transform="scale(0.015625)"/>
     <path id="DejaVuSerif-6c" d="M 1313 331 
L 1856 331 
L 1856 0 
L 184 0 
L 184 331 
L 738 331 
L 738 4531 
L 184 4531 
L 184 4863 
L 1313 4863 
L 1313 331 
z
" transform="scale(0.015625)"/>
     <path id="DejaVuSerif-78" d="M 1863 2028 
L 2559 2988 
L 2113 2988 
L 2113 3322 
L 3391 3322 
L 3391 2988 
L 2950 2988 
L 2059 1759 
L 3097 331 
L 3531 331 
L 3531 0 
L 1997 0 
L 1997 331 
L 2419 331 
L 1697 1325 
L 972 331 
L 1403 331 
L 1403 0 
L 141 0 
L 141 331 
L 581 331 
L 1497 1594 
L 488 2988 
L 78 2988 
L 78 3322 
L 1563 3322 
L 1563 2988 
L 1166 2988 
L 1863 2028 
z
" transform="scale(0.015625)"/>
     <path id="DejaVuSerif-70" d="M 1313 1825 
L 1313 1497 
Q 1313 897 1542 583 
Q 1772 269 2209 269 
Q 2650 269 2876 622 
Q 3103 975 3103 1663 
Q 3103 2353 2876 2703 
Q 2650 3053 2209 3053 
Q 1772 3053 1542 2737 
Q 1313 2422 1313 1825 
z
M 738 2988 
L 184 2988 
L 184 3322 
L 1313 3322 
L 1313 2803 
Q 1481 3116 1742 3264 
Q 2003 3413 2388 3413 
Q 3000 3413 3387 2928 
Q 3775 2444 3775 1663 
Q 3775 881 3387 395 
Q 3000 -91 2388 -91 
Q 2003 -91 1742 57 
Q 1481 206 1313 519 
L 1313 -997 
L 1856 -997 
L 1856 -1331 
L 184 -1331 
L 184 -997 
L 738 -997 
L 738 2988 
z
" transform="scale(0.015625)"/>
    </defs>
    <use xlink:href="#DejaVuSerif-53"/>
    <use xlink:href="#DejaVuSerif-71" transform="translate(68.505859 0)"/>
    <use xlink:href="#DejaVuSerif-75" transform="translate(132.519531 0)"/>
    <use xlink:href="#DejaVuSerif-61" transform="translate(196.923828 0)"/>
    <use xlink:href="#DejaVuSerif-72" transform="translate(256.542969 0)"/>
    <use xlink:href="#DejaVuSerif-65" transform="translate(304.345703 0)"/>
    <use xlink:href="#DejaVuSerif-64" transform="translate(363.525391 0)"/>
    <use xlink:href="#DejaVuSerif-20" transform="translate(427.539062 0)"/>
    <use xlink:href="#DejaVuSerif-42" transform="translate(459.326172 0)"/>
    <use xlink:href="#DejaVuSerif-72" transform="translate(532.8125 0)"/>
    <use xlink:href="#DejaVuSerif-6f" transform="translate(580.615234 0)"/>
    <use xlink:href="#DejaVuSerif-77" transform="translate(640.820312 0)"/>
    <use xlink:href="#DejaVuSerif-6e" transform="translate(726.416016 0)"/>
    <use xlink:href="#DejaVuSerif-69" transform="translate(790.820312 0)"/>
    <use xlink:href="#DejaVuSerif-61" transform="translate(822.802734 0)"/>
    <use xlink:href="#DejaVuSerif-6e" transform="translate(882.421875 0)"/>
    <use xlink:href="#DejaVuSerif-20" transform="translate(946.826172 0)"/>
    <use xlink:href="#DejaVuSerif-6d" transform="translate(978.613281 0)"/>
    <use xlink:href="#DejaVuSerif-6f" transform="translate(1073.4375 0)"/>
    <use xlink:href="#DejaVuSerif-74" transform="translate(1133.642578 0)"/>
    <use xlink:href="#DejaVuSerif-69" transform="translate(1173.828125 0)"/>
    <use xlink:href="#DejaVuSerif-6f" transform="translate(1205.810547 0)"/>
    <use xlink:href="#DejaVuSerif-6e" transform="translate(1266.015625 0)"/>
    <use xlink:href="#DejaVuSerif-20" transform="translate(1330.419922 0)"/>
    <use xlink:href="#DejaVuSerif-61" transform="translate(1362.207031 0)"/>
    <use xlink:href="#DejaVuSerif-6e" transform="translate(1421.826172 0)"/>
    <use xlink:href="#DejaVuSerif-64" transform="translate(1486.230469 0)"/>
    <use xlink:href="#DejaVuSerif-20" transform="translate(1550.244141 0)"/>
    <use xlink:href="#DejaVuSerif-69" transform="translate(1582.03125 0)"/>
    <use xlink:href="#DejaVuSerif-74" transform="translate(1614.013672 0)"/>
    <use xlink:href="#DejaVuSerif-73" transform="translate(1654.199219 0)"/>
    <use xlink:href="#DejaVuSerif-20" transform="translate(1705.517578 0)"/>
    <use xlink:href="#DejaVuSerif-73" transform="translate(1737.304688 0)"/>
    <use xlink:href="#DejaVuSerif-65" transform="translate(1788.623047 0)"/>
    <use xlink:href="#DejaVuSerif-63" transform="translate(1847.802734 0)"/>
    <use xlink:href="#DejaVuSerif-6f" transform="translate(1903.808594 0)"/>
    <use xlink:href="#DejaVuSerif-6e" transform="translate(1964.013672 0)"/>
    <use xlink:href="#DejaVuSerif-64" transform="translate(2028.417969 0)"/>
    <use xlink:href="#DejaVuSerif-2d" transform="translate(2092.431641 0)"/>
    <use xlink:href="#DejaVuSerif-6f" transform="translate(2126.220703 0)"/>
    <use xlink:href="#DejaVuSerif-72" transform="translate(2186.425781 0)"/>
    <use xlink:href="#DejaVuSerif-64" transform="translate(2234.228516 0)"/>
    <use xlink:href="#DejaVuSerif-65" transform="translate(2298.242188 0)"/>
    <use xlink:href="#DejaVuSerif-72" transform="translate(2357.421875 0)"/>
    <use xlink:href="#DejaVuSerif-20" transform="translate(2405.224609 0)"/>
    <use xlink:href="#DejaVuSerif-54" transform="translate(2437.011719 0)"/>
    <use xlink:href="#DejaVuSerif-61" transform="translate(2495.960938 0)"/>
    <use xlink:href="#DejaVuSerif-79" transform="translate(2555.580078 0)"/>
    <use xlink:href="#DejaVuSerif-6c" transform="translate(2612.074219 0)"/>
    <use xlink:href="#DejaVuSerif-6f" transform="translate(2644.056641 0)"/>
    <use xlink:href="#DejaVuSerif-72" transform="translate(2704.261719 0)"/>
    <use xlink:href="#DejaVuSerif-20" transform="translate(2752.064453 0)"/>
    <use xlink:href="#DejaVuSerif-65" transform="translate(2783.851562 0)"/>
    <use xlink:href="#DejaVuSerif-78" transform="translate(2843.03125 0)"/>
    <use xlink:href="#DejaVuSerif-70" transform="translate(2899.427734 0)"/>
    <use xlink:href="#DejaVuSerif-61" transform="translate(2963.441406 0)"/>
    <use xlink:href="#DejaVuSerif-6e" transform="translate(3023.060547 0)"/>
    <use xlink:href="#DejaVuSerif-73" transform="translate(3087.464844 0)"/>
    <use xlink:href="#DejaVuSerif-69" transform="translate(3138.783203 0)"/>
    <use xlink:href="#DejaVuSerif-6f" transform="translate(3170.765625 0)"/>
    <use xlink:href="#DejaVuSerif-6e" transform="translate(3230.970703 0)"/>
   </g>
  </g>
 </g>
 <defs>
  <clipPath id="pb5d305561c">
   <rect x="153.076542" y="38.16" width="108.011916" height="115.70087"/>
  </clipPath>
  <clipPath id="pa63e99d5de">
   <rect x="153.076542" y="188.57113" width="108.011916" height="115.70087"/>
  </clipPath>
 </defs>
</svg>
