<?xml version="1.0" encoding="utf-8" standalone="no"?>
<!DOCTYPE svg PUBLIC "-//W3C//DTD SVG 1.1//EN"
  "http://www.w3.org/Graphics/SVG/1.1/DTD/svg11.dtd">
<svg xmlns:xlink="http://www.w3.org/1999/xlink" width="276.902065pt" height="326.818562pt" viewBox="0 0 276.902065 326.818562" xmlns="http://www.w3.org/2000/svg" version="1.1">
<style>:root { --axis-color:#000; --grid-stroke:rgba(0,0,0,0.2); --plot3d-stroke:rgba(0,0,0,0.3); --plot3d-grid:rgba(0,0,0,0.2); }
@media (prefers-color-scheme:dark) { :root { --axis-color:#fff; --grid-stroke:rgba(255,255,255,0.2); --plot3d-stroke:rgba(255,255,255,0.3); --plot3d-grid:rgba(255,255,255,0.2); } }
.black{fill:#000000;stroke:#000000;}:root{--black:#000000;}.c1{fill:#FF0001;stroke:#FF0001;}:root{--c1:#FF0001;}.c2{fill:#00FF02;stroke:#00FF02;}:root{--c2:#00FF02;}.c3{fill:#0000FF;stroke:#0000FF;}:root{--c3:#0000FF;}.c4{fill:#FF00FF;stroke:#FF00FF;}:root{--c4:#FF00FF;}.c5{fill:#00FFFF;stroke:#00FFFF;}:root{--c5:#00FFFF;}.c6{fill:#FFFF00;stroke:#FFFF00;}:root{--c6:#FFFF00;}.c7{fill:#FF8000;stroke:#FF8000;}:root{--c7:#FF8000;}.c8{fill:#8000FF;stroke:#8000FF;}:root{--c8:#8000FF;}.gray{fill:#7f7f7f;stroke:#7f7f7f;}:root{--gray:#7f7f7f;}.grey{fill:#7f7f7f;stroke:#7f7f7f;}:root{--grey:#7f7f7f;}.octonary{fill:#bcbd22;stroke:#bcbd22;}:root{--octonary:#bcbd22;}.primary{fill:#d62728;stroke:#d62728;}:root{--primary:#d62728;}.quaternary{fill:#9467bd;stroke:#9467bd;}:root{--quaternary:#9467bd;}.quinary{fill:#8c564b;stroke:#8c564b;}:root{--quinary:#8c564b;}.secondary{fill:#2ca02c;stroke:#2ca02c;}:root{--secondary:#2ca02c;}.senary{fill:#e377c2;stroke:#e377c2;}:root{--senary:#e377c2;}.septenary{fill:#7f7f7f;stroke:#7f7f7f;}:root{--septenary:#7f7f7f;}.tertiary{fill:#1f77b4;stroke:#1f77b4;}:root{--tertiary:#1f77b4;}.white{fill:#ffffff;stroke:#ffffff;}:root{--white:#ffffff;}
@media (prefers-color-scheme:dark) { .black{fill:#FFFFFF;stroke:#FFFFFF;}:root{--black:#FFFFFF;}.c1{fill:#FF0001;stroke:#FF0001;}:root{--c1:#FF0001;}.c2{fill:#00FF02;stroke:#00FF02;}:root{--c2:#00FF02;}.c3{fill:#0000FF;stroke:#0000FF;}:root{--c3:#0000FF;}.c4{fill:#FF00FF;stroke:#FF00FF;}:root{--c4:#FF00FF;}.c5{fill:#00FFFF;stroke:#00FFFF;}:root{--c5:#00FFFF;}.c6{fill:#FFFF00;stroke:#FFFF00;}:root{--c6:#FFFF00;}.c7{fill:#FF8000;stroke:#FF8000;}:root{--c7:#FF8000;}.c8{fill:#8000FF;stroke:#8000FF;}:root{--c8:#8000FF;}.gray{fill:#CCCCCC;stroke:#CCCCCC;}:root{--gray:#CCCCCC;}.grey{fill:#CCCCCC;stroke:#CCCCCC;}:root{--grey:#CCCCCC;}.octonary{fill:#E6DB74;stroke:#E6DB74;}:root{--octonary:#E6DB74;}.primary{fill:#FF4A98;stroke:#FF4A98;}:root{--primary:#FF4A98;}.quaternary{fill:#B4A0FF;stroke:#B4A0FF;}:root{--quaternary:#B4A0FF;}.quinary{fill:#FFB86B;stroke:#FFB86B;}:root{--quinary:#FFB86B;}.secondary{fill:#0AFAFA;stroke:#0AFAFA;}:root{--secondary:#0AFAFA;}.senary{fill:#FF79C6;stroke:#FF79C6;}:root{--senary:#FF79C6;}.septenary{fill:#CCCCCC;stroke:#CCCCCC;}:root{--septenary:#CCCCCC;}.tertiary{fill:#7F83FF;stroke:#7F83FF;}:root{--tertiary:#7F83FF;}.white{fill:#000000;stroke:#000000;}:root{--white:#000000;} }
text,.text { fill:var(--axis-color)!important; stroke:none!important; }
.axis line,.axis path,.tick line,.tick path,path.domain,line.grid { stroke:var(--axis-color)!important; }
.legend text { fill:var(--axis-color)!important; }
.patch path[style*="stroke: currentColor"] { stroke:var(--axis-color)!important; }
g.legend>g:first-child>path:first-child { fill:rgba(255,255,255,0.8)!important; stroke:rgba(0,0,0,0.1)!important; }
@media (prefers-color-scheme:dark) { g.legend>g:first-child>path:first-child { fill:rgba(26,26,26,0.8)!important; stroke:rgba(255,255,255,0.1)!important; } }
.plot3d path,.plot3d polygon { stroke:var(--plot3d-stroke)!important; }
.plot3d-grid line { stroke:var(--plot3d-grid)!important; }
.plot3d-surface path[style*="fill:"] { fill-opacity:0.9!important; }
@media (prefers-color-scheme:dark) { .plot3d-surface path[style*="fill:"] { fill-opacity:0.95!important; filter:saturate(1.2)!important; } }</style>

 <metadata>
  <rdf:RDF xmlns:dc="http://purl.org/dc/elements/1.1/" xmlns:cc="http://creativecommons.org/ns#" xmlns:rdf="http://www.w3.org/1999/02/22-rdf-syntax-ns#">
   <cc:Work>
    <dc:type rdf:resource="http://purl.org/dc/dcmitype/StillImage"/>
    <dc:date>2026-01-03T22:17:23.821346</dc:date>
    <dc:format>image/svg+xml</dc:format>
    <dc:creator>
     <cc:Agent>
      <dc:title>Matplotlib v3.10.0, https://matplotlib.org/</dc:title>
     </cc:Agent>
    </dc:creator>
   </cc:Work>
  </rdf:RDF>
 </metadata>
 <defs>
  <style type="text/css">*{stroke-linejoin: round; stroke-linecap: butt}</style>
 </defs>
 <g id="figure_1">
  <g class="patch">
   <path d="M 0 326.818562 
L 276.902065 326.818562 
L 276.902065 0 
L 0 0 
L 0 326.818562 
z
" style="fill: none"/>
  </g>
  <g id="axes_1">
   <g class="patch">
    <path d="M 47.454531 293.830125 
L 248.169598 293.830125 
L 248.169598 27.718125 
L 47.454531 27.718125 
L 47.454531 293.830125 
z
" style="fill: none"/>
   </g>
   <g class="axis">
    <g class="tick xtick">
     <g id="line2d_1">
      <path d="M 60.878348 293.830125 
L 60.878348 27.718125 
" clip-path="url(#p1404f9cb60)" style="fill: none; stroke: #b0b0b0; stroke-opacity: 0.1; stroke-width: 0.5; stroke-linecap: square"/>
     </g>
     <g id="line2d_2">
      <defs>
       <path id="m3a93ee4c7a" d="M 0 0 
L 0 3.5 
" style="stroke:var(--black); stroke-width: 0.8"/>
      </defs>
      <g>
       <use xlink:href="#m3a93ee4c7a" x="60.878348" y="293.830125" style="stroke:var(--black); stroke-width: 0.8"/>
      </g>
     </g>
     <g id="text_1" class="text">
      <!-- 0.0 -->
      <g transform="translate(53.721942 307.668719) scale(0.09 -0.09)">
       <defs>
        <path id="DejaVuSerif-30" d="M 2034 219 
Q 2513 219 2750 744 
Q 2988 1269 2988 2328 
Q 2988 3391 2750 3916 
Q 2513 4441 2034 4441 
Q 1556 4441 1318 3916 
Q 1081 3391 1081 2328 
Q 1081 1269 1318 744 
Q 1556 219 2034 219 
z
M 2034 -91 
Q 1275 -91 848 546 
Q 422 1184 422 2328 
Q 422 3475 848 4112 
Q 1275 4750 2034 4750 
Q 2797 4750 3222 4112 
Q 3647 3475 3647 2328 
Q 3647 1184 3222 546 
Q 2797 -91 2034 -91 
z
" transform="scale(0.015625)"/>
        <path id="DejaVuSerif-2e" d="M 603 325 
Q 603 500 722 622 
Q 841 744 1019 744 
Q 1191 744 1312 622 
Q 1434 500 1434 325 
Q 1434 153 1312 31 
Q 1191 -91 1019 -91 
Q 841 -91 722 29 
Q 603 150 603 325 
z
" transform="scale(0.015625)"/>
       </defs>
       <use xlink:href="#DejaVuSerif-30"/>
       <use xlink:href="#DejaVuSerif-2e" transform="translate(63.623047 0)"/>
       <use xlink:href="#DejaVuSerif-30" transform="translate(95.410156 0)"/>
      </g>
     </g>
    </g>
    <g class="tick xtick">
     <g id="line2d_3">
      <path d="M 94.437892 293.830125 
L 94.437892 27.718125 
" clip-path="url(#p1404f9cb60)" style="fill: none; stroke: #b0b0b0; stroke-opacity: 0.1; stroke-width: 0.5; stroke-linecap: square"/>
     </g>
     <g id="line2d_4">
      <g>
       <use xlink:href="#m3a93ee4c7a" x="94.437892" y="293.830125" style="stroke:var(--black); stroke-width: 0.8"/>
      </g>
     </g>
     <g id="text_2" class="text">
      <!-- 0.5 -->
      <g transform="translate(87.281485 307.668719) scale(0.09 -0.09)">
       <defs>
        <path id="DejaVuSerif-35" d="M 3219 4666 
L 3219 4153 
L 1081 4153 
L 1081 2816 
Q 1244 2928 1461 2984 
Q 1678 3041 1947 3041 
Q 2703 3041 3140 2622 
Q 3578 2203 3578 1478 
Q 3578 738 3136 323 
Q 2694 -91 1894 -91 
Q 1572 -91 1234 -12 
Q 897 66 544 225 
L 544 1131 
L 897 1131 
Q 925 688 1179 453 
Q 1434 219 1894 219 
Q 2388 219 2653 544 
Q 2919 869 2919 1478 
Q 2919 2084 2655 2407 
Q 2391 2731 1894 2731 
Q 1613 2731 1398 2631 
Q 1184 2531 1019 2322 
L 750 2322 
L 750 4666 
L 3219 4666 
z
" transform="scale(0.015625)"/>
       </defs>
       <use xlink:href="#DejaVuSerif-30"/>
       <use xlink:href="#DejaVuSerif-2e" transform="translate(63.623047 0)"/>
       <use xlink:href="#DejaVuSerif-35" transform="translate(95.410156 0)"/>
      </g>
     </g>
    </g>
    <g class="tick xtick">
     <g id="line2d_5">
      <path d="M 127.997435 293.830125 
L 127.997435 27.718125 
" clip-path="url(#p1404f9cb60)" style="fill: none; stroke: #b0b0b0; stroke-opacity: 0.1; stroke-width: 0.5; stroke-linecap: square"/>
     </g>
     <g id="line2d_6">
      <g>
       <use xlink:href="#m3a93ee4c7a" x="127.997435" y="293.830125" style="stroke:var(--black); stroke-width: 0.8"/>
      </g>
     </g>
     <g id="text_3" class="text">
      <!-- 1.0 -->
      <g transform="translate(120.841028 307.668719) scale(0.09 -0.09)">
       <defs>
        <path id="DejaVuSerif-31" d="M 909 0 
L 909 331 
L 1722 331 
L 1722 4213 
L 781 3603 
L 781 4013 
L 1919 4750 
L 2350 4750 
L 2350 331 
L 3163 331 
L 3163 0 
L 909 0 
z
" transform="scale(0.015625)"/>
       </defs>
       <use xlink:href="#DejaVuSerif-31"/>
       <use xlink:href="#DejaVuSerif-2e" transform="translate(63.623047 0)"/>
       <use xlink:href="#DejaVuSerif-30" transform="translate(95.410156 0)"/>
      </g>
     </g>
    </g>
    <g class="tick xtick">
     <g id="line2d_7">
      <path d="M 161.556978 293.830125 
L 161.556978 27.718125 
" clip-path="url(#p1404f9cb60)" style="fill: none; stroke: #b0b0b0; stroke-opacity: 0.1; stroke-width: 0.5; stroke-linecap: square"/>
     </g>
     <g id="line2d_8">
      <g>
       <use xlink:href="#m3a93ee4c7a" x="161.556978" y="293.830125" style="stroke:var(--black); stroke-width: 0.8"/>
      </g>
     </g>
     <g id="text_4" class="text">
      <!-- 1.5 -->
      <g transform="translate(154.400571 307.668719) scale(0.09 -0.09)">
       <use xlink:href="#DejaVuSerif-31"/>
       <use xlink:href="#DejaVuSerif-2e" transform="translate(63.623047 0)"/>
       <use xlink:href="#DejaVuSerif-35" transform="translate(95.410156 0)"/>
      </g>
     </g>
    </g>
    <g class="tick xtick">
     <g id="line2d_9">
      <path d="M 195.116521 293.830125 
L 195.116521 27.718125 
" clip-path="url(#p1404f9cb60)" style="fill: none; stroke: #b0b0b0; stroke-opacity: 0.1; stroke-width: 0.5; stroke-linecap: square"/>
     </g>
     <g id="line2d_10">
      <g>
       <use xlink:href="#m3a93ee4c7a" x="195.116521" y="293.830125" style="stroke:var(--black); stroke-width: 0.8"/>
      </g>
     </g>
     <g id="text_5" class="text">
      <!-- 2.0 -->
      <g transform="translate(187.960114 307.668719) scale(0.09 -0.09)">
       <defs>
        <path id="DejaVuSerif-32" d="M 819 3553 
L 469 3553 
L 469 4384 
Q 803 4563 1142 4656 
Q 1481 4750 1806 4750 
Q 2534 4750 2956 4397 
Q 3378 4044 3378 3438 
Q 3378 2753 2422 1800 
Q 2347 1728 2309 1691 
L 1131 513 
L 3078 513 
L 3078 1088 
L 3444 1088 
L 3444 0 
L 434 0 
L 434 341 
L 1850 1753 
Q 2319 2222 2519 2614 
Q 2719 3006 2719 3438 
Q 2719 3909 2473 4175 
Q 2228 4441 1797 4441 
Q 1350 4441 1106 4219 
Q 863 3997 819 3553 
z
" transform="scale(0.015625)"/>
       </defs>
       <use xlink:href="#DejaVuSerif-32"/>
       <use xlink:href="#DejaVuSerif-2e" transform="translate(63.623047 0)"/>
       <use xlink:href="#DejaVuSerif-30" transform="translate(95.410156 0)"/>
      </g>
     </g>
    </g>
    <g class="tick xtick">
     <g id="line2d_11">
      <path d="M 228.676064 293.830125 
L 228.676064 27.718125 
" clip-path="url(#p1404f9cb60)" style="fill: none; stroke: #b0b0b0; stroke-opacity: 0.1; stroke-width: 0.5; stroke-linecap: square"/>
     </g>
     <g id="line2d_12">
      <g>
       <use xlink:href="#m3a93ee4c7a" x="228.676064" y="293.830125" style="stroke:var(--black); stroke-width: 0.8"/>
      </g>
     </g>
     <g id="text_6" class="text">
      <!-- 2.5 -->
      <g transform="translate(221.519657 307.668719) scale(0.09 -0.09)">
       <use xlink:href="#DejaVuSerif-32"/>
       <use xlink:href="#DejaVuSerif-2e" transform="translate(63.623047 0)"/>
       <use xlink:href="#DejaVuSerif-35" transform="translate(95.410156 0)"/>
      </g>
     </g>
    </g>
    <g id="text_7" class="text">
     <!-- $t$ -->
     <g transform="translate(145.962065 321.138875) scale(0.1 -0.1)">
      <defs>
       <path id="Cmmi10-74" d="M 397 519 
Q 397 613 416 697 
L 878 2534 
L 206 2534 
Q 141 2534 141 2619 
Q 166 2759 225 2759 
L 934 2759 
L 1191 3803 
Q 1216 3888 1291 3947 
Q 1366 4006 1459 4006 
Q 1541 4006 1595 3957 
Q 1650 3909 1650 3828 
Q 1650 3809 1648 3798 
Q 1647 3788 1644 3775 
L 1388 2759 
L 2047 2759 
Q 2113 2759 2113 2675 
Q 2109 2659 2100 2621 
Q 2091 2584 2075 2559 
Q 2059 2534 2028 2534 
L 1331 2534 
L 872 684 
Q 825 503 825 372 
Q 825 97 1013 97 
Q 1294 97 1511 361 
Q 1728 625 1844 941 
Q 1869 978 1894 978 
L 1972 978 
Q 1997 978 2012 961 
Q 2028 944 2028 922 
Q 2028 909 2022 903 
Q 1881 516 1612 222 
Q 1344 -72 997 -72 
Q 744 -72 570 93 
Q 397 259 397 519 
z
" transform="scale(0.015625)"/>
      </defs>
      <use xlink:href="#Cmmi10-74" transform="translate(0 0.40625)"/>
     </g>
    </g>
   </g>
   <g class="axis">
    <g class="tick ytick">
     <g id="line2d_13">
      <path d="M 47.454531 268.704643 
L 248.169598 268.704643 
" clip-path="url(#p1404f9cb60)" style="fill: none; stroke: #b0b0b0; stroke-opacity: 0.1; stroke-width: 0.5; stroke-linecap: square"/>
     </g>
     <g id="line2d_14">
      <defs>
       <path id="m705c609ab7" d="M 0 0 
L -3.5 0 
" style="stroke:var(--black); stroke-width: 0.8"/>
      </defs>
      <g>
       <use xlink:href="#m705c609ab7" x="47.454531" y="268.704643" style="stroke:var(--black); stroke-width: 0.8"/>
      </g>
     </g>
     <g id="text_8" class="text">
      <!-- −1.0 -->
      <g transform="translate(18.6 272.12394) scale(0.09 -0.09)">
       <defs>
        <path id="DejaVuSerif-2212" d="M 678 2259 
L 4684 2259 
L 4684 1753 
L 678 1753 
L 678 2259 
z
" transform="scale(0.015625)"/>
       </defs>
       <use xlink:href="#DejaVuSerif-2212"/>
       <use xlink:href="#DejaVuSerif-31" transform="translate(83.789062 0)"/>
       <use xlink:href="#DejaVuSerif-2e" transform="translate(147.412109 0)"/>
       <use xlink:href="#DejaVuSerif-30" transform="translate(179.199219 0)"/>
      </g>
     </g>
    </g>
    <g class="tick ytick">
     <g id="line2d_15">
      <path d="M 47.454531 235.1451 
L 248.169598 235.1451 
" clip-path="url(#p1404f9cb60)" style="fill: none; stroke: #b0b0b0; stroke-opacity: 0.1; stroke-width: 0.5; stroke-linecap: square"/>
     </g>
     <g id="line2d_16">
      <g>
       <use xlink:href="#m705c609ab7" x="47.454531" y="235.1451" style="stroke:var(--black); stroke-width: 0.8"/>
      </g>
     </g>
     <g id="text_9" class="text">
      <!-- −0.5 -->
      <g transform="translate(18.6 238.564397) scale(0.09 -0.09)">
       <use xlink:href="#DejaVuSerif-2212"/>
       <use xlink:href="#DejaVuSerif-30" transform="translate(83.789062 0)"/>
       <use xlink:href="#DejaVuSerif-2e" transform="translate(147.412109 0)"/>
       <use xlink:href="#DejaVuSerif-35" transform="translate(179.199219 0)"/>
      </g>
     </g>
    </g>
    <g class="tick ytick">
     <g id="line2d_17">
      <path d="M 47.454531 201.585557 
L 248.169598 201.585557 
" clip-path="url(#p1404f9cb60)" style="fill: none; stroke: #b0b0b0; stroke-opacity: 0.1; stroke-width: 0.5; stroke-linecap: square"/>
     </g>
     <g id="line2d_18">
      <g>
       <use xlink:href="#m705c609ab7" x="47.454531" y="201.585557" style="stroke:var(--black); stroke-width: 0.8"/>
      </g>
     </g>
     <g id="text_10" class="text">
      <!-- 0.0 -->
      <g transform="translate(26.141719 205.004854) scale(0.09 -0.09)">
       <use xlink:href="#DejaVuSerif-30"/>
       <use xlink:href="#DejaVuSerif-2e" transform="translate(63.623047 0)"/>
       <use xlink:href="#DejaVuSerif-30" transform="translate(95.410156 0)"/>
      </g>
     </g>
    </g>
    <g class="tick ytick">
     <g id="line2d_19">
      <path d="M 47.454531 168.026014 
L 248.169598 168.026014 
" clip-path="url(#p1404f9cb60)" style="fill: none; stroke: #b0b0b0; stroke-opacity: 0.1; stroke-width: 0.5; stroke-linecap: square"/>
     </g>
     <g id="line2d_20">
      <g>
       <use xlink:href="#m705c609ab7" x="47.454531" y="168.026014" style="stroke:var(--black); stroke-width: 0.8"/>
      </g>
     </g>
     <g id="text_11" class="text">
      <!-- 0.5 -->
      <g transform="translate(26.141719 171.445311) scale(0.09 -0.09)">
       <use xlink:href="#DejaVuSerif-30"/>
       <use xlink:href="#DejaVuSerif-2e" transform="translate(63.623047 0)"/>
       <use xlink:href="#DejaVuSerif-35" transform="translate(95.410156 0)"/>
      </g>
     </g>
    </g>
    <g class="tick ytick">
     <g id="line2d_21">
      <path d="M 47.454531 134.466471 
L 248.169598 134.466471 
" clip-path="url(#p1404f9cb60)" style="fill: none; stroke: #b0b0b0; stroke-opacity: 0.1; stroke-width: 0.5; stroke-linecap: square"/>
     </g>
     <g id="line2d_22">
      <g>
       <use xlink:href="#m705c609ab7" x="47.454531" y="134.466471" style="stroke:var(--black); stroke-width: 0.8"/>
      </g>
     </g>
     <g id="text_12" class="text">
      <!-- 1.0 -->
      <g transform="translate(26.141719 137.885768) scale(0.09 -0.09)">
       <use xlink:href="#DejaVuSerif-31"/>
       <use xlink:href="#DejaVuSerif-2e" transform="translate(63.623047 0)"/>
       <use xlink:href="#DejaVuSerif-30" transform="translate(95.410156 0)"/>
      </g>
     </g>
    </g>
    <g class="tick ytick">
     <g id="line2d_23">
      <path d="M 47.454531 100.906928 
L 248.169598 100.906928 
" clip-path="url(#p1404f9cb60)" style="fill: none; stroke: #b0b0b0; stroke-opacity: 0.1; stroke-width: 0.5; stroke-linecap: square"/>
     </g>
     <g id="line2d_24">
      <g>
       <use xlink:href="#m705c609ab7" x="47.454531" y="100.906928" style="stroke:var(--black); stroke-width: 0.8"/>
      </g>
     </g>
     <g id="text_13" class="text">
      <!-- 1.5 -->
      <g transform="translate(26.141719 104.326225) scale(0.09 -0.09)">
       <use xlink:href="#DejaVuSerif-31"/>
       <use xlink:href="#DejaVuSerif-2e" transform="translate(63.623047 0)"/>
       <use xlink:href="#DejaVuSerif-35" transform="translate(95.410156 0)"/>
      </g>
     </g>
    </g>
    <g class="tick ytick">
     <g id="line2d_25">
      <path d="M 47.454531 67.347385 
L 248.169598 67.347385 
" clip-path="url(#p1404f9cb60)" style="fill: none; stroke: #b0b0b0; stroke-opacity: 0.1; stroke-width: 0.5; stroke-linecap: square"/>
     </g>
     <g id="line2d_26">
      <g>
       <use xlink:href="#m705c609ab7" x="47.454531" y="67.347385" style="stroke:var(--black); stroke-width: 0.8"/>
      </g>
     </g>
     <g id="text_14" class="text">
      <!-- 2.0 -->
      <g transform="translate(26.141719 70.766682) scale(0.09 -0.09)">
       <use xlink:href="#DejaVuSerif-32"/>
       <use xlink:href="#DejaVuSerif-2e" transform="translate(63.623047 0)"/>
       <use xlink:href="#DejaVuSerif-30" transform="translate(95.410156 0)"/>
      </g>
     </g>
    </g>
    <g class="tick ytick">
     <g id="line2d_27">
      <path d="M 47.454531 33.787842 
L 248.169598 33.787842 
" clip-path="url(#p1404f9cb60)" style="fill: none; stroke: #b0b0b0; stroke-opacity: 0.1; stroke-width: 0.5; stroke-linecap: square"/>
     </g>
     <g id="line2d_28">
      <g>
       <use xlink:href="#m705c609ab7" x="47.454531" y="33.787842" style="stroke:var(--black); stroke-width: 0.8"/>
      </g>
     </g>
     <g id="text_15" class="text">
      <!-- 2.5 -->
      <g transform="translate(26.141719 37.207139) scale(0.09 -0.09)">
       <use xlink:href="#DejaVuSerif-32"/>
       <use xlink:href="#DejaVuSerif-2e" transform="translate(63.623047 0)"/>
       <use xlink:href="#DejaVuSerif-35" transform="translate(95.410156 0)"/>
      </g>
     </g>
    </g>
    <g id="text_16" class="text">
     <!-- $\beta(t), \beta^2(t)$ -->
     <g transform="translate(12.1 182.724125) rotate(-90) scale(0.1 -0.1)">
      <defs>
       <path id="Cmmi10-af" d="M 172 -1241 
Q 153 -1241 137 -1219 
Q 122 -1197 122 -1178 
L 1106 2778 
Q 1191 3097 1353 3397 
Q 1516 3697 1761 3955 
Q 2006 4213 2300 4363 
Q 2594 4513 2925 4513 
Q 3163 4513 3355 4408 
Q 3547 4303 3658 4114 
Q 3769 3925 3769 3688 
Q 3769 3459 3681 3251 
Q 3594 3044 3437 2864 
Q 3281 2684 3103 2572 
Q 3206 2506 3287 2404 
Q 3369 2303 3419 2192 
Q 3469 2081 3497 1945 
Q 3525 1809 3525 1691 
Q 3525 1363 3384 1044 
Q 3244 725 3001 465 
Q 2759 206 2446 54 
Q 2134 -97 1806 -97 
Q 1447 -97 1159 100 
Q 872 297 763 634 
L 300 -1203 
Q 300 -1241 250 -1241 
L 172 -1241 
z
M 1819 78 
Q 2106 78 2339 267 
Q 2572 456 2723 742 
Q 2875 1028 2954 1348 
Q 3034 1669 3034 1931 
Q 3034 2256 2847 2444 
Q 2628 2363 2419 2363 
Q 1913 2363 1913 2534 
Q 1913 2759 2491 2759 
Q 2697 2759 2869 2694 
Q 3006 2800 3118 3006 
Q 3231 3213 3289 3438 
Q 3347 3663 3347 3859 
Q 3347 4069 3236 4208 
Q 3125 4347 2913 4347 
Q 2522 4347 2186 4106 
Q 1850 3866 1619 3498 
Q 1388 3131 1288 2741 
L 934 1325 
Q 900 1178 891 997 
Q 891 597 1153 337 
Q 1416 78 1819 78 
z
M 2106 2553 
Q 2203 2528 2425 2528 
Q 2534 2528 2644 2566 
Q 2638 2572 2619 2572 
Q 2550 2591 2472 2591 
Q 2181 2591 2106 2553 
z
" transform="scale(0.015625)"/>
       <path id="Cmr10-28" d="M 1984 -1588 
Q 1628 -1306 1370 -942 
Q 1113 -578 948 -165 
Q 784 247 703 697 
Q 622 1147 622 1600 
Q 622 2059 703 2509 
Q 784 2959 951 3375 
Q 1119 3791 1378 4153 
Q 1638 4516 1984 4788 
Q 1984 4800 2016 4800 
L 2075 4800 
Q 2094 4800 2109 4783 
Q 2125 4766 2125 4744 
Q 2125 4716 2113 4703 
Q 1800 4397 1592 4047 
Q 1384 3697 1257 3301 
Q 1131 2906 1075 2482 
Q 1019 2059 1019 1600 
Q 1019 -434 2106 -1491 
Q 2125 -1509 2125 -1544 
Q 2125 -1559 2108 -1579 
Q 2091 -1600 2075 -1600 
L 2016 -1600 
Q 1984 -1600 1984 -1588 
z
" transform="scale(0.015625)"/>
       <path id="Cmr10-29" d="M 416 -1600 
Q 359 -1600 359 -1544 
Q 359 -1516 372 -1503 
Q 1466 -434 1466 1600 
Q 1466 3634 384 4691 
Q 359 4706 359 4744 
Q 359 4766 376 4783 
Q 394 4800 416 4800 
L 475 4800 
Q 494 4800 506 4788 
Q 966 4425 1272 3906 
Q 1578 3388 1720 2800 
Q 1863 2213 1863 1600 
Q 1863 1147 1786 708 
Q 1709 269 1542 -157 
Q 1375 -584 1119 -945 
Q 863 -1306 506 -1588 
Q 494 -1600 475 -1600 
L 416 -1600 
z
" transform="scale(0.015625)"/>
       <path id="Cmmi10-3b" d="M 634 -1153 
Q 634 -1125 659 -1100 
Q 891 -878 1019 -587 
Q 1147 -297 1147 25 
L 1147 103 
Q 1044 0 891 0 
Q 744 0 641 103 
Q 538 206 538 353 
Q 538 503 641 603 
Q 744 703 891 703 
Q 1119 703 1216 492 
Q 1313 281 1313 25 
Q 1313 -331 1170 -651 
Q 1028 -972 769 -1228 
Q 744 -1241 728 -1241 
Q 697 -1241 665 -1212 
Q 634 -1184 634 -1153 
z
" transform="scale(0.015625)"/>
       <path id="Cmr10-32" d="M 319 0 
L 319 172 
Q 319 188 331 206 
L 1325 1306 
Q 1550 1550 1690 1715 
Q 1831 1881 1968 2097 
Q 2106 2313 2186 2536 
Q 2266 2759 2266 3009 
Q 2266 3272 2169 3511 
Q 2072 3750 1880 3894 
Q 1688 4038 1416 4038 
Q 1138 4038 916 3870 
Q 694 3703 603 3438 
Q 628 3444 672 3444 
Q 816 3444 917 3347 
Q 1019 3250 1019 3097 
Q 1019 2950 917 2848 
Q 816 2747 672 2747 
Q 522 2747 420 2851 
Q 319 2956 319 3097 
Q 319 3338 409 3548 
Q 500 3759 670 3923 
Q 841 4088 1055 4175 
Q 1269 4263 1509 4263 
Q 1875 4263 2190 4108 
Q 2506 3953 2690 3670 
Q 2875 3388 2875 3009 
Q 2875 2731 2753 2481 
Q 2631 2231 2440 2026 
Q 2250 1822 1953 1562 
Q 1656 1303 1563 1216 
L 838 519 
L 1453 519 
Q 1906 519 2211 526 
Q 2516 534 2534 550 
Q 2609 631 2688 1141 
L 2875 1141 
L 2694 0 
L 319 0 
z
" transform="scale(0.015625)"/>
      </defs>
      <use xlink:href="#Cmmi10-af" transform="translate(0 0.109375)"/>
      <use xlink:href="#Cmr10-28" transform="translate(56.494141 0.109375)"/>
      <use xlink:href="#Cmmi10-74" transform="translate(95.3125 0.109375)"/>
      <use xlink:href="#Cmr10-29" transform="translate(131.396484 0.109375)"/>
      <use xlink:href="#Cmmi10-3b" transform="translate(170.214844 0.109375)"/>
      <use xlink:href="#Cmmi10-af" transform="translate(215.458984 0.109375)"/>
      <use xlink:href="#Cmr10-32" transform="translate(283.785312 38.373438) scale(0.7)"/>
      <use xlink:href="#Cmr10-28" transform="translate(325.162656 0.109375)"/>
      <use xlink:href="#Cmmi10-74" transform="translate(363.981016 0.109375)"/>
      <use xlink:href="#Cmr10-29" transform="translate(400.065 0.109375)"/>
     </g>
    </g>
   </g>
   <g id="line2d_29">
    <path d="M 60.878348 201.585557 
L 61.549539 202.667208 
L 62.22073 206.134018 
L 62.891921 213.442475 
L 63.563112 205.173191 
L 64.234303 198.598923 
L 65.576684 195.928399 
L 66.919066 189.795516 
L 67.590257 202.300987 
L 68.261448 204.592873 
L 68.932639 202.821037 
L 69.60383 200.013378 
L 70.275021 202.033944 
L 70.946211 197.47167 
L 71.617402 189.605611 
L 72.288593 202.783799 
L 72.959784 198.756898 
L 73.630975 201.918544 
L 74.302166 206.074922 
L 74.973357 211.110445 
L 75.644547 206.474531 
L 76.315738 208.971289 
L 76.986929 208.384838 
L 77.65812 219.172314 
L 78.329311 220.764285 
L 79.000502 216.097667 
L 79.671693 219.024821 
L 81.014074 200.258327 
L 81.685265 191.9295 
L 82.356456 193.643496 
L 83.027647 178.085141 
L 83.698838 186.724297 
L 84.370029 185.132999 
L 85.041219 190.410062 
L 85.71241 213.813764 
L 86.383601 219.261376 
L 87.054792 209.498738 
L 87.725983 210.191909 
L 88.397174 206.264406 
L 89.739555 183.970666 
L 90.410746 180.766701 
L 91.081937 180.816407 
L 91.753128 186.902414 
L 92.424319 183.230389 
L 93.09551 187.501232 
L 93.766701 193.603818 
L 94.437892 187.68601 
L 95.109082 186.800554 
L 95.780273 179.372216 
L 96.451464 179.815483 
L 97.122655 178.947482 
L 97.793846 174.077361 
L 98.465037 166.078477 
L 99.136228 147.027523 
L 99.807418 149.711314 
L 100.478609 147.939951 
L 101.1498 149.633585 
L 101.820991 152.826228 
L 102.492182 151.504402 
L 103.163373 150.679292 
L 103.834564 153.843466 
L 104.505754 163.983125 
L 105.176945 171.748339 
L 105.848136 171.814636 
L 106.519327 169.719744 
L 107.190518 180.185433 
L 107.861709 179.770821 
L 108.5329 181.54571 
L 109.20409 176.152459 
L 109.875281 182.189545 
L 110.546472 191.179368 
L 111.217663 191.732422 
L 113.231236 201.692944 
L 113.902426 213.181168 
L 114.573617 203.630701 
L 115.244808 211.336709 
L 115.915999 207.601652 
L 116.58719 209.222262 
L 117.258381 204.22887 
L 117.929572 222.629748 
L 118.600762 225.284847 
L 119.271953 221.958363 
L 119.943144 236.223963 
L 121.285526 214.111001 
L 121.956717 225.654354 
L 122.627908 219.258791 
L 123.299099 222.254925 
L 123.970289 216.863598 
L 124.64148 204.983621 
L 125.312671 201.478186 
L 125.983862 201.229213 
L 126.655053 189.504719 
L 127.326244 200.128078 
L 127.997435 193.866456 
L 128.668625 192.493461 
L 129.339816 194.102685 
L 131.353389 233.440257 
L 132.02458 236.464019 
L 132.695771 244.393142 
L 133.366961 256.352223 
L 134.038152 260.383297 
L 134.709343 266.947375 
L 135.380534 266.982491 
L 136.051725 264.971659 
L 136.722916 266.150403 
L 137.394107 245.472455 
L 138.065297 239.056855 
L 138.736488 234.611489 
L 139.407679 242.572844 
L 140.07887 245.14933 
L 140.750061 238.030632 
L 142.092443 229.199621 
L 142.763633 233.591897 
L 143.434824 218.53599 
L 144.106015 223.018404 
L 144.777206 223.091905 
L 145.448397 230.327618 
L 146.119588 227.282436 
L 146.790779 219.92848 
L 147.461969 220.87118 
L 148.13316 212.382287 
L 149.475542 204.21701 
L 150.146733 214.486479 
L 151.489115 228.841463 
L 152.160306 231.665803 
L 152.831496 222.27955 
L 153.502687 217.642476 
L 154.173878 203.874181 
L 154.845069 204.224694 
L 155.51626 199.528976 
L 156.187451 191.041628 
L 156.858642 186.909967 
L 157.529832 186.389754 
L 158.201023 177.82547 
L 158.872214 178.799176 
L 159.543405 170.344427 
L 160.214596 172.033187 
L 160.885787 168.92624 
L 161.556978 161.054655 
L 162.228168 171.959328 
L 162.899359 169.435202 
L 163.57055 171.304761 
L 164.241741 169.735776 
L 164.912932 167.38531 
L 165.584123 164.093768 
L 166.255314 177.757658 
L 166.926504 177.624866 
L 167.597695 162.626809 
L 168.268886 164.987291 
L 168.940077 157.295415 
L 169.611268 147.507917 
L 170.282459 149.455212 
L 170.95365 145.580625 
L 171.62484 145.037326 
L 172.296031 139.714115 
L 172.967222 130.608506 
L 173.638413 131.832722 
L 174.309604 128.817236 
L 175.651986 118.885508 
L 176.323177 118.044297 
L 176.994367 126.447164 
L 177.665558 115.052382 
L 178.336749 111.733308 
L 179.00794 112.159195 
L 179.679131 113.530234 
L 180.350322 113.210132 
L 181.021513 113.291962 
L 181.692703 108.382738 
L 182.363894 112.634146 
L 183.035085 119.560212 
L 183.706276 119.589661 
L 184.377467 115.962373 
L 185.048658 117.134167 
L 185.719849 122.229111 
L 186.391039 114.68835 
L 187.06223 113.896253 
L 187.733421 113.469572 
L 188.404612 124.384469 
L 189.075803 130.776365 
L 189.746994 128.405848 
L 190.418185 132.68792 
L 191.089375 130.873452 
L 191.760566 124.767968 
L 192.431757 124.641095 
L 193.102948 111.704573 
L 193.774139 109.79831 
L 194.44533 102.248583 
L 194.44533 102.248583 
" clip-path="url(#p1404f9cb60)" style="fill: none; stroke: #8000ff; stroke-width: 2; stroke-linecap: square"/>
   </g>
   <g id="line2d_30">
    <path d="M 60.878348 201.585557 
L 61.549539 201.568126 
L 62.22073 201.277322 
L 62.891921 199.490975 
L 63.563112 201.393792 
L 64.234303 201.452659 
L 65.576684 201.108742 
L 66.247875 200.457056 
L 66.919066 199.514536 
L 67.590257 201.577932 
L 68.261448 201.450813 
L 68.932639 201.562816 
L 70.275021 201.582562 
L 70.946211 201.333407 
L 71.617402 199.447281 
L 72.288593 201.564166 
L 72.959784 201.466347 
L 73.630975 201.583905 
L 74.302166 201.285279 
L 74.973357 200.233878 
L 75.644547 201.229443 
L 76.315738 200.772837 
L 76.986929 200.896778 
L 77.65812 196.977419 
L 78.329311 196.105394 
L 79.000502 198.447831 
L 79.671693 197.054388 
L 80.342883 200.716744 
L 81.014074 201.559312 
L 81.685265 200.196393 
L 82.356456 200.64579 
L 83.027647 193.357353 
L 83.698838 198.295032 
L 84.370029 197.552626 
L 85.041219 199.724809 
L 85.71241 199.357741 
L 86.383601 196.930628 
L 87.054792 200.652612 
L 87.725983 200.482007 
L 88.397174 201.259396 
L 89.068365 200.853352 
L 89.739555 196.962664 
L 90.410746 195.128009 
L 91.081937 195.158807 
L 91.753128 198.373435 
L 92.424319 196.565939 
L 93.766701 200.636376 
L 94.437892 198.70713 
L 95.109082 198.328714 
L 95.780273 194.233959 
L 96.451464 194.524434 
L 97.122655 193.950137 
L 97.793846 190.311553 
L 98.465037 182.801738 
L 99.136228 157.237828 
L 99.807418 161.493576 
L 100.478609 158.708765 
L 101.1498 161.373338 
L 101.820991 166.163856 
L 102.492182 164.217318 
L 103.163373 162.975857 
L 103.834564 167.626405 
L 104.505754 180.519375 
L 105.176945 188.321676 
L 105.848136 188.380554 
L 106.519327 186.456774 
L 107.190518 194.762382 
L 107.861709 194.495432 
L 108.5329 195.60223 
L 109.20409 191.948321 
L 110.546472 199.972175 
L 111.217663 200.139109 
L 111.888854 200.923754 
L 112.560045 201.425406 
L 113.231236 201.585386 
L 113.902426 199.582279 
L 114.573617 201.523241 
L 115.244808 200.168897 
L 115.915999 201.046316 
L 116.58719 200.716665 
L 117.258381 201.481457 
L 117.929572 194.987464 
L 118.600762 193.217501 
L 119.271953 195.401755 
L 119.943144 183.709581 
L 120.614335 193.747841 
L 121.285526 199.248119 
L 121.956717 192.954525 
L 122.627908 196.93199 
L 123.299099 195.220412 
L 124.64148 201.413522 
L 125.312671 201.585386 
L 125.983862 201.583665 
L 126.655053 199.411114 
L 127.326244 201.553908 
L 127.997435 200.697814 
L 128.668625 200.353922 
L 130.011007 201.159095 
L 130.682198 196.479506 
L 131.353389 186.467326 
L 132.02458 183.46095 
L 132.695771 174.283498 
L 133.366961 156.898005 
L 134.038152 150.077494 
L 134.709343 137.935001 
L 135.380534 137.86659 
L 136.051725 141.724822 
L 136.722916 139.47775 
L 137.394107 172.889401 
L 138.065297 180.666051 
L 138.736488 185.335155 
L 139.407679 176.55605 
L 140.07887 173.310406 
L 140.750061 181.796202 
L 142.092443 190.224608 
L 142.763633 186.323046 
L 143.434824 197.30485 
L 144.106015 194.741499 
L 144.777206 194.694477 
L 145.448397 189.277493 
L 146.119588 191.747379 
L 146.790779 196.572634 
L 147.461969 196.044135 
L 148.13316 199.848803 
L 148.804351 200.860416 
L 149.475542 201.482389 
L 150.146733 199.105879 
L 150.817924 195.317202 
L 151.489115 190.517403 
L 152.160306 188.104725 
L 152.831496 195.205236 
L 153.502687 197.744256 
L 154.173878 201.50752 
L 155.51626 201.522542 
L 156.858642 198.376739 
L 157.529832 198.145218 
L 158.201023 193.174511 
L 158.872214 193.849767 
L 159.543405 187.044116 
L 160.214596 188.573721 
L 160.885787 185.693937 
L 161.556978 177.110343 
L 162.228168 188.508599 
L 162.899359 186.185387 
L 163.57055 187.924367 
L 164.241741 186.471994 
L 164.912932 184.158966 
L 165.584123 180.643165 
L 166.255314 193.126432 
L 166.926504 193.031884 
L 167.597695 178.972257 
L 168.268886 181.629488 
L 168.940077 172.359642 
L 169.611268 158.01537 
L 170.282459 161.096732 
L 170.95365 154.854401 
L 171.62484 153.943335 
L 172.296031 144.551476 
L 172.967222 126.528788 
L 173.638413 129.095625 
L 174.309604 122.692519 
L 175.651986 99.687593 
L 176.323177 97.604073 
L 176.994367 117.469719 
L 177.665558 90.022798 
L 178.336749 81.300447 
L 179.00794 82.438013 
L 179.679131 86.063425 
L 180.350322 85.221996 
L 181.021513 85.437387 
L 181.692703 72.162378 
L 182.363894 83.700258 
L 183.035085 101.343471 
L 183.706276 101.415434 
L 184.377467 92.356868 
L 185.048658 95.326106 
L 185.719849 107.760596 
L 186.391039 89.08217 
L 187.06223 87.021808 
L 187.733421 85.9042 
L 188.404612 112.788042 
L 189.075803 126.883383 
L 189.746994 121.797971 
L 190.418185 130.86224 
L 191.089375 127.088092 
L 191.760566 113.668059 
L 192.431757 113.377409 
L 193.102948 81.2235 
L 193.774139 76.063902 
L 194.44533 54.565759 
L 194.44533 54.565759 
" clip-path="url(#p1404f9cb60)" style="fill: none; stroke: #ff8000; stroke-width: 2; stroke-linecap: square"/>
   </g>
   <g class="patch">
    <path d="M 47.454531 293.830125 
L 47.454531 27.718125 
" style="fill: none; stroke:var(--black); stroke-width: 0.8; stroke-linejoin: miter; stroke-linecap: square"/>
   </g>
   <g class="patch">
    <path d="M 47.454531 293.830125 
L 248.169598 293.830125 
" style="fill: none; stroke:var(--black); stroke-width: 0.8; stroke-linejoin: miter; stroke-linecap: square"/>
   </g>
   <g id="text_17" class="text">
    <!-- Brownian motion and its squared version -->
    <g transform="translate(22.322065 12.718125) scale(0.12 -0.12)">
     <defs>
      <path id="DejaVuSerif-42" d="M 1581 331 
L 2516 331 
Q 3078 331 3337 575 
Q 3597 819 3597 1350 
Q 3597 1878 3339 2120 
Q 3081 2363 2516 2363 
L 1581 2363 
L 1581 331 
z
M 1581 2694 
L 2375 2694 
Q 2888 2694 3123 2891 
Q 3359 3088 3359 3513 
Q 3359 3941 3123 4136 
Q 2888 4331 2375 4331 
L 1581 4331 
L 1581 2694 
z
M 353 0 
L 353 331 
L 947 331 
L 947 4331 
L 353 4331 
L 353 4666 
L 2656 4666 
Q 3363 4666 3720 4377 
Q 4078 4088 4078 3513 
Q 4078 3097 3829 2850 
Q 3581 2603 3103 2547 
Q 3697 2472 4005 2167 
Q 4313 1863 4313 1350 
Q 4313 656 3875 328 
Q 3438 0 2509 0 
L 353 0 
z
" transform="scale(0.015625)"/>
      <path id="DejaVuSerif-72" d="M 3059 3328 
L 3059 2497 
L 2728 2497 
Q 2713 2744 2591 2866 
Q 2469 2988 2234 2988 
Q 1809 2988 1582 2694 
Q 1356 2400 1356 1850 
L 1356 331 
L 2022 331 
L 2022 0 
L 263 0 
L 263 331 
L 781 331 
L 781 2994 
L 231 2994 
L 231 3322 
L 1356 3322 
L 1356 2731 
Q 1525 3078 1790 3245 
Q 2056 3413 2438 3413 
Q 2578 3413 2733 3391 
Q 2888 3369 3059 3328 
z
" transform="scale(0.015625)"/>
      <path id="DejaVuSerif-6f" d="M 1925 219 
Q 2388 219 2623 584 
Q 2859 950 2859 1663 
Q 2859 2375 2623 2739 
Q 2388 3103 1925 3103 
Q 1463 3103 1227 2739 
Q 991 2375 991 1663 
Q 991 950 1228 584 
Q 1466 219 1925 219 
z
M 1925 -91 
Q 1200 -91 759 389 
Q 319 869 319 1663 
Q 319 2456 758 2934 
Q 1197 3413 1925 3413 
Q 2653 3413 3092 2934 
Q 3531 2456 3531 1663 
Q 3531 869 3092 389 
Q 2653 -91 1925 -91 
z
" transform="scale(0.015625)"/>
      <path id="DejaVuSerif-77" d="M 3072 3322 
L 3922 728 
L 4672 2988 
L 4191 2988 
L 4191 3322 
L 5394 3322 
L 5394 2988 
L 5025 2988 
L 4038 0 
L 3559 0 
L 2741 2484 
L 1919 0 
L 1459 0 
L 475 2988 
L 103 2988 
L 103 3322 
L 1606 3322 
L 1606 2988 
L 1069 2988 
L 1813 728 
L 2669 3322 
L 3072 3322 
z
" transform="scale(0.015625)"/>
      <path id="DejaVuSerif-6e" d="M 263 0 
L 263 331 
L 781 331 
L 781 2988 
L 231 2988 
L 231 3322 
L 1356 3322 
L 1356 2731 
Q 1516 3069 1770 3241 
Q 2025 3413 2363 3413 
Q 2913 3413 3172 3097 
Q 3431 2781 3431 2113 
L 3431 331 
L 3944 331 
L 3944 0 
L 2356 0 
L 2356 331 
L 2853 331 
L 2853 1931 
Q 2853 2541 2703 2767 
Q 2553 2994 2175 2994 
Q 1775 2994 1565 2701 
Q 1356 2409 1356 1850 
L 1356 331 
L 1856 331 
L 1856 0 
L 263 0 
z
" transform="scale(0.015625)"/>
      <path id="DejaVuSerif-69" d="M 622 4353 
Q 622 4497 726 4603 
Q 831 4709 978 4709 
Q 1122 4709 1226 4603 
Q 1331 4497 1331 4353 
Q 1331 4206 1228 4103 
Q 1125 4000 978 4000 
Q 831 4000 726 4103 
Q 622 4206 622 4353 
z
M 1356 331 
L 1900 331 
L 1900 0 
L 231 0 
L 231 331 
L 781 331 
L 781 2988 
L 231 2988 
L 231 3322 
L 1356 3322 
L 1356 331 
z
" transform="scale(0.015625)"/>
      <path id="DejaVuSerif-61" d="M 2547 1044 
L 2547 1747 
L 1806 1747 
Q 1378 1747 1168 1562 
Q 959 1378 959 997 
Q 959 650 1171 447 
Q 1384 244 1747 244 
Q 2106 244 2326 466 
Q 2547 688 2547 1044 
z
M 3122 2075 
L 3122 331 
L 3634 331 
L 3634 0 
L 2547 0 
L 2547 359 
Q 2356 128 2106 18 
Q 1856 -91 1522 -91 
Q 969 -91 644 203 
Q 319 497 319 997 
Q 319 1513 691 1797 
Q 1063 2081 1741 2081 
L 2547 2081 
L 2547 2309 
Q 2547 2688 2317 2895 
Q 2088 3103 1672 3103 
Q 1328 3103 1125 2947 
Q 922 2791 872 2484 
L 575 2484 
L 575 3156 
Q 875 3284 1158 3348 
Q 1441 3413 1709 3413 
Q 2400 3413 2761 3070 
Q 3122 2728 3122 2075 
z
" transform="scale(0.015625)"/>
      <path id="DejaVuSerif-20" transform="scale(0.015625)"/>
      <path id="DejaVuSerif-6d" d="M 3316 2675 
Q 3481 3041 3739 3227 
Q 3997 3413 4341 3413 
Q 4863 3413 5119 3089 
Q 5375 2766 5375 2113 
L 5375 331 
L 5894 331 
L 5894 0 
L 4300 0 
L 4300 331 
L 4800 331 
L 4800 2047 
Q 4800 2556 4650 2772 
Q 4500 2988 4153 2988 
Q 3769 2988 3567 2697 
Q 3366 2406 3366 1850 
L 3366 331 
L 3866 331 
L 3866 0 
L 2291 0 
L 2291 331 
L 2791 331 
L 2791 2069 
Q 2791 2566 2641 2777 
Q 2491 2988 2144 2988 
Q 1759 2988 1557 2697 
Q 1356 2406 1356 1850 
L 1356 331 
L 1856 331 
L 1856 0 
L 263 0 
L 263 331 
L 781 331 
L 781 2994 
L 231 2994 
L 231 3322 
L 1356 3322 
L 1356 2731 
Q 1516 3063 1762 3238 
Q 2009 3413 2322 3413 
Q 2709 3413 2968 3220 
Q 3228 3028 3316 2675 
z
" transform="scale(0.015625)"/>
      <path id="DejaVuSerif-74" d="M 691 2988 
L 184 2988 
L 184 3322 
L 691 3322 
L 691 4353 
L 1269 4353 
L 1269 3322 
L 2350 3322 
L 2350 2988 
L 1269 2988 
L 1269 878 
Q 1269 456 1350 337 
Q 1431 219 1650 219 
Q 1875 219 1978 351 
Q 2081 484 2088 781 
L 2522 781 
Q 2497 328 2275 118 
Q 2053 -91 1600 -91 
Q 1103 -91 897 129 
Q 691 350 691 878 
L 691 2988 
z
" transform="scale(0.015625)"/>
      <path id="DejaVuSerif-64" d="M 3359 331 
L 3909 331 
L 3909 0 
L 2784 0 
L 2784 519 
Q 2616 206 2355 57 
Q 2094 -91 1709 -91 
Q 1097 -91 708 395 
Q 319 881 319 1663 
Q 319 2444 706 2928 
Q 1094 3413 1709 3413 
Q 2094 3413 2355 3264 
Q 2616 3116 2784 2803 
L 2784 4531 
L 2241 4531 
L 2241 4863 
L 3359 4863 
L 3359 331 
z
M 2784 1497 
L 2784 1825 
Q 2784 2422 2554 2737 
Q 2325 3053 1888 3053 
Q 1444 3053 1217 2703 
Q 991 2353 991 1663 
Q 991 975 1217 622 
Q 1444 269 1888 269 
Q 2325 269 2554 583 
Q 2784 897 2784 1497 
z
" transform="scale(0.015625)"/>
      <path id="DejaVuSerif-73" d="M 359 184 
L 359 959 
L 691 959 
Q 703 588 923 403 
Q 1144 219 1575 219 
Q 1963 219 2166 364 
Q 2369 509 2369 788 
Q 2369 1006 2220 1140 
Q 2072 1275 1594 1428 
L 1178 1569 
Q 750 1706 558 1912 
Q 366 2119 366 2438 
Q 366 2894 700 3153 
Q 1034 3413 1625 3413 
Q 1888 3413 2178 3344 
Q 2469 3275 2778 3144 
L 2778 2419 
L 2447 2419 
Q 2434 2741 2221 2922 
Q 2009 3103 1644 3103 
Q 1281 3103 1095 2975 
Q 909 2847 909 2591 
Q 909 2381 1050 2254 
Q 1191 2128 1613 1997 
L 2069 1856 
Q 2541 1709 2748 1489 
Q 2956 1269 2956 922 
Q 2956 450 2595 179 
Q 2234 -91 1600 -91 
Q 1278 -91 972 -22 
Q 666 47 359 184 
z
" transform="scale(0.015625)"/>
      <path id="DejaVuSerif-71" d="M 3359 2988 
L 3359 -997 
L 3909 -997 
L 3909 -1331 
L 2241 -1331 
L 2241 -997 
L 2784 -997 
L 2784 519 
Q 2616 206 2355 57 
Q 2094 -91 1709 -91 
Q 1097 -91 708 395 
Q 319 881 319 1663 
Q 319 2444 706 2928 
Q 1094 3413 1709 3413 
Q 2094 3413 2355 3264 
Q 2616 3116 2784 2803 
L 2784 3322 
L 3909 3322 
L 3909 2988 
L 3359 2988 
z
M 2784 1825 
Q 2784 2422 2554 2737 
Q 2325 3053 1888 3053 
Q 1444 3053 1217 2703 
Q 991 2353 991 1663 
Q 991 975 1217 622 
Q 1444 269 1888 269 
Q 2325 269 2554 583 
Q 2784 897 2784 1497 
L 2784 1825 
z
" transform="scale(0.015625)"/>
      <path id="DejaVuSerif-75" d="M 2266 3322 
L 3341 3322 
L 3341 331 
L 3884 331 
L 3884 0 
L 2766 0 
L 2766 588 
Q 2606 256 2353 82 
Q 2100 -91 1766 -91 
Q 1213 -91 952 223 
Q 691 538 691 1209 
L 691 2988 
L 172 2988 
L 172 3322 
L 1269 3322 
L 1269 1388 
Q 1269 781 1417 556 
Q 1566 331 1947 331 
Q 2347 331 2556 625 
Q 2766 919 2766 1478 
L 2766 2988 
L 2266 2988 
L 2266 3322 
z
" transform="scale(0.015625)"/>
      <path id="DejaVuSerif-65" d="M 3469 1600 
L 991 1600 
L 991 1575 
Q 991 903 1244 561 
Q 1497 219 1991 219 
Q 2369 219 2611 417 
Q 2853 616 2950 1006 
L 3413 1006 
Q 3275 459 2904 184 
Q 2534 -91 1931 -91 
Q 1203 -91 761 389 
Q 319 869 319 1663 
Q 319 2450 753 2931 
Q 1188 3413 1894 3413 
Q 2647 3413 3050 2948 
Q 3453 2484 3469 1600 
z
M 2791 1931 
Q 2772 2513 2545 2808 
Q 2319 3103 1894 3103 
Q 1497 3103 1269 2806 
Q 1041 2509 991 1931 
L 2791 1931 
z
" transform="scale(0.015625)"/>
      <path id="DejaVuSerif-76" d="M 1581 0 
L 359 2988 
L -19 2988 
L -19 3322 
L 1509 3322 
L 1509 2988 
L 978 2988 
L 1913 703 
L 2847 2988 
L 2350 2988 
L 2350 3322 
L 3597 3322 
L 3597 2988 
L 3225 2988 
L 2003 0 
L 1581 0 
z
" transform="scale(0.015625)"/>
     </defs>
     <use xlink:href="#DejaVuSerif-42"/>
     <use xlink:href="#DejaVuSerif-72" transform="translate(73.486328 0)"/>
     <use xlink:href="#DejaVuSerif-6f" transform="translate(121.289062 0)"/>
     <use xlink:href="#DejaVuSerif-77" transform="translate(181.494141 0)"/>
     <use xlink:href="#DejaVuSerif-6e" transform="translate(267.089844 0)"/>
     <use xlink:href="#DejaVuSerif-69" transform="translate(331.494141 0)"/>
     <use xlink:href="#DejaVuSerif-61" transform="translate(363.476562 0)"/>
     <use xlink:href="#DejaVuSerif-6e" transform="translate(423.095703 0)"/>
     <use xlink:href="#DejaVuSerif-20" transform="translate(487.5 0)"/>
     <use xlink:href="#DejaVuSerif-6d" transform="translate(519.287109 0)"/>
     <use xlink:href="#DejaVuSerif-6f" transform="translate(614.111328 0)"/>
     <use xlink:href="#DejaVuSerif-74" transform="translate(674.316406 0)"/>
     <use xlink:href="#DejaVuSerif-69" transform="translate(714.501953 0)"/>
     <use xlink:href="#DejaVuSerif-6f" transform="translate(746.484375 0)"/>
     <use xlink:href="#DejaVuSerif-6e" transform="translate(806.689453 0)"/>
     <use xlink:href="#DejaVuSerif-20" transform="translate(871.09375 0)"/>
     <use xlink:href="#DejaVuSerif-61" transform="translate(902.880859 0)"/>
     <use xlink:href="#DejaVuSerif-6e" transform="translate(962.5 0)"/>
     <use xlink:href="#DejaVuSerif-64" transform="translate(1026.904297 0)"/>
     <use xlink:href="#DejaVuSerif-20" transform="translate(1090.917969 0)"/>
     <use xlink:href="#DejaVuSerif-69" transform="translate(1122.705078 0)"/>
     <use xlink:href="#DejaVuSerif-74" transform="translate(1154.6875 0)"/>
     <use xlink:href="#DejaVuSerif-73" transform="translate(1194.873047 0)"/>
     <use xlink:href="#DejaVuSerif-20" transform="translate(1246.191406 0)"/>
     <use xlink:href="#DejaVuSerif-73" transform="translate(1277.978516 0)"/>
     <use xlink:href="#DejaVuSerif-71" transform="translate(1329.296875 0)"/>
     <use xlink:href="#DejaVuSerif-75" transform="translate(1393.310547 0)"/>
     <use xlink:href="#DejaVuSerif-61" transform="translate(1457.714844 0)"/>
     <use xlink:href="#DejaVuSerif-72" transform="translate(1517.333984 0)"/>
     <use xlink:href="#DejaVuSerif-65" transform="translate(1565.136719 0)"/>
     <use xlink:href="#DejaVuSerif-64" transform="translate(1624.316406 0)"/>
     <use xlink:href="#DejaVuSerif-20" transform="translate(1688.330078 0)"/>
     <use xlink:href="#DejaVuSerif-76" transform="translate(1720.117188 0)"/>
     <use xlink:href="#DejaVuSerif-65" transform="translate(1776.611328 0)"/>
     <use xlink:href="#DejaVuSerif-72" transform="translate(1835.791016 0)"/>
     <use xlink:href="#DejaVuSerif-73" transform="translate(1883.59375 0)"/>
     <use xlink:href="#DejaVuSerif-69" transform="translate(1934.912109 0)"/>
     <use xlink:href="#DejaVuSerif-6f" transform="translate(1966.894531 0)"/>
     <use xlink:href="#DejaVuSerif-6e" transform="translate(2027.099609 0)"/>
    </g>
   </g>
   <g class="legend">
    <g class="patch">
     <path d="M 188.895297 68.228959 
L 237.855297 68.228959 
Q 239.655297 68.228959 239.655297 66.428959 
L 239.655297 39.340365 
Q 239.655297 37.540365 237.855297 37.540365 
L 188.895297 37.540365 
Q 187.095297 37.540365 187.095297 39.340365 
L 187.095297 66.428959 
Q 187.095297 68.228959 188.895297 68.228959 
L 188.895297 68.228959 
z
" style="fill: none; opacity: 0.9; stroke: #cccccc; stroke-linejoin: miter"/>
    </g>
    <g id="line2d_31">
     <path d="M 190.695297 44.828959 
L 199.695297 44.828959 
L 208.695297 44.828959 
" style="fill: none; stroke: #8000ff; stroke-width: 2; stroke-linecap: square"/>
    </g>
    <g id="text_18" class="text">
     <!-- $\beta(t)$ -->
     <g transform="translate(215.895297 47.978959) scale(0.09 -0.09)">
      <use xlink:href="#Cmmi10-af"/>
      <use xlink:href="#Cmr10-28" transform="translate(56.494141 0)"/>
      <use xlink:href="#Cmmi10-74" transform="translate(95.3125 0)"/>
      <use xlink:href="#Cmr10-29" transform="translate(131.396484 0)"/>
     </g>
    </g>
    <g id="line2d_32">
     <path d="M 190.695297 59.228959 
L 199.695297 59.228959 
L 208.695297 59.228959 
" style="fill: none; stroke: #ff8000; stroke-width: 2; stroke-linecap: square"/>
    </g>
    <g id="text_19" class="text">
     <!-- $\beta^2(t)$ -->
     <g transform="translate(215.895297 62.378959) scale(0.09 -0.09)">
      <use xlink:href="#Cmmi10-af" transform="translate(0 0.109375)"/>
      <use xlink:href="#Cmr10-32" transform="translate(68.326328 38.373438) scale(0.7)"/>
      <use xlink:href="#Cmr10-28" transform="translate(109.703672 0.109375)"/>
      <use xlink:href="#Cmmi10-74" transform="translate(148.522031 0.109375)"/>
      <use xlink:href="#Cmr10-29" transform="translate(184.606016 0.109375)"/>
     </g>
    </g>
   </g>
  </g>
 </g>
 <defs>
  <clipPath id="p1404f9cb60">
   <rect x="47.454531" y="27.718125" width="200.715067" height="266.112"/>
  </clipPath>
 </defs>
</svg>
