<?xml version="1.0" encoding="utf-8" standalone="no"?>
<!DOCTYPE svg PUBLIC "-//W3C//DTD SVG 1.1//EN"
  "http://www.w3.org/Graphics/SVG/1.1/DTD/svg11.dtd">
<svg xmlns:xlink="http://www.w3.org/1999/xlink" width="142.764109pt" height="309.900437pt" viewBox="0 0 142.764109 309.900437" xmlns="http://www.w3.org/2000/svg" version="1.1">
<style>/* === RDF autogenerated palette === */
:root {
    --axis-color: #000;
    --grid-stroke: rgba(0,0,0,0.2);
    --plot3d-stroke: rgba(0,0,0,0.3);
    --plot3d-grid: rgba(0,0,0,0.2);
}
@media (prefers-color-scheme: dark) {
    :root {
        --axis-color: #fff;
        --grid-stroke: rgba(255,255,255,0.2);
        --plot3d-stroke: rgba(255,255,255,0.3);
        --plot3d-grid: rgba(255,255,255,0.2);
    }
}

/* Light‑mode palette */
.c1 { fill:#FF0001; stroke:#FF0001; }.c2 { fill:#00FF02; stroke:#00FF02; }.c3 { fill:#0000FF; stroke:#0000FF; }.c4 { fill:#FF00FF; stroke:#FF00FF; }.c5 { fill:#00FFFF; stroke:#00FFFF; }.c6 { fill:#FFFF00; stroke:#FFFF00; }.c7 { fill:#FF8000; stroke:#FF8000; }.c8 { fill:#8000FF; stroke:#8000FF; }.octonary { fill:#bcbd22; stroke:#bcbd22; }.primary { fill:#d62728; stroke:#d62728; }.quaternary { fill:#9467bd; stroke:#9467bd; }.quinary { fill:#8c564b; stroke:#8c564b; }.secondary { fill:#2ca02c; stroke:#2ca02c; }.senary { fill:#e377c2; stroke:#e377c2; }.septenary { fill:#7f7f7f; stroke:#7f7f7f; }.tertiary { fill:#1f77b4; stroke:#1f77b4; }

/* Dark overrides */
@media (prefers-color-scheme: dark) {
    .c1 { fill:#FF0001; stroke:#FF0001; }.c2 { fill:#00FF02; stroke:#00FF02; }.c3 { fill:#0000FF; stroke:#0000FF; }.c4 { fill:#FF00FF; stroke:#FF00FF; }.c5 { fill:#00FFFF; stroke:#00FFFF; }.c6 { fill:#FFFF00; stroke:#FFFF00; }.c7 { fill:#FF8000; stroke:#FF8000; }.c8 { fill:#8000FF; stroke:#8000FF; }.octonary { fill:#E6DB74; stroke:#E6DB74; }.primary { fill:#FF4A98; stroke:#FF4A98; }.quaternary { fill:#B4A0FF; stroke:#B4A0FF; }.quinary { fill:#FFB86B; stroke:#FFB86B; }.secondary { fill:#0AFAFA; stroke:#0AFAFA; }.senary { fill:#FF79C6; stroke:#FF79C6; }.septenary { fill:#CCCCCC; stroke:#CCCCCC; }.tertiary { fill:#7F83FF; stroke:#7F83FF; }
}/* Axis, ticks, legend */
text, .text { fill: var(--axis-color) !important; stroke: none !important; }
.axis line, .axis path,
.tick line, .tick path,
path.domain,
line.grid { stroke: var(--axis-color) !important; }
.legend text { fill: var(--axis-color) !important; }

/* Patch paths that relied on currentColor */
.patch path[style*="stroke: currentColor"] { stroke: var(--axis-color) !important; }

/* Legend background (first child of legend group) */
g.legend > g:first-child > path:first-child {
    fill: rgba(255,255,255,0.8) !important;
    stroke: rgba(0,0,0,0.1) !important;
}
@media (prefers-color-scheme: dark) {
    g.legend > g:first-child > path:first-child {
        fill: rgba(26,26,26,0.8) !important;
        stroke: rgba(255,255,255,0.1) !important;
    }
}

/* 3‑D specific rules */
.plot3d path, .plot3d polygon {
    stroke: var(--plot3d-stroke) !important;
}
.plot3d-grid line { stroke: var(--plot3d-grid) !important; }
.plot3d-surface path[style*="fill:"] {
    fill-opacity: 0.9 !important;
}
@media (prefers-color-scheme: dark) {
    .plot3d-surface path[style*="fill:"] {
        fill-opacity: 0.95 !important;
        filter: saturate(1.2) !important;
    }
}</style>

 <metadata>
  <rdf:RDF xmlns:dc="http://purl.org/dc/elements/1.1/" xmlns:cc="http://creativecommons.org/ns#" xmlns:rdf="http://www.w3.org/1999/02/22-rdf-syntax-ns#">
   <cc:Work>
    <dc:type rdf:resource="http://purl.org/dc/dcmitype/StillImage"/>
    <dc:date>2025-07-10T21:47:10.428888</dc:date>
    <dc:format>image/svg+xml</dc:format>
    <dc:creator>
     <cc:Agent>
      <dc:title>Matplotlib v3.10.1, https://matplotlib.org/</dc:title>
     </cc:Agent>
    </dc:creator>
   </cc:Work>
  </rdf:RDF>
 </metadata>
 <defs>
  <style type="text/css">*{stroke-linejoin: round; stroke-linecap: butt}</style>
 </defs>
 <g id="figure_1">
  <g class="patch">
   <path d="M 0 309.900437 
L 142.764109 309.900437 
L 142.764109 0 
L 0 0 
L 0 309.900437 
z
" style="fill: none"/>
  </g>
  <g id="axes_1">
   <g class="patch">
    <path d="M 33.72625 122.90087 
L 135.564109 122.90087 
L 135.564109 7.2 
L 33.72625 7.2 
L 33.72625 122.90087 
z
" style="fill: none"/>
   </g>
   <g class="axis">
    <g class="tick xtick">
     <g id="line2d_1">
      <path d="M 36.773834 122.90087 
L 36.773834 7.2 
" clip-path="url(#p3c7991a50c)" style="fill: none; stroke: #b0b0b0; stroke-opacity: 0.1; stroke-width: 0.8; stroke-linecap: square"/>
     </g>
     <g id="line2d_2">
      <defs>
       <path id="mb1c5379cfb" d="M 0 0 
L 0 3.5 
" style="stroke: currentColor; stroke-width: 0.8"/>
      </defs>
      <g>
       <use xlink:href="#mb1c5379cfb" x="36.773834" y="122.90087" style="stroke: currentColor; stroke-width: 0.8"/>
      </g>
     </g>
     <g id="text_1" class="text">
      <!-- 0.0 -->
      <g transform="translate(29.617428 136.739463) scale(0.09 -0.09)">
       <defs>
        <path id="DejaVuSans-30" d="M 2034 4250 
Q 1547 4250 1301 3770 
Q 1056 3291 1056 2328 
Q 1056 1369 1301 889 
Q 1547 409 2034 409 
Q 2525 409 2770 889 
Q 3016 1369 3016 2328 
Q 3016 3291 2770 3770 
Q 2525 4250 2034 4250 
z
M 2034 4750 
Q 2819 4750 3233 4129 
Q 3647 3509 3647 2328 
Q 3647 1150 3233 529 
Q 2819 -91 2034 -91 
Q 1250 -91 836 529 
Q 422 1150 422 2328 
Q 422 3509 836 4129 
Q 1250 4750 2034 4750 
z
" transform="scale(0.015625)"/>
        <path id="DejaVuSans-2e" d="M 684 794 
L 1344 794 
L 1344 0 
L 684 0 
L 684 794 
z
" transform="scale(0.015625)"/>
       </defs>
       <use xlink:href="#DejaVuSans-30"/>
       <use xlink:href="#DejaVuSans-2e" transform="translate(63.623047 0)"/>
       <use xlink:href="#DejaVuSans-30" transform="translate(95.410156 0)"/>
      </g>
     </g>
    </g>
    <g class="tick xtick">
     <g id="line2d_3">
      <path d="M 74.868641 122.90087 
L 74.868641 7.2 
" clip-path="url(#p3c7991a50c)" style="fill: none; stroke: #b0b0b0; stroke-opacity: 0.1; stroke-width: 0.8; stroke-linecap: square"/>
     </g>
     <g id="line2d_4">
      <g>
       <use xlink:href="#mb1c5379cfb" x="74.868641" y="122.90087" style="stroke: currentColor; stroke-width: 0.8"/>
      </g>
     </g>
     <g id="text_2" class="text">
      <!-- 2.5 -->
      <g transform="translate(67.712234 136.739463) scale(0.09 -0.09)">
       <defs>
        <path id="DejaVuSans-32" d="M 1228 531 
L 3431 531 
L 3431 0 
L 469 0 
L 469 531 
Q 828 903 1448 1529 
Q 2069 2156 2228 2338 
Q 2531 2678 2651 2914 
Q 2772 3150 2772 3378 
Q 2772 3750 2511 3984 
Q 2250 4219 1831 4219 
Q 1534 4219 1204 4116 
Q 875 4013 500 3803 
L 500 4441 
Q 881 4594 1212 4672 
Q 1544 4750 1819 4750 
Q 2544 4750 2975 4387 
Q 3406 4025 3406 3419 
Q 3406 3131 3298 2873 
Q 3191 2616 2906 2266 
Q 2828 2175 2409 1742 
Q 1991 1309 1228 531 
z
" transform="scale(0.015625)"/>
        <path id="DejaVuSans-35" d="M 691 4666 
L 3169 4666 
L 3169 4134 
L 1269 4134 
L 1269 2991 
Q 1406 3038 1543 3061 
Q 1681 3084 1819 3084 
Q 2600 3084 3056 2656 
Q 3513 2228 3513 1497 
Q 3513 744 3044 326 
Q 2575 -91 1722 -91 
Q 1428 -91 1123 -41 
Q 819 9 494 109 
L 494 744 
Q 775 591 1075 516 
Q 1375 441 1709 441 
Q 2250 441 2565 725 
Q 2881 1009 2881 1497 
Q 2881 1984 2565 2268 
Q 2250 2553 1709 2553 
Q 1456 2553 1204 2497 
Q 953 2441 691 2322 
L 691 4666 
z
" transform="scale(0.015625)"/>
       </defs>
       <use xlink:href="#DejaVuSans-32"/>
       <use xlink:href="#DejaVuSans-2e" transform="translate(63.623047 0)"/>
       <use xlink:href="#DejaVuSans-35" transform="translate(95.410156 0)"/>
      </g>
     </g>
    </g>
    <g class="tick xtick">
     <g id="line2d_5">
      <path d="M 112.963447 122.90087 
L 112.963447 7.2 
" clip-path="url(#p3c7991a50c)" style="fill: none; stroke: #b0b0b0; stroke-opacity: 0.1; stroke-width: 0.8; stroke-linecap: square"/>
     </g>
     <g id="line2d_6">
      <g>
       <use xlink:href="#mb1c5379cfb" x="112.963447" y="122.90087" style="stroke: currentColor; stroke-width: 0.8"/>
      </g>
     </g>
     <g id="text_3" class="text">
      <!-- 5.0 -->
      <g transform="translate(105.80704 136.739463) scale(0.09 -0.09)">
       <use xlink:href="#DejaVuSans-35"/>
       <use xlink:href="#DejaVuSans-2e" transform="translate(63.623047 0)"/>
       <use xlink:href="#DejaVuSans-30" transform="translate(95.410156 0)"/>
      </g>
     </g>
    </g>
    <g id="text_4" class="text">
     <!-- $t$ -->
     <g transform="translate(82.64518 150.20962) scale(0.1 -0.1)">
      <defs>
       <path id="DejaVuSans-Oblique-74" d="M 2706 3500 
L 2619 3053 
L 1472 3053 
L 1100 1153 
Q 1081 1047 1072 975 
Q 1063 903 1063 863 
Q 1063 663 1183 572 
Q 1303 481 1569 481 
L 2150 481 
L 2053 0 
L 1503 0 
Q 991 0 739 200 
Q 488 400 488 806 
Q 488 878 497 964 
Q 506 1050 525 1153 
L 897 3053 
L 409 3053 
L 500 3500 
L 978 3500 
L 1172 4494 
L 1747 4494 
L 1556 3500 
L 2706 3500 
z
" transform="scale(0.015625)"/>
      </defs>
      <use xlink:href="#DejaVuSans-Oblique-74" transform="translate(0 0.78125)"/>
     </g>
    </g>
   </g>
   <g class="axis">
    <g class="tick ytick">
     <g id="line2d_7">
      <path d="M 33.72625 109.037859 
L 135.564109 109.037859 
" clip-path="url(#p3c7991a50c)" style="fill: none; stroke: #b0b0b0; stroke-opacity: 0.1; stroke-width: 0.8; stroke-linecap: square"/>
     </g>
     <g id="line2d_8">
      <defs>
       <path id="m3089f0b3e9" d="M 0 0 
L -3.5 0 
" style="stroke: currentColor; stroke-width: 0.8"/>
      </defs>
      <g>
       <use xlink:href="#m3089f0b3e9" x="33.72625" y="109.037859" style="stroke: currentColor; stroke-width: 0.8"/>
      </g>
     </g>
     <g id="text_5" class="text">
      <!-- 0 -->
      <g transform="translate(21 112.457156) scale(0.09 -0.09)">
       <use xlink:href="#DejaVuSans-30"/>
      </g>
     </g>
    </g>
    <g class="tick ytick">
     <g id="line2d_9">
      <path d="M 33.72625 78.562014 
L 135.564109 78.562014 
" clip-path="url(#p3c7991a50c)" style="fill: none; stroke: #b0b0b0; stroke-opacity: 0.1; stroke-width: 0.8; stroke-linecap: square"/>
     </g>
     <g id="line2d_10">
      <g>
       <use xlink:href="#m3089f0b3e9" x="33.72625" y="78.562014" style="stroke: currentColor; stroke-width: 0.8"/>
      </g>
     </g>
     <g id="text_6" class="text">
      <!-- 2 -->
      <g transform="translate(21 81.981311) scale(0.09 -0.09)">
       <use xlink:href="#DejaVuSans-32"/>
      </g>
     </g>
    </g>
    <g class="tick ytick">
     <g id="line2d_11">
      <path d="M 33.72625 48.08617 
L 135.564109 48.08617 
" clip-path="url(#p3c7991a50c)" style="fill: none; stroke: #b0b0b0; stroke-opacity: 0.1; stroke-width: 0.8; stroke-linecap: square"/>
     </g>
     <g id="line2d_12">
      <g>
       <use xlink:href="#m3089f0b3e9" x="33.72625" y="48.08617" style="stroke: currentColor; stroke-width: 0.8"/>
      </g>
     </g>
     <g id="text_7" class="text">
      <!-- 4 -->
      <g transform="translate(21 51.505466) scale(0.09 -0.09)">
       <defs>
        <path id="DejaVuSans-34" d="M 2419 4116 
L 825 1625 
L 2419 1625 
L 2419 4116 
z
M 2253 4666 
L 3047 4666 
L 3047 1625 
L 3713 1625 
L 3713 1100 
L 3047 1100 
L 3047 0 
L 2419 0 
L 2419 1100 
L 313 1100 
L 313 1709 
L 2253 4666 
z
" transform="scale(0.015625)"/>
       </defs>
       <use xlink:href="#DejaVuSans-34"/>
      </g>
     </g>
    </g>
    <g class="tick ytick">
     <g id="line2d_13">
      <path d="M 33.72625 17.610325 
L 135.564109 17.610325 
" clip-path="url(#p3c7991a50c)" style="fill: none; stroke: #b0b0b0; stroke-opacity: 0.1; stroke-width: 0.8; stroke-linecap: square"/>
     </g>
     <g id="line2d_14">
      <g>
       <use xlink:href="#m3089f0b3e9" x="33.72625" y="17.610325" style="stroke: currentColor; stroke-width: 0.8"/>
      </g>
     </g>
     <g id="text_8" class="text">
      <!-- 6 -->
      <g transform="translate(21 21.029622) scale(0.09 -0.09)">
       <defs>
        <path id="DejaVuSans-36" d="M 2113 2584 
Q 1688 2584 1439 2293 
Q 1191 2003 1191 1497 
Q 1191 994 1439 701 
Q 1688 409 2113 409 
Q 2538 409 2786 701 
Q 3034 994 3034 1497 
Q 3034 2003 2786 2293 
Q 2538 2584 2113 2584 
z
M 3366 4563 
L 3366 3988 
Q 3128 4100 2886 4159 
Q 2644 4219 2406 4219 
Q 1781 4219 1451 3797 
Q 1122 3375 1075 2522 
Q 1259 2794 1537 2939 
Q 1816 3084 2150 3084 
Q 2853 3084 3261 2657 
Q 3669 2231 3669 1497 
Q 3669 778 3244 343 
Q 2819 -91 2113 -91 
Q 1303 -91 875 529 
Q 447 1150 447 2328 
Q 447 3434 972 4092 
Q 1497 4750 2381 4750 
Q 2619 4750 2861 4703 
Q 3103 4656 3366 4563 
z
" transform="scale(0.015625)"/>
       </defs>
       <use xlink:href="#DejaVuSans-36"/>
      </g>
     </g>
    </g>
    <g id="text_9" class="text">
     <!-- $f(t)$ -->
     <g transform="translate(14.920313 72.700435) rotate(-90) scale(0.1 -0.1)">
      <defs>
       <path id="DejaVuSans-Oblique-66" d="M 3059 4863 
L 2969 4384 
L 2419 4384 
Q 2106 4384 1964 4261 
Q 1822 4138 1753 3809 
L 1691 3500 
L 2638 3500 
L 2553 3053 
L 1606 3053 
L 1013 0 
L 434 0 
L 1031 3053 
L 481 3053 
L 563 3500 
L 1113 3500 
L 1159 3744 
Q 1278 4363 1576 4613 
Q 1875 4863 2516 4863 
L 3059 4863 
z
" transform="scale(0.015625)"/>
       <path id="DejaVuSans-28" d="M 1984 4856 
Q 1566 4138 1362 3434 
Q 1159 2731 1159 2009 
Q 1159 1288 1364 580 
Q 1569 -128 1984 -844 
L 1484 -844 
Q 1016 -109 783 600 
Q 550 1309 550 2009 
Q 550 2706 781 3412 
Q 1013 4119 1484 4856 
L 1984 4856 
z
" transform="scale(0.015625)"/>
       <path id="DejaVuSans-29" d="M 513 4856 
L 1013 4856 
Q 1481 4119 1714 3412 
Q 1947 2706 1947 2009 
Q 1947 1309 1714 600 
Q 1481 -109 1013 -844 
L 513 -844 
Q 928 -128 1133 580 
Q 1338 1288 1338 2009 
Q 1338 2731 1133 3434 
Q 928 4138 513 4856 
z
" transform="scale(0.015625)"/>
      </defs>
      <use xlink:href="#DejaVuSans-Oblique-66" transform="translate(0 0.015625)"/>
      <use xlink:href="#DejaVuSans-28" transform="translate(35.205078 0.015625)"/>
      <use xlink:href="#DejaVuSans-Oblique-74" transform="translate(74.21875 0.015625)"/>
      <use xlink:href="#DejaVuSans-29" transform="translate(113.427734 0.015625)"/>
     </g>
    </g>
   </g>
   <g id="line2d_15">
    <path d="M 36.773834 101.142184 
L 37.740932 102.084288 
L 38.70803 103.054391 
L 39.675128 104.048587 
L 40.642226 105.062874 
L 41.609324 106.093166 
L 42.576422 107.135316 
L 43.54352 108.185126 
L 44.510618 109.23837 
L 45.477715 110.290807 
L 46.444813 111.338198 
L 47.411911 112.376327 
L 48.379009 113.401013 
L 49.346107 114.408131 
L 50.313205 115.393623 
L 51.280303 116.353524 
L 52.247401 117.283967 
L 53.214498 118.181206 
L 54.181596 119.041628 
L 55.148694 119.861768 
L 56.115792 120.638324 
L 57.08289 121.368169 
L 58.049988 122.048364 
L 59.017086 122.676171 
L 59.984184 123.24906 
L 60.951282 123.764727 
L 61.918379 124.221093 
L 62.885477 124.616322 
L 63.852575 124.948822 
L 64.819673 125.217254 
L 65.786771 125.420538 
L 66.753869 125.557854 
L 67.720967 125.62865 
L 68.688065 125.632641 
L 69.655162 125.56981 
L 70.62226 125.440411 
L 71.589358 125.244965 
L 72.556456 124.984259 
L 73.523554 124.659342 
L 74.490652 124.271522 
L 75.45775 123.822363 
L 76.424848 123.313671 
L 77.391946 122.747495 
L 78.359043 122.126116 
L 79.326141 121.452035 
L 80.293239 120.727966 
L 81.260337 119.956826 
L 82.227435 119.141719 
L 83.194533 118.285926 
L 84.161631 117.392896 
L 85.128729 116.466222 
L 86.095826 115.509637 
L 87.062924 114.526993 
L 88.030022 113.522246 
L 88.99712 112.499441 
L 89.964218 111.462698 
L 90.931316 110.416191 
L 91.898414 109.364135 
L 92.865512 108.310764 
L 93.832609 107.260321 
L 94.799707 106.217035 
L 95.766805 105.185108 
L 96.733903 104.168695 
L 97.701001 103.171888 
L 98.668099 102.198702 
L 99.635197 101.253054 
L 100.602295 100.338753 
L 101.569393 99.45948 
L 102.53649 98.618775 
L 103.503588 97.820025 
L 104.470686 97.066445 
L 105.437784 96.36107 
L 106.404882 95.70674 
L 107.37198 95.106089 
L 108.339078 94.561537 
L 109.306176 94.075275 
L 110.273273 93.649263 
L 111.240371 93.285215 
L 112.207469 92.984598 
L 113.174567 92.748621 
L 114.141665 92.578236 
L 115.108763 92.474127 
L 116.075861 92.436715 
L 117.042959 92.46615 
L 118.010057 92.562313 
L 118.977154 92.724817 
L 119.944252 92.953009 
L 120.91135 93.245968 
L 121.878448 93.602515 
L 122.845546 94.021216 
L 123.812644 94.500383 
L 124.779742 95.038087 
L 125.74684 95.632164 
L 126.713937 96.28022 
L 127.681035 96.979647 
L 128.648133 97.727628 
L 129.615231 98.521152 
L 130.582329 99.357022 
L 131.549427 100.231874 
L 132.516525 101.142184 
" clip-path="url(#p3c7991a50c)" style="fill: none; stroke: #8000ff; stroke-width: 2; stroke-linecap: square"/>
   </g>
   <g class="patch">
    <path d="M 33.72625 122.90087 
L 33.72625 7.2 
" style="fill: none; stroke: currentColor; stroke-width: 0.8; stroke-linejoin: miter; stroke-linecap: square"/>
   </g>
   <g class="patch">
    <path d="M 33.72625 122.90087 
L 135.564109 122.90087 
" style="fill: none; stroke: currentColor; stroke-width: 0.8; stroke-linejoin: miter; stroke-linecap: square"/>
   </g>
  </g>
  <g id="axes_2">
   <g class="patch">
    <path d="M 33.72625 273.312 
L 135.564109 273.312 
L 135.564109 157.61113 
L 33.72625 157.61113 
L 33.72625 273.312 
z
" style="fill: none"/>
   </g>
   <g class="axis">
    <g class="tick xtick">
     <g id="line2d_16">
      <path d="M 36.773834 273.312 
L 36.773834 157.61113 
" clip-path="url(#p02decb9247)" style="fill: none; stroke: #b0b0b0; stroke-opacity: 0.1; stroke-width: 0.8; stroke-linecap: square"/>
     </g>
     <g id="line2d_17">
      <g>
       <use xlink:href="#mb1c5379cfb" x="36.773834" y="273.312" style="stroke: currentColor; stroke-width: 0.8"/>
      </g>
     </g>
     <g id="text_10" class="text">
      <!-- 0.0 -->
      <g transform="translate(29.617428 287.150594) scale(0.09 -0.09)">
       <use xlink:href="#DejaVuSans-30"/>
       <use xlink:href="#DejaVuSans-2e" transform="translate(63.623047 0)"/>
       <use xlink:href="#DejaVuSans-30" transform="translate(95.410156 0)"/>
      </g>
     </g>
    </g>
    <g class="tick xtick">
     <g id="line2d_18">
      <path d="M 74.868641 273.312 
L 74.868641 157.61113 
" clip-path="url(#p02decb9247)" style="fill: none; stroke: #b0b0b0; stroke-opacity: 0.1; stroke-width: 0.8; stroke-linecap: square"/>
     </g>
     <g id="line2d_19">
      <g>
       <use xlink:href="#mb1c5379cfb" x="74.868641" y="273.312" style="stroke: currentColor; stroke-width: 0.8"/>
      </g>
     </g>
     <g id="text_11" class="text">
      <!-- 2.5 -->
      <g transform="translate(67.712234 287.150594) scale(0.09 -0.09)">
       <use xlink:href="#DejaVuSans-32"/>
       <use xlink:href="#DejaVuSans-2e" transform="translate(63.623047 0)"/>
       <use xlink:href="#DejaVuSans-35" transform="translate(95.410156 0)"/>
      </g>
     </g>
    </g>
    <g class="tick xtick">
     <g id="line2d_20">
      <path d="M 112.963447 273.312 
L 112.963447 157.61113 
" clip-path="url(#p02decb9247)" style="fill: none; stroke: #b0b0b0; stroke-opacity: 0.1; stroke-width: 0.8; stroke-linecap: square"/>
     </g>
     <g id="line2d_21">
      <g>
       <use xlink:href="#mb1c5379cfb" x="112.963447" y="273.312" style="stroke: currentColor; stroke-width: 0.8"/>
      </g>
     </g>
     <g id="text_12" class="text">
      <!-- 5.0 -->
      <g transform="translate(105.80704 287.150594) scale(0.09 -0.09)">
       <use xlink:href="#DejaVuSans-35"/>
       <use xlink:href="#DejaVuSans-2e" transform="translate(63.623047 0)"/>
       <use xlink:href="#DejaVuSans-30" transform="translate(95.410156 0)"/>
      </g>
     </g>
    </g>
    <g id="text_13" class="text">
     <!-- $t$ -->
     <g transform="translate(82.64518 300.62075) scale(0.1 -0.1)">
      <use xlink:href="#DejaVuSans-Oblique-74" transform="translate(0 0.78125)"/>
     </g>
    </g>
   </g>
   <g class="axis">
    <g class="tick ytick">
     <g id="line2d_22">
      <path d="M 33.72625 259.44899 
L 135.564109 259.44899 
" clip-path="url(#p02decb9247)" style="fill: none; stroke: #b0b0b0; stroke-opacity: 0.1; stroke-width: 0.8; stroke-linecap: square"/>
     </g>
     <g id="line2d_23">
      <g>
       <use xlink:href="#m3089f0b3e9" x="33.72625" y="259.44899" style="stroke: currentColor; stroke-width: 0.8"/>
      </g>
     </g>
     <g id="text_14" class="text">
      <!-- 0 -->
      <g transform="translate(21 262.868287) scale(0.09 -0.09)">
       <use xlink:href="#DejaVuSans-30"/>
      </g>
     </g>
    </g>
    <g class="tick ytick">
     <g id="line2d_24">
      <path d="M 33.72625 228.973145 
L 135.564109 228.973145 
" clip-path="url(#p02decb9247)" style="fill: none; stroke: #b0b0b0; stroke-opacity: 0.1; stroke-width: 0.8; stroke-linecap: square"/>
     </g>
     <g id="line2d_25">
      <g>
       <use xlink:href="#m3089f0b3e9" x="33.72625" y="228.973145" style="stroke: currentColor; stroke-width: 0.8"/>
      </g>
     </g>
     <g id="text_15" class="text">
      <!-- 2 -->
      <g transform="translate(21 232.392442) scale(0.09 -0.09)">
       <use xlink:href="#DejaVuSans-32"/>
      </g>
     </g>
    </g>
    <g class="tick ytick">
     <g id="line2d_26">
      <path d="M 33.72625 198.4973 
L 135.564109 198.4973 
" clip-path="url(#p02decb9247)" style="fill: none; stroke: #b0b0b0; stroke-opacity: 0.1; stroke-width: 0.8; stroke-linecap: square"/>
     </g>
     <g id="line2d_27">
      <g>
       <use xlink:href="#m3089f0b3e9" x="33.72625" y="198.4973" style="stroke: currentColor; stroke-width: 0.8"/>
      </g>
     </g>
     <g id="text_16" class="text">
      <!-- 4 -->
      <g transform="translate(21 201.916597) scale(0.09 -0.09)">
       <use xlink:href="#DejaVuSans-34"/>
      </g>
     </g>
    </g>
    <g class="tick ytick">
     <g id="line2d_28">
      <path d="M 33.72625 168.021455 
L 135.564109 168.021455 
" clip-path="url(#p02decb9247)" style="fill: none; stroke: #b0b0b0; stroke-opacity: 0.1; stroke-width: 0.8; stroke-linecap: square"/>
     </g>
     <g id="line2d_29">
      <g>
       <use xlink:href="#m3089f0b3e9" x="33.72625" y="168.021455" style="stroke: currentColor; stroke-width: 0.8"/>
      </g>
     </g>
     <g id="text_17" class="text">
      <!-- 6 -->
      <g transform="translate(21 171.440752) scale(0.09 -0.09)">
       <use xlink:href="#DejaVuSans-36"/>
      </g>
     </g>
    </g>
    <g id="text_18" class="text">
     <!-- $\beta(t)$ -->
     <g transform="translate(14.9 224.561565) rotate(-90) scale(0.1 -0.1)">
      <defs>
       <path id="DejaVuSans-Oblique-3b2" d="M 872 216 
L 572 -1331 
L -6 -1331 
L 928 3478 
Q 1206 4903 2538 4903 
Q 3888 4903 3659 3700 
Q 3503 2844 2894 2531 
Q 3713 2250 3553 1416 
Q 3272 -69 1759 -66 
Q 1097 -63 872 216 
z
M 1019 966 
Q 1259 422 1875 425 
Q 2775 425 2966 1406 
Q 3138 2288 1675 2219 
L 1778 2750 
Q 2909 2731 3106 3750 
Q 3241 4438 2509 4434 
Q 1691 4434 1503 3459 
L 1019 966 
z
" transform="scale(0.015625)"/>
      </defs>
      <use xlink:href="#DejaVuSans-Oblique-3b2" transform="translate(0 0.390625)"/>
      <use xlink:href="#DejaVuSans-28" transform="translate(63.818359 0.390625)"/>
      <use xlink:href="#DejaVuSans-Oblique-74" transform="translate(102.832031 0.390625)"/>
      <use xlink:href="#DejaVuSans-29" transform="translate(142.041016 0.390625)"/>
     </g>
    </g>
   </g>
   <g id="line2d_30">
    <path d="M 36.773834 259.44899 
L 36.926214 255.489066 
L 37.078593 255.071292 
L 37.230972 256.728555 
L 37.383351 255.305976 
L 37.535731 257.553739 
L 37.68811 256.876018 
L 37.840489 258.222974 
L 37.992868 256.175793 
L 38.145248 256.493299 
L 38.297627 258.125023 
L 38.754764 250.038009 
L 38.907144 254.111256 
L 39.821419 243.66079 
L 39.973798 247.124732 
L 40.583315 242.221093 
L 40.888074 240.054459 
L 41.040453 242.32261 
L 41.192832 239.798954 
L 41.345211 239.69837 
L 41.49759 239.270516 
L 41.64997 238.068289 
L 41.802349 238.273196 
L 41.954728 240.153281 
L 42.259487 238.476313 
L 42.564245 237.82609 
L 42.716624 239.000402 
L 43.021383 236.102763 
L 43.173762 238.219293 
L 43.326141 236.697484 
L 43.47852 238.56097 
L 43.6309 236.568789 
L 43.935658 240.914374 
L 44.240416 238.06939 
L 44.545175 235.819097 
L 44.697554 236.466278 
L 44.849933 235.895835 
L 45.002313 236.179275 
L 45.307071 238.136685 
L 45.45945 237.222719 
L 45.764209 232.932286 
L 46.068967 234.326568 
L 46.221346 232.741014 
L 46.373726 234.206182 
L 46.526105 233.91455 
L 46.678484 234.729538 
L 46.830863 236.377291 
L 46.983243 236.135905 
L 47.288001 240.312542 
L 47.44038 240.282139 
L 47.592759 240.854306 
L 47.897518 237.7336 
L 48.202276 236.004258 
L 48.354656 237.256519 
L 48.659414 234.510846 
L 48.811793 234.457395 
L 49.116552 237.684448 
L 49.268931 237.102228 
L 49.42131 241.543809 
L 49.573689 242.09505 
L 49.726069 243.883987 
L 49.878448 242.6105 
L 50.030827 245.218387 
L 50.335585 244.0162 
L 50.640344 247.669503 
L 50.945102 250.801512 
L 51.249861 252.342138 
L 51.40224 248.399631 
L 51.554619 249.694147 
L 51.706998 249.768339 
L 51.859378 250.951558 
L 52.011757 249.925018 
L 52.164136 251.447622 
L 52.468895 245.210053 
L 52.621274 244.913084 
L 53.078411 247.311311 
L 53.230791 246.810314 
L 53.38317 246.734925 
L 53.687928 251.908726 
L 53.840308 252.162203 
L 54.145066 249.916431 
L 54.449824 249.175872 
L 54.602204 249.908257 
L 54.754583 248.371742 
L 54.906962 251.387958 
L 55.059341 249.970511 
L 55.211721 250.470838 
L 55.3641 252.388308 
L 55.668858 247.719904 
L 55.821238 247.566015 
L 56.125996 251.391836 
L 56.278375 252.541774 
L 56.430754 252.045485 
L 56.583134 252.534729 
L 56.735513 251.705413 
L 56.887892 252.180699 
L 57.192651 252.025182 
L 57.34503 253.099342 
L 57.497409 252.618767 
L 57.802167 252.410802 
L 57.954547 251.434936 
L 58.106926 251.700979 
L 58.259305 250.188939 
L 58.411684 249.828108 
L 58.564064 251.582689 
L 58.716443 250.969305 
L 58.868822 251.074583 
L 59.021201 252.25148 
L 59.32596 248.765402 
L 59.935477 255.50576 
L 60.087856 254.554502 
L 60.240235 255.284051 
L 60.392614 255.108968 
L 60.544993 255.556777 
L 60.697373 255.463375 
L 60.849752 253.487935 
L 61.002131 255.457145 
L 61.15451 255.795892 
L 61.30689 255.808352 
L 61.459269 255.596205 
L 61.611648 254.542882 
L 61.764027 255.525714 
L 62.068786 260.299287 
L 62.221165 257.264958 
L 62.373544 258.663988 
L 62.525923 256.343934 
L 62.678303 256.822 
L 62.983061 262.163088 
L 63.13544 261.53766 
L 63.592578 264.406456 
L 63.744957 263.941531 
L 63.897336 261.616233 
L 64.049716 261.013218 
L 64.202095 261.084017 
L 64.354474 261.980913 
L 64.659233 258.839639 
L 64.811612 259.74119 
L 64.963991 255.948128 
L 65.11637 255.60718 
L 65.268749 255.583324 
L 65.573508 258.813894 
L 65.878266 257.037701 
L 66.030646 257.189266 
L 66.183025 256.802213 
L 66.335404 253.864053 
L 66.487783 256.491596 
L 66.640162 255.634295 
L 66.792542 256.399701 
L 66.944921 254.549495 
L 67.0973 254.942049 
L 67.402059 254.658689 
L 67.554438 256.021604 
L 67.706817 254.244105 
L 67.859196 257.64953 
L 68.011575 257.977421 
L 68.163955 257.917711 
L 68.621092 264.919018 
L 68.773472 263.657915 
L 68.925851 263.988277 
L 69.230609 260.876463 
L 69.382988 262.175619 
L 69.535368 264.64229 
L 69.840126 261.802459 
L 69.992505 262.089426 
L 70.297264 263.572181 
L 70.449643 262.147759 
L 70.754401 264.633418 
L 70.906781 263.86289 
L 71.05916 266.536774 
L 71.211539 266.826747 
L 71.363918 266.614351 
L 71.516298 266.960464 
L 71.668677 266.005546 
L 71.821056 261.379999 
L 71.973435 262.282212 
L 72.278194 260.872997 
L 72.430573 257.939026 
L 72.582952 257.771893 
L 72.735331 256.422895 
L 73.04009 253.199201 
L 73.344848 255.651862 
L 73.801986 251.585999 
L 73.954365 250.734135 
L 74.106744 251.850518 
L 74.411503 251.013187 
L 74.563882 251.284703 
L 74.716261 249.627466 
L 74.868641 249.595975 
L 75.173399 247.665752 
L 75.325778 248.09891 
L 75.478157 251.694036 
L 75.630537 252.520351 
L 75.782916 253.981327 
L 75.935295 250.529715 
L 76.087674 251.884653 
L 76.240054 250.739174 
L 76.392433 247.463364 
L 76.544812 247.257735 
L 76.697191 251.332324 
L 76.84957 249.251774 
L 77.00195 249.861968 
L 77.154329 248.696081 
L 77.306708 249.176604 
L 77.459087 246.78082 
L 77.611467 247.142104 
L 77.763846 246.361589 
L 77.916225 247.552495 
L 78.068604 246.999813 
L 78.220983 247.214972 
L 78.373363 247.940491 
L 78.678121 249.555643 
L 78.8305 248.294506 
L 78.98288 245.640764 
L 79.135259 245.885422 
L 79.287638 244.491366 
L 79.440017 245.325739 
L 79.592396 245.078389 
L 79.744776 244.006446 
L 79.897155 244.296306 
L 80.201913 247.5207 
L 80.354293 247.276799 
L 80.659051 244.47899 
L 80.81143 244.483952 
L 80.96381 244.297267 
L 81.573326 245.806471 
L 81.878085 248.171995 
L 82.030464 247.834003 
L 82.182843 248.315244 
L 82.79236 240.877228 
L 82.944739 240.43876 
L 83.097119 241.588755 
L 83.249498 244.3515 
L 83.401877 244.087436 
L 83.554256 243.489334 
L 83.859015 241.378371 
L 84.011394 241.036836 
L 84.163773 241.6846 
L 84.316152 243.68939 
L 84.468532 242.87146 
L 84.925669 245.566266 
L 85.078049 245.081662 
L 85.230428 245.367814 
L 85.382807 244.957296 
L 85.535186 246.100476 
L 85.687565 245.313152 
L 85.839945 248.580113 
L 86.144703 245.440962 
L 86.297082 246.107946 
L 86.449462 245.47506 
L 86.601841 247.283604 
L 86.75422 247.438144 
L 86.906599 245.891976 
L 87.058978 247.231411 
L 87.211358 245.562158 
L 87.363737 246.307031 
L 87.516116 243.851921 
L 87.668495 245.060722 
L 87.973254 241.099376 
L 88.278012 241.73813 
L 88.582771 240.434618 
L 88.73515 238.433636 
L 88.887529 238.779571 
L 89.039908 240.100245 
L 89.344667 237.701412 
L 89.497046 240.112104 
L 89.649425 240.114705 
L 89.954184 243.231391 
L 90.106563 244.970008 
L 90.411321 243.637387 
L 90.71608 249.30084 
L 90.868459 248.711229 
L 91.020838 246.843822 
L 91.325597 249.96891 
L 91.477976 249.933212 
L 91.630355 251.41707 
L 91.782734 249.558693 
L 91.935114 251.541904 
L 92.087493 250.15002 
L 92.392251 252.95577 
L 92.69701 249.573951 
L 92.849389 250.535402 
L 93.001768 248.780657 
L 93.154147 251.357829 
L 93.763664 253.908354 
L 93.916044 251.341951 
L 94.220802 254.192109 
L 94.52556 255.751555 
L 94.982698 259.319343 
L 95.135077 257.673989 
L 95.287457 260.082097 
L 95.439836 258.161866 
L 95.592215 258.167004 
L 95.744594 257.648124 
L 95.896973 255.01575 
L 96.049353 255.857852 
L 96.201732 255.101579 
L 96.354111 256.936649 
L 96.50649 256.531831 
L 96.65887 255.684182 
L 96.811249 258.1634 
L 96.963628 258.440275 
L 97.116007 257.823264 
L 97.268387 258.863981 
L 97.420766 258.212364 
L 97.573145 258.738957 
L 97.725524 257.783263 
L 97.877903 262.037025 
L 98.030283 263.013037 
L 98.182662 264.943063 
L 98.335041 264.555121 
L 98.48742 265.46077 
L 98.6398 265.669943 
L 98.792179 267.216831 
L 98.944558 266.180987 
L 99.096937 264.21023 
L 99.249316 264.495597 
L 99.858833 259.584329 
L 100.011213 259.563887 
L 100.163592 259.340347 
L 100.46835 256.335254 
L 100.620729 256.173767 
L 100.773109 258.801665 
L 101.077867 259.937826 
L 101.230246 259.473075 
L 101.535005 257.169814 
L 101.687384 256.409209 
L 101.839763 256.958744 
L 102.144522 260.219473 
L 102.296901 260.774667 
L 102.44928 259.95246 
L 102.754039 257.633122 
L 102.906418 259.895747 
L 103.211176 258.228281 
L 103.363555 258.62728 
L 103.668314 255.264949 
L 103.820693 255.888452 
L 103.973072 257.559873 
L 104.125452 255.214511 
L 104.277831 254.607507 
L 104.43021 254.568807 
L 104.582589 253.875561 
L 104.734968 252.069825 
L 104.887348 252.880871 
L 105.039727 252.654996 
L 105.192106 250.862728 
L 105.344485 251.042902 
L 105.496865 251.791068 
L 105.649244 251.759156 
L 105.801623 251.538219 
L 105.954002 250.899451 
L 106.106382 250.74061 
L 106.41114 251.844095 
L 106.563519 251.583884 
L 106.715898 253.223209 
L 106.868278 253.623775 
L 107.173036 253.281646 
L 107.325415 253.491271 
L 107.477795 252.247914 
L 107.630174 253.834107 
L 107.934932 254.154769 
L 108.087311 252.519936 
L 108.239691 254.367645 
L 108.39207 252.356664 
L 108.544449 252.535976 
L 108.696828 253.037585 
L 108.849208 254.127732 
L 109.153966 254.105362 
L 109.306345 253.268854 
L 109.458724 251.011566 
L 109.611104 251.78386 
L 109.763483 254.329857 
L 109.915862 253.788916 
L 110.068241 254.961836 
L 110.220621 253.383073 
L 110.373 255.233073 
L 110.677758 253.997651 
L 110.830137 256.040264 
L 110.982517 254.339761 
L 111.134896 254.221971 
L 111.287275 254.505052 
L 111.592034 251.154068 
L 111.896792 254.42555 
L 112.049171 250.048773 
L 112.20155 250.560441 
L 112.35393 251.577991 
L 112.658688 256.698435 
L 112.811067 256.110437 
L 112.963447 255.138273 
L 113.268205 250.653176 
L 113.420584 250.148151 
L 113.572963 250.948439 
L 113.877722 250.965893 
L 114.030101 250.725418 
L 114.487239 243.823057 
L 114.639618 243.87773 
L 114.791997 246.248803 
L 114.944377 246.243053 
L 115.096756 246.838641 
L 115.401514 249.174775 
L 115.553893 249.428236 
L 115.706273 250.00907 
L 116.31579 248.499189 
L 116.620548 245.846992 
L 116.772927 245.443415 
L 116.925306 247.786683 
L 117.077686 247.838997 
L 117.230065 248.454601 
L 117.382444 246.928579 
L 117.534823 246.701166 
L 117.687203 245.364254 
L 117.839582 246.116976 
L 117.991961 244.586285 
L 118.14434 246.282258 
L 118.296719 249.738374 
L 118.449099 250.288388 
L 118.601478 248.295466 
L 118.753857 248.574019 
L 118.906236 245.801949 
L 119.210995 247.851138 
L 119.515753 244.556649 
L 119.668132 244.766068 
L 119.820512 246.92494 
L 119.972891 246.151704 
L 120.12527 246.35742 
L 120.277649 244.224051 
L 120.582408 245.738863 
L 120.734787 245.175108 
L 121.191925 248.705377 
L 121.344304 248.046031 
L 121.801442 252.148465 
L 121.953821 251.04581 
L 122.1062 250.848715 
L 122.258579 250.286168 
L 122.563338 251.641998 
L 122.715717 254.286372 
L 122.868096 253.241617 
L 123.020475 257.169779 
L 123.172855 252.823257 
L 123.325234 254.615957 
L 123.477613 258.506991 
L 123.629992 258.992953 
L 123.782372 258.346271 
L 124.239509 262.927027 
L 124.391888 262.863226 
L 124.544268 261.967596 
L 124.696647 259.611181 
L 125.001405 262.122618 
L 125.306164 257.218153 
L 125.458543 255.547894 
L 125.610922 256.77157 
L 126.06806 250.314692 
L 126.372818 251.293076 
L 126.677577 248.384875 
L 126.829956 248.729012 
L 126.982335 248.623729 
L 127.134714 249.769715 
L 127.287094 249.727804 
L 127.439473 251.052887 
L 127.591852 249.895582 
L 127.896611 249.485118 
L 128.04899 249.435969 
L 128.353748 247.103847 
L 128.506127 247.180118 
L 128.810886 249.271196 
L 128.963265 249.139816 
L 129.115644 248.055973 
L 129.420403 248.005289 
L 129.725161 246.38667 
L 129.87754 248.876744 
L 130.02992 249.144273 
L 130.182299 248.937749 
L 130.334678 247.124923 
L 130.487057 246.771641 
L 130.639437 245.928787 
L 130.791816 247.418997 
L 130.944195 247.207494 
L 131.248954 253.455494 
L 131.401333 253.360509 
L 131.553712 254.982997 
L 131.706091 252.971572 
L 131.85847 253.14311 
L 132.01085 254.1123 
L 132.315608 253.687719 
L 132.467987 254.439596 
L 132.467987 254.439596 
" clip-path="url(#p02decb9247)" style="fill: none; stroke: #8000ff; stroke-width: 2; stroke-linecap: square"/>
   </g>
   <g class="patch">
    <path d="M 33.72625 273.312 
L 33.72625 157.61113 
" style="fill: none; stroke: currentColor; stroke-width: 0.8; stroke-linejoin: miter; stroke-linecap: square"/>
   </g>
   <g class="patch">
    <path d="M 33.72625 273.312 
L 135.564109 273.312 
" style="fill: none; stroke: currentColor; stroke-width: 0.8; stroke-linejoin: miter; stroke-linecap: square"/>
   </g>
  </g>
 </g>
 <defs>
  <clipPath id="p3c7991a50c">
   <rect x="33.72625" y="7.2" width="101.837859" height="115.70087"/>
  </clipPath>
  <clipPath id="p02decb9247">
   <rect x="33.72625" y="157.61113" width="101.837859" height="115.70087"/>
  </clipPath>
 </defs>
</svg>
