<?xml version="1.0" encoding="utf-8" standalone="no"?>
<!DOCTYPE svg PUBLIC "-//W3C//DTD SVG 1.1//EN"
  "http://www.w3.org/Graphics/SVG/1.1/DTD/svg11.dtd">
<svg xmlns:xlink="http://www.w3.org/1999/xlink" width="398.266094pt" height="326.827682pt" viewBox="0 0 398.266094 326.827682" xmlns="http://www.w3.org/2000/svg" version="1.1">
<style>:root { --axis-color:#000; --grid-stroke:rgba(0,0,0,0.2); --plot3d-stroke:rgba(0,0,0,0.3); --plot3d-grid:rgba(0,0,0,0.2); }
@media (prefers-color-scheme:dark) { :root { --axis-color:#fff; --grid-stroke:rgba(255,255,255,0.2); --plot3d-stroke:rgba(255,255,255,0.3); --plot3d-grid:rgba(255,255,255,0.2); } }
.black{fill:#000000;stroke:#000000;}:root{--black:#000000;}.c1{fill:#FF0001;stroke:#FF0001;}:root{--c1:#FF0001;}.c2{fill:#00FF02;stroke:#00FF02;}:root{--c2:#00FF02;}.c3{fill:#0000FF;stroke:#0000FF;}:root{--c3:#0000FF;}.c4{fill:#FF00FF;stroke:#FF00FF;}:root{--c4:#FF00FF;}.c5{fill:#00FFFF;stroke:#00FFFF;}:root{--c5:#00FFFF;}.c6{fill:#FFFF00;stroke:#FFFF00;}:root{--c6:#FFFF00;}.c7{fill:#FF8000;stroke:#FF8000;}:root{--c7:#FF8000;}.c8{fill:#8000FF;stroke:#8000FF;}:root{--c8:#8000FF;}.gray{fill:#7f7f7f;stroke:#7f7f7f;}:root{--gray:#7f7f7f;}.grey{fill:#7f7f7f;stroke:#7f7f7f;}:root{--grey:#7f7f7f;}.octonary{fill:#bcbd22;stroke:#bcbd22;}:root{--octonary:#bcbd22;}.primary{fill:#d62728;stroke:#d62728;}:root{--primary:#d62728;}.quaternary{fill:#9467bd;stroke:#9467bd;}:root{--quaternary:#9467bd;}.quinary{fill:#8c564b;stroke:#8c564b;}:root{--quinary:#8c564b;}.secondary{fill:#2ca02c;stroke:#2ca02c;}:root{--secondary:#2ca02c;}.senary{fill:#e377c2;stroke:#e377c2;}:root{--senary:#e377c2;}.septenary{fill:#7f7f7f;stroke:#7f7f7f;}:root{--septenary:#7f7f7f;}.tertiary{fill:#1f77b4;stroke:#1f77b4;}:root{--tertiary:#1f77b4;}.white{fill:#ffffff;stroke:#ffffff;}:root{--white:#ffffff;}
@media (prefers-color-scheme:dark) { .black{fill:#FFFFFF;stroke:#FFFFFF;}:root{--black:#FFFFFF;}.c1{fill:#FF0001;stroke:#FF0001;}:root{--c1:#FF0001;}.c2{fill:#00FF02;stroke:#00FF02;}:root{--c2:#00FF02;}.c3{fill:#0000FF;stroke:#0000FF;}:root{--c3:#0000FF;}.c4{fill:#FF00FF;stroke:#FF00FF;}:root{--c4:#FF00FF;}.c5{fill:#00FFFF;stroke:#00FFFF;}:root{--c5:#00FFFF;}.c6{fill:#FFFF00;stroke:#FFFF00;}:root{--c6:#FFFF00;}.c7{fill:#FF8000;stroke:#FF8000;}:root{--c7:#FF8000;}.c8{fill:#8000FF;stroke:#8000FF;}:root{--c8:#8000FF;}.gray{fill:#CCCCCC;stroke:#CCCCCC;}:root{--gray:#CCCCCC;}.grey{fill:#CCCCCC;stroke:#CCCCCC;}:root{--grey:#CCCCCC;}.octonary{fill:#E6DB74;stroke:#E6DB74;}:root{--octonary:#E6DB74;}.primary{fill:#FF4A98;stroke:#FF4A98;}:root{--primary:#FF4A98;}.quaternary{fill:#B4A0FF;stroke:#B4A0FF;}:root{--quaternary:#B4A0FF;}.quinary{fill:#FFB86B;stroke:#FFB86B;}:root{--quinary:#FFB86B;}.secondary{fill:#0AFAFA;stroke:#0AFAFA;}:root{--secondary:#0AFAFA;}.senary{fill:#FF79C6;stroke:#FF79C6;}:root{--senary:#FF79C6;}.septenary{fill:#CCCCCC;stroke:#CCCCCC;}:root{--septenary:#CCCCCC;}.tertiary{fill:#7F83FF;stroke:#7F83FF;}:root{--tertiary:#7F83FF;}.white{fill:#000000;stroke:#000000;}:root{--white:#000000;} }
text,.text { fill:var(--axis-color)!important; stroke:none!important; }
.axis line,.axis path,.tick line,.tick path,path.domain,line.grid { stroke:var(--axis-color)!important; }
.legend text { fill:var(--axis-color)!important; }
.patch path[style*="stroke: currentColor"] { stroke:var(--axis-color)!important; }
g.legend>g:first-child>path:first-child { fill:rgba(255,255,255,0.8)!important; stroke:rgba(0,0,0,0.1)!important; }
@media (prefers-color-scheme:dark) { g.legend>g:first-child>path:first-child { fill:rgba(26,26,26,0.8)!important; stroke:rgba(255,255,255,0.1)!important; } }
.plot3d path,.plot3d polygon { stroke:var(--plot3d-stroke)!important; }
.plot3d-grid line { stroke:var(--plot3d-grid)!important; }
.plot3d-surface path[style*="fill:"] { fill-opacity:0.9!important; }
@media (prefers-color-scheme:dark) { .plot3d-surface path[style*="fill:"] { fill-opacity:0.95!important; filter:saturate(1.2)!important; } }</style>

 <metadata>
  <rdf:RDF xmlns:dc="http://purl.org/dc/elements/1.1/" xmlns:cc="http://creativecommons.org/ns#" xmlns:rdf="http://www.w3.org/1999/02/22-rdf-syntax-ns#">
   <cc:Work>
    <dc:type rdf:resource="http://purl.org/dc/dcmitype/StillImage"/>
    <dc:date>2026-01-03T22:17:24.993749</dc:date>
    <dc:format>image/svg+xml</dc:format>
    <dc:creator>
     <cc:Agent>
      <dc:title>Matplotlib v3.10.0, https://matplotlib.org/</dc:title>
     </cc:Agent>
    </dc:creator>
   </cc:Work>
  </rdf:RDF>
 </metadata>
 <defs>
  <style type="text/css">*{stroke-linejoin: round; stroke-linecap: butt}</style>
 </defs>
 <g id="figure_1">
  <g class="patch">
   <path d="M 0 326.827682 
L 398.266094 326.827682 
L 398.266094 0 
L 0 0 
L 0 326.827682 
z
" style="fill: none"/>
  </g>
  <g id="axes_1">
   <g class="patch">
    <path d="M 37.546094 293.6595 
L 394.666094 293.6595 
L 394.666094 27.5475 
L 37.546094 27.5475 
L 37.546094 293.6595 
z
" style="fill: none"/>
   </g>
   <g class="axis">
    <g class="tick xtick">
     <g id="line2d_1">
      <path d="M 37.546094 293.6595 
L 37.546094 27.5475 
" clip-path="url(#pcb6c53d7cc)" style="fill: none; stroke: #b0b0b0; stroke-opacity: 0.15; stroke-width: 0.5; stroke-linecap: square"/>
     </g>
     <g id="line2d_2">
      <defs>
       <path id="med213893a6" d="M 0 0 
L 0 3.5 
" style="stroke:var(--black); stroke-width: 0.8"/>
      </defs>
      <g>
       <use xlink:href="#med213893a6" x="37.546094" y="293.6595" style="stroke:var(--black); stroke-width: 0.8"/>
      </g>
     </g>
     <g id="text_1" class="text">
      <!-- 0.0 -->
      <g transform="translate(30.389687 307.498094) scale(0.09 -0.09)">
       <defs>
        <path id="DejaVuSerif-30" d="M 2034 219 
Q 2513 219 2750 744 
Q 2988 1269 2988 2328 
Q 2988 3391 2750 3916 
Q 2513 4441 2034 4441 
Q 1556 4441 1318 3916 
Q 1081 3391 1081 2328 
Q 1081 1269 1318 744 
Q 1556 219 2034 219 
z
M 2034 -91 
Q 1275 -91 848 546 
Q 422 1184 422 2328 
Q 422 3475 848 4112 
Q 1275 4750 2034 4750 
Q 2797 4750 3222 4112 
Q 3647 3475 3647 2328 
Q 3647 1184 3222 546 
Q 2797 -91 2034 -91 
z
" transform="scale(0.015625)"/>
        <path id="DejaVuSerif-2e" d="M 603 325 
Q 603 500 722 622 
Q 841 744 1019 744 
Q 1191 744 1312 622 
Q 1434 500 1434 325 
Q 1434 153 1312 31 
Q 1191 -91 1019 -91 
Q 841 -91 722 29 
Q 603 150 603 325 
z
" transform="scale(0.015625)"/>
       </defs>
       <use xlink:href="#DejaVuSerif-30"/>
       <use xlink:href="#DejaVuSerif-2e" transform="translate(63.623047 0)"/>
       <use xlink:href="#DejaVuSerif-30" transform="translate(95.410156 0)"/>
      </g>
     </g>
    </g>
    <g class="tick xtick">
     <g id="line2d_3">
      <path d="M 83.626094 293.6595 
L 83.626094 27.5475 
" clip-path="url(#pcb6c53d7cc)" style="fill: none; stroke: #b0b0b0; stroke-opacity: 0.15; stroke-width: 0.5; stroke-linecap: square"/>
     </g>
     <g id="line2d_4">
      <g>
       <use xlink:href="#med213893a6" x="83.626094" y="293.6595" style="stroke:var(--black); stroke-width: 0.8"/>
      </g>
     </g>
     <g id="text_2" class="text">
      <!-- 0.2 -->
      <g transform="translate(76.469688 307.498094) scale(0.09 -0.09)">
       <defs>
        <path id="DejaVuSerif-32" d="M 819 3553 
L 469 3553 
L 469 4384 
Q 803 4563 1142 4656 
Q 1481 4750 1806 4750 
Q 2534 4750 2956 4397 
Q 3378 4044 3378 3438 
Q 3378 2753 2422 1800 
Q 2347 1728 2309 1691 
L 1131 513 
L 3078 513 
L 3078 1088 
L 3444 1088 
L 3444 0 
L 434 0 
L 434 341 
L 1850 1753 
Q 2319 2222 2519 2614 
Q 2719 3006 2719 3438 
Q 2719 3909 2473 4175 
Q 2228 4441 1797 4441 
Q 1350 4441 1106 4219 
Q 863 3997 819 3553 
z
" transform="scale(0.015625)"/>
       </defs>
       <use xlink:href="#DejaVuSerif-30"/>
       <use xlink:href="#DejaVuSerif-2e" transform="translate(63.623047 0)"/>
       <use xlink:href="#DejaVuSerif-32" transform="translate(95.410156 0)"/>
      </g>
     </g>
    </g>
    <g class="tick xtick">
     <g id="line2d_5">
      <path d="M 129.706094 293.6595 
L 129.706094 27.5475 
" clip-path="url(#pcb6c53d7cc)" style="fill: none; stroke: #b0b0b0; stroke-opacity: 0.15; stroke-width: 0.5; stroke-linecap: square"/>
     </g>
     <g id="line2d_6">
      <g>
       <use xlink:href="#med213893a6" x="129.706094" y="293.6595" style="stroke:var(--black); stroke-width: 0.8"/>
      </g>
     </g>
     <g id="text_3" class="text">
      <!-- 0.4 -->
      <g transform="translate(122.549688 307.498094) scale(0.09 -0.09)">
       <defs>
        <path id="DejaVuSerif-34" d="M 2234 1581 
L 2234 4063 
L 641 1581 
L 2234 1581 
z
M 3609 0 
L 1484 0 
L 1484 331 
L 2234 331 
L 2234 1247 
L 197 1247 
L 197 1588 
L 2241 4750 
L 2859 4750 
L 2859 1581 
L 3750 1581 
L 3750 1247 
L 2859 1247 
L 2859 331 
L 3609 331 
L 3609 0 
z
" transform="scale(0.015625)"/>
       </defs>
       <use xlink:href="#DejaVuSerif-30"/>
       <use xlink:href="#DejaVuSerif-2e" transform="translate(63.623047 0)"/>
       <use xlink:href="#DejaVuSerif-34" transform="translate(95.410156 0)"/>
      </g>
     </g>
    </g>
    <g class="tick xtick">
     <g id="line2d_7">
      <path d="M 175.786094 293.6595 
L 175.786094 27.5475 
" clip-path="url(#pcb6c53d7cc)" style="fill: none; stroke: #b0b0b0; stroke-opacity: 0.15; stroke-width: 0.5; stroke-linecap: square"/>
     </g>
     <g id="line2d_8">
      <g>
       <use xlink:href="#med213893a6" x="175.786094" y="293.6595" style="stroke:var(--black); stroke-width: 0.8"/>
      </g>
     </g>
     <g id="text_4" class="text">
      <!-- 0.6 -->
      <g transform="translate(168.629688 307.498094) scale(0.09 -0.09)">
       <defs>
        <path id="DejaVuSerif-36" d="M 2094 219 
Q 2534 219 2771 542 
Q 3009 866 3009 1472 
Q 3009 2078 2771 2401 
Q 2534 2725 2094 2725 
Q 1647 2725 1412 2412 
Q 1178 2100 1178 1509 
Q 1178 888 1415 553 
Q 1653 219 2094 219 
z
M 1075 2569 
Q 1288 2803 1556 2918 
Q 1825 3034 2163 3034 
Q 2859 3034 3264 2615 
Q 3669 2197 3669 1472 
Q 3669 763 3233 336 
Q 2797 -91 2069 -91 
Q 1278 -91 853 498 
Q 428 1088 428 2181 
Q 428 3406 931 4078 
Q 1434 4750 2350 4750 
Q 2597 4750 2869 4703 
Q 3141 4656 3425 4563 
L 3425 3794 
L 3072 3794 
Q 3034 4109 2831 4275 
Q 2628 4441 2284 4441 
Q 1678 4441 1381 3981 
Q 1084 3522 1075 2569 
z
" transform="scale(0.015625)"/>
       </defs>
       <use xlink:href="#DejaVuSerif-30"/>
       <use xlink:href="#DejaVuSerif-2e" transform="translate(63.623047 0)"/>
       <use xlink:href="#DejaVuSerif-36" transform="translate(95.410156 0)"/>
      </g>
     </g>
    </g>
    <g class="tick xtick">
     <g id="line2d_9">
      <path d="M 221.866094 293.6595 
L 221.866094 27.5475 
" clip-path="url(#pcb6c53d7cc)" style="fill: none; stroke: #b0b0b0; stroke-opacity: 0.15; stroke-width: 0.5; stroke-linecap: square"/>
     </g>
     <g id="line2d_10">
      <g>
       <use xlink:href="#med213893a6" x="221.866094" y="293.6595" style="stroke:var(--black); stroke-width: 0.8"/>
      </g>
     </g>
     <g id="text_5" class="text">
      <!-- 0.8 -->
      <g transform="translate(214.709688 307.498094) scale(0.09 -0.09)">
       <defs>
        <path id="DejaVuSerif-38" d="M 2981 1275 
Q 2981 1775 2732 2051 
Q 2484 2328 2034 2328 
Q 1584 2328 1336 2051 
Q 1088 1775 1088 1275 
Q 1088 772 1336 495 
Q 1584 219 2034 219 
Q 2484 219 2732 495 
Q 2981 772 2981 1275 
z
M 2853 3541 
Q 2853 3966 2637 4203 
Q 2422 4441 2034 4441 
Q 1650 4441 1433 4203 
Q 1216 3966 1216 3541 
Q 1216 3113 1433 2875 
Q 1650 2638 2034 2638 
Q 2422 2638 2637 2875 
Q 2853 3113 2853 3541 
z
M 2516 2484 
Q 3047 2413 3344 2092 
Q 3641 1772 3641 1275 
Q 3641 619 3225 264 
Q 2809 -91 2034 -91 
Q 1263 -91 845 264 
Q 428 619 428 1275 
Q 428 1772 725 2092 
Q 1022 2413 1556 2484 
Q 1084 2569 832 2842 
Q 581 3116 581 3541 
Q 581 4103 968 4426 
Q 1356 4750 2034 4750 
Q 2713 4750 3100 4426 
Q 3488 4103 3488 3541 
Q 3488 3116 3236 2842 
Q 2984 2569 2516 2484 
z
" transform="scale(0.015625)"/>
       </defs>
       <use xlink:href="#DejaVuSerif-30"/>
       <use xlink:href="#DejaVuSerif-2e" transform="translate(63.623047 0)"/>
       <use xlink:href="#DejaVuSerif-38" transform="translate(95.410156 0)"/>
      </g>
     </g>
    </g>
    <g class="tick xtick">
     <g id="line2d_11">
      <path d="M 267.946094 293.6595 
L 267.946094 27.5475 
" clip-path="url(#pcb6c53d7cc)" style="fill: none; stroke: #b0b0b0; stroke-opacity: 0.15; stroke-width: 0.5; stroke-linecap: square"/>
     </g>
     <g id="line2d_12">
      <g>
       <use xlink:href="#med213893a6" x="267.946094" y="293.6595" style="stroke:var(--black); stroke-width: 0.8"/>
      </g>
     </g>
     <g id="text_6" class="text">
      <!-- 1.0 -->
      <g transform="translate(260.789688 307.498094) scale(0.09 -0.09)">
       <defs>
        <path id="DejaVuSerif-31" d="M 909 0 
L 909 331 
L 1722 331 
L 1722 4213 
L 781 3603 
L 781 4013 
L 1919 4750 
L 2350 4750 
L 2350 331 
L 3163 331 
L 3163 0 
L 909 0 
z
" transform="scale(0.015625)"/>
       </defs>
       <use xlink:href="#DejaVuSerif-31"/>
       <use xlink:href="#DejaVuSerif-2e" transform="translate(63.623047 0)"/>
       <use xlink:href="#DejaVuSerif-30" transform="translate(95.410156 0)"/>
      </g>
     </g>
    </g>
    <g class="tick xtick">
     <g id="line2d_13">
      <path d="M 314.026094 293.6595 
L 314.026094 27.5475 
" clip-path="url(#pcb6c53d7cc)" style="fill: none; stroke: #b0b0b0; stroke-opacity: 0.15; stroke-width: 0.5; stroke-linecap: square"/>
     </g>
     <g id="line2d_14">
      <g>
       <use xlink:href="#med213893a6" x="314.026094" y="293.6595" style="stroke:var(--black); stroke-width: 0.8"/>
      </g>
     </g>
     <g id="text_7" class="text">
      <!-- 1.2 -->
      <g transform="translate(306.869688 307.498094) scale(0.09 -0.09)">
       <use xlink:href="#DejaVuSerif-31"/>
       <use xlink:href="#DejaVuSerif-2e" transform="translate(63.623047 0)"/>
       <use xlink:href="#DejaVuSerif-32" transform="translate(95.410156 0)"/>
      </g>
     </g>
    </g>
    <g class="tick xtick">
     <g id="line2d_15">
      <path d="M 360.106094 293.6595 
L 360.106094 27.5475 
" clip-path="url(#pcb6c53d7cc)" style="fill: none; stroke: #b0b0b0; stroke-opacity: 0.15; stroke-width: 0.5; stroke-linecap: square"/>
     </g>
     <g id="line2d_16">
      <g>
       <use xlink:href="#med213893a6" x="360.106094" y="293.6595" style="stroke:var(--black); stroke-width: 0.8"/>
      </g>
     </g>
     <g id="text_8" class="text">
      <!-- 1.4 -->
      <g transform="translate(352.949688 307.498094) scale(0.09 -0.09)">
       <use xlink:href="#DejaVuSerif-31"/>
       <use xlink:href="#DejaVuSerif-2e" transform="translate(63.623047 0)"/>
       <use xlink:href="#DejaVuSerif-34" transform="translate(95.410156 0)"/>
      </g>
     </g>
    </g>
    <g id="text_9" class="text">
     <!-- Time -->
     <g transform="translate(203.470938 320.96825) scale(0.1 -0.1)">
      <defs>
       <path id="DejaVuSerif-54" d="M 1222 0 
L 1222 331 
L 1819 331 
L 1819 4294 
L 447 4294 
L 447 3566 
L 63 3566 
L 63 4666 
L 4206 4666 
L 4206 3566 
L 3822 3566 
L 3822 4294 
L 2450 4294 
L 2450 331 
L 3047 331 
L 3047 0 
L 1222 0 
z
" transform="scale(0.015625)"/>
       <path id="DejaVuSerif-69" d="M 622 4353 
Q 622 4497 726 4603 
Q 831 4709 978 4709 
Q 1122 4709 1226 4603 
Q 1331 4497 1331 4353 
Q 1331 4206 1228 4103 
Q 1125 4000 978 4000 
Q 831 4000 726 4103 
Q 622 4206 622 4353 
z
M 1356 331 
L 1900 331 
L 1900 0 
L 231 0 
L 231 331 
L 781 331 
L 781 2988 
L 231 2988 
L 231 3322 
L 1356 3322 
L 1356 331 
z
" transform="scale(0.015625)"/>
       <path id="DejaVuSerif-6d" d="M 3316 2675 
Q 3481 3041 3739 3227 
Q 3997 3413 4341 3413 
Q 4863 3413 5119 3089 
Q 5375 2766 5375 2113 
L 5375 331 
L 5894 331 
L 5894 0 
L 4300 0 
L 4300 331 
L 4800 331 
L 4800 2047 
Q 4800 2556 4650 2772 
Q 4500 2988 4153 2988 
Q 3769 2988 3567 2697 
Q 3366 2406 3366 1850 
L 3366 331 
L 3866 331 
L 3866 0 
L 2291 0 
L 2291 331 
L 2791 331 
L 2791 2069 
Q 2791 2566 2641 2777 
Q 2491 2988 2144 2988 
Q 1759 2988 1557 2697 
Q 1356 2406 1356 1850 
L 1356 331 
L 1856 331 
L 1856 0 
L 263 0 
L 263 331 
L 781 331 
L 781 2994 
L 231 2994 
L 231 3322 
L 1356 3322 
L 1356 2731 
Q 1516 3063 1762 3238 
Q 2009 3413 2322 3413 
Q 2709 3413 2968 3220 
Q 3228 3028 3316 2675 
z
" transform="scale(0.015625)"/>
       <path id="DejaVuSerif-65" d="M 3469 1600 
L 991 1600 
L 991 1575 
Q 991 903 1244 561 
Q 1497 219 1991 219 
Q 2369 219 2611 417 
Q 2853 616 2950 1006 
L 3413 1006 
Q 3275 459 2904 184 
Q 2534 -91 1931 -91 
Q 1203 -91 761 389 
Q 319 869 319 1663 
Q 319 2450 753 2931 
Q 1188 3413 1894 3413 
Q 2647 3413 3050 2948 
Q 3453 2484 3469 1600 
z
M 2791 1931 
Q 2772 2513 2545 2808 
Q 2319 3103 1894 3103 
Q 1497 3103 1269 2806 
Q 1041 2509 991 1931 
L 2791 1931 
z
" transform="scale(0.015625)"/>
      </defs>
      <use xlink:href="#DejaVuSerif-54"/>
      <use xlink:href="#DejaVuSerif-69" transform="translate(66.699219 0)"/>
      <use xlink:href="#DejaVuSerif-6d" transform="translate(98.681641 0)"/>
      <use xlink:href="#DejaVuSerif-65" transform="translate(193.505859 0)"/>
     </g>
    </g>
   </g>
   <g class="axis">
    <g class="tick ytick">
     <g id="line2d_17">
      <path d="M 37.546094 257.930634 
L 394.666094 257.930634 
" clip-path="url(#pcb6c53d7cc)" style="fill: none; stroke: #b0b0b0; stroke-opacity: 0.15; stroke-width: 0.5; stroke-linecap: square"/>
     </g>
     <g id="line2d_18">
      <defs>
       <path id="m48059b1763" d="M 0 0 
L -3.5 0 
" style="stroke:var(--black); stroke-width: 0.8"/>
      </defs>
      <g>
       <use xlink:href="#m48059b1763" x="37.546094" y="257.930634" style="stroke:var(--black); stroke-width: 0.8"/>
      </g>
     </g>
     <g id="text_10" class="text">
      <!-- −3 -->
      <g transform="translate(17.278125 261.349931) scale(0.09 -0.09)">
       <defs>
        <path id="DejaVuSerif-2212" d="M 678 2259 
L 4684 2259 
L 4684 1753 
L 678 1753 
L 678 2259 
z
" transform="scale(0.015625)"/>
        <path id="DejaVuSerif-33" d="M 622 4469 
Q 988 4606 1323 4678 
Q 1659 4750 1953 4750 
Q 2638 4750 3022 4454 
Q 3406 4159 3406 3634 
Q 3406 3213 3140 2930 
Q 2875 2647 2388 2547 
Q 2963 2466 3280 2130 
Q 3597 1794 3597 1259 
Q 3597 606 3158 257 
Q 2719 -91 1894 -91 
Q 1528 -91 1179 -12 
Q 831 66 488 225 
L 488 1131 
L 838 1131 
Q 869 681 1141 450 
Q 1413 219 1906 219 
Q 2384 219 2661 495 
Q 2938 772 2938 1253 
Q 2938 1803 2653 2086 
Q 2369 2369 1819 2369 
L 1522 2369 
L 1522 2688 
L 1678 2688 
Q 2225 2688 2498 2914 
Q 2772 3141 2772 3597 
Q 2772 4006 2547 4223 
Q 2322 4441 1900 4441 
Q 1478 4441 1245 4241 
Q 1013 4041 972 3647 
L 622 3647 
L 622 4469 
z
" transform="scale(0.015625)"/>
       </defs>
       <use xlink:href="#DejaVuSerif-2212"/>
       <use xlink:href="#DejaVuSerif-33" transform="translate(83.789062 0)"/>
      </g>
     </g>
    </g>
    <g class="tick ytick">
     <g id="line2d_19">
      <path d="M 37.546094 213.044553 
L 394.666094 213.044553 
" clip-path="url(#pcb6c53d7cc)" style="fill: none; stroke: #b0b0b0; stroke-opacity: 0.15; stroke-width: 0.5; stroke-linecap: square"/>
     </g>
     <g id="line2d_20">
      <g>
       <use xlink:href="#m48059b1763" x="37.546094" y="213.044553" style="stroke:var(--black); stroke-width: 0.8"/>
      </g>
     </g>
     <g id="text_11" class="text">
      <!-- −2 -->
      <g transform="translate(17.278125 216.46385) scale(0.09 -0.09)">
       <use xlink:href="#DejaVuSerif-2212"/>
       <use xlink:href="#DejaVuSerif-32" transform="translate(83.789062 0)"/>
      </g>
     </g>
    </g>
    <g class="tick ytick">
     <g id="line2d_21">
      <path d="M 37.546094 168.158472 
L 394.666094 168.158472 
" clip-path="url(#pcb6c53d7cc)" style="fill: none; stroke: #b0b0b0; stroke-opacity: 0.15; stroke-width: 0.5; stroke-linecap: square"/>
     </g>
     <g id="line2d_22">
      <g>
       <use xlink:href="#m48059b1763" x="37.546094" y="168.158472" style="stroke:var(--black); stroke-width: 0.8"/>
      </g>
     </g>
     <g id="text_12" class="text">
      <!-- −1 -->
      <g transform="translate(17.278125 171.577769) scale(0.09 -0.09)">
       <use xlink:href="#DejaVuSerif-2212"/>
       <use xlink:href="#DejaVuSerif-31" transform="translate(83.789062 0)"/>
      </g>
     </g>
    </g>
    <g class="tick ytick">
     <g id="line2d_23">
      <path d="M 37.546094 123.272391 
L 394.666094 123.272391 
" clip-path="url(#pcb6c53d7cc)" style="fill: none; stroke: #b0b0b0; stroke-opacity: 0.15; stroke-width: 0.5; stroke-linecap: square"/>
     </g>
     <g id="line2d_24">
      <g>
       <use xlink:href="#m48059b1763" x="37.546094" y="123.272391" style="stroke:var(--black); stroke-width: 0.8"/>
      </g>
     </g>
     <g id="text_13" class="text">
      <!-- 0 -->
      <g transform="translate(24.819844 126.691688) scale(0.09 -0.09)">
       <use xlink:href="#DejaVuSerif-30"/>
      </g>
     </g>
    </g>
    <g class="tick ytick">
     <g id="line2d_25">
      <path d="M 37.546094 78.38631 
L 394.666094 78.38631 
" clip-path="url(#pcb6c53d7cc)" style="fill: none; stroke: #b0b0b0; stroke-opacity: 0.15; stroke-width: 0.5; stroke-linecap: square"/>
     </g>
     <g id="line2d_26">
      <g>
       <use xlink:href="#m48059b1763" x="37.546094" y="78.38631" style="stroke:var(--black); stroke-width: 0.8"/>
      </g>
     </g>
     <g id="text_14" class="text">
      <!-- 1 -->
      <g transform="translate(24.819844 81.805607) scale(0.09 -0.09)">
       <use xlink:href="#DejaVuSerif-31"/>
      </g>
     </g>
    </g>
    <g class="tick ytick">
     <g id="line2d_27">
      <path d="M 37.546094 33.500229 
L 394.666094 33.500229 
" clip-path="url(#pcb6c53d7cc)" style="fill: none; stroke: #b0b0b0; stroke-opacity: 0.15; stroke-width: 0.5; stroke-linecap: square"/>
     </g>
     <g id="line2d_28">
      <g>
       <use xlink:href="#m48059b1763" x="37.546094" y="33.500229" style="stroke:var(--black); stroke-width: 0.8"/>
      </g>
     </g>
     <g id="text_15" class="text">
      <!-- 2 -->
      <g transform="translate(24.819844 36.919526) scale(0.09 -0.09)">
       <use xlink:href="#DejaVuSerif-32"/>
      </g>
     </g>
    </g>
    <g id="text_16" class="text">
     <!-- Value -->
     <g transform="translate(11.198437 174.518344) rotate(-90) scale(0.1 -0.1)">
      <defs>
       <path id="DejaVuSerif-56" d="M 1119 4331 
L 2497 750 
L 3872 4331 
L 3347 4331 
L 3347 4666 
L 4716 4666 
L 4716 4331 
L 4263 4331 
L 2597 0 
L 2059 0 
L 403 4331 
L -63 4331 
L -63 4666 
L 1638 4666 
L 1638 4331 
L 1119 4331 
z
" transform="scale(0.015625)"/>
       <path id="DejaVuSerif-61" d="M 2547 1044 
L 2547 1747 
L 1806 1747 
Q 1378 1747 1168 1562 
Q 959 1378 959 997 
Q 959 650 1171 447 
Q 1384 244 1747 244 
Q 2106 244 2326 466 
Q 2547 688 2547 1044 
z
M 3122 2075 
L 3122 331 
L 3634 331 
L 3634 0 
L 2547 0 
L 2547 359 
Q 2356 128 2106 18 
Q 1856 -91 1522 -91 
Q 969 -91 644 203 
Q 319 497 319 997 
Q 319 1513 691 1797 
Q 1063 2081 1741 2081 
L 2547 2081 
L 2547 2309 
Q 2547 2688 2317 2895 
Q 2088 3103 1672 3103 
Q 1328 3103 1125 2947 
Q 922 2791 872 2484 
L 575 2484 
L 575 3156 
Q 875 3284 1158 3348 
Q 1441 3413 1709 3413 
Q 2400 3413 2761 3070 
Q 3122 2728 3122 2075 
z
" transform="scale(0.015625)"/>
       <path id="DejaVuSerif-6c" d="M 1313 331 
L 1856 331 
L 1856 0 
L 184 0 
L 184 331 
L 738 331 
L 738 4531 
L 184 4531 
L 184 4863 
L 1313 4863 
L 1313 331 
z
" transform="scale(0.015625)"/>
       <path id="DejaVuSerif-75" d="M 2266 3322 
L 3341 3322 
L 3341 331 
L 3884 331 
L 3884 0 
L 2766 0 
L 2766 588 
Q 2606 256 2353 82 
Q 2100 -91 1766 -91 
Q 1213 -91 952 223 
Q 691 538 691 1209 
L 691 2988 
L 172 2988 
L 172 3322 
L 1269 3322 
L 1269 1388 
Q 1269 781 1417 556 
Q 1566 331 1947 331 
Q 2347 331 2556 625 
Q 2766 919 2766 1478 
L 2766 2988 
L 2266 2988 
L 2266 3322 
z
" transform="scale(0.015625)"/>
      </defs>
      <use xlink:href="#DejaVuSerif-56"/>
      <use xlink:href="#DejaVuSerif-61" transform="translate(63.091797 0)"/>
      <use xlink:href="#DejaVuSerif-6c" transform="translate(122.710938 0)"/>
      <use xlink:href="#DejaVuSerif-75" transform="translate(154.693359 0)"/>
      <use xlink:href="#DejaVuSerif-65" transform="translate(219.097656 0)"/>
     </g>
    </g>
   </g>
   <g id="FillBetweenPolyCollection_1">
    <defs>
     <path id="m6290ad056b" d="M 314.098974 -33.168182 
L 314.026094 -33.168182 
L 314.026094 -35.856182 
L 314.026094 -38.544182 
L 314.026094 -41.232182 
L 314.026094 -43.920182 
L 314.026094 -46.608182 
L 314.026094 -49.296182 
L 314.026094 -51.984182 
L 314.026094 -54.672182 
L 314.026094 -57.360182 
L 314.026094 -60.048182 
L 314.026094 -62.736182 
L 314.026094 -65.424182 
L 314.026094 -68.112182 
L 314.026094 -70.800182 
L 314.026094 -73.488182 
L 314.026094 -76.176182 
L 314.026094 -78.864182 
L 314.026094 -81.552182 
L 314.026094 -84.240182 
L 314.026094 -86.928182 
L 314.026094 -89.616182 
L 314.026094 -92.304182 
L 314.026094 -94.992182 
L 314.026094 -97.680182 
L 314.026094 -100.368182 
L 314.026094 -103.056182 
L 314.026094 -105.744182 
L 314.026094 -108.432182 
L 314.026094 -111.120182 
L 314.026094 -113.808182 
L 314.026094 -116.496182 
L 314.026094 -119.184182 
L 314.026094 -121.872182 
L 314.026094 -124.560182 
L 314.026094 -127.248182 
L 314.026094 -129.936182 
L 314.026094 -132.624182 
L 314.026094 -135.312182 
L 314.026094 -138.000182 
L 314.026094 -140.688182 
L 314.026094 -143.376182 
L 314.026094 -146.064182 
L 314.026094 -148.752182 
L 314.026094 -151.440182 
L 314.026094 -154.128182 
L 314.026094 -156.816182 
L 314.026094 -159.504182 
L 314.026094 -162.192182 
L 314.026094 -164.880182 
L 314.026094 -167.568182 
L 314.026094 -170.256182 
L 314.026094 -172.944182 
L 314.026094 -175.632182 
L 314.026094 -178.320182 
L 314.026094 -181.008182 
L 314.026094 -183.696182 
L 314.026094 -186.384182 
L 314.026094 -189.072182 
L 314.026094 -191.760182 
L 314.026094 -194.448182 
L 314.026094 -197.136182 
L 314.026094 -199.824182 
L 314.026094 -202.512182 
L 314.026094 -205.200182 
L 314.026094 -207.888182 
L 314.026094 -210.576182 
L 314.026094 -213.264182 
L 314.026094 -215.952182 
L 314.026094 -218.640182 
L 314.026094 -221.328182 
L 314.026094 -224.016182 
L 314.026094 -226.704182 
L 314.026094 -229.392182 
L 314.026094 -232.080182 
L 314.026094 -234.768182 
L 314.026094 -237.456182 
L 314.026094 -240.144182 
L 314.026094 -242.832182 
L 314.026094 -245.520182 
L 314.026094 -248.208182 
L 314.026094 -250.896182 
L 314.026094 -253.584182 
L 314.026094 -256.272182 
L 314.026094 -258.960182 
L 314.026094 -261.648182 
L 314.026094 -264.336182 
L 314.026094 -267.024182 
L 314.026094 -269.712182 
L 314.026094 -272.400182 
L 314.026094 -275.088182 
L 314.026094 -277.776182 
L 314.026094 -280.464182 
L 314.026094 -283.152182 
L 314.026094 -285.840182 
L 314.026094 -288.528182 
L 314.026094 -291.216182 
L 314.026094 -293.904182 
L 314.026094 -296.592182 
L 314.026094 -299.280182 
L 314.054252 -299.280182 
L 314.054252 -299.280182 
L 314.064198 -296.592182 
L 314.077349 -293.904182 
L 314.094629 -291.216182 
L 314.117188 -288.528182 
L 314.146452 -285.840182 
L 314.184168 -283.152182 
L 314.232466 -280.464182 
L 314.293916 -277.776182 
L 314.371591 -275.088182 
L 314.469139 -272.400182 
L 314.590843 -269.712182 
L 314.741688 -267.024182 
L 314.927421 -264.336182 
L 315.154596 -261.648182 
L 315.430609 -258.960182 
L 315.763714 -256.272182 
L 316.16301 -253.584182 
L 316.638401 -250.896182 
L 317.200519 -248.208182 
L 317.860608 -245.520182 
L 318.630353 -242.832182 
L 319.521672 -240.144182 
L 320.546449 -237.456182 
L 321.716218 -234.768182 
L 323.041798 -232.080182 
L 324.532886 -229.392182 
L 326.197616 -226.704182 
L 328.042085 -224.016182 
L 330.069884 -221.328182 
L 332.28162 -218.640182 
L 334.674473 -215.952182 
L 337.241794 -213.264182 
L 339.972775 -210.576182 
L 342.852206 -207.888182 
L 345.860338 -205.200182 
L 348.972879 -202.512182 
L 352.161128 -199.824182 
L 355.392259 -197.136182 
L 358.629765 -194.448182 
L 361.834049 -191.760182 
L 364.963162 -189.072182 
L 367.973671 -186.384182 
L 370.821624 -183.696182 
L 373.463602 -181.008182 
L 375.857802 -178.320182 
L 377.965134 -175.632182 
L 379.750277 -172.944182 
L 381.182664 -170.256182 
L 382.237347 -167.568182 
L 382.895727 -164.880182 
L 383.146094 -162.192182 
L 382.983975 -159.504182 
L 382.412267 -156.816182 
L 381.441152 -154.128182 
L 380.087794 -151.440182 
L 378.375834 -148.752182 
L 376.334704 -146.064182 
L 373.998787 -143.376182 
L 371.406452 -140.688182 
L 368.599012 -138.000182 
L 365.619632 -135.312182 
L 362.512241 -132.624182 
L 359.320466 -129.936182 
L 356.086653 -127.248182 
L 352.850968 -124.560182 
L 349.650635 -121.872182 
L 346.519312 -119.184182 
L 343.486613 -116.496182 
L 340.577791 -113.808182 
L 337.813571 -111.120182 
L 335.21013 -108.432182 
L 332.779201 -105.744182 
L 330.5283 -103.056182 
L 328.461033 -100.368182 
L 326.577494 -97.680182 
L 324.874691 -94.992182 
L 323.347023 -92.304182 
L 321.986753 -89.616182 
L 320.784482 -86.928182 
L 319.729593 -84.240182 
L 318.810675 -81.552182 
L 318.015889 -78.864182 
L 317.333302 -76.176182 
L 316.751158 -73.488182 
L 316.258103 -70.800182 
L 315.843365 -68.112182 
L 315.496873 -65.424182 
L 315.209352 -62.736182 
L 314.972365 -60.048182 
L 314.778333 -57.360182 
L 314.620524 -54.672182 
L 314.493022 -51.984182 
L 314.390682 -49.296182 
L 314.309077 -46.608182 
L 314.244428 -43.920182 
L 314.193545 -41.232182 
L 314.153755 -38.544182 
L 314.122839 -35.856182 
L 314.098974 -33.168182 
z
" style="stroke: #0000ff; stroke-opacity: 0.3"/>
    </defs>
    <g clip-path="url(#pcb6c53d7cc)">
     <use xlink:href="#m6290ad056b" x="0" y="326.827682" style="fill: #0000ff; fill-opacity: 0.3; stroke: #0000ff; stroke-opacity: 0.3"/>
    </g>
   </g>
   <g id="line2d_29">
    <path d="M 37.546094 123.272391 
L 39.850094 121.042836 
L 42.154094 121.66345 
L 44.458094 118.75623 
L 46.762094 111.919946 
L 49.066094 112.970969 
L 51.370094 114.021918 
L 53.674094 106.933451 
L 55.978094 103.488737 
L 58.282094 105.596023 
L 60.586094 103.160684 
L 62.890094 105.240784 
L 65.194094 107.331263 
L 67.498094 106.245189 
L 69.802094 114.833154 
L 72.106094 122.575634 
L 74.410094 125.099523 
L 76.714094 129.645725 
L 79.018094 128.235191 
L 81.322094 132.310956 
L 83.626094 138.650234 
L 85.930094 132.071511 
L 88.234094 133.084932 
L 90.538094 132.781824 
L 92.842094 139.176961 
L 95.146094 141.620481 
L 97.450094 141.122593 
L 99.754094 146.288952 
L 102.058094 144.602591 
L 104.362094 147.298623 
L 106.666094 148.607922 
L 108.970094 151.308747 
L 111.274094 142.994596 
L 113.578094 143.05518 
L 115.882094 147.80283 
L 118.186094 144.110748 
L 120.490094 149.590637 
L 122.794094 148.65313 
L 125.098094 157.449321 
L 127.402094 163.411028 
L 129.706094 162.527395 
L 132.010094 159.212708 
L 134.314094 158.443503 
L 136.618094 158.962602 
L 138.922094 160.314139 
L 141.226094 166.950645 
L 143.530094 170.181743 
L 145.834094 172.24937 
L 148.138094 167.504363 
L 150.442094 165.961995 
L 152.746094 173.875591 
L 155.050094 172.420905 
L 157.354094 174.149389 
L 159.658094 177.187826 
L 161.962094 174.442251 
L 164.266094 169.814498 
L 166.570094 165.634347 
L 168.874094 169.401265 
L 171.178094 170.789199 
L 173.482094 169.302287 
L 175.786094 164.923447 
" clip-path="url(#pcb6c53d7cc)" style="fill: none; stroke: #ff0001; stroke-width: 2.5; stroke-linecap: square"/>
   </g>
   <g id="line2d_30">
    <path d="M 175.786094 164.923447 
L 178.090094 172.777459 
L 180.394094 171.239301 
L 182.698094 166.063775 
L 185.002094 167.196861 
L 187.306094 162.792097 
L 189.610094 160.48397 
L 191.914094 159.491181 
L 194.218094 164.294186 
L 196.522094 165.144759 
L 198.826094 164.000157 
L 201.130094 166.056061 
L 203.434094 164.102782 
L 205.738094 166.722312 
L 208.042094 163.055806 
L 210.346094 160.036225 
L 212.650094 160.504886 
L 214.954094 162.889596 
L 217.258094 158.267529 
L 219.562094 160.234148 
L 221.866094 165.253841 
L 224.170094 157.986866 
L 226.474094 151.067205 
L 228.778094 152.197792 
L 231.082094 155.979155 
L 233.386094 155.150923 
L 235.690094 150.944729 
L 237.994094 147.663555 
L 240.298094 141.552063 
L 242.602094 143.016418 
L 244.906094 142.76651 
L 247.210094 141.768245 
L 249.514094 148.246281 
L 251.818094 151.64125 
L 254.122094 147.976508 
L 256.426094 144.608055 
L 258.730094 146.654622 
L 261.034094 141.314874 
L 263.338094 148.90339 
L 265.642094 154.991734 
L 267.946094 160.52365 
L 270.250094 162.967424 
L 272.554094 165.966585 
L 274.858094 165.933753 
L 277.162094 168.684994 
L 279.466094 162.850935 
L 281.770094 170.630122 
L 284.074094 175.043815 
L 286.378094 173.439103 
L 288.682094 180.681825 
L 290.986094 174.080367 
L 293.290094 179.412912 
L 295.594094 181.880507 
L 297.898094 186.100006 
L 300.202094 189.81627 
L 302.506094 189.327624 
L 304.810094 187.048266 
L 307.114094 190.918467 
L 309.418094 185.310087 
L 311.722094 185.667431 
L 314.026094 189.661086 
" clip-path="url(#pcb6c53d7cc)" style="fill: none; stroke: #00ff02; stroke-opacity: 0.3; stroke-linecap: square"/>
   </g>
   <g id="line2d_31">
    <path d="M 175.786094 164.923447 
L 178.090094 152.773459 
L 180.394094 149.954017 
L 182.698094 145.878498 
L 185.002094 143.617022 
L 187.306094 140.694409 
L 189.610094 142.127702 
L 191.914094 145.934388 
L 194.218094 143.214447 
L 196.522094 152.273213 
L 198.826094 148.951095 
L 201.130094 146.577459 
L 203.434094 149.221251 
L 205.738094 148.374272 
L 208.042094 151.780551 
L 210.346094 155.969487 
L 212.650094 151.682613 
L 214.954094 150.826212 
L 217.258094 141.944346 
L 219.562094 130.24718 
L 221.866094 127.179176 
L 224.170094 125.82063 
L 226.474094 118.218171 
L 228.778094 125.876122 
L 231.082094 131.078955 
L 233.386094 131.684202 
L 235.690094 129.931276 
L 237.994094 129.182106 
L 240.298094 128.35395 
L 242.602094 124.728475 
L 244.906094 124.400987 
L 247.210094 121.533723 
L 249.514094 120.05407 
L 251.818094 122.285375 
L 254.122094 125.670098 
L 256.426094 129.90468 
L 258.730094 127.72882 
L 261.034094 128.252969 
L 263.338094 119.716737 
L 265.642094 118.647879 
L 267.946094 109.685689 
L 270.250094 114.14406 
L 272.554094 113.260704 
L 274.858094 118.362656 
L 277.162094 118.361011 
L 279.466094 113.75577 
L 281.770094 114.458677 
L 284.074094 114.600423 
L 286.378094 111.68361 
L 288.682094 102.011348 
L 290.986094 104.750561 
L 293.290094 108.140921 
L 295.594094 109.695858 
L 297.898094 109.035912 
L 300.202094 111.187966 
L 302.506094 108.67987 
L 304.810094 104.079898 
L 307.114094 108.235785 
L 309.418094 99.874117 
L 311.722094 104.963378 
L 314.026094 102.223182 
" clip-path="url(#pcb6c53d7cc)" style="fill: none; stroke: #00ff02; stroke-opacity: 0.3; stroke-linecap: square"/>
   </g>
   <g id="line2d_32">
    <path d="M 175.786094 164.923447 
L 178.090094 157.436142 
L 180.394094 153.280311 
L 182.698094 148.531379 
L 185.002094 152.66242 
L 187.306094 146.828358 
L 189.610094 145.341807 
L 191.914094 147.630302 
L 194.218094 151.683959 
L 196.522094 152.267551 
L 198.826094 162.31397 
L 201.130094 157.945814 
L 203.434094 158.05437 
L 205.738094 160.231021 
L 208.042094 165.210074 
L 210.346094 167.719092 
L 212.650094 163.040228 
L 214.954094 170.725904 
L 217.258094 170.114915 
L 219.562094 172.199622 
L 221.866094 171.970793 
L 224.170094 165.471744 
L 226.474094 162.809377 
L 228.778094 166.20104 
L 231.082094 169.01614 
L 233.386094 165.048054 
L 235.690094 164.317678 
L 237.994094 175.551824 
L 240.298094 173.707944 
L 242.602094 170.436869 
L 244.906094 170.30607 
L 247.210094 171.612491 
L 249.514094 170.201752 
L 251.818094 165.725759 
L 254.122094 150.336283 
L 256.426094 152.933245 
L 258.730094 153.849653 
L 261.034094 162.230642 
L 263.338094 155.751632 
L 265.642094 153.941017 
L 267.946094 157.041593 
L 270.250094 151.779654 
L 272.554094 158.831833 
L 274.858094 155.232004 
L 277.162094 157.799366 
L 279.466094 150.82679 
L 281.770094 147.679289 
L 284.074094 143.123384 
L 286.378094 143.653229 
L 288.682094 148.428618 
L 290.986094 143.146912 
L 293.290094 137.097977 
L 295.594094 140.663278 
L 297.898094 146.408441 
L 300.202094 143.909396 
L 302.506094 144.126661 
L 304.810094 143.074692 
L 307.114094 147.489943 
L 309.418094 142.583872 
L 311.722094 148.200449 
L 314.026094 141.550128 
" clip-path="url(#pcb6c53d7cc)" style="fill: none; stroke: #00ff02; stroke-opacity: 0.3; stroke-linecap: square"/>
   </g>
   <g id="line2d_33">
    <path d="M 175.786094 164.923447 
L 178.090094 170.530968 
L 180.394094 171.699494 
L 182.698094 169.976796 
L 185.002094 171.706982 
L 187.306094 176.577735 
L 189.610094 166.131761 
L 191.914094 164.1981 
L 194.218094 162.257604 
L 196.522094 166.656491 
L 198.826094 169.493135 
L 201.130094 166.901224 
L 203.434094 167.461212 
L 205.738094 163.067099 
L 208.042094 155.908121 
L 210.346094 161.303179 
L 212.650094 167.48116 
L 214.954094 162.748616 
L 217.258094 162.923014 
L 219.562094 159.869478 
L 221.866094 153.903333 
L 224.170094 148.142431 
L 226.474094 156.034543 
L 228.778094 153.277164 
L 231.082094 146.470827 
L 233.386094 147.350493 
L 235.690094 151.018611 
L 237.994094 155.265408 
L 240.298094 154.275046 
L 242.602094 156.971504 
L 244.906094 157.656313 
L 247.210094 162.98628 
L 249.514094 161.643565 
L 251.818094 165.897707 
L 254.122094 174.171926 
L 256.426094 170.533509 
L 258.730094 173.910094 
L 261.034094 175.869233 
L 263.338094 175.657026 
L 265.642094 176.782893 
L 267.946094 176.032903 
L 270.250094 173.045079 
L 272.554094 165.42717 
L 274.858094 160.697593 
L 277.162094 159.384137 
L 279.466094 163.08499 
L 281.770094 162.631575 
L 284.074094 161.515143 
L 286.378094 153.815779 
L 288.682094 155.509292 
L 290.986094 164.929319 
L 293.290094 167.635745 
L 295.594094 169.964917 
L 297.898094 179.89707 
L 300.202094 181.719693 
L 302.506094 183.050548 
L 304.810094 181.830823 
L 307.114094 183.890588 
L 309.418094 181.808422 
L 311.722094 186.420821 
L 314.026094 185.647656 
" clip-path="url(#pcb6c53d7cc)" style="fill: none; stroke: #00ff02; stroke-opacity: 0.3; stroke-linecap: square"/>
   </g>
   <g id="line2d_34">
    <path d="M 175.786094 164.923447 
L 178.090094 166.800642 
L 180.394094 169.23317 
L 182.698094 171.961839 
L 185.002094 167.798356 
L 187.306094 165.273909 
L 189.610094 168.189411 
L 191.914094 158.438283 
L 194.218094 159.351091 
L 196.522094 160.773013 
L 198.826094 160.473024 
L 201.130094 156.001095 
L 203.434094 158.39634 
L 205.738094 165.278992 
L 208.042094 166.813201 
L 210.346094 163.616965 
L 212.650094 164.225046 
L 214.954094 161.953955 
L 217.258094 164.866336 
L 219.562094 163.260233 
L 221.866094 166.844256 
L 224.170094 162.311099 
L 226.474094 156.52954 
L 228.778094 163.784965 
L 231.082094 165.967191 
L 233.386094 168.87043 
L 235.690094 171.787076 
L 237.994094 176.122061 
L 240.298094 175.869409 
L 242.602094 170.33906 
L 244.906094 163.060994 
L 247.210094 163.766637 
L 249.514094 162.402057 
L 251.818094 155.371961 
L 254.122094 150.134014 
L 256.426094 152.445081 
L 258.730094 153.428193 
L 261.034094 149.967901 
L 263.338094 147.972688 
L 265.642094 152.592166 
L 267.946094 155.922449 
L 270.250094 151.596254 
L 272.554094 154.820043 
L 274.858094 158.024776 
L 277.162094 158.580924 
L 279.466094 159.959399 
L 281.770094 163.906534 
L 284.074094 166.497006 
L 286.378094 167.512821 
L 288.682094 170.67118 
L 290.986094 168.828225 
L 293.290094 178.899888 
L 295.594094 176.422602 
L 297.898094 172.350307 
L 300.202094 169.825289 
L 302.506094 179.70864 
L 304.810094 182.762655 
L 307.114094 182.522449 
L 309.418094 178.208854 
L 311.722094 177.378464 
L 314.026094 177.696552 
" clip-path="url(#pcb6c53d7cc)" style="fill: none; stroke: #00ff02; stroke-opacity: 0.3; stroke-linecap: square"/>
   </g>
   <g id="line2d_35">
    <path d="M 175.786094 164.923447 
L 178.090094 166.024618 
L 180.394094 168.777716 
L 182.698094 172.039892 
L 185.002094 171.773421 
L 187.306094 167.259765 
L 189.610094 167.834934 
L 191.914094 174.720425 
L 194.218094 172.607592 
L 196.522094 175.100166 
L 198.826094 176.019057 
L 201.130094 168.367045 
L 203.434094 156.81406 
L 205.738094 154.320026 
L 208.042094 150.052933 
L 210.346094 156.362182 
L 212.650094 149.986913 
L 214.954094 155.763277 
L 217.258094 155.125114 
L 219.562094 152.028797 
L 221.866094 153.385605 
L 224.170094 160.455525 
L 226.474094 159.131446 
L 228.778094 155.115588 
L 231.082094 162.882658 
L 233.386094 163.296738 
L 235.690094 156.805169 
L 237.994094 148.567462 
L 240.298094 141.602971 
L 242.602094 138.832896 
L 244.906094 135.865875 
L 247.210094 135.2341 
L 249.514094 125.855115 
L 251.818094 131.631671 
L 254.122094 130.989016 
L 256.426094 128.157681 
L 258.730094 126.938562 
L 261.034094 132.944829 
L 263.338094 132.269849 
L 265.642094 131.604996 
L 267.946094 135.428413 
L 270.250094 136.989696 
L 272.554094 135.510987 
L 274.858094 138.559766 
L 277.162094 137.374222 
L 279.466094 128.651424 
L 281.770094 133.499848 
L 284.074094 134.190022 
L 286.378094 127.213829 
L 288.682094 131.496844 
L 290.986094 135.247408 
L 293.290094 134.183233 
L 295.594094 135.864817 
L 297.898094 129.513642 
L 300.202094 128.981849 
L 302.506094 124.786991 
L 304.810094 131.579153 
L 307.114094 142.225241 
L 309.418094 136.871828 
L 311.722094 139.664408 
L 314.026094 145.533866 
" clip-path="url(#pcb6c53d7cc)" style="fill: none; stroke: #00ff02; stroke-opacity: 0.6; stroke-linecap: square"/>
   </g>
   <g id="line2d_36">
    <path d="M 175.786094 164.923447 
L 178.090094 155.205903 
L 180.394094 159.65255 
L 182.698094 157.627046 
L 185.002094 154.640999 
L 187.306094 159.908898 
L 189.610094 162.611209 
L 191.914094 161.467798 
L 194.218094 160.664959 
L 196.522094 153.566002 
L 198.826094 153.287104 
L 201.130094 159.887184 
L 203.434094 160.234056 
L 205.738094 153.253665 
L 208.042094 162.103447 
L 210.346094 160.740262 
L 212.650094 171.725132 
L 214.954094 166.386789 
L 217.258094 164.592508 
L 219.562094 167.69253 
L 221.866094 171.828985 
L 224.170094 180.9739 
L 226.474094 185.103047 
L 228.778094 186.285549 
L 231.082094 188.335883 
L 233.386094 185.64748 
L 235.690094 188.093232 
L 237.994094 188.358444 
L 240.298094 184.852105 
L 242.602094 184.385951 
L 244.906094 185.99196 
L 247.210094 188.518198 
L 249.514094 184.887919 
L 251.818094 190.87293 
L 254.122094 190.403848 
L 256.426094 188.89762 
L 258.730094 199.067027 
L 261.034094 193.712723 
L 263.338094 192.133961 
L 265.642094 191.624374 
L 267.946094 193.361473 
L 270.250094 186.206712 
L 272.554094 185.37954 
L 274.858094 177.968015 
L 277.162094 188.429579 
L 279.466094 186.751856 
L 281.770094 193.380318 
L 284.074094 190.512774 
L 286.378094 195.101986 
L 288.682094 196.603022 
L 290.986094 202.911554 
L 293.290094 212.892815 
L 295.594094 207.807497 
L 297.898094 214.746464 
L 300.202094 213.136871 
L 302.506094 214.996558 
L 304.810094 220.222842 
L 307.114094 219.413702 
L 309.418094 220.765603 
L 311.722094 224.72924 
L 314.026094 227.1315 
" clip-path="url(#pcb6c53d7cc)" style="fill: none; stroke: #00ff02; stroke-opacity: 0.6; stroke-linecap: square"/>
   </g>
   <g id="line2d_37">
    <path d="M 175.786094 164.923447 
L 178.090094 162.706111 
L 180.394094 165.641561 
L 182.698094 172.262157 
L 185.002094 170.734295 
L 187.306094 174.969923 
L 189.610094 176.904711 
L 191.914094 178.45 
L 194.218094 178.971953 
L 196.522094 176.38685 
L 198.826094 182.917689 
L 201.130094 186.831119 
L 203.434094 183.984536 
L 205.738094 190.596161 
L 208.042094 190.69168 
L 210.346094 188.121804 
L 212.650094 185.783666 
L 214.954094 185.316933 
L 217.258094 189.202069 
L 219.562094 189.554089 
L 221.866094 193.281455 
L 224.170094 194.347189 
L 226.474094 205.160441 
L 228.778094 212.732874 
L 231.082094 213.548823 
L 233.386094 209.908145 
L 235.690094 210.515205 
L 237.994094 206.253403 
L 240.298094 205.982994 
L 242.602094 195.303429 
L 244.906094 192.112319 
L 247.210094 186.691927 
L 249.514094 191.682921 
L 251.818094 183.375769 
L 254.122094 181.492412 
L 256.426094 179.261166 
L 258.730094 180.532485 
L 261.034094 178.125856 
L 263.338094 178.888927 
L 265.642094 171.989396 
L 267.946094 167.307688 
L 270.250094 166.181676 
L 272.554094 168.303835 
L 274.858094 171.975607 
L 277.162094 173.326337 
L 279.466094 167.110416 
L 281.770094 168.453588 
L 284.074094 175.715334 
L 286.378094 174.686558 
L 288.682094 180.561245 
L 290.986094 187.563857 
L 293.290094 189.488407 
L 295.594094 194.056758 
L 297.898094 194.267626 
L 300.202094 197.40236 
L 302.506094 202.490162 
L 304.810094 200.632384 
L 307.114094 203.37988 
L 309.418094 204.174733 
L 311.722094 197.791237 
L 314.026094 197.407001 
" clip-path="url(#pcb6c53d7cc)" style="fill: none; stroke: #00ff02; stroke-opacity: 0.6; stroke-linecap: square"/>
   </g>
   <g id="line2d_38">
    <path d="M 175.786094 164.923447 
L 178.090094 169.532819 
L 180.394094 168.537473 
L 182.698094 163.463595 
L 185.002094 158.318818 
L 187.306094 160.97937 
L 189.610094 160.446195 
L 191.914094 162.620613 
L 194.218094 171.350564 
L 196.522094 170.937264 
L 198.826094 166.887781 
L 201.130094 160.987647 
L 203.434094 157.526471 
L 205.738094 159.950981 
L 208.042094 161.226263 
L 210.346094 165.218122 
L 212.650094 163.403964 
L 214.954094 168.542575 
L 217.258094 166.094506 
L 219.562094 159.567756 
L 221.866094 154.073804 
L 224.170094 153.080913 
L 226.474094 144.97157 
L 228.778094 143.333055 
L 231.082094 144.192484 
L 233.386094 142.499086 
L 235.690094 143.255483 
L 237.994094 143.712111 
L 240.298094 139.201536 
L 242.602094 135.907019 
L 244.906094 136.339953 
L 247.210094 130.548189 
L 249.514094 123.372134 
L 251.818094 129.680423 
L 254.122094 129.451672 
L 256.426094 133.61068 
L 258.730094 133.642166 
L 261.034094 131.057015 
L 263.338094 128.307455 
L 265.642094 131.13893 
L 267.946094 133.234656 
L 270.250094 134.572449 
L 272.554094 128.510182 
L 274.858094 122.343275 
L 277.162094 126.265832 
L 279.466094 120.237402 
L 281.770094 114.749483 
L 284.074094 107.181334 
L 286.378094 105.18301 
L 288.682094 99.868646 
L 290.986094 94.0755 
L 293.290094 95.313898 
L 295.594094 96.648188 
L 297.898094 97.49839 
L 300.202094 102.187536 
L 302.506094 104.913737 
L 304.810094 99.566589 
L 307.114094 94.295086 
L 309.418094 101.52723 
L 311.722094 104.488337 
L 314.026094 105.26033 
" clip-path="url(#pcb6c53d7cc)" style="fill: none; stroke: #00ff02; stroke-opacity: 0.6; stroke-linecap: square"/>
   </g>
   <g id="line2d_39">
    <path d="M 175.786094 164.923447 
L 178.090094 165.766116 
L 180.394094 154.811054 
L 182.698094 159.03442 
L 185.002094 156.278811 
L 187.306094 152.976872 
L 189.610094 148.609824 
L 191.914094 147.4464 
L 194.218094 147.778893 
L 196.522094 148.576465 
L 198.826094 152.341256 
L 201.130094 153.042768 
L 203.434094 154.576802 
L 205.738094 150.901842 
L 208.042094 151.31755 
L 210.346094 149.036974 
L 212.650094 156.910991 
L 214.954094 158.548516 
L 217.258094 158.687297 
L 219.562094 159.25351 
L 221.866094 157.910603 
L 224.170094 149.732027 
L 226.474094 143.370875 
L 228.778094 145.423589 
L 231.082094 141.56249 
L 233.386094 140.284661 
L 235.690094 137.992655 
L 237.994094 130.908309 
L 240.298094 130.184257 
L 242.602094 126.960554 
L 244.906094 130.578354 
L 247.210094 133.263353 
L 249.514094 127.321171 
L 251.818094 122.216424 
L 254.122094 124.408347 
L 256.426094 122.846009 
L 258.730094 127.203825 
L 261.034094 128.156022 
L 263.338094 126.255765 
L 265.642094 125.789982 
L 267.946094 125.561176 
L 270.250094 128.57501 
L 272.554094 127.355444 
L 274.858094 127.323963 
L 277.162094 125.857881 
L 279.466094 125.695476 
L 281.770094 131.051635 
L 284.074094 131.761292 
L 286.378094 131.701065 
L 288.682094 133.821245 
L 290.986094 134.755353 
L 293.290094 128.284826 
L 295.594094 135.785718 
L 297.898094 133.341405 
L 300.202094 127.679826 
L 302.506094 123.358028 
L 304.810094 124.614397 
L 307.114094 125.648786 
L 309.418094 123.619333 
L 311.722094 125.209246 
L 314.026094 123.682432 
" clip-path="url(#pcb6c53d7cc)" style="fill: none; stroke: #00ff02; stroke-opacity: 0.6; stroke-linecap: square"/>
   </g>
   <g id="line2d_40">
    <path d="M 175.786094 293.6595 
L 175.786094 27.5475 
" clip-path="url(#pcb6c53d7cc)" style="fill: none; stroke-dasharray: 5.55,2.4; stroke-dashoffset: 0; stroke: #808080; stroke-opacity: 0.7; stroke-width: 1.5"/>
   </g>
   <g id="line2d_41">
    <path d="M 314.026094 293.6595 
L 314.026094 27.5475 
" clip-path="url(#pcb6c53d7cc)" style="fill: none; stroke-dasharray: 5.55,2.4; stroke-dashoffset: 0; stroke: #808080; stroke-opacity: 0.7; stroke-width: 1.5"/>
   </g>
   <g id="line2d_42">
    <path d="M 314.098974 293.6595 
L 314.122839 290.9715 
L 314.153755 288.2835 
L 314.193545 285.5955 
L 314.244428 282.9075 
L 314.309077 280.2195 
L 314.390682 277.5315 
L 314.493022 274.8435 
L 314.620524 272.1555 
L 314.778333 269.4675 
L 314.972365 266.7795 
L 315.209352 264.0915 
L 315.496873 261.4035 
L 315.843365 258.7155 
L 316.258103 256.0275 
L 316.751158 253.3395 
L 317.333302 250.6515 
L 318.015889 247.9635 
L 318.810675 245.2755 
L 319.729593 242.5875 
L 320.784482 239.8995 
L 321.986753 237.2115 
L 323.347023 234.5235 
L 324.874691 231.8355 
L 326.577494 229.1475 
L 328.461033 226.4595 
L 330.5283 223.7715 
L 332.779201 221.0835 
L 335.21013 218.3955 
L 337.813571 215.7075 
L 340.577791 213.0195 
L 343.486613 210.3315 
L 346.519312 207.6435 
L 349.650635 204.9555 
L 352.850968 202.2675 
L 356.086653 199.5795 
L 359.320466 196.8915 
L 362.512241 194.2035 
L 365.619632 191.5155 
L 368.599012 188.8275 
L 371.406452 186.1395 
L 373.998787 183.4515 
L 376.334704 180.7635 
L 378.375834 178.0755 
L 380.087794 175.3875 
L 381.441152 172.6995 
L 382.412267 170.0115 
L 382.983975 167.3235 
L 383.146094 164.6355 
L 382.895727 161.9475 
L 382.237347 159.2595 
L 381.182664 156.5715 
L 379.750277 153.8835 
L 377.965134 151.1955 
L 375.857802 148.5075 
L 373.463602 145.8195 
L 370.821624 143.1315 
L 367.973671 140.4435 
L 364.963162 137.7555 
L 361.834049 135.0675 
L 358.629765 132.3795 
L 355.392259 129.6915 
L 352.161128 127.0035 
L 348.972879 124.3155 
L 345.860338 121.6275 
L 342.852206 118.9395 
L 339.972775 116.2515 
L 337.241794 113.5635 
L 334.674473 110.8755 
L 332.28162 108.1875 
L 330.069884 105.4995 
L 328.042085 102.8115 
L 326.197616 100.1235 
L 324.532886 97.4355 
L 323.041798 94.7475 
L 321.716218 92.0595 
L 320.546449 89.3715 
L 319.521672 86.6835 
L 318.630353 83.9955 
L 317.860608 81.3075 
L 317.200519 78.6195 
L 316.638401 75.9315 
L 316.16301 73.2435 
L 315.763714 70.5555 
L 315.430609 67.8675 
L 315.154596 65.1795 
L 314.927421 62.4915 
L 314.741688 59.8035 
L 314.590843 57.1155 
L 314.469139 54.4275 
L 314.371591 51.7395 
L 314.293916 49.0515 
L 314.232466 46.3635 
L 314.184168 43.6755 
L 314.146452 40.9875 
L 314.117188 38.2995 
L 314.094629 35.6115 
L 314.077349 32.9235 
L 314.064198 30.2355 
L 314.054252 27.5475 
" clip-path="url(#pcb6c53d7cc)" style="fill: none; stroke: #0000ff; stroke-width: 2; stroke-linecap: square"/>
   </g>
   <g class="patch">
    <path d="M 37.546094 293.6595 
L 37.546094 27.5475 
" style="fill: none; stroke:var(--black); stroke-width: 0.8; stroke-linejoin: miter; stroke-linecap: square"/>
   </g>
   <g class="patch">
    <path d="M 37.546094 293.6595 
L 394.666094 293.6595 
" style="fill: none; stroke:var(--black); stroke-width: 0.8; stroke-linejoin: miter; stroke-linecap: square"/>
   </g>
   <g id="text_17" class="text">
    <!-- $s$ -->
    <g transform="translate(172.966094 320.732057) scale(0.12 -0.12)">
     <defs>
      <path id="Cmmi10-73" d="M 556 391 
Q 728 97 1247 97 
Q 1472 97 1675 173 
Q 1878 250 2011 403 
Q 2144 556 2144 775 
Q 2144 941 2025 1047 
Q 1906 1153 1734 1191 
L 1388 1259 
Q 1150 1319 997 1481 
Q 844 1644 844 1875 
Q 844 2159 998 2378 
Q 1153 2597 1406 2712 
Q 1659 2828 1931 2828 
Q 2222 2828 2451 2689 
Q 2681 2550 2681 2278 
Q 2681 2131 2598 2018 
Q 2516 1906 2369 1906 
Q 2284 1906 2223 1961 
Q 2163 2016 2163 2100 
Q 2163 2175 2205 2245 
Q 2247 2316 2317 2358 
Q 2388 2400 2463 2400 
Q 2406 2538 2251 2600 
Q 2097 2663 1919 2663 
Q 1756 2663 1593 2597 
Q 1431 2531 1332 2404 
Q 1234 2278 1234 2106 
Q 1234 1991 1315 1903 
Q 1397 1816 1516 1778 
L 1888 1703 
Q 2066 1666 2214 1570 
Q 2363 1475 2448 1329 
Q 2534 1184 2534 997 
Q 2534 759 2401 528 
Q 2269 297 2075 159 
Q 1734 -72 1241 -72 
Q 900 -72 615 84 
Q 331 241 331 550 
Q 331 725 432 854 
Q 534 984 709 984 
Q 813 984 883 921 
Q 953 859 953 756 
Q 953 609 843 500 
Q 734 391 588 391 
L 556 391 
z
" transform="scale(0.015625)"/>
     </defs>
     <use xlink:href="#Cmmi10-73" transform="translate(0 0.8125)"/>
    </g>
   </g>
   <g id="text_18" class="text">
    <!-- $t$ -->
    <g transform="translate(311.806094 320.732057) scale(0.12 -0.12)">
     <defs>
      <path id="Cmmi10-74" d="M 397 519 
Q 397 613 416 697 
L 878 2534 
L 206 2534 
Q 141 2534 141 2619 
Q 166 2759 225 2759 
L 934 2759 
L 1191 3803 
Q 1216 3888 1291 3947 
Q 1366 4006 1459 4006 
Q 1541 4006 1595 3957 
Q 1650 3909 1650 3828 
Q 1650 3809 1648 3798 
Q 1647 3788 1644 3775 
L 1388 2759 
L 2047 2759 
Q 2113 2759 2113 2675 
Q 2109 2659 2100 2621 
Q 2091 2584 2075 2559 
Q 2059 2534 2028 2534 
L 1331 2534 
L 872 684 
Q 825 503 825 372 
Q 825 97 1013 97 
Q 1294 97 1511 361 
Q 1728 625 1844 941 
Q 1869 978 1894 978 
L 1972 978 
Q 1997 978 2012 961 
Q 2028 944 2028 922 
Q 2028 909 2022 903 
Q 1881 516 1612 222 
Q 1344 -72 997 -72 
Q 744 -72 570 93 
Q 397 259 397 519 
z
" transform="scale(0.015625)"/>
     </defs>
     <use xlink:href="#Cmmi10-74" transform="translate(0 0.40625)"/>
    </g>
   </g>
   <g id="text_19" class="text">
    <!-- Brownian Motion Transition Density -->
    <g transform="translate(105.431406 12.5475) scale(0.12 -0.12)">
     <defs>
      <path id="DejaVuSerif-42" d="M 1581 331 
L 2516 331 
Q 3078 331 3337 575 
Q 3597 819 3597 1350 
Q 3597 1878 3339 2120 
Q 3081 2363 2516 2363 
L 1581 2363 
L 1581 331 
z
M 1581 2694 
L 2375 2694 
Q 2888 2694 3123 2891 
Q 3359 3088 3359 3513 
Q 3359 3941 3123 4136 
Q 2888 4331 2375 4331 
L 1581 4331 
L 1581 2694 
z
M 353 0 
L 353 331 
L 947 331 
L 947 4331 
L 353 4331 
L 353 4666 
L 2656 4666 
Q 3363 4666 3720 4377 
Q 4078 4088 4078 3513 
Q 4078 3097 3829 2850 
Q 3581 2603 3103 2547 
Q 3697 2472 4005 2167 
Q 4313 1863 4313 1350 
Q 4313 656 3875 328 
Q 3438 0 2509 0 
L 353 0 
z
" transform="scale(0.015625)"/>
      <path id="DejaVuSerif-72" d="M 3059 3328 
L 3059 2497 
L 2728 2497 
Q 2713 2744 2591 2866 
Q 2469 2988 2234 2988 
Q 1809 2988 1582 2694 
Q 1356 2400 1356 1850 
L 1356 331 
L 2022 331 
L 2022 0 
L 263 0 
L 263 331 
L 781 331 
L 781 2994 
L 231 2994 
L 231 3322 
L 1356 3322 
L 1356 2731 
Q 1525 3078 1790 3245 
Q 2056 3413 2438 3413 
Q 2578 3413 2733 3391 
Q 2888 3369 3059 3328 
z
" transform="scale(0.015625)"/>
      <path id="DejaVuSerif-6f" d="M 1925 219 
Q 2388 219 2623 584 
Q 2859 950 2859 1663 
Q 2859 2375 2623 2739 
Q 2388 3103 1925 3103 
Q 1463 3103 1227 2739 
Q 991 2375 991 1663 
Q 991 950 1228 584 
Q 1466 219 1925 219 
z
M 1925 -91 
Q 1200 -91 759 389 
Q 319 869 319 1663 
Q 319 2456 758 2934 
Q 1197 3413 1925 3413 
Q 2653 3413 3092 2934 
Q 3531 2456 3531 1663 
Q 3531 869 3092 389 
Q 2653 -91 1925 -91 
z
" transform="scale(0.015625)"/>
      <path id="DejaVuSerif-77" d="M 3072 3322 
L 3922 728 
L 4672 2988 
L 4191 2988 
L 4191 3322 
L 5394 3322 
L 5394 2988 
L 5025 2988 
L 4038 0 
L 3559 0 
L 2741 2484 
L 1919 0 
L 1459 0 
L 475 2988 
L 103 2988 
L 103 3322 
L 1606 3322 
L 1606 2988 
L 1069 2988 
L 1813 728 
L 2669 3322 
L 3072 3322 
z
" transform="scale(0.015625)"/>
      <path id="DejaVuSerif-6e" d="M 263 0 
L 263 331 
L 781 331 
L 781 2988 
L 231 2988 
L 231 3322 
L 1356 3322 
L 1356 2731 
Q 1516 3069 1770 3241 
Q 2025 3413 2363 3413 
Q 2913 3413 3172 3097 
Q 3431 2781 3431 2113 
L 3431 331 
L 3944 331 
L 3944 0 
L 2356 0 
L 2356 331 
L 2853 331 
L 2853 1931 
Q 2853 2541 2703 2767 
Q 2553 2994 2175 2994 
Q 1775 2994 1565 2701 
Q 1356 2409 1356 1850 
L 1356 331 
L 1856 331 
L 1856 0 
L 263 0 
z
" transform="scale(0.015625)"/>
      <path id="DejaVuSerif-20" transform="scale(0.015625)"/>
      <path id="DejaVuSerif-4d" d="M 353 0 
L 353 331 
L 947 331 
L 947 4331 
L 319 4331 
L 319 4666 
L 1678 4666 
L 3316 1344 
L 4953 4666 
L 6228 4666 
L 6228 4331 
L 5606 4331 
L 5606 331 
L 6203 331 
L 6203 0 
L 4378 0 
L 4378 331 
L 4972 331 
L 4972 3938 
L 3372 684 
L 2931 684 
L 1331 3938 
L 1331 331 
L 1925 331 
L 1925 0 
L 353 0 
z
" transform="scale(0.015625)"/>
      <path id="DejaVuSerif-74" d="M 691 2988 
L 184 2988 
L 184 3322 
L 691 3322 
L 691 4353 
L 1269 4353 
L 1269 3322 
L 2350 3322 
L 2350 2988 
L 1269 2988 
L 1269 878 
Q 1269 456 1350 337 
Q 1431 219 1650 219 
Q 1875 219 1978 351 
Q 2081 484 2088 781 
L 2522 781 
Q 2497 328 2275 118 
Q 2053 -91 1600 -91 
Q 1103 -91 897 129 
Q 691 350 691 878 
L 691 2988 
z
" transform="scale(0.015625)"/>
      <path id="DejaVuSerif-73" d="M 359 184 
L 359 959 
L 691 959 
Q 703 588 923 403 
Q 1144 219 1575 219 
Q 1963 219 2166 364 
Q 2369 509 2369 788 
Q 2369 1006 2220 1140 
Q 2072 1275 1594 1428 
L 1178 1569 
Q 750 1706 558 1912 
Q 366 2119 366 2438 
Q 366 2894 700 3153 
Q 1034 3413 1625 3413 
Q 1888 3413 2178 3344 
Q 2469 3275 2778 3144 
L 2778 2419 
L 2447 2419 
Q 2434 2741 2221 2922 
Q 2009 3103 1644 3103 
Q 1281 3103 1095 2975 
Q 909 2847 909 2591 
Q 909 2381 1050 2254 
Q 1191 2128 1613 1997 
L 2069 1856 
Q 2541 1709 2748 1489 
Q 2956 1269 2956 922 
Q 2956 450 2595 179 
Q 2234 -91 1600 -91 
Q 1278 -91 972 -22 
Q 666 47 359 184 
z
" transform="scale(0.015625)"/>
      <path id="DejaVuSerif-44" d="M 1581 331 
L 2163 331 
Q 3072 331 3558 850 
Q 4044 1369 4044 2338 
Q 4044 3306 3559 3818 
Q 3075 4331 2163 4331 
L 1581 4331 
L 1581 331 
z
M 353 0 
L 353 331 
L 947 331 
L 947 4331 
L 353 4331 
L 353 4666 
L 2209 4666 
Q 3416 4666 4089 4050 
Q 4763 3434 4763 2338 
Q 4763 1238 4088 619 
Q 3413 0 2209 0 
L 353 0 
z
" transform="scale(0.015625)"/>
      <path id="DejaVuSerif-79" d="M 1381 -609 
L 1600 -56 
L 359 2988 
L -19 2988 
L -19 3322 
L 1509 3322 
L 1509 2988 
L 978 2988 
L 1913 703 
L 2847 2988 
L 2350 2988 
L 2350 3322 
L 3597 3322 
L 3597 2988 
L 3225 2988 
L 1703 -750 
Q 1547 -1138 1356 -1280 
Q 1166 -1422 819 -1422 
Q 672 -1422 517 -1397 
Q 363 -1372 206 -1325 
L 206 -691 
L 500 -691 
Q 519 -903 608 -995 
Q 697 -1088 884 -1088 
Q 1056 -1088 1161 -992 
Q 1266 -897 1381 -609 
z
" transform="scale(0.015625)"/>
     </defs>
     <use xlink:href="#DejaVuSerif-42"/>
     <use xlink:href="#DejaVuSerif-72" transform="translate(73.486328 0)"/>
     <use xlink:href="#DejaVuSerif-6f" transform="translate(121.289062 0)"/>
     <use xlink:href="#DejaVuSerif-77" transform="translate(181.494141 0)"/>
     <use xlink:href="#DejaVuSerif-6e" transform="translate(267.089844 0)"/>
     <use xlink:href="#DejaVuSerif-69" transform="translate(331.494141 0)"/>
     <use xlink:href="#DejaVuSerif-61" transform="translate(363.476562 0)"/>
     <use xlink:href="#DejaVuSerif-6e" transform="translate(423.095703 0)"/>
     <use xlink:href="#DejaVuSerif-20" transform="translate(487.5 0)"/>
     <use xlink:href="#DejaVuSerif-4d" transform="translate(519.287109 0)"/>
     <use xlink:href="#DejaVuSerif-6f" transform="translate(621.679688 0)"/>
     <use xlink:href="#DejaVuSerif-74" transform="translate(681.884766 0)"/>
     <use xlink:href="#DejaVuSerif-69" transform="translate(722.070312 0)"/>
     <use xlink:href="#DejaVuSerif-6f" transform="translate(754.052734 0)"/>
     <use xlink:href="#DejaVuSerif-6e" transform="translate(814.257812 0)"/>
     <use xlink:href="#DejaVuSerif-20" transform="translate(878.662109 0)"/>
     <use xlink:href="#DejaVuSerif-54" transform="translate(910.449219 0)"/>
     <use xlink:href="#DejaVuSerif-72" transform="translate(977.148438 0)"/>
     <use xlink:href="#DejaVuSerif-61" transform="translate(1024.951172 0)"/>
     <use xlink:href="#DejaVuSerif-6e" transform="translate(1084.570312 0)"/>
     <use xlink:href="#DejaVuSerif-73" transform="translate(1148.974609 0)"/>
     <use xlink:href="#DejaVuSerif-69" transform="translate(1200.292969 0)"/>
     <use xlink:href="#DejaVuSerif-74" transform="translate(1232.275391 0)"/>
     <use xlink:href="#DejaVuSerif-69" transform="translate(1272.460938 0)"/>
     <use xlink:href="#DejaVuSerif-6f" transform="translate(1304.443359 0)"/>
     <use xlink:href="#DejaVuSerif-6e" transform="translate(1364.648438 0)"/>
     <use xlink:href="#DejaVuSerif-20" transform="translate(1429.052734 0)"/>
     <use xlink:href="#DejaVuSerif-44" transform="translate(1460.839844 0)"/>
     <use xlink:href="#DejaVuSerif-65" transform="translate(1541.015625 0)"/>
     <use xlink:href="#DejaVuSerif-6e" transform="translate(1600.195312 0)"/>
     <use xlink:href="#DejaVuSerif-73" transform="translate(1664.599609 0)"/>
     <use xlink:href="#DejaVuSerif-69" transform="translate(1715.917969 0)"/>
     <use xlink:href="#DejaVuSerif-74" transform="translate(1747.900391 0)"/>
     <use xlink:href="#DejaVuSerif-79" transform="translate(1788.085938 0)"/>
    </g>
   </g>
   <g id="PathCollection_1">
    <defs>
     <path id="mc1a9c7e977" d="M 0 4.472136 
C 1.186024 4.472136 2.323632 4.000923 3.162278 3.162278 
C 4.000923 2.323632 4.472136 1.186024 4.472136 0 
C 4.472136 -1.186024 4.000923 -2.323632 3.162278 -3.162278 
C 2.323632 -4.000923 1.186024 -4.472136 0 -4.472136 
C -1.186024 -4.472136 -2.323632 -4.000923 -3.162278 -3.162278 
C -4.000923 -2.323632 -4.472136 -1.186024 -4.472136 0 
C -4.472136 1.186024 -4.000923 2.323632 -3.162278 3.162278 
C -2.323632 4.000923 -1.186024 4.472136 0 4.472136 
z
" style="stroke:var(--white)"/>
    </defs>
    <g clip-path="url(#pcb6c53d7cc)">
     <use xlink:href="#mc1a9c7e977" x="175.786094" y="164.923447" style="fill: #ff0001; stroke:var(--white)"/>
    </g>
   </g>
   <g class="legend">
    <g class="patch">
     <path d="M 43.846094 61.366406 
L 134.993594 61.366406 
Q 136.793594 61.366406 136.793594 59.566406 
L 136.793594 33.8475 
Q 136.793594 32.0475 134.993594 32.0475 
L 43.846094 32.0475 
Q 42.046094 32.0475 42.046094 33.8475 
L 42.046094 59.566406 
Q 42.046094 61.366406 43.846094 61.366406 
L 43.846094 61.366406 
z
" style="fill: none; opacity: 0.9; stroke: #cccccc; stroke-linejoin: miter"/>
    </g>
    <g id="line2d_43">
     <path d="M 45.646094 39.336094 
L 54.646094 39.336094 
L 63.646094 39.336094 
" style="fill: none; stroke: #ff0001; stroke-width: 2.5; stroke-linecap: square"/>
    </g>
    <g id="text_20" class="text">
     <!-- Realized Path -->
     <g transform="translate(70.846094 42.486094) scale(0.09 -0.09)">
      <defs>
       <path id="DejaVuSerif-52" d="M 3066 2316 
Q 3284 2256 3442 2114 
Q 3600 1972 3725 1716 
L 4403 331 
L 4972 331 
L 4972 0 
L 3872 0 
L 3144 1484 
Q 2934 1916 2759 2042 
Q 2584 2169 2278 2169 
L 1581 2169 
L 1581 331 
L 2241 331 
L 2241 0 
L 353 0 
L 353 331 
L 947 331 
L 947 4331 
L 353 4331 
L 353 4666 
L 2719 4666 
Q 3400 4666 3770 4341 
Q 4141 4016 4141 3419 
Q 4141 2938 3870 2661 
Q 3600 2384 3066 2316 
z
M 1581 2503 
L 2503 2503 
Q 2975 2503 3200 2726 
Q 3425 2950 3425 3419 
Q 3425 3888 3200 4109 
Q 2975 4331 2503 4331 
L 1581 4331 
L 1581 2503 
z
" transform="scale(0.015625)"/>
       <path id="DejaVuSerif-7a" d="M 256 0 
L 256 269 
L 2338 2988 
L 691 2988 
L 691 2413 
L 359 2413 
L 359 3322 
L 3078 3322 
L 3078 3053 
L 997 331 
L 2803 331 
L 2803 934 
L 3138 934 
L 3138 0 
L 256 0 
z
" transform="scale(0.015625)"/>
       <path id="DejaVuSerif-64" d="M 3359 331 
L 3909 331 
L 3909 0 
L 2784 0 
L 2784 519 
Q 2616 206 2355 57 
Q 2094 -91 1709 -91 
Q 1097 -91 708 395 
Q 319 881 319 1663 
Q 319 2444 706 2928 
Q 1094 3413 1709 3413 
Q 2094 3413 2355 3264 
Q 2616 3116 2784 2803 
L 2784 4531 
L 2241 4531 
L 2241 4863 
L 3359 4863 
L 3359 331 
z
M 2784 1497 
L 2784 1825 
Q 2784 2422 2554 2737 
Q 2325 3053 1888 3053 
Q 1444 3053 1217 2703 
Q 991 2353 991 1663 
Q 991 975 1217 622 
Q 1444 269 1888 269 
Q 2325 269 2554 583 
Q 2784 897 2784 1497 
z
" transform="scale(0.015625)"/>
       <path id="DejaVuSerif-50" d="M 1581 2375 
L 2406 2375 
Q 2872 2375 3115 2626 
Q 3359 2878 3359 3353 
Q 3359 3831 3115 4081 
Q 2872 4331 2406 4331 
L 1581 4331 
L 1581 2375 
z
M 353 0 
L 353 331 
L 947 331 
L 947 4331 
L 353 4331 
L 353 4666 
L 2559 4666 
Q 3259 4666 3668 4311 
Q 4078 3956 4078 3353 
Q 4078 2753 3668 2397 
Q 3259 2041 2559 2041 
L 1581 2041 
L 1581 331 
L 2303 331 
L 2303 0 
L 353 0 
z
" transform="scale(0.015625)"/>
       <path id="DejaVuSerif-68" d="M 263 0 
L 263 331 
L 781 331 
L 781 4531 
L 231 4531 
L 231 4863 
L 1356 4863 
L 1356 2731 
Q 1516 3069 1770 3241 
Q 2025 3413 2363 3413 
Q 2913 3413 3172 3097 
Q 3431 2781 3431 2113 
L 3431 331 
L 3944 331 
L 3944 0 
L 2356 0 
L 2356 331 
L 2853 331 
L 2853 1931 
Q 2853 2541 2704 2764 
Q 2556 2988 2175 2988 
Q 1775 2988 1565 2697 
Q 1356 2406 1356 1850 
L 1356 331 
L 1856 331 
L 1856 0 
L 263 0 
z
" transform="scale(0.015625)"/>
      </defs>
      <use xlink:href="#DejaVuSerif-52"/>
      <use xlink:href="#DejaVuSerif-65" transform="translate(75.292969 0)"/>
      <use xlink:href="#DejaVuSerif-61" transform="translate(134.472656 0)"/>
      <use xlink:href="#DejaVuSerif-6c" transform="translate(194.091797 0)"/>
      <use xlink:href="#DejaVuSerif-69" transform="translate(226.074219 0)"/>
      <use xlink:href="#DejaVuSerif-7a" transform="translate(258.056641 0)"/>
      <use xlink:href="#DejaVuSerif-65" transform="translate(310.742188 0)"/>
      <use xlink:href="#DejaVuSerif-64" transform="translate(369.921875 0)"/>
      <use xlink:href="#DejaVuSerif-20" transform="translate(433.935547 0)"/>
      <use xlink:href="#DejaVuSerif-50" transform="translate(465.722656 0)"/>
      <use xlink:href="#DejaVuSerif-61" transform="translate(528.507812 0)"/>
      <use xlink:href="#DejaVuSerif-74" transform="translate(588.126953 0)"/>
      <use xlink:href="#DejaVuSerif-68" transform="translate(628.3125 0)"/>
     </g>
    </g>
    <g id="line2d_44">
     <path d="M 45.646094 52.546406 
L 54.646094 52.546406 
L 63.646094 52.546406 
" style="fill: none; stroke: #0000ff; stroke-width: 2; stroke-linecap: square"/>
    </g>
    <g id="text_21" class="text">
     <!-- Density at $t$ -->
     <g transform="translate(70.846094 55.696406) scale(0.09 -0.09)">
      <use xlink:href="#DejaVuSerif-44" transform="translate(0 0.421875)"/>
      <use xlink:href="#DejaVuSerif-65" transform="translate(80.175781 0.421875)"/>
      <use xlink:href="#DejaVuSerif-6e" transform="translate(139.355469 0.421875)"/>
      <use xlink:href="#DejaVuSerif-73" transform="translate(203.759766 0.421875)"/>
      <use xlink:href="#DejaVuSerif-69" transform="translate(255.078125 0.421875)"/>
      <use xlink:href="#DejaVuSerif-74" transform="translate(287.060547 0.421875)"/>
      <use xlink:href="#DejaVuSerif-79" transform="translate(327.246094 0.421875)"/>
      <use xlink:href="#DejaVuSerif-20" transform="translate(383.740234 0.421875)"/>
      <use xlink:href="#DejaVuSerif-61" transform="translate(415.527344 0.421875)"/>
      <use xlink:href="#DejaVuSerif-74" transform="translate(475.146484 0.421875)"/>
      <use xlink:href="#DejaVuSerif-20" transform="translate(515.332031 0.421875)"/>
      <use xlink:href="#Cmmi10-74" transform="translate(547.119141 0.421875)"/>
     </g>
    </g>
   </g>
  </g>
 </g>
 <defs>
  <clipPath id="pcb6c53d7cc">
   <rect x="37.546094" y="27.5475" width="357.12" height="266.112"/>
  </clipPath>
 </defs>
</svg>
