<?xml version="1.0" encoding="utf-8" standalone="no"?>
<!DOCTYPE svg PUBLIC "-//W3C//DTD SVG 1.1//EN"
  "http://www.w3.org/Graphics/SVG/1.1/DTD/svg11.dtd">
<svg xmlns:xlink="http://www.w3.org/1999/xlink" width="109.606103pt" height="302.700437pt" viewBox="0 0 109.606103 302.700437" xmlns="http://www.w3.org/2000/svg" version="1.1">
<style>:root { --axis-color:#000; --grid-stroke:rgba(0,0,0,0.2); --plot3d-stroke:rgba(0,0,0,0.3); --plot3d-grid:rgba(0,0,0,0.2); }
@media (prefers-color-scheme:dark) { :root { --axis-color:#fff; --grid-stroke:rgba(255,255,255,0.2); --plot3d-stroke:rgba(255,255,255,0.3); --plot3d-grid:rgba(255,255,255,0.2); } }
.black{fill:#000000;stroke:#000000;}:root{--black:#000000;}.c1{fill:#FF0001;stroke:#FF0001;}:root{--c1:#FF0001;}.c2{fill:#00FF02;stroke:#00FF02;}:root{--c2:#00FF02;}.c3{fill:#0000FF;stroke:#0000FF;}:root{--c3:#0000FF;}.c4{fill:#FF00FF;stroke:#FF00FF;}:root{--c4:#FF00FF;}.c5{fill:#00FFFF;stroke:#00FFFF;}:root{--c5:#00FFFF;}.c6{fill:#FFFF00;stroke:#FFFF00;}:root{--c6:#FFFF00;}.c7{fill:#FF8000;stroke:#FF8000;}:root{--c7:#FF8000;}.c8{fill:#8000FF;stroke:#8000FF;}:root{--c8:#8000FF;}.gray{fill:#7f7f7f;stroke:#7f7f7f;}:root{--gray:#7f7f7f;}.grey{fill:#7f7f7f;stroke:#7f7f7f;}:root{--grey:#7f7f7f;}.octonary{fill:#bcbd22;stroke:#bcbd22;}:root{--octonary:#bcbd22;}.primary{fill:#d62728;stroke:#d62728;}:root{--primary:#d62728;}.quaternary{fill:#9467bd;stroke:#9467bd;}:root{--quaternary:#9467bd;}.quinary{fill:#8c564b;stroke:#8c564b;}:root{--quinary:#8c564b;}.secondary{fill:#2ca02c;stroke:#2ca02c;}:root{--secondary:#2ca02c;}.senary{fill:#e377c2;stroke:#e377c2;}:root{--senary:#e377c2;}.septenary{fill:#7f7f7f;stroke:#7f7f7f;}:root{--septenary:#7f7f7f;}.tertiary{fill:#1f77b4;stroke:#1f77b4;}:root{--tertiary:#1f77b4;}.white{fill:#ffffff;stroke:#ffffff;}:root{--white:#ffffff;}
@media (prefers-color-scheme:dark) { .black{fill:#FFFFFF;stroke:#FFFFFF;}:root{--black:#FFFFFF;}.c1{fill:#FF0001;stroke:#FF0001;}:root{--c1:#FF0001;}.c2{fill:#00FF02;stroke:#00FF02;}:root{--c2:#00FF02;}.c3{fill:#0000FF;stroke:#0000FF;}:root{--c3:#0000FF;}.c4{fill:#FF00FF;stroke:#FF00FF;}:root{--c4:#FF00FF;}.c5{fill:#00FFFF;stroke:#00FFFF;}:root{--c5:#00FFFF;}.c6{fill:#FFFF00;stroke:#FFFF00;}:root{--c6:#FFFF00;}.c7{fill:#FF8000;stroke:#FF8000;}:root{--c7:#FF8000;}.c8{fill:#8000FF;stroke:#8000FF;}:root{--c8:#8000FF;}.gray{fill:#CCCCCC;stroke:#CCCCCC;}:root{--gray:#CCCCCC;}.grey{fill:#CCCCCC;stroke:#CCCCCC;}:root{--grey:#CCCCCC;}.octonary{fill:#E6DB74;stroke:#E6DB74;}:root{--octonary:#E6DB74;}.primary{fill:#FF4A98;stroke:#FF4A98;}:root{--primary:#FF4A98;}.quaternary{fill:#B4A0FF;stroke:#B4A0FF;}:root{--quaternary:#B4A0FF;}.quinary{fill:#FFB86B;stroke:#FFB86B;}:root{--quinary:#FFB86B;}.secondary{fill:#0AFAFA;stroke:#0AFAFA;}:root{--secondary:#0AFAFA;}.senary{fill:#FF79C6;stroke:#FF79C6;}:root{--senary:#FF79C6;}.septenary{fill:#CCCCCC;stroke:#CCCCCC;}:root{--septenary:#CCCCCC;}.tertiary{fill:#7F83FF;stroke:#7F83FF;}:root{--tertiary:#7F83FF;}.white{fill:#000000;stroke:#000000;}:root{--white:#000000;} }
text,.text { fill:var(--axis-color)!important; stroke:none!important; }
.axis line,.axis path,.tick line,.tick path,path.domain,line.grid { stroke:var(--axis-color)!important; }
.legend text { fill:var(--axis-color)!important; }
.patch path[style*="stroke: currentColor"] { stroke:var(--axis-color)!important; }
g.legend>g:first-child>path:first-child { fill:rgba(255,255,255,0.8)!important; stroke:rgba(0,0,0,0.1)!important; }
@media (prefers-color-scheme:dark) { g.legend>g:first-child>path:first-child { fill:rgba(26,26,26,0.8)!important; stroke:rgba(255,255,255,0.1)!important; } }
.plot3d path,.plot3d polygon { stroke:var(--plot3d-stroke)!important; }
.plot3d-grid line { stroke:var(--plot3d-grid)!important; }
.plot3d-surface path[style*="fill:"] { fill-opacity:0.9!important; }
@media (prefers-color-scheme:dark) { .plot3d-surface path[style*="fill:"] { fill-opacity:0.95!important; filter:saturate(1.2)!important; } }</style>

 <metadata>
  <rdf:RDF xmlns:dc="http://purl.org/dc/elements/1.1/" xmlns:cc="http://creativecommons.org/ns#" xmlns:rdf="http://www.w3.org/1999/02/22-rdf-syntax-ns#">
   <cc:Work>
    <dc:type rdf:resource="http://purl.org/dc/dcmitype/StillImage"/>
    <dc:date>2026-01-03T22:17:23.317964</dc:date>
    <dc:format>image/svg+xml</dc:format>
    <dc:creator>
     <cc:Agent>
      <dc:title>Matplotlib v3.10.0, https://matplotlib.org/</dc:title>
     </cc:Agent>
    </dc:creator>
   </cc:Work>
  </rdf:RDF>
 </metadata>
 <defs>
  <style type="text/css">*{stroke-linejoin: round; stroke-linecap: butt}</style>
 </defs>
 <g id="figure_1">
  <g class="patch">
   <path d="M 0 302.700437 
L 109.606103 302.700437 
L 109.606103 0 
L 0 0 
L 0 302.700437 
z
" style="fill: none"/>
  </g>
  <g id="axes_1">
   <g class="patch">
    <path d="M 37.867969 119.30087 
L 106.006103 119.30087 
L 106.006103 3.6 
L 37.867969 3.6 
L 37.867969 119.30087 
z
" style="fill: none"/>
   </g>
   <g class="axis">
    <g class="tick xtick">
     <g id="line2d_1">
      <path d="M 39.90706 119.30087 
L 39.90706 3.6 
" clip-path="url(#p8fd68a956e)" style="fill: none; stroke: #b0b0b0; stroke-opacity: 0.1; stroke-width: 0.5; stroke-linecap: square"/>
     </g>
     <g id="line2d_2">
      <defs>
       <path id="mafd78886bf" d="M 0 0 
L 0 3.5 
" style="stroke:var(--black); stroke-width: 0.8"/>
      </defs>
      <g>
       <use xlink:href="#mafd78886bf" x="39.90706" y="119.30087" style="stroke:var(--black); stroke-width: 0.8"/>
      </g>
     </g>
     <g id="text_1" class="text">
      <!-- 0 -->
      <g transform="translate(37.043935 133.139463) scale(0.09 -0.09)">
       <defs>
        <path id="DejaVuSerif-30" d="M 2034 219 
Q 2513 219 2750 744 
Q 2988 1269 2988 2328 
Q 2988 3391 2750 3916 
Q 2513 4441 2034 4441 
Q 1556 4441 1318 3916 
Q 1081 3391 1081 2328 
Q 1081 1269 1318 744 
Q 1556 219 2034 219 
z
M 2034 -91 
Q 1275 -91 848 546 
Q 422 1184 422 2328 
Q 422 3475 848 4112 
Q 1275 4750 2034 4750 
Q 2797 4750 3222 4112 
Q 3647 3475 3647 2328 
Q 3647 1184 3222 546 
Q 2797 -91 2034 -91 
z
" transform="scale(0.015625)"/>
       </defs>
       <use xlink:href="#DejaVuSerif-30"/>
      </g>
     </g>
    </g>
    <g class="tick xtick">
     <g id="line2d_3">
      <path d="M 90.884349 119.30087 
L 90.884349 3.6 
" clip-path="url(#p8fd68a956e)" style="fill: none; stroke: #b0b0b0; stroke-opacity: 0.1; stroke-width: 0.5; stroke-linecap: square"/>
     </g>
     <g id="line2d_4">
      <g>
       <use xlink:href="#mafd78886bf" x="90.884349" y="119.30087" style="stroke:var(--black); stroke-width: 0.8"/>
      </g>
     </g>
     <g id="text_2" class="text">
      <!-- 5 -->
      <g transform="translate(88.021224 133.139463) scale(0.09 -0.09)">
       <defs>
        <path id="DejaVuSerif-35" d="M 3219 4666 
L 3219 4153 
L 1081 4153 
L 1081 2816 
Q 1244 2928 1461 2984 
Q 1678 3041 1947 3041 
Q 2703 3041 3140 2622 
Q 3578 2203 3578 1478 
Q 3578 738 3136 323 
Q 2694 -91 1894 -91 
Q 1572 -91 1234 -12 
Q 897 66 544 225 
L 544 1131 
L 897 1131 
Q 925 688 1179 453 
Q 1434 219 1894 219 
Q 2388 219 2653 544 
Q 2919 869 2919 1478 
Q 2919 2084 2655 2407 
Q 2391 2731 1894 2731 
Q 1613 2731 1398 2631 
Q 1184 2531 1019 2322 
L 750 2322 
L 750 4666 
L 3219 4666 
z
" transform="scale(0.015625)"/>
       </defs>
       <use xlink:href="#DejaVuSerif-35"/>
      </g>
     </g>
    </g>
    <g id="text_3" class="text">
     <!-- $t$ -->
     <g transform="translate(70.087036 146.60962) scale(0.1 -0.1)">
      <defs>
       <path id="Cmmi10-74" d="M 397 519 
Q 397 613 416 697 
L 878 2534 
L 206 2534 
Q 141 2534 141 2619 
Q 166 2759 225 2759 
L 934 2759 
L 1191 3803 
Q 1216 3888 1291 3947 
Q 1366 4006 1459 4006 
Q 1541 4006 1595 3957 
Q 1650 3909 1650 3828 
Q 1650 3809 1648 3798 
Q 1647 3788 1644 3775 
L 1388 2759 
L 2047 2759 
Q 2113 2759 2113 2675 
Q 2109 2659 2100 2621 
Q 2091 2584 2075 2559 
Q 2059 2534 2028 2534 
L 1331 2534 
L 872 684 
Q 825 503 825 372 
Q 825 97 1013 97 
Q 1294 97 1511 361 
Q 1728 625 1844 941 
Q 1869 978 1894 978 
L 1972 978 
Q 1997 978 2012 961 
Q 2028 944 2028 922 
Q 2028 909 2022 903 
Q 1881 516 1612 222 
Q 1344 -72 997 -72 
Q 744 -72 570 93 
Q 397 259 397 519 
z
" transform="scale(0.015625)"/>
      </defs>
      <use xlink:href="#Cmmi10-74" transform="translate(0 0.40625)"/>
     </g>
    </g>
   </g>
   <g class="axis">
    <g class="tick ytick">
     <g id="line2d_5">
      <path d="M 37.867969 112.519965 
L 106.006103 112.519965 
" clip-path="url(#p8fd68a956e)" style="fill: none; stroke: #b0b0b0; stroke-opacity: 0.1; stroke-width: 0.5; stroke-linecap: square"/>
     </g>
     <g id="line2d_6">
      <defs>
       <path id="m3fefac1ec3" d="M 0 0 
L -3.5 0 
" style="stroke:var(--black); stroke-width: 0.8"/>
      </defs>
      <g>
       <use xlink:href="#m3fefac1ec3" x="37.867969" y="112.519965" style="stroke:var(--black); stroke-width: 0.8"/>
      </g>
     </g>
     <g id="text_4" class="text">
      <!-- −4 -->
      <g transform="translate(17.6 115.939262) scale(0.09 -0.09)">
       <defs>
        <path id="DejaVuSerif-2212" d="M 678 2259 
L 4684 2259 
L 4684 1753 
L 678 1753 
L 678 2259 
z
" transform="scale(0.015625)"/>
        <path id="DejaVuSerif-34" d="M 2234 1581 
L 2234 4063 
L 641 1581 
L 2234 1581 
z
M 3609 0 
L 1484 0 
L 1484 331 
L 2234 331 
L 2234 1247 
L 197 1247 
L 197 1588 
L 2241 4750 
L 2859 4750 
L 2859 1581 
L 3750 1581 
L 3750 1247 
L 2859 1247 
L 2859 331 
L 3609 331 
L 3609 0 
z
" transform="scale(0.015625)"/>
       </defs>
       <use xlink:href="#DejaVuSerif-2212"/>
       <use xlink:href="#DejaVuSerif-34" transform="translate(83.789062 0)"/>
      </g>
     </g>
    </g>
    <g class="tick ytick">
     <g id="line2d_7">
      <path d="M 37.867969 92.12905 
L 106.006103 92.12905 
" clip-path="url(#p8fd68a956e)" style="fill: none; stroke: #b0b0b0; stroke-opacity: 0.1; stroke-width: 0.5; stroke-linecap: square"/>
     </g>
     <g id="line2d_8">
      <g>
       <use xlink:href="#m3fefac1ec3" x="37.867969" y="92.12905" style="stroke:var(--black); stroke-width: 0.8"/>
      </g>
     </g>
     <g id="text_5" class="text">
      <!-- −2 -->
      <g transform="translate(17.6 95.548346) scale(0.09 -0.09)">
       <defs>
        <path id="DejaVuSerif-32" d="M 819 3553 
L 469 3553 
L 469 4384 
Q 803 4563 1142 4656 
Q 1481 4750 1806 4750 
Q 2534 4750 2956 4397 
Q 3378 4044 3378 3438 
Q 3378 2753 2422 1800 
Q 2347 1728 2309 1691 
L 1131 513 
L 3078 513 
L 3078 1088 
L 3444 1088 
L 3444 0 
L 434 0 
L 434 341 
L 1850 1753 
Q 2319 2222 2519 2614 
Q 2719 3006 2719 3438 
Q 2719 3909 2473 4175 
Q 2228 4441 1797 4441 
Q 1350 4441 1106 4219 
Q 863 3997 819 3553 
z
" transform="scale(0.015625)"/>
       </defs>
       <use xlink:href="#DejaVuSerif-2212"/>
       <use xlink:href="#DejaVuSerif-32" transform="translate(83.789062 0)"/>
      </g>
     </g>
    </g>
    <g class="tick ytick">
     <g id="line2d_9">
      <path d="M 37.867969 71.738134 
L 106.006103 71.738134 
" clip-path="url(#p8fd68a956e)" style="fill: none; stroke: #b0b0b0; stroke-opacity: 0.1; stroke-width: 0.5; stroke-linecap: square"/>
     </g>
     <g id="line2d_10">
      <g>
       <use xlink:href="#m3fefac1ec3" x="37.867969" y="71.738134" style="stroke:var(--black); stroke-width: 0.8"/>
      </g>
     </g>
     <g id="text_6" class="text">
      <!-- 0 -->
      <g transform="translate(25.141719 75.157431) scale(0.09 -0.09)">
       <use xlink:href="#DejaVuSerif-30"/>
      </g>
     </g>
    </g>
    <g class="tick ytick">
     <g id="line2d_11">
      <path d="M 37.867969 51.347218 
L 106.006103 51.347218 
" clip-path="url(#p8fd68a956e)" style="fill: none; stroke: #b0b0b0; stroke-opacity: 0.1; stroke-width: 0.5; stroke-linecap: square"/>
     </g>
     <g id="line2d_12">
      <g>
       <use xlink:href="#m3fefac1ec3" x="37.867969" y="51.347218" style="stroke:var(--black); stroke-width: 0.8"/>
      </g>
     </g>
     <g id="text_7" class="text">
      <!-- 2 -->
      <g transform="translate(25.141719 54.766515) scale(0.09 -0.09)">
       <use xlink:href="#DejaVuSerif-32"/>
      </g>
     </g>
    </g>
    <g class="tick ytick">
     <g id="line2d_13">
      <path d="M 37.867969 30.956303 
L 106.006103 30.956303 
" clip-path="url(#p8fd68a956e)" style="fill: none; stroke: #b0b0b0; stroke-opacity: 0.1; stroke-width: 0.5; stroke-linecap: square"/>
     </g>
     <g id="line2d_14">
      <g>
       <use xlink:href="#m3fefac1ec3" x="37.867969" y="30.956303" style="stroke:var(--black); stroke-width: 0.8"/>
      </g>
     </g>
     <g id="text_8" class="text">
      <!-- 4 -->
      <g transform="translate(25.141719 34.375599) scale(0.09 -0.09)">
       <use xlink:href="#DejaVuSerif-34"/>
      </g>
     </g>
    </g>
    <g class="tick ytick">
     <g id="line2d_15">
      <path d="M 37.867969 10.565387 
L 106.006103 10.565387 
" clip-path="url(#p8fd68a956e)" style="fill: none; stroke: #b0b0b0; stroke-opacity: 0.1; stroke-width: 0.5; stroke-linecap: square"/>
     </g>
     <g id="line2d_16">
      <g>
       <use xlink:href="#m3fefac1ec3" x="37.867969" y="10.565387" style="stroke:var(--black); stroke-width: 0.8"/>
      </g>
     </g>
     <g id="text_9" class="text">
      <!-- 6 -->
      <g transform="translate(25.141719 13.984684) scale(0.09 -0.09)">
       <defs>
        <path id="DejaVuSerif-36" d="M 2094 219 
Q 2534 219 2771 542 
Q 3009 866 3009 1472 
Q 3009 2078 2771 2401 
Q 2534 2725 2094 2725 
Q 1647 2725 1412 2412 
Q 1178 2100 1178 1509 
Q 1178 888 1415 553 
Q 1653 219 2094 219 
z
M 1075 2569 
Q 1288 2803 1556 2918 
Q 1825 3034 2163 3034 
Q 2859 3034 3264 2615 
Q 3669 2197 3669 1472 
Q 3669 763 3233 336 
Q 2797 -91 2069 -91 
Q 1278 -91 853 498 
Q 428 1088 428 2181 
Q 428 3406 931 4078 
Q 1434 4750 2350 4750 
Q 2597 4750 2869 4703 
Q 3141 4656 3425 4563 
L 3425 3794 
L 3072 3794 
Q 3034 4109 2831 4275 
Q 2628 4441 2284 4441 
Q 1678 4441 1381 3981 
Q 1084 3522 1075 2569 
z
" transform="scale(0.015625)"/>
       </defs>
       <use xlink:href="#DejaVuSerif-36"/>
      </g>
     </g>
    </g>
    <g id="text_10" class="text">
     <!-- $f(t)$ -->
     <g transform="translate(11.1 69.600435) rotate(-90) scale(0.1 -0.1)">
      <defs>
       <path id="Cmmi10-66" d="M 622 -1056 
Q 741 -1147 909 -1147 
Q 1138 -1147 1281 -641 
Q 1341 -397 1606 966 
L 1900 2534 
L 1350 2534 
Q 1288 2534 1288 2619 
Q 1313 2759 1369 2759 
L 1941 2759 
L 2016 3175 
Q 2053 3369 2084 3508 
Q 2116 3647 2152 3765 
Q 2188 3884 2259 4031 
Q 2369 4241 2555 4377 
Q 2741 4513 2956 4513 
Q 3097 4513 3230 4461 
Q 3363 4409 3447 4306 
Q 3531 4203 3531 4063 
Q 3531 3900 3423 3779 
Q 3316 3659 3163 3659 
Q 3059 3659 2986 3723 
Q 2913 3788 2913 3891 
Q 2913 4031 3008 4136 
Q 3103 4241 3244 4256 
Q 3125 4347 2950 4347 
Q 2853 4347 2767 4256 
Q 2681 4166 2656 4063 
Q 2616 3900 2478 3181 
L 2400 2759 
L 3059 2759 
Q 3122 2759 3122 2675 
Q 3119 2659 3109 2620 
Q 3100 2581 3083 2557 
Q 3066 2534 3041 2534 
L 2356 2534 
L 2059 972 
Q 2003 631 1929 279 
Q 1856 -72 1723 -442 
Q 1591 -813 1384 -1063 
Q 1178 -1313 897 -1313 
Q 681 -1313 511 -1189 
Q 341 -1066 341 -863 
Q 341 -700 445 -579 
Q 550 -459 709 -459 
Q 816 -459 887 -523 
Q 959 -588 959 -691 
Q 959 -828 857 -942 
Q 756 -1056 622 -1056 
z
" transform="scale(0.015625)"/>
       <path id="Cmr10-28" d="M 1984 -1588 
Q 1628 -1306 1370 -942 
Q 1113 -578 948 -165 
Q 784 247 703 697 
Q 622 1147 622 1600 
Q 622 2059 703 2509 
Q 784 2959 951 3375 
Q 1119 3791 1378 4153 
Q 1638 4516 1984 4788 
Q 1984 4800 2016 4800 
L 2075 4800 
Q 2094 4800 2109 4783 
Q 2125 4766 2125 4744 
Q 2125 4716 2113 4703 
Q 1800 4397 1592 4047 
Q 1384 3697 1257 3301 
Q 1131 2906 1075 2482 
Q 1019 2059 1019 1600 
Q 1019 -434 2106 -1491 
Q 2125 -1509 2125 -1544 
Q 2125 -1559 2108 -1579 
Q 2091 -1600 2075 -1600 
L 2016 -1600 
Q 1984 -1600 1984 -1588 
z
" transform="scale(0.015625)"/>
       <path id="Cmr10-29" d="M 416 -1600 
Q 359 -1600 359 -1544 
Q 359 -1516 372 -1503 
Q 1466 -434 1466 1600 
Q 1466 3634 384 4691 
Q 359 4706 359 4744 
Q 359 4766 376 4783 
Q 394 4800 416 4800 
L 475 4800 
Q 494 4800 506 4788 
Q 966 4425 1272 3906 
Q 1578 3388 1720 2800 
Q 1863 2213 1863 1600 
Q 1863 1147 1786 708 
Q 1709 269 1542 -157 
Q 1375 -584 1119 -945 
Q 863 -1306 506 -1588 
Q 494 -1600 475 -1600 
L 416 -1600 
z
" transform="scale(0.015625)"/>
      </defs>
      <use xlink:href="#Cmmi10-66"/>
      <use xlink:href="#Cmr10-28" transform="translate(48.876953 0)"/>
      <use xlink:href="#Cmmi10-74" transform="translate(87.695312 0)"/>
      <use xlink:href="#Cmr10-29" transform="translate(123.779297 0)"/>
     </g>
    </g>
   </g>
   <g id="line2d_17">
    <path d="M 39.90706 75.223693 
L 40.554131 73.9645 
L 41.201201 72.696342 
L 41.848271 71.424326 
L 42.495341 70.153573 
L 43.142411 68.889201 
L 43.789482 67.6363 
L 44.436552 66.399916 
L 45.083622 65.185027 
L 45.730692 63.996526 
L 46.377762 62.839197 
L 47.024833 61.717701 
L 47.671903 60.636553 
L 48.318973 59.600108 
L 48.966043 58.612538 
L 49.613113 57.677821 
L 50.260184 56.799719 
L 50.907254 55.981769 
L 51.554324 55.227265 
L 52.201394 54.539244 
L 52.848465 53.920476 
L 53.495535 53.373454 
L 54.142605 52.900381 
L 54.789675 52.50316 
L 55.436745 52.183391 
L 56.083816 51.942363 
L 56.730886 51.781045 
L 57.377956 51.700088 
L 58.025026 51.699816 
L 58.672096 51.780232 
L 59.319167 51.941012 
L 59.966237 52.181507 
L 60.613307 52.50075 
L 61.260377 52.897455 
L 61.907447 53.370025 
L 62.554518 53.916556 
L 63.201588 54.534849 
L 63.848658 55.222414 
L 64.495728 55.976481 
L 65.142798 56.794015 
L 65.789869 57.671724 
L 66.436939 58.606073 
L 67.084009 59.5933 
L 67.731079 60.629431 
L 68.37815 61.710292 
L 69.02522 62.831532 
L 69.67229 63.988635 
L 70.31936 65.176943 
L 70.96643 66.391671 
L 71.613501 67.627927 
L 72.260571 68.880733 
L 72.907641 70.145045 
L 73.554711 71.415772 
L 74.201781 72.687797 
L 74.848852 73.955998 
L 75.495922 75.215268 
L 76.142992 76.460537 
L 76.790062 77.686791 
L 77.437132 78.889091 
L 78.084203 80.062597 
L 78.731273 81.202584 
L 79.378343 82.30446 
L 80.025413 83.36379 
L 80.672484 84.376307 
L 81.319554 85.337935 
L 81.966624 86.244801 
L 82.613694 87.093254 
L 83.260764 87.879877 
L 83.907835 88.601504 
L 84.554905 89.255227 
L 85.201975 89.838415 
L 85.849045 90.34872 
L 86.496115 90.784086 
L 87.143186 91.142761 
L 87.790256 91.423301 
L 88.437326 91.624575 
L 89.084396 91.745774 
L 89.731466 91.786409 
L 90.378537 91.746317 
L 91.025607 91.625658 
L 91.672677 91.42492 
L 92.319747 91.14491 
L 92.966817 90.786756 
L 93.613888 90.351899 
L 94.260958 89.842092 
L 94.908028 89.259386 
L 95.555098 88.606129 
L 96.202169 87.88495 
L 96.849239 87.098753 
L 97.496309 86.250705 
L 98.143379 85.344219 
L 98.790449 84.382947 
L 99.43752 83.370759 
L 100.08459 82.31173 
L 100.73166 81.210125 
L 101.37873 80.070379 
L 102.0258 78.897083 
L 102.672871 77.69496 
L 103.319941 76.468851 
L 103.967011 75.223693 
" clip-path="url(#p8fd68a956e)" style="fill: none; stroke: #8000ff; stroke-width: 2; stroke-linecap: square"/>
   </g>
   <g class="patch">
    <path d="M 37.867969 119.30087 
L 37.867969 3.6 
" style="fill: none; stroke:var(--black); stroke-width: 0.8; stroke-linejoin: miter; stroke-linecap: square"/>
   </g>
   <g class="patch">
    <path d="M 37.867969 119.30087 
L 106.006103 119.30087 
" style="fill: none; stroke:var(--black); stroke-width: 0.8; stroke-linejoin: miter; stroke-linecap: square"/>
   </g>
  </g>
  <g id="axes_2">
   <g class="patch">
    <path d="M 37.867969 269.712 
L 106.006103 269.712 
L 106.006103 154.01113 
L 37.867969 154.01113 
L 37.867969 269.712 
z
" style="fill: none"/>
   </g>
   <g class="axis">
    <g class="tick xtick">
     <g id="line2d_18">
      <path d="M 39.90706 269.712 
L 39.90706 154.01113 
" clip-path="url(#p3e3e8f659e)" style="fill: none; stroke: #b0b0b0; stroke-opacity: 0.1; stroke-width: 0.5; stroke-linecap: square"/>
     </g>
     <g id="line2d_19">
      <g>
       <use xlink:href="#mafd78886bf" x="39.90706" y="269.712" style="stroke:var(--black); stroke-width: 0.8"/>
      </g>
     </g>
     <g id="text_11" class="text">
      <!-- 0 -->
      <g transform="translate(37.043935 283.550594) scale(0.09 -0.09)">
       <use xlink:href="#DejaVuSerif-30"/>
      </g>
     </g>
    </g>
    <g class="tick xtick">
     <g id="line2d_20">
      <path d="M 90.884349 269.712 
L 90.884349 154.01113 
" clip-path="url(#p3e3e8f659e)" style="fill: none; stroke: #b0b0b0; stroke-opacity: 0.1; stroke-width: 0.5; stroke-linecap: square"/>
     </g>
     <g id="line2d_21">
      <g>
       <use xlink:href="#mafd78886bf" x="90.884349" y="269.712" style="stroke:var(--black); stroke-width: 0.8"/>
      </g>
     </g>
     <g id="text_12" class="text">
      <!-- 5 -->
      <g transform="translate(88.021224 283.550594) scale(0.09 -0.09)">
       <use xlink:href="#DejaVuSerif-35"/>
      </g>
     </g>
    </g>
    <g id="text_13" class="text">
     <!-- $t$ -->
     <g transform="translate(70.087036 297.02075) scale(0.1 -0.1)">
      <use xlink:href="#Cmmi10-74" transform="translate(0 0.40625)"/>
     </g>
    </g>
   </g>
   <g class="axis">
    <g class="tick ytick">
     <g id="line2d_22">
      <path d="M 37.867969 262.931096 
L 106.006103 262.931096 
" clip-path="url(#p3e3e8f659e)" style="fill: none; stroke: #b0b0b0; stroke-opacity: 0.1; stroke-width: 0.5; stroke-linecap: square"/>
     </g>
     <g id="line2d_23">
      <g>
       <use xlink:href="#m3fefac1ec3" x="37.867969" y="262.931096" style="stroke:var(--black); stroke-width: 0.8"/>
      </g>
     </g>
     <g id="text_14" class="text">
      <!-- −4 -->
      <g transform="translate(17.6 266.350392) scale(0.09 -0.09)">
       <use xlink:href="#DejaVuSerif-2212"/>
       <use xlink:href="#DejaVuSerif-34" transform="translate(83.789062 0)"/>
      </g>
     </g>
    </g>
    <g class="tick ytick">
     <g id="line2d_24">
      <path d="M 37.867969 242.54018 
L 106.006103 242.54018 
" clip-path="url(#p3e3e8f659e)" style="fill: none; stroke: #b0b0b0; stroke-opacity: 0.1; stroke-width: 0.5; stroke-linecap: square"/>
     </g>
     <g id="line2d_25">
      <g>
       <use xlink:href="#m3fefac1ec3" x="37.867969" y="242.54018" style="stroke:var(--black); stroke-width: 0.8"/>
      </g>
     </g>
     <g id="text_15" class="text">
      <!-- −2 -->
      <g transform="translate(17.6 245.959477) scale(0.09 -0.09)">
       <use xlink:href="#DejaVuSerif-2212"/>
       <use xlink:href="#DejaVuSerif-32" transform="translate(83.789062 0)"/>
      </g>
     </g>
    </g>
    <g class="tick ytick">
     <g id="line2d_26">
      <path d="M 37.867969 222.149264 
L 106.006103 222.149264 
" clip-path="url(#p3e3e8f659e)" style="fill: none; stroke: #b0b0b0; stroke-opacity: 0.1; stroke-width: 0.5; stroke-linecap: square"/>
     </g>
     <g id="line2d_27">
      <g>
       <use xlink:href="#m3fefac1ec3" x="37.867969" y="222.149264" style="stroke:var(--black); stroke-width: 0.8"/>
      </g>
     </g>
     <g id="text_16" class="text">
      <!-- 0 -->
      <g transform="translate(25.141719 225.568561) scale(0.09 -0.09)">
       <use xlink:href="#DejaVuSerif-30"/>
      </g>
     </g>
    </g>
    <g class="tick ytick">
     <g id="line2d_28">
      <path d="M 37.867969 201.758349 
L 106.006103 201.758349 
" clip-path="url(#p3e3e8f659e)" style="fill: none; stroke: #b0b0b0; stroke-opacity: 0.1; stroke-width: 0.5; stroke-linecap: square"/>
     </g>
     <g id="line2d_29">
      <g>
       <use xlink:href="#m3fefac1ec3" x="37.867969" y="201.758349" style="stroke:var(--black); stroke-width: 0.8"/>
      </g>
     </g>
     <g id="text_17" class="text">
      <!-- 2 -->
      <g transform="translate(25.141719 205.177646) scale(0.09 -0.09)">
       <use xlink:href="#DejaVuSerif-32"/>
      </g>
     </g>
    </g>
    <g class="tick ytick">
     <g id="line2d_30">
      <path d="M 37.867969 181.367433 
L 106.006103 181.367433 
" clip-path="url(#p3e3e8f659e)" style="fill: none; stroke: #b0b0b0; stroke-opacity: 0.1; stroke-width: 0.5; stroke-linecap: square"/>
     </g>
     <g id="line2d_31">
      <g>
       <use xlink:href="#m3fefac1ec3" x="37.867969" y="181.367433" style="stroke:var(--black); stroke-width: 0.8"/>
      </g>
     </g>
     <g id="text_18" class="text">
      <!-- 4 -->
      <g transform="translate(25.141719 184.78673) scale(0.09 -0.09)">
       <use xlink:href="#DejaVuSerif-34"/>
      </g>
     </g>
    </g>
    <g class="tick ytick">
     <g id="line2d_32">
      <path d="M 37.867969 160.976517 
L 106.006103 160.976517 
" clip-path="url(#p3e3e8f659e)" style="fill: none; stroke: #b0b0b0; stroke-opacity: 0.1; stroke-width: 0.5; stroke-linecap: square"/>
     </g>
     <g id="line2d_33">
      <g>
       <use xlink:href="#m3fefac1ec3" x="37.867969" y="160.976517" style="stroke:var(--black); stroke-width: 0.8"/>
      </g>
     </g>
     <g id="text_19" class="text">
      <!-- 6 -->
      <g transform="translate(25.141719 164.395814) scale(0.09 -0.09)">
       <use xlink:href="#DejaVuSerif-36"/>
      </g>
     </g>
    </g>
    <g id="text_20" class="text">
     <!-- $\beta(t)$ -->
     <g transform="translate(11.1 220.411565) rotate(-90) scale(0.1 -0.1)">
      <defs>
       <path id="Cmmi10-af" d="M 172 -1241 
Q 153 -1241 137 -1219 
Q 122 -1197 122 -1178 
L 1106 2778 
Q 1191 3097 1353 3397 
Q 1516 3697 1761 3955 
Q 2006 4213 2300 4363 
Q 2594 4513 2925 4513 
Q 3163 4513 3355 4408 
Q 3547 4303 3658 4114 
Q 3769 3925 3769 3688 
Q 3769 3459 3681 3251 
Q 3594 3044 3437 2864 
Q 3281 2684 3103 2572 
Q 3206 2506 3287 2404 
Q 3369 2303 3419 2192 
Q 3469 2081 3497 1945 
Q 3525 1809 3525 1691 
Q 3525 1363 3384 1044 
Q 3244 725 3001 465 
Q 2759 206 2446 54 
Q 2134 -97 1806 -97 
Q 1447 -97 1159 100 
Q 872 297 763 634 
L 300 -1203 
Q 300 -1241 250 -1241 
L 172 -1241 
z
M 1819 78 
Q 2106 78 2339 267 
Q 2572 456 2723 742 
Q 2875 1028 2954 1348 
Q 3034 1669 3034 1931 
Q 3034 2256 2847 2444 
Q 2628 2363 2419 2363 
Q 1913 2363 1913 2534 
Q 1913 2759 2491 2759 
Q 2697 2759 2869 2694 
Q 3006 2800 3118 3006 
Q 3231 3213 3289 3438 
Q 3347 3663 3347 3859 
Q 3347 4069 3236 4208 
Q 3125 4347 2913 4347 
Q 2522 4347 2186 4106 
Q 1850 3866 1619 3498 
Q 1388 3131 1288 2741 
L 934 1325 
Q 900 1178 891 997 
Q 891 597 1153 337 
Q 1416 78 1819 78 
z
M 2106 2553 
Q 2203 2528 2425 2528 
Q 2534 2528 2644 2566 
Q 2638 2572 2619 2572 
Q 2550 2591 2472 2591 
Q 2181 2591 2106 2553 
z
" transform="scale(0.015625)"/>
      </defs>
      <use xlink:href="#Cmmi10-af"/>
      <use xlink:href="#Cmr10-28" transform="translate(56.494141 0)"/>
      <use xlink:href="#Cmmi10-74" transform="translate(95.3125 0)"/>
      <use xlink:href="#Cmr10-29" transform="translate(131.396484 0)"/>
     </g>
    </g>
   </g>
   <g id="line2d_34">
    <path d="M 39.90706 222.149264 
L 40.009015 222.471401 
L 40.110969 224.386132 
L 40.212924 224.258817 
L 40.314879 224.375568 
L 40.518788 226.448749 
L 40.620742 226.322083 
L 40.722697 225.493543 
L 40.824652 226.404674 
L 41.028561 226.02279 
L 41.130515 226.664683 
L 41.23247 226.0963 
L 41.334424 226.650471 
L 41.640288 224.312254 
L 41.742243 224.268956 
L 41.844197 223.999099 
L 41.946152 224.102269 
L 42.048106 223.611575 
L 42.252016 224.544953 
L 42.455925 223.479084 
L 42.557879 223.9751 
L 42.659834 223.123195 
L 42.761789 223.88663 
L 42.863743 223.167647 
L 43.067652 220.223622 
L 43.169607 221.390506 
L 43.271561 221.032518 
L 43.373516 221.360906 
L 43.67938 222.795148 
L 43.883289 221.233847 
L 44.087198 222.746579 
L 44.393062 221.051152 
L 44.495016 222.359394 
L 44.596971 221.660886 
L 44.80088 223.288279 
L 44.902835 223.876822 
L 45.106744 223.632969 
L 45.208698 223.744885 
L 45.412608 221.880852 
L 45.616517 223.563322 
L 45.820426 222.051171 
L 45.92238 221.669317 
L 46.024335 221.727559 
L 46.12629 223.50246 
L 46.228244 222.507803 
L 46.330199 223.544645 
L 46.432153 223.316556 
L 46.534108 223.381179 
L 46.738017 224.178188 
L 46.839972 224.557257 
L 46.941926 224.064766 
L 47.24779 226.610078 
L 47.349745 225.72275 
L 47.451699 226.049738 
L 47.553654 225.792132 
L 47.655608 224.687413 
L 47.757563 225.030891 
L 47.859517 223.722974 
L 47.961472 224.096431 
L 48.063427 223.297238 
L 48.165381 224.666688 
L 48.267336 223.59102 
L 48.36929 225.573493 
L 48.573199 224.827603 
L 48.675154 224.76757 
L 48.777109 224.960289 
L 48.879063 223.643842 
L 48.981018 223.838517 
L 49.082972 223.408561 
L 49.388836 224.82896 
L 49.490791 223.801461 
L 49.796654 226.516864 
L 49.898609 225.740177 
L 50.000564 226.157018 
L 50.102518 227.297996 
L 50.204473 226.76484 
L 50.408382 229.11259 
L 50.510336 229.288281 
L 50.714246 229.861978 
L 50.918155 226.936727 
L 51.020109 228.470621 
L 51.224018 227.680466 
L 51.325973 227.068219 
L 51.427928 227.691689 
L 51.529882 227.147403 
L 51.631837 227.943902 
L 51.733791 227.612451 
L 52.039655 230.748982 
L 52.345519 234.577727 
L 52.447473 234.299789 
L 52.549428 234.341616 
L 52.753337 235.945332 
L 52.855292 234.437415 
L 53.059201 234.940277 
L 53.161155 236.44515 
L 53.26311 236.182554 
L 53.568974 237.130158 
L 53.670928 237.099412 
L 53.772883 237.462568 
L 54.078747 237.31626 
L 54.282656 239.579695 
L 54.38461 238.869584 
L 54.486565 238.797733 
L 54.58852 239.56294 
L 54.690474 237.580375 
L 54.894383 242.538188 
L 54.996338 243.539298 
L 55.098292 243.279919 
L 55.302202 244.802398 
L 55.404156 244.811094 
L 55.506111 243.209046 
L 55.811975 245.845672 
L 55.913929 244.530455 
L 56.015884 246.000646 
L 56.219793 244.106621 
L 56.423702 249.80047 
L 56.525657 249.117462 
L 56.627611 250.471492 
L 56.83152 247.202936 
L 56.933475 246.304331 
L 57.137384 247.506627 
L 57.239339 247.538577 
L 57.443248 249.362876 
L 57.851066 251.322691 
L 57.953021 250.871386 
L 58.054975 251.701256 
L 58.15693 251.415822 
L 58.258884 250.646727 
L 58.360839 251.646901 
L 58.564748 250.948178 
L 58.666703 251.265445 
L 58.768657 250.972398 
L 58.870612 251.533077 
L 58.972566 251.319514 
L 59.176476 253.057535 
L 59.380385 254.274161 
L 59.482339 254.324525 
L 59.584294 255.616162 
L 59.686248 253.255558 
L 59.788203 254.859887 
L 59.992112 252.2918 
L 60.094067 253.061727 
L 60.297976 255.679125 
L 60.501885 252.490816 
L 60.60384 252.585671 
L 60.705794 253.686579 
L 60.807749 253.559271 
L 60.909703 253.234476 
L 61.113613 250.665425 
L 61.317522 252.304209 
L 61.521431 248.362081 
L 61.623385 249.659772 
L 61.827295 249.413658 
L 61.929249 247.481742 
L 62.031204 247.813113 
L 62.439022 251.337305 
L 62.540977 250.459724 
L 62.744886 252.675178 
L 62.84684 251.866021 
L 63.05075 252.93358 
L 63.152704 251.357194 
L 63.254659 251.500813 
L 63.356613 250.404513 
L 63.560522 250.977327 
L 63.764432 250.346653 
L 63.968341 253.074466 
L 64.070295 253.482809 
L 64.17225 254.39074 
L 64.274204 253.932762 
L 64.376159 254.033179 
L 64.478114 253.878555 
L 64.783977 257.295242 
L 64.987887 255.964471 
L 65.089841 255.018025 
L 65.191796 255.063498 
L 65.29375 254.648789 
L 65.395705 255.580997 
L 65.599614 254.635513 
L 65.905478 257.982756 
L 66.211341 254.577068 
L 66.313296 256.739445 
L 66.517205 255.571447 
L 66.61916 256.046555 
L 66.823069 254.675344 
L 67.026978 252.891122 
L 67.128933 254.435473 
L 67.332842 253.888526 
L 67.434796 252.100996 
L 67.536751 252.37041 
L 67.638706 251.846034 
L 67.74066 252.433819 
L 67.944569 250.679904 
L 68.046524 252.049383 
L 68.148478 251.792089 
L 68.250433 252.989612 
L 68.454342 252.020872 
L 68.556297 250.820002 
L 68.658251 251.269417 
L 68.760206 250.770763 
L 68.862161 251.253966 
L 69.06607 248.940314 
L 69.269979 250.456198 
L 69.371933 250.469327 
L 69.473888 250.012222 
L 69.575843 251.61682 
L 69.779752 250.130249 
L 69.983661 252.226163 
L 70.085615 251.264122 
L 70.18757 248.884124 
L 70.289525 248.999845 
L 70.493434 250.936287 
L 70.595388 251.210212 
L 70.799297 249.78785 
L 70.901252 248.174669 
L 71.003207 248.441842 
L 71.105161 246.705567 
L 71.30907 248.789118 
L 71.51298 245.454895 
L 71.614934 245.08203 
L 71.920798 242.77774 
L 72.022752 242.372131 
L 72.124707 243.05566 
L 72.226662 245.273297 
L 72.328616 243.558457 
L 72.430571 243.68972 
L 72.532525 245.820695 
L 72.63448 245.759731 
L 72.736434 245.7113 
L 72.838389 246.748277 
L 72.940344 246.555513 
L 73.042298 245.366071 
L 73.144253 247.645266 
L 73.246207 245.770558 
L 73.348162 245.885059 
L 73.552071 243.953879 
L 73.654026 244.467135 
L 73.75598 244.711818 
L 73.959889 243.66116 
L 74.061844 243.126059 
L 74.163799 243.893191 
L 74.265753 243.247583 
L 74.469662 243.851571 
L 74.571617 243.718429 
L 74.877481 245.4613 
L 74.979435 245.136572 
L 75.08139 243.924179 
L 75.183344 244.175405 
L 75.387254 245.500252 
L 75.489208 243.871192 
L 75.795072 244.968547 
L 75.897026 244.563425 
L 75.998981 242.472186 
L 76.100936 244.149534 
L 76.20289 243.767365 
L 76.304845 244.54464 
L 76.406799 244.455777 
L 76.508754 243.580285 
L 76.610708 243.823909 
L 76.712663 243.52153 
L 76.814618 243.702367 
L 77.018527 245.015972 
L 77.120481 244.565454 
L 77.426345 247.674172 
L 77.5283 247.33285 
L 77.732209 248.619243 
L 77.834163 247.938129 
L 78.038073 245.724543 
L 78.343936 246.440369 
L 78.445891 246.435467 
L 78.547845 246.832344 
L 78.6498 247.959067 
L 78.751755 247.77603 
L 78.955664 245.701563 
L 79.057618 245.447629 
L 79.159573 246.207092 
L 79.261527 245.628341 
L 79.363482 246.387718 
L 79.567391 250.322581 
L 79.669346 249.709064 
L 79.7713 251.424487 
L 79.873255 249.174374 
L 80.077164 252.279304 
L 80.179119 251.797409 
L 80.281073 251.846583 
L 80.383028 251.395331 
L 80.484982 251.501138 
L 80.586937 249.917311 
L 80.688892 250.134156 
L 80.790846 250.807348 
L 81.09671 249.563912 
L 81.606483 255.020696 
L 81.708437 254.65796 
L 81.810392 255.120254 
L 82.014301 257.465955 
L 82.116256 258.927202 
L 82.320165 256.692393 
L 82.422119 256.192022 
L 82.727983 257.936541 
L 83.033847 255.807053 
L 83.135801 255.920432 
L 83.237756 255.122122 
L 83.339711 257.593418 
L 83.441665 257.515679 
L 83.54362 258.031812 
L 83.849483 254.43407 
L 83.951438 254.330577 
L 84.053393 254.647808 
L 84.359256 258.160409 
L 84.66512 256.567112 
L 84.767075 256.853543 
L 84.869029 256.667175 
L 84.970984 257.082113 
L 85.174893 259.330407 
L 85.276848 257.693485 
L 85.378802 258.733136 
L 85.480757 258.599882 
L 85.684666 256.274866 
L 85.78662 255.312358 
L 85.888575 255.335312 
L 86.092484 257.111791 
L 86.194439 259.058513 
L 86.296393 258.599479 
L 86.398348 258.71195 
L 86.500303 259.203583 
L 86.704212 260.322471 
L 87.11203 254.959967 
L 87.213985 254.839133 
L 87.417894 252.859083 
L 87.519848 252.964893 
L 87.825712 255.772559 
L 87.927667 255.008024 
L 88.029621 255.745819 
L 88.131576 255.231528 
L 88.23353 255.427287 
L 88.43744 253.754402 
L 88.539394 253.9507 
L 88.743303 251.840453 
L 88.845258 251.855297 
L 89.151122 251.737082 
L 89.253076 252.531269 
L 89.355031 251.430851 
L 89.456985 253.072294 
L 89.55894 252.560556 
L 89.762849 254.592927 
L 89.864804 254.235758 
L 90.068713 255.957783 
L 90.476531 253.866165 
L 90.578486 256.542453 
L 90.68044 256.08956 
L 90.884349 258.659521 
L 90.986304 258.626198 
L 91.088259 259.202208 
L 91.394122 257.3911 
L 91.598031 259.584189 
L 91.801941 258.396799 
L 91.903895 259.116199 
L 92.209759 263.251384 
L 92.413668 259.83411 
L 92.617577 260.744036 
L 92.719532 261.015823 
L 92.821486 259.965119 
L 93.229305 261.869497 
L 93.331259 262.982506 
L 93.535168 261.684479 
L 93.637123 262.053112 
L 93.739078 263.801473 
L 93.942987 263.333565 
L 94.044941 264.139922 
L 94.146896 263.613986 
L 94.350805 261.373448 
L 94.656669 264.565405 
L 94.758623 264.581323 
L 94.962533 265.633817 
L 95.064487 264.47893 
L 95.166442 264.581625 
L 95.268396 264.510124 
L 95.676215 261.568234 
L 95.778169 262.528316 
L 95.880124 262.454643 
L 95.982078 262.35877 
L 96.084033 263.607886 
L 96.389897 260.869873 
L 96.491851 260.806679 
L 96.593806 260.22259 
L 96.797715 262.759478 
L 97.001624 261.908941 
L 97.103579 260.828252 
L 97.205533 261.549987 
L 97.511397 257.004447 
L 97.613352 257.104162 
L 97.715306 257.623684 
L 97.919215 255.796435 
L 98.02117 258.2519 
L 98.225079 256.55831 
L 98.327034 256.538917 
L 98.428988 257.26815 
L 98.530943 257.127069 
L 98.632897 257.988393 
L 98.734852 256.958767 
L 98.938761 252.388138 
L 99.040716 252.871063 
L 99.14267 252.077968 
L 99.244625 252.127265 
L 99.346579 252.154488 
L 99.448534 250.511812 
L 99.550489 250.747151 
L 99.652443 250.373914 
L 100.46808 235.596396 
L 100.671989 236.530028 
L 100.773943 235.811966 
L 100.977853 237.763429 
L 101.079807 235.162257 
L 101.181762 235.390727 
L 101.385671 235.807127 
L 101.487626 235.495038 
L 101.58958 236.360578 
L 101.691535 236.289997 
L 101.793489 237.103728 
L 101.895444 236.56059 
L 101.997398 237.449196 
L 102.201308 239.848002 
L 102.405217 240.846405 
L 102.507171 240.139544 
L 102.609126 240.239492 
L 102.71108 241.376521 
L 102.813035 240.721497 
L 103.016944 242.695325 
L 103.118899 242.017596 
L 103.424763 243.685204 
L 103.526717 245.076531 
L 103.628672 244.239813 
L 103.730626 244.782148 
L 103.832581 246.892728 
L 103.934535 245.095913 
L 103.934535 245.095913 
" clip-path="url(#p3e3e8f659e)" style="fill: none; stroke: #8000ff; stroke-width: 2; stroke-linecap: square"/>
   </g>
   <g class="patch">
    <path d="M 37.867969 269.712 
L 37.867969 154.01113 
" style="fill: none; stroke:var(--black); stroke-width: 0.8; stroke-linejoin: miter; stroke-linecap: square"/>
   </g>
   <g class="patch">
    <path d="M 37.867969 269.712 
L 106.006103 269.712 
" style="fill: none; stroke:var(--black); stroke-width: 0.8; stroke-linejoin: miter; stroke-linecap: square"/>
   </g>
  </g>
 </g>
 <defs>
  <clipPath id="p8fd68a956e">
   <rect x="37.867969" y="3.6" width="68.138134" height="115.70087"/>
  </clipPath>
  <clipPath id="p3e3e8f659e">
   <rect x="37.867969" y="154.01113" width="68.138134" height="115.70087"/>
  </clipPath>
 </defs>
</svg>
