<?xml version="1.0" encoding="utf-8" standalone="no"?>
<!DOCTYPE svg PUBLIC "-//W3C//DTD SVG 1.1//EN"
  "http://www.w3.org/Graphics/SVG/1.1/DTD/svg11.dtd">
<svg xmlns:xlink="http://www.w3.org/1999/xlink" width="407.358125pt" height="308.055359pt" viewBox="0 0 407.358125 308.055359" xmlns="http://www.w3.org/2000/svg" version="1.1">
<style>:root { --axis-color:#000; --grid-stroke:rgba(0,0,0,0.2); --plot3d-stroke:rgba(0,0,0,0.3); --plot3d-grid:rgba(0,0,0,0.2); }
@media (prefers-color-scheme:dark) { :root { --axis-color:#fff; --grid-stroke:rgba(255,255,255,0.2); --plot3d-stroke:rgba(255,255,255,0.3); --plot3d-grid:rgba(255,255,255,0.2); } }
.black{fill:#000000;stroke:#000000;}:root{--black:#000000;}.c1{fill:#FF0001;stroke:#FF0001;}:root{--c1:#FF0001;}.c2{fill:#00FF02;stroke:#00FF02;}:root{--c2:#00FF02;}.c3{fill:#0000FF;stroke:#0000FF;}:root{--c3:#0000FF;}.c4{fill:#FF00FF;stroke:#FF00FF;}:root{--c4:#FF00FF;}.c5{fill:#00FFFF;stroke:#00FFFF;}:root{--c5:#00FFFF;}.c6{fill:#FFFF00;stroke:#FFFF00;}:root{--c6:#FFFF00;}.c7{fill:#FF8000;stroke:#FF8000;}:root{--c7:#FF8000;}.c8{fill:#8000FF;stroke:#8000FF;}:root{--c8:#8000FF;}.gray{fill:#7f7f7f;stroke:#7f7f7f;}:root{--gray:#7f7f7f;}.grey{fill:#7f7f7f;stroke:#7f7f7f;}:root{--grey:#7f7f7f;}.octonary{fill:#bcbd22;stroke:#bcbd22;}:root{--octonary:#bcbd22;}.primary{fill:#d62728;stroke:#d62728;}:root{--primary:#d62728;}.quaternary{fill:#9467bd;stroke:#9467bd;}:root{--quaternary:#9467bd;}.quinary{fill:#8c564b;stroke:#8c564b;}:root{--quinary:#8c564b;}.secondary{fill:#2ca02c;stroke:#2ca02c;}:root{--secondary:#2ca02c;}.senary{fill:#e377c2;stroke:#e377c2;}:root{--senary:#e377c2;}.septenary{fill:#7f7f7f;stroke:#7f7f7f;}:root{--septenary:#7f7f7f;}.tertiary{fill:#1f77b4;stroke:#1f77b4;}:root{--tertiary:#1f77b4;}.white{fill:#ffffff;stroke:#ffffff;}:root{--white:#ffffff;}
@media (prefers-color-scheme:dark) { .black{fill:#FFFFFF;stroke:#FFFFFF;}:root{--black:#FFFFFF;}.c1{fill:#FF0001;stroke:#FF0001;}:root{--c1:#FF0001;}.c2{fill:#00FF02;stroke:#00FF02;}:root{--c2:#00FF02;}.c3{fill:#0000FF;stroke:#0000FF;}:root{--c3:#0000FF;}.c4{fill:#FF00FF;stroke:#FF00FF;}:root{--c4:#FF00FF;}.c5{fill:#00FFFF;stroke:#00FFFF;}:root{--c5:#00FFFF;}.c6{fill:#FFFF00;stroke:#FFFF00;}:root{--c6:#FFFF00;}.c7{fill:#FF8000;stroke:#FF8000;}:root{--c7:#FF8000;}.c8{fill:#8000FF;stroke:#8000FF;}:root{--c8:#8000FF;}.gray{fill:#CCCCCC;stroke:#CCCCCC;}:root{--gray:#CCCCCC;}.grey{fill:#CCCCCC;stroke:#CCCCCC;}:root{--grey:#CCCCCC;}.octonary{fill:#E6DB74;stroke:#E6DB74;}:root{--octonary:#E6DB74;}.primary{fill:#FF4A98;stroke:#FF4A98;}:root{--primary:#FF4A98;}.quaternary{fill:#B4A0FF;stroke:#B4A0FF;}:root{--quaternary:#B4A0FF;}.quinary{fill:#FFB86B;stroke:#FFB86B;}:root{--quinary:#FFB86B;}.secondary{fill:#0AFAFA;stroke:#0AFAFA;}:root{--secondary:#0AFAFA;}.senary{fill:#FF79C6;stroke:#FF79C6;}:root{--senary:#FF79C6;}.septenary{fill:#CCCCCC;stroke:#CCCCCC;}:root{--septenary:#CCCCCC;}.tertiary{fill:#7F83FF;stroke:#7F83FF;}:root{--tertiary:#7F83FF;}.white{fill:#000000;stroke:#000000;}:root{--white:#000000;} }
text,.text { fill:var(--axis-color)!important; stroke:none!important; }
.axis line,.axis path,.tick line,.tick path,path.domain,line.grid { stroke:var(--axis-color)!important; }
.legend text { fill:var(--axis-color)!important; }
.patch path[style*="stroke: currentColor"] { stroke:var(--axis-color)!important; }
g.legend>g:first-child>path:first-child { fill:rgba(255,255,255,0.8)!important; stroke:rgba(0,0,0,0.1)!important; }
@media (prefers-color-scheme:dark) { g.legend>g:first-child>path:first-child { fill:rgba(26,26,26,0.8)!important; stroke:rgba(255,255,255,0.1)!important; } }
.plot3d path,.plot3d polygon { stroke:var(--plot3d-stroke)!important; }
.plot3d-grid line { stroke:var(--plot3d-grid)!important; }
.plot3d-surface path[style*="fill:"] { fill-opacity:0.9!important; }
@media (prefers-color-scheme:dark) { .plot3d-surface path[style*="fill:"] { fill-opacity:0.95!important; filter:saturate(1.2)!important; } }</style>

 <metadata>
  <rdf:RDF xmlns:dc="http://purl.org/dc/elements/1.1/" xmlns:cc="http://creativecommons.org/ns#" xmlns:rdf="http://www.w3.org/1999/02/22-rdf-syntax-ns#">
   <cc:Work>
    <dc:type rdf:resource="http://purl.org/dc/dcmitype/StillImage"/>
    <dc:date>2026-01-03T22:23:10.552641</dc:date>
    <dc:format>image/svg+xml</dc:format>
    <dc:creator>
     <cc:Agent>
      <dc:title>Matplotlib v3.10.0, https://matplotlib.org/</dc:title>
     </cc:Agent>
    </dc:creator>
   </cc:Work>
  </rdf:RDF>
 </metadata>
 <defs>
  <style type="text/css">*{stroke-linejoin: round; stroke-linecap: butt}</style>
 </defs>
 <g id="figure_1">
  <g class="patch">
   <path d="M 0 308.055359 
L 407.358125 308.055359 
L 407.358125 0 
L 0 0 
L 0 308.055359 
z
" style="fill: none"/>
  </g>
  <g id="axes_1">
   <g class="patch">
    <path d="M 39.481719 273.131297 
L 396.601719 273.131297 
L 396.601719 7.019297 
L 39.481719 7.019297 
L 39.481719 273.131297 
z
" style="fill: none"/>
   </g>
   <g class="axis">
    <g class="tick xtick">
     <g id="line2d_1">
      <path d="M 39.481719 273.131297 
L 39.481719 7.019297 
" clip-path="url(#p7782119866)" style="fill: none; stroke: #b0b0b0; stroke-opacity: 0.15; stroke-width: 0.5; stroke-linecap: square"/>
     </g>
     <g id="line2d_2">
      <defs>
       <path id="m240bd3235b" d="M 0 0 
L 0 3.5 
" style="stroke:var(--black); stroke-width: 0.8"/>
      </defs>
      <g>
       <use xlink:href="#m240bd3235b" x="39.481719" y="273.131297" style="stroke:var(--black); stroke-width: 0.8"/>
      </g>
     </g>
     <g id="text_1" class="text">
      <!-- 0.0 -->
      <g transform="translate(32.325312 286.969891) scale(0.09 -0.09)">
       <defs>
        <path id="DejaVuSerif-30" d="M 2034 219 
Q 2513 219 2750 744 
Q 2988 1269 2988 2328 
Q 2988 3391 2750 3916 
Q 2513 4441 2034 4441 
Q 1556 4441 1318 3916 
Q 1081 3391 1081 2328 
Q 1081 1269 1318 744 
Q 1556 219 2034 219 
z
M 2034 -91 
Q 1275 -91 848 546 
Q 422 1184 422 2328 
Q 422 3475 848 4112 
Q 1275 4750 2034 4750 
Q 2797 4750 3222 4112 
Q 3647 3475 3647 2328 
Q 3647 1184 3222 546 
Q 2797 -91 2034 -91 
z
" transform="scale(0.015625)"/>
        <path id="DejaVuSerif-2e" d="M 603 325 
Q 603 500 722 622 
Q 841 744 1019 744 
Q 1191 744 1312 622 
Q 1434 500 1434 325 
Q 1434 153 1312 31 
Q 1191 -91 1019 -91 
Q 841 -91 722 29 
Q 603 150 603 325 
z
" transform="scale(0.015625)"/>
       </defs>
       <use xlink:href="#DejaVuSerif-30"/>
       <use xlink:href="#DejaVuSerif-2e" transform="translate(63.623047 0)"/>
       <use xlink:href="#DejaVuSerif-30" transform="translate(95.410156 0)"/>
      </g>
     </g>
    </g>
    <g class="tick xtick">
     <g id="line2d_3">
      <path d="M 110.905719 273.131297 
L 110.905719 7.019297 
" clip-path="url(#p7782119866)" style="fill: none; stroke: #b0b0b0; stroke-opacity: 0.15; stroke-width: 0.5; stroke-linecap: square"/>
     </g>
     <g id="line2d_4">
      <g>
       <use xlink:href="#m240bd3235b" x="110.905719" y="273.131297" style="stroke:var(--black); stroke-width: 0.8"/>
      </g>
     </g>
     <g id="text_2" class="text">
      <!-- 0.2 -->
      <g transform="translate(103.749313 286.969891) scale(0.09 -0.09)">
       <defs>
        <path id="DejaVuSerif-32" d="M 819 3553 
L 469 3553 
L 469 4384 
Q 803 4563 1142 4656 
Q 1481 4750 1806 4750 
Q 2534 4750 2956 4397 
Q 3378 4044 3378 3438 
Q 3378 2753 2422 1800 
Q 2347 1728 2309 1691 
L 1131 513 
L 3078 513 
L 3078 1088 
L 3444 1088 
L 3444 0 
L 434 0 
L 434 341 
L 1850 1753 
Q 2319 2222 2519 2614 
Q 2719 3006 2719 3438 
Q 2719 3909 2473 4175 
Q 2228 4441 1797 4441 
Q 1350 4441 1106 4219 
Q 863 3997 819 3553 
z
" transform="scale(0.015625)"/>
       </defs>
       <use xlink:href="#DejaVuSerif-30"/>
       <use xlink:href="#DejaVuSerif-2e" transform="translate(63.623047 0)"/>
       <use xlink:href="#DejaVuSerif-32" transform="translate(95.410156 0)"/>
      </g>
     </g>
    </g>
    <g class="tick xtick">
     <g id="line2d_5">
      <path d="M 182.329719 273.131297 
L 182.329719 7.019297 
" clip-path="url(#p7782119866)" style="fill: none; stroke: #b0b0b0; stroke-opacity: 0.15; stroke-width: 0.5; stroke-linecap: square"/>
     </g>
     <g id="line2d_6">
      <g>
       <use xlink:href="#m240bd3235b" x="182.329719" y="273.131297" style="stroke:var(--black); stroke-width: 0.8"/>
      </g>
     </g>
     <g id="text_3" class="text">
      <!-- 0.4 -->
      <g transform="translate(175.173313 286.969891) scale(0.09 -0.09)">
       <defs>
        <path id="DejaVuSerif-34" d="M 2234 1581 
L 2234 4063 
L 641 1581 
L 2234 1581 
z
M 3609 0 
L 1484 0 
L 1484 331 
L 2234 331 
L 2234 1247 
L 197 1247 
L 197 1588 
L 2241 4750 
L 2859 4750 
L 2859 1581 
L 3750 1581 
L 3750 1247 
L 2859 1247 
L 2859 331 
L 3609 331 
L 3609 0 
z
" transform="scale(0.015625)"/>
       </defs>
       <use xlink:href="#DejaVuSerif-30"/>
       <use xlink:href="#DejaVuSerif-2e" transform="translate(63.623047 0)"/>
       <use xlink:href="#DejaVuSerif-34" transform="translate(95.410156 0)"/>
      </g>
     </g>
    </g>
    <g class="tick xtick">
     <g id="line2d_7">
      <path d="M 253.753719 273.131297 
L 253.753719 7.019297 
" clip-path="url(#p7782119866)" style="fill: none; stroke: #b0b0b0; stroke-opacity: 0.15; stroke-width: 0.5; stroke-linecap: square"/>
     </g>
     <g id="line2d_8">
      <g>
       <use xlink:href="#m240bd3235b" x="253.753719" y="273.131297" style="stroke:var(--black); stroke-width: 0.8"/>
      </g>
     </g>
     <g id="text_4" class="text">
      <!-- 0.6 -->
      <g transform="translate(246.597313 286.969891) scale(0.09 -0.09)">
       <defs>
        <path id="DejaVuSerif-36" d="M 2094 219 
Q 2534 219 2771 542 
Q 3009 866 3009 1472 
Q 3009 2078 2771 2401 
Q 2534 2725 2094 2725 
Q 1647 2725 1412 2412 
Q 1178 2100 1178 1509 
Q 1178 888 1415 553 
Q 1653 219 2094 219 
z
M 1075 2569 
Q 1288 2803 1556 2918 
Q 1825 3034 2163 3034 
Q 2859 3034 3264 2615 
Q 3669 2197 3669 1472 
Q 3669 763 3233 336 
Q 2797 -91 2069 -91 
Q 1278 -91 853 498 
Q 428 1088 428 2181 
Q 428 3406 931 4078 
Q 1434 4750 2350 4750 
Q 2597 4750 2869 4703 
Q 3141 4656 3425 4563 
L 3425 3794 
L 3072 3794 
Q 3034 4109 2831 4275 
Q 2628 4441 2284 4441 
Q 1678 4441 1381 3981 
Q 1084 3522 1075 2569 
z
" transform="scale(0.015625)"/>
       </defs>
       <use xlink:href="#DejaVuSerif-30"/>
       <use xlink:href="#DejaVuSerif-2e" transform="translate(63.623047 0)"/>
       <use xlink:href="#DejaVuSerif-36" transform="translate(95.410156 0)"/>
      </g>
     </g>
    </g>
    <g class="tick xtick">
     <g id="line2d_9">
      <path d="M 325.177719 273.131297 
L 325.177719 7.019297 
" clip-path="url(#p7782119866)" style="fill: none; stroke: #b0b0b0; stroke-opacity: 0.15; stroke-width: 0.5; stroke-linecap: square"/>
     </g>
     <g id="line2d_10">
      <g>
       <use xlink:href="#m240bd3235b" x="325.177719" y="273.131297" style="stroke:var(--black); stroke-width: 0.8"/>
      </g>
     </g>
     <g id="text_5" class="text">
      <!-- 0.8 -->
      <g transform="translate(318.021313 286.969891) scale(0.09 -0.09)">
       <defs>
        <path id="DejaVuSerif-38" d="M 2981 1275 
Q 2981 1775 2732 2051 
Q 2484 2328 2034 2328 
Q 1584 2328 1336 2051 
Q 1088 1775 1088 1275 
Q 1088 772 1336 495 
Q 1584 219 2034 219 
Q 2484 219 2732 495 
Q 2981 772 2981 1275 
z
M 2853 3541 
Q 2853 3966 2637 4203 
Q 2422 4441 2034 4441 
Q 1650 4441 1433 4203 
Q 1216 3966 1216 3541 
Q 1216 3113 1433 2875 
Q 1650 2638 2034 2638 
Q 2422 2638 2637 2875 
Q 2853 3113 2853 3541 
z
M 2516 2484 
Q 3047 2413 3344 2092 
Q 3641 1772 3641 1275 
Q 3641 619 3225 264 
Q 2809 -91 2034 -91 
Q 1263 -91 845 264 
Q 428 619 428 1275 
Q 428 1772 725 2092 
Q 1022 2413 1556 2484 
Q 1084 2569 832 2842 
Q 581 3116 581 3541 
Q 581 4103 968 4426 
Q 1356 4750 2034 4750 
Q 2713 4750 3100 4426 
Q 3488 4103 3488 3541 
Q 3488 3116 3236 2842 
Q 2984 2569 2516 2484 
z
" transform="scale(0.015625)"/>
       </defs>
       <use xlink:href="#DejaVuSerif-30"/>
       <use xlink:href="#DejaVuSerif-2e" transform="translate(63.623047 0)"/>
       <use xlink:href="#DejaVuSerif-38" transform="translate(95.410156 0)"/>
      </g>
     </g>
    </g>
    <g class="tick xtick">
     <g id="line2d_11">
      <path d="M 396.601719 273.131297 
L 396.601719 7.019297 
" clip-path="url(#p7782119866)" style="fill: none; stroke: #b0b0b0; stroke-opacity: 0.15; stroke-width: 0.5; stroke-linecap: square"/>
     </g>
     <g id="line2d_12">
      <g>
       <use xlink:href="#m240bd3235b" x="396.601719" y="273.131297" style="stroke:var(--black); stroke-width: 0.8"/>
      </g>
     </g>
     <g id="text_6" class="text">
      <!-- 1.0 -->
      <g transform="translate(389.445313 286.969891) scale(0.09 -0.09)">
       <defs>
        <path id="DejaVuSerif-31" d="M 909 0 
L 909 331 
L 1722 331 
L 1722 4213 
L 781 3603 
L 781 4013 
L 1919 4750 
L 2350 4750 
L 2350 331 
L 3163 331 
L 3163 0 
L 909 0 
z
" transform="scale(0.015625)"/>
       </defs>
       <use xlink:href="#DejaVuSerif-31"/>
       <use xlink:href="#DejaVuSerif-2e" transform="translate(63.623047 0)"/>
       <use xlink:href="#DejaVuSerif-30" transform="translate(95.410156 0)"/>
      </g>
     </g>
    </g>
    <g id="text_7" class="text">
     <!-- x -->
     <g transform="translate(214.658281 301.959734) scale(0.12 -0.12)">
      <defs>
       <path id="DejaVuSerif-78" d="M 1863 2028 
L 2559 2988 
L 2113 2988 
L 2113 3322 
L 3391 3322 
L 3391 2988 
L 2950 2988 
L 2059 1759 
L 3097 331 
L 3531 331 
L 3531 0 
L 1997 0 
L 1997 331 
L 2419 331 
L 1697 1325 
L 972 331 
L 1403 331 
L 1403 0 
L 141 0 
L 141 331 
L 581 331 
L 1497 1594 
L 488 2988 
L 78 2988 
L 78 3322 
L 1563 3322 
L 1563 2988 
L 1166 2988 
L 1863 2028 
z
" transform="scale(0.015625)"/>
      </defs>
      <use xlink:href="#DejaVuSerif-78"/>
     </g>
    </g>
   </g>
   <g class="axis">
    <g class="tick ytick">
     <g id="line2d_13">
      <path d="M 39.481719 273.131297 
L 396.601719 273.131297 
" clip-path="url(#p7782119866)" style="fill: none; stroke: #b0b0b0; stroke-opacity: 0.15; stroke-width: 0.5; stroke-linecap: square"/>
     </g>
     <g id="line2d_14">
      <defs>
       <path id="m8cd87dd7cb" d="M 0 0 
L -3.5 0 
" style="stroke:var(--black); stroke-width: 0.8"/>
      </defs>
      <g>
       <use xlink:href="#m8cd87dd7cb" x="39.481719" y="273.131297" style="stroke:var(--black); stroke-width: 0.8"/>
      </g>
     </g>
     <g id="text_8" class="text">
      <!-- −3 -->
      <g transform="translate(19.21375 276.550594) scale(0.09 -0.09)">
       <defs>
        <path id="DejaVuSerif-2212" d="M 678 2259 
L 4684 2259 
L 4684 1753 
L 678 1753 
L 678 2259 
z
" transform="scale(0.015625)"/>
        <path id="DejaVuSerif-33" d="M 622 4469 
Q 988 4606 1323 4678 
Q 1659 4750 1953 4750 
Q 2638 4750 3022 4454 
Q 3406 4159 3406 3634 
Q 3406 3213 3140 2930 
Q 2875 2647 2388 2547 
Q 2963 2466 3280 2130 
Q 3597 1794 3597 1259 
Q 3597 606 3158 257 
Q 2719 -91 1894 -91 
Q 1528 -91 1179 -12 
Q 831 66 488 225 
L 488 1131 
L 838 1131 
Q 869 681 1141 450 
Q 1413 219 1906 219 
Q 2384 219 2661 495 
Q 2938 772 2938 1253 
Q 2938 1803 2653 2086 
Q 2369 2369 1819 2369 
L 1522 2369 
L 1522 2688 
L 1678 2688 
Q 2225 2688 2498 2914 
Q 2772 3141 2772 3597 
Q 2772 4006 2547 4223 
Q 2322 4441 1900 4441 
Q 1478 4441 1245 4241 
Q 1013 4041 972 3647 
L 622 3647 
L 622 4469 
z
" transform="scale(0.015625)"/>
       </defs>
       <use xlink:href="#DejaVuSerif-2212"/>
       <use xlink:href="#DejaVuSerif-33" transform="translate(83.789062 0)"/>
      </g>
     </g>
    </g>
    <g class="tick ytick">
     <g id="line2d_15">
      <path d="M 39.481719 228.779297 
L 396.601719 228.779297 
" clip-path="url(#p7782119866)" style="fill: none; stroke: #b0b0b0; stroke-opacity: 0.15; stroke-width: 0.5; stroke-linecap: square"/>
     </g>
     <g id="line2d_16">
      <g>
       <use xlink:href="#m8cd87dd7cb" x="39.481719" y="228.779297" style="stroke:var(--black); stroke-width: 0.8"/>
      </g>
     </g>
     <g id="text_9" class="text">
      <!-- −2 -->
      <g transform="translate(19.21375 232.198594) scale(0.09 -0.09)">
       <use xlink:href="#DejaVuSerif-2212"/>
       <use xlink:href="#DejaVuSerif-32" transform="translate(83.789062 0)"/>
      </g>
     </g>
    </g>
    <g class="tick ytick">
     <g id="line2d_17">
      <path d="M 39.481719 184.427297 
L 396.601719 184.427297 
" clip-path="url(#p7782119866)" style="fill: none; stroke: #b0b0b0; stroke-opacity: 0.15; stroke-width: 0.5; stroke-linecap: square"/>
     </g>
     <g id="line2d_18">
      <g>
       <use xlink:href="#m8cd87dd7cb" x="39.481719" y="184.427297" style="stroke:var(--black); stroke-width: 0.8"/>
      </g>
     </g>
     <g id="text_10" class="text">
      <!-- −1 -->
      <g transform="translate(19.21375 187.846594) scale(0.09 -0.09)">
       <use xlink:href="#DejaVuSerif-2212"/>
       <use xlink:href="#DejaVuSerif-31" transform="translate(83.789062 0)"/>
      </g>
     </g>
    </g>
    <g class="tick ytick">
     <g id="line2d_19">
      <path d="M 39.481719 140.075297 
L 396.601719 140.075297 
" clip-path="url(#p7782119866)" style="fill: none; stroke: #b0b0b0; stroke-opacity: 0.15; stroke-width: 0.5; stroke-linecap: square"/>
     </g>
     <g id="line2d_20">
      <g>
       <use xlink:href="#m8cd87dd7cb" x="39.481719" y="140.075297" style="stroke:var(--black); stroke-width: 0.8"/>
      </g>
     </g>
     <g id="text_11" class="text">
      <!-- 0 -->
      <g transform="translate(26.755469 143.494594) scale(0.09 -0.09)">
       <use xlink:href="#DejaVuSerif-30"/>
      </g>
     </g>
    </g>
    <g class="tick ytick">
     <g id="line2d_21">
      <path d="M 39.481719 95.723297 
L 396.601719 95.723297 
" clip-path="url(#p7782119866)" style="fill: none; stroke: #b0b0b0; stroke-opacity: 0.15; stroke-width: 0.5; stroke-linecap: square"/>
     </g>
     <g id="line2d_22">
      <g>
       <use xlink:href="#m8cd87dd7cb" x="39.481719" y="95.723297" style="stroke:var(--black); stroke-width: 0.8"/>
      </g>
     </g>
     <g id="text_12" class="text">
      <!-- 1 -->
      <g transform="translate(26.755469 99.142594) scale(0.09 -0.09)">
       <use xlink:href="#DejaVuSerif-31"/>
      </g>
     </g>
    </g>
    <g class="tick ytick">
     <g id="line2d_23">
      <path d="M 39.481719 51.371297 
L 396.601719 51.371297 
" clip-path="url(#p7782119866)" style="fill: none; stroke: #b0b0b0; stroke-opacity: 0.15; stroke-width: 0.5; stroke-linecap: square"/>
     </g>
     <g id="line2d_24">
      <g>
       <use xlink:href="#m8cd87dd7cb" x="39.481719" y="51.371297" style="stroke:var(--black); stroke-width: 0.8"/>
      </g>
     </g>
     <g id="text_13" class="text">
      <!-- 2 -->
      <g transform="translate(26.755469 54.790594) scale(0.09 -0.09)">
       <use xlink:href="#DejaVuSerif-32"/>
      </g>
     </g>
    </g>
    <g class="tick ytick">
     <g id="line2d_25">
      <path d="M 39.481719 7.019297 
L 396.601719 7.019297 
" clip-path="url(#p7782119866)" style="fill: none; stroke: #b0b0b0; stroke-opacity: 0.15; stroke-width: 0.5; stroke-linecap: square"/>
     </g>
     <g id="line2d_26">
      <g>
       <use xlink:href="#m8cd87dd7cb" x="39.481719" y="7.019297" style="stroke:var(--black); stroke-width: 0.8"/>
      </g>
     </g>
     <g id="text_14" class="text">
      <!-- 3 -->
      <g transform="translate(26.755469 10.438594) scale(0.09 -0.09)">
       <use xlink:href="#DejaVuSerif-33"/>
      </g>
     </g>
    </g>
    <g id="text_15" class="text">
     <!-- y -->
     <g transform="translate(12.5475 143.465297) rotate(-90) scale(0.12 -0.12)">
      <defs>
       <path id="DejaVuSerif-79" d="M 1381 -609 
L 1600 -56 
L 359 2988 
L -19 2988 
L -19 3322 
L 1509 3322 
L 1509 2988 
L 978 2988 
L 1913 703 
L 2847 2988 
L 2350 2988 
L 2350 3322 
L 3597 3322 
L 3597 2988 
L 3225 2988 
L 1703 -750 
Q 1547 -1138 1356 -1280 
Q 1166 -1422 819 -1422 
Q 672 -1422 517 -1397 
Q 363 -1372 206 -1325 
L 206 -691 
L 500 -691 
Q 519 -903 608 -995 
Q 697 -1088 884 -1088 
Q 1056 -1088 1161 -992 
Q 1266 -897 1381 -609 
z
" transform="scale(0.015625)"/>
      </defs>
      <use xlink:href="#DejaVuSerif-79"/>
     </g>
    </g>
   </g>
   <g id="line2d_27">
    <path d="M 39.481719 140.075297 
L 54.697358 128.343371 
L 62.752696 122.419339 
L 69.912997 117.447213 
L 76.17826 113.388245 
L 81.548486 110.165199 
L 86.918711 107.208968 
L 91.393899 104.968363 
L 95.869087 102.945289 
L 100.344275 101.152283 
L 104.819463 99.600453 
L 109.294651 98.299416 
L 113.769839 97.257233 
L 118.245027 96.480362 
L 122.720215 95.973617 
L 127.195403 95.740137 
L 131.670591 95.781369 
L 136.145779 96.097058 
L 140.620967 96.685247 
L 145.096155 97.542293 
L 149.571343 98.662884 
L 154.046531 100.040077 
L 158.521719 101.665338 
L 162.996907 103.528598 
L 167.472095 105.61831 
L 171.947283 107.921527 
L 177.317508 110.947031 
L 182.687734 114.232376 
L 188.952997 118.354474 
L 195.21826 122.740232 
L 203.273598 128.680505 
L 214.01405 136.935011 
L 233.704877 152.14363 
L 241.760215 158.051054 
L 248.025478 162.402338 
L 254.290741 166.482603 
L 259.660967 169.726617 
L 265.031192 172.706124 
L 270.401418 175.394545 
L 274.876606 177.395153 
L 279.351794 179.164518 
L 283.826982 180.691675 
L 288.30217 181.967164 
L 292.777358 182.983079 
L 297.252546 183.733127 
L 301.727734 184.212659 
L 306.202922 184.418705 
L 310.67811 184.349987 
L 315.153298 184.006932 
L 319.628486 183.391666 
L 324.103674 182.508 
L 328.578862 181.361409 
L 333.05405 179.959 
L 337.529238 178.30946 
L 342.004426 176.423012 
L 346.479613 174.311344 
L 351.849839 171.498569 
L 357.220065 168.405479 
L 362.59029 165.059668 
L 368.855553 160.876741 
L 376.015854 155.790174 
L 384.071192 149.774241 
L 395.706681 140.773694 
L 396.601719 140.075297 
L 396.601719 140.075297 
" clip-path="url(#p7782119866)" style="fill: none; stroke-dasharray: 7.4,3.2; stroke-dashoffset: 0; stroke:var(--black); stroke-width: 2"/>
   </g>
   <g id="line2d_28">
    <path d="M 39.481719 114.512779 
L 396.601719 164.287343 
L 396.601719 164.287343 
" clip-path="url(#p7782119866)" style="fill: none; stroke: #008000; stroke-width: 2; stroke-linecap: square"/>
   </g>
   <g id="line2d_29">
    <path d="M 39.481719 149.293969 
L 43.956907 142.85133 
L 48.432095 136.882885 
L 52.012245 132.441319 
L 55.592395 128.289126 
L 59.172546 124.420035 
L 62.752696 120.827776 
L 66.332847 117.506075 
L 69.912997 114.448663 
L 73.493147 111.649267 
L 77.073298 109.101616 
L 80.653448 106.799438 
L 84.233598 104.736462 
L 87.813749 102.906417 
L 91.393899 101.303031 
L 94.97405 99.920032 
L 98.5542 98.75115 
L 102.13435 97.790112 
L 105.714501 97.030647 
L 109.294651 96.466483 
L 112.874801 96.09135 
L 116.454952 95.898976 
L 120.93014 95.905958 
L 125.405328 96.176452 
L 129.880516 96.69821 
L 134.355704 97.458982 
L 138.830892 98.446519 
L 143.30608 99.648573 
L 147.781268 101.052894 
L 153.151493 102.987825 
L 158.521719 105.175217 
L 163.891944 107.593903 
L 170.157207 110.679796 
L 176.422471 114.018084 
L 183.582771 118.099211 
L 191.63811 122.969581 
L 200.588486 128.643919 
L 213.119012 136.87167 
L 235.494952 151.606997 
L 245.340365 157.784598 
L 253.395704 162.567645 
L 260.556004 166.552027 
L 266.821268 169.7909 
L 273.086531 172.763595 
L 278.456756 175.074287 
L 283.826982 177.14356 
L 289.197207 178.950249 
L 293.672395 180.239967 
L 298.147583 181.320387 
L 302.622771 182.179259 
L 307.097959 182.804335 
L 311.573147 183.183367 
L 316.048335 183.304104 
L 320.523523 183.154297 
L 324.103674 182.83143 
L 327.683824 182.321304 
L 331.263974 181.617649 
L 334.844125 180.714192 
L 338.424275 179.604662 
L 342.004426 178.282787 
L 345.584576 176.742297 
L 349.164726 174.97692 
L 352.744877 172.980384 
L 356.325027 170.746418 
L 359.905177 168.268749 
L 363.485328 165.541108 
L 367.065478 162.557222 
L 370.645629 159.31082 
L 374.225779 155.79563 
L 377.805929 152.005382 
L 381.38608 147.933802 
L 384.96623 143.574621 
L 388.54638 138.921566 
L 392.126531 133.968366 
L 396.601719 127.345233 
L 396.601719 127.345233 
" clip-path="url(#p7782119866)" style="fill: none; stroke: #ff0000; stroke-width: 2; stroke-linecap: square"/>
   </g>
   <g id="line2d_30">
    <path d="M 39.481719 146.753189 
L 40.376756 149.999703 
L 41.271794 152.774676 
L 42.166832 155.110443 
L 43.061869 157.037813 
L 43.956907 158.586129 
L 44.851944 159.783312 
L 45.746982 160.655914 
L 46.64202 161.229167 
L 47.537057 161.527029 
L 48.432095 161.572229 
L 49.327132 161.386314 
L 50.22217 160.989692 
L 51.117207 160.401673 
L 52.012245 159.640514 
L 53.80232 157.666756 
L 55.592395 155.194853 
L 57.382471 152.336819 
L 60.067583 147.538369 
L 64.542771 138.840739 
L 69.912997 128.395973 
L 73.493147 121.940038 
L 76.17826 117.511286 
L 78.863373 113.493522 
L 81.548486 109.914565 
L 84.233598 106.784745 
L 86.918711 104.100264 
L 89.603824 101.84616 
L 92.288937 99.998919 
L 94.97405 98.528763 
L 97.659162 97.40163 
L 100.344275 96.58087 
L 103.029388 96.028699 
L 105.714501 95.707404 
L 108.399613 95.580347 
L 111.979764 95.653359 
L 116.454952 96.030046 
L 121.825177 96.739031 
L 153.151493 101.543937 
L 159.416756 102.690301 
L 164.786982 103.916281 
L 169.26217 105.173919 
L 173.737358 106.692061 
L 177.317508 108.117761 
L 180.897659 109.745692 
L 184.477809 111.584305 
L 188.057959 113.637062 
L 191.63811 115.902294 
L 196.113298 119.021816 
L 200.588486 122.43834 
L 205.063674 126.116806 
L 210.433899 130.813331 
L 217.5942 137.401994 
L 233.704877 152.390347 
L 239.075102 157.075496 
L 244.445328 161.461652 
L 248.920516 164.843799 
L 253.395704 167.951569 
L 257.870892 170.771769 
L 262.34608 173.302044 
L 266.821268 175.550258 
L 271.296456 177.533253 
L 275.771644 179.27498 
L 280.246832 180.804049 
L 285.617057 182.400781 
L 291.88232 183.995377 
L 298.147583 185.350338 
L 304.412847 186.473054 
L 309.783072 187.20874 
L 314.25826 187.601066 
L 317.83841 187.718774 
L 321.418561 187.609693 
L 324.103674 187.344241 
L 326.788786 186.89072 
L 329.473899 186.219021 
L 332.159012 185.297254 
L 334.844125 184.092426 
L 337.529238 182.571283 
L 340.21435 180.701354 
L 342.899463 178.4522 
L 345.584576 175.7969 
L 348.269689 172.713789 
L 350.954801 169.188481 
L 353.639914 165.216186 
L 356.325027 160.804365 
L 359.01014 155.975728 
L 362.59029 148.963786 
L 367.065478 139.518851 
L 374.225779 124.183905 
L 376.910892 118.975334 
L 378.700967 115.875333 
L 380.491042 113.187391 
L 382.281117 111.023878 
L 383.176155 110.17773 
L 384.071192 109.511291 
L 384.96623 109.042772 
L 385.861268 108.791418 
L 386.756305 108.777546 
L 387.651343 109.022586 
L 388.54638 109.549128 
L 389.441418 110.380961 
L 390.336456 111.54312 
L 391.231493 113.061933 
L 392.126531 114.965065 
L 393.021568 117.28157 
L 393.916606 120.041939 
L 394.811644 123.27815 
L 395.706681 127.023723 
L 396.601719 131.313772 
L 396.601719 131.313772 
" clip-path="url(#p7782119866)" style="fill: none; stroke: #0000ff; stroke-width: 2; stroke-linecap: square"/>
   </g>
   <g class="patch">
    <path d="M 39.481719 273.131297 
L 39.481719 7.019297 
" style="fill: none; stroke:var(--black); stroke-width: 0.8; stroke-linejoin: miter; stroke-linecap: square"/>
   </g>
   <g class="patch">
    <path d="M 39.481719 273.131297 
L 396.601719 273.131297 
" style="fill: none; stroke:var(--black); stroke-width: 0.8; stroke-linejoin: miter; stroke-linecap: square"/>
   </g>
   <g id="PathCollection_1">
    <defs>
     <path id="m50596f86d4" d="M 0 3 
C 0.795609 3 1.55874 2.683901 2.12132 2.12132 
C 2.683901 1.55874 3 0.795609 3 0 
C 3 -0.795609 2.683901 -1.55874 2.12132 -2.12132 
C 1.55874 -2.683901 0.795609 -3 0 -3 
C -0.795609 -3 -1.55874 -2.683901 -2.12132 -2.12132 
C -2.683901 -1.55874 -3 -0.795609 -3 0 
C -3 0.795609 -2.683901 1.55874 -2.12132 2.12132 
C -1.55874 2.683901 -0.795609 3 0 3 
z
" style="stroke:var(--black)"/>
    </defs>
    <g clip-path="url(#p7782119866)">
     <use xlink:href="#m50596f86d4" x="39.481719" y="146.753189" style="stroke:var(--black)"/>
     <use xlink:href="#m50596f86d4" x="79.161719" y="113.073864" style="stroke:var(--black)"/>
     <use xlink:href="#m50596f86d4" x="118.841719" y="96.320254" style="stroke:var(--black)"/>
     <use xlink:href="#m50596f86d4" x="158.521719" y="102.510637" style="stroke:var(--black)"/>
     <use xlink:href="#m50596f86d4" x="198.201719" y="120.581124" style="stroke:var(--black)"/>
     <use xlink:href="#m50596f86d4" x="237.881719" y="156.057659" style="stroke:var(--black)"/>
     <use xlink:href="#m50596f86d4" x="277.561719" y="179.910433" style="stroke:var(--black)"/>
     <use xlink:href="#m50596f86d4" x="317.241719" y="187.713461" style="stroke:var(--black)"/>
     <use xlink:href="#m50596f86d4" x="356.921719" y="159.766217" style="stroke:var(--black)"/>
     <use xlink:href="#m50596f86d4" x="396.601719" y="131.313772" style="stroke:var(--black)"/>
    </g>
   </g>
   <g class="legend">
    <g class="patch">
     <path d="M 254.136094 88.409922 
L 389.601719 88.409922 
Q 391.601719 88.409922 391.601719 86.409922 
L 391.601719 14.019297 
Q 391.601719 12.019297 389.601719 12.019297 
L 254.136094 12.019297 
Q 252.136094 12.019297 252.136094 14.019297 
L 252.136094 86.409922 
Q 252.136094 88.409922 254.136094 88.409922 
L 254.136094 88.409922 
z
" style="fill: none; opacity: 0.9; stroke: #cccccc; stroke-linejoin: miter"/>
    </g>
    <g id="line2d_31">
     <path d="M 256.136094 20.117734 
L 266.136094 20.117734 
L 276.136094 20.117734 
" style="fill: none; stroke-dasharray: 7.4,3.2; stroke-dashoffset: 0; stroke:var(--black); stroke-width: 2"/>
    </g>
    <g id="text_16" class="text">
     <!-- True function -->
     <g transform="translate(284.136094 23.617734) scale(0.1 -0.1)">
      <defs>
       <path id="DejaVuSerif-54" d="M 1222 0 
L 1222 331 
L 1819 331 
L 1819 4294 
L 447 4294 
L 447 3566 
L 63 3566 
L 63 4666 
L 4206 4666 
L 4206 3566 
L 3822 3566 
L 3822 4294 
L 2450 4294 
L 2450 331 
L 3047 331 
L 3047 0 
L 1222 0 
z
" transform="scale(0.015625)"/>
       <path id="DejaVuSerif-72" d="M 3059 3328 
L 3059 2497 
L 2728 2497 
Q 2713 2744 2591 2866 
Q 2469 2988 2234 2988 
Q 1809 2988 1582 2694 
Q 1356 2400 1356 1850 
L 1356 331 
L 2022 331 
L 2022 0 
L 263 0 
L 263 331 
L 781 331 
L 781 2994 
L 231 2994 
L 231 3322 
L 1356 3322 
L 1356 2731 
Q 1525 3078 1790 3245 
Q 2056 3413 2438 3413 
Q 2578 3413 2733 3391 
Q 2888 3369 3059 3328 
z
" transform="scale(0.015625)"/>
       <path id="DejaVuSerif-75" d="M 2266 3322 
L 3341 3322 
L 3341 331 
L 3884 331 
L 3884 0 
L 2766 0 
L 2766 588 
Q 2606 256 2353 82 
Q 2100 -91 1766 -91 
Q 1213 -91 952 223 
Q 691 538 691 1209 
L 691 2988 
L 172 2988 
L 172 3322 
L 1269 3322 
L 1269 1388 
Q 1269 781 1417 556 
Q 1566 331 1947 331 
Q 2347 331 2556 625 
Q 2766 919 2766 1478 
L 2766 2988 
L 2266 2988 
L 2266 3322 
z
" transform="scale(0.015625)"/>
       <path id="DejaVuSerif-65" d="M 3469 1600 
L 991 1600 
L 991 1575 
Q 991 903 1244 561 
Q 1497 219 1991 219 
Q 2369 219 2611 417 
Q 2853 616 2950 1006 
L 3413 1006 
Q 3275 459 2904 184 
Q 2534 -91 1931 -91 
Q 1203 -91 761 389 
Q 319 869 319 1663 
Q 319 2450 753 2931 
Q 1188 3413 1894 3413 
Q 2647 3413 3050 2948 
Q 3453 2484 3469 1600 
z
M 2791 1931 
Q 2772 2513 2545 2808 
Q 2319 3103 1894 3103 
Q 1497 3103 1269 2806 
Q 1041 2509 991 1931 
L 2791 1931 
z
" transform="scale(0.015625)"/>
       <path id="DejaVuSerif-20" transform="scale(0.015625)"/>
       <path id="DejaVuSerif-66" d="M 2753 4078 
L 2450 4078 
Q 2447 4313 2317 4434 
Q 2188 4556 1941 4556 
Q 1619 4556 1487 4379 
Q 1356 4203 1356 3750 
L 1356 3322 
L 2284 3322 
L 2284 2988 
L 1356 2988 
L 1356 331 
L 2094 331 
L 2094 0 
L 231 0 
L 231 331 
L 781 331 
L 781 2988 
L 231 2988 
L 231 3322 
L 781 3322 
L 781 3738 
Q 781 4294 1070 4578 
Q 1359 4863 1919 4863 
Q 2128 4863 2337 4825 
Q 2547 4788 2753 4709 
L 2753 4078 
z
" transform="scale(0.015625)"/>
       <path id="DejaVuSerif-6e" d="M 263 0 
L 263 331 
L 781 331 
L 781 2988 
L 231 2988 
L 231 3322 
L 1356 3322 
L 1356 2731 
Q 1516 3069 1770 3241 
Q 2025 3413 2363 3413 
Q 2913 3413 3172 3097 
Q 3431 2781 3431 2113 
L 3431 331 
L 3944 331 
L 3944 0 
L 2356 0 
L 2356 331 
L 2853 331 
L 2853 1931 
Q 2853 2541 2703 2767 
Q 2553 2994 2175 2994 
Q 1775 2994 1565 2701 
Q 1356 2409 1356 1850 
L 1356 331 
L 1856 331 
L 1856 0 
L 263 0 
z
" transform="scale(0.015625)"/>
       <path id="DejaVuSerif-63" d="M 3291 997 
Q 3169 466 2822 187 
Q 2475 -91 1925 -91 
Q 1200 -91 759 389 
Q 319 869 319 1663 
Q 319 2459 759 2936 
Q 1200 3413 1925 3413 
Q 2241 3413 2553 3339 
Q 2866 3266 3181 3116 
L 3181 2266 
L 2847 2266 
Q 2781 2703 2561 2903 
Q 2341 3103 1931 3103 
Q 1466 3103 1228 2742 
Q 991 2381 991 1663 
Q 991 944 1227 581 
Q 1463 219 1931 219 
Q 2303 219 2525 412 
Q 2747 606 2828 997 
L 3291 997 
z
" transform="scale(0.015625)"/>
       <path id="DejaVuSerif-74" d="M 691 2988 
L 184 2988 
L 184 3322 
L 691 3322 
L 691 4353 
L 1269 4353 
L 1269 3322 
L 2350 3322 
L 2350 2988 
L 1269 2988 
L 1269 878 
Q 1269 456 1350 337 
Q 1431 219 1650 219 
Q 1875 219 1978 351 
Q 2081 484 2088 781 
L 2522 781 
Q 2497 328 2275 118 
Q 2053 -91 1600 -91 
Q 1103 -91 897 129 
Q 691 350 691 878 
L 691 2988 
z
" transform="scale(0.015625)"/>
       <path id="DejaVuSerif-69" d="M 622 4353 
Q 622 4497 726 4603 
Q 831 4709 978 4709 
Q 1122 4709 1226 4603 
Q 1331 4497 1331 4353 
Q 1331 4206 1228 4103 
Q 1125 4000 978 4000 
Q 831 4000 726 4103 
Q 622 4206 622 4353 
z
M 1356 331 
L 1900 331 
L 1900 0 
L 231 0 
L 231 331 
L 781 331 
L 781 2988 
L 231 2988 
L 231 3322 
L 1356 3322 
L 1356 331 
z
" transform="scale(0.015625)"/>
       <path id="DejaVuSerif-6f" d="M 1925 219 
Q 2388 219 2623 584 
Q 2859 950 2859 1663 
Q 2859 2375 2623 2739 
Q 2388 3103 1925 3103 
Q 1463 3103 1227 2739 
Q 991 2375 991 1663 
Q 991 950 1228 584 
Q 1466 219 1925 219 
z
M 1925 -91 
Q 1200 -91 759 389 
Q 319 869 319 1663 
Q 319 2456 758 2934 
Q 1197 3413 1925 3413 
Q 2653 3413 3092 2934 
Q 3531 2456 3531 1663 
Q 3531 869 3092 389 
Q 2653 -91 1925 -91 
z
" transform="scale(0.015625)"/>
      </defs>
      <use xlink:href="#DejaVuSerif-54"/>
      <use xlink:href="#DejaVuSerif-72" transform="translate(66.699219 0)"/>
      <use xlink:href="#DejaVuSerif-75" transform="translate(114.501953 0)"/>
      <use xlink:href="#DejaVuSerif-65" transform="translate(178.90625 0)"/>
      <use xlink:href="#DejaVuSerif-20" transform="translate(238.085938 0)"/>
      <use xlink:href="#DejaVuSerif-66" transform="translate(269.873047 0)"/>
      <use xlink:href="#DejaVuSerif-75" transform="translate(306.884766 0)"/>
      <use xlink:href="#DejaVuSerif-6e" transform="translate(371.289062 0)"/>
      <use xlink:href="#DejaVuSerif-63" transform="translate(435.693359 0)"/>
      <use xlink:href="#DejaVuSerif-74" transform="translate(491.699219 0)"/>
      <use xlink:href="#DejaVuSerif-69" transform="translate(531.884766 0)"/>
      <use xlink:href="#DejaVuSerif-6f" transform="translate(563.867188 0)"/>
      <use xlink:href="#DejaVuSerif-6e" transform="translate(624.072266 0)"/>
     </g>
    </g>
    <g id="line2d_32">
     <path d="M 256.136094 34.795859 
L 266.136094 34.795859 
L 276.136094 34.795859 
" style="fill: none; stroke: #008000; stroke-width: 2; stroke-linecap: square"/>
    </g>
    <g id="text_17" class="text">
     <!-- ML Predictor (M=1) -->
     <g transform="translate(284.136094 38.295859) scale(0.1 -0.1)">
      <defs>
       <path id="DejaVuSerif-4d" d="M 353 0 
L 353 331 
L 947 331 
L 947 4331 
L 319 4331 
L 319 4666 
L 1678 4666 
L 3316 1344 
L 4953 4666 
L 6228 4666 
L 6228 4331 
L 5606 4331 
L 5606 331 
L 6203 331 
L 6203 0 
L 4378 0 
L 4378 331 
L 4972 331 
L 4972 3938 
L 3372 684 
L 2931 684 
L 1331 3938 
L 1331 331 
L 1925 331 
L 1925 0 
L 353 0 
z
" transform="scale(0.015625)"/>
       <path id="DejaVuSerif-4c" d="M 353 0 
L 353 331 
L 947 331 
L 947 4331 
L 353 4331 
L 353 4666 
L 2175 4666 
L 2175 4331 
L 1581 4331 
L 1581 384 
L 3713 384 
L 3713 1166 
L 4097 1166 
L 4097 0 
L 353 0 
z
" transform="scale(0.015625)"/>
       <path id="DejaVuSerif-50" d="M 1581 2375 
L 2406 2375 
Q 2872 2375 3115 2626 
Q 3359 2878 3359 3353 
Q 3359 3831 3115 4081 
Q 2872 4331 2406 4331 
L 1581 4331 
L 1581 2375 
z
M 353 0 
L 353 331 
L 947 331 
L 947 4331 
L 353 4331 
L 353 4666 
L 2559 4666 
Q 3259 4666 3668 4311 
Q 4078 3956 4078 3353 
Q 4078 2753 3668 2397 
Q 3259 2041 2559 2041 
L 1581 2041 
L 1581 331 
L 2303 331 
L 2303 0 
L 353 0 
z
" transform="scale(0.015625)"/>
       <path id="DejaVuSerif-64" d="M 3359 331 
L 3909 331 
L 3909 0 
L 2784 0 
L 2784 519 
Q 2616 206 2355 57 
Q 2094 -91 1709 -91 
Q 1097 -91 708 395 
Q 319 881 319 1663 
Q 319 2444 706 2928 
Q 1094 3413 1709 3413 
Q 2094 3413 2355 3264 
Q 2616 3116 2784 2803 
L 2784 4531 
L 2241 4531 
L 2241 4863 
L 3359 4863 
L 3359 331 
z
M 2784 1497 
L 2784 1825 
Q 2784 2422 2554 2737 
Q 2325 3053 1888 3053 
Q 1444 3053 1217 2703 
Q 991 2353 991 1663 
Q 991 975 1217 622 
Q 1444 269 1888 269 
Q 2325 269 2554 583 
Q 2784 897 2784 1497 
z
" transform="scale(0.015625)"/>
       <path id="DejaVuSerif-28" d="M 2041 -997 
Q 1281 -656 893 83 
Q 506 822 506 1931 
Q 506 3044 893 3783 
Q 1281 4522 2041 4863 
L 2041 4556 
Q 1559 4225 1350 3623 
Q 1141 3022 1141 1931 
Q 1141 844 1350 242 
Q 1559 -359 2041 -691 
L 2041 -997 
z
" transform="scale(0.015625)"/>
       <path id="DejaVuSerif-3d" d="M 678 2894 
L 4684 2894 
L 4684 2394 
L 678 2394 
L 678 2894 
z
M 678 1619 
L 4684 1619 
L 4684 1119 
L 678 1119 
L 678 1619 
z
" transform="scale(0.015625)"/>
       <path id="DejaVuSerif-29" d="M 453 -997 
L 453 -691 
Q 934 -359 1145 242 
Q 1356 844 1356 1931 
Q 1356 3022 1145 3623 
Q 934 4225 453 4556 
L 453 4863 
Q 1216 4522 1603 3783 
Q 1991 3044 1991 1931 
Q 1991 822 1603 83 
Q 1216 -656 453 -997 
z
" transform="scale(0.015625)"/>
      </defs>
      <use xlink:href="#DejaVuSerif-4d"/>
      <use xlink:href="#DejaVuSerif-4c" transform="translate(102.392578 0)"/>
      <use xlink:href="#DejaVuSerif-20" transform="translate(168.798828 0)"/>
      <use xlink:href="#DejaVuSerif-50" transform="translate(200.585938 0)"/>
      <use xlink:href="#DejaVuSerif-72" transform="translate(267.871094 0)"/>
      <use xlink:href="#DejaVuSerif-65" transform="translate(315.673828 0)"/>
      <use xlink:href="#DejaVuSerif-64" transform="translate(374.853516 0)"/>
      <use xlink:href="#DejaVuSerif-69" transform="translate(438.867188 0)"/>
      <use xlink:href="#DejaVuSerif-63" transform="translate(470.849609 0)"/>
      <use xlink:href="#DejaVuSerif-74" transform="translate(526.855469 0)"/>
      <use xlink:href="#DejaVuSerif-6f" transform="translate(567.041016 0)"/>
      <use xlink:href="#DejaVuSerif-72" transform="translate(627.246094 0)"/>
      <use xlink:href="#DejaVuSerif-20" transform="translate(675.048828 0)"/>
      <use xlink:href="#DejaVuSerif-28" transform="translate(706.835938 0)"/>
      <use xlink:href="#DejaVuSerif-4d" transform="translate(745.849609 0)"/>
      <use xlink:href="#DejaVuSerif-3d" transform="translate(848.242188 0)"/>
      <use xlink:href="#DejaVuSerif-31" transform="translate(932.03125 0)"/>
      <use xlink:href="#DejaVuSerif-29" transform="translate(995.654297 0)"/>
     </g>
    </g>
    <g id="line2d_33">
     <path d="M 256.136094 49.473984 
L 266.136094 49.473984 
L 276.136094 49.473984 
" style="fill: none; stroke: #ff0000; stroke-width: 2; stroke-linecap: square"/>
    </g>
    <g id="text_18" class="text">
     <!-- ML Predictor (M=3) -->
     <g transform="translate(284.136094 52.973984) scale(0.1 -0.1)">
      <use xlink:href="#DejaVuSerif-4d"/>
      <use xlink:href="#DejaVuSerif-4c" transform="translate(102.392578 0)"/>
      <use xlink:href="#DejaVuSerif-20" transform="translate(168.798828 0)"/>
      <use xlink:href="#DejaVuSerif-50" transform="translate(200.585938 0)"/>
      <use xlink:href="#DejaVuSerif-72" transform="translate(267.871094 0)"/>
      <use xlink:href="#DejaVuSerif-65" transform="translate(315.673828 0)"/>
      <use xlink:href="#DejaVuSerif-64" transform="translate(374.853516 0)"/>
      <use xlink:href="#DejaVuSerif-69" transform="translate(438.867188 0)"/>
      <use xlink:href="#DejaVuSerif-63" transform="translate(470.849609 0)"/>
      <use xlink:href="#DejaVuSerif-74" transform="translate(526.855469 0)"/>
      <use xlink:href="#DejaVuSerif-6f" transform="translate(567.041016 0)"/>
      <use xlink:href="#DejaVuSerif-72" transform="translate(627.246094 0)"/>
      <use xlink:href="#DejaVuSerif-20" transform="translate(675.048828 0)"/>
      <use xlink:href="#DejaVuSerif-28" transform="translate(706.835938 0)"/>
      <use xlink:href="#DejaVuSerif-4d" transform="translate(745.849609 0)"/>
      <use xlink:href="#DejaVuSerif-3d" transform="translate(848.242188 0)"/>
      <use xlink:href="#DejaVuSerif-33" transform="translate(932.03125 0)"/>
      <use xlink:href="#DejaVuSerif-29" transform="translate(995.654297 0)"/>
     </g>
    </g>
    <g id="line2d_34">
     <path d="M 256.136094 64.152109 
L 266.136094 64.152109 
L 276.136094 64.152109 
" style="fill: none; stroke: #0000ff; stroke-width: 2; stroke-linecap: square"/>
    </g>
    <g id="text_19" class="text">
     <!-- ML Predictor (M=9) -->
     <g transform="translate(284.136094 67.652109) scale(0.1 -0.1)">
      <defs>
       <path id="DejaVuSerif-39" d="M 2994 2091 
Q 2784 1856 2512 1740 
Q 2241 1625 1900 1625 
Q 1206 1625 804 2044 
Q 403 2463 403 3188 
Q 403 3897 839 4323 
Q 1275 4750 2003 4750 
Q 2794 4750 3217 4161 
Q 3641 3572 3641 2478 
Q 3641 1253 3137 581 
Q 2634 -91 1722 -91 
Q 1475 -91 1203 -44 
Q 931 3 647 97 
L 647 872 
L 997 872 
Q 1038 556 1241 387 
Q 1444 219 1784 219 
Q 2391 219 2687 676 
Q 2984 1134 2994 2091 
z
M 1978 4441 
Q 1534 4441 1298 4117 
Q 1063 3794 1063 3188 
Q 1063 2581 1298 2256 
Q 1534 1931 1978 1931 
Q 2422 1931 2658 2245 
Q 2894 2559 2894 3150 
Q 2894 3772 2656 4106 
Q 2419 4441 1978 4441 
z
" transform="scale(0.015625)"/>
      </defs>
      <use xlink:href="#DejaVuSerif-4d"/>
      <use xlink:href="#DejaVuSerif-4c" transform="translate(102.392578 0)"/>
      <use xlink:href="#DejaVuSerif-20" transform="translate(168.798828 0)"/>
      <use xlink:href="#DejaVuSerif-50" transform="translate(200.585938 0)"/>
      <use xlink:href="#DejaVuSerif-72" transform="translate(267.871094 0)"/>
      <use xlink:href="#DejaVuSerif-65" transform="translate(315.673828 0)"/>
      <use xlink:href="#DejaVuSerif-64" transform="translate(374.853516 0)"/>
      <use xlink:href="#DejaVuSerif-69" transform="translate(438.867188 0)"/>
      <use xlink:href="#DejaVuSerif-63" transform="translate(470.849609 0)"/>
      <use xlink:href="#DejaVuSerif-74" transform="translate(526.855469 0)"/>
      <use xlink:href="#DejaVuSerif-6f" transform="translate(567.041016 0)"/>
      <use xlink:href="#DejaVuSerif-72" transform="translate(627.246094 0)"/>
      <use xlink:href="#DejaVuSerif-20" transform="translate(675.048828 0)"/>
      <use xlink:href="#DejaVuSerif-28" transform="translate(706.835938 0)"/>
      <use xlink:href="#DejaVuSerif-4d" transform="translate(745.849609 0)"/>
      <use xlink:href="#DejaVuSerif-3d" transform="translate(848.242188 0)"/>
      <use xlink:href="#DejaVuSerif-39" transform="translate(932.03125 0)"/>
      <use xlink:href="#DejaVuSerif-29" transform="translate(995.654297 0)"/>
     </g>
    </g>
    <g id="PathCollection_2">
     <g>
      <use xlink:href="#m50596f86d4" x="266.136094" y="79.705234" style="stroke:var(--black)"/>
     </g>
    </g>
    <g id="text_20" class="text">
     <!-- Data points -->
     <g transform="translate(284.136094 82.330234) scale(0.1 -0.1)">
      <defs>
       <path id="DejaVuSerif-44" d="M 1581 331 
L 2163 331 
Q 3072 331 3558 850 
Q 4044 1369 4044 2338 
Q 4044 3306 3559 3818 
Q 3075 4331 2163 4331 
L 1581 4331 
L 1581 331 
z
M 353 0 
L 353 331 
L 947 331 
L 947 4331 
L 353 4331 
L 353 4666 
L 2209 4666 
Q 3416 4666 4089 4050 
Q 4763 3434 4763 2338 
Q 4763 1238 4088 619 
Q 3413 0 2209 0 
L 353 0 
z
" transform="scale(0.015625)"/>
       <path id="DejaVuSerif-61" d="M 2547 1044 
L 2547 1747 
L 1806 1747 
Q 1378 1747 1168 1562 
Q 959 1378 959 997 
Q 959 650 1171 447 
Q 1384 244 1747 244 
Q 2106 244 2326 466 
Q 2547 688 2547 1044 
z
M 3122 2075 
L 3122 331 
L 3634 331 
L 3634 0 
L 2547 0 
L 2547 359 
Q 2356 128 2106 18 
Q 1856 -91 1522 -91 
Q 969 -91 644 203 
Q 319 497 319 997 
Q 319 1513 691 1797 
Q 1063 2081 1741 2081 
L 2547 2081 
L 2547 2309 
Q 2547 2688 2317 2895 
Q 2088 3103 1672 3103 
Q 1328 3103 1125 2947 
Q 922 2791 872 2484 
L 575 2484 
L 575 3156 
Q 875 3284 1158 3348 
Q 1441 3413 1709 3413 
Q 2400 3413 2761 3070 
Q 3122 2728 3122 2075 
z
" transform="scale(0.015625)"/>
       <path id="DejaVuSerif-70" d="M 1313 1825 
L 1313 1497 
Q 1313 897 1542 583 
Q 1772 269 2209 269 
Q 2650 269 2876 622 
Q 3103 975 3103 1663 
Q 3103 2353 2876 2703 
Q 2650 3053 2209 3053 
Q 1772 3053 1542 2737 
Q 1313 2422 1313 1825 
z
M 738 2988 
L 184 2988 
L 184 3322 
L 1313 3322 
L 1313 2803 
Q 1481 3116 1742 3264 
Q 2003 3413 2388 3413 
Q 3000 3413 3387 2928 
Q 3775 2444 3775 1663 
Q 3775 881 3387 395 
Q 3000 -91 2388 -91 
Q 2003 -91 1742 57 
Q 1481 206 1313 519 
L 1313 -997 
L 1856 -997 
L 1856 -1331 
L 184 -1331 
L 184 -997 
L 738 -997 
L 738 2988 
z
" transform="scale(0.015625)"/>
       <path id="DejaVuSerif-73" d="M 359 184 
L 359 959 
L 691 959 
Q 703 588 923 403 
Q 1144 219 1575 219 
Q 1963 219 2166 364 
Q 2369 509 2369 788 
Q 2369 1006 2220 1140 
Q 2072 1275 1594 1428 
L 1178 1569 
Q 750 1706 558 1912 
Q 366 2119 366 2438 
Q 366 2894 700 3153 
Q 1034 3413 1625 3413 
Q 1888 3413 2178 3344 
Q 2469 3275 2778 3144 
L 2778 2419 
L 2447 2419 
Q 2434 2741 2221 2922 
Q 2009 3103 1644 3103 
Q 1281 3103 1095 2975 
Q 909 2847 909 2591 
Q 909 2381 1050 2254 
Q 1191 2128 1613 1997 
L 2069 1856 
Q 2541 1709 2748 1489 
Q 2956 1269 2956 922 
Q 2956 450 2595 179 
Q 2234 -91 1600 -91 
Q 1278 -91 972 -22 
Q 666 47 359 184 
z
" transform="scale(0.015625)"/>
      </defs>
      <use xlink:href="#DejaVuSerif-44"/>
      <use xlink:href="#DejaVuSerif-61" transform="translate(80.175781 0)"/>
      <use xlink:href="#DejaVuSerif-74" transform="translate(139.794922 0)"/>
      <use xlink:href="#DejaVuSerif-61" transform="translate(179.980469 0)"/>
      <use xlink:href="#DejaVuSerif-20" transform="translate(239.599609 0)"/>
      <use xlink:href="#DejaVuSerif-70" transform="translate(271.386719 0)"/>
      <use xlink:href="#DejaVuSerif-6f" transform="translate(335.400391 0)"/>
      <use xlink:href="#DejaVuSerif-69" transform="translate(395.605469 0)"/>
      <use xlink:href="#DejaVuSerif-6e" transform="translate(427.587891 0)"/>
      <use xlink:href="#DejaVuSerif-74" transform="translate(491.992188 0)"/>
      <use xlink:href="#DejaVuSerif-73" transform="translate(532.177734 0)"/>
     </g>
    </g>
   </g>
  </g>
 </g>
 <defs>
  <clipPath id="p7782119866">
   <rect x="39.481719" y="7.019297" width="357.12" height="266.112"/>
  </clipPath>
 </defs>
</svg>
